<svg xmlns="http://www.w3.org/2000/svg" width="16.934" height="17" viewBox="0 0 16.934 17">
  <g id="angel" transform="translate(-1 0)">
    <g id="Сгруппировать_71" data-name="Сгруппировать 71" transform="translate(6.313 0)">
      <path id="Контур_51" data-name="Контур 51" d="M164.154,3.32a5.33,5.33,0,0,1-2.078-.382C161.14,2.528,161,1.962,161,1.66s.14-.868,1.076-1.278a5.84,5.84,0,0,1,4.156,0c.937.41,1.076.977,1.076,1.278s-.14.868-1.076,1.278A5.33,5.33,0,0,1,164.154,3.32Zm0-2.324a4.39,4.39,0,0,0-1.679.3c-.366.16-.48.324-.48.365s.114.205.48.365a4.39,4.39,0,0,0,1.679.3,4.39,4.39,0,0,0,1.679-.3c.366-.16.48-.324.48-.365s-.114-.205-.48-.365A4.39,4.39,0,0,0,164.154,1Z" transform="translate(-161 0)" fill="#00a7ce"/>
    </g>
    <path id="Контур_52" data-name="Контур 52" d="M273.158,122A2.161,2.161,0,0,0,271,124.158v2.324a.5.5,0,0,0,.5.5.5.5,0,0,1,.5.5v1.992a2.494,2.494,0,0,0,1.743,2.375v-3.371a.5.5,0,0,1,1,0v4.433a2.483,2.483,0,0,0,1.494.7V129.8a.5.5,0,0,1,1,0v4.812a2.475,2.475,0,0,0,1.245.334.5.5,0,0,0,.5-.5v-6.64A5.817,5.817,0,0,0,273.158,122Z" transform="translate(-261.035 -117.949)" fill="#00a7ce"/>
    <path id="Контур_53" data-name="Контур 53" d="M6.811,122a2.161,2.161,0,0,1,2.158,2.158v2.324a.5.5,0,0,1-.5.5.5.5,0,0,0-.5.5v1.992a2.494,2.494,0,0,1-1.743,2.375v-3.371a.5.5,0,0,0-1,0v4.433a2.483,2.483,0,0,1-1.494.7V129.8a.5.5,0,0,0-1,0v4.812a2.475,2.475,0,0,1-1.245.334.5.5,0,0,1-.5-.5v-6.64A5.817,5.817,0,0,1,6.811,122Z" transform="translate(0 -117.949)" fill="#00a7ce"/>
  </g>
</svg>
