<svg id="Download_on_the_App_Store_Badge_RU_RGB_blk_100317" xmlns="http://www.w3.org/2000/svg" width="167.442" height="55.971" viewBox="0 0 167.442 55.971">
  <g id="Сгруппировать_463" data-name="Сгруппировать 463" transform="translate(0 0)">
    <g id="Сгруппировать_461" data-name="Сгруппировать 461">
      <path id="Контур_18174" data-name="Контур 18174" d="M154.108,0H13.341c-.513,0-1.02,0-1.532,0-.428,0-.853.011-1.286.018a18.491,18.491,0,0,0-2.8.247,9.326,9.326,0,0,0-2.66.877A9.008,9.008,0,0,0,2.8,2.794,8.757,8.757,0,0,0,1.146,5.063,9.237,9.237,0,0,0,.272,7.726a18.181,18.181,0,0,0-.251,2.8c-.013.429-.014.859-.021,1.289V44.159c.007.434.008.855.021,1.29a18.179,18.179,0,0,0,.251,2.8,9.218,9.218,0,0,0,.875,2.665A8.686,8.686,0,0,0,2.8,53.173,8.779,8.779,0,0,0,5.06,54.823a9.376,9.376,0,0,0,2.66.883,18.827,18.827,0,0,0,2.8.247c.432.01.857.015,1.286.015.512,0,1.019,0,1.532,0H154.108c.5,0,1.014,0,1.517,0,.426,0,.864-.005,1.29-.015a18.58,18.58,0,0,0,2.8-.247,9.521,9.521,0,0,0,2.67-.883,8.784,8.784,0,0,0,2.263-1.649,8.949,8.949,0,0,0,1.653-2.259,9.241,9.241,0,0,0,.866-2.665,18.9,18.9,0,0,0,.26-2.8c.005-.435.005-.856.005-1.29.011-.508.011-1.014.011-1.531V13.344c0-.512,0-1.021-.011-1.528,0-.429,0-.86-.005-1.289a18.894,18.894,0,0,0-.26-2.8,9.26,9.26,0,0,0-.866-2.663,9.048,9.048,0,0,0-3.916-3.918,9.47,9.47,0,0,0-2.67-.877,18.252,18.252,0,0,0-2.8-.247c-.426-.007-.864-.015-1.29-.018-.5,0-1.014,0-1.517,0Z" transform="translate(0 0)" fill="#a6a6a6"/>
      <path id="Контур_18175" data-name="Контур 18175" d="M11.468,54.4c-.426,0-.842-.005-1.265-.015a17.753,17.753,0,0,1-2.615-.228,8.233,8.233,0,0,1-2.318-.767,7.564,7.564,0,0,1-1.955-1.422A7.445,7.445,0,0,1,1.886,50.01a8.006,8.006,0,0,1-.76-2.319,17.37,17.37,0,0,1-.233-2.624c-.009-.3-.02-1.278-.02-1.278V11.466s.012-.967.021-1.252A17.309,17.309,0,0,1,1.125,7.6a8.053,8.053,0,0,1,.76-2.326,7.519,7.519,0,0,1,1.42-1.956A7.787,7.787,0,0,1,5.268,1.883a8.148,8.148,0,0,1,2.313-.761,17.611,17.611,0,0,1,2.624-.23L11.469.875h143.8l1.278.018a17.33,17.33,0,0,1,2.6.228,8.309,8.309,0,0,1,2.338.767,7.827,7.827,0,0,1,3.379,3.386,8.063,8.063,0,0,1,.749,2.307,18.182,18.182,0,0,1,.243,2.641c0,.4,0,.822,0,1.246.011.525.011,1.024.011,1.528V42.279c0,.508,0,1-.011,1.5,0,.455,0,.872-.005,1.3a17.818,17.818,0,0,1-.239,2.594,8.031,8.031,0,0,1-.756,2.337,7.669,7.669,0,0,1-1.421,1.939,7.574,7.574,0,0,1-1.958,1.431,8.2,8.2,0,0,1-2.334.769,17.549,17.549,0,0,1-2.616.228c-.41.01-.839.015-1.256.015l-1.517,0Z" transform="translate(0.349 0.35)"/>
    </g>
    <g id="_Group_" data-name="&lt;Group&gt;" transform="translate(13.953 12.202)">
      <g id="_Group_2" data-name="&lt;Group&gt;">
        <g id="_Group_3" data-name="&lt;Group&gt;">
          <path id="_Path_" data-name="&lt;Path&gt;" d="M30.677,22.827a6.925,6.925,0,0,1,3.3-5.81A7.088,7.088,0,0,0,28.39,14c-2.35-.247-4.628,1.406-5.825,1.406-1.221,0-3.064-1.382-5.049-1.341a7.437,7.437,0,0,0-6.259,3.817c-2.706,4.685-.688,11.571,1.9,15.358,1.3,1.855,2.813,3.926,4.8,3.853,1.941-.08,2.666-1.238,5.009-1.238,2.321,0,3,1.238,5.025,1.191,2.083-.034,3.395-1.863,4.646-3.735a15.339,15.339,0,0,0,2.125-4.327,6.691,6.691,0,0,1-4.085-6.156Z" transform="translate(-9.972 -6.623)" fill="#fff"/>
          <path id="_Path_2" data-name="&lt;Path&gt;" d="M23.334,13.6a6.818,6.818,0,0,0,1.56-4.884A6.937,6.937,0,0,0,20.4,11.043a6.487,6.487,0,0,0-1.6,4.7A5.736,5.736,0,0,0,23.334,13.6Z" transform="translate(-6.45 -8.72)" fill="#fff"/>
        </g>
      </g>
      <g id="Сгруппировать_462" data-name="Сгруппировать 462" transform="translate(34.22 12.804)">
        <path id="Контур_18176" data-name="Контур 18176" d="M45.446,30.758H38.823l-1.591,4.7H34.427L40.7,18.078h2.915l6.273,17.376H47.036ZM39.509,28.59h5.25l-2.588-7.622H42.1Z" transform="translate(-34.427 -17.788)" fill="#fff"/>
        <path id="Контур_18177" data-name="Контур 18177" d="M58.565,27.816c0,3.937-2.107,6.466-5.287,6.466a4.3,4.3,0,0,1-3.986-2.216h-.06V38.34h-2.6V21.481h2.517v2.107H49.2a4.494,4.494,0,0,1,4.034-2.24C56.445,21.348,58.565,23.89,58.565,27.816Zm-2.673,0c0-2.565-1.325-4.251-3.348-4.251-1.987,0-3.323,1.722-3.323,4.251,0,2.553,1.336,4.262,3.323,4.262,2.022,0,3.348-1.674,3.348-4.262Z" transform="translate(-29.555 -16.484)" fill="#fff"/>
        <path id="Контур_18178" data-name="Контур 18178" d="M68.53,27.816c0,3.937-2.107,6.466-5.287,6.466a4.3,4.3,0,0,1-3.986-2.216H59.2V38.34H56.6V21.481h2.517v2.107h.048a4.494,4.494,0,0,1,4.034-2.24C66.41,21.348,68.53,23.89,68.53,27.816Zm-2.673,0c0-2.565-1.325-4.251-3.348-4.251-1.987,0-3.323,1.722-3.323,4.251,0,2.553,1.336,4.262,3.323,4.262,2.022,0,3.348-1.674,3.348-4.262Z" transform="translate(-25.576 -16.484)" fill="#fff"/>
        <path id="Контур_18179" data-name="Контур 18179" d="M72.47,30.7c.193,1.723,1.867,2.854,4.154,2.854,2.192,0,3.769-1.131,3.769-2.685,0-1.349-.951-2.156-3.2-2.71l-2.252-.542c-3.191-.771-4.672-2.263-4.672-4.684,0-3,2.613-5.057,6.323-5.057,3.672,0,6.189,2.059,6.273,5.057H80.237c-.157-1.734-1.591-2.781-3.685-2.781s-3.528,1.059-3.528,2.6c0,1.228.916,1.951,3.155,2.5l1.914.47c3.565.843,5.046,2.275,5.046,4.817,0,3.251-2.589,5.287-6.708,5.287-3.853,0-6.455-1.988-6.623-5.131Z" transform="translate(-20.301 -17.871)" fill="#fff"/>
        <path id="Контур_18180" data-name="Контур 18180" d="M84.617,19.3v3h2.409v2.059H84.617v6.984c0,1.085.482,1.591,1.541,1.591a8.127,8.127,0,0,0,.855-.06v2.047a7.141,7.141,0,0,1-1.444.12C83,35.039,82,34.075,82,31.618V24.357H80.163V22.3H82v-3Z" transform="translate(-16.167 -17.301)" fill="#fff"/>
        <path id="Контур_18181" data-name="Контур 18181" d="M86.065,27.822c0-3.986,2.348-6.491,6.008-6.491s6.01,2.5,6.01,6.491-2.324,6.491-6.01,6.491S86.065,31.819,86.065,27.822Zm9.368,0c0-2.734-1.253-4.348-3.36-4.348s-3.359,1.626-3.359,4.348c0,2.745,1.252,4.347,3.359,4.347s3.36-1.6,3.36-4.347Z" transform="translate(-13.81 -16.49)" fill="#fff"/>
        <path id="Контур_18182" data-name="Контур 18182" d="M96.186,21.481h2.48v2.156h.06a3.022,3.022,0,0,1,3.047-2.289,4.01,4.01,0,0,1,.891.1v2.432a3.635,3.635,0,0,0-1.168-.157,2.62,2.62,0,0,0-2.71,2.915v7.514h-2.6Z" transform="translate(-9.769 -16.484)" fill="#fff"/>
        <path id="Контур_18183" data-name="Контур 18183" d="M112.645,30.434c-.35,2.3-2.589,3.878-5.455,3.878-3.685,0-5.973-2.469-5.973-6.431s2.3-6.551,5.864-6.551c3.5,0,5.709,2.408,5.709,6.249v.891h-8.948v.157a3.3,3.3,0,0,0,3.408,3.588,2.866,2.866,0,0,0,2.926-1.782Zm-8.79-3.781h6.334a3.047,3.047,0,0,0-3.107-3.215,3.207,3.207,0,0,0-3.226,3.215Z" transform="translate(-7.761 -16.49)" fill="#fff"/>
      </g>
    </g>
  </g>
  <g id="_Group_4" data-name="&lt;Group&gt;" transform="translate(49.462 11.992)">
    <g id="Сгруппировать_464" data-name="Сгруппировать 464">
      <path id="Контур_18184" data-name="Контур 18184" d="M37.293,12.325H38.41a1.4,1.4,0,0,0,1.574-1.331c0-.77-.579-1.267-1.562-1.267a1.488,1.488,0,0,0-1.685,1.308H35.511a2.617,2.617,0,0,1,2.95-2.442c1.644,0,2.8.92,2.8,2.245a1.939,1.939,0,0,1-1.517,1.91v.1A1.945,1.945,0,0,1,41.6,14.864a2.789,2.789,0,0,1-3.118,2.482,2.775,2.775,0,0,1-3.136-2.471h1.245c.075.8.809,1.314,1.891,1.314s1.789-.579,1.789-1.394-.665-1.337-1.828-1.337H37.293Z" transform="translate(-35.349 -8.57)" fill="#fff"/>
      <path id="Контур_18185" data-name="Контур 18185" d="M40.829,14.748c0-1.134.846-1.788,2.343-1.881l1.707-.1v-.544c0-.665-.439-1.041-1.29-1.041-.694,0-1.174.255-1.313.7h-1.2c.127-1.082,1.146-1.776,2.576-1.776,1.58,0,2.471.786,2.471,2.117V16.53h-1.2v-.885h-.1a2.12,2.12,0,0,1-1.893.989,1.9,1.9,0,0,1-2.1-1.886Zm4.05-.538v-.527l-1.539.1c-.868.058-1.261.353-1.261.909s.492.9,1.168.9a1.485,1.485,0,0,0,1.632-1.377Z" transform="translate(-33.161 -7.956)" fill="#fff"/>
      <path id="Контур_18186" data-name="Контур 18186" d="M47.323,11.242V16.5H46.079v-6.3h4.149v1.047Z" transform="translate(-31.064 -7.922)" fill="#fff"/>
      <path id="Контур_18187" data-name="Контур 18187" d="M56.109,13.372c0,2-1.013,3.257-2.6,3.257a2.054,2.054,0,0,1-1.939-1.058h-.1V18.62H50.225v-8.4h1.2v1.041h.093a2.189,2.189,0,0,1,1.979-1.146C55.1,10.12,56.109,11.37,56.109,13.372Zm-1.279,0c0-1.331-.63-2.135-1.683-2.135s-1.7.821-1.7,2.141.655,2.135,1.7,2.135c1.059,0,1.689-.8,1.689-2.141Z" transform="translate(-29.409 -7.952)" fill="#fff"/>
      <path id="Контур_18188" data-name="Контур 18188" d="M55.8,18.752V17.682a2.937,2.937,0,0,0,.406.023,1.078,1.078,0,0,0,1.14-.879l.093-.307-2.281-6.324h1.354l1.58,5h.1l1.574-5h1.319L58.73,16.756c-.538,1.533-1.134,2.025-2.419,2.025C56.208,18.781,55.913,18.769,55.8,18.752Z" transform="translate(-27.441 -7.922)" fill="#fff"/>
      <path id="Контур_18189" data-name="Контур 18189" d="M60.081,14.748h1.238c.122.556.642.845,1.371.845.828,0,1.336-.365,1.336-.932,0-.607-.456-.9-1.336-.9h-.943V12.8h.926c.752,0,1.134-.289,1.134-.816,0-.463-.37-.816-1.134-.816-.7,0-1.2.3-1.285.793h-1.2a2.208,2.208,0,0,1,2.483-1.845c1.5,0,2.354.677,2.354,1.742a1.3,1.3,0,0,1-.995,1.29v.1a1.413,1.413,0,0,1,1.233,1.418c0,1.2-1.019,1.99-2.576,1.99C61.314,16.652,60.2,16.021,60.081,14.748Z" transform="translate(-25.474 -7.962)" fill="#fff"/>
      <path id="Контур_18190" data-name="Контур 18190" d="M65.066,16.5v-6.3H66.3v4.334h.1l2.9-4.334h1.233v6.3H69.3V12.139h-.093L66.3,16.5Z" transform="translate(-23.484 -7.922)" fill="#fff"/>
      <path id="Контур_18191" data-name="Контур 18191" d="M75.313,11.242H73.329V16.5H72.084V11.242H70.1V10.195h5.213Z" transform="translate(-21.474 -7.922)" fill="#fff"/>
      <path id="Контур_18192" data-name="Контур 18192" d="M80.23,14.829A2.561,2.561,0,0,1,77.5,16.652,2.862,2.862,0,0,1,74.588,13.4a2.906,2.906,0,0,1,2.905-3.292c1.753,0,2.812,1.2,2.812,3.176v.434H75.856v.07a1.664,1.664,0,0,0,1.678,1.805,1.509,1.509,0,0,0,1.5-.764ZM75.856,12.8h3.181a1.52,1.52,0,0,0-1.55-1.632A1.61,1.61,0,0,0,75.856,12.8Z" transform="translate(-19.693 -7.956)" fill="#fff"/>
      <path id="Контур_18193" data-name="Контур 18193" d="M82.38,10.195h2.841c1.233,0,1.955.624,1.955,1.6a1.354,1.354,0,0,1-1.064,1.331v.1a1.438,1.438,0,0,1,1.347,1.453c0,1.1-.827,1.817-2.21,1.817H82.38Zm1.233.954v1.632h1.233c.752,0,1.111-.289,1.111-.822,0-.491-.313-.81-.973-.81Zm0,2.546v1.846h1.474c.735,0,1.129-.325,1.129-.92,0-.631-.445-.926-1.285-.926Z" transform="translate(-16.571 -7.922)" fill="#fff"/>
    </g>
  </g>
</svg>
