<svg xmlns="http://www.w3.org/2000/svg" xmlns:xlink="http://www.w3.org/1999/xlink" width="101.287" height="93.572" viewBox="0 0 101.287 93.572">
  <defs>
    <filter id="Контур_19216" x="0" y="0" width="101.287" height="93.572" filterUnits="userSpaceOnUse">
      <feOffset dy="3" input="SourceAlpha"/>
      <feGaussianBlur stdDeviation="3" result="blur"/>
      <feFlood flood-opacity="0.4"/>
      <feComposite operator="in" in2="blur"/>
      <feComposite in="SourceGraphic"/>
    </filter>
  </defs>
  <g id="Сгруппировать_7589" data-name="Сгруппировать 7589" transform="translate(-909.355 -1682.499)">
    <g transform="matrix(1, 0, 0, 1, 909.36, 1682.5)" filter="url(#Контур_19216)">
      <path id="Контур_19216-2" data-name="Контур 19216" d="M83.287,23.714H0v4.88H2.6V81.051H39.2V87.2a6.29,6.29,0,1,0,4.88,0V81.051H80.689V28.594h2.6ZM60.245,35.3v4.88h-48.7V35.3ZM44.788,69.464H11.545v-4.88H44.788Zm0-9.761H11.545v-4.88H44.788Zm0-9.761H11.545v-4.88H44.788ZM70.821,69.464H48.855v-24.4H70.821Z" transform="translate(9 -17.71)" fill="#fff"/>
    </g>
    <path id="Контур_19217" data-name="Контур 19217" d="M330.333,184.948h12.206v14.641H330.333Z" transform="translate(641.758 1529.779)" fill="#fff"/>
  </g>
</svg>
