<svg id="backpack" xmlns="http://www.w3.org/2000/svg" width="52.401" height="52.401" viewBox="0 0 52.401 52.401">
  <path id="Контур_19395" data-name="Контур 19395" d="M91.014,7.163a7.366,7.366,0,0,0-14.727,0A19.68,19.68,0,0,0,64,25.382V47.488A4.918,4.918,0,0,0,68.913,52.4H98.388a4.918,4.918,0,0,0,4.913-4.913V25.382A19.68,19.68,0,0,0,91.014,7.163ZM83.65,3.275a4.1,4.1,0,0,1,3.9,2.845,19.738,19.738,0,0,0-7.8,0A4.1,4.1,0,0,1,83.65,3.275Zm13.1,38.482a4.918,4.918,0,0,1-4.913,4.913H75.463a4.918,4.918,0,0,1-4.913-4.913V36.026a4.918,4.918,0,0,1,4.913-4.913H91.838a4.918,4.918,0,0,1,4.913,4.913Zm-.819-14.738a1.637,1.637,0,0,1-1.638-1.638,10.644,10.644,0,0,0-21.288,0,1.638,1.638,0,0,1-3.275,0,13.919,13.919,0,0,1,27.838,0A1.637,1.637,0,0,1,95.932,27.019Z" transform="translate(-57.45)" fill="#00a6ce"/>
  <path id="Контур_19396" data-name="Контур 19396" d="M178.013,336H161.638A1.64,1.64,0,0,0,160,337.638v5.731a1.64,1.64,0,0,0,1.638,1.638h16.375a1.64,1.64,0,0,0,1.638-1.638v-5.731A1.64,1.64,0,0,0,178.013,336Z" transform="translate(-143.625 -301.612)" fill="#ef4864"/>
  <path id="Контур_19397" data-name="Контур 19397" d="M481.638,272h-1.126a.512.512,0,0,0-.512.512v17.2a.511.511,0,0,0,.869.367,8.163,8.163,0,0,0,2.406-5.793V273.638A1.637,1.637,0,0,0,481.638,272Z" transform="translate(-430.874 -244.162)" fill="#ef4864"/>
  <path id="Контур_19398" data-name="Контур 19398" d="M0,273.638v10.644a8.164,8.164,0,0,0,2.406,5.793.511.511,0,0,0,.869-.367v-17.2A.512.512,0,0,0,2.763,272H1.638A1.637,1.637,0,0,0,0,273.638Z" transform="translate(0 -244.162)" fill="#ef4864"/>
</svg>
