<svg xmlns="http://www.w3.org/2000/svg" width="52.202" height="51.998" viewBox="0 0 52.202 51.998">
  <g id="web-development" transform="translate(0 -1)">
    <path id="Контур_19401" data-name="Контур 19401" d="M52.2,13.235V5.588A4.593,4.593,0,0,0,47.614,1H4.588A4.593,4.593,0,0,0,0,5.588v7.647ZM35.277,7.117h9.176a1.529,1.529,0,1,1,0,3.059H35.277a1.529,1.529,0,0,1,0-3.059Zm-15.294,0a1.529,1.529,0,1,1-1.529,1.529A1.529,1.529,0,0,1,19.984,7.117Zm-6.117,0a1.529,1.529,0,1,1-1.529,1.529A1.529,1.529,0,0,1,13.866,7.117Zm-6.117,0A1.529,1.529,0,1,1,6.219,8.647,1.529,1.529,0,0,1,7.749,7.117Z" fill="#ef4864"/>
    <path id="Контур_19402" data-name="Контур 19402" d="M0,151v32.116A4.593,4.593,0,0,0,4.588,187.7H47.614a4.593,4.593,0,0,0,4.588-4.588V151Zm17.88,21.746a1.529,1.529,0,1,1-1.911,2.388l-7.647-6.117a1.53,1.53,0,0,1,0-2.388l7.647-6.117A1.529,1.529,0,1,1,17.88,162.9l-6.154,4.923ZM32.095,157.72l-9.176,21.411a1.529,1.529,0,1,1-2.811-1.2l9.176-21.411a1.529,1.529,0,1,1,2.811,1.2Zm11.784,11.3-7.647,6.117a1.529,1.529,0,1,1-1.911-2.388l6.154-4.923L34.322,162.9a1.529,1.529,0,1,1,1.911-2.388l7.647,6.117A1.53,1.53,0,0,1,43.879,169.017Z" transform="translate(0 -134.706)" fill="#00a6ce"/>
  </g>
</svg>
