<svg xmlns="http://www.w3.org/2000/svg" width="47.662" height="51.998" viewBox="0 0 47.662 51.998">
  <g id="find" transform="translate(-1)">
    <path id="Контур_19399" data-name="Контур 19399" d="M36.362,22.3l-5.5-5.5A10.864,10.864,0,1,0,27.8,19.86l5.5,5.5A2.166,2.166,0,1,0,36.362,22.3Zm-14.53-4.968a6.5,6.5,0,1,1,6.5-6.5A6.507,6.507,0,0,1,21.832,17.331Z" transform="translate(11.664)" fill="#ef4864"/>
    <path id="Контур_19400" data-name="Контур 19400" d="M40,26.517l-1.408-1.408A14.985,14.985,0,0,1,33.5,26,15.152,15.152,0,0,1,22.9,0H7.5A6.518,6.518,0,0,0,1,6.5V37.913c0,2.123,2.9,5.416,6.5,5.416H14v7.041a1.628,1.628,0,0,0,2.708,1.213L20.5,48.2l3.791,3.38A1.629,1.629,0,0,0,27,50.369V43.329H37.829A2.173,2.173,0,0,0,40,41.162ZM14,39H7.5a2.166,2.166,0,0,1,0-4.333H14Zm21.664,0H27V34.663h8.666Z" transform="translate(0)" fill="#00a6ce"/>
  </g>
</svg>
