<svg xmlns="http://www.w3.org/2000/svg" width="15.658" height="17" viewBox="0 0 15.658 17">
  <g id="softtware-engineer" transform="translate(-24.56)">
    <path id="Контур_48" data-name="Контур 48" d="M98.2,10.274a4.938,4.938,0,0,0,4.212-5.137C102.411,2.3,102.028,0,98.2,0s-4.212,2.3-4.212,5.137A4.939,4.939,0,0,0,98.2,10.274ZM94.616,4.28a2.318,2.318,0,0,1,2.312-1.2s.82,1.99,4.848,1.1c.016.318.021.642.021.965a4.58,4.58,0,0,1-1.439,3.478,2.754,2.754,0,0,1-4.32,0A4.58,4.58,0,0,1,94.6,5.137C94.6,4.85,94.6,4.563,94.616,4.28Z" transform="translate(-65.81)" fill="#00a7ce"/>
    <path id="Контур_49" data-name="Контур 49" d="M40.208,193.791c-.215-1.337-.658-3.059-1.546-3.671-.606-.418-2.722-1.548-3.625-2.031l-.015-.008a.3.3,0,0,0-.321.028,3.838,3.838,0,0,1-1.541.744.3.3,0,0,0-.209.176l-.562,1.365-.562-1.365a.3.3,0,0,0-.209-.176,3.838,3.838,0,0,1-1.541-.744.3.3,0,0,0-.321-.028c-.893.477-3.034,1.63-3.638,2.037-1.022.689-1.469,3.181-1.548,3.673-.008.049-.016,1.365,0,1.412.037.1.912,0,7.743,0s7.859.1,7.9,0C40.225,195.156,40.216,193.839,40.208,193.791Zm-8.61-.812a.052.052,0,0,1-.031.048l-.843.369.843.369a.052.052,0,0,1,.031.048v.276a.052.052,0,0,1-.074.047l-1.25-.581a.052.052,0,0,1-.03-.047v-.224a.052.052,0,0,1,.03-.047l1.25-.581a.052.052,0,0,1,.074.047v.276Zm1.272-.66-.558,1.889a.052.052,0,0,1-.05.037H32a.052.052,0,0,1-.05-.067l.557-1.889a.052.052,0,0,1,.05-.037h.263a.052.052,0,0,1,.05.067Zm1.664,1.2a.052.052,0,0,1-.03.047l-1.25.573a.052.052,0,0,1-.022,0,.052.052,0,0,1-.052-.052v-.276a.052.052,0,0,1,.032-.048l.861-.369-.861-.369a.052.052,0,0,1-.032-.048V192.7a.052.052,0,0,1,.074-.047l1.25.573a.052.052,0,0,1,.03.047Z" transform="translate(0 -178.248)" fill="#00a7ce"/>
    <path id="Контур_50" data-name="Контур 50" d="M115.171,89.885c.474-.247.637-1.072.644-1.109,0,0,.015-.055.165-.055h.012c.116,0,.152.038.156.064s.177.857.643,1.1a2.116,2.116,0,0,0,.948.2,2.062,2.062,0,0,0,.832-.145c.355-.187.387-.322.516-1.106a.213.213,0,0,1,.025-.074.165.165,0,0,1,.019-.023.275.275,0,0,0,.082-.22c0-.016,0-.044,0-.075v-.007c0-.055,0-.116,0-.151a.312.312,0,0,0-.263-.284,5.353,5.353,0,0,0-1.07-.1c-.169,0-.343.006-.518.019l-.031,0a2.122,2.122,0,0,0-.791.146c-.048.022-.1.048-.16.077a1.386,1.386,0,0,1-.266.1.541.541,0,0,1-.272,0,1.4,1.4,0,0,1-.266-.1c-.058-.03-.111-.056-.159-.077a2.126,2.126,0,0,0-.792-.146l-.03,0c-.175-.012-.349-.019-.517-.019a5.337,5.337,0,0,0-1.066.1.314.314,0,0,0-.267.284c0,.035,0,.1,0,.151v.022c0,.025,0,.047,0,.06a.277.277,0,0,0,.083.222.15.15,0,0,1,.018.021.212.212,0,0,1,.025.074c.129.784.161.919.516,1.106a2.061,2.061,0,0,0,.832.145A2.117,2.117,0,0,0,115.171,89.885Zm1.362-1.377c.008-.021.108-.206.984-.257.151-.009.28-.013.392-.013.488,0,.64.083.728.217a.83.83,0,0,1,.089.364.9.9,0,0,1-.377.839,1.542,1.542,0,0,1-.632.121,1.094,1.094,0,0,1-.968-.405A1.119,1.119,0,0,1,116.533,88.508Zm-3.3.311a.833.833,0,0,1,.089-.364c.087-.134.24-.217.728-.217.112,0,.24,0,.391.013.858.05.973.228.986.261a1.141,1.141,0,0,1-.217.861,1.094,1.094,0,0,1-.968.405,1.543,1.543,0,0,1-.632-.121A.9.9,0,0,1,113.237,88.819Z" transform="translate(-83.593 -83.319)" fill="#00a7ce"/>
  </g>
</svg>
