<svg xmlns="http://www.w3.org/2000/svg" width="14.255" height="17" viewBox="0 0 14.255 17">
	
  <g id="student-with-graduation-cap" transform="translate(-37.452)">
    <g id="Layer_2_9_" transform="translate(37.452)">
      <g id="Сгруппировать_69" data-name="Сгруппировать 69">
        <path id="Контур_43" data-name="Контур 43" d="M86.314,2.941c.164.092,1.269.626,1.8.883,0,.207.007.565.014.571.059.513.16,1.083.189,1.244-.049.027-.3.19-.3.7v.008c0,.013,0,.027,0,.04.107,1.41.668.8.784,1.42a3.068,3.068,0,0,0,1.667,2.026,2.356,2.356,0,0,0,2.035,0A3.068,3.068,0,0,0,94.174,7.8c.116-.618.676-.01.784-1.42,0-.014,0-.027,0-.04V6.336c0-.507-.249-.67-.3-.7.029-.161.13-.731.189-1.244.007-.006.012-.364.014-.571.293-.141.758-.366,1.145-.555V4.632a.351.351,0,0,0-.036.594s-.156.874-.206,1.131.887.205.845,0-.206-1.131-.206-1.131a.351.351,0,0,0-.035-.594V3.091c.144-.072.252-.126.295-.15.116-.065.179-.149.165-.236.016-.091-.05-.188-.225-.274C95.351,1.817,92.153.253,91.837.1a.646.646,0,0,0-.7,0c-.316.151-3.513,1.715-4.768,2.329-.176.086-.241.183-.225.274C86.135,2.792,86.2,2.875,86.314,2.941Z" transform="translate(-84.362)" fill="#00a7ce"/>
        <path id="Контур_44" data-name="Контур 44" d="M48.836,295.58a15.72,15.72,0,0,1-1.793-.921.308.308,0,0,0-.434.135c-.486.814-1.388,3.183-2.018,3.226l-.012,0-.012,0c-.629-.044-1.531-2.412-2.018-3.226a.308.308,0,0,0-.434-.135,15.719,15.719,0,0,1-1.793.921c-1.98.714-2.871,1.442-2.871,1.939v3.3H51.707v-3.3C51.707,297.022,50.816,296.294,48.836,295.58Z" transform="translate(-37.452 -283.821)" fill="#00a7ce"/>
      </g>
    </g>
  </g>
</svg>
