<svg xmlns="http://www.w3.org/2000/svg" width="696" height="484" viewBox="0 0 696 484">
  <g id="Group_7768" data-name="Group 7768" transform="translate(-606 -115)">
    <circle id="Ellipse_1545" data-name="Ellipse 1545" cx="106.066" cy="106.066" r="106.066" transform="translate(810 395.822) rotate(-45)" fill="#fff"/>
    <path id="Path_20656" data-name="Path 20656" d="M830.861,126.087" transform="translate(76.407 174.359)" fill="none" stroke="#5f78b4" stroke-miterlimit="10" stroke-width="0.094"/>
    <path id="Path_20657" data-name="Path 20657" d="M1022.717,197.793s3.514,2.321,5.118,3.121c0,0,3.884,10.173,4.269,19.807,0,0-2.389,3.387-2.395,5.682C1029.708,226.4,1017.543,212.524,1022.717,197.793Z" transform="translate(35.75 159.063)" fill="#fff"/>
    <path id="Path_20658" data-name="Path 20658" d="M868.429,377.619s-2.353,1.165-3.287,1.779a45.468,45.468,0,0,1-12.01-3.912s-1.075-2.349-2.31-3.072C850.822,372.414,862.115,370.212,868.429,377.619Z" transform="translate(72.148 121.873)" fill="#fff"/>
    <g id="Group_7604" data-name="Group 7604" transform="translate(906.581 310.484)">
      <path id="Path_20659" data-name="Path 20659" d="M844.791,140.3c-.385-1.531-4-1.913-8.081-.853s-7.074,3.161-6.689,4.692a1.8,1.8,0,0,0,1.311,1.119c.068-1.643,2.515-3.528,5.832-4.39,3.243-.843,6.216-.422,7.127.912A1.724,1.724,0,0,0,844.791,140.3Z" transform="translate(-829.988 -138.847)" fill="#f0f1f3"/>
      <path id="Path_20660" data-name="Path 20660" d="M837.528,141.3c-3.317.862-5.765,2.748-5.832,4.39a13.021,13.021,0,0,0,6.77-.267c2.861-.744,5.187-2,6.189-3.212C843.745,140.877,840.771,140.456,837.528,141.3Z" transform="translate(-830.352 -139.277)" fill="#d9dadc"/>
    </g>
    <g id="Group_7605" data-name="Group 7605" transform="translate(993.578 307.51)">
      <path id="Path_20661" data-name="Path 20661" d="M940.636,136c.46-1.243,3.513-1.238,6.819.01s5.612,3.267,5.152,4.509a1.517,1.517,0,0,1-1.2.817c.094-1.375-1.776-3.166-4.465-4.181-2.627-.993-5.146-.907-6.028.124A1.443,1.443,0,0,1,940.636,136Z" transform="translate(-940.578 -135.067)" fill="#f0f1f3"/>
      <path id="Path_20662" data-name="Path 20662" d="M947.038,137.526c2.689,1.015,4.559,2.806,4.465,4.181a10.924,10.924,0,0,1-5.623-.827,10.611,10.611,0,0,1-4.87-3.231C941.892,136.619,944.411,136.534,947.038,137.526Z" transform="translate(-940.67 -135.442)" fill="#d9dadc"/>
    </g>
    <g id="Group_7606" data-name="Group 7606" transform="translate(1008.972 308.25)">
      <path id="Path_20663" data-name="Path 20663" d="M960.161,136.337c.153-.461,1.469-.434,2.941.061s2.542,1.27,2.389,1.731c-.049.15-.223.249-.485.3-.011-.514-.883-1.2-2.081-1.6-1.17-.393-2.253-.382-2.6,0A.528.528,0,0,1,960.161,136.337Z" transform="translate(-960.147 -136.008)" fill="#f0f1f3"/>
      <path id="Path_20664" data-name="Path 20664" d="M962.975,136.963c1.2.4,2.07,1.09,2.081,1.6a5.6,5.6,0,0,1-2.456-.356,5.414,5.414,0,0,1-2.22-1.251C960.722,136.582,961.805,136.57,962.975,136.963Z" transform="translate(-960.196 -136.15)" fill="#d9dadc"/>
    </g>
    <g id="Group_7607" data-name="Group 7607" transform="translate(1016.066 320.203)">
      <path id="Path_20665" data-name="Path 20665" d="M981.7,162.063c1.562-1.938.164-5.688-3.122-8.373s-7.217-3.292-8.779-1.353a3.227,3.227,0,0,0-.619,2.371c1.918-1.634,5.325-1.313,8,.872,2.612,2.136,3.638,5.327,2.57,7.55A3.092,3.092,0,0,0,981.7,162.063Z" transform="translate(-969.165 -151.202)" fill="#f0f1f3"/>
      <path id="Path_20666" data-name="Path 20666" d="M977.186,156.251c-2.673-2.185-6.08-2.506-8-.872a9.591,9.591,0,0,0,3.741,6c2.306,1.885,4.928,2.744,6.827,2.42C980.824,161.578,979.8,158.387,977.186,156.251Z" transform="translate(-969.17 -151.873)" fill="#d9dadc"/>
    </g>
    <g id="Group_7608" data-name="Group 7608" transform="translate(891.57 316.418)">
      <path id="Path_20667" data-name="Path 20667" d="M817.7,146.466c-.209-.321-1.894.426-3.763,1.666s-3.216,2.507-3.007,2.828c.068.1.293.1.63-.007,0-.456,1.1-1.536,2.616-2.546,1.486-.987,2.873-1.572,3.322-1.427C817.684,146.742,817.761,146.562,817.7,146.466Z" transform="translate(-810.907 -146.391)" fill="#f0f1f3"/>
      <path id="Path_20668" data-name="Path 20668" d="M814.351,148.561c-1.521,1.009-2.618,2.089-2.616,2.546a14.175,14.175,0,0,0,3.134-1.66,13.575,13.575,0,0,0,2.8-2.313C817.224,146.989,815.837,147.574,814.351,148.561Z" transform="translate(-811.084 -146.545)" fill="#d9dadc"/>
    </g>
    <g id="Group_7609" data-name="Group 7609" transform="translate(947.469 300.008)">
      <path id="Path_20669" data-name="Path 20669" d="M900.047,127.894c-.14-1.682-4.3-2.7-9.294-2.266s-8.925,2.144-8.785,3.826c.046.548.52,1.024,1.308,1.4.411-1.723,3.661-3.3,7.722-3.652,3.969-.342,7.367.6,8.164,2.167A1.818,1.818,0,0,0,900.047,127.894Z" transform="translate(-881.964 -125.529)" fill="#f0f1f3"/>
      <path id="Path_20670" data-name="Path 20670" d="M891.354,127.642c-4.061.351-7.31,1.93-7.722,3.652,1.632.785,4.618,1.152,7.985.862,3.5-.3,6.481-1.237,7.9-2.347C898.721,128.246,895.323,127.3,891.354,127.642Z" transform="translate(-882.32 -125.965)" fill="#d9dadc"/>
    </g>
    <g id="Group_7610" data-name="Group 7610" transform="translate(963.861 320.186)">
      <path id="Path_20671" data-name="Path 20671" d="M910.919,153.663c.018-1.34-1.785-2.452-4.026-2.484s-4.073,1.031-4.091,2.371a1.744,1.744,0,0,0,.515,1.208c.265-1.332,1.786-2.338,3.609-2.313a3.481,3.481,0,0,1,3.528,2.321A1.7,1.7,0,0,0,910.919,153.663Z" transform="translate(-902.802 -151.179)" fill="#f0f1f3"/>
      <path id="Path_20672" data-name="Path 20672" d="M907.066,152.789c-1.823-.025-3.344.981-3.609,2.313a4.975,4.975,0,0,0,3.511,1.276,4.855,4.855,0,0,0,3.627-1.267A3.481,3.481,0,0,0,907.066,152.789Z" transform="translate(-902.942 -151.522)" fill="#d9dadc"/>
    </g>
    <g id="Group_7611" data-name="Group 7611" transform="translate(985.249 318.951)">
      <path id="Path_20673" data-name="Path 20673" d="M940.192,153.352c.22-1.625-1.882-3.262-4.695-3.656s-5.271.6-5.492,2.228a2.108,2.108,0,0,0,.47,1.548c.529-1.575,2.59-2.554,4.877-2.233,2.237.313,3.933,1.763,4.094,3.38A2.022,2.022,0,0,0,940.192,153.352Z" transform="translate(-929.99 -149.61)" fill="#f0f1f3"/>
      <path id="Path_20674" data-name="Path 20674" d="M935.484,151.663c-2.288-.321-4.348.658-4.877,2.233a6.471,6.471,0,0,0,4.226,2.108,6.252,6.252,0,0,0,4.745-.962C939.417,153.426,937.721,151.977,935.484,151.663Z" transform="translate(-930.122 -150.035)" fill="#d9dadc"/>
    </g>
    <g id="Group_7612" data-name="Group 7612" transform="translate(890.924 322.605)">
      <path id="Path_20675" data-name="Path 20675" d="M813.076,154.415c-.168-.3-.968-.164-1.786.3s-1.343,1.09-1.174,1.39a.393.393,0,0,0,.345.157c-.078-.35.342-.894,1.007-1.275.65-.372,1.313-.461,1.584-.235A.374.374,0,0,0,813.076,154.415Z" transform="translate(-810.085 -154.256)" fill="#f0f1f3"/>
      <path id="Path_20676" data-name="Path 20676" d="M811.567,155.094c-.665.381-1.085.925-1.007,1.275a2.977,2.977,0,0,0,1.441-.462,2.894,2.894,0,0,0,1.15-1.049C812.88,154.633,812.217,154.722,811.567,155.094Z" transform="translate(-810.184 -154.358)" fill="#d9dadc"/>
    </g>
    <g id="Group_7613" data-name="Group 7613" transform="translate(1048.734 358.641)">
      <path id="Path_20677" data-name="Path 20677" d="M1012.969,205.431c.494-.182.465-1.526-.064-3s-1.358-2.527-1.851-2.345c-.161.06-.266.242-.316.513.55-.018,1.283.835,1.713,2.037.42,1.174.408,2.282,0,2.653A.557.557,0,0,0,1012.969,205.431Z" transform="translate(-1010.702 -200.063)" fill="#f0f1f3"/>
      <path id="Path_20678" data-name="Path 20678" d="M1012.442,202.778c-.43-1.2-1.163-2.055-1.713-2.037a5.361,5.361,0,0,0,.38,2.491,5.1,5.1,0,0,0,1.336,2.2C1012.85,205.06,1012.862,203.951,1012.442,202.778Z" transform="translate(-1010.693 -200.208)" fill="#d9dadc"/>
    </g>
    <g id="Group_7614" data-name="Group 7614" transform="translate(931.18 310.199)">
      <path id="Path_20679" data-name="Path 20679" d="M867.626,139.8c-.033-.8-1.485-1.385-3.243-1.31s-3.157.784-3.124,1.582a.939.939,0,0,0,.446.7c.161-.8,1.318-1.466,2.749-1.527,1.4-.06,2.583.475,2.847,1.234A.9.9,0,0,0,867.626,139.8Z" transform="translate(-861.258 -138.486)" fill="#f0f1f3"/>
      <path id="Path_20680" data-name="Path 20680" d="M864.575,139.449c-1.43.061-2.587.724-2.749,1.527a4.7,4.7,0,0,0,2.8.613,4.555,4.555,0,0,0,2.8-.905C867.157,139.924,865.972,139.389,864.575,139.449Z" transform="translate(-861.379 -138.69)" fill="#d9dadc"/>
    </g>
    <g id="Group_7615" data-name="Group 7615" transform="translate(885.4 335.221)">
      <path id="Path_20681" data-name="Path 20681" d="M807.47,170.437c-.52-.466-1.883.232-3.044,1.562s-1.68,2.784-1.16,3.25a.8.8,0,0,0,.741.1c-.39-.611-.009-1.862.936-2.943.923-1.056,2.07-1.592,2.725-1.319A.769.769,0,0,0,807.47,170.437Z" transform="translate(-803.064 -170.292)" fill="#f0f1f3"/>
      <path id="Path_20682" data-name="Path 20682" d="M805.158,172.605c-.945,1.081-1.326,2.332-.936,2.943a5.2,5.2,0,0,0,2.3-1.664,5.094,5.094,0,0,0,1.358-2.6C807.228,171.013,806.081,171.549,805.158,172.605Z" transform="translate(-803.279 -170.489)" fill="#d9dadc"/>
    </g>
    <g id="Group_7616" data-name="Group 7616" transform="translate(976.546 300.285)">
      <path id="Path_20683" data-name="Path 20683" d="M932.193,129.148c.153-.76-2.69-1.977-6.352-2.719s-6.754-.727-6.907.033c-.05.248.219.544.73.856.557-.675,3.136-.758,6.115-.155,2.911.589,5.216,1.635,5.554,2.465C931.838,129.534,932.147,129.374,932.193,129.148Z" transform="translate(-918.927 -125.882)" fill="#f0f1f3"/>
      <path id="Path_20684" data-name="Path 20684" d="M925.978,127.4c-2.978-.6-5.558-.52-6.115.155a19.633,19.633,0,0,0,5.622,1.863,18.749,18.749,0,0,0,6.046.447C931.193,129.035,928.888,127.989,925.978,127.4Z" transform="translate(-919.127 -126.119)" fill="#d9dadc"/>
    </g>
    <g id="Group_7617" data-name="Group 7617" transform="translate(1036.882 343.957)">
      <path id="Path_20685" data-name="Path 20685" d="M999.836,183.138a2.158,2.158,0,0,0-4.209-.112,1.428,1.428,0,0,0,.253.839,1.87,1.87,0,0,1,3.7.036A1.414,1.414,0,0,0,999.836,183.138Z" transform="translate(-995.626 -181.398)" fill="#d9dadc"/>
      <path id="Path_20686" data-name="Path 20686" d="M997.847,182.515a1.885,1.885,0,0,0-1.9,1.589,2.242,2.242,0,0,0,1.808.9,2.213,2.213,0,0,0,1.9-.865A1.888,1.888,0,0,0,997.847,182.515Z" transform="translate(-995.695 -181.636)" fill="#d9dadc"/>
    </g>
    <g id="Group_7618" data-name="Group 7618" transform="translate(932.982 296.578)">
      <path id="Path_20687" data-name="Path 20687" d="M869.194,121.593c-.035-.359-1.327-.521-2.886-.363s-2.793.578-2.758.937c.011.117.157.212.4.283.137-.374,1.158-.756,2.426-.885a3.587,3.587,0,0,1,2.535.356C869.1,121.813,869.205,121.7,869.194,121.593Z" transform="translate(-863.549 -121.17)" fill="#f0f1f3"/>
      <path id="Path_20688" data-name="Path 20688" d="M866.485,121.661c-1.268.129-2.289.511-2.426.885a7.45,7.45,0,0,0,2.486.079,7.168,7.168,0,0,0,2.475-.608A3.587,3.587,0,0,0,866.485,121.661Z" transform="translate(-863.658 -121.266)" fill="#d9dadc"/>
    </g>
    <path id="Path_20689" data-name="Path 20689" d="M934.016,118.219s2.9-1.468,4.08-2.243c0,0,7.417,1.479,12.927,5.141,0,0,.776,3.022,2.045,3.961C953.067,125.078,939.792,127.776,934.016,118.219Z" transform="translate(54.4 176.516)" fill="#fff"/>
    <path id="Path_20690" data-name="Path 20690" d="M1015.045,304.4s1.237,2.25,1.88,3.214c0,0-.964,4.346-3.7,6.885,0,0-2.362-.315-3.068.242C1010.155,314.746,1007.666,305.528,1015.045,304.4Z" transform="translate(38.243 136.316)" fill="#fff"/>
    <path id="Path_20691" data-name="Path 20691" d="M1008.787,313.533s.579,3.2.989,4.515a56.655,56.655,0,0,1-8.819,12.985s-3.177.488-4.467,1.714C996.49,332.746,997.76,318.553,1008.787,313.533Z" transform="translate(41.072 134.369)" fill="#fff"/>
    <path id="Path_20692" data-name="Path 20692" d="M764.9,223.958s-1.212-1.844-1.825-2.58a28.375,28.375,0,0,1,2.4-9.1,6.087,6.087,0,0,0,2.484-1.679S770.823,219.34,764.9,223.958Z" transform="translate(90.869 156.33)" fill="#fff"/>
    <path id="Path_20693" data-name="Path 20693" d="M859.6,130.119s.4-.756.552-1.11a5.848,5.848,0,0,1,2.762-.317s.391.689.7.772C863.615,129.464,861.438,131.873,859.6,130.119Z" transform="translate(70.275 173.816)" fill="#fff"/>
    <path id="Path_20694" data-name="Path 20694" d="M801.41,341.217s-1.955.267-2.834.454a8.415,8.415,0,0,1-3.2-3.992s1.088-1.443.979-2.027C796.354,335.652,803.405,336.214,801.41,341.217Z" transform="translate(83.977 129.65)" fill="#fff"/>
    <path id="Path_20695" data-name="Path 20695" d="M864.7,116.373s1.724-2.594,2.341-3.8a39.556,39.556,0,0,1,13.121-1.817s2.052,2.152,3.541,2.337C883.706,113.1,873.946,121.615,864.7,116.373Z" transform="translate(69.187 177.643)" fill="#fff"/>
    <g id="Group_7619" data-name="Group 7619" transform="translate(934.199 334.367)">
      <path id="Path_20696" data-name="Path 20696" d="M873.535,170.38a7.78,7.78,0,0,1,6.359,3.213,7.515,7.515,0,0,0-7.7-4.358c-4.2.331-7.369,3.622-7.084,7.349a6.1,6.1,0,0,0,.969,2.856,6.96,6.96,0,0,1-.225-1.756A7.5,7.5,0,0,1,873.535,170.38Z" transform="translate(-865.096 -169.208)" fill="#f0f1f3"/>
      <path id="Path_20697" data-name="Path 20697" d="M873.434,183.05a7.8,7.8,0,0,0,6.478-4.2,6.152,6.152,0,0,0,.606-3.152,6.048,6.048,0,0,0-.418-1.79,7.78,7.78,0,0,0-6.359-3.213,7.5,7.5,0,0,0-7.676,7.3,6.96,6.96,0,0,0,.225,1.756c.088.137.181.271.279.4A7.8,7.8,0,0,0,873.434,183.05Z" transform="translate(-865.303 -169.525)" fill="#d9dadc"/>
    </g>
    <g id="Group_7620" data-name="Group 7620" transform="translate(913.272 361.779)">
      <path id="Path_20698" data-name="Path 20698" d="M853.965,206.2a14.266,14.266,0,0,1,11.661,5.891c-2.034-5.09-7.712-8.5-14.111-7.991-7.694.608-13.51,6.641-12.989,13.475a11.185,11.185,0,0,0,1.778,5.235,12.767,12.767,0,0,1-.413-3.219C839.891,212.2,846.192,206.2,853.965,206.2Z" transform="translate(-838.494 -204.054)" fill="#f0f1f3"/>
      <path id="Path_20699" data-name="Path 20699" d="M853.782,229.435a14.306,14.306,0,0,0,11.878-7.7,11.275,11.275,0,0,0,1.111-5.78,11.086,11.086,0,0,0-.765-3.283,14.266,14.266,0,0,0-11.661-5.891c-7.773,0-14.074,6-14.074,13.391a12.767,12.767,0,0,0,.413,3.219q.242.378.511.737A14.306,14.306,0,0,0,853.782,229.435Z" transform="translate(-838.873 -204.637)" fill="#d9dadc"/>
    </g>
    <g id="Group_7621" data-name="Group 7621" transform="translate(971.125 371.16)">
      <path id="Path_20700" data-name="Path 20700" d="M934.793,225.047a14.266,14.266,0,0,1,1.413,12.987c3.161-4.478,2.923-11.1-.986-16.186-4.7-6.122-12.929-7.712-18.376-3.552a11.2,11.2,0,0,0-3.422,4.343,12.8,12.8,0,0,1,2.475-2.1C922.1,216.511,930.559,218.529,934.793,225.047Z" transform="translate(-912.331 -215.978)" fill="#f0f1f3"/>
      <path id="Path_20701" data-name="Path 20701" d="M915.2,237.588a14.307,14.307,0,0,0,12.923,5.768,11.272,11.272,0,0,0,5.452-2.217,11.12,11.12,0,0,0,2.336-2.43,14.266,14.266,0,0,0-1.413-12.987c-4.235-6.518-12.694-8.537-18.9-4.508a12.8,12.8,0,0,0-2.475,2.1c-.123.273-.238.549-.339.831A14.306,14.306,0,0,0,915.2,237.588Z" transform="translate(-912.036 -216.652)" fill="#d9dadc"/>
    </g>
    <g id="Group_7622" data-name="Group 7622" transform="translate(969.293 429.18)">
      <path id="Path_20702" data-name="Path 20702" d="M925.057,313.618a14.266,14.266,0,0,1-12.724-2.965c3.18,4.465,9.5,6.431,15.6,4.427,7.332-2.41,11.556-9.648,9.433-16.164a11.181,11.181,0,0,0-2.966-4.666,12.789,12.789,0,0,1,1.163,3.03C937.314,304.465,932.609,311.78,925.057,313.618Z" transform="translate(-910.267 -290.696)" fill="#f0f1f3"/>
      <path id="Path_20703" data-name="Path 20703" d="M919.687,290.517a14.3,14.3,0,0,0-9.72,10.286,11.263,11.263,0,0,0,.287,5.879,11.087,11.087,0,0,0,1.52,3.008,14.266,14.266,0,0,0,12.724,2.965c7.552-1.838,12.256-9.154,10.507-16.339a12.789,12.789,0,0,0-1.163-3.03c-.216-.206-.44-.406-.672-.6A14.3,14.3,0,0,0,919.687,290.517Z" transform="translate(-909.707 -289.733)" fill="#d9dadc"/>
    </g>
    <path id="Path_20704" data-name="Path 20704" d="M827.906,161.978A6.965,6.965,0,0,0,823.441,165c.486-1.825,2.622-3.469,5.341-3.934,3.27-.559,6.143.8,6.417,3.033a3.162,3.162,0,0,1-.368,1.846,3.285,3.285,0,0,0-.059-1.069C834.239,162.515,831.165,161.216,827.906,161.978Z" transform="translate(77.99 166.924)" fill="#f0f1f3"/>
    <path id="Path_20705" data-name="Path 20705" d="M829.351,167.775c-2.288.422-4.336.087-5.413-.755a1.918,1.918,0,0,1-.791-1.333,1.963,1.963,0,0,1,.137-.893,8.1,8.1,0,0,1,4.558-2.61c3.259-.761,6.238.116,6.654,1.96a2.039,2.039,0,0,1,.009.843c-.054.079-.111.157-.174.234A8.557,8.557,0,0,1,829.351,167.775Z" transform="translate(78.054 166.717)" fill="#d9dadc"/>
    <path id="Path_20706" data-name="Path 20706" d="M1036.77,255.641" transform="translate(32.479 146.721)" fill="none" stroke="#5f78b4" stroke-miterlimit="10" stroke-width="0.094"/>
    <g id="Group_7623" data-name="Group 7623" transform="translate(1050.769 393.689)">
      <path id="Path_20707" data-name="Path 20707" d="M1014.638,259.251c1.5.478,3.733-2.4,4.976-6.424s1.031-7.679-.473-8.157a1.8,1.8,0,0,0-1.641.525c1.36.921,1.677,4,.666,7.27-.989,3.2-2.911,5.508-4.524,5.581A1.727,1.727,0,0,0,1014.638,259.251Z" transform="translate(-1013.356 -244.618)" fill="#f0f1f3"/>
      <path id="Path_20708" data-name="Path 20708" d="M1018.089,252.622c1.012-3.275.695-6.349-.666-7.27a13.016,13.016,0,0,0-3.335,5.9c-.872,2.825-1.028,5.463-.524,6.953C1015.178,258.131,1017.1,255.823,1018.089,252.622Z" transform="translate(-1013.279 -244.775)" fill="#d9dadc"/>
    </g>
    <g id="Group_7624" data-name="Group 7624" transform="translate(1006.671 471.18)">
      <path id="Path_20709" data-name="Path 20709" d="M967.573,343.555c.814,1.046-.8,3.639-3.6,5.794s-5.731,3.055-6.545,2.01a1.516,1.516,0,0,1-.066-1.446c1.12.8,3.627.154,5.9-1.6,2.226-1.713,3.479-3.9,3.066-5.192A1.442,1.442,0,0,1,967.573,343.555Z" transform="translate(-957.222 -343.121)" fill="#f0f1f3"/>
      <path id="Path_20710" data-name="Path 20710" d="M963.311,348.315c-2.277,1.753-4.784,2.4-5.9,1.6a10.919,10.919,0,0,1,3.661-4.348,10.606,10.606,0,0,1,5.309-2.443C966.789,344.415,965.537,346.6,963.311,348.315Z" transform="translate(-957.261 -343.122)" fill="#d9dadc"/>
    </g>
    <g id="Group_7625" data-name="Group 7625" transform="translate(1004.428 484.473)">
      <path id="Path_20711" data-name="Path 20711" d="M958.771,360.142c.312.373-.4,1.478-1.6,2.47s-2.417,1.493-2.729,1.121c-.1-.122-.094-.321,0-.569.443.262,1.485-.12,2.458-.926.95-.788,1.51-1.716,1.368-2.206A.526.526,0,0,1,958.771,360.142Z" transform="translate(-954.37 -360.019)" fill="#f0f1f3"/>
      <path id="Path_20712" data-name="Path 20712" d="M956.925,362.242c-.972.806-2.015,1.188-2.458.926a5.593,5.593,0,0,1,1.595-1.9,5.416,5.416,0,0,1,2.231-1.23C958.436,360.526,957.875,361.454,956.925,362.242Z" transform="translate(-954.391 -360.023)" fill="#d9dadc"/>
    </g>
    <g id="Group_7626" data-name="Group 7626" transform="translate(979.232 482.016)">
      <path id="Path_20713" data-name="Path 20713" d="M922.5,364.512c.828,2.348,4.751,3.132,8.764,1.75s6.6-4.407,5.769-6.755a3.229,3.229,0,0,0-1.691-1.774c.381,2.491-1.684,5.219-4.948,6.344-3.19,1.1-6.445.293-7.774-1.785A3.1,3.1,0,0,0,922.5,364.512Z" transform="translate(-922.342 -357.076)" fill="#f0f1f3"/>
      <path id="Path_20714" data-name="Path 20714" d="M930.463,363.9c3.264-1.125,5.329-3.853,4.948-6.344a9.592,9.592,0,0,0-7.073.025c-2.815.969-4.925,2.748-5.649,4.534C924.018,364.191,927.273,365,930.463,363.9Z" transform="translate(-922.416 -356.898)" fill="#d9dadc"/>
    </g>
    <g id="Group_7627" data-name="Group 7627" transform="translate(923.728 442.947)">
      <path id="Path_20715" data-name="Path 20715" d="M852.751,308.007c-1.827,1.692-.987,5.6,1.877,8.737s6.664,4.3,8.49,2.61a3.228,3.228,0,0,0,.956-2.257c-2.135,1.339-5.459.528-7.787-2.021-2.276-2.491-2.829-5.8-1.451-7.842A3.091,3.091,0,0,0,852.751,308.007Z" transform="translate(-851.785 -307.233)" fill="#f0f1f3"/>
      <path id="Path_20716" data-name="Path 20716" d="M856.912,315.076c2.329,2.549,5.652,3.36,7.787,2.021a9.6,9.6,0,0,0-2.833-6.481c-2.009-2.2-4.479-3.427-6.405-3.382C854.083,309.278,854.636,312.585,856.912,315.076Z" transform="translate(-852.41 -307.232)" fill="#d9dadc"/>
    </g>
    <g id="Group_7628" data-name="Group 7628" transform="translate(1048.463 346.342)">
      <path id="Path_20717" data-name="Path 20717" d="M1013.407,192.021c.358-.135-.006-1.941-.813-4.036s-1.751-3.682-2.109-3.548c-.116.044-.157.266-.13.617.446.1,1.263,1.4,1.919,3.1.641,1.665.912,3.146.673,3.553C1013.141,191.947,1013.3,192.061,1013.407,192.021Z" transform="translate(-1010.348 -184.43)" fill="#f0f1f3"/>
      <path id="Path_20718" data-name="Path 20718" d="M1012.277,188.329c-.657-1.7-1.473-3.007-1.919-3.1a14.2,14.2,0,0,0,.942,3.419,13.64,13.64,0,0,0,1.651,3.239C1013.189,191.475,1012.919,189.994,1012.277,188.329Z" transform="translate(-1010.35 -184.599)" fill="#d9dadc"/>
    </g>
    <g id="Group_7629" data-name="Group 7629" transform="translate(1036.131 434.604)">
      <path id="Path_20719" data-name="Path 20719" d="M995.5,312.942c1.5.765,4.556-2.24,6.816-6.713s2.871-8.719,1.366-9.485a1.95,1.95,0,0,0-1.882.374c1.248,1.256.882,4.85-.956,8.488-1.8,3.556-4.389,5.948-6.137,5.8A1.82,1.82,0,0,0,995.5,312.942Z" transform="translate(-994.679 -296.626)" fill="#f0f1f3"/>
      <path id="Path_20720" data-name="Path 20720" d="M1000.838,305.741c1.838-3.638,2.2-7.232.956-8.488-1.527.975-3.41,3.321-4.934,6.337-1.585,3.138-2.358,6.164-2.159,7.955C996.45,311.689,999.042,309.3,1000.838,305.741Z" transform="translate(-994.671 -296.76)" fill="#d9dadc"/>
    </g>
    <g id="Group_7630" data-name="Group 7630" transform="translate(1015.501 438.623)">
      <path id="Path_20721" data-name="Path 20721" d="M969.288,308.821c1.13.721,3.025-.227,4.23-2.118s1.266-4.006.135-4.726a1.742,1.742,0,0,0-1.3-.2c.993.926,1.049,2.749.068,4.286a3.48,3.48,0,0,1-3.83,1.779A1.694,1.694,0,0,0,969.288,308.821Z" transform="translate(-968.478 -301.737)" fill="#f0f1f3"/>
      <path id="Path_20722" data-name="Path 20722" d="M972.392,306.078c.98-1.537.924-3.36-.068-4.286a4.978,4.978,0,0,0-2.932,2.314,4.857,4.857,0,0,0-.83,3.751A3.48,3.48,0,0,0,972.392,306.078Z" transform="translate(-968.447 -301.749)" fill="#d9dadc"/>
    </g>
    <g id="Group_7631" data-name="Group 7631" transform="translate(971.251 455.781)">
      <path id="Path_20723" data-name="Path 20723" d="M912.255,327.4c.375,1.288,2.424,1.823,4.577,1.2s3.593-2.177,3.217-3.464a1.745,1.745,0,0,0-.846-1c.136,1.351-1.024,2.758-2.775,3.268a3.48,3.48,0,0,1-4.053-1.187A1.7,1.7,0,0,0,912.255,327.4Z" transform="translate(-912.196 -323.671)" fill="#f0f1f3"/>
      <path id="Path_20724" data-name="Path 20724" d="M916.478,327.27c1.75-.51,2.911-1.917,2.775-3.268a4.981,4.981,0,0,0-3.731-.193,4.857,4.857,0,0,0-3.1,2.273A3.48,3.48,0,0,0,916.478,327.27Z" transform="translate(-912.245 -323.547)" fill="#d9dadc"/>
    </g>
    <g id="Group_7632" data-name="Group 7632" transform="translate(1003.225 457.32)">
      <path id="Path_20725" data-name="Path 20725" d="M953.57,333.844c1.267,1.042,3.764.115,5.579-2.07s2.26-4.8.994-5.843a2.1,2.1,0,0,0-1.563-.415c1.06,1.278.81,3.546-.666,5.323-1.443,1.738-3.568,2.417-5.028,1.7A2.025,2.025,0,0,0,953.57,333.844Z" transform="translate(-952.85 -325.505)" fill="#f0f1f3"/>
      <path id="Path_20726" data-name="Path 20726" d="M957.9,330.843c1.477-1.777,1.727-4.044.666-5.323A6.468,6.468,0,0,0,954.554,328a6.253,6.253,0,0,0-1.678,4.542C954.336,333.26,956.461,332.58,957.9,330.843Z" transform="translate(-952.841 -325.508)" fill="#d9dadc"/>
    </g>
    <g id="Group_7633" data-name="Group 7633" transform="translate(1056.723 375.857)">
      <path id="Path_20727" data-name="Path 20727" d="M1021.493,225.358c.344.014.649-.738.68-1.679s-.22-1.716-.564-1.73a.392.392,0,0,0-.315.211c.339.118.581.762.555,1.527-.025.748-.3,1.359-.633,1.471A.373.373,0,0,0,1021.493,225.358Z" transform="translate(-1020.926 -221.949)" fill="#f0f1f3"/>
      <path id="Path_20728" data-name="Path 20728" d="M1021.77,223.744c.026-.765-.216-1.409-.555-1.527a2.968,2.968,0,0,0-.365,1.469,2.884,2.884,0,0,0,.286,1.529C1021.472,225.1,1021.745,224.492,1021.77,223.744Z" transform="translate(-1020.847 -222.006)" fill="#d9dadc"/>
    </g>
    <g id="Group_7634" data-name="Group 7634" transform="translate(939.58 490.66)">
      <path id="Path_20729" data-name="Path 20729" d="M871.943,368.44c-.1.515,1.053,1.2,2.588,1.525s2.863.174,2.967-.341c.035-.168-.066-.353-.269-.539-.275.477-1.386.652-2.634.386-1.219-.26-2.155-.854-2.258-1.393C872.116,368.165,871.975,368.286,871.943,368.44Z" transform="translate(-871.937 -367.926)" fill="#f0f1f3"/>
      <path id="Path_20730" data-name="Path 20730" d="M874.7,369.43c1.248.266,2.359.091,2.634-.386a5.369,5.369,0,0,0-2.318-.986,5.111,5.111,0,0,0-2.573-.02C872.549,368.576,873.485,369.17,874.7,369.43Z" transform="translate(-872.046 -367.885)" fill="#d9dadc"/>
    </g>
    <g id="Group_7635" data-name="Group 7635" transform="translate(1043.461 416.645)">
      <path id="Path_20731" data-name="Path 20731" d="M1004.446,279.444c.7.393,1.959-.534,2.82-2.07s.994-3.1.3-3.489a.94.94,0,0,0-.828.013c.6.559.553,1.892-.147,3.14-.684,1.22-1.763,1.947-2.547,1.773A.9.9,0,0,0,1004.446,279.444Z" transform="translate(-1004 -273.796)" fill="#f0f1f3"/>
      <path id="Path_20732" data-name="Path 20732" d="M1006.578,277.067c.7-1.248.746-2.581.147-3.14a4.694,4.694,0,0,0-1.993,2.056,4.555,4.555,0,0,0-.7,2.857C1004.815,279.014,1005.893,278.287,1006.578,277.067Z" transform="translate(-1003.989 -273.824)" fill="#d9dadc"/>
    </g>
    <g id="Group_7636" data-name="Group 7636" transform="translate(1023.079 460.975)">
      <path id="Path_20733" data-name="Path 20733" d="M978.192,340.107c.566.53,3.1-1.248,5.653-3.973s4.171-5.362,3.605-5.892c-.184-.172-.578-.1-1.112.171.281.828-1,3.066-3.084,5.282-2.033,2.166-4.135,3.576-5.018,3.427C978.05,339.6,978.023,339.948,978.192,340.107Z" transform="translate(-978.08 -330.149)" fill="#f0f1f3"/>
      <path id="Path_20734" data-name="Path 20734" d="M983.3,335.767c2.079-2.216,3.365-4.453,3.084-5.282a19.625,19.625,0,0,0-4.541,3.8,18.748,18.748,0,0,0-3.56,4.906C979.162,339.343,981.264,337.932,983.3,335.767Z" transform="translate(-978.122 -330.221)" fill="#d9dadc"/>
    </g>
    <g id="Group_7637" data-name="Group 7637" transform="translate(963.733 489.506)">
      <path id="Path_20735" data-name="Path 20735" d="M903.348,370.168a2.158,2.158,0,0,0,2.31-3.521,1.43,1.43,0,0,0-.848-.226,1.87,1.87,0,0,1-1.979,3.13A1.414,1.414,0,0,0,903.348,370.168Z" transform="translate(-902.681 -366.419)" fill="#d9dadc"/>
      <path id="Path_20736" data-name="Path 20736" d="M905.122,368.871a1.883,1.883,0,0,0-.353-2.45,2.241,2.241,0,0,0-1.717,1.064,2.211,2.211,0,0,0-.262,2.067A1.886,1.886,0,0,0,905.122,368.871Z" transform="translate(-902.64 -366.42)" fill="#d9dadc"/>
    </g>
    <g id="Group_7638" data-name="Group 7638" transform="translate(1055.552 425.725)">
      <path id="Path_20737" data-name="Path 20737" d="M1019.49,290.461c.324.158,1.141-.855,1.827-2.264s.978-2.68.654-2.839c-.105-.052-.264.021-.452.191.247.314.034,1.383-.523,2.529-.544,1.12-1.233,1.934-1.636,1.968C1019.353,290.266,1019.394,290.413,1019.49,290.461Z" transform="translate(-1019.359 -285.341)" fill="#f0f1f3"/>
      <path id="Path_20738" data-name="Path 20738" d="M1021,288.134c.557-1.146.77-2.215.523-2.529a7.47,7.47,0,0,0-1.374,2.073,7.167,7.167,0,0,0-.785,2.424C1019.763,290.069,1020.452,289.254,1021,288.134Z" transform="translate(-1019.359 -285.397)" fill="#d9dadc"/>
    </g>
    <path id="Path_20739" data-name="Path 20739" d="M1017.415,277.753s.43.74.653,1.053a5.849,5.849,0,0,1-1.183,2.516s-.791-.03-1.023.187C1015.861,281.509,1014.957,278.39,1017.415,277.753Z" transform="translate(36.974 142.004)" fill="#fff"/>
    <g id="Group_7639" data-name="Group 7639" transform="translate(1009.515 402.881)">
      <path id="Path_20740" data-name="Path 20740" d="M973.531,267.4a7.781,7.781,0,0,1-6.078,3.719,7.516,7.516,0,0,0,7.755-4.254c1.926-3.744.8-8.172-2.524-9.891a6.106,6.106,0,0,0-2.939-.677,7,7,0,0,1,1.612.732A7.5,7.5,0,0,1,973.531,267.4Z" transform="translate(-962.249 -256.302)" fill="#f0f1f3"/>
      <path id="Path_20741" data-name="Path 20741" d="M961.776,260.647a7.8,7.8,0,0,0,.162,7.717,6.142,6.142,0,0,0,2.362,2.174,6.08,6.08,0,0,0,1.742.587,7.78,7.78,0,0,0,6.078-3.719,7.5,7.5,0,0,0-2.174-10.37,7,7,0,0,0-1.612-.732c-.163,0-.326.011-.489.026A7.8,7.8,0,0,0,961.776,260.647Z" transform="translate(-960.837 -256.302)" fill="#d9dadc"/>
    </g>
    <path id="Path_20742" data-name="Path 20742" d="M1005.02,233.671a6.964,6.964,0,0,0-.223-5.388c1.3,1.374,1.572,4.055.537,6.612-1.244,3.076-3.911,4.8-5.955,3.863A3.157,3.157,0,0,1,998,237.473a3.265,3.265,0,0,0,.94.512C1001.232,238.774,1003.953,236.843,1005.02,233.671Z" transform="translate(40.749 152.557)" fill="#f0f1f3"/>
    <path id="Path_20743" data-name="Path 20743" d="M999.671,231.844c.844-2.168,2.206-3.733,3.49-4.206a1.917,1.917,0,0,1,1.549.028,1.958,1.958,0,0,1,.688.586,8.105,8.105,0,0,1-.178,5.249c-1.067,3.172-3.38,5.244-5.167,4.628a2.058,2.058,0,0,1-.721-.437c-.039-.087-.075-.177-.108-.271A8.556,8.556,0,0,1,999.671,231.844Z" transform="translate(40.55 152.727)" fill="#d9dadc"/>
    <path id="Path_20744" data-name="Path 20744" d="M841.679,372.108" transform="translate(74.099 121.873)" fill="none" stroke="#5f78b4" stroke-miterlimit="10" stroke-width="0.094"/>
    <g id="Group_7640" data-name="Group 7640" transform="translate(915.94 475.27)">
      <path id="Path_20745" data-name="Path 20745" d="M842.138,348.836c-.973,1.243.945,4.334,4.283,6.9s6.836,3.646,7.809,2.4a1.8,1.8,0,0,0,.08-1.721c-1.338.953-4.329.178-7.045-1.913-2.654-2.043-4.146-4.65-3.652-6.187A1.721,1.721,0,0,0,842.138,348.836Z" transform="translate(-841.885 -348.321)" fill="#f0f1f3"/>
      <path id="Path_20746" data-name="Path 20746" d="M847.709,354.51c2.716,2.091,5.707,2.867,7.045,1.913a13.026,13.026,0,0,0-4.364-5.183c-2.343-1.8-4.762-2.87-6.333-2.917C843.563,349.86,845.055,352.467,847.709,354.51Z" transform="translate(-842.328 -348.321)" fill="#d9dadc"/>
    </g>
    <g id="Group_7643" data-name="Group 7643" transform="translate(860.82 379.375)">
      <path id="Path_20751" data-name="Path 20751" d="M776.519,226.421c-2.489-.045-4.593,3.359-4.7,7.6s1.827,7.719,4.316,7.764a3.228,3.228,0,0,0,2.253-.966c-2.467-.513-4.3-3.4-4.218-6.851.083-3.373,1.975-6.141,4.386-6.661A3.092,3.092,0,0,0,776.519,226.421Z" transform="translate(-771.818 -226.42)" fill="#f0f1f3"/>
      <path id="Path_20752" data-name="Path 20752" d="M774.811,234.21c-.085,3.452,1.751,6.338,4.218,6.851a9.593,9.593,0,0,0,2.445-6.637c.074-2.977-.857-5.574-2.277-6.875C776.786,228.069,774.895,230.837,774.811,234.21Z" transform="translate(-772.456 -226.661)" fill="#d9dadc"/>
    </g>
    <g id="Group_7644" data-name="Group 7644" transform="translate(933.907 491.014)">
      <path id="Path_20753" data-name="Path 20753" d="M864.731,368.491c-.125.362,1.5,1.234,3.625,1.949s3.953,1,4.078.64c.04-.118-.105-.29-.393-.493-.36.281-1.885.077-3.615-.5-1.691-.569-3-1.305-3.166-1.748C864.958,368.333,864.769,368.383,864.731,368.491Z" transform="translate(-864.724 -368.335)" fill="#f0f1f3"/>
      <path id="Path_20754" data-name="Path 20754" d="M868.573,370.083c1.73.581,3.255.785,3.615.5a14.136,14.136,0,0,0-3.232-1.457,13.621,13.621,0,0,0-3.548-.8C865.568,368.778,866.881,369.514,868.573,370.083Z" transform="translate(-864.87 -368.335)" fill="#d9dadc"/>
    </g>
    <g id="Group_7645" data-name="Group 7645" transform="translate(881.144 446.457)">
      <path id="Path_20755" data-name="Path 20755" d="M798.053,312.009c-1.243,1.143.509,5.051,3.912,8.73s7.169,5.734,8.412,4.591a1.952,1.952,0,0,0,.306-1.894c-1.613.732-4.854-.866-7.622-3.858-2.705-2.924-4.042-6.189-3.3-7.777A1.822,1.822,0,0,0,798.053,312.009Z" transform="translate(-797.653 -311.695)" fill="#f0f1f3"/>
      <path id="Path_20756" data-name="Path 20756" d="M803.577,319.606c2.768,2.992,6.009,4.589,7.622,3.858-.382-1.771-1.923-4.355-4.218-6.835-2.388-2.58-4.953-4.36-6.7-4.8C799.536,313.417,800.872,316.682,803.577,319.606Z" transform="translate(-798.17 -311.723)" fill="#d9dadc"/>
    </g>
    <g id="Group_7646" data-name="Group 7646" transform="translate(892.957 428.93)">
      <path id="Path_20757" data-name="Path 20757" d="M813.343,289.73c-1.069.808-.842,2.914.508,4.7s3.313,2.584,4.383,1.776a1.743,1.743,0,0,0,.637-1.147c-1.215.607-2.942.023-4.04-1.432a3.481,3.481,0,0,1-.331-4.209A1.693,1.693,0,0,0,813.343,289.73Z" transform="translate(-812.669 -289.415)" fill="#f0f1f3"/>
      <path id="Path_20758" data-name="Path 20758" d="M815.174,293.63c1.1,1.455,2.826,2.039,4.04,1.432a4.977,4.977,0,0,0-1.145-3.556,4.855,4.855,0,0,0-3.226-2.086A3.481,3.481,0,0,0,815.174,293.63Z" transform="translate(-813.012 -289.416)" fill="#d9dadc"/>
    </g>
    <g id="Group_7647" data-name="Group 7647" transform="translate(878.183 410.451)">
      <path id="Path_20759" data-name="Path 20759" d="M794.955,266.166c-1.418.823-1.422,3.487-.007,5.951s3.71,3.793,5.128,2.97a2.109,2.109,0,0,0,.934-1.32c-1.569.548-3.606-.478-4.756-2.482-1.124-1.959-1.02-4.187.158-5.306A2.026,2.026,0,0,0,794.955,266.166Z" transform="translate(-793.889 -265.924)" fill="#f0f1f3"/>
      <path id="Path_20760" data-name="Path 20760" d="M796.682,271.3c1.15,2,3.188,3.029,4.756,2.482a6.475,6.475,0,0,0-.927-4.631,6.253,6.253,0,0,0-3.671-3.157C795.662,267.113,795.558,269.341,796.682,271.3Z" transform="translate(-794.317 -265.939)" fill="#d9dadc"/>
    </g>
    <g id="Group_7648" data-name="Group 7648" transform="translate(954.916 495.605)">
      <path id="Path_20761" data-name="Path 20761" d="M891.45,374.4c-.133.317.466.865,1.337,1.223s1.685.392,1.818.075a.394.394,0,0,0-.087-.369c-.229.276-.917.279-1.625-.013-.692-.285-1.171-.754-1.158-1.107A.375.375,0,0,0,891.45,374.4Z" transform="translate(-891.431 -374.178)" fill="#f0f1f3"/>
      <path id="Path_20762" data-name="Path 20762" d="M892.975,375.3c.708.292,1.4.29,1.624.013a2.979,2.979,0,0,0-1.249-.855,2.9,2.9,0,0,0-1.533-.265C891.8,374.551,892.283,375.02,892.975,375.3Z" transform="translate(-891.514 -374.171)" fill="#d9dadc"/>
    </g>
    <g id="Group_7649" data-name="Group 7649" transform="translate(874.549 341.426)">
      <path id="Path_20763" data-name="Path 20763" d="M792.52,178.233c-.447-.278-1.491.569-2.333,1.892s-1.163,2.622-.717,2.9a.619.619,0,0,0,.6-.064c-.352-.423-.127-1.526.557-2.6.669-1.053,1.551-1.723,2.093-1.63A.558.558,0,0,0,792.52,178.233Z" transform="translate(-789.269 -178.18)" fill="#f0f1f3"/>
      <path id="Path_20764" data-name="Path 20764" d="M790.8,180.5c-.684,1.076-.909,2.179-.557,2.6a5.375,5.375,0,0,0,1.733-1.827,5.118,5.118,0,0,0,.917-2.4C792.351,178.782,791.469,179.452,790.8,180.5Z" transform="translate(-789.442 -178.326)" fill="#d9dadc"/>
    </g>
    <g id="Group_7650" data-name="Group 7650" transform="translate(905.666 463.104)">
      <path id="Path_20765" data-name="Path 20765" d="M829.1,333.029c-.61.516-.183,2.023.956,3.365s2.555,2.012,3.166,1.5a.942.942,0,0,0,.276-.78c-.733.366-1.966-.142-2.892-1.234-.9-1.067-1.209-2.331-.772-3.005A.9.9,0,0,0,829.1,333.029Z" transform="translate(-828.825 -332.856)" fill="#f0f1f3"/>
      <path id="Path_20766" data-name="Path 20766" d="M830.83,335.881c.926,1.093,2.159,1.6,2.892,1.234a4.693,4.693,0,0,0-1.232-2.585,4.558,4.558,0,0,0-2.432-1.654C829.621,333.55,829.926,334.814,830.83,335.881Z" transform="translate(-829.046 -332.86)" fill="#d9dadc"/>
    </g>
    <g id="Group_7652" data-name="Group 7652" transform="translate(868.821 360.266)">
      <path id="Path_20769" data-name="Path 20769" d="M782.584,202.4a2.158,2.158,0,0,0,2.494,3.393,1.427,1.427,0,0,0,.507-.716,1.87,1.87,0,0,1-2.244-2.946A1.409,1.409,0,0,0,782.584,202.4Z" transform="translate(-781.989 -202.129)" fill="#d9dadc"/>
      <path id="Path_20770" data-name="Path 20770" d="M783.389,204.554a1.884,1.884,0,0,0,2.419.523,2.24,2.24,0,0,0-.4-1.979,2.21,2.21,0,0,0-1.846-.967A1.888,1.888,0,0,0,783.389,204.554Z" transform="translate(-782.211 -202.128)" fill="#d9dadc"/>
    </g>
    <g id="Group_7653" data-name="Group 7653" transform="translate(893.763 471.281)">
      <path id="Path_20771" data-name="Path 20771" d="M813.75,343.3c-.262.248.4,1.368,1.484,2.5s2.17,1.852,2.432,1.6c.086-.081.072-.254-.022-.491-.38.122-1.307-.45-2.187-1.373-.86-.9-1.382-1.831-1.274-2.22C813.981,343.237,813.828,343.225,813.75,343.3Z" transform="translate(-813.693 -343.25)" fill="#f0f1f3"/>
      <path id="Path_20772" data-name="Path 20772" d="M815.587,345.56c.88.923,1.807,1.495,2.187,1.373a7.445,7.445,0,0,0-1.462-2.011,7.161,7.161,0,0,0-2-1.582C814.2,343.729,814.727,344.658,815.587,345.56Z" transform="translate(-813.823 -343.269)" fill="#d9dadc"/>
    </g>
    <path id="Path_20773" data-name="Path 20773" d="M826.693,345.938s-.844.146-1.215.245a5.848,5.848,0,0,1-1.945-1.987s.3-.731.182-1.024C823.715,343.171,826.953,343.412,826.693,345.938Z" transform="translate(77.97 128.047)" fill="#fff"/>
    <g id="Group_7654" data-name="Group 7654" transform="translate(897.502 401.363)">
      <path id="Path_20774" data-name="Path 20774" d="M820.695,265.22a7.783,7.783,0,0,1-1.365-6.993,7.516,7.516,0,0,0,1.28,8.752c2.836,3.111,7.38,3.6,10.15,1.086a6.117,6.117,0,0,0,1.661-2.517,6.982,6.982,0,0,1-1.249,1.255A7.5,7.5,0,0,1,820.695,265.22Z" transform="translate(-818.447 -255.195)" fill="#f0f1f3"/>
      <path id="Path_20775" data-name="Path 20775" d="M830.791,257.063a7.8,7.8,0,0,0-7.288-2.542,6.147,6.147,0,0,0-2.861,1.455,6.08,6.08,0,0,0-1.158,1.428,7.783,7.783,0,0,0,1.365,6.993,7.5,7.5,0,0,0,10.476,1.582,6.976,6.976,0,0,0,1.249-1.255c.053-.154.1-.31.146-.467A7.8,7.8,0,0,0,830.791,257.063Z" transform="translate(-818.601 -254.372)" fill="#d9dadc"/>
    </g>
    <g id="Group_7655" data-name="Group 7655" transform="translate(880.16 367.648)">
      <path id="Path_20776" data-name="Path 20776" d="M797.654,214.771a5.227,5.227,0,0,1,3.508-3.255,5.048,5.048,0,0,0-4.542,3.829,4.875,4.875,0,0,0,2.974,6.177,4.1,4.1,0,0,0,2.025.056,4.677,4.677,0,0,1-1.159-.268A5.035,5.035,0,0,1,797.654,214.771Z" transform="translate(-796.402 -211.515)" fill="#f0f1f3"/>
      <path id="Path_20777" data-name="Path 20777" d="M805.609,217.847a5.238,5.238,0,0,0-1.13-5.059,4.131,4.131,0,0,0-1.843-1.118,4.067,4.067,0,0,0-1.225-.155,5.227,5.227,0,0,0-3.508,3.255,5.035,5.035,0,0,0,2.807,6.539,4.677,4.677,0,0,0,1.159.268c.107-.024.213-.05.319-.082A5.241,5.241,0,0,0,805.609,217.847Z" transform="translate(-796.65 -211.514)" fill="#d9dadc"/>
    </g>
    <path id="Path_20778" data-name="Path 20778" d="M870.323,349.151a6.965,6.965,0,0,0,5.127,1.672c-1.739.736-4.349.058-6.384-1.8-2.448-2.24-3.138-5.341-1.541-6.928a3.162,3.162,0,0,1,1.684-.843,3.275,3.275,0,0,0-.808.7C866.862,343.82,867.722,347.044,870.323,349.151Z" transform="translate(68.769 128.457)" fill="#f0f1f3"/>
    <path id="Path_20779" data-name="Path 20779" d="M873.987,344.777c1.737,1.548,2.729,3.371,2.724,4.738a1.917,1.917,0,0,1-.567,1.442,1.957,1.957,0,0,1-.789.441,8.11,8.11,0,0,1-4.858-2c-2.6-2.107-3.735-5-2.534-6.457a2.05,2.05,0,0,1,.661-.524c.1-.006.192-.009.291-.006A8.562,8.562,0,0,1,873.987,344.777Z" transform="translate(68.593 128.209)" fill="#d9dadc"/>
    <text id="_4" data-name="4" transform="translate(622 498)" fill="#fff" font-size="355" font-family="SegoeUI, Segoe UI"><tspan x="0" y="0">4</tspan></text>
    <text id="УПС_Похоже_страница_затерялась_в_космосе_Мы_уже_отправились_на_ее_поиски_" data-name="УПС! Похоже страница затерялась в космосе!
Мы уже отправились на ее поиски!" transform="translate(953 553)" fill="#fff" font-size="33" font-family="SegoeUI, Segoe UI"><tspan x="-346.726" y="0">УПС! Похоже страница затерялась в космосе!</tspan><tspan x="-268.697" y="38">Мы уже отправились на ее поиски!</tspan></text>
    <text id="_4-2" data-name="4" transform="translate(1110 498)" fill="#fff" font-size="355" font-family="SegoeUI, Segoe UI"><tspan x="0" y="0">4</tspan></text>
    <g id="Group_7641" data-name="Group 7641" transform="translate(864.253 408.602)">
      <path id="Path_20747" data-name="Path 20747" d="M781.034,275.843c-1.263.4-3.133-2.015-4.175-5.391s-.862-6.436.4-6.835a1.516,1.516,0,0,1,1.378.443c-1.143.77-1.411,3.346-.562,6.092.828,2.683,2.441,4.62,3.8,4.684A1.444,1.444,0,0,1,781.034,275.843Z" transform="translate(-776.181 -263.574)" fill="#f0f1f3"/>
      <path id="Path_20748" data-name="Path 20748" d="M778.454,270.283c-.848-2.746-.581-5.322.563-6.092a10.929,10.929,0,0,1,2.8,4.948,10.614,10.614,0,0,1,.436,5.828C780.9,274.9,779.282,272.966,778.454,270.283Z" transform="translate(-776.56 -263.705)" fill="#d9dadc"/>
    </g>
    <g id="Group_7642" data-name="Group 7642" transform="translate(857.628 403.336)">
      <path id="Path_20749" data-name="Path 20749" d="M769.932,262.206c-.459.163-1.245-.894-1.757-2.36s-.555-2.786-.1-2.948c.149-.053.333.024.531.2-.4.324-.406,1.434.011,2.627.407,1.165,1.08,2.014,1.589,2.052C770.16,262.005,770.068,262.157,769.932,262.206Z" transform="translate(-767.76 -256.881)" fill="#f0f1f3"/>
      <path id="Path_20750" data-name="Path 20750" d="M768.767,259.785c-.417-1.193-.411-2.3-.011-2.627a5.6,5.6,0,0,1,1.226,2.158,5.407,5.407,0,0,1,.374,2.52C769.848,261.8,769.174,260.95,768.767,259.785Z" transform="translate(-767.909 -256.94)" fill="#d9dadc"/>
    </g>
    <g id="Group_7651" data-name="Group 7651" transform="translate(867.339 426.857)">
      <path id="Path_20767" data-name="Path 20767" d="M780.356,286.813c-.694.345.09,3.338,1.75,6.684s3.569,5.78,4.263,5.434c.227-.112.3-.507.228-1.1-.875-.026-2.523-2.011-3.874-4.733-1.32-2.66-1.909-5.122-1.461-5.9C780.879,286.856,780.563,286.71,780.356,286.813Z" transform="translate(-780.104 -286.781)" fill="#f0f1f3"/>
      <path id="Path_20768" data-name="Path 20768" d="M783,293.209c1.351,2.722,3,4.707,3.874,4.733a19.644,19.644,0,0,0-1.979-5.582,18.746,18.746,0,0,0-3.356-5.05C781.09,288.087,781.679,290.549,783,293.209Z" transform="translate(-780.378 -286.894)" fill="#d9dadc"/>
    </g>
    <g id="Group_7758" data-name="Group 7758" transform="translate(-6926.111 21927.396)">
      <g id="Group_438" data-name="Group 438" transform="translate(7915.291 -21726.184)">
        <g id="Group_437" data-name="Group 437" transform="translate(3.022 0)">
          <path id="Path_17962" data-name="Path 17962" d="M155.91,171.9c11.074-.24,17.039,1.53,20.238,3.619a8.12,8.12,0,0,1,3.822,5.233l-2.359.467a5.817,5.817,0,0,0-2.778-3.687c-2.423-1.581-7.485-3.358-17.953-3.236A11.154,11.154,0,0,0,155.91,171.9Z" transform="translate(-155.91 -171.876)" fill="#f7f7f7"/>
        </g>
        <path id="Path_17963" data-name="Path 17963" d="M189.169,172.295c1.135,2.144,4.911,3.393,4.911,3.393a7.046,7.046,0,0,0-.83-.22,51.376,51.376,0,0,0-12.816-1.174h-.01l-.975-2.4A69.265,69.265,0,0,1,189.169,172.295Z" transform="translate(-176.43 -171.875)" fill="#d5d1d2"/>
        <path id="Path_17964" data-name="Path 17964" d="M157.893,220.428c.008.243.014.475.021.712-.775-.189-1.585-.353-2.42-.5,0-.047,0-.092,0-.139-.2-6.143-.467-14.557,9.367-16.963,1.134-.277,2.309-.521,3.554-.779,7.765-1.609,12.778-3.055,11.745-8.276l2.358-.467c1.574,7.95-6.848,9.7-13.615,11.1-1.223.254-2.378.493-3.47.76C157.489,207.82,157.694,214.23,157.893,220.428Z" transform="translate(-155.431 -185.146)" fill="#f7f7f7"/>
        <path id="Path_17965" data-name="Path 17965" d="M210.42,237.285c-.163-5.1-.372-11.774,5.2-15.265-4.673,4.3-3.721,7.863-2.665,8.832a45.47,45.47,0,0,0-.135,6.356c.008.243.014.475.021.712-.775-.189-1.585-.353-2.42-.5C210.423,237.377,210.421,237.333,210.42,237.285Z" transform="translate(-210.361 -201.926)" fill="#d5d1d2"/>
      </g>
      <g id="Group_455" data-name="Group 455" transform="translate(7840.11 -21766.184)">
        <ellipse id="Ellipse_143" data-name="Ellipse 143" cx="29.5" cy="1" rx="29.5" ry="1" transform="translate(16.21 137.51)" fill="#24272d" opacity="0.5"/>
        <ellipse id="Ellipse_144" data-name="Ellipse 144" cx="3.5" cy="0.5" rx="3.5" ry="0.5" transform="translate(96.21 137.51)" fill="#24272d" opacity="0.5"/>
        <g id="Group_454" data-name="Group 454">
          <g id="Group_436" data-name="Group 436" transform="translate(0)">
            <g id="Group_406" data-name="Group 406" transform="translate(8.678 31.538)">
              <path id="Path_17893" data-name="Path 17893" d="M279.306,166.336c1.434.409,12.132,34.471,2.861,62.5H237.409a215.3,215.3,0,0,1-9.439-58.609c-.08-3.636,1.3-7.073,4.878-7.7C241.268,161.056,257.215,160.036,279.306,166.336Z" transform="translate(-227.967 -161.418)" fill="#d5d1d2"/>
              <g id="Group_405" data-name="Group 405" transform="translate(0.91 9.819)">
                <path id="Path_17894" data-name="Path 17894" d="M361.843,216.415c.188,2.392,1.177,4.265,2.211,4.184s1.721-2.086,1.533-4.477-1.177-4.265-2.211-4.185S361.656,214.023,361.843,216.415Z" transform="translate(-361.078 -201.943)" fill="#c10020"/>
                <path id="Path_17895" data-name="Path 17895" d="M363.789,190.871c.094,2.4,1.01,4.308,2.046,4.268s1.8-2.017,1.707-4.414-1.01-4.308-2.047-4.268S363.7,188.474,363.789,190.871Z" transform="translate(-363.781 -186.456)" fill="#215261"/>
              </g>
              <path id="Path_17896" data-name="Path 17896" d="M272.843,167.021c1.308.33,11.238,34.265,2.54,63.279H235.26a317.31,317.31,0,0,1-7.338-56.846c-.118-3.566,1.4-7.005,4.741-7.829C239.974,163.823,253.6,162.172,272.843,167.021Z" transform="translate(-220.956 -162.883)" fill="#bfbfbf"/>
            </g>
            <g id="Group_430" data-name="Group 430" transform="translate(0 16.921)">
              <g id="Group_408" data-name="Group 408" transform="translate(69.067 45.799)">
                <path id="Path_17897" data-name="Path 17897" d="M150.912,240.929c10.9,10.671,13.176,13.494,27.409,6.347,0,0-4.481,5.506,0,18.421,0,0-11.646,11.667-28.006-.755Z" transform="translate(-150.315 -240.929)" fill="#d5d1d2"/>
                <path id="Path_17898" data-name="Path 17898" d="M158.539,273.021c-4.481-12.915,0-18.421,0-18.421,1.973-3.654-6.3-.5-7.6,3.208s-2.708,14.761.86,19.144C153.271,278.756,159.932,275.13,158.539,273.021Z" transform="translate(-130.533 -248.252)" fill="#d5d1d2"/>
                <g id="Group_407" data-name="Group 407" transform="translate(23.714 2.55)">
                  <path id="Path_17899" data-name="Path 17899" d="M114.952,252.636c.26-.948,1.713-2.555,2.9-3.749a4.643,4.643,0,0,1,3.721-1.343l10.006.925,1.186,6.481-1.778.795s1.7,4.305.015,12.961c0,0-6.433,7.282-12.313,3.072C113.606,268.14,114.03,256,114.952,252.636Z" transform="translate(-114.381 -247.488)" fill="#00a7ce"/>
                  <path id="Path_17900" data-name="Path 17900" d="M123.177,281.838c-3.213-2.3-4.225-7.994-4.3-12.723,2.97-2.516,3.1-5.041,3.1-5.041l.208,8.489a11.25,11.25,0,0,0,1.5.6s.055,5.885.933,6.833,6.872,1.908,10.873-1.233C135.49,278.766,129.057,286.048,123.177,281.838Z" transform="translate(-118.869 -257.547)" fill="#215261"/>
                  <path id="Path_17901" data-name="Path 17901" d="M135.834,247.544a4.735,4.735,0,0,1,1.923,2.075,9.534,9.534,0,0,1,.553,1.31,11.242,11.242,0,0,1,.39,1.375,20.464,20.464,0,0,1,.435,5.683,10.837,10.837,0,0,1-.471,2.67,2.455,2.455,0,0,1-1.292,1.6,4.573,4.573,0,0,1-2.377.178,11.987,11.987,0,0,1-2.628-.746l.466.741-.176-2.119-.221-2.118c-.088-.706-.172-1.411-.27-2.117l-.156-1.058-.183-1.057-.118,0,.178,8.49v.054l.047.023a11.54,11.54,0,0,0,2.867.966,5.37,5.37,0,0,0,3.02-.182,3.2,3.2,0,0,0,1.237-.922,4.291,4.291,0,0,0,.7-1.365,11.2,11.2,0,0,0,.473-2.99,17.974,17.974,0,0,0-.145-3.015,16.9,16.9,0,0,0-.639-2.949,10.51,10.51,0,0,0-1.271-2.736,4.642,4.642,0,0,0-2.311-1.9Z" transform="translate(-128.66 -247.432)" fill="#215261"/>
                  <path id="Path_17902" data-name="Path 17902" d="M122.257,266.46l-7.876,2.865.479,1.075Z" transform="translate(-103.873 -258.998)" fill="#215261"/>
                  <path id="Path_17903" data-name="Path 17903" d="M131.269,292.849a10.337,10.337,0,0,1-4.2,1.734,12.891,12.891,0,0,1-4.511-.024l-.544-.126-.527-.16a4.645,4.645,0,0,1-.482-.211c-.069-.042-.152-.079-.208-.122a1.52,1.52,0,0,1-.139-.129c-.027-.061-.063-.095-.092-.169l-.084-.229c-.044-.169-.094-.337-.125-.518-.069-.358-.119-.729-.156-1.1a41.46,41.46,0,0,1-.147-4.549l-1.177.011a42.4,42.4,0,0,0,.449,4.657c.064.388.141.777.242,1.168a3.165,3.165,0,0,0,.534,1.215,1.953,1.953,0,0,0,.3.244,3.248,3.248,0,0,0,.3.153,5.331,5.331,0,0,0,.589.214c.2.046.392.1.587.138l.588.1a13.316,13.316,0,0,0,4.666-.268A10.484,10.484,0,0,0,131.269,292.849Z" transform="translate(-114.647 -271.63)" fill="#215261"/>
                </g>
              </g>
              <g id="Group_409" data-name="Group 409" transform="translate(14.088 38.718)">
                <path id="Path_17904" data-name="Path 17904" d="M261.273,229.954c11.011,13.263,5.479,42.2-11.747,66.91,0,0,5.517,2.771,5.517,7.3H237.751v-7.934c0-7.246,5.37-11.68,5.86-18.008.578-7.463-6.9-8.78-9.04-.924-1.066,3.912,2.425,12.353,2.425,18.932v7.934H220.6a8.563,8.563,0,0,1,4.534-7.808S220.6,282,213.95,264.121,201.373,237.632,210,226.95,261.273,229.954,261.273,229.954Z" transform="translate(-205.698 -222.872)" fill="#f7f7f7"/>
                <path id="Path_17905" data-name="Path 17905" d="M261.188,322.16s-13.649-10.744-49.959,1.007l-.329-1.007c36.31-11.752,50.583-1.134,50.583-1.134Z" transform="translate(-202.258 -279.858)" fill="#c3d924"/>
                <path id="Path_17906" data-name="Path 17906" d="M316.708,296.968s-4.534-14.356-11.181-32.239-12.577-26.489-3.945-37.171c1.614-2,4.417-3.143,7.907-3.685l9.9,11.47s-10.255,12.226-4.319,24.406c7.813,16.031,4.106,31.111,7.56,38.164,0,0-2.642,1.574-2.742,6.863h-7.709A8.563,8.563,0,0,1,316.708,296.968Z" transform="translate(-297.275 -223.481)" fill="#d5d1d2"/>
                <path id="Path_17907" data-name="Path 17907" d="M322.961,324.2c-3.282.77-6.792,1.741-10.549,2.956l-.364-.987,0-.008c3.741-1.211,7.245-2.181,10.526-2.953C322.706,323.54,322.834,323.87,322.961,324.2Z" transform="translate(-303.402 -283.859)" fill="#a1b41e"/>
                <path id="Path_17908" data-name="Path 17908" d="M257.159,348.166c6,.107,9.212,6.064,6.939,11.933a81.889,81.889,0,0,0-4.221,13.606c1.455,1.455,1.371,4.117,1.343,6.62h-6.3v-7.934c0-7.246,5.37-11.68,5.86-18.008C261.079,350.577,259.278,348.374,257.159,348.166Z" transform="translate(-222.87 -299.029)" fill="#d5d1d2"/>
                <path id="Rectangle_963" data-name="Rectangle 963" d="M0,0H17.292a0,0,0,0,1,0,0V0a1.718,1.718,0,0,1-1.718,1.718H1.718A1.718,1.718,0,0,1,0,0V0A0,0,0,0,1,0,0Z" transform="translate(32.053 81.295)" fill="#215261"/>
                <path id="Rectangle_964" data-name="Rectangle 964" d="M0,0H16.415a0,0,0,0,1,0,0V0A1.718,1.718,0,0,1,14.7,1.718H1.718A1.718,1.718,0,0,1,0,0V0A0,0,0,0,1,0,0Z" transform="translate(14.88 81.295)" fill="#215261"/>
              </g>
              <g id="Group_410" data-name="Group 410" transform="translate(45.691 109.011)">
                <path id="Path_17909" data-name="Path 17909" d="M245.787,405.18c1.416,1.279,7.516,2.157,11.838.941,1.192-.3,2.268-2.806,1.648-2.836l-.16.242c-.544.543-10.506.924-13.052-1.156l.048-.247s-.477-.2-.7.993C245.115,404.738,245.787,405.18,245.787,405.18Z" transform="translate(-245.336 -402.112)" fill="#00a7ce"/>
                <path id="Path_17910" data-name="Path 17910" d="M271.39,406.494c.035.036.066.075.1.112-2.34-.213-4.322-.766-5.053-1.426,0,0-.672-.442-.374-2.063.22-1.193.7-.993.7-.993l-.048.247c.983.8,3.071,1.238,5.295,1.44C271.789,404.674,271.583,405.565,271.39,406.494Z" transform="translate(-265.986 -402.112)" fill="#00a7ce"/>
              </g>
              <g id="Group_411" data-name="Group 411" transform="translate(27.886 91.184)">
                <path id="Path_17911" data-name="Path 17911" d="M289.561,367.411c.655,4.326,4.175,7.38,7.863,6.823s6.148-4.517,5.494-8.843-4.175-7.381-7.863-6.823S288.906,363.085,289.561,367.411Z" transform="translate(-288.403 -357.778)" fill="#215261"/>
                <ellipse id="Ellipse_107" data-name="Ellipse 107" cx="7.745" cy="6.603" rx="7.745" ry="6.603" transform="translate(2.316 17.29) rotate(-98.601)" fill="#00a7ce"/>
                <path id="Path_17912" data-name="Path 17912" d="M306.486,359.078a5.728,5.728,0,0,1,2.389.154c.7,5.652.712,10.737,1.17,14.823a5.672,5.672,0,0,1-1.243.338c-3.606.546-7.047-2.441-7.687-6.67S302.88,359.623,306.486,359.078Z" transform="translate(-299.957 -358.09)" fill="#28697b"/>
              </g>
              <g id="Group_412" data-name="Group 412" transform="translate(59.848 94.218)">
                <path id="Path_17913" data-name="Path 17913" d="M224.391,369.934c-1.467,2.874-2.416,6.639-.68,7.49s5.024-1.044,6.77-4.606,1.287-7.443-.449-8.293S225.858,367.06,224.391,369.934Z" transform="translate(-222.776 -364.391)" fill="#215261"/>
              </g>
              <g id="Group_413" data-name="Group 413" transform="translate(60.111 94.321)">
                <path id="Path_17914" data-name="Path 17914" d="M224.312,370.244c-1.465,2.875-2.45,6.623-.8,7.431s4.839-1.135,6.585-4.7,1.384-7.4-.264-8.2S225.777,367.369,224.312,370.244Z" transform="translate(-222.653 -364.654)" fill="#00a7ce"/>
              </g>
              <g id="Group_418" data-name="Group 418" transform="translate(18.181)">
                <path id="Path_17915" data-name="Path 17915" d="M211.817,176.113c.022,5.221,1.945,9.446,4.295,9.436s4.236-4.251,4.214-9.473-1.945-9.447-4.295-9.436S211.794,170.891,211.817,176.113Z" transform="translate(-165.553 -149.975)" fill="#d5d1d2"/>
                <path id="Path_17916" data-name="Path 17916" d="M216.614,151.306c.666,14.173,16.225,24.956,30.4,24.29s21.592-12.53,20.926-26.7-9.211-23.309-23.338-24.622C229.493,122.868,215.767,133.29,216.614,151.306Z" transform="translate(-215.073 -124.146)" fill="#f7f7f7"/>
                <path id="Path_17917" data-name="Path 17917" d="M267.752,226.259c-6.932,4.254-26.846,5.618-41.674-4.056a1.392,1.392,0,0,0-1.727.176l-4.145,4.028a56.456,56.456,0,0,0,30.348,9.351c15.874,0,20.92-6.347,20.92-6.347l-1.829-2.739A1.4,1.4,0,0,0,267.752,226.259Z" transform="translate(-219.992 -183.613)" fill="#f7f7f7"/>
                <path id="Path_17918" data-name="Path 17918" d="M287.823,136.636c6.789,7.275,1.886,21.714,1.886,21.714,2.075,6.452,9.627,10.943,9.627,10.943-5.523-.049-5.343,5.366-5.341,5.43a55.944,55.944,0,0,1-17.8-7.782h0l4.145-4.028a1.4,1.4,0,0,1,1.08-.393,21.615,21.615,0,0,1-3.9-11.214c-.847-18.016,12.879-28.438,27.986-27.034C290.464,124.651,287.823,136.636,287.823,136.636Z" transform="translate(-275.978 -124.146)" fill="#d5d1d2"/>
                <path id="Path_17919" data-name="Path 17919" d="M226.357,247.106a57.233,57.233,0,0,0,9.093,2.6,51.377,51.377,0,0,0,9.435.938q2.375.025,4.752-.156c.789-.083,1.582-.149,2.367-.276s1.567-.272,2.345-.437a29.28,29.28,0,0,0,4.548-1.437c.734-.308,1.453-.649,2.152-1.026a18.47,18.47,0,0,0,2-1.283l-.043-.066a26.651,26.651,0,0,1-4.3,1.864,33,33,0,0,1-4.519,1.181c-.764.151-1.53.3-2.3.4-.769.128-1.545.215-2.32.308-1.553.165-3.115.269-4.681.3a50.907,50.907,0,0,1-9.362-.7,57.008,57.008,0,0,1-9.135-2.29Z" transform="translate(-213.979 -198.191)" fill="#d5d1d2"/>
                <path id="Path_17920" data-name="Path 17920" d="M271.322,226.519a21.883,21.883,0,0,1-5.09,1.773,39.647,39.647,0,0,1-5.327.833,57.346,57.346,0,0,1-10.789.048A50.106,50.106,0,0,1,239.525,227a42.982,42.982,0,0,1-9.835-4.533l-.043.065a43.214,43.214,0,0,0,9.754,4.839,50.6,50.6,0,0,0,10.648,2.429,45.694,45.694,0,0,0,10.942.108,35.4,35.4,0,0,0,5.38-1.084,25.456,25.456,0,0,0,2.587-.924,14.854,14.854,0,0,0,2.406-1.311Z" transform="translate(-223.583 -183.906)" fill="#d5d1d2"/>
                <path id="Path_17921" data-name="Path 17921" d="M249.244,228.4a8.146,8.146,0,0,1,.491,2.259,4.5,4.5,0,0,1-.382,2.106l-.11.232.147.165a5.4,5.4,0,0,1,.835,1.29,4.782,4.782,0,0,1,.433,1.493,4.03,4.03,0,0,1-.12,1.558,4.858,4.858,0,0,1-.709,1.437l.061.049a4.647,4.647,0,0,0,.893-1.4,4.15,4.15,0,0,0,.293-1.671,5.264,5.264,0,0,0-.343-1.676,6.366,6.366,0,0,0-.818-1.528l.037.4a3.651,3.651,0,0,0,.513-1.22,3.368,3.368,0,0,0,.005-1.317,4.131,4.131,0,0,0-.418-1.211,3.745,3.745,0,0,0-.747-1.006Z" transform="translate(-210.985 -187.488)" fill="#d5d1d2"/>
                <g id="Group_414" data-name="Group 414" transform="translate(16.807 8.204)">
                  <path id="Path_17922" data-name="Path 17922" d="M252.692,152.409c3.744,6.173,4.078,16.58,1.006,21.546,0,0-3.363,6.326-15.495,5.7-13.529-.7-14.655-7.616-15.227-9.327-1.236-3.7-2.224-11.7.136-17.9C226.151,144.446,248.236,145.06,252.692,152.409Z" transform="translate(-221.677 -146.039)" fill="#fff"/>
                  <path id="Path_17923" data-name="Path 17923" d="M251.078,150.781c3.726,6.145,4.059,16.5,1,21.447,0,0-3.348,6.3-15.423,5.67-13.466-.7-14.588-7.58-15.157-9.284-1.23-3.682-2.214-11.647.135-17.815C224.659,142.854,246.642,143.465,251.078,150.781Z" transform="translate(-219.471 -145.065)" fill="#215261"/>
                  <path id="Path_17924" data-name="Path 17924" d="M252.042,152.229c3.659,6.034,3.986,16.206.983,21.06,0,0-3.288,6.184-15.145,5.568-13.223-.686-14.325-7.444-14.883-9.116-1.208-3.616-2.174-11.437.133-17.494C226.1,144.445,247.686,145.045,252.042,152.229Z" transform="translate(-220.977 -146.008)" fill="#28697b"/>
                  <path id="Path_17925" data-name="Path 17925" d="M264.041,187.637A51.88,51.88,0,0,1,251.1,178.7a44.1,44.1,0,0,1-10.454-14.458,19.771,19.771,0,0,1,.555-1.938,48.913,48.913,0,0,0,11.3,15.371A72.028,72.028,0,0,0,265.9,187,16.886,16.886,0,0,1,264.041,187.637Z" transform="translate(-239.237 -155.543)" fill="#00a7ce"/>
                  <path id="Path_17926" data-name="Path 17926" d="M266.195,194.325c-13.223-.686-14.325-7.444-14.883-9.116a31.289,31.289,0,0,1-.969-13.144s2.339,6.237,9.548,13.13c6.742,6.447,12.377,8.794,12.377,8.794A26.392,26.392,0,0,1,266.195,194.325Z" transform="translate(-249.292 -161.476)" fill="#00a7ce"/>
                </g>
                <g id="Group_416" data-name="Group 416" transform="translate(19.676 12.49)">
                  <g id="Group_415" data-name="Group 415" transform="translate(16.265)">
                    <path id="Path_17927" data-name="Path 17927" d="M227.258,159.431a8.934,8.934,0,0,1,2.189,1.2,4.831,4.831,0,0,1,.833.817c.112.135.242.347.364.518.115.187.237.37.347.563a18.955,18.955,0,0,1,1.969,5.044,21.911,21.911,0,0,1,.634,5.486,11.56,11.56,0,0,1-1.237,5.393,9.15,9.15,0,0,0,1.231-2.553,16.034,16.034,0,0,0,.593-2.8,22.8,22.8,0,0,0-.063-5.745,20.431,20.431,0,0,0-1.555-5.634,13.089,13.089,0,0,0-.7-1.357,6.8,6.8,0,0,0-1.046-1.277,11.034,11.034,0,0,0-2.565-1.8l0,0a1.178,1.178,0,1,0-1.1,2.084A1.124,1.124,0,0,0,227.258,159.431Z" transform="translate(-221.265 -156.702)" fill="#00a7ce"/>
                    <path id="Path_17928" data-name="Path 17928" d="M251.613,155.995a25.29,25.29,0,0,1,3.224.554" transform="translate(-251.613 -155.995)" fill="none" stroke="#00a7ce" stroke-linecap="round" stroke-miterlimit="10" stroke-width="6"/>
                  </g>
                  <path id="Path_17929" data-name="Path 17929" d="M284.436,201.783c-.709-.369-1.414-.709-2.1-1.085s-1.343-.767-1.973-1.2a18.3,18.3,0,0,1-1.81-1.378c-.29-.243-.566-.5-.84-.769l-.409-.4c-.13-.136-.25-.253-.365-.4a9.93,9.93,0,0,1-1.21-1.849,19.532,19.532,0,0,1-.9-2.1,42.268,42.268,0,0,1-1.263-4.506,17.353,17.353,0,0,0,.435,4.753,13.154,13.154,0,0,0,.768,2.308,8.929,8.929,0,0,0,1.278,2.14c.13.165.289.326.428.475s.284.284.432.422c.3.274.6.546.92.8a12.794,12.794,0,0,0,2.037,1.338A13.51,13.51,0,0,0,284.436,201.783Z" transform="translate(-273.55 -175.512)" fill="#f7f7f7"/>
                </g>
                <g id="Group_417" data-name="Group 417" transform="translate(0 12.015)">
                  <ellipse id="Ellipse_108" data-name="Ellipse 108" cx="11.44" cy="5.366" rx="11.44" ry="5.366" transform="translate(4.059 22.925) rotate(-90.245)" fill="#28697b"/>
                  <path id="Path_17930" data-name="Path 17930" d="M315.6,157.9l3.863-1.138v0a2.466,2.466,0,0,1,.662-.1c2.779-.012,5.052,4.781,5.077,10.7s-2.207,10.735-4.985,10.747a2.432,2.432,0,0,1-.592-.074v0l-3.944-1.091Z" transform="translate(-311.128 -155.928)" fill="#d5d1d2"/>
                  <ellipse id="Ellipse_109" data-name="Ellipse 109" cx="9.528" cy="4.469" rx="9.528" ry="4.469" transform="translate(0.081 21.046) rotate(-90.245)" fill="#f7f7f7"/>
                  <path id="Path_17931" data-name="Path 17931" d="M336.811,172.512l-3.224.93c.216,3.718,1.622,6.536,3.257,6.529,1.784-.008,3.239-3.381,3.221-7.473s-1.5-7.453-3.285-7.445c-1.529.007-2.852,2.486-3.157,5.916Z" transform="translate(-333.047 -161.026)" fill="#215261"/>
                  <path id="Path_17932" data-name="Path 17932" d="M337.772,172.558l-3.224.93c.216,3.718,1.622,6.536,3.257,6.529,1.784-.008,3.239-3.381,3.221-7.473s-1.5-7.453-3.285-7.445c-1.529.006-2.852,2.485-3.157,5.916Z" transform="translate(-334.385 -161.054)" fill="#00a7ce"/>
                </g>
              </g>
              <g id="Group_422" data-name="Group 422" transform="translate(0 42.795)">
                <path id="Path_17933" data-name="Path 17933" d="M343.828,233.269c11.689,4.9,12.706,19.572,5.266,23.24s-.782,7.915,2.386,9.5c3.03,1.516,1.413,16.958-10.621,13.346,0,0-20.179-10.056-14.379-27.116C330.51,240.385,343.828,233.269,343.828,233.269Z" transform="translate(-325.433 -233.269)" fill="#f7f7f7"/>
                <g id="Group_419" data-name="Group 419" transform="translate(14.201 32.741)">
                  <path id="Path_17934" data-name="Path 17934" d="M324.257,316.755s8.478,4.988,7.353,10.049-6.862,12.177-13.526,11.228c-8.887-1.265-4.678-9.488-4.678-9.488Z" transform="translate(-312.41 -316.755)" fill="#28697b"/>
                  <path id="Path_17935" data-name="Path 17935" d="M324.02,334.562l14.414-13.092a10.96,10.96,0,0,1-2.125,9.333,13.207,13.207,0,0,1-7.262,4.985,1.583,1.583,0,0,0-.929,2.379,6.053,6.053,0,0,0,1.159,1.316c2.052,1.751-4.663,1.761-5.267-3.292A10.406,10.406,0,0,1,324.02,334.562Z" transform="translate(-323.96 -319.621)" fill="#215261"/>
                </g>
                <path id="Path_17936" data-name="Path 17936" d="M336.244,310.844c.3-1.289,4.084.522,5.658,3.094,1.355,2.214-.753,12.057-9.993,14.233-6.045,1.423-7.408-4.727-7.408-4.727S333.388,323.11,336.244,310.844Z" transform="translate(-313.513 -280.162)" fill="#f7f7f7"/>
                <path id="Path_17937" data-name="Path 17937" d="M342.945,252.24c4.03-11.855,17.348-18.971,17.348-18.971a17.173,17.173,0,0,1,3.544,2.006A76.134,76.134,0,0,0,351.306,247c-5.942,7.047-1.312,19.655,9.155,25.511,0,0-3.019,2.288,2.841,7.685a13.788,13.788,0,0,1-3.01,1.084c-6.045,1.423-7.408-4.727-7.408-4.727C347.314,272.452,338.943,264.015,342.945,252.24Z" transform="translate(-341.898 -233.269)" fill="#d5d1d2"/>
                <path id="Path_17938" data-name="Path 17938" d="M339.88,324.1a9.529,9.529,0,0,0,4.483-1.169A12.659,12.659,0,0,0,348.026,320l.72-.935a3.887,3.887,0,0,0,.33-.487l.307-.5a15.235,15.235,0,0,0,1.052-2.091c.31-.714.505-1.472.749-2.2.166-.758.316-1.517.439-2.274-.293.718-.54,1.44-.8,2.153l-.465,1.042a10.653,10.653,0,0,1-.476,1.029,19.483,19.483,0,0,1-1.126,1.953c-.215.306-.385.645-.627.931l-.7.877a14.845,14.845,0,0,1-3.368,2.916A12.717,12.717,0,0,1,339.88,324.1Z" transform="translate(-328.893 -280.822)" fill="#d5d1d2"/>
                <g id="Group_420" data-name="Group 420" transform="translate(4.996 3.713)">
                  <path id="Path_17939" data-name="Path 17939" d="M360.308,244.036c5.77-4.481,8.419,3.672,2.823,8.663-4.606,4.108-10.237,1.173-8.889-2.325A35.933,35.933,0,0,1,360.308,244.036Z" transform="translate(-354.039 -242.737)" fill="#00a7ce"/>
                  <path id="Path_17940" data-name="Path 17940" d="M358.906,252.754a10.7,10.7,0,0,0-1.245,1.844c-2.255-.445-3.727-2.243-2.964-4.222.086-.113.169-.229.255-.34l0-.006a40.927,40.927,0,0,1,5.805-5.991h0c2.982-2.316,5.127-1.254,5.734,1A74.83,74.83,0,0,0,358.906,252.754Z" transform="translate(-354.494 -242.739)" fill="#28697b"/>
                </g>
                <g id="Group_421" data-name="Group 421" transform="translate(0 18.971)">
                  <path id="Path_17941" data-name="Path 17941" d="M366.178,288.782s-20.619-2.256-19.381-7.139a19.219,19.219,0,0,0-1.045,5.871c-.207,3.877,14.348,5.156,20.269,2.141Z" transform="translate(-345.75 -281.643)" fill="#c3d924"/>
                  <path id="Path_17942" data-name="Path 17942" d="M376.154,287.514a19.22,19.22,0,0,1,1.045-5.871c-.478,1.887,2.309,3.382,5.907,4.505a18.558,18.558,0,0,0,1.551,5.077C380.011,290.869,376.046,289.551,376.154,287.514Z" transform="translate(-376.152 -281.643)" fill="#a1b41e"/>
                </g>
              </g>
              <g id="Group_428" data-name="Group 428" transform="translate(45.586 52.618)">
                <g id="Group_427" data-name="Group 427" transform="translate(0)">
                  <path id="Path_17943" data-name="Path 17943" d="M241.572,275.056a6.347,6.347,0,0,1-2.417,1.346,63,63,0,0,0-22.514-1.228s.731-6.922-.9-12.57c0,0,.5-2.608,2.127-3.508S241.572,275.056,241.572,275.056Z" transform="translate(-215.744 -258.768)" fill="#d5d1d2"/>
                  <path id="Path_17944" data-name="Path 17944" d="M235.994,260.07s2.274,9.229-.943,14.534c-10.04-3.88-22.288-1.928-22.288-1.928.95-4.246-1.413-14.032-1.413-14.032S227.137,257.3,235.994,260.07Z" transform="translate(-209.223 -258.316)" fill="#f7f7f7"/>
                  <g id="Group_426" data-name="Group 426" transform="translate(7.7 7.277)">
                    <g id="Group_423" data-name="Group 423" transform="translate(0 2.564)">
                      <path id="Path_17945" data-name="Path 17945" d="M251.629,284.217h.014c1.06-.038,3.383-.017,3.407-.017h0a.392.392,0,0,0,0-.784c-.1,0-2.364-.021-3.442.018a.392.392,0,0,0,.014.784Z" transform="translate(-251.237 -283.409)" fill="#215261"/>
                    </g>
                    <g id="Group_424" data-name="Group 424" transform="translate(0 1.282)">
                      <path id="Path_17946" data-name="Path 17946" d="M251.629,280.947h.014c1.06-.038,3.383-.017,3.407-.017a.388.388,0,0,0,.4-.389.393.393,0,0,0-.389-.4c-.1,0-2.364-.021-3.442.018a.392.392,0,0,0,.014.784Z" transform="translate(-251.237 -280.139)" fill="#28697b"/>
                    </g>
                    <g id="Group_425" data-name="Group 425" transform="translate(0)">
                      <path id="Path_17947" data-name="Path 17947" d="M251.629,277.678h.014c1.06-.038,3.383-.017,3.407-.017h0a.392.392,0,0,0,0-.784c-.1,0-2.363-.021-3.442.018a.392.392,0,0,0,.014.784Z" transform="translate(-251.237 -276.871)" fill="#00a7ce"/>
                    </g>
                  </g>
                </g>
                <path id="Path_17948" data-name="Path 17948" d="M224.03,274.465c0,1.578.983,2.861,2.206,2.864s2.217-1.273,2.221-2.852-.983-2.861-2.205-2.864S224.034,272.886,224.03,274.465Z" transform="translate(-205.878 -266.398)" fill="#c3d924"/>
                <path id="Path_17949" data-name="Path 17949" d="M238.3,268.514a1.254,1.254,0,1,0,1.219-1.565A1.426,1.426,0,0,0,238.3,268.514Z" transform="translate(-223.742 -263.563)" fill="#ef4864"/>
                <path id="Path_17950" data-name="Path 17950" d="M243.38,277.222a35.107,35.107,0,0,0-3.748-.788c-1.263-.194-2.534-.354-3.811-.434s-2.558-.118-3.839-.092a35.3,35.3,0,0,0-3.831.311l.2.2a17.38,17.38,0,0,0-.165-4.26,15.756,15.756,0,0,0-1.187-4.068,18.064,18.064,0,0,1,.593,2.026,19.392,19.392,0,0,1,.357,2.074,18.936,18.936,0,0,1,.135,2.1,18.11,18.11,0,0,1-.08,2.088l-.024.22.222-.025c1.26-.142,2.525-.251,3.794-.272,1.268-.041,2.54-.028,3.808.046s2.538.158,3.8.315S242.126,276.983,243.38,277.222Z" transform="translate(-221.964 -264.254)" fill="#d5d1d2"/>
              </g>
              <g id="Group_429" data-name="Group 429" transform="translate(32.398 109.141)">
                <path id="Path_17951" data-name="Path 17951" d="M293.943,405.382s-3.628,2.378-11.864.126c-.791-.216-1.488-2.7-.91-2.823l.072.22s7.964,2.142,12.541-.185l-.031-.277C294.4,402.481,294.714,404.72,293.943,405.382Z" transform="translate(-280.956 -402.443)" fill="#00a7ce"/>
                <path id="Path_17952" data-name="Path 17952" d="M297.488,403.058l.072.221a30.911,30.911,0,0,0,5.84.871,12.83,12.83,0,0,0,.916,2.676l-.021.013a25.766,25.766,0,0,1-5.9-.958C297.607,405.665,296.91,403.182,297.488,403.058Z" transform="translate(-297.275 -402.817)" fill="#00a7ce"/>
              </g>
            </g>
            <g id="Group_435" data-name="Group 435" transform="translate(69.151 0)">
              <g id="Group_431" data-name="Group 431" transform="translate(30.193 5.083)">
                <path id="Path_17953" data-name="Path 17953" d="M122.287,154.526l1.158.107L126.9,93.96h-1.164Z" transform="translate(-118.18 -93.96)" fill="#f7f7f7"/>
                <path id="Path_17954" data-name="Path 17954" d="M138.4,307.439l-2.789,48.99h-1.164l2.786-48.937A8.426,8.426,0,0,0,138.4,307.439Z" transform="translate(-134.442 -223.718)" fill="#f7f7f7"/>
              </g>
              <g id="Group_434" data-name="Group 434" transform="translate(0)">
                <path id="Path_17955" data-name="Path 17955" d="M195.346,99.581s-2.767-2.01-15.858,4.459l-1.025,15.977s4.4,2.463,15.68.975Z" transform="translate(-178.463 -92.115)" fill="#01627a"/>
                <path id="Path_17956" data-name="Path 17956" d="M187.485,147l-6.661-3.753a27.065,27.065,0,0,1,6.938-1.176Z" transform="translate(-171.805 -118.118)" fill="#215261"/>
                <path id="Path_17957" data-name="Path 17957" d="M152.181,86.082A36.747,36.747,0,0,0,123.9,82.329l-1.617,23.8s10.022-4.25,28.569,3.242Z" transform="translate(-113.268 -81)" fill="#00a7ce"/>
              </g>
            </g>
          </g>
          <g id="Group_453" data-name="Group 453" transform="translate(83.263 6.464) rotate(4)">
            <text id="CORP." transform="translate(20.025 11.651) rotate(-90)" fill="#fff" font-size="3" font-family="SegoeUI-Bold, Segoe UI" font-weight="700" letter-spacing="-0.01em"><tspan x="0" y="0">CORP.</tspan></text>
            <g id="Group_312" data-name="Group 312">
              <path id="Path_1" data-name="Path 1" d="M2.786,2.544l2.429,0V7.554a1.822,1.822,0,0,1-.356,1.154A1.433,1.433,0,0,1,3.7,9.1a2.74,2.74,0,0,1-2-1.142C1.3,8.4.458,9.334,0,9.837a5.442,5.442,0,0,0,1.067,1.018,5.487,5.487,0,0,0,4.607.568A3.467,3.467,0,0,0,7.5,10.135a4.277,4.277,0,0,0,.711-2.4L8.2,0,4.08,0,2.787,2.544Z" fill="#fafafa" fill-rule="evenodd"/>
              <path id="Path_2" data-name="Path 2" d="M.442,3.374a3.166,3.166,0,0,0,.779,2.2c1.154,1.233,2.8,1.334,4.137,2.136.332.2.63.57.412.967-.41.744-2.2.3-2.812.041a4.718,4.718,0,0,1-1.113-.66C1.616,8.28.39,9.646,0,10.078a6.969,6.969,0,0,0,4.407,1.563,5.306,5.306,0,0,0,3.578-1.349,3.13,3.13,0,0,0,.344-4.043C7.161,4.712,4.039,4.4,3.54,3.584c-.271-.445.144-1.043.917-1.1a5.119,5.119,0,0,1,2.48.788c.24-.261,1.3-1.416,1.635-1.789A5.175,5.175,0,0,0,4.915,0C2.856.023.6,1.1.442,3.374Z" transform="translate(8.177 0.022)" fill="#fafafa" fill-rule="evenodd"/>
            </g>
          </g>
        </g>
      </g>
    </g>
  </g>
</svg>
