<svg xmlns="http://www.w3.org/2000/svg" width="32.524" height="38.438" viewBox="0 0 32.524 38.438">
  <g id="android-logo" transform="translate(0)">
    <g id="Сгруппировать_589" data-name="Сгруппировать 589" transform="translate(0 0)">
      <path id="Контур_18460" data-name="Контур 18460" d="M44.923,179.141a2.3,2.3,0,0,0-1.686.693,2.268,2.268,0,0,0-.693,1.663v9.933a2.366,2.366,0,0,0,2.379,2.379,2.259,2.259,0,0,0,1.675-.693,2.316,2.316,0,0,0,.681-1.687V181.5a2.366,2.366,0,0,0-2.356-2.356Z" transform="translate(-42.544 -166.69)" fill="#fff"/>
      <path id="Контур_18461" data-name="Контур 18461" d="M138.589,3.534l1.64-3.026a.3.3,0,0,0-.115-.462.32.32,0,0,0-.462.138l-1.663,3.05a11.586,11.586,0,0,0-9.286,0L127.04.185a.32.32,0,0,0-.462-.138.3.3,0,0,0-.115.462l1.64,3.026A10.128,10.128,0,0,0,124.13,7.08a8.956,8.956,0,0,0-1.479,4.978h21.367a8.959,8.959,0,0,0-1.479-4.978A10.171,10.171,0,0,0,138.589,3.534Zm-9.482,4.4a.866.866,0,0,1-.635.266.827.827,0,0,1-.624-.266.921.921,0,0,1,0-1.27.83.83,0,0,1,.624-.265.9.9,0,0,1,.635,1.536Zm9.736,0a.828.828,0,0,1-.624.266.9.9,0,0,1,0-1.8.83.83,0,0,1,.624.265.921.921,0,0,1,0,1.27Z" transform="translate(-117.083 0)" fill="#fff"/>
      <path id="Контур_18462" data-name="Контур 18462" d="M123.971,200.835a2.523,2.523,0,0,0,2.541,2.541h1.709l.023,5.244a2.3,2.3,0,0,0,.693,1.687A2.268,2.268,0,0,0,130.6,211a2.366,2.366,0,0,0,2.379-2.379v-5.244h3.188v5.244a2.379,2.379,0,1,0,4.758,0v-5.244h1.733a2.523,2.523,0,0,0,2.518-2.541V185.45h-21.2Z" transform="translate(-118.312 -172.561)" fill="#fff"/>
      <path id="Контур_18463" data-name="Контур 18463" d="M444.732,179.141a2.289,2.289,0,0,0-1.663.681,2.259,2.259,0,0,0-.693,1.675v9.933a2.294,2.294,0,0,0,.693,1.687,2.269,2.269,0,0,0,1.663.693,2.366,2.366,0,0,0,2.379-2.379V181.5a2.259,2.259,0,0,0-.693-1.675A2.317,2.317,0,0,0,444.732,179.141Z" transform="translate(-414.587 -166.69)" fill="#fff"/>
    </g>
  </g>
</svg>
