<svg xmlns="http://www.w3.org/2000/svg" xmlns:xlink="http://www.w3.org/1999/xlink" width="338" height="338" viewBox="0 0 338 338">
    <defs>
        <filter id="Прямоугольник_1114" x="0" y="0" width="338" height="338" filterUnits="userSpaceOnUse">
            <feOffset dy="8" input="SourceAlpha"/>
            <feGaussianBlur stdDeviation="8" result="blur"/>
            <feFlood flood-opacity="0.4"/>
            <feComposite operator="in" in2="blur"/>
            <feComposite in="SourceGraphic"/>
        </filter>
    </defs>
    <g id="Сгруппировать_7841" data-name="Сгруппировать 7841" transform="translate(-1064 -2314)">
        <g transform="matrix(1, 0, 0, 1, 1064, 2314)" filter="url(#Прямоугольник_1114)">
            <g id="Прямоугольник_1114-2" data-name="Прямоугольник 1114" transform="translate(24 16)" fill="#1c1f23" stroke="#00a7ce" stroke-width="2">
                <rect width="290" height="290" rx="41" stroke="none"/>
                <rect x="1" y="1" width="288" height="288" rx="40" fill="none"/>
            </g>
        </g>
        <g id="angel" transform="translate(1155.072 2397.824)">
            <g id="Сгруппировать_71" data-name="Сгруппировать 71" transform="translate(49.448 0)">
                <path id="Контур_51" data-name="Контур 51" d="M189.766,30.28a48.609,48.609,0,0,1-18.95-3.485C162.276,23.058,161,17.889,161,15.14s1.276-7.918,9.817-11.655a53.262,53.262,0,0,1,37.9,0c8.541,3.737,9.816,8.906,9.816,11.655s-1.275,7.918-9.816,11.655A48.609,48.609,0,0,1,189.766,30.28Zm0-21.2a40.034,40.034,0,0,0-15.309,2.723c-3.337,1.46-4.374,2.954-4.374,3.333s1.037,1.873,4.374,3.333A40.034,40.034,0,0,0,189.766,21.2a40.036,40.036,0,0,0,15.309-2.723c3.337-1.46,4.373-2.954,4.373-3.333s-1.037-1.873-4.373-3.333A40.036,40.036,0,0,0,189.766,9.084Z" transform="translate(-161 0)" fill="#fff"/>
            </g>
            <path id="Контур_52" data-name="Контур 52" d="M290.681,122A19.7,19.7,0,0,0,271,141.681v21.2a4.542,4.542,0,0,0,4.542,4.542,4.547,4.547,0,0,1,4.542,4.542V190.13a22.747,22.747,0,0,0,15.9,21.66V181.046a4.542,4.542,0,1,1,9.084,0v40.427a22.648,22.648,0,0,0,13.626,6.391V193.158a4.542,4.542,0,0,1,9.084,0v43.884a22.57,22.57,0,0,0,11.355,3.05,4.542,4.542,0,0,0,4.542-4.542V174.992A53.052,53.052,0,0,0,290.681,122Z" transform="translate(-188.244 -85.058)" fill="#fff"/>
            <path id="Контур_53" data-name="Контур 53" d="M53.991,122a19.7,19.7,0,0,1,19.681,19.681v21.2a4.542,4.542,0,0,1-4.542,4.542,4.547,4.547,0,0,0-4.542,4.542V190.13a22.747,22.747,0,0,1-15.9,21.66V181.046a4.542,4.542,0,1,0-9.084,0v40.427a22.647,22.647,0,0,1-13.626,6.391V193.158a4.542,4.542,0,0,0-9.084,0v43.884a22.571,22.571,0,0,1-11.355,3.05A4.542,4.542,0,0,1,1,235.55V174.992A53.052,53.052,0,0,1,53.991,122Z" transform="translate(0 -85.058)" fill="#fff"/>
        </g>
    </g>
</svg>
