<svg id="Page-1" xmlns="http://www.w3.org/2000/svg" width="42.246" height="38.438" viewBox="0 0 42.246 38.438">
  <g id="_002---API" data-name="002---API" transform="translate(0 0)">
    <path id="Shape" d="M25.172,38.281A9.86,9.86,0,0,0,33.858,33H16.486A9.86,9.86,0,0,0,25.172,38.281Z" transform="translate(-4.049 -8.104)" fill="#fff"/>
    <path id="Shape-2" data-name="Shape" d="M30.772,16.509A1.51,1.51,0,0,0,29.263,15H27v3.018h2.263A1.51,1.51,0,0,0,30.772,16.509Z" transform="translate(-6.631 -3.684)" fill="#fff"/>
    <path id="Shape-3" data-name="Shape" d="M18.768,17.163l-.714,2.14h1.427Z" transform="translate(-4.434 -4.215)" fill="#fff"/>
    <path id="Shape-4" data-name="Shape" d="M9.509,32.912a9.77,9.77,0,0,1-2.25-.271L4.93,33.6,6.8,38.131l3.184-1.315a.755.755,0,0,1,.905.264A13.89,13.89,0,0,0,14.3,40.494a.754.754,0,0,1,.264.907l-1.314,3.177,4.527,1.877,1.315-3.179a.754.754,0,0,1,.829-.455,13.631,13.631,0,0,0,4.819-.007.756.756,0,0,1,.831.453L26.9,46.452l4.521-1.875L30.1,41.392a.754.754,0,0,1,.267-.908,13.738,13.738,0,0,0,3.411-3.405.753.753,0,0,1,.905-.263l3.184,1.317,1.878-4.53L38.053,32.9c-.085,0-.168.013-.254.013H32.691a11.294,11.294,0,0,1-20.714,0Z" transform="translate(-1.211 -8.016)" fill="#fff"/>
    <path id="Shape-5" data-name="Shape" d="M8.3,23.386h28.29a5.658,5.658,0,0,0,0-11.316h-.075a.754.754,0,0,1-.711-.5A7.158,7.158,0,0,0,29,6.79c-.074,0-.147,0-.22.006a.761.761,0,0,1-.758-.484,9.806,9.806,0,0,0-18.332.021.753.753,0,0,1-.781.484A6.074,6.074,0,0,0,8.3,6.79a8.3,8.3,0,0,0,0,16.6ZM26.4,9.807H30.93a.754.754,0,0,1,0,1.509H29.422V18.86H30.93a.754.754,0,0,1,0,1.509H26.4a.754.754,0,0,1,0-1.509h1.509V11.316H26.4a.754.754,0,0,1,0-1.509Zm-6.79,0h3.018a3.018,3.018,0,0,1,0,6.035H20.369v3.772a.754.754,0,1,1-1.509,0V10.562A.754.754,0,0,1,19.614,9.807ZM12.109,6.551c1.662-4.985,5.82-5.042,6-5.042a.754.754,0,0,1,0,1.509c-.146,0-3.264.1-4.569,4.011a.754.754,0,0,1-1.431-.477ZM10.6,19.376l3.018-9.053c.006-.017.019-.029.026-.045a.814.814,0,0,1,.406-.406c.016-.007.028-.02.045-.026a.707.707,0,0,1,.085-.011.63.63,0,0,1,.308,0,.7.7,0,0,1,.085.01c.017.006.028.019.045.026a.817.817,0,0,1,.406.406c.007.017.02.028.026.045l3.018,9.053a.754.754,0,1,1-1.431.477L15.55,16.6H13.117l-1.085,3.256a.754.754,0,1,1-1.431-.477ZM5.4,8.951a.755.755,0,0,1,.645,1.364,5.3,5.3,0,0,0-3.03,4.772,5.185,5.185,0,0,0,1.167,3.3.754.754,0,1,1-1.172.95A6.77,6.77,0,0,1,5.4,8.951Z" transform="translate(0 0)" fill="#fff"/>
  </g>
</svg>
