<svg xmlns="http://www.w3.org/2000/svg" width="38.412" height="38.412" viewBox="0 0 38.412 38.412">
  <g id="app-store" transform="translate(0)">
    <g id="Сгруппировать_591" data-name="Сгруппировать 591" transform="translate(0 0)">
      <g id="Сгруппировать_590" data-name="Сгруппировать 590">
        <path id="Контур_18464" data-name="Контур 18464" d="M30.534,0H7.877A7.886,7.886,0,0,0,0,7.877V30.535a7.886,7.886,0,0,0,7.877,7.877H30.534a7.886,7.886,0,0,0,7.877-7.877V7.877A7.886,7.886,0,0,0,30.534,0Zm5.627,30.535a5.633,5.633,0,0,1-5.627,5.627H7.877a5.633,5.633,0,0,1-5.627-5.627V7.877A5.633,5.633,0,0,1,7.877,2.251H30.534a5.633,5.633,0,0,1,5.627,5.627Z" transform="translate(0 0)" fill="#fff"/>
      </g>
    </g>
    <g id="Сгруппировать_593" data-name="Сгруппировать 593" transform="translate(6.414 7.878)">
      <g id="Сгруппировать_592" data-name="Сгруппировать 592">
        <path id="Контур_18465" data-name="Контур 18465" d="M102.016,106.4a1.876,1.876,0,0,0-3.436-.452l-.289.5-.289-.5a1.878,1.878,0,0,0-2.562-.687h0a1.878,1.878,0,0,0-.686,2.562l1.372,2.376-5.061,8.765H87.376a1.876,1.876,0,0,0,0,3.751h14.244l-2.166-3.751H95.4l6.432-11.141A1.863,1.863,0,0,0,102.016,106.4Z" transform="translate(-85.5 -105.006)" fill="#fff"/>
      </g>
    </g>
    <g id="Сгруппировать_595" data-name="Сгруппировать 595" transform="translate(20.072 14.567)">
      <g id="Сгруппировать_594" data-name="Сгруппировать 594">
        <path id="Контур_18466" data-name="Контур 18466" d="M277.6,201.431h-3.689l-4.194-7.265-2.166,3.751,6.512,11.28a1.863,1.863,0,0,0,1.139.874,1.885,1.885,0,0,0,.488.065,1.877,1.877,0,0,0,1.621-2.814l-1.235-2.139H277.6a1.876,1.876,0,0,0,0-3.751Z" transform="translate(-267.548 -194.166)" fill="#fff"/>
      </g>
    </g>
    <g id="Сгруппировать_597" data-name="Сгруппировать 597" transform="translate(8.327 27.083)">
      <g id="Сгруппировать_596" data-name="Сгруппировать 596">
        <path id="Контур_18467" data-name="Контур 18467" d="M111.623,361l-.369.639a1.876,1.876,0,0,0,3.249,1.876L115.954,361Z" transform="translate(-111.003 -361)" fill="#fff"/>
      </g>
    </g>
  </g>
</svg>
