<svg id="app-store" xmlns="http://www.w3.org/2000/svg" width="58.843" height="58.844" viewBox="0 0 58.843 58.844">
  <g id="Сгруппировать_591" data-name="Сгруппировать 591" transform="translate(0 0)">
    <g id="Сгруппировать_590" data-name="Сгруппировать 590">
      <path id="Контур_18464" data-name="Контур 18464" d="M46.776,0H12.067A12.081,12.081,0,0,0,0,12.067V46.776A12.081,12.081,0,0,0,12.067,58.843H46.776A12.081,12.081,0,0,0,58.843,46.776V12.067A12.081,12.081,0,0,0,46.776,0ZM55.4,46.776a8.629,8.629,0,0,1-8.62,8.62H12.067a8.629,8.629,0,0,1-8.62-8.62V12.067a8.629,8.629,0,0,1,8.62-8.62H46.776a8.629,8.629,0,0,1,8.62,8.62Z" transform="translate(0 0)" fill="#24272d"/>
    </g>
  </g>
  <g id="Сгруппировать_593" data-name="Сгруппировать 593" transform="translate(9.826 12.068)">
    <g id="Сгруппировать_592" data-name="Сгруппировать 592">
      <path id="Контур_18465" data-name="Контур 18465" d="M110.8,107.135a2.873,2.873,0,0,0-5.263-.693l-.442.766-.442-.766a2.877,2.877,0,0,0-3.925-1.052h0a2.877,2.877,0,0,0-1.052,3.925l2.1,3.639-7.752,13.428H88.373a2.873,2.873,0,1,0,0,5.746h21.82l-3.318-5.746h-6.215l9.853-17.067A2.854,2.854,0,0,0,110.8,107.135Z" transform="translate(-85.5 -105.006)" fill="#24272d"/>
    </g>
  </g>
  <g id="Сгруппировать_595" data-name="Сгруппировать 595" transform="translate(30.749 22.315)">
    <g id="Сгруппировать_594" data-name="Сгруппировать 594">
      <path id="Контур_18466" data-name="Контур 18466" d="M282.943,205.295h-5.652l-6.425-11.129-3.318,5.746,9.976,17.279a2.854,2.854,0,0,0,1.745,1.339,2.887,2.887,0,0,0,.748.1,2.875,2.875,0,0,0,2.484-4.311l-1.892-3.277h2.334a2.873,2.873,0,1,0,0-5.746Z" transform="translate(-267.548 -194.166)" fill="#24272d"/>
    </g>
  </g>
  <g id="Сгруппировать_597" data-name="Сгруппировать 597" transform="translate(12.757 41.489)">
    <g id="Сгруппировать_596" data-name="Сгруппировать 596">
      <path id="Контур_18467" data-name="Контур 18467" d="M111.952,361l-.565.979a2.873,2.873,0,0,0,4.977,2.873L118.588,361Z" transform="translate(-111.003 -361)" fill="#24272d"/>
    </g>
  </g>
</svg>
