<svg xmlns="http://www.w3.org/2000/svg" width="450" height="236.953" viewBox="0 0 450 236.953">
    <g id="Сгруппировать_7840" data-name="Сгруппировать 7840" transform="translate(-421.5 -1043.547)">
        <g id="Arrow" transform="translate(720.991 1155.678)">
            <g id="Сгруппировать_2126" data-name="Сгруппировать 2126" transform="translate(0 -0.001)">
                <g id="Сгруппировать_2124" data-name="Сгруппировать 2124" transform="translate(23.721 8.108)">
                    <path id="Контур_19721" data-name="Контур 19721" d="M501.349,373.415l-3-8.756-4.381-.943-6.682,7.043-.526,20.007,4.253,1.329Z" transform="translate(-486.758 -363.716)" fill="#00a7cf"/>
                </g>
                <g id="Сгруппировать_2125" data-name="Сгруппировать 2125">
                    <path id="Контур_19722" data-name="Контур 19722" d="M487.85,480.227l32.625-121.9a2.343,2.343,0,0,1,2.888-1.655h0a2.169,2.169,0,0,1,1.48,2.67L492.478,480.374" transform="translate(-487.85 -356.584)" fill="#24272d"/>
                </g>
            </g>
        </g>
        <g id="Bullseye" transform="translate(538 1043.547)">
            <g id="Сгруппировать_2141" data-name="Сгруппировать 2141" transform="translate(0 0)">
                <g id="Сгруппировать_2130" data-name="Сгруппировать 2130" transform="translate(2.032 129.965)">
                    <g id="Сгруппировать_2127" data-name="Сгруппировать 2127" transform="translate(126.732 21.913)">
                        <path id="Контур_19723" data-name="Контур 19723" d="M552.859,391.545l19,83.895H560.4l-19.322-80.86Z" transform="translate(-541.075 -391.545)" fill="#24272d"/>
                    </g>
                    <g id="Сгруппировать_2128" data-name="Сгруппировать 2128" transform="translate(63.936 21.913)">
                        <path id="Контур_19724" data-name="Контур 19724" d="M626.77,396.481c0,.866-17.338,78.959-17.338,78.959H598.671l19.43-83.894Z" transform="translate(-598.671 -391.546)" fill="#24272d"/>
                    </g>
                    <g id="Сгруппировать_2129" data-name="Сгруппировать 2129" transform="translate(0)">
                        <path id="Контур_19725" data-name="Контур 19725" d="M686.638,378.912c-.3.866-46.334,99.167-46.334,99.167H628.382l51.381-105.807Z" transform="translate(-628.382 -372.272)" fill="#24272d"/>
                    </g>
                </g>
                <g id="Сгруппировать_2131" data-name="Сгруппировать 2131">
                    <ellipse id="Эллипс_1227" data-name="Эллипс 1227" cx="76.733" cy="65.688" rx="76.733" ry="65.688" transform="translate(81.279 199.755) rotate(-121.98)" fill="#24272d"/>
                </g>
                <g id="Сгруппировать_2132" data-name="Сгруппировать 2132" transform="translate(8.335 1.955)">
                    <ellipse id="Эллипс_1228" data-name="Эллипс 1228" cx="74.558" cy="61.681" rx="74.558" ry="61.681" transform="translate(76.902 191.376) rotate(-121.046)" fill="#f5f5f5"/>
                    <path id="Контур_19726" data-name="Контур 19726" d="M612.668,424.433a53.952,53.952,0,0,0,23.755-5.372c13.055-6.352,22.925-17.981,27.794-32.745,6.254-18.966,3.9-41.236-6.463-61.1-19.142-36.686-59.851-54.305-90.742-39.27-13.055,6.352-22.925,17.983-27.794,32.746-6.254,18.967-3.9,41.236,6.465,61.1l.5-.263-.5.263C560.181,407.583,587.057,424.433,612.668,424.433ZM590.781,281.71c25.193,0,51.664,16.626,65.964,44.034,10.222,19.589,12.55,41.538,6.392,60.215-4.772,14.47-14.436,25.862-27.211,32.08-30.347,14.763-70.378-2.625-89.236-38.774h0c-10.222-19.589-12.551-41.537-6.392-60.215,4.771-14.47,14.434-25.863,27.21-32.08A52.875,52.875,0,0,1,590.781,281.71Z" transform="translate(-510.42 -256.817)" fill="#24272d"/>
                </g>
                <g id="Сгруппировать_2133" data-name="Сгруппировать 2133" transform="translate(71.8 66.448)">
                    <ellipse id="Эллипс_1229" data-name="Эллипс 1229" cx="24.401" cy="18.161" rx="24.401" ry="18.161" transform="translate(24.067 60.366) rotate(-119.548)" fill="#ef4864"/>
                </g>
                <g id="Сгруппировать_2134" data-name="Сгруппировать 2134" transform="translate(57.69 51.257)">
                    <path id="Контур_19727" data-name="Контур 19727" d="M609.038,395.813a30.635,30.635,0,0,0,14.371-3.448c7.481-3.934,12.821-10.718,15.445-19.618,3.7-12.568,1.464-27.514-6.144-41.009-13.294-23.579-39.048-34.906-57.412-25.244-7.48,3.934-12.82,10.717-15.444,19.617-3.7,12.568-1.464,27.515,6.145,41.011C576.069,384.984,593.295,395.813,609.038,395.813ZM589.9,312.068c12.429,0,26.463,9.2,34.886,24.137,6.315,11.2,8.311,23.9,5.342,33.97-1.912,6.487-5.7,11.376-10.953,14.14-14.052,7.39-34.353-2.327-45.254-21.662-6.314-11.2-8.312-23.9-5.344-33.97,1.912-6.487,5.7-11.376,10.953-14.14A22.089,22.089,0,0,1,589.9,312.068Z" transform="translate(-558.105 -303.043)" fill="#ef4864"/>
                </g>
                <g id="Сгруппировать_2135" data-name="Сгруппировать 2135" transform="translate(39.453 33.302)">
                    <path id="Контур_19728" data-name="Контур 19728" d="M613.17,415.932a47.208,47.208,0,0,0,23.178-5.864c11.059-6.166,19.094-16.824,22.625-30.012,4.689-17.5,1.3-37.714-9.307-55.451-19.215-32.142-56.408-46.27-82.915-31.491-11.058,6.167-19.093,16.825-22.625,30.013-4.688,17.5-1.295,37.715,9.307,55.45C567.475,402.063,591.117,415.932,613.17,415.932ZM590.085,296.291c18.866,0,39.416,12.308,51.774,32.981,9.348,15.637,12.383,33.292,8.329,48.432-2.931,10.946-9.249,19.39-18.269,24.42-22.25,12.406-53.958-.246-70.677-28.214-9.349-15.636-12.384-33.288-8.33-48.431,2.933-10.946,9.249-19.39,18.27-24.421A38.5,38.5,0,0,1,590.085,296.291Z" transform="translate(-542.065 -287.251)" fill="#ef4864"/>
                </g>
                <g id="Сгруппировать_2138" data-name="Сгруппировать 2138" transform="translate(99.559 17.114)">
                    <g id="Сгруппировать_2136" data-name="Сгруппировать 2136" transform="translate(71.346 4.642)">
                        <path id="Контур_19729" data-name="Контур 19729" d="M531.31,289.282l2.763-8.834-2.973-3.353-9.555,1.722-12.265,15.815,2.642,3.588Z" transform="translate(-509.279 -277.095)" fill="#00a7cf"/>
                    </g>
                    <g id="Сгруппировать_2137" data-name="Сгруппировать 2137" transform="translate(0)">
                        <path id="Контур_19730" data-name="Контур 19730" d="M605.3,276.931l-97.719,78.4a1.966,1.966,0,0,1-2.894-.485h0a1.911,1.911,0,0,1,.043-2.836l97.649-78.482a2.343,2.343,0,0,1,3.307.374h0A2.17,2.17,0,0,1,605.3,276.931Z" transform="translate(-504.076 -273.012)" fill="#24272d"/>
                    </g>
                </g>
                <g id="Сгруппировать_2140" data-name="Сгруппировать 2140" transform="translate(98.841 91.39)">
                    <g id="Сгруппировать_2139" data-name="Сгруппировать 2139" transform="translate(0)">
                        <path id="Контур_19731" data-name="Контур 19731" d="M589.418,338.344a3.7,3.7,0,0,0-.888,1.917,7.008,7.008,0,0,0,.747,5.038,7.4,7.4,0,0,0,3.943,3.228,3.833,3.833,0,0,0,2.09.3c.014-.1-.788-.182-1.937-.684A7.765,7.765,0,0,1,589.79,345a7.264,7.264,0,0,1-.848-4.664C589.128,339.1,589.51,338.388,589.418,338.344Z" transform="translate(-588.353 -338.343)" fill="#263238"/>
                    </g>
                </g>
            </g>
        </g>
        <line id="Линия_74" data-name="Линия 74" x2="448" transform="translate(422.5 1279.5)" fill="none" stroke="#24272d" stroke-linecap="round" stroke-width="2"/>
    </g>
</svg>
