<svg xmlns="http://www.w3.org/2000/svg" width="35.517" height="47.359" viewBox="0 0 35.517 47.359">
    <g id="shopping-bag" transform="translate(-64.015 0)">
        <path id="Контур_18525" data-name="Контур 18525" d="M98.052,11.842h-4.44v-1.48a10.359,10.359,0,0,0-20.718,0V17.72a1.507,1.507,0,0,1-1.409,1.52,1.48,1.48,0,0,1-1.551-1.478V12.3a.463.463,0,0,0-.462-.462H65.495a1.48,1.48,0,0,0-1.48,1.48v29.6a4.44,4.44,0,0,0,4.44,4.44H95.092a4.44,4.44,0,0,0,4.44-4.44v-29.6a1.48,1.48,0,0,0-1.48-1.48ZM73.634,25.9a2.96,2.96,0,1,1,2.96,2.96A2.963,2.963,0,0,1,73.634,25.9ZM76.593,39.22a1.482,1.482,0,0,1-1.167-2.388L85.785,23.513a1.48,1.48,0,1,1,2.336,1.817L77.762,38.648A1.476,1.476,0,0,1,76.593,39.22Zm10.36,0a2.96,2.96,0,1,1,2.96-2.96A2.963,2.963,0,0,1,86.953,39.22ZM89.1,19.24a1.507,1.507,0,0,1-1.409-1.52V12.3a.463.463,0,0,0-.462-.462H75.854v-1.48a7.4,7.4,0,0,1,14.8,0v7.4A1.48,1.48,0,0,1,89.1,19.24Z" fill="#fff"/>
    </g>
</svg>
