<svg xmlns="http://www.w3.org/2000/svg" width="284" height="256.582" viewBox="0 0 284 256.582">
  <g id="Здание_с_антенной" data-name="Здание с антенной" transform="translate(-414 -2906.388)">
    <g id="Сгруппировать_456" data-name="Сгруппировать 456" transform="translate(414 2906.388)">
      <rect id="Прямоугольник_965" data-name="Прямоугольник 965" width="206.17" height="31.607" transform="translate(0 224.975)" fill="#aeaeae"/>
      <rect id="Прямоугольник_966" data-name="Прямоугольник 966" width="47.237" height="31.607" transform="translate(215.536 224.975)" fill="#aeaeae"/>
      <rect id="Прямоугольник_967" data-name="Прямоугольник 967" width="178.638" height="94.257" transform="translate(13.384 130.718)" fill="#fefefe"/>
      <rect id="Прямоугольник_968" data-name="Прямоугольник 968" width="170.961" height="24.994" transform="translate(17.577 195.246)" fill="#dfdedd"/>
      <rect id="Прямоугольник_969" data-name="Прямоугольник 969" width="178.638" height="12.951" transform="translate(13.384 117.768)" fill="#aeaeae"/>
      <path id="Контур_18072" data-name="Контур 18072" d="M-10520.53-5685.127c0-44.793-35.733-81.108-79.814-81.108s-79.813,36.315-79.813,81.108Z" transform="translate(10703.049 5802.896)" fill="#0eb8cc" fill-rule="evenodd"/>
      <path id="Контур_18073" data-name="Контур 18073" d="M-10176.318-4125.67v-16.518h-19.975v24.479h-38.382v-10.748h-45.628v19.3h135.708v-16.518Z" transform="translate(10315.029 4226.922)" fill="#01627a" fill-rule="evenodd"/>
      <path id="Контур_18074" data-name="Контур 18074" d="M-10560.246-5724.359h2.348c0-45.382-36.328-82.306-80.986-82.306s-80.99,36.924-80.99,82.306h2.352c0-37.949,26.17-69.779,61.125-77.892-22.289,10.928-42.629,41.127-42.629,77.892h2.348c0-41.153,25.975-73.844,50.855-79.144-11.648,9.816-24.811,41.535-24.811,79.144h2.352c0-44.434,17.908-77.35,28.225-79.757v79.757h2.35v-79.757c10.314,2.407,28.223,35.323,28.223,79.757h2.352c0-37.608-13.164-69.327-24.809-79.144,24.881,5.3,50.854,37.99,50.854,79.144h2.35c0-36.765-20.34-66.964-42.633-77.892C-10586.416-5794.139-10560.246-5762.309-10560.246-5724.359Z" transform="translate(10741.59 5842.128)" fill="#fefefe" fill-rule="evenodd"/>
      <rect id="Прямоугольник_970" data-name="Прямоугольник 970" width="28.939" height="107.206" transform="translate(224.684 117.769)" fill="#fefefe"/>
      <rect id="Прямоугольник_971" data-name="Прямоугольник 971" width="23.593" height="24.994" transform="translate(227.327 195.246)" fill="#dfdedd"/>
      <rect id="Прямоугольник_972" data-name="Прямоугольник 972" width="32.663" height="26.315" transform="translate(192.022 151.811)" fill="#fefefe"/>
      <rect id="Прямоугольник_973" data-name="Прямоугольник 973" width="3.951" height="26.315" transform="translate(192.022 151.811)" fill="#c4c1bf"/>
      <rect id="Прямоугольник_974" data-name="Прямоугольник 974" width="3.951" height="26.315" transform="translate(220.735 151.811)" fill="#c4c1bf"/>
      <path id="Контур_18075" data-name="Контур 18075" d="M-4673.614-1669.139h-.05a2.479,2.479,0,0,1-2.458-2.5v-2.246a2.478,2.478,0,0,1,2.458-2.5h.05a2.479,2.479,0,0,1,2.459,2.5v2.246A2.48,2.48,0,0,1-4673.614-1669.139Z" transform="translate(4876.74 1834.109)" fill="#0eb8cc" fill-rule="evenodd"/>
      <path id="Контур_18076" data-name="Контур 18076" d="M-5578.328-2195.884h-.05a2.479,2.479,0,0,1-2.459-2.5v-2.245a2.481,2.481,0,0,1,2.459-2.5h.05a2.479,2.479,0,0,1,2.458,2.5v2.245A2.477,2.477,0,0,1-5578.328-2195.884Z" transform="translate(5754.674 2345.258)" fill="#0eb8cc" fill-rule="evenodd"/>
      <path id="Контур_18077" data-name="Контур 18077" d="M-6541.389-2195.884h-.051a2.479,2.479,0,0,1-2.459-2.5v-2.245a2.48,2.48,0,0,1,2.459-2.5h.051a2.479,2.479,0,0,1,2.457,2.5v2.245A2.477,2.477,0,0,1-6541.389-2195.884Z" transform="translate(6689.228 2345.258)" fill="#0eb8cc" fill-rule="evenodd"/>
      <path id="Контур_18079" data-name="Контур 18079" d="M-5578.328-1791.426h-.05a2.48,2.48,0,0,1-2.459-2.5v-2.248a2.479,2.479,0,0,1,2.459-2.5h.05a2.477,2.477,0,0,1,2.458,2.5v2.248A2.477,2.477,0,0,1-5578.328-1791.426Z" transform="translate(5754.674 1957.734)" fill="#0eb8cc" fill-rule="evenodd"/>
      <path id="Контур_18128" data-name="Контур 18128" d="M-5578.328-1791.426h-.05a2.48,2.48,0,0,1-2.459-2.5v-2.248a2.479,2.479,0,0,1,2.459-2.5h.05a2.477,2.477,0,0,1,2.458,2.5v2.248A2.477,2.477,0,0,1-5578.328-1791.426Z" transform="translate(5754.674 1974.741)" fill="#0eb8cc" fill-rule="evenodd"/>
      <path id="Контур_18080" data-name="Контур 18080" d="M-3455.942-2518.318h-.051a2.48,2.48,0,0,1-2.459-2.5v-2.243a2.479,2.479,0,0,1,2.459-2.5h.051a2.478,2.478,0,0,1,2.458,2.5v2.243A2.479,2.479,0,0,1-3455.942-2518.318Z" transform="translate(3695.114 2658.148)" fill="#0eb8cc" fill-rule="evenodd"/>
      <path id="Контур_18081" data-name="Контур 18081" d="M-6541.389-1791.426h-.051a2.479,2.479,0,0,1-2.459-2.5v-2.248a2.479,2.479,0,0,1,2.459-2.5h.051a2.477,2.477,0,0,1,2.457,2.5v2.248A2.477,2.477,0,0,1-6541.389-1791.426Z" transform="translate(6689.228 1957.734)" fill="#0eb8cc" fill-rule="evenodd"/>
      <path id="Контур_18127" data-name="Контур 18127" d="M-6541.389-1791.426h-.051a2.479,2.479,0,0,1-2.459-2.5v-2.248a2.479,2.479,0,0,1,2.459-2.5h.051a2.477,2.477,0,0,1,2.457,2.5v2.248A2.477,2.477,0,0,1-6541.389-1791.426Z" transform="translate(6689.228 1974.741)" fill="#0eb8cc" fill-rule="evenodd"/>
      <path id="Контур_18082" data-name="Контур 18082" d="M-7504.451-1791.426h-.05a2.48,2.48,0,0,1-2.459-2.5v-2.248a2.479,2.479,0,0,1,2.459-2.5h.05a2.478,2.478,0,0,1,2.458,2.5v2.248A2.478,2.478,0,0,1-7504.451-1791.426Z" transform="translate(7623.781 1957.734)" fill="#0eb8cc" fill-rule="evenodd"/>
      <path id="Контур_18126" data-name="Контур 18126" d="M-7504.451-1791.426h-.05a2.48,2.48,0,0,1-2.459-2.5v-2.248a2.479,2.479,0,0,1,2.459-2.5h.05a2.478,2.478,0,0,1,2.458,2.5v2.248A2.478,2.478,0,0,1-7504.451-1791.426Z" transform="translate(7623.781 1974.741)" fill="#0eb8cc" fill-rule="evenodd"/>
      <path id="Контур_18122" data-name="Контур 18122" d="M-7504.451-1791.426h-.05a2.48,2.48,0,0,1-2.459-2.5v-2.248a2.479,2.479,0,0,1,2.459-2.5h.05a2.478,2.478,0,0,1,2.458,2.5v2.248A2.478,2.478,0,0,1-7504.451-1791.426Z" transform="translate(7623.781 1940.727)" fill="#0eb8cc" fill-rule="evenodd"/>
      <path id="Контур_18083" data-name="Контур 18083" d="M-8431.007-1039.713h-.049a2.479,2.479,0,0,1-2.459-2.5v-2.245a2.478,2.478,0,0,1,2.459-2.5h.049a2.478,2.478,0,0,1,2.459,2.5v2.245A2.479,2.479,0,0,1-8431.007-1039.713Z" transform="translate(8522.908 1223.312)" fill="#0eb8cc" fill-rule="evenodd"/>
      <path id="Контур_18121" data-name="Контур 18121" d="M-8431.007-1039.713h-.049a2.479,2.479,0,0,1-2.459-2.5v-2.245a2.478,2.478,0,0,1,2.459-2.5h.049a2.478,2.478,0,0,1,2.459,2.5v2.245A2.479,2.479,0,0,1-8431.007-1039.713Z" transform="translate(8522.908 1206.305)" fill="#0eb8cc" fill-rule="evenodd"/>
      <path id="Контур_18125" data-name="Контур 18125" d="M-8431.007-1039.713h-.049a2.479,2.479,0,0,1-2.459-2.5v-2.245a2.478,2.478,0,0,1,2.459-2.5h.049a2.478,2.478,0,0,1,2.459,2.5v2.245A2.479,2.479,0,0,1-8431.007-1039.713Z" transform="translate(8522.908 1189.297)" fill="#0eb8cc" fill-rule="evenodd"/>
      <path id="Контур_18084" data-name="Контур 18084" d="M-9394.065-1039.713h-.049a2.48,2.48,0,0,1-2.46-2.5v-2.245a2.479,2.479,0,0,1,2.46-2.5h.049a2.479,2.479,0,0,1,2.459,2.5v2.245A2.48,2.48,0,0,1-9394.065-1039.713Z" transform="translate(9457.461 1223.312)" fill="#0eb8cc" fill-rule="evenodd"/>
      <path id="Контур_18120" data-name="Контур 18120" d="M-9394.065-1039.713h-.049a2.48,2.48,0,0,1-2.46-2.5v-2.245a2.479,2.479,0,0,1,2.46-2.5h.049a2.479,2.479,0,0,1,2.459,2.5v2.245A2.48,2.48,0,0,1-9394.065-1039.713Z" transform="translate(9457.461 1206.305)" fill="#0eb8cc" fill-rule="evenodd"/>
      <path id="Контур_18124" data-name="Контур 18124" d="M-9394.065-1039.713h-.049a2.48,2.48,0,0,1-2.46-2.5v-2.245a2.479,2.479,0,0,1,2.46-2.5h.049a2.479,2.479,0,0,1,2.459,2.5v2.245A2.48,2.48,0,0,1-9394.065-1039.713Z" transform="translate(9457.461 1189.297)" fill="#0eb8cc" fill-rule="evenodd"/>
      <path id="Контур_18085" data-name="Контур 18085" d="M-10357.129-1039.713h-.051a2.481,2.481,0,0,1-2.459-2.5v-2.245a2.479,2.479,0,0,1,2.459-2.5h.051a2.477,2.477,0,0,1,2.459,2.5v2.245A2.478,2.478,0,0,1-10357.129-1039.713Z" transform="translate(10392.017 1223.312)" fill="#0eb8cc" fill-rule="evenodd"/>
      <path id="Контур_18119" data-name="Контур 18119" d="M-10357.129-1039.713h-.051a2.481,2.481,0,0,1-2.459-2.5v-2.245a2.479,2.479,0,0,1,2.459-2.5h.051a2.477,2.477,0,0,1,2.459,2.5v2.245A2.478,2.478,0,0,1-10357.129-1039.713Z" transform="translate(10392.017 1206.305)" fill="#0eb8cc" fill-rule="evenodd"/>
      <path id="Контур_18123" data-name="Контур 18123" d="M-10357.129-1039.713h-.051a2.481,2.481,0,0,1-2.459-2.5v-2.245a2.479,2.479,0,0,1,2.459-2.5h.051a2.477,2.477,0,0,1,2.459,2.5v2.245A2.478,2.478,0,0,1-10357.129-1039.713Z" transform="translate(10392.017 1189.297)" fill="#0eb8cc" fill-rule="evenodd"/>
      <path id="Контур_18086" data-name="Контур 18086" d="M-4315.212-1669.139h-.05a2.479,2.479,0,0,1-2.458-2.5v-2.246a2.478,2.478,0,0,1,2.458-2.5h.05a2.479,2.479,0,0,1,2.459,2.5v2.246A2.48,2.48,0,0,1-4315.212-1669.139Z" transform="translate(4528.947 1834.109)" fill="#0eb8cc" fill-rule="evenodd"/>
      <rect id="Прямоугольник_975" data-name="Прямоугольник 975" width="32.663" height="3.704" transform="translate(192.022 178.125)" fill="#6b6967"/>
      <path id="Контур_18087" data-name="Контур 18087" d="M-3545.2-4033.608l-3.029-4.66,9.233-6.257,3.031,4.66Z" transform="translate(3782.238 4132.15)" fill="#6b6967" fill-rule="evenodd"/>
      <path id="Контур_18088" data-name="Контур 18088" d="M-3316.33-5101.114c-3.2,1.669-26.844-.823-33.818-14.646s4.831-34.786,8.034-36.454Z" transform="translate(3592.12 5207.05)" fill="#fefefe" fill-rule="evenodd"/>
      <path id="Контур_18089" data-name="Контур 18089" d="M-3029.905-5135.623c7.122,14.111,10.3,26.906,7.1,28.573s-11.571-8.42-18.691-22.53-10.3-26.9-7.094-28.57S-3037.025-5149.734-3029.905-5135.623Z" transform="translate(3298.599 5212.986)" fill="#aeaeae" fill-rule="evenodd"/>
      <path id="Контур_18090" data-name="Контур 18090" d="M-2771.9-4612.48l-22.394,12.814-1.611-3.192,23.307-11Z" transform="translate(3052.178 4684.632)" fill="#6b6967" fill-rule="evenodd"/>
      <path id="Контур_18091" data-name="Контур 18091" d="M-2548.267-4555.615l-15.543,23.97-2.108-3.117,16.626-21.432Z" transform="translate(2829 4628.673)" fill="#6b6967" fill-rule="evenodd"/>
      <path id="Контур_18092" data-name="Контур 18092" d="M-2948.572-4681.867l-28.2-1.139,1.237,3.51,26.8-1.169Z" transform="translate(3227.696 4751.731)" fill="#6b6967" fill-rule="evenodd"/>
      <path id="Контур_18093" data-name="Контур 18093" d="M-2024.94-4703.332a2.58,2.58,0,0,1-1.251,3.952,2.5,2.5,0,0,1-2.813-.921,2.579,2.579,0,0,1,1.251-3.951A2.511,2.511,0,0,1-2024.94-4703.332Z" transform="translate(2308.452 4772.47)" fill="#fefefe" fill-rule="evenodd"/>
      <path id="Контур_18094" data-name="Контур 18094" d="M-3834.134-3425.155h-28.922l3.734-12.171h21.753Z" transform="translate(4087.74 3542.924)" fill="#fefefe" fill-rule="evenodd"/>
      <path id="Контур_18095" data-name="Контур 18095" d="M-3757.422-3370.243H-3773.8l2.675-8.718h11.238Z" transform="translate(4001.125 3486.288)" fill="#dfdedd" fill-rule="evenodd"/>
      <rect id="Прямоугольник_976" data-name="Прямоугольник 976" width="10.621" height="6.244" transform="translate(230.256 99.355)" fill="#aca8a7"/>
      <path id="Контур_18096" data-name="Контур 18096" d="M-3617.51-3859.085h-.073a3.661,3.661,0,0,0-3.633,3.691v2.55h7.341v-2.55A3.661,3.661,0,0,0-3617.51-3859.085Z" transform="translate(3853.061 3952.199)" fill="#fefefe" fill-rule="evenodd"/>
      <path id="Контур_18097" data-name="Контур 18097" d="M-3532.644-3790.021a1.208,1.208,0,0,1-1.2,1.22,1.209,1.209,0,0,1-1.2-1.22,1.208,1.208,0,0,1,1.2-1.217A1.207,1.207,0,0,1-3532.644-3790.021Z" transform="translate(3769.434 3886.36)" fill="#6b6967" fill-rule="evenodd"/>
      <rect id="Прямоугольник_977" data-name="Прямоугольник 977" width="28.939" height="6.476" transform="translate(224.684 117.768)" fill="#dfdedd"/>
      <rect id="Прямоугольник_978" data-name="Прямоугольник 978" width="1.769" height="35.463" transform="translate(101.82)" fill="#6b6967"/>
      <rect id="Прямоугольник_979" data-name="Прямоугольник 979" width="38.832" height="25.942" transform="translate(103.588 0.415)" fill="#0eb8cc"/>
      <path id="Контур_18098" data-name="Контур 18098" d="M-7616.553-6678.666l.021,0h.012l-.009,0-.018-.019-.016-.013-.008,0v0l-.01.017h0l0,0Z" transform="translate(7730.159 6688.351)" fill="#1f9ecb" fill-rule="evenodd"/>
      <path id="Контур_18099" data-name="Контур 18099" d="M-7459.094-6793.1l.013-.014,0-.008.035-.017.052-.011.005-.01,0,0h0l-.022.014-.017-.01v0l0,0-.01.007-.011.006-.025.011-.048.024,0,0,.018.006Z" transform="translate(7577.36 6799.429)" fill="#1f9ecb" fill-rule="evenodd"/>
      <path id="Контур_18100" data-name="Контур 18100" d="M-7471.241-6860.207l.011,0h-.014l0,0-.016.008-.006,0,0,0h0Z" transform="translate(7589.149 6864.492)" fill="#1f9ecb" fill-rule="evenodd"/>
      <path id="Контур_18101" data-name="Контур 18101" d="M-7334.1-6912.637v0l.007,0v-.015l-.046.008.025.007Z" transform="translate(7456.08 6915.383)" fill="#1f9ecb" fill-rule="evenodd"/>
      <path id="Контур_18102" data-name="Контур 18102" d="M-7361.209-6908.754l.064-.007-.026,0h0l-.048.008,0,0Z" transform="translate(7482.357 6911.604)" fill="#1f9ecb" fill-rule="evenodd"/>
      <path id="Контур_18103" data-name="Контур 18103" d="M-7352.489-6910.311l.029.006.024,0h.025l.028.01.024.007.033.008.013,0-.022-.024-.039-.007-.044,0-.011,0-.027-.012-.015-.006-.042.006.013.009Z" transform="translate(7473.905 6913.122)" fill="#1f9ecb" fill-rule="evenodd"/>
      <path id="Контур_18104" data-name="Контур 18104" d="M-7475.342-6837.988l0,0-.015.02,0,0h.024l.01,0h0l.009-.011-.022-.009Z" transform="translate(7593.12 6842.923)" fill="#1f9ecb" fill-rule="evenodd"/>
      <path id="Контур_18105" data-name="Контур 18105" d="M-7554.339-6581.568v.018l.005.018.014.013.011,0h.01l.044-.04v-.056l0-.013-.012-.034v0l-.016-.024-.011-.018h0l-.014-.027v0l0,.01-.006.021-.006.007-.022.024-.009.012-.015.037.012.018Z" transform="translate(7669.79 6594.258)" fill="#1f9ecb" fill-rule="evenodd"/>
      <path id="Контур_18106" data-name="Контур 18106" d="M-7328.655-6913.015h0v-.007l-.02,0,.015,0Z" transform="translate(7450.774 6915.736)" fill="#1f9ecb" fill-rule="evenodd"/>
      <path id="Контур_18107" data-name="Контур 18107" d="M-7612.732-6588.732l0,.038-.007.006.027-.006.026.006.061.011v-.015l-.013-.02-.032-.043-.024-.018-.024-.014-.01-.006-.008,0-.011.01-.005,0,0,0Z" transform="translate(7726.441 6601.104)" fill="#1f9ecb" fill-rule="evenodd"/>
      <path id="Контур_18108" data-name="Контур 18108" d="M-7316.482-6913.941v0l-.029.025-.02.007h-.019l-.044.013.013,0,.014,0,.04-.014.046-.011.014,0,.025-.021.019-.021h-.076Z" transform="translate(7439.049 6916.64)" fill="#1f9ecb" fill-rule="evenodd"/>
      <path id="Контур_18109" data-name="Контур 18109" d="M-7525.014-6309.091l0-.042-.013-.016,0,.01,0,.006.013.028Z" transform="translate(7641.319 6329.738)" fill="#1f9ecb" fill-rule="evenodd"/>
      <path id="Контур_18110" data-name="Контур 18110" d="M-7523.219-6303.366l0-.024v0l-.011.008h0Z" transform="translate(7639.572 6324.153)" fill="#1f9ecb" fill-rule="evenodd"/>
      <path id="Контур_18111" data-name="Контур 18111" d="M-7524.637-6306.6v0l0-.018.01.056.014.029v-.014l-.007-.021-.007-.011Z" transform="translate(7640.938 6327.284)" fill="#1f9ecb" fill-rule="evenodd"/>
      <path id="Контур_18112" data-name="Контур 18112" d="M-7506.306-6845.606l0,0,0,0Z" transform="translate(7623.146 6850.318)" fill="#24627b" fill-rule="evenodd"/>
      <path id="Контур_18113" data-name="Контур 18113" d="M-7519.908-6843.849l.025-.019.028-.017.054-.024.02-.011.04-.035v0l.018-.017.012,0,0,0,0,.008.031.024.007.006-.01.011-.006.01,0,.012,0,0h.008l.02,0h.024l.024,0,.018.01.051.015,0,0,.045-.014.025-.011.027-.011.005,0,0-.02v-.008l-.013-.018-.015-.01-.01-.012-.014-.006-.029.01-.02.008h-.014l-.01,0,0,0h0l.021-.018.011-.011.011-.021-.017-.01-.014-.014,0-.018-.017-.021-.008,0h-.015l-.008,0-.017-.011,0-.008h0l-.35.274Z" transform="translate(7636.396 6848.864)" fill="#24627b" fill-rule="evenodd"/>
      <path id="Контур_18114" data-name="Контур 18114" d="M-7479.2-6864.709l.018,0,.032-.021v0l0-.01-.053.032Z" transform="translate(7596.838 6868.884)" fill="#24627b" fill-rule="evenodd"/>
      <path id="Контур_18115" data-name="Контур 18115" d="M-7481.189-6862.734l.008,0v-.005l-.013.005Z" transform="translate(7598.776 6866.946)" fill="#24627b" fill-rule="evenodd"/>
      <path id="Контур_18116" data-name="Контур 18116" d="M-7499.811-6851.068l.03-.021v-.01l-.041.03Z" transform="translate(7616.855 6855.646)" fill="#24627b" fill-rule="evenodd"/>
      <path id="Контур_18117" data-name="Контур 18117" d="M-7497.985-6854.35l.013-.006.022-.017.018-.014.016-.036,0,0-.133.089Z" transform="translate(7615.138 6858.874)" fill="#24627b" fill-rule="evenodd"/>
      <path id="Контур_18118" data-name="Контур 18118" d="M-6958.575-6640.654l-.034.019-.022-.008-.02-.011-.032.014.005.024.025.014.027.021.028.028.025.026.049.046.015.015-.044-.2Z" transform="translate(7091.733 6651.443)" fill="#24627b" fill-rule="evenodd"/>
    </g>
    <g id="Сгруппировать_457" data-name="Сгруппировать 457" transform="translate(524.385 2912.855)">
      <text id="CORP." transform="translate(23.711 13.808) rotate(-90)" fill="#fff" font-size="3" font-family="SegoeUI-Bold, Segoe UI" font-weight="700" letter-spacing="-0.01em"><tspan x="0" y="0">CORP.</tspan></text>
      <g id="Сгруппировать_312" data-name="Сгруппировать 312" transform="translate(0)">
        <path id="Контур_1" data-name="Контур 1" d="M3.4,3.084l2.944,0V9.155a2.208,2.208,0,0,1-.432,1.4,1.736,1.736,0,0,1-1.4.475A3.32,3.32,0,0,1,2.085,9.645c-.491.538-1.51,1.667-2.065,2.277a6.6,6.6,0,0,0,1.293,1.234,6.649,6.649,0,0,0,5.583.688,4.2,4.2,0,0,0,2.213-1.561,5.184,5.184,0,0,0,.862-2.913L9.956,0,4.965,0,3.4,3.084Z" transform="translate(-0.02 0)" fill="#fafafa" fill-rule="evenodd"/>
        <path id="Контур_2" data-name="Контур 2" d="M603.365,5.709a3.837,3.837,0,0,0,.944,2.663c1.4,1.495,3.392,1.616,5.014,2.589.4.241.764.691.5,1.172-.5.9-2.665.36-3.408.05a5.719,5.719,0,0,1-1.349-.8c-.278.272-1.763,1.927-2.236,2.45a8.446,8.446,0,0,0,5.341,1.895,6.43,6.43,0,0,0,4.336-1.635,3.794,3.794,0,0,0,.417-4.9c-1.416-1.862-5.2-2.237-5.8-3.23-.329-.539.175-1.265,1.111-1.328a6.2,6.2,0,0,1,3.005.955c.29-.316,1.571-1.716,1.981-2.168a6.272,6.272,0,0,0-4.43-1.8c-2.5.028-5.227,1.332-5.421,4.089Z" transform="translate(-592.92 -1.593)" fill="#fafafa" fill-rule="evenodd"/>
      </g>
    </g>
  </g>
</svg>
