<svg xmlns="http://www.w3.org/2000/svg" width="211.789" height="265.045" viewBox="0 0 211.789 265.045">
  <g id="Сгруппировать_355" data-name="Сгруппировать 355" transform="translate(-245.594 -181.678)">
    <path id="Контур_1659" data-name="Контур 1659" d="M290.456,241.158c-.473-.386-11.589-9.653-12.834-24.092-1.264-14.648,7.027-18.569,7.38-18.729l.611,1.347c-.315.144-7.686,3.711-6.518,17.254,1.189,13.8,12.187,22.986,12.3,23.077Z" transform="translate(30.994 16.187)" fill="#3e2d4a"/>
    <path id="Контур_1660" data-name="Контур 1660" d="M315.1,236.367l-.856-1.2c.108-.079,11.075-8.023,12.26-19.938,1.161-11.712-6.406-14.819-6.483-14.849l.54-1.378c.087.033,8.685,3.561,7.414,16.375C326.724,227.966,315.576,236.03,315.1,236.367Z" transform="translate(66.707 16.829)" fill="#3e2d4a"/>
    <path id="Контур_1661" data-name="Контур 1661" d="M289,259.975s-22.881-43.448.317-48.969c0,0-4.647-19.47,11.463-20.7s25.151,10.844,40.015-8.626c0,0,6.223,4.909,1.232,9.858a38.227,38.227,0,0,0,4.929-3.943c2.957-2.711,3.37,9.208,0,13.555,0,0,5.223-7.64,5.57-5.669s2.81,8.38-2.81,15.219c0,0,7.483,4.245,9.013,11.361,2.522,11.731-8.482,37.915-8.482,37.915Z" transform="translate(32.388)" fill="#3e2d4a"/>
    <path id="Контур_1662" data-name="Контур 1662" d="M344.962,207.524s7.2,72.225-29.822,72.2c-25.466-.014-36-46.336-28.654-66.453S330.273,191.131,344.962,207.524Z" transform="translate(37.51 14.454)" fill="#e7bd9f"/>
    <path id="Контур_1663" data-name="Контур 1663" d="M349.9,227.027s-5.349,50.579,3.224,58.127,43.27-3.916,52.5,10.629,6.471,122.546,6.471,122.546H265.763s2.472-124.417,10.067-129.857,39.558,6.27,41.417-15.069c.889-10.213-3.523-62.5-3.523-62.5Z" transform="translate(19.598 28.393)" fill="#e7bd9f"/>
    <ellipse id="Эллипс_74" data-name="Эллипс 74" cx="2.256" cy="2.91" rx="2.256" ry="2.91" transform="translate(338.614 250.953)" fill="#24272d"/>
    <ellipse id="Эллипс_75" data-name="Эллипс 75" cx="2.256" cy="2.91" rx="2.256" ry="2.91" transform="translate(362.174 250.953)" fill="#24272d"/>
    <path id="Контур_1664" data-name="Контур 1664" d="M292.158,224.1s-4.16-12.337-9.63-6.982.55,20.168,5.789,20.115S294.617,229.141,292.158,224.1Z" transform="translate(33.787 33.131)" fill="#e7bd9f"/>
    <path id="Контур_1665" data-name="Контур 1665" d="M314.056,223.84s4.221-12.315,9.665-6.932-.653,20.166-5.891,20.085S311.572,228.866,314.056,223.84Z" transform="translate(65.269 32.909)" fill="#e7bd9f"/>
    <path id="Контур_1666" data-name="Контур 1666" d="M291.875,235.04s15.655,16.46,31.02,1.81l.412,9.326s-3.655,7.579-13.821,8.244-17.611-9.224-17.611-9.224Z" transform="translate(44.97 51.851)" fill="#24272d" opacity="0.5"/>
    <path id="Контур_1667" data-name="Контур 1667" d="M304.983,214s4.01-3.906,9.691.284C317.988,216.732,300.354,218.091,304.983,214Z" transform="translate(56.95 29.802)" fill="#3e2d4a"/>
    <path id="Контур_1668" data-name="Контур 1668" d="M300.12,214s-4.012-3.906-9.691.284C287.115,216.732,304.749,218.091,300.12,214Z" transform="translate(43.159 29.802)" fill="#3e2d4a"/>
    <path id="Контур_1669" data-name="Контур 1669" d="M322.525,249.455s5.458,24.384,29.258,29.835,29.135-29.467,29.135-29.467,51.049-1.895,60.578,16.138,13.147,115.193,13.147,115.193H247.773s7.741-100.887,14.661-114.685C272.953,245.5,322.525,249.455,322.525,249.455Z" transform="translate(2.117 65.568)" fill="#f4f2e9"/>
    <path id="Контур_1670" data-name="Контур 1670" d="M286.6,229.983c-.343-8.413-2-9.941-2.7-10.207-.795-.3-1.644.532-1.652.54l-1.061-1.031a3.272,3.272,0,0,1,3.24-.891c2.173.83,3.366,4.6,3.648,11.528Z" transform="translate(34.584 35.515)" fill="#24272d"/>
    <path id="Контур_1671" data-name="Контур 1671" d="M315.933,229.983l-1.477-.061c.284-6.927,1.477-10.7,3.65-11.528a3.272,3.272,0,0,1,3.239.891l-1.059,1.033c-.01-.008-.862-.856-1.66-.54C317.93,220.048,316.278,221.583,315.933,229.983Z" transform="translate(66.912 35.515)" fill="#24272d"/>
    <path id="Контур_1672" data-name="Контур 1672" d="M288.8,204.05s2.218,50.071,11.584,55.842c8.766,5.4,4.442-7.126,16.915-8.317s7.983,9.153,16.6,9.413,10.13-49.1,10.931-60.99l4.9,2.965s1.171,74.143-26.257,79.054c-27.034,4.842-41.117-49.95-42.02-71.067C281.455,210.951,284.428,209.734,288.8,204.05Z" transform="translate(34.845 17.801)" fill="#3e2d4a"/>
    <path id="Контур_1673" data-name="Контур 1673" d="M304.033,236.622c-1.7,0-5.629-2.575-7.325-3.744l.769-1.118c2.405,1.658,5.373,3.364,6.337,3.508.5-1.587.314-10.13-.179-17.871l1.353-.087c1.2,18.749-.036,19.1-.629,19.271A1.184,1.184,0,0,1,304.033,236.622Z" transform="translate(49.666 34.622)" fill="#24272d"/>
    <path id="Контур_1674" data-name="Контур 1674" d="M302.943,233.219c-3.372,0-6.307-3.364-6.44-3.517l1.029-.885c.028.035,2.995,3.484,5.984,3,1.633-.268,3.007-1.737,4.079-4.367l1.258.515c-1.268,3.1-2.991,4.844-5.122,5.191A4.675,4.675,0,0,1,302.943,233.219Z" transform="translate(49.467 44.474)" fill="#24272d"/>
    <path id="Контур_1675" data-name="Контур 1675" d="M315.65,249.193V381.4H245.594s.591-99.455,17.361-117.642S315.65,249.193,315.65,249.193Z" transform="translate(0 65.319)" fill="#190e21"/>
    <path id="Контур_1676" data-name="Контур 1676" d="M319.593,249.121V381.332H385.21s3.206-98.568-12.5-116.755S319.593,249.121,319.593,249.121Z" transform="translate(71.903 65.391)" fill="#190e21"/>
    <path id="Контур_1677" data-name="Контур 1677" d="M290.235,226.35s-2.441-12.009,6.305-17.714c9.829-6.408,11.542,6.9,22.284,6.408s18.717-23.66,25.348,9.551c0,0,9.655,2.8,5.905-11.495s-4.88-27.465-43.708-16.621S283.19,225.577,290.235,226.35Z" transform="translate(34.5 10.504)" fill="#3e2d4a"/>
    <path id="Контур_1678" data-name="Контур 1678" d="M302.234,264.44H321.8l-6.047,17.72L331.192,366.3H288.913l17.921-84.145Z" transform="translate(42.092 80.418)" fill="#190e21"/>
    <path id="Контур_1679" data-name="Контур 1679" d="M296.3,249.049V381.26s-29.218-43.97-29.711-47.421,15.235-21.688,15.235-21.688-17.7-16.266-16.221-21.2S296.3,249.049,296.3,249.049Z" transform="translate(19.353 65.463)" fill="#35283e"/>
    <path id="Контур_1680" data-name="Контур 1680" d="M319.4,249.049V381.26s29.216-43.97,29.709-47.421-15.233-21.688-15.233-21.688,17.7-16.266,16.219-21.2S319.4,249.049,319.4,249.049Z" transform="translate(71.718 65.463)" fill="#35283e"/>
    <rect id="Прямоугольник_239" data-name="Прямоугольник 239" width="1.479" height="65.999" transform="translate(273.862 380.723)" fill="#555071"/>
    <rect id="Прямоугольник_240" data-name="Прямоугольник 240" width="1.479" height="65.999" transform="translate(425.682 380.723)" fill="#555071"/>
    <path id="Контур_1681" data-name="Контур 1681" d="M318.416,247.763l-18.228,32.882s19.656,11.56,24.585,13.039c3.51,1.053,6.757-28.639,6.757-41.5C331.53,249.747,318.416,247.763,318.416,247.763Z" transform="translate(53.048 64.213)" fill="#fff"/>
    <path id="Контур_1682" data-name="Контур 1682" d="M294.564,247.763l20.7,32.882s-19.656,11.56-24.585,13.039c-3.51,1.053-6.757-28.639-6.757-41.5C283.927,249.747,294.564,247.763,294.564,247.763Z" transform="translate(37.247 64.213)" fill="#fff"/>
    <path id="Контур_1683" data-name="Контур 1683" d="M283.972,207.946c-.039-.353-.911-8.707,4.174-14.864,3-3.64,7.445-5.714,13.2-6.165a34.757,34.757,0,0,1,15.328,2.07c5.5,1.83,8.817,2.94,18.822-5.594l.958,1.126c-10.635,9.074-14.46,7.8-20.249,5.87a33.372,33.372,0,0,0-14.744-2c-5.337.418-9.433,2.313-12.171,5.631-4.691,5.68-3.855,13.678-3.847,13.758Z" transform="translate(37.213 1.666)" fill="#3e2d4a"/>
  </g>
</svg>
