<svg xmlns="http://www.w3.org/2000/svg" width="38.412" height="38.412" viewBox="0 0 38.412 38.412">
  <g id="chip" transform="translate(0)">
    <path id="Контур_18441" data-name="Контур 18441" d="M102.633,81.824H85A3.174,3.174,0,0,0,81.824,85v17.635A3.174,3.174,0,0,0,85,105.807h17.634a3.174,3.174,0,0,0,3.174-3.174V85A3.174,3.174,0,0,0,102.633,81.824Zm.529,19.045a2.292,2.292,0,0,1-2.292,2.292H86.762a2.292,2.292,0,0,1-2.292-2.292V86.762a2.292,2.292,0,0,1,2.292-2.292h14.108a2.292,2.292,0,0,1,2.292,2.292Zm0,0" transform="translate(-74.609 -74.61)" fill="#fff"/>
    <path id="Контур_18442" data-name="Контур 18442" d="M193.734,190.42h1.94l-.97-3.327Zm0,0" transform="translate(-176.652 -170.597)" fill="#fff"/>
    <path id="Контур_18443" data-name="Контур 18443" d="M139.166,123.824H125.058a1.234,1.234,0,0,0-1.234,1.234v14.108a1.234,1.234,0,0,0,1.234,1.234h14.108a1.235,1.235,0,0,0,1.234-1.234V125.058A1.234,1.234,0,0,0,139.166,123.824Zm-6.259,11.336c-.165,0-.3-.037-.349-.193l-.4-1.356h-2.4l-.4,1.356c-.049.155-.184.2-.359.2-.281,0-.64-.18-.64-.432a.294.294,0,0,1,.01-.09l1.93-6.286a.647.647,0,0,1,.65-.35.662.662,0,0,1,.66.349l1.92,6.285a.273.273,0,0,1,.02.087C133.557,134.976,133.2,135.16,132.907,135.16Zm2.467-.34c0,.223-.267.34-.529.34s-.529-.116-.529-.34V128.4c0-.232.277-.33.529-.33s.529.1.529.33Zm0,0" transform="translate(-112.906 -112.906)" fill="#fff"/>
    <path id="Контур_18444" data-name="Контур 18444" d="M234.353,373.645a.529.529,0,0,0-.529.529v4.409a.529.529,0,1,0,1.058,0v-4.409A.529.529,0,0,0,234.353,373.645Zm0,0" transform="translate(-213.207 -340.7)" fill="#fff"/>
    <path id="Контур_18445" data-name="Контур 18445" d="M190.353,373.645a.529.529,0,0,0-.529.529v4.409a.529.529,0,1,0,1.058,0v-4.409A.529.529,0,0,0,190.353,373.645Zm0,0" transform="translate(-173.087 -340.7)" fill="#fff"/>
    <path id="Контур_18446" data-name="Контур 18446" d="M147.353,373.645a.529.529,0,0,0-.529.529v4.409a.529.529,0,1,0,1.058,0v-4.409A.529.529,0,0,0,147.353,373.645Zm0,0" transform="translate(-133.878 -340.7)" fill="#fff"/>
    <path id="Контур_18447" data-name="Контур 18447" d="M277.353,373.645a.529.529,0,0,0-.529.529v4.409a.529.529,0,1,0,1.058,0v-4.409A.529.529,0,0,0,277.353,373.645Zm0,0" transform="translate(-252.416 -340.7)" fill="#fff"/>
    <path id="Контур_18448" data-name="Контур 18448" d="M189.824.529V4.938a.529.529,0,0,0,1.058,0V.529a.529.529,0,0,0-1.058,0Zm0,0" transform="translate(-173.087 0)" fill="#fff"/>
    <path id="Контур_18449" data-name="Контур 18449" d="M233.824.529V4.938a.529.529,0,0,0,1.058,0V.529a.529.529,0,0,0-1.058,0Zm0,0" transform="translate(-213.207 0)" fill="#fff"/>
    <path id="Контур_18450" data-name="Контур 18450" d="M277.353,5.467a.529.529,0,0,0,.529-.529V.529a.529.529,0,0,0-1.058,0V4.938A.529.529,0,0,0,277.353,5.467Zm0,0" transform="translate(-252.416 0)" fill="#fff"/>
    <path id="Контур_18451" data-name="Контур 18451" d="M146.824.529V4.938a.529.529,0,1,0,1.058,0V.529a.529.529,0,1,0-1.058,0Zm0,0" transform="translate(-133.878 0)" fill="#fff"/>
    <path id="Контур_18452" data-name="Контур 18452" d="M378.583,189.824h-4.409a.529.529,0,0,0,0,1.058h4.409a.529.529,0,1,0,0-1.058Zm0,0" transform="translate(-340.7 -173.087)" fill="#fff"/>
    <path id="Контур_18453" data-name="Контур 18453" d="M378.583,233.824h-4.409a.529.529,0,0,0,0,1.058h4.409a.529.529,0,1,0,0-1.058Zm0,0" transform="translate(-340.7 -213.207)" fill="#fff"/>
    <path id="Контур_18454" data-name="Контур 18454" d="M378.583,276.824h-4.409a.529.529,0,0,0,0,1.058h4.409a.529.529,0,1,0,0-1.058Zm0,0" transform="translate(-340.7 -252.416)" fill="#fff"/>
    <path id="Контур_18455" data-name="Контур 18455" d="M378.583,146.824h-4.409a.529.529,0,0,0,0,1.058h4.409a.529.529,0,1,0,0-1.058Zm0,0" transform="translate(-340.7 -133.878)" fill="#fff"/>
    <path id="Контур_18456" data-name="Контур 18456" d="M4.938,233.824H.529a.529.529,0,0,0,0,1.058H4.938a.529.529,0,0,0,0-1.058Zm0,0" transform="translate(0 -213.207)" fill="#fff"/>
    <path id="Контур_18457" data-name="Контур 18457" d="M4.938,189.824H.529a.529.529,0,0,0,0,1.058H4.938a.529.529,0,0,0,0-1.058Zm0,0" transform="translate(0 -173.087)" fill="#fff"/>
    <path id="Контур_18458" data-name="Контур 18458" d="M4.938,146.824H.529a.529.529,0,0,0,0,1.058H4.938a.529.529,0,0,0,0-1.058Zm0,0" transform="translate(0 -133.878)" fill="#fff"/>
    <path id="Контур_18459" data-name="Контур 18459" d="M4.938,276.824H.529a.529.529,0,0,0,0,1.058H4.938a.529.529,0,0,0,0-1.058Zm0,0" transform="translate(0 -252.416)" fill="#fff"/>
  </g>
</svg>
