<svg xmlns="http://www.w3.org/2000/svg" width="97.11" height="97.11" viewBox="0 0 97.11 97.11">
    <g id="chip" transform="translate(0 -0.001)">
        <g id="Сгруппировать_102" data-name="Сгруппировать 102" transform="translate(18.247 0.001)">
            <g id="Сгруппировать_101" data-name="Сгруппировать 101" transform="translate(0 0)">
                <path id="Контур_264" data-name="Контур 264" d="M173.646,47.133h-22.9V43.9h6.18a1.423,1.423,0,1,0,0-2.845h-6.18V37.815h4.29a5.944,5.944,0,0,0,4.231-1.753l9.356-9.356a4.46,4.46,0,1,0-2.012-2.012l-9.356,9.356a3.118,3.118,0,0,1-2.219.919h-4.29V31.832a7.513,7.513,0,0,0-7.5-7.5H140.1V11.735a4.463,4.463,0,1,0-2.845,0V24.327h-3.236v-6.18a1.423,1.423,0,1,0-2.845,0v6.18h-3.237V1.424a1.423,1.423,0,1,0-2.845,0v22.9h-3.236v-6.18a1.423,1.423,0,1,0-2.845,0v6.18h-3.236v-4.29a5.944,5.944,0,0,0-1.753-4.231l-9.359-9.359a4.465,4.465,0,1,0-2.012,2.012l9.359,9.359a3.117,3.117,0,0,1,.919,2.219v4.29h-3.139a7.536,7.536,0,0,0-1.875.237,1.423,1.423,0,0,0,.709,2.755,4.685,4.685,0,0,1,1.166-.147h33.449a4.664,4.664,0,0,1,4.659,4.659V65.28a4.686,4.686,0,0,1-.146,1.165,1.422,1.422,0,1,0,2.755.708,7.529,7.529,0,0,0,.236-1.874V62.141h12.593a4.463,4.463,0,1,0,0-2.845H150.742V56.06h6.18a1.423,1.423,0,0,0,0-2.845h-6.18V49.978h22.9a1.423,1.423,0,0,0,0-2.845Zm-4.185-25.568a1.618,1.618,0,1,1-.474,1.144A1.607,1.607,0,0,1,169.461,21.565ZM101.811,5.609a1.618,1.618,0,1,1,0-2.289A1.62,1.62,0,0,1,101.811,5.609Zm36.866,3.514A1.618,1.618,0,1,1,140.295,7.5,1.62,1.62,0,0,1,138.677,9.123ZM167.564,59.1a1.618,1.618,0,1,1-1.618,1.618A1.62,1.62,0,0,1,167.564,59.1Z" transform="translate(-96.206 -0.001)" fill="#fff"/>
            </g>
        </g>
        <g id="Сгруппировать_104" data-name="Сгруппировать 104" transform="translate(0 28.888)">
            <g id="Сгруппировать_103" data-name="Сгруппировать 103">
                <path id="Контур_265" data-name="Контур 265" d="M77.558,212.909a4.468,4.468,0,0,0-5.139-.839l-9.359-9.359a3.118,3.118,0,0,1-.919-2.219V196.2h3.139a7.532,7.532,0,0,0,1.875-.237,1.423,1.423,0,0,0-.709-2.755,4.682,4.682,0,0,1-1.166.147H31.831a4.664,4.664,0,0,1-4.659-4.659V155.249a4.679,4.679,0,0,1,.147-1.166,1.422,1.422,0,0,0-2.755-.709,7.52,7.52,0,0,0-.237,1.875v3.139H11.734a4.463,4.463,0,1,0,0,2.845H24.326v3.237h-6.18a1.423,1.423,0,0,0,0,2.845h6.18v3.236H1.423a1.423,1.423,0,1,0,0,2.845h22.9v3.236h-6.18a1.423,1.423,0,1,0,0,2.845h6.18v3.237h-4.29a5.944,5.944,0,0,0-4.231,1.753l-9.356,9.356a4.459,4.459,0,1,0,2.012,2.012l9.356-9.356a3.118,3.118,0,0,1,2.219-.919h4.29V188.7a7.513,7.513,0,0,0,7.5,7.5H34.97v12.593a4.463,4.463,0,1,0,2.845,0V196.2h3.236v6.18a1.423,1.423,0,1,0,2.845,0V196.2h3.236v22.9a1.423,1.423,0,1,0,2.845,0V196.2h3.236v6.18a1.423,1.423,0,1,0,2.845,0V196.2H59.3v4.29a5.944,5.944,0,0,0,1.753,4.231l9.359,9.359a4.462,4.462,0,1,0,7.151-1.173ZM7.5,161.429a1.618,1.618,0,1,1,1.618-1.618A1.62,1.62,0,0,1,7.5,161.429Zm-1.9,37.536a1.618,1.618,0,1,1,.474-1.144A1.607,1.607,0,0,1,5.608,198.965Zm32.4,14.06a1.618,1.618,0,1,1-1.618-1.618A1.62,1.62,0,0,1,38.01,213.025Zm37.536,4.185a1.617,1.617,0,1,1,0-2.289A1.62,1.62,0,0,1,75.546,217.21Z" transform="translate(0 -152.306)" fill="#fff"/>
            </g>
        </g>
        <g id="Сгруппировать_106" data-name="Сгруппировать 106" transform="translate(33.449 31.929)">
            <g id="Сгруппировать_105" data-name="Сгруппировать 105">
                <path id="Контур_266" data-name="Контур 266" d="M206.569,181.166a6.871,6.871,0,0,0-5.271-6.457,4.856,4.856,0,0,0,.14-1.145,5.483,5.483,0,0,0-5.7-5.224,5.917,5.917,0,0,0-4.276,1.776,5.918,5.918,0,0,0-4.276-1.776,5.483,5.483,0,0,0-5.7,5.224,4.856,4.856,0,0,0,.14,1.145,6.871,6.871,0,0,0-5.271,6.457,6.248,6.248,0,0,0,1.5,4.048,7.034,7.034,0,0,0-1.5,4.314,7.326,7.326,0,0,0,3.421,6.078v0a6.3,6.3,0,0,0,6.554,5.984,6.787,6.787,0,0,0,5.131-2.268,6.787,6.787,0,0,0,5.131,2.268,6.339,6.339,0,0,0,6.54-5.615,6.649,6.649,0,0,0,3.434-5.691,6.412,6.412,0,0,0-1.978-4.561A6.413,6.413,0,0,0,206.569,181.166Zm-5.035,5.819a3.8,3.8,0,0,1,2.189,3.3,3.639,3.639,0,0,1-1.253,2.674,6.386,6.386,0,0,0-3.74-3.012,1.422,1.422,0,1,0-.853,2.714,3.227,3.227,0,0,1,2.425,2.945,3.761,3.761,0,0,1-7.418,0v-9.122a3.464,3.464,0,0,1,3.709-3.139,1.423,1.423,0,1,0,0-2.845,6.954,6.954,0,0,0-3.709,1.054V179.74a1.423,1.423,0,0,0-2.845,0v7.9a6.776,6.776,0,0,0-1.572-.728,1.422,1.422,0,0,0-.853,2.714,3.227,3.227,0,0,1,2.425,2.944v3.041a3.761,3.761,0,0,1-7.418,0,2.868,2.868,0,0,1,.885-2.03,1.422,1.422,0,0,0-2.006-2.018,6.05,6.05,0,0,0-.878,1.1,4.339,4.339,0,0,1-1.423-3.136,4.845,4.845,0,0,1,4.022-4.5,1.422,1.422,0,1,0-.636-2.773,8.666,8.666,0,0,0-2.61,1.063,3.433,3.433,0,0,1-.777-2.15c0-2.14,2.029-3.882,4.529-3.9l.038,0a1.421,1.421,0,0,0,1.207-2.171c-.011-.017-.021-.035-.032-.052l-.019-.025c-.022-.031-.045-.061-.069-.09l0,0a2.112,2.112,0,0,1-.52-1.364,2.9,2.9,0,0,1,5.707,0,1.423,1.423,0,0,0,2.845,0,2.9,2.9,0,0,1,5.707,0,2,2,0,0,1-.213.9,7.9,7.9,0,0,0-2.335.585,1.423,1.423,0,1,0,1.105,2.622,5.135,5.135,0,0,1,1.966-.4l.041,0,.038,0c2.5.016,4.529,1.758,4.529,3.9a3.8,3.8,0,0,1-2.189,3.3,1.422,1.422,0,0,0,0,2.516Z" transform="translate(-176.357 -168.34)" fill="#fff"/>
            </g>
        </g>
    </g>
</svg>
