<svg xmlns="http://www.w3.org/2000/svg" xmlns:xlink="http://www.w3.org/1999/xlink" width="744.106" height="60.001" viewBox="0 0 744.106 60.001">
  <defs>
    <filter id="Вычитание_44" x="0" y="0" width="744.106" height="60.001" filterUnits="userSpaceOnUse">
      <feOffset dy="-3" input="SourceAlpha"/>
      <feGaussianBlur stdDeviation="1.5" result="blur"/>
      <feFlood flood-opacity="0.4"/>
      <feComposite operator="in" in2="blur"/>
      <feComposite in="SourceGraphic"/>
    </filter>
  </defs>
  <g transform="matrix(1, 0, 0, 1, 0, 0)" filter="url(#Вычитание_44)">
    <path id="Вычитание_44-2" data-name="Вычитание 44" d="M552.957,51H17.69a24.939,24.939,0,0,1,4.233-5.992,27.361,27.361,0,0,1,5.894-4.677,30.1,30.1,0,0,1,15.345-4.126A30.452,30.452,0,0,1,54.139,38.22a29.027,29.027,0,0,1,4.779,2.361A27.664,27.664,0,0,1,63.07,43.7a25.682,25.682,0,0,1,2.922-8.068,24.867,24.867,0,0,1,5.236-6.45,23.551,23.551,0,0,1,7.022-4.277,22.91,22.91,0,0,1,14.859-.585,29.962,29.962,0,0,1,4.851-7.918,32.29,32.29,0,0,1,7.095-6.217,34.77,34.77,0,0,1,18.961-5.517A35.25,35.25,0,0,1,136.649,6.98a34.077,34.077,0,0,1,5.537,2.713,33,33,0,0,1,4.851,3.6,31.6,31.6,0,0,1,4.039,4.366,30.085,30.085,0,0,1,3.1,5.02,28.858,28.858,0,0,1,2.041,5.557,28.478,28.478,0,0,1,.854,5.979,26.967,26.967,0,0,1,8.3-5.674,24.838,24.838,0,0,1,20.487.3,26.582,26.582,0,0,1,4.623,2.774,28.426,28.426,0,0,1,4.037,3.676A30.492,30.492,0,0,1,205.14,24.11a28.751,28.751,0,0,1,7.088-3.142,28.46,28.46,0,0,1,21.411,2.3,29.629,29.629,0,0,1,5.636,3.95,30.654,30.654,0,0,1,4.619,5.163,29,29,0,0,1,8.087-4.347,28.364,28.364,0,0,1,9.3-1.56,28.672,28.672,0,0,1,3.847.259,30.466,30.466,0,0,1,10.519-12.556,27.529,27.529,0,0,1,23.546-3.656,28.006,28.006,0,0,1,7.115,3.316,30.347,30.347,0,0,1,10.477,11.746,26.416,26.416,0,0,1,7.446-4.217,24.847,24.847,0,0,1,14.254-.844,31.616,31.616,0,0,1,4.168-8.254,30.037,30.037,0,0,1,6.218-6.494,28.031,28.031,0,0,1,7.818-4.251,27.138,27.138,0,0,1,17.942,0,28.035,28.035,0,0,1,7.823,4.258,30.038,30.038,0,0,1,6.22,6.5,31.616,31.616,0,0,1,4.164,8.265,20.91,20.91,0,0,1,5.026-2.247,19.348,19.348,0,0,1,12.09.382,21.853,21.853,0,0,1,5.928,3.295,29.173,29.173,0,0,1,8.749,11.677,11.983,11.983,0,0,1,15.939-1.215,19.905,19.905,0,0,1,11.05-7,20.4,20.4,0,0,1,9.06-.045,19.893,19.893,0,0,1,10.755,6.448,19.508,19.508,0,0,1,2.967-2.873,19.288,19.288,0,0,1,3.521-2.185,19.165,19.165,0,0,1,21.9,3.8,18.107,18.107,0,0,1,5.775-4.155,17.158,17.158,0,0,1,12.982-.47,26.615,26.615,0,0,1,2.793-7.551,23.964,23.964,0,0,1,4.7-6.008,20.823,20.823,0,0,1,6.184-3.969,18.961,18.961,0,0,1,14.461,0,20.821,20.821,0,0,1,6.182,3.966,23.96,23.96,0,0,1,4.7,6,26.611,26.611,0,0,1,2.795,7.546,11.681,11.681,0,0,1,9.253-.163,13.142,13.142,0,0,1,3.836,2.436,15.65,15.65,0,0,1,3,3.706,18,18,0,0,1,1.914,4.688c.26-.018.523-.026.783-.026a12.1,12.1,0,0,1,7.276,2.491,16.584,16.584,0,0,1,2.456-2.328,16.04,16.04,0,0,1,2.875-1.765,15.563,15.563,0,0,1,10.292-1.09,15.606,15.606,0,0,1,3.319,1.2,25.322,25.322,0,0,1,3.3-7.044,24.488,24.488,0,0,1,5.151-5.568,23.238,23.238,0,0,1,6.592-3.659,22.741,22.741,0,0,1,13.888-.436,22.974,22.974,0,0,1,5.637,2.485,24.48,24.48,0,0,1,8.493,8.849,17.654,17.654,0,0,1,5.434-3.531,17.138,17.138,0,0,1,11.232-.623,17.3,17.3,0,0,1,4.246,1.871,22.046,22.046,0,0,1,3.064-5.575,21.3,21.3,0,0,1,4.443-4.373,19.939,19.939,0,0,1,21.794-1.2,24.778,24.778,0,0,1,3.722-3.843,24,24,0,0,1,4.451-2.928A23.313,23.313,0,0,1,734.031,14a25.041,25.041,0,0,1,2.939,3.544,25.411,25.411,0,0,1,2.27,4.077A25.789,25.789,0,0,1,741.415,31a24.4,24.4,0,0,1,4.461,3.709,25.128,25.128,0,0,1,3.506,4.7A25.557,25.557,0,0,1,751.75,44.9,26.05,26.05,0,0,1,752.8,51H553.953c-.123-.209-.24-.419-.349-.623-.213.213-.431.423-.647.623Z" transform="translate(-13.19 7.5)" fill="#fff"/>
  </g>
</svg>
