<svg xmlns="http://www.w3.org/2000/svg" xmlns:xlink="http://www.w3.org/1999/xlink" width="2018.215" height="152.001" viewBox="0 0 2018.215 152.001">
  <defs>
    <filter id="Вычитание_19" x="0" y="0" width="2018.215" height="152.001" filterUnits="userSpaceOnUse">
      <feOffset dy="-12" input="SourceAlpha"/>
      <feGaussianBlur stdDeviation="3" result="blur"/>
      <feFlood flood-opacity="0.4"/>
      <feComposite operator="in" in2="blur"/>
      <feComposite in="SourceGraphic"/>
    </filter>
  </defs>
  <g transform="matrix(1, 0, 0, 1, 0, 0)" filter="url(#Вычитание_19)">
    <path id="Вычитание_19-2" data-name="Вычитание 19" d="M1474.145,131H17.69a64.206,64.206,0,0,1,11.517-15.39A73.929,73.929,0,0,1,45.245,103.6,85.653,85.653,0,0,1,87,93a87.232,87.232,0,0,1,29.867,5.172,80.99,80.99,0,0,1,13,6.063,75.071,75.071,0,0,1,11.3,8.024,63.642,63.642,0,0,1,7.95-20.724A65.06,65.06,0,0,1,205,60a65.582,65.582,0,0,1,17.9,2.478,76.332,76.332,0,0,1,13.2-20.339,86.537,86.537,0,0,1,19.3-15.968A98.75,98.75,0,0,1,307,12a100.981,100.981,0,0,1,34.376,5.93A95.124,95.124,0,0,1,356.443,24.9a89.647,89.647,0,0,1,13.2,9.24,83.185,83.185,0,0,1,10.991,11.215,76.684,76.684,0,0,1,8.442,12.893,71.519,71.519,0,0,1,5.553,14.275,69.327,69.327,0,0,1,2.323,15.359A73.7,73.7,0,0,1,419.529,73.3a71.245,71.245,0,0,1,55.745.766,73.324,73.324,0,0,1,12.579,7.125,75.951,75.951,0,0,1,10.985,9.441A80.566,80.566,0,0,1,547.025,53.86a82.1,82.1,0,0,1,40.7-.578,80.618,80.618,0,0,1,45.461,29.891A80.814,80.814,0,0,1,680.5,68a82.571,82.571,0,0,1,10.468.666,79.555,79.555,0,0,1,28.621-32.251,78.532,78.532,0,0,1,83.427-.873,79.657,79.657,0,0,1,28.507,30.171,73.117,73.117,0,0,1,20.26-10.831,71.434,71.434,0,0,1,38.785-2.167,79.614,79.614,0,0,1,28.259-37.881,77.654,77.654,0,0,1,91.381.025A79.622,79.622,0,0,1,1038.462,52.8a58.621,58.621,0,0,1,13.674-5.772,55.613,55.613,0,0,1,32.9.981,60.561,60.561,0,0,1,16.13,8.463,75.51,75.51,0,0,1,23.8,29.995,32.493,32.493,0,0,1,10.513-6.917,34.618,34.618,0,0,1,23.68-.866,33.085,33.085,0,0,1,9.177,4.661,52.411,52.411,0,0,1,8.395-7.987,54.806,54.806,0,0,1,10.136-6.1,56.514,56.514,0,0,1,11.535-3.89,58.713,58.713,0,0,1,24.654-.116,56.663,56.663,0,0,1,11.106,3.57,54.97,54.97,0,0,1,9.854,5.613,52.826,52.826,0,0,1,8.3,7.379,51.842,51.842,0,0,1,8.073-7.379,53.081,53.081,0,0,1,9.58-5.613,54.013,54.013,0,0,1,10.8-3.57A55.318,55.318,0,0,1,1292.5,64a54.449,54.449,0,0,1,20.394,3.911,52.557,52.557,0,0,1,16.666,10.672,49.294,49.294,0,0,1,15.713-10.672A49.25,49.25,0,0,1,1380.6,66.7a66,66,0,0,1,7.6-19.394A62.217,62.217,0,0,1,1401,31.876a57.164,57.164,0,0,1,16.826-10.195,54.427,54.427,0,0,1,39.347,0,57.166,57.166,0,0,1,16.822,10.187,62.208,62.208,0,0,1,12.8,15.421,65.99,65.99,0,0,1,7.6,19.382,33.519,33.519,0,0,1,25.177-.418,36.109,36.109,0,0,1,10.439,6.256,40.739,40.739,0,0,1,8.15,9.52,44.81,44.81,0,0,1,5.208,12.042c.707-.045,1.424-.068,2.13-.068a34.221,34.221,0,0,1,19.8,6.4A44.114,44.114,0,0,1,1598,86a44.739,44.739,0,0,1,9.8,1.084,44.121,44.121,0,0,1,9.031,3.092,63.461,63.461,0,0,1,8.972-18.094A64.568,64.568,0,0,1,1678.5,45a65.142,65.142,0,0,1,17.052,2.26A64.558,64.558,0,0,1,1734,76.371,48.6,48.6,0,0,1,1766.5,64a49.1,49.1,0,0,1,12.849,1.7,48.517,48.517,0,0,1,11.552,4.806,55.769,55.769,0,0,1,8.338-14.32A56.593,56.593,0,0,1,1843.5,35a57.173,57.173,0,0,1,14.233,1.792,56.509,56.509,0,0,1,12.9,5.074,65.655,65.655,0,0,1,35.948-22.185A66.825,66.825,0,0,1,1921.5,18a65.644,65.644,0,0,1,53.341,27.057,64.319,64.319,0,0,1,6.176,10.472,63.182,63.182,0,0,1,5.919,24.094,65.69,65.69,0,0,1,12.14,9.527,64.979,64.979,0,0,1,9.539,12.065,63.435,63.435,0,0,1,9.29,29.784H1476.855c-.335-.537-.654-1.075-.95-1.6-.579.547-1.172,1.085-1.76,1.6Z" transform="translate(-8.69 21)" fill="#fff"/>
  </g>
</svg>
