<svg xmlns="http://www.w3.org/2000/svg" width="442.85" height="571.721" viewBox="0 0 442.85 571.721">
  <g id="Сгруппировать_4737" data-name="Сгруппировать 4737" transform="translate(-1112.877 -207.473)">
    <ellipse id="Эллипс_1343" data-name="Эллипс 1343" cx="149" cy="11" rx="149" ry="11" transform="matrix(0.999, 0.035, -0.035, 0.999, 1148.475, 746.807)" fill="#1c1e23"/>
    <g id="Сгруппировать_4739" data-name="Сгруппировать 4739" transform="translate(-1042.393 -888.832)">
      <path id="Контур_20484" data-name="Контур 20484" d="M2199.03,1150.575c.746-.947,3.518-14.776,9.192-21.49,19.7-23.314,47.713-5.925,67.924-9.053,3.377-.525,7.313-.612,10.054-1.874,4.365-2.005,6.713-5.191,6.581-4.3-2.646,17.994-31.063,13.2-47.865,13.624-10.933.273-27.507,30.743-38.153,29.658C2203.608,1156.822,2201.78,1152.919,2199.03,1150.575Z" transform="translate(93.735 35.222)" fill="#00a8cf" stroke="#000" stroke-miterlimit="22.926" stroke-width="3" fill-rule="evenodd"/>
      <path id="Контур_20485" data-name="Контур 20485" d="M2205.975,1135.07c-3.447-2.787,4.618-7.643,9.446-9.732,12.806-5.546,32.158-1.625,43.479-3.38,3.379-.521,9.726-1.281,12.462-2.539,4.367-2.005,6-4.054,5.867-3.158-2.108,14.348-15.535,16.494-34.039,16.131-9.661-.19-22.547,3.608-23.677,8.554-.728,3.179-2.173,9.282-4.026,8.567C2211.643,1148.034,2206.54,1135.531,2205.975,1135.07Z" transform="translate(107.296 40.399)" fill="#f04965" stroke="#000" stroke-miterlimit="22.926" stroke-width="3" fill-rule="evenodd"/>
      <path id="Контур_20486" data-name="Контур 20486" d="M2208.8,1142.985c3.858-4.571,4.336-7.351,11.059-12.729,8.935-7.145,22.024-4.844,32.033-4.825,17.4.029,18.8-8.371,18.609-7.09-.908,6.167-3.224,11.2-7.641,12.941-10.222,4.029-33.643,7.145-39.7,13.469-5.159,5.388-3.6,13.221-8.494,13.871C2213.834,1158.739,2203.215,1149.606,2208.8,1142.985Z" transform="translate(111.839 45.214)" fill="#56595e" stroke="#000" stroke-miterlimit="22.926" stroke-width="3" fill-rule="evenodd"/>
      <path id="Контур_20487" data-name="Контур 20487" d="M2190.416,1186.361c-.039-1.2-6.817-13.572-6.794-22.362.074-30.522,32.709-35.241,46.161-50.645,2.25-2.575,5.208-5.175,6.492-7.9,2.05-4.342,1.8-8.29,2.275-7.521,9.552,15.474-15.28,30.1-27.867,41.227-8.193,7.244-1.272,41.234-10.122,47.26C2197.943,1188.2,2194.033,1186.377,2190.416,1186.361Z" transform="translate(59.563 0)" fill="#00a8cf" stroke="#000" stroke-miterlimit="22.926" stroke-width="3" fill-rule="evenodd"/>
      <path id="Контур_20488" data-name="Контур 20488" d="M2190.107,1160.4c-4.431.083-1.381-8.823.969-13.53,6.231-12.487,23.568-21.938,31.1-30.565,2.25-2.574,6.621-7.239,7.905-9.964,2.051-4.345,1.982-6.964,2.459-6.192,7.621,12.339-1.277,22.622-15.674,34.25-7.519,6.073-14.937,17.273-12.62,21.785,1.493,2.9,4.316,8.5,2.437,9.15C2202.792,1166.676,2190.838,1160.389,2190.107,1160.4Z" transform="translate(68.922 4.852)" fill="#f04965" stroke="#000" stroke-miterlimit="22.926" stroke-width="3" fill-rule="evenodd"/>
      <path id="Контур_20489" data-name="Контур 20489" d="M2193.228,1160.785c.014-5.983-1.409-8.416.274-16.858,2.241-11.219,13.743-17.884,21.412-24.308,13.334-11.174,9-18.506,9.681-17.407,3.276,5.3,4.74,10.651,2.481,14.824-5.233,9.661-21.151,27.121-21.715,35.856-.482,7.444,5.752,12.439,2.423,16.079C2207.218,1169.6,2193.212,1169.448,2193.228,1160.785Z" transform="translate(79.641 9.475)" fill="#56595e" stroke="#000" stroke-miterlimit="22.926" stroke-width="3" fill-rule="evenodd"/>
      <path id="Контур_20490" data-name="Контур 20490" d="M2207.88,1154.87c.913-.954,5.448-15.7,12.358-22.39,24-23.227,52.6-1.223,74.947-2.42,3.736-.2,8.032.135,11.151-.936,4.972-1.706,7.879-4.918,7.637-3.955-4.853,19.3-35.27,10.969-53.6,9.591-11.931-.9-33.317,30.459-44.794,28.109C2212.18,1162.174,2210.615,1157.723,2207.88,1154.87Z" transform="translate(113.375 53.132)" fill="#00a8cf" stroke="#000" stroke-miterlimit="22.926" stroke-width="3" fill-rule="evenodd"/>
      <path id="Контур_20491" data-name="Контур 20491" d="M2215.687,1138.176c-3.449-3.418,5.868-7.817,11.352-9.562,14.546-4.638,35.187,1.749,47.706,1.082,3.736-.2,10.73-.328,13.845-1.4,4.971-1.706,6.977-3.756,6.732-2.794-3.866,15.391-18.722,16.253-38.823,13.831-10.5-1.272-24.949,1.458-26.72,6.72-1.139,3.383-3.379,9.871-5.32,8.89C2220.441,1152.912,2216.252,1138.74,2215.687,1138.176Z" transform="translate(129.029 60.829)" fill="#f04965" stroke="#000" stroke-miterlimit="22.926" stroke-width="3" fill-rule="evenodd"/>
      <path id="Контур_20492" data-name="Контур 20492" d="M2218.794,1147.761c4.706-4.554,5.527-7.528,13.438-12.648,10.507-6.8,24.51-2.862,35.4-1.744,18.941,1.935,21.386-7.054,21.038-5.684-1.66,6.617-4.737,11.843-9.735,13.257-11.57,3.264-37.41,4.094-44.694,10.315-6.208,5.3-5.371,14-10.765,14.171C2222.554,1165.455,2211.99,1154.359,2218.794,1147.761Z" transform="translate(132.548 65.913)" fill="#56595e" stroke="#000" stroke-miterlimit="22.926" stroke-width="3" fill-rule="evenodd"/>
      <path id="Контур_20493" data-name="Контур 20493" d="M2217.25,1177.847c.969-1.23,4.564-19.166,11.923-27.875,25.551-30.243,61.89-7.685,88.106-11.747,4.381-.679,9.489-.795,13.041-2.427,5.663-2.6,8.709-6.732,8.539-5.574-3.434,23.34-40.294,17.125-62.087,17.673-14.18.354-35.682,39.876-49.5,38.471C2223.2,1185.955,2220.827,1180.883,2217.25,1177.847Z" transform="translate(134.169 71.415)" fill="#00a8cf" stroke="#000" stroke-miterlimit="22.926" stroke-width="3" fill-rule="evenodd"/>
      <path id="Контур_20494" data-name="Контур 20494" d="M2226.262,1157.73c-4.471-3.617,5.993-9.916,12.255-12.625,16.612-7.2,41.711-2.108,56.4-4.384,4.38-.677,12.613-1.661,16.166-3.293,5.662-2.6,7.778-5.259,7.608-4.1-2.736,18.612-20.153,21.4-44.15,20.923-12.539-.248-29.25,4.68-30.716,11.1-.939,4.123-2.815,12.04-5.22,11.113C2233.622,1174.542,2227,1158.327,2226.262,1157.73Z" transform="translate(151.76 78.129)" fill="#f04965" stroke="#000" stroke-miterlimit="22.926" stroke-width="3" fill-rule="evenodd"/>
      <path id="Контур_20495" data-name="Контур 20495" d="M2229.938,1168c5.008-5.932,5.623-9.538,14.344-16.511,11.587-9.269,28.57-6.279,41.549-6.263,22.568.039,24.384-10.859,24.141-9.195-1.174,8-4.184,14.531-9.909,16.787-13.264,5.224-43.645,9.269-51.494,17.473-6.691,6.988-4.67,17.147-11.013,17.992C2236.464,1188.432,2222.69,1176.589,2229.938,1168Z" transform="translate(157.652 84.374)" fill="#56595e" stroke="#000" stroke-miterlimit="22.926" stroke-width="3" fill-rule="evenodd"/>
      <path id="Контур_20496" data-name="Контур 20496" d="M2268.215,1288.781c-10.827,8.6-23.3,13.427-36.127,23.009-14.361,10.724-27.243,44.482-40.343,51.343-6.906,3.614-15.817-.106-19.133-4.225-6.031-7.5-2.646-21.435.544-31.154,2.716-8.274,8.593-16.311,10.794-21.589,4.4-10.544,30.713-82.13,44.208-82.044C2244.863,1224.231,2298.642,1264.618,2268.215,1288.781Z" transform="translate(27.753 280.155)" fill="#fff" stroke="#000" stroke-miterlimit="22.926" stroke-width="3" fill-rule="evenodd"/>
      <path id="Контур_20497" data-name="Контур 20497" d="M2172.516,1197.672c-.556,5.063,12.687,13.778,26.811,14.647,22.375,1.381,65.084-6.214,60.162-21.428-1.783-5.51-9.53-6.2-19.533-8.371C2222.433,1178.707,2175.178,1173.468,2172.516,1197.672Z" transform="translate(34.889 180.581)" fill="#fff" stroke="#000" stroke-miterlimit="22.926" stroke-width="3" fill-rule="evenodd"/>
      <path id="Контур_20498" data-name="Контур 20498" d="M2238.15,1250.745c1.583-.888,15.19.756,26.946-5.294,7.029-3.621,17-13.206,26.937-18.476,4.713-2.494,9.086-2.037,14.184-2.146,6.518-.138,13.556,2.124,19.9,5.944,15.022,9.047,35.053,27.82,57.931,8.5,12.479-10.538,23.456-22.007,23.172-20.855-15.579,63.576-52.334,54.323-77.241,37.076-14.129-9.787-30.488-10.1-55.614,4.634-10.048,5.893-12.326,6.573-18.151,5.021C2247.776,1262.906,2247.553,1269.154,2238.15,1250.745Z" transform="translate(180.52 267.322)" fill="#22252c" stroke="#000" stroke-miterlimit="22.926" stroke-width="3" fill-rule="evenodd"/>
      <path id="Контур_20499" data-name="Контур 20499" d="M2238.15,1261.919c.3-.171,10.889-18.319,19.214-30.8,3.859-5.79,16.829-13.71,25.1-15.834,10.588-2.716,18.828-3.187,37.076,3.862s24.4,21.509,35.918,24.331c23.153,5.674,48.4-11.58,48.288-11.393-4.426,7.38-14.1,18.619-24.731,23.369-9.484,4.232-20.586,4.194-27.422,1.931-17.872-5.918-36.965-35.141-65.655-15.449C2275.126,1249.36,2265.763,1262.666,2238.15,1261.919Z" transform="translate(180.523 256.933)" fill="#f04965" stroke="#000" stroke-miterlimit="22.926" stroke-width="3" fill-rule="evenodd"/>
      <path id="Контур_20500" data-name="Контур 20500" d="M2254.072,1210.711c.348-.521,17.573-5.687,34.466-4,27.034,2.7,33.848,26.275,57.15,35.132,5.188,1.973,22.336,3.646,32.834-.756,14.539-6.1,24.332-18.532,24.332-18.152a33.642,33.642,0,0,1-8.883,22.017c-8.584,9.475-26.261,16.993-35.792,18.036-22.792,2.491-35.235-22.99-59.566-29.681-23.772-6.537-37.756,2.916-37.756,2.916l-.149.087-16.584,9.8Z" transform="translate(193.767 240.789)" fill="#00a8cf" stroke="#000" stroke-miterlimit="22.926" stroke-width="3" fill-rule="evenodd"/>
      <path id="Контур_20501" data-name="Контур 20501" d="M2297.49,1133.492c-11.058-2.037-47,103.677-78.467,192.5-8.689,24.531-26.182,48.82-31.643,67.927-7.551,26.433-.615,49.035.071,51.9,2.437,10.225,9.812,22.233,29.255,35.428,12.927,8.774,34.465,13.492,51.751,13.9,8.48.2,17.348-2.127,26.246-6.079.2.2.393.4.6.6,14.612,14.055,48.3,28.75,64.822,41.094,18.5,13.816,30.488,34.33,47.362,43.168a18.217,18.217,0,0,0,22.4-4.634c7.768-9.655,5.654-28.418,1.545-40.935-3.5-10.66-11.068-21.01-13.9-27.807-5.664-13.582-39.779-61.522-57.158-61.407l-.593.01c17.194-19.7,27.82-46.448,30.826-74.229,3.8-35.113-3.914-67.528-4.744-74.471a149.647,149.647,0,0,0-11.586-42.483q-.431-.966-.9-1.96c18.393-8.281,40.371-29.207,55.742-41.3,20.695-16.275,48.906-19.417,64.11-30.9,8.646-6.527,16.916-32.589-19.394-28.853-20.611,2-48.437,8.163-58.09,11.343-18.258,6.012-56.531,14.035-73.892,35.284C2322.448,1160.247,2301.694,1134.263,2297.49,1133.492Z" transform="translate(60.134 79.031)" fill="#fff" stroke="#000" stroke-miterlimit="22.926" stroke-width="3" fill-rule="evenodd"/>
      <path id="Контур_20502" data-name="Контур 20502" d="M2266.278,1220.872c5.167,4.84,28.582-14.8,31.668-17.766l-40.126-56.444c-6.527-4.561-24.432,7.6-25.255,18.043C2232.234,1168.953,2248.727,1204.435,2266.278,1220.872Z" transform="translate(168.131 106.134)" fill="#22252c" stroke="#000" stroke-miterlimit="22.926" stroke-width="3" fill-rule="evenodd"/>
      <path id="Контур_20503" data-name="Контур 20503" d="M2336.81,1148.949c-.148-.318-18.091,22.017-34.594,35.2-5.658,4.519-36.822,30.22-43.506,30.22-25.564,0-15.69,25.715-32.474,61.836-23.072,49.65-51.941,88.7-39.263,128.543,29.851,0,177.4,1.438,179.283.164,24.267-16.365,50.568-142.981-2.41-206.24C2354.909,1188,2337.208,1149.784,2336.81,1148.949Z" transform="translate(59.722 113.396)" fill="#22252c" stroke="#000" stroke-miterlimit="22.926" stroke-width="3" fill-rule="evenodd"/>
      <path id="Контур_20504" data-name="Контур 20504" d="M2203.508,1175.755c-3.706-3.259-19.583,10.93-21.666,13.063l29.177,38.43c4.647,3.035,16.851-5.821,17.2-13.115C2228.355,1211.166,2216.091,1186.82,2203.508,1175.755Z" transform="translate(55.605 171.78)" fill="#22252c" stroke="#000" stroke-miterlimit="22.926" stroke-width="3" fill-rule="evenodd"/>
      <path id="Контур_20505" data-name="Контур 20505" d="M2307.5,1192.86c2.021,9.307.254,25.38-2.645,38.495-5.787,26.151-22.072,29.477-22.844,42.608-.912,15.471,0,30.125-3.09,48.663-6.279,37.681-55.81,64.825-75.7,25.489-9.442-18.679-13.433-34.321-16.22-47.117-7.811-35.84-22.223-161.416,35.746-161.416a49.233,49.233,0,0,1,9.13.914c.206-4.841,2.794-16.089,3.691-18.422,10.1-26.271,23.778-12.336,28.679-.5,2.453,5.922.846,21.724-4.023,30.076C2284.74,1165.469,2306.217,1186.97,2307.5,1192.86Z" transform="translate(50.442 20.598)" fill="#fff" stroke="#000" stroke-miterlimit="22.926" stroke-width="3" fill-rule="evenodd"/>
      <path id="Контур_20506" data-name="Контур 20506" d="M2208.116,1135.111c-.041-1.844-15.319-9.134-18.277-10.044-26.9-8.278-24.383,11.087-18.1,22.249,4.95,8.79,35.334,24.782,36.171,8.719C2208.362,1147.368,2208.315,1143.616,2208.116,1135.111Z" transform="translate(24.039 55.985)" fill="#fff" stroke="#000" stroke-miterlimit="22.926" stroke-width="3" fill-rule="evenodd"/>
      <path id="Контур_20507" data-name="Контур 20507" d="M2199.107,1116.541c-18.341-3.382-24.2,26.156-17.923,37.314,12.336,21.928,40.41,10.608,37.24-15.721C2217.277,1128.6,2208.653,1118.305,2199.107,1116.541Z" transform="translate(48.764 40.916)" fill="#f04965" stroke="#000" stroke-miterlimit="22.926" stroke-width="3" fill-rule="evenodd"/>
      <path id="Контур_20508" data-name="Контур 20508" d="M2174.67,1247.614c4.143,7.364,24.531,10.212,44.414-2.259,31.494-19.758,92.007-68.442,70.676-84.193-7.73-5.706-23.236-5.867-38.823.869C2223.633,1173.828,2154.878,1212.418,2174.67,1247.614Z" transform="translate(31.877 131.086)" fill="#fff" stroke="#000" stroke-miterlimit="22.926" stroke-width="3" fill-rule="evenodd"/>
      <path id="Контур_20509" data-name="Контур 20509" d="M2188.27,1114.538c-15.4-2.839-16.424,25.052-11.139,34.417,10.389,18.4,28.943,8.266,26.057-13.546C2202.132,1127.414,2196.274,1116.016,2188.27,1114.538Z" transform="translate(38.75 36.615)" fill="#f04965" stroke="#000" stroke-miterlimit="22.926" stroke-width="3" fill-rule="evenodd"/>
      <path id="Контур_20510" data-name="Контур 20510" d="M2181.742,1112.913c-11.942-2.2-13.974,16.089-9.877,23.346,8.056,14.267,24.942,10.418,22.706-6.5C2193.753,1123.564,2187.95,1114.058,2181.742,1112.913Z" transform="translate(29.192 33.046)" fill="#f04965" stroke="#000" stroke-miterlimit="22.926" stroke-width="3" fill-rule="evenodd"/>
      <path id="Контур_20511" data-name="Контур 20511" d="M2172.33,1109.066c-11.942-2.2-7.605,13.482-3.647,20.816,6.672,12.362,22.1,11.934,19.872-4.982C2187.726,1118.7,2178.538,1110.211,2172.33,1109.066Z" transform="translate(17.227 24.45)" fill="#f04965" stroke="#000" stroke-miterlimit="22.926" stroke-width="3" fill-rule="evenodd"/>
      <path id="Контур_20512" data-name="Контур 20512" d="M2168.081,1106.567c-11.945-2.2-6.315,10.939-2.357,18.275,6.669,12.361,19.043,12.22,16.81-4.69C2181.721,1113.951,2174.289,1107.711,2168.081,1106.567Z" transform="translate(9.113 18.837)" fill="#f04965" stroke="#000" stroke-miterlimit="22.926" stroke-width="3" fill-rule="evenodd"/>
      <path id="Контур_20513" data-name="Контур 20513" d="M2205.161,1181.083c-2.582-4.074-4.413.509-5.22,3.308-1.362,4.721,1.921,8.413,5.6,4.023C2206.886,1186.806,2206.5,1183.2,2205.161,1181.083Z" transform="translate(95.074 181.092)" fill="none" stroke="#000" stroke-miterlimit="22.926" stroke-width="3" fill-rule="evenodd"/>
      <path id="Контур_20514" data-name="Контур 20514" d="M2190.347,1184.994c-.29-4.814,3.875-2.169,6.169-.37,3.865,3.035,3.36,7.953-2.185,6.537C2192.294,1190.638,2190.5,1187.5,2190.347,1184.994Z" transform="translate(74.438 187.289)" fill="none" stroke="#000" stroke-miterlimit="22.926" stroke-width="3" fill-rule="evenodd"/>
      <path id="Контур_20515" data-name="Контур 20515" d="M2164.448,1104.341c-11.7-3.225-8.089,10.015-1.931,15.625,9.713,8.857,23.2,3.9,16.22-6.359C2175.25,1108.482,2170.593,1106.042,2164.448,1104.341Z" transform="translate(0 13.338)" fill="#f04965" stroke="#000" stroke-miterlimit="22.926" stroke-width="3" fill-rule="evenodd"/>
      <path id="Контур_20516" data-name="Контур 20516" d="M2198.427,1132.5c-.689-2.984,1.448-18.361,5.886-18.361,9.835,0,6.127,20.2,1.786,25.01C2205.819,1139.448,2199.612,1133.574,2198.427,1132.5Z" transform="translate(92.12 36.16)" fill="#f04965" stroke="#000" stroke-miterlimit="22.926" stroke-width="3" fill-rule="evenodd"/>
      <path id="Контур_20517" data-name="Контур 20517" d="M2193.307,1135.011c-1.921-2.385-15.341-10.2-18.084-6.708-6.069,7.734,12.1,17.292,18.573,16.845.468-.032-.75-10.1-.7-10.183Z" transform="translate(38.215 65.649)" fill="#f04965" stroke="#000" stroke-miterlimit="22.926" stroke-width="3" fill-rule="evenodd"/>
      <path id="Контур_20518" data-name="Контур 20518" d="M2199.66,1120.239c1.922-3.766,8.47-8.065,9.534-8.8" transform="translate(95.061 30.745)" fill="none" stroke="#000" stroke-linecap="round" stroke-miterlimit="22.926" stroke-width="3" fill-rule="evenodd"/>
      <path id="Контур_20519" data-name="Контур 20519" d="M2184.205,1127.552c-4.146-.814-11.732.064-14.625.191" transform="translate(32.254 65.521)" fill="none" stroke="#000" stroke-linecap="round" stroke-miterlimit="22.926" stroke-width="3" fill-rule="evenodd"/>
      <path id="Контур_20520" data-name="Контур 20520" d="M2204.836,1148.65a8.749,8.749,0,0,1,.318,2.337c0,5.728-5.606,10.376-12.522,10.376-6.09,0-11.3-3.634-12.336-8.606" transform="translate(52.189 112.725)" fill="none" stroke="#000" stroke-miterlimit="22.926" stroke-width="3" fill-rule="evenodd"/>
      <path id="Контур_20521" data-name="Контур 20521" d="M2221.869,1145.4a9.779,9.779,0,0,1,.36,2.623c0,6.443-6.3,11.667-14.08,11.667-6.848,0-12.7-4.085-13.871-9.675" transform="translate(83.19 105.515)" fill="none" stroke="#000" stroke-miterlimit="22.926" stroke-width="3" fill-rule="evenodd"/>
      <path id="Контур_20522" data-name="Контур 20522" d="M2184.407,1152.6a30.671,30.671,0,0,0-2.571,5.416" transform="translate(53.222 120.067)" fill="none" stroke="#000" stroke-miterlimit="22.926" stroke-width="3" fill-rule="evenodd"/>
      <path id="Контур_20523" data-name="Контур 20523" d="M2184.84,1152.6a48.62,48.62,0,0,0,.772,6.189" transform="translate(61.465 121.488)" fill="none" stroke="#000" stroke-miterlimit="22.926" stroke-width="3" fill-rule="evenodd"/>
      <path id="Контур_20524" data-name="Контур 20524" d="M2186.72,1151.64a7.711,7.711,0,0,0,2.446,4.65" transform="translate(69.404 117.013)" fill="none" stroke="#000" stroke-miterlimit="22.926" stroke-width="3" fill-rule="evenodd"/>
      <path id="Контур_20525" data-name="Контур 20525" d="M2197.787,1149.22c-.329,1.42-1.912,4.281-2.684,6.209" transform="translate(85.028 114.011)" fill="none" stroke="#000" stroke-miterlimit="22.926" stroke-width="3" fill-rule="evenodd"/>
      <path id="Контур_20526" data-name="Контур 20526" d="M2199.438,1149.84c-.159,1.834-.065,4.3,0,7.458" transform="translate(94.438 115.367)" fill="none" stroke="#000" stroke-miterlimit="22.926" stroke-width="3" fill-rule="evenodd"/>
      <path id="Контур_20527" data-name="Контур 20527" d="M2201.75,1148.7c.959,2.059,1.809,3.543,3.137,6.192" transform="translate(102.099 109.579)" fill="none" stroke="#000" stroke-miterlimit="22.926" stroke-width="3" fill-rule="evenodd"/>

      <path class="fringe  fringe-looking-for" id="Контур_20528" data-name="Контур 20528" d="M2245.375,1136.63c.445-1.133-13.687-6.308-22.4-5.992-30.266,1.094-33.861,33.613-48.686,47.471-2.474,2.314-4.958,5.333-7.621,6.7-4.238,2.176-8.162,2.059-7.383,2.5,15.664,8.956,29.336-16.157,39.956-29.012,5.445-6.591,31.924-3.577,38.765-12.351a19.3,19.3,0,0,0,7.371-9.32" transform="translate(5.354 72.748)" fill="#00a8cf" stroke="#000" stroke-miterlimit="22.926" stroke-width="3" fill-rule="evenodd"/>

      <path class="fringe" id="Контур_20529" data-name="Контур 20529" d="M2232.975,1137.785c-.061-4.4-21.905-2.543-26.495-.058-12.171,6.6-20.967,24.1-29.274,31.866-2.478,2.317-6.958,6.807-9.618,8.172-4.241,2.179-6.836,2.2-6.06,2.645,12.49,7.145,22.394-2.021,33.442-16.687,5.773-7.66,16.633-15.391,21.187-13.24,2.926,1.381,8.577,3.994,9.153,2.108C2226.5,1148.683,2232.983,1138.509,2232.975,1137.785Z" transform="translate(10.24 82.74)" fill="#f04965" stroke="#000" stroke-miterlimit="22.926" stroke-width="3" fill-rule="evenodd"/>
      <path class="fringe" id="Контур_20530" data-name="Контур 20530" d="M2220.64,1139.937c-5.938-.01-8.394-1.12-16.709.833-11.048,2.594-17.276,14.222-23.395,22.046-10.633,13.592-18.049,9.543-16.935,10.18,5.367,3.073,10.721,4.348,14.784,1.969,9.408-5.513,26.191-21.885,34.836-22.733,6.546-.643,4.384-.93,4.384-.93C2218.2,1150.715,2221.316,1139.937,2220.64,1139.937Z" transform="translate(14.889 92.679)" fill="#56595e" stroke="#000" stroke-miterlimit="22.926" stroke-width="3" fill-rule="evenodd"/>
      <path class="hoof" id="Контур_20531" data-name="Контур 20531" d="M2194.992,1171.255c3.012,4.979,5.887,1.431,8.075,3.334,1.976,1.722-4.631,6.182,0,11.972,4.972,6.218,10.8,1.574,12.432,2.665,1.245.831-5.2,4.364.827,10.029,4.365,4.1,11.268-2.092,17.051-9.7,5.948-7.817,10.695-17.193,8.882-22.786-1.6-4.932-6.832-10.05-22.106-9.15C2213.441,1157.854,2190.017,1163.036,2194.992,1171.255Z" transform="translate(82.466 131.65)" fill="#00a8cf" fill-rule="evenodd"/>
      <path class="hoof" id="Контур_20532" data-name="Контур 20532" d="M2209.954,1264.9c-5.246-2.52-4.551,2.8-7.425,2.4-2.594-.36,1.564-7.286-5.484-9.6-7.56-2.488-9.463,4.512-11.426,4.5-1.5-.013,4.278-7.437-3.861-8.882-6.707-1.192-11.069,20.215-11.653,25.5-.432,5.246-.033,9.466,1.758,12.828,3.614,6.8,11.824,8.777,18.685,6.092,2.941-1.152,9.762-9.148,11.979-12.594.345-.537,7.917-11.892,8.4-13.354C2211.941,1268.776,2211.488,1265.629,2209.954,1264.9Z" transform="translate(28.26 344.812)" fill="#00a8cf" fill-rule="evenodd"/>
      <path class="hoof" id="Контур_20533" data-name="Контур 20533" d="M2268.589,1143.006c1.181,5.067,4.61,2.847,5.943,5.073,1.207,2.013-5.65,3.974-3.315,10.185,2.506,6.662,8.743,4.327,9.839,5.709.828,1.052-5.633,2.272-2.075,8.76,3.48,6.346,26.214-7.573,29.367-10.609a23.329,23.329,0,0,0,5.173-8.627,17.048,17.048,0,0,0,.381-6.778,11.39,11.39,0,0,0-2.83-6.109c-1.93-2.018-3.163-2.87-9.429-4.094s-23.871.239-29.225,1.567C2269.574,1138.794,2267.77,1139.517,2268.589,1143.006Z" transform="translate(245.559 88.708)" fill="#00a8cf" fill-rule="evenodd"/>
      <path class="hoof" id="Контур_20534" data-name="Контур 20534" d="M2280.044,1251.536c-5.824,4.213-1.405,7.756-3.577,10.717-1.96,2.678-7.678-5.674-14.392.7-7.206,6.842-1.311,14.164-2.53,16.359-.934,1.669-4.463-5.549-12.014,1.664a7.086,7.086,0,0,0-1.872,8.187c3.71,8.87,22.268,22.6,26.31,24.685,17.216,8.9,28.774-6.546,26.066-27.4a111.952,111.952,0,0,0-2.7-15.448,66.174,66.174,0,0,0-7.274-16.755C2285.823,1250.726,2284.058,1248.635,2280.044,1251.536Z" transform="translate(195.855 337.94)" fill="#00a8cf" fill-rule="evenodd"/>
      <g class="logo" id="Сгруппировать_4738" data-name="Сгруппировать 4738" transform="translate(2338.396 1342.64)">
        <g id="Сгруппировать_4737-2" data-name="Сгруппировать 4737" transform="translate(0 0.41)">
          <path id="Контур_20535" data-name="Контур 20535" d="M2217.707,1186.27a7.538,7.538,0,0,0,3.641,4.2c3.629,1.738,7.369.531,11.038,1.149.911.154,1.9.721,1.754,1.789-.261,2.009-4.622,2.569-6.205,2.533a11.28,11.28,0,0,1-3.045-.5c-.318.7-1.85,4.792-2.339,6.092a16.6,16.6,0,0,0,11.138-.357,12.651,12.651,0,0,0,6.774-6.1,7.464,7.464,0,0,0-2.749-9.275c-3.926-2.394-11.128-.373-12.947-1.757-.988-.753-.586-2.443,1.084-3.228a12.177,12.177,0,0,1,6.19-.405c.305-.785,1.647-4.268,2.076-5.391a12.327,12.327,0,0,0-9.408-.126C2220.162,1176.732,2216.085,1181.08,2217.707,1186.27Z" transform="translate(-2204.023 -1174.026)" fill="#00a8cf" fill-rule="evenodd"/>
          <path id="Контур_20536" data-name="Контур 20536" d="M2213.21,1185.941l5.394-2.1,4.348,11.12a4.359,4.359,0,0,1,.213,2.874,3.432,3.432,0,0,1-2.226,1.873,6.535,6.535,0,0,1-5.432-.8c-.515,1.338-1.575,4.133-2.152,5.651a12.921,12.921,0,0,0,3.253,1.336c3.467.9,7.984-.454,10.72-2.739a8.254,8.254,0,0,0,2.935-4.451,10.165,10.165,0,0,0-.508-5.954l-6.737-17.147-9.146,3.569Z" transform="translate(-2213.21 -1170.525)" fill="#00a8cf" fill-rule="evenodd"/>
        </g>
        <text id="corp." transform="translate(47.997 20.193) rotate(-111.364)" fill="#fff" font-size="11" font-family="SegoeUI-Bold, Segoe UI" font-weight="700"><tspan x="0" y="0">corp.</tspan></text>
      </g>
    </g>
  </g>
</svg>
