<svg xmlns="http://www.w3.org/2000/svg" width="306.824" height="254.898" viewBox="0 0 306.824 254.898">
  <g id="космонавт" transform="translate(-448.5 -972.004)">
    <g id="Сгруппировать_443" data-name="Сгруппировать 443" transform="translate(476.773 1068.782)">
      <path id="Контур_17979" data-name="Контур 17979" d="M425.778,189.122c-1.492.814-16.168,11.516-16.168,11.516s16.939-6.556,18.43-7.37,2.194-2.4,1.569-3.547S427.269,188.308,425.778,189.122Z" transform="translate(-409.611 -188.651)" fill="#e78c17"/>
      <path id="Контур_17980" data-name="Контур 17980" d="M419.172,189.2c-.891.486-9.515,7.155-9.515,7.155s10.274-3.646,11.166-4.133a1.726,1.726,0,1,0-1.65-3.023Z" transform="translate(-401.612 -188.763)" fill="#f8aa48"/>
      <path id="Контур_17981" data-name="Контур 17981" d="M414.424,189.39c-.455.248-4.719,3.887-4.719,3.887s5.368-1.618,5.822-1.867a1.175,1.175,0,0,0-1.1-2.02Z" transform="translate(-395.799 -188.881)" fill="#fedf6d"/>
    </g>
    <g id="Сгруппировать_642" data-name="Сгруппировать 642" transform="translate(448.5 972.004)">
      <g id="Сгруппировать_438" data-name="Сгруппировать 438" transform="translate(168.065 86.001)">
        <g id="Сгруппировать_437" data-name="Сгруппировать 437" transform="translate(4.844 0)">
          <path id="Контур_17962" data-name="Контур 17962" d="M155.91,171.911c17.753-.384,27.315,2.453,32.445,5.8,3.4,2.221,5.465,5.045,6.127,8.389l-3.781.748a9.326,9.326,0,0,0-4.453-5.91c-3.884-2.535-12-5.383-28.781-5.188A17.883,17.883,0,0,0,155.91,171.911Z" transform="translate(-155.91 -171.876)" fill="#f7f7f7"/>
        </g>
        <path id="Контур_17963" data-name="Контур 17963" d="M195.032,172.548c1.82,3.438,7.873,5.439,7.873,5.439a11.293,11.293,0,0,0-1.33-.353c-4.721-1.175-11.324-1.988-20.546-1.882h-.017l-1.564-3.84A111.038,111.038,0,0,1,195.032,172.548Z" transform="translate(-174.609 -171.875)" fill="#d5d1d2"/>
        <path id="Контур_17964" data-name="Контур 17964" d="M159.378,236.356c.013.39.022.761.034,1.141-1.242-.3-2.541-.566-3.88-.794,0-.076,0-.147-.006-.224-.315-9.848-.748-23.337,15.016-27.194,1.818-.445,3.7-.835,5.7-1.249,12.449-2.579,20.485-4.9,18.828-13.268l3.781-.748c2.523,12.744-10.978,15.543-21.826,17.791-1.961.407-3.812.79-5.563,1.219C158.73,216.144,159.06,226.419,159.378,236.356Z" transform="translate(-155.431 -179.794)" fill="#f7f7f7"/>
        <path id="Контур_17965" data-name="Контур 17965" d="M210.455,246.492c-.262-8.184-.6-18.876,8.341-24.472-7.491,6.9-5.966,12.606-4.272,14.159a72.891,72.891,0,0,0-.216,10.189c.013.39.022.761.034,1.141-1.242-.3-2.541-.566-3.88-.794C210.46,246.639,210.458,246.568,210.455,246.492Z" transform="translate(-210.36 -189.806)" fill="#d5d1d2"/>
      </g>
      <g id="Сгруппировать_641" data-name="Сгруппировать 641" transform="translate(0)">
        <g id="Сгруппировать_640" data-name="Сгруппировать 640">
          <g id="Сгруппировать_404" data-name="Сгруппировать 404" transform="translate(244.395 160.257)">
            <g id="Сгруппировать_403" data-name="Сгруппировать 403" transform="translate(0 0)">
              <ellipse id="Эллипс_106" data-name="Эллипс 106" cx="15.59" cy="15.59" rx="15.59" ry="15.59" transform="translate(3.039 34.071) rotate(-95.593)" fill="#ef4864"/>
              <g id="Сгруппировать_402" data-name="Сгруппировать 402" transform="translate(1.565 1.573)">
                <path id="Контур_17887" data-name="Контур 17887" d="M78.208,295.351c-.77-.383-.764-.337-1.545-.687s-.784-.434-1.571-.75-.8.049-1.611-.234-.737-.873-1.532-1.119-.935.431-1.765.213-1.064.578-1.934.383-.491-1.2-1.33-1.346-.746-.344-1.585-.455-1.455.963-2.348.862-.048-1.329-.9-1.368-1.5.752-2.392.723a.6.6,0,0,1-.337-.088,15.641,15.641,0,0,1,3.8-1.352c.24.186.146.54.761.59.828.067,1.418-.888,2.193-.806s.306,1.011,1.113,1.146.847.035,1.641.2.823.071,1.6.276.795.136,1.563.376.757.34,1.519.617.757.506,1.521.82c.383.157.547-.159.7-.469a15.568,15.568,0,0,1,2.739,2.627C78.422,295.464,78.325,295.41,78.208,295.351Z" transform="translate(-50.965 -289.912)" fill="#c10020"/>
                <path id="Контур_17888" data-name="Контур 17888" d="M80.542,305.591c-1-.363-1.015.148-2.029-.195s-.955-1.165-1.954-1.5-.987-.457-1.988-.772-1.136.576-2.16.277-1.007-.384-2.034-.666-.89-.868-1.909-1.133-1.155.228-2.189-.024-.865-.779-1.893-1.01-1.144.09-2.182-.129-1.235.272-2.285.061-.531-1.341-1.566-1.516-1.54.806-2.6.627-.454-1.212-1.5-1.348c-.077-.01-.143-.011-.213-.015.079-.1.159-.2.24-.3a.922.922,0,0,0,.144.031c1.034.127,1.929-1.179,2.924-1.068s.354,1.166,1.371,1.325,1.194-.187,2.2-.015,1.28-.425,2.263-.241.809.615,1.8.826.937.362,1.923.6,1.02.115,2,.369.908.563,1.889.84.831,1.107,1.825,1.4,1,.233,1.994.55,1.072-.754,2.029-.414.948.856,1.914,1.214.944-.166,1.887.217a4.3,4.3,0,0,1,1.018.577,15.466,15.466,0,0,1,.343,1.921C81.434,305.935,81.208,305.832,80.542,305.591Z" transform="translate(-50.846 -292.414)" fill="#c10020"/>
                <path id="Контур_17889" data-name="Контур 17889" d="M57.646,305.732c1.086.247.9.8,1.991,1.063s1.188-.077,2.272.184.982.605,2.065.873,1.12.137,2.2.408.95.759,2.033,1.036,1.262-.407,2.341-.127,1.027.491,2.106.775,1.129.077,2.206.366,1.188-.21,2.261.087.892,1.143,1.97,1.437,1.165-.121,2.238.182,1.008.639,2.082.94c.84.236.964.617,1.489.914-.008.038-.018.075-.026.113a9.368,9.368,0,0,1-1.61-.236c-1.082-.29-1.19.157-2.274-.125s-.875-1.148-1.954-1.438-1.251.419-2.335.137-1.308.583-2.391.306-.793-1.4-1.877-1.686-1.127-.107-2.211-.387-1.13-.1-2.215-.383-.992-.633-2.076-.91-1.151-.029-2.236-.306-1.3.545-2.38.26-1.12-.13-2.2-.419-.671-1.838-1.758-2.1-1.5,1.309-2.583,1.015a1.111,1.111,0,0,1-.393-.2c.047-.217.1-.435.151-.652a15.763,15.763,0,0,1,.623-1.89,1.348,1.348,0,0,1,.415.024C56.654,305.226,56.56,305.485,57.646,305.732Z" transform="translate(-54.155 -295.293)" fill="#c10020"/>
                <path id="Контур_17890" data-name="Контур 17890" d="M59.923,317.345c1.009.355,1.043-.245,2.068.091s1,.56,2.025.883.876,1.525,1.88,1.837,1.207-.939,2.238-.644,1.136-.2,2.181.082.87.99,1.906,1.257,1.038.261,2.078.513,1.081.122,2.126.36,1.236-.3,2.293-.071.617,1.342,1.661,1.543,1.485-.791,2.548-.586.685.975,1.74,1.149a3.478,3.478,0,0,0,1.661-.278,15.567,15.567,0,0,1-1.04,1.432,4.7,4.7,0,0,0-1.091-.282c-1.039-.152-1.673.931-2.681.785s-.347-1.435-1.378-1.626-1.384.606-2.4.409-.8-.723-1.821-.945-1.241.44-2.239.206-1.148.286-2.128.035-.866-.731-1.853-1.005-.987-.27-1.968-.564-1-.162-1.972-.476-.887-1.241-1.878-1.572-1.034.7-1.993.34-.967-1.695-1.956-2.058-.96.283-1.928-.106c-.037-.015-.069-.024-.1-.035-.067-.344-.119-.691-.163-1.041a1.728,1.728,0,0,0,.182.089C58.918,317.444,58.914,316.99,59.923,317.345Z" transform="translate(-57.742 -299.59)" fill="#c10020"/>
                <path id="Контур_17891" data-name="Контур 17891" d="M67.692,328.261c.784.409.7-.067,1.513.308s.937,1.625,1.7,1.967.743-1.036,1.575-.724.861-.081,1.716.2.671,1.553,1.485,1.8,1.048-.8,1.911-.577.608,1.057,1.447,1.235,1.142-.589,2.018-.431.9.121,1.783.248.73.4,1.616.491,1.188-.355,2.1-.284c.47.037.459.344.458.633a15.584,15.584,0,0,1-3.3,1.153.924.924,0,0,0-.215-.041c-.821-.055-.928.114-1.733.028s-.781-.129-1.577-.254-.582-.646-1.391-.815-1.135.865-1.889.673-.6-.907-1.375-1.142c-.651-.2-.867.6-1.339.715-.213-.089-.423-.184-.63-.283-.394-.549-.466-1.677-1.1-1.929-.777-.308-.733.734-1.456.392a1.193,1.193,0,0,1-.116-.075l-.182-.138c-.48-.452-.682-1.26-1.323-1.578a5.343,5.343,0,0,0-.7-.3,15.622,15.622,0,0,1-1.057-1.3C67.659,328.239,67.674,328.251,67.692,328.261Z" transform="translate(-64.792 -303.614)" fill="#742b27"/>
              </g>
            </g>
            <path id="Контур_17892" data-name="Контур 17892" d="M60.629,316.434a15.59,15.59,0,0,0,18.633-20.191,15.591,15.591,0,1,1-25.377,16.492A15.52,15.52,0,0,0,60.629,316.434Z" transform="translate(-51.583 -290.603)" fill="#c10020"/>
          </g>
          <g id="Сгруппировать_444" data-name="Сгруппировать 444" transform="translate(248.81 88.734)">
            <path id="Контур_17982" data-name="Контур 17982" d="M79.985,176.677c-1.735.946-18.805,13.4-18.805,13.4s19.7-7.626,21.438-8.573,2.551-2.794,1.824-4.126S81.72,175.73,79.985,176.677Z" transform="translate(-61.18 -176.129)" fill="#e78c17"/>
            <path id="Контур_17983" data-name="Контур 17983" d="M72.3,176.771c-1.037.566-11.069,8.324-11.069,8.324s11.951-4.242,12.988-4.808a2.007,2.007,0,1,0-1.919-3.516Z" transform="translate(-51.876 -176.26)" fill="#f8aa48"/>
            <path id="Контур_17984" data-name="Контур 17984" d="M66.778,176.988c-.528.288-5.489,4.522-5.489,4.522s6.244-1.883,6.772-2.171a1.367,1.367,0,0,0-1.284-2.351Z" transform="translate(-45.115 -176.397)" fill="#fedf6d"/>
          </g>
          <g id="Сгруппировать_445" data-name="Сгруппировать 445" transform="translate(158.958 3.516)">
            <path id="Контур_17985" data-name="Контур 17985" d="M216.408,44.13c-2.069,1.13-22.438,15.982-22.438,15.982s23.509-9.1,25.578-10.228,3.044-3.334,2.177-4.922S218.477,43,216.408,44.13Z" transform="translate(-193.97 -43.477)" fill="#e78c17"/>
            <path id="Контур_17986" data-name="Контур 17986" d="M207.239,44.243c-1.237.675-13.206,9.931-13.206,9.931s14.259-5.061,15.5-5.736a2.395,2.395,0,1,0-2.29-4.195Z" transform="translate(-182.869 -43.633)" fill="#f8aa48"/>
            <path id="Контур_17987" data-name="Контур 17987" d="M200.65,44.5c-.63.344-6.549,5.4-6.549,5.4s7.45-2.247,8.08-2.591a1.631,1.631,0,0,0-1.531-2.8Z" transform="translate(-174.801 -43.796)" fill="#fedf6d"/>
          </g>
          <g id="Сгруппировать_446" data-name="Сгруппировать 446" transform="translate(0)">
            <path id="Контур_17988" data-name="Контур 17988" d="M462.868,316.585a1.172,1.172,0,1,0,1.172-1.172A1.172,1.172,0,0,0,462.868,316.585Z" transform="translate(-447.712 -119.855)" fill="#d5d1d2"/>
            <ellipse id="Эллипс_110" data-name="Эллипс 110" cx="0.924" cy="0.924" rx="0.924" ry="0.924" transform="translate(43.042 215.675)" fill="#d5d1d2"/>
            <ellipse id="Эллипс_111" data-name="Эллипс 111" cx="0.337" cy="0.337" rx="0.337" ry="0.337" transform="translate(61.275 207.003)" fill="#d5d1d2"/>
            <path id="Контур_17989" data-name="Контур 17989" d="M407.737,291.053a1.1,1.1,0,1,0,1.1-1.1A1.1,1.1,0,0,0,407.737,291.053Z" transform="translate(-357.016 -110.752)" fill="#d5d1d2"/>
            <path id="Контур_17990" data-name="Контур 17990" d="M397.516,247.025a1.175,1.175,0,1,0,1.175-1.174A1.175,1.175,0,0,0,397.516,247.025Z" transform="translate(-340.383 -94.981)" fill="#d5d1d2"/>
            <path id="Контур_17991" data-name="Контур 17991" d="M419.607,265.428a.266.266,0,1,0,.266-.266A.266.266,0,0,0,419.607,265.428Z" transform="translate(-374.848 -101.886)" fill="#d5d1d2"/>
            <path id="Контур_17992" data-name="Контур 17992" d="M389.037,224.556a.414.414,0,1,0,.414-.414A.413.413,0,0,0,389.037,224.556Z" transform="translate(-324.935 -87.218)" fill="#d5d1d2"/>
            <ellipse id="Эллипс_112" data-name="Эллипс 112" cx="0.135" cy="0.135" rx="0.135" ry="0.135" transform="translate(34.833 134.918)" fill="#d5d1d2"/>
            <path id="Контур_17993" data-name="Контур 17993" d="M445.363,218.7a.3.3,0,1,0,.3-.3A.3.3,0,0,0,445.363,218.7Z" transform="translate(-417.221 -85.163)" fill="#d5d1d2"/>
            <ellipse id="Эллипс_113" data-name="Эллипс 113" cx="0.751" cy="0.751" rx="0.751" ry="0.751" transform="translate(43.967 175.167)" fill="#d5d1d2"/>
            <path id="Контур_17994" data-name="Контур 17994" d="M465.565,231.93a.806.806,0,1,0,.806-.8A.806.806,0,0,0,465.565,231.93Z" transform="translate(-451.409 -89.715)" fill="#d5d1d2"/>
            <path id="Контур_17995" data-name="Контур 17995" d="M452.193,266.473a.993.993,0,1,0,.993-.993A.992.992,0,0,0,452.193,266.473Z" transform="translate(-429.821 -102)" fill="#d5d1d2"/>
            <path id="Контур_17996" data-name="Контур 17996" d="M485.717,268.408a.5.5,0,1,0,.5-.5A.5.5,0,0,0,485.717,268.408Z" transform="translate(-483.895 -102.868)" fill="#d5d1d2"/>
            <ellipse id="Эллипс_114" data-name="Эллипс 114" cx="0.471" cy="0.471" rx="0.471" ry="0.471" transform="translate(0 151.574)" fill="#d5d1d2"/>
            <ellipse id="Эллипс_115" data-name="Эллипс 115" cx="0.622" cy="0.622" rx="0.622" ry="0.622" transform="translate(20.923 146.326)" fill="#d5d1d2"/>
            <path id="Контур_17997" data-name="Контур 17997" d="M463.9,234.419a.949.949,0,1,0,.949-.949A.949.949,0,0,0,463.9,234.419Z" transform="translate(-448.957 -90.554)" fill="#d5d1d2"/>
            <path id="Контур_17998" data-name="Контур 17998" d="M454.2,225.936a.912.912,0,1,0,.912-.912A.911.911,0,0,0,454.2,225.936Z" transform="translate(-432.952 -87.534)" fill="#d5d1d2"/>
            <path id="Контур_17999" data-name="Контур 17999" d="M482.257,206.877a.955.955,0,1,0,.955-.955A.955.955,0,0,0,482.257,206.877Z" transform="translate(-479.123 -80.703)" fill="#d5d1d2"/>
            <ellipse id="Эллипс_116" data-name="Эллипс 116" cx="0.518" cy="0.518" rx="0.518" ry="0.518" transform="translate(29.788 127.079)" fill="#d5d1d2"/>
            <path id="Контур_18000" data-name="Контур 18000" d="M435.522,207.713a.343.343,0,1,0,.343-.344A.343.343,0,0,0,435.522,207.713Z" transform="translate(-401.142 -81.221)" fill="#d5d1d2"/>
            <path id="Контур_18001" data-name="Контур 18001" d="M418.742,174.063a.4.4,0,1,0,.4-.4A.4.4,0,0,0,418.742,174.063Z" transform="translate(-373.689 -69.169)" fill="#d5d1d2"/>
            <path id="Контур_18002" data-name="Контур 18002" d="M456.923,176.549a.321.321,0,1,0,.321-.321A.321.321,0,0,0,456.923,176.549Z" transform="translate(-436.246 -70.085)" fill="#d5d1d2"/>
            <path id="Контур_18003" data-name="Контур 18003" d="M462.545,171.967a.524.524,0,1,0,.524-.524A.524.524,0,0,0,462.545,171.967Z" transform="translate(-445.887 -68.374)" fill="#d5d1d2"/>
            <ellipse id="Эллипс_117" data-name="Эллипс 117" cx="0.848" cy="0.848" rx="0.848" ry="0.848" transform="translate(13.783 99.14)" fill="#d5d1d2"/>
            <path id="Контур_18004" data-name="Контур 18004" d="M452.649,135.137a.778.778,0,1,0,.778-.778A.778.778,0,0,0,452.649,135.137Z" transform="translate(-430.14 -55.113)" fill="#d5d1d2"/>
            <path id="Контур_18005" data-name="Контур 18005" d="M369.8,135.137a.778.778,0,1,0,.777-.778A.778.778,0,0,0,369.8,135.137Z" transform="translate(-294.066 -55.113)" fill="#d5d1d2"/>
            <ellipse id="Эллипс_118" data-name="Эллипс 118" cx="0.373" cy="0.373" rx="0.373" ry="0.373" transform="translate(18.771 76.871)" fill="#d5d1d2"/>
            <path id="Контур_18006" data-name="Контур 18006" d="M479.062,85.084a1.025,1.025,0,1,0,1.025-1.025A1.025,1.025,0,0,0,479.062,85.084Z" transform="translate(-474.016 -37.127)" fill="#d5d1d2"/>
            <ellipse id="Эллипс_119" data-name="Эллипс 119" cx="1.243" cy="1.243" rx="1.243" ry="1.243" transform="translate(34.77 50.313)" fill="#d5d1d2"/>
            <ellipse id="Эллипс_120" data-name="Эллипс 120" cx="1.217" cy="1.217" rx="1.217" ry="1.217" transform="translate(27.191 27.336)" fill="#d5d1d2"/>
            <ellipse id="Эллипс_121" data-name="Эллипс 121" cx="0.523" cy="0.523" rx="0.523" ry="0.523" transform="translate(17.925 17.042)" fill="#d5d1d2"/>
            <ellipse id="Эллипс_122" data-name="Эллипс 122" cx="0.926" cy="0.926" rx="0.926" ry="0.926" transform="translate(43.584 0.605)" fill="#d5d1d2"/>
            <path id="Контур_18007" data-name="Контур 18007" d="M384.067,24.232a.965.965,0,1,0,.965-.964A.965.965,0,0,0,384.067,24.232Z" transform="translate(-317.874 -15.389)" fill="#d5d1d2"/>
            <path id="Контур_18008" data-name="Контур 18008" d="M361.163,12.828a.826.826,0,1,0,.826-.826A.826.826,0,0,0,361.163,12.828Z" transform="translate(-279.978 -11.361)" fill="#d5d1d2"/>
            <path id="Контур_18009" data-name="Контур 18009" d="M340.6,39.758a1.031,1.031,0,1,0,1.031-1.032A1.031,1.031,0,0,0,340.6,39.758Z" transform="translate(-246.608 -20.917)" fill="#d5d1d2"/>
            <path id="Контур_18010" data-name="Контур 18010" d="M337.744,48.7a.763.763,0,1,0,.763-.763A.762.762,0,0,0,337.744,48.7Z" transform="translate(-241.388 -24.212)" fill="#d5d1d2"/>
            <path id="Контур_18011" data-name="Контур 18011" d="M345.975,107.089a.763.763,0,1,0,.763-.763A.762.762,0,0,0,345.975,107.089Z" transform="translate(-254.907 -45.089)" fill="#d5d1d2"/>
            <path id="Контур_18012" data-name="Контур 18012" d="M321.957,14.791a.882.882,0,1,0,.882-.882A.882.882,0,0,0,321.957,14.791Z" transform="translate(-215.698 -12.043)" fill="#d5d1d2"/>
            <ellipse id="Эллипс_123" data-name="Эллипс 123" cx="0.459" cy="0.459" rx="0.459" ry="0.459" transform="translate(111.26 27.945)" fill="#d5d1d2"/>
            <path id="Контур_18013" data-name="Контур 18013" d="M318.155,66.473a.317.317,0,1,0,.317-.317A.317.317,0,0,0,318.155,66.473Z" transform="translate(-208.324 -30.725)" fill="#d5d1d2"/>
            <ellipse id="Эллипс_124" data-name="Эллипс 124" cx="0.907" cy="0.907" rx="0.907" ry="0.907" transform="translate(116.878 41.094)" fill="#d5d1d2"/>
            <path id="Контур_18014" data-name="Контур 18014" d="M266.32,88.69a.551.551,0,1,0,.551-.551A.551.551,0,0,0,266.32,88.69Z" transform="translate(-123.657 -38.586)" fill="#d5d1d2"/>
            <ellipse id="Эллипс_125" data-name="Эллипс 125" cx="0.47" cy="0.47" rx="0.47" ry="0.47" transform="translate(129.321 60.198)" fill="#d5d1d2"/>
            <path id="Контур_18015" data-name="Контур 18015" d="M264.127,97.153a.8.8,0,1,0,.8-.8A.8.8,0,0,0,264.127,97.153Z" transform="translate(-120.551 -41.524)" fill="#d5d1d2"/>
            <ellipse id="Эллипс_126" data-name="Эллипс 126" cx="0.535" cy="0.535" rx="0.535" ry="0.535" transform="translate(154.116 61.105)" fill="#d5d1d2"/>
            <path id="Контур_18016" data-name="Контур 18016" d="M199.254,203.835a.818.818,0,1,0,.818-.818A.818.818,0,0,0,199.254,203.835Z" transform="translate(-14.041 -79.664)" fill="#d5d1d2"/>
            <path id="Контур_18017" data-name="Контур 18017" d="M225.683,131.4a.535.535,0,1,0,.535-.535A.534.534,0,0,0,225.683,131.4Z" transform="translate(-56.882 -53.864)" fill="#d5d1d2"/>
            <path id="Контур_18018" data-name="Контур 18018" d="M197.473,87.421a1.144,1.144,0,1,0,1.144-1.144A1.144,1.144,0,0,0,197.473,87.421Z" transform="translate(-11.768 -37.92)" fill="#d5d1d2"/>
            <path id="Контур_18019" data-name="Контур 18019" d="M169.85,39.845a.875.875,0,1,0,.875-.876A.875.875,0,0,0,169.85,39.845Z" transform="translate(34.139 -21.004)" fill="#d5d1d2"/>
            <ellipse id="Эллипс_127" data-name="Эллипс 127" cx="0.855" cy="0.855" rx="0.855" ry="0.855" transform="translate(240.56 33.008)" fill="#d5d1d2"/>
            <path id="Контур_18020" data-name="Контур 18020" d="M148.313,68.6a1.129,1.129,0,1,0,1.129-1.129A1.129,1.129,0,0,0,148.313,68.6Z" transform="translate(69.004 -31.197)" fill="#d5d1d2"/>
            <path id="Контур_18021" data-name="Контур 18021" d="M135.064,21.467a.76.76,0,1,0,.76-.761A.76.76,0,0,0,135.064,21.467Z" transform="translate(91.502 -14.473)" fill="#d5d1d2"/>
            <ellipse id="Эллипс_128" data-name="Эллипс 128" cx="0.859" cy="0.859" rx="0.859" ry="0.859" transform="translate(254.397 8.715)" fill="#d5d1d2"/>
            <ellipse id="Эллипс_129" data-name="Эллипс 129" cx="0.701" cy="0.701" rx="0.701" ry="0.701" transform="translate(264.671 1.323)" fill="#d5d1d2"/>
            <path id="Контур_18022" data-name="Контур 18022" d="M78.047,75.331a1.109,1.109,0,1,0,1.109-1.109A1.109,1.109,0,0,0,78.047,75.331Z" transform="translate(184.45 -33.61)" fill="#d5d1d2"/>
            <path id="Контур_18023" data-name="Контур 18023" d="M47.374,39.312a.775.775,0,1,0,.775-.775A.775.775,0,0,0,47.374,39.312Z" transform="translate(235.496 -20.849)" fill="#d5d1d2"/>
            <path id="Контур_18024" data-name="Контур 18024" d="M32.293,80.1a1.024,1.024,0,1,0,1.025-1.025A1.024,1.024,0,0,0,32.293,80.1Z" transform="translate(259.767 -35.346)" fill="#d5d1d2"/>
            <path id="Контур_18025" data-name="Контур 18025" d="M12.5,86.238a.964.964,0,1,0,.964-.964A.964.964,0,0,0,12.5,86.238Z" transform="translate(292.397 -37.562)" fill="#d5d1d2"/>
            <ellipse id="Эллипс_130" data-name="Эллипс 130" cx="0.641" cy="0.641" rx="0.641" ry="0.641" transform="translate(277.032 53.534)" fill="#d5d1d2"/>
            <path id="Контур_18026" data-name="Контур 18026" d="M75.083,99.977a.182.182,0,1,0,.182-.182A.182.182,0,0,0,75.083,99.977Z" transform="translate(191.173 -42.754)" fill="#d5d1d2"/>
            <path id="Контур_18027" data-name="Контур 18027" d="M61.521,128.262a1.14,1.14,0,1,0,1.14-1.14A1.141,1.141,0,0,0,61.521,128.262Z" transform="translate(211.53 -52.526)" fill="#d5d1d2"/>
            <path id="Контур_18028" data-name="Контур 18028" d="M74,134.7a.846.846,0,1,0,.846-.846A.845.845,0,0,0,74,134.7Z" transform="translate(191.632 -54.934)" fill="#d5d1d2"/>
            <path id="Контур_18029" data-name="Контур 18029" d="M95.48,111.287a.389.389,0,1,0,.389-.389A.389.389,0,0,0,95.48,111.287Z" transform="translate(157.257 -46.724)" fill="#d5d1d2"/>
            <ellipse id="Эллипс_131" data-name="Эллипс 131" cx="0.691" cy="0.691" rx="0.691" ry="0.691" transform="translate(249.339 69.184)" fill="#d5d1d2"/>
            <path id="Контур_18030" data-name="Контур 18030" d="M94.455,150.4a1.14,1.14,0,1,0,1.14-1.139A1.139,1.139,0,0,0,94.455,150.4Z" transform="translate(157.44 -60.442)" fill="#d5d1d2"/>
            <path id="Контур_18031" data-name="Контур 18031" d="M135.9,156.72a1.233,1.233,0,1,0,1.233-1.233A1.233,1.233,0,0,0,135.9,156.72Z" transform="translate(89.183 -62.668)" fill="#d5d1d2"/>
            <path id="Контур_18032" data-name="Контур 18032" d="M109.438,164.344a.138.138,0,1,0,.138-.138A.138.138,0,0,0,109.438,164.344Z" transform="translate(134.835 -65.786)" fill="#d5d1d2"/>
            <ellipse id="Эллипс_132" data-name="Эллипс 132" cx="0.893" cy="0.893" rx="0.893" ry="0.893" transform="translate(242.271 102.998)" fill="#d5d1d2"/>
            <path id="Контур_18033" data-name="Контур 18033" d="M187.62,167.87a.541.541,0,1,0,.541-.541A.541.541,0,0,0,187.62,167.87Z" transform="translate(5.622 -66.903)" fill="#d5d1d2"/>
            <path id="Контур_18034" data-name="Контур 18034" d="M143.372,199.619a.222.222,0,1,0,.222-.222A.221.221,0,0,0,143.372,199.619Z" transform="translate(78.934 -78.37)" fill="#d5d1d2"/>
            <path id="Контур_18035" data-name="Контур 18035" d="M143.505,234.108a.55.55,0,1,0,.55-.549A.55.55,0,0,0,143.505,234.108Z" transform="translate(78.06 -90.586)" fill="#d5d1d2"/>
            <ellipse id="Эллипс_133" data-name="Эллипс 133" cx="0.236" cy="0.236" rx="0.236" ry="0.236" transform="translate(234.758 147.424)" fill="#d5d1d2"/>
            <path id="Контур_18036" data-name="Контур 18036" d="M113.726,205.165a.874.874,0,1,0,.874-.874A.874.874,0,0,0,113.726,205.165Z" transform="translate(126.32 -80.12)" fill="#d5d1d2"/>
            <path id="Контур_18037" data-name="Контур 18037" d="M91.8,243.622a.338.338,0,1,0,.339-.339A.339.339,0,0,0,91.8,243.622Z" transform="translate(163.407 -94.063)" fill="#d5d1d2"/>
            <path id="Контур_18038" data-name="Контур 18038" d="M89.524,271.773a.636.636,0,1,0,.636-.636A.636.636,0,0,0,89.524,271.773Z" transform="translate(166.546 -104.023)" fill="#d5d1d2"/>
            <path id="Контур_18039" data-name="Контур 18039" d="M35.692,224.578a.376.376,0,1,0,.376-.376A.376.376,0,0,0,35.692,224.578Z" transform="translate(255.481 -87.24)" fill="#d5d1d2"/>
            <ellipse id="Эллипс_134" data-name="Эллипс 134" cx="0.845" cy="0.845" rx="0.845" ry="0.845" transform="translate(274.786 170.331)" fill="#d5d1d2"/>
            <ellipse id="Эллипс_135" data-name="Эллипс 135" cx="1.281" cy="1.281" rx="1.281" ry="1.281" transform="translate(280.284 165.018)" fill="#d5d1d2"/>
            <path id="Контур_18040" data-name="Контур 18040" d="M29.3,261.609a.181.181,0,1,0,.181-.181A.181.181,0,0,0,29.3,261.609Z" transform="translate(266.373 -100.551)" fill="#d5d1d2"/>
            <path id="Контур_18041" data-name="Контур 18041" d="M24.743,299.221a.386.386,0,1,0,.386-.386A.386.386,0,0,0,24.743,299.221Z" transform="translate(273.444 -113.927)" fill="#d5d1d2"/>
            <ellipse id="Эллипс_136" data-name="Эллипс 136" cx="1.105" cy="1.105" rx="1.105" ry="1.105" transform="translate(294.495 201.426)" fill="#d5d1d2"/>
            <ellipse id="Эллипс_137" data-name="Эллипс 137" cx="0.481" cy="0.481" rx="0.481" ry="0.481" transform="translate(301.793 211.186)" fill="#d5d1d2"/>
            <path id="Контур_18042" data-name="Контур 18042" d="M14.673,344.068a.146.146,0,1,0,.146-.146A.146.146,0,0,0,14.673,344.068Z" transform="translate(290.462 -130.049)" fill="#d5d1d2"/>
            <ellipse id="Эллипс_138" data-name="Эллипс 138" cx="1.088" cy="1.088" rx="1.088" ry="1.088" transform="translate(113.884 21.452)" fill="#d5d1d2"/>
            <path id="Контур_18043" data-name="Контур 18043" d="M284.911,11.579a.576.576,0,1,0,.576-.575A.575.575,0,0,0,284.911,11.579Z" transform="translate(-154.24 -11.004)" fill="#d5d1d2"/>
            <path id="Контур_18044" data-name="Контур 18044" d="M255.732,23.3a.554.554,0,1,0,.554-.554A.555.555,0,0,0,255.732,23.3Z" transform="translate(-106.274 -15.204)" fill="#d5d1d2"/>
            <ellipse id="Эллипс_139" data-name="Эллипс 139" cx="0.36" cy="0.36" rx="0.36" ry="0.36" transform="translate(159.625 27.676)" fill="#d5d1d2"/>
            <path id="Контур_18045" data-name="Контур 18045" d="M231.006,24.739a.935.935,0,1,0,.935-.935A.935.935,0,0,0,231.006,24.739Z" transform="translate(-66.425 -15.581)" fill="#d5d1d2"/>
            <path id="Контур_18046" data-name="Контур 18046" d="M211.158,12.22a.4.4,0,1,0,.4-.4A.4.4,0,0,0,211.158,12.22Z" transform="translate(-32.755 -11.296)" fill="#d5d1d2"/>
            <path id="Контур_18047" data-name="Контур 18047" d="M190.772,29.886a1.172,1.172,0,1,0,1.172-1.172A1.172,1.172,0,0,0,190.772,29.886Z" transform="translate(-0.818 -17.337)" fill="#d5d1d2"/>
            <ellipse id="Эллипс_140" data-name="Эллипс 140" cx="0.448" cy="0.448" rx="0.448" ry="0.448" transform="translate(282.732 117.167)" fill="#d5d1d2"/>
            <path id="Контур_18048" data-name="Контур 18048" d="M31.073,184.308a.323.323,0,1,0,.323-.322A.323.323,0,0,0,31.073,184.308Z" transform="translate(263.173 -72.859)" fill="#d5d1d2"/>
            <ellipse id="Эллипс_141" data-name="Эллипс 141" cx="1.239" cy="1.239" rx="1.239" ry="1.239" transform="translate(292.661 95.423)" fill="#d5d1d2"/>
            <path id="Контур_18049" data-name="Контур 18049" d="M21.048,121.109a.523.523,0,1,0,.523-.523A.523.523,0,0,0,21.048,121.109Z" transform="translate(279.238 -50.188)" fill="#d5d1d2"/>
            <ellipse id="Эллипс_142" data-name="Эллипс 142" cx="0.954" cy="0.954" rx="0.954" ry="0.954" transform="translate(283.347 83.083)" fill="#d5d1d2"/>
          </g>
        </g>
        <g id="Сгруппировать_455" data-name="Сгруппировать 455" transform="translate(48.385 30.191)">
          <ellipse id="Эллипс_143" data-name="Эллипс 143" cx="47.275" cy="2.456" rx="47.275" ry="2.456" transform="translate(26.066 219.796)" fill="#24272d" opacity="0.5"/>
          <ellipse id="Эллипс_144" data-name="Эллипс 144" cx="5.526" cy="0.614" rx="5.526" ry="0.614" transform="translate(153.771 219.796)" fill="#24272d" opacity="0.5"/>
          <g id="Сгруппировать_454" data-name="Сгруппировать 454" transform="translate(0 0)">
            <g id="Сгруппировать_436" data-name="Сгруппировать 436" transform="translate(0)">
              <g id="Сгруппировать_406" data-name="Сгруппировать 406" transform="translate(13.913 50.559)">
                <path id="Контур_17893" data-name="Контур 17893" d="M310.269,169.3c2.3.656,19.449,55.26,4.586,100.194H243.1s-13.967-40.9-15.132-93.957c-.128-5.829,2.077-11.339,7.82-12.342C249.291,160.838,274.855,159.2,310.269,169.3Z" transform="translate(-227.967 -161.418)" fill="#d5d1d2"/>
                <g id="Сгруппировать_405" data-name="Сгруппировать 405" transform="translate(1.458 15.742)">
                  <path id="Контур_17894" data-name="Контур 17894" d="M361.862,219.117c.3,3.834,1.887,6.838,3.545,6.708s2.759-3.343,2.458-7.178-1.887-6.838-3.545-6.708S361.562,215.282,361.862,219.117Z" transform="translate(-360.635 -195.916)" fill="#c10020"/>
                  <path id="Контур_17895" data-name="Контур 17895" d="M363.794,193.534c.15,3.843,1.619,6.906,3.281,6.842s2.887-3.233,2.737-7.077-1.62-6.906-3.281-6.842S363.643,189.691,363.794,193.534Z" transform="translate(-363.781 -186.456)" fill="#215261"/>
                </g>
                <path id="Контур_17896" data-name="Контур 17896" d="M299.94,168.947c2.1.529,18.016,54.931,4.071,101.444H239.689a508.688,508.688,0,0,1-11.763-91.132c-.189-5.717,2.238-11.23,7.6-12.551C247.247,163.821,269.085,161.174,299.94,168.947Z" transform="translate(-216.758 -162.313)" fill="#bfbfbf"/>
              </g>
              <g id="Сгруппировать_430" data-name="Сгруппировать 430" transform="translate(0 27.126)">
                <g id="Сгруппировать_408" data-name="Сгруппировать 408" transform="translate(110.723 73.422)">
                  <path id="Контур_17897" data-name="Контур 17897" d="M151.271,240.929c17.474,17.107,21.123,21.632,43.941,10.176,0,0-7.184,8.826,0,29.531,0,0-18.669,18.7-44.9-1.211Z" transform="translate(-150.315 -240.929)" fill="#d5d1d2"/>
                  <path id="Контур_17898" data-name="Контур 17898" d="M163.964,285.11c-7.184-20.705,0-29.531,0-29.531,3.163-5.858-10.108-.8-12.178,5.143s-4.341,23.664,1.378,30.69C155.519,294.3,166.2,288.49,163.964,285.11Z" transform="translate(-119.067 -245.403)" fill="#d5d1d2"/>
                  <g id="Сгруппировать_407" data-name="Сгруппировать 407" transform="translate(38.017 4.088)">
                    <path id="Контур_17899" data-name="Контур 17899" d="M115.3,255.719c.416-1.52,2.746-4.1,4.65-6.01a7.443,7.443,0,0,1,5.965-2.153l16.041,1.483,1.9,10.39L141,260.7s2.733,6.9.025,20.779c0,0-10.313,11.674-19.739,4.925C113.138,280.573,113.818,261.118,115.3,255.719Z" transform="translate(-114.381 -247.466)" fill="#00a7ce"/>
                    <path id="Контур_17900" data-name="Контур 17900" d="M125.772,292.552c-5.152-3.687-6.773-12.815-6.9-20.4,4.761-4.034,4.972-8.082,4.972-8.082l.334,13.609a18.036,18.036,0,0,0,2.4.966s.087,9.435,1.5,10.954,11.017,3.059,17.43-1.976C145.511,287.627,135.2,299.3,125.772,292.552Z" transform="translate(-118.865 -253.611)" fill="#215261"/>
                    <path id="Контур_17901" data-name="Контур 17901" d="M138.321,247.611a7.591,7.591,0,0,1,3.083,3.327,15.286,15.286,0,0,1,.887,2.1,18.026,18.026,0,0,1,.625,2.2,32.807,32.807,0,0,1,.7,9.111,17.373,17.373,0,0,1-.756,4.28,3.936,3.936,0,0,1-2.071,2.559,7.33,7.33,0,0,1-3.81.286,19.212,19.212,0,0,1-4.214-1.2l.746,1.188-.282-3.4-.354-3.4c-.141-1.132-.275-2.263-.433-3.394l-.25-1.7-.293-1.695-.189,0,.285,13.611,0,.087.076.037a18.5,18.5,0,0,0,4.6,1.548,8.609,8.609,0,0,0,4.842-.292,5.133,5.133,0,0,0,1.982-1.479,6.878,6.878,0,0,0,1.129-2.189,17.959,17.959,0,0,0,.759-4.793,28.813,28.813,0,0,0-.233-4.834,27.086,27.086,0,0,0-1.025-4.728,16.85,16.85,0,0,0-2.038-4.386,7.442,7.442,0,0,0-3.7-3.048Z" transform="translate(-126.821 -247.432)" fill="#215261"/>
                    <path id="Контур_17902" data-name="Контур 17902" d="M127.007,266.46l-12.626,4.593.768,1.723Z" transform="translate(-97.536 -254.497)" fill="#215261"/>
                    <path id="Контур_17903" data-name="Контур 17903" d="M138.744,296.23a16.571,16.571,0,0,1-6.737,2.78,20.663,20.663,0,0,1-7.232-.039l-.872-.2-.844-.256a7.46,7.46,0,0,1-.773-.338c-.11-.067-.243-.126-.334-.2a2.443,2.443,0,0,1-.223-.206c-.043-.1-.1-.152-.147-.271l-.135-.368c-.071-.271-.15-.541-.2-.831-.111-.575-.191-1.169-.25-1.769a66.467,66.467,0,0,1-.235-7.293l-1.886.018a67.982,67.982,0,0,0,.719,7.465c.1.622.226,1.246.389,1.873a5.073,5.073,0,0,0,.856,1.948,3.128,3.128,0,0,0,.477.39,5.21,5.21,0,0,0,.478.245,8.543,8.543,0,0,0,.945.343c.314.074.628.156.942.221l.943.155a21.346,21.346,0,0,0,7.481-.43A16.808,16.808,0,0,0,138.744,296.23Z" transform="translate(-112.098 -262.214)" fill="#215261"/>
                  </g>
                </g>
                <g id="Сгруппировать_409" data-name="Сгруппировать 409" transform="translate(22.585 62.07)">
                  <path id="Контур_17904" data-name="Контур 17904" d="M294.792,234.225c17.651,21.262,8.783,67.659-18.832,107.265,0,0,8.845,4.442,8.845,11.71H257.083V340.48c0-11.616,8.609-18.724,9.395-28.869.927-11.964-11.061-14.076-14.493-1.481-1.709,6.271,3.887,19.8,3.887,30.35V353.2H229.584a13.727,13.727,0,0,1,7.268-12.517S229.583,317.667,218.927,289s-20.163-42.465-6.325-59.59S294.792,234.225,294.792,234.225Z" transform="translate(-205.698 -222.872)" fill="#f7f7f7"/>
                  <path id="Контур_17905" data-name="Контур 17905" d="M291.518,325.5s-21.881-17.225-80.091,1.615L210.9,325.5c58.21-18.839,81.09-1.818,81.09-1.818Z" transform="translate(-197.045 -257.683)" fill="#c3d924"/>
                  <path id="Контур_17906" data-name="Контур 17906" d="M328.429,341.054s-7.269-23.015-17.925-51.683-20.163-42.465-6.325-59.59c2.588-3.2,7.081-5.038,12.677-5.907l15.864,18.388s-16.441,19.6-6.923,39.126c12.526,25.7,6.583,49.875,12.119,61.181,0,0-4.235,2.524-4.4,11H321.161A13.727,13.727,0,0,1,328.429,341.054Z" transform="translate(-297.275 -223.244)" fill="#d5d1d2"/>
                  <path id="Контур_17907" data-name="Контур 17907" d="M329.545,324.8c-5.261,1.234-10.889,2.791-16.912,4.739l-.584-1.582,0-.013c6-1.941,11.614-3.5,16.874-4.734C329.137,323.741,329.341,324.269,329.545,324.8Z" transform="translate(-298.189 -260.127)" fill="#a1b41e"/>
                  <path id="Контур_17908" data-name="Контур 17908" d="M258.507,348.166c9.619.171,14.768,9.722,11.124,19.13a131.273,131.273,0,0,0-6.766,21.812c2.332,2.332,2.2,6.6,2.153,10.613H254.924V387c0-11.616,8.609-18.724,9.395-28.869C264.791,352.031,261.9,348.5,258.507,348.166Z" transform="translate(-203.538 -269.394)" fill="#d5d1d2"/>
                  <path id="Прямоугольник_963" data-name="Прямоугольник 963" d="M0,0H27.722a0,0,0,0,1,0,0V.257a2.5,2.5,0,0,1-2.5,2.5H2.5A2.5,2.5,0,0,1,0,.257V0A0,0,0,0,1,0,0Z" transform="translate(51.385 130.327)" fill="#215261"/>
                  <path id="Прямоугольник_964" data-name="Прямоугольник 964" d="M0,0H26.316a0,0,0,0,1,0,0V.257a2.5,2.5,0,0,1-2.5,2.5H2.5A2.5,2.5,0,0,1,0,.257V0A0,0,0,0,1,0,0Z" transform="translate(23.854 130.327)" fill="#215261"/>
                </g>
                <g id="Сгруппировать_410" data-name="Сгруппировать 410" transform="translate(73.249 174.758)">
                  <path id="Контур_17909" data-name="Контур 17909" d="M246.058,407.031c2.27,2.05,12.049,3.457,18.977,1.508,1.911-.481,3.635-4.5,2.642-4.546l-.256.388c-.873.87-16.842,1.481-20.924-1.853l.077-.4s-.764-.321-1.116,1.591C244.981,406.322,246.058,407.031,246.058,407.031Z" transform="translate(-245.337 -402.112)" fill="#00a7ce"/>
                  <path id="Контур_17910" data-name="Контур 17910" d="M274.649,409.138c.057.057.106.121.16.18-3.751-.342-6.928-1.228-8.1-2.287,0,0-1.077-.709-.6-3.308.352-1.913,1.116-1.591,1.116-1.591l-.077.4c1.576,1.287,4.923,1.985,8.488,2.308C275.288,406.22,274.958,407.648,274.649,409.138Z" transform="translate(-265.986 -402.112)" fill="#00a7ce"/>
                </g>
                <g id="Сгруппировать_411" data-name="Сгруппировать 411" transform="translate(44.704 146.18)">
                  <path id="Контур_17911" data-name="Контур 17911" d="M289.624,372.784c1.049,6.935,6.693,11.832,12.606,10.938s9.855-7.241,8.807-14.176-6.693-11.832-12.605-10.938S288.576,365.849,289.624,372.784Z" transform="translate(-287.768 -357.342)" fill="#215261"/>
                  <ellipse id="Эллипс_107" data-name="Эллипс 107" cx="12.416" cy="10.586" rx="12.416" ry="10.586" transform="translate(3.713 27.718) rotate(-98.601)" fill="#00a7ce"/>
                  <path id="Контур_17912" data-name="Контур 17912" d="M309.787,359.115a9.182,9.182,0,0,1,3.83.246c1.129,9.061,1.142,17.212,1.875,23.764a9.093,9.093,0,0,1-1.992.541c-5.78.875-11.3-3.913-12.323-10.692S304.007,359.99,309.787,359.115Z" transform="translate(-299.321 -357.532)" fill="#28697b"/>
                </g>
                <g id="Сгруппировать_412" data-name="Сгруппировать 412" transform="translate(95.944 151.043)">
                  <path id="Контур_17913" data-name="Контур 17913" d="M225.365,373.277c-2.352,4.607-3.873,10.644-1.09,12.008s8.054-1.674,10.853-7.385,2.063-11.932-.72-13.3S227.717,368.669,225.365,373.277Z" transform="translate(-222.776 -364.391)" fill="#215261"/>
                </g>
                <g id="Сгруппировать_413" data-name="Сгруппировать 413" transform="translate(96.366 151.208)">
                  <path id="Контур_17914" data-name="Контур 17914" d="M225.313,373.616c-2.348,4.61-3.928,10.618-1.286,11.912s7.758-1.819,10.557-7.53,2.219-11.855-.423-13.15S227.661,369.007,225.313,373.616Z" transform="translate(-222.653 -364.654)" fill="#00a7ce"/>
                </g>
                <g id="Сгруппировать_418" data-name="Сгруппировать 418" transform="translate(29.147)">
                  <path id="Контур_17915" data-name="Контур 17915" d="M211.817,181.826c.035,8.371,3.118,15.144,6.885,15.128s6.791-6.815,6.755-15.186-3.118-15.144-6.885-15.128S211.781,173.455,211.817,181.826Z" transform="translate(-137.65 -139.924)" fill="#d5d1d2"/>
                  <path id="Контур_17916" data-name="Контур 17916" d="M216.636,167.686c1.068,22.721,26.011,40.008,48.731,38.94s34.615-20.086,33.547-42.807-14.766-37.367-37.414-39.472C237.283,122.1,215.279,138.8,216.636,167.686Z" transform="translate(-214.167 -124.146)" fill="#f7f7f7"/>
                  <path id="Контур_17917" data-name="Контур 17917" d="M296.427,228.839c-11.112,6.82-43.037,9.007-66.809-6.5a2.231,2.231,0,0,0-2.768.283l-6.645,6.458s20.63,14.991,48.652,14.991c25.449,0,33.538-10.176,33.538-10.176l-2.932-4.39A2.238,2.238,0,0,0,296.427,228.839Z" transform="translate(-219.863 -160.472)" fill="#f7f7f7"/>
                  <path id="Контур_17918" data-name="Контур 17918" d="M294.839,144.17c10.884,11.662,3.023,34.811,3.023,34.811,3.326,10.343,15.433,17.543,15.433,17.543-8.853-.079-8.566,8.6-8.562,8.7a89.688,89.688,0,0,1-28.54-12.475h0l6.645-6.458a2.247,2.247,0,0,1,1.731-.631,34.651,34.651,0,0,1-6.249-17.977c-1.357-28.882,20.647-45.589,44.864-43.338C299.072,124.956,294.839,144.17,294.839,144.17Z" transform="translate(-275.849 -124.146)" fill="#d5d1d2"/>
                  <path id="Контур_17919" data-name="Контур 17919" d="M226.357,247.793a91.75,91.75,0,0,0,14.576,4.171,82.363,82.363,0,0,0,15.125,1.5q3.807.04,7.618-.25c1.266-.134,2.536-.238,3.794-.442,1.261-.184,2.512-.436,3.76-.7a46.94,46.94,0,0,0,7.292-2.3c1.176-.493,2.329-1.041,3.45-1.645a29.618,29.618,0,0,0,3.208-2.057l-.069-.106a42.729,42.729,0,0,1-6.9,2.988,52.911,52.911,0,0,1-7.245,1.894c-1.224.243-2.453.474-3.692.638-1.233.206-2.477.344-3.719.494-2.49.265-4.994.431-7.5.483a81.613,81.613,0,0,1-15.008-1.117,91.394,91.394,0,0,1-14.645-3.671Z" transform="translate(-206.514 -169.377)" fill="#d5d1d2"/>
                  <path id="Контур_17920" data-name="Контур 17920" d="M296.457,228.965a35.082,35.082,0,0,1-8.161,2.843,63.551,63.551,0,0,1-8.539,1.336,91.931,91.931,0,0,1-17.3.077,80.325,80.325,0,0,1-16.978-3.491,68.9,68.9,0,0,1-15.767-7.267l-.069.105a69.279,69.279,0,0,0,15.636,7.758,81.124,81.124,0,0,0,17.069,3.894,73.254,73.254,0,0,0,17.541.173,56.745,56.745,0,0,0,8.625-1.738,40.813,40.813,0,0,0,4.147-1.482,23.816,23.816,0,0,0,3.857-2.1Z" transform="translate(-219.926 -160.651)" fill="#d5d1d2"/>
                  <path id="Контур_17921" data-name="Контур 17921" d="M249.244,228.429a13.058,13.058,0,0,1,.788,3.622,7.222,7.222,0,0,1-.612,3.377l-.177.372.236.264a8.66,8.66,0,0,1,1.339,2.068,7.665,7.665,0,0,1,.693,2.393,6.461,6.461,0,0,1-.192,2.5,7.788,7.788,0,0,1-1.136,2.3l.1.079a7.45,7.45,0,0,0,1.432-2.249,6.653,6.653,0,0,0,.47-2.679,8.439,8.439,0,0,0-.549-2.686,10.2,10.2,0,0,0-1.311-2.449l.06.636a5.852,5.852,0,0,0,.822-1.956,5.4,5.4,0,0,0,.009-2.111,6.622,6.622,0,0,0-.67-1.942,6,6,0,0,0-1.2-1.613Z" transform="translate(-187.912 -162.839)" fill="#d5d1d2"/>
                  <g id="Сгруппировать_414" data-name="Сгруппировать 414" transform="translate(26.943 13.152)">
                    <path id="Контур_17922" data-name="Контур 17922" d="M271.4,155.872c6,9.9,6.538,26.58,1.612,34.541,0,0-5.392,10.142-24.84,9.133-21.688-1.125-23.494-12.209-24.411-14.952-1.982-5.931-3.565-18.759.218-28.693C228.849,143.106,264.254,144.09,271.4,155.872Z" transform="translate(-221.677 -145.66)" fill="#fff"/>
                    <path id="Контур_17923" data-name="Контур 17923" d="M269.7,154.228c5.974,9.851,6.508,26.458,1.6,34.382,0,0-5.367,10.1-24.726,9.09-21.588-1.12-23.386-12.152-24.3-14.883-1.972-5.9-3.549-18.671.216-28.56C227.345,141.521,262.586,142.5,269.7,154.228Z" transform="translate(-219.028 -145.065)" fill="#215261"/>
                    <path id="Контур_17924" data-name="Контур 17924" d="M270.326,155.613c5.866,9.673,6.391,25.981,1.576,33.761,0,0-5.27,9.913-24.28,8.927-21.2-1.1-22.964-11.933-23.86-14.615-1.936-5.8-3.485-18.335.213-28.045C228.737,143.136,263.342,144.1,270.326,155.613Z" transform="translate(-220.524 -145.641)" fill="#28697b"/>
                    <path id="Контур_17925" data-name="Контур 17925" d="M278.152,202.916s-9.534-4.09-20.747-14.328a70.7,70.7,0,0,1-16.759-23.178,31.7,31.7,0,0,1,.89-3.106,78.414,78.414,0,0,0,18.12,24.642A115.471,115.471,0,0,0,281.127,201.9,27.079,27.079,0,0,1,278.152,202.916Z" transform="translate(-238.387 -151.466)" fill="#00a7ce"/>
                    <path id="Контур_17926" data-name="Контур 17926" d="M275.936,207.75c-21.2-1.1-22.964-11.933-23.86-14.615a50.161,50.161,0,0,1-1.554-21.072s3.749,10,15.306,21.049c10.809,10.335,19.841,14.1,19.841,14.1A42.31,42.31,0,0,1,275.936,207.75Z" transform="translate(-248.839 -155.09)" fill="#00a7ce"/>
                  </g>
                  <g id="Сгруппировать_416" data-name="Сгруппировать 416" transform="translate(31.543 20.024)">
                    <g id="Сгруппировать_415" data-name="Сгруппировать 415" transform="translate(26.076)">
                      <path id="Контур_17927" data-name="Контур 17927" d="M227.705,160.8a14.32,14.32,0,0,1,3.509,1.931,7.744,7.744,0,0,1,1.336,1.31c.179.216.389.557.583.831.185.3.38.593.556.9a30.386,30.386,0,0,1,3.156,8.086,35.126,35.126,0,0,1,1.016,8.795,18.532,18.532,0,0,1-1.983,8.646,14.669,14.669,0,0,0,1.973-4.092,25.707,25.707,0,0,0,.951-4.486,36.553,36.553,0,0,0-.1-9.21,32.753,32.753,0,0,0-2.493-9.032,20.978,20.978,0,0,0-1.129-2.175,10.91,10.91,0,0,0-1.676-2.047,17.689,17.689,0,0,0-4.112-2.881l0,0a1.889,1.889,0,0,0-1.762,3.342A1.8,1.8,0,0,0,227.705,160.8Z" transform="translate(-218.098 -156.427)" fill="#00a7ce"/>
                      <path id="Контур_17928" data-name="Контур 17928" d="M251.613,155.995a40.542,40.542,0,0,1,5.169.888" transform="translate(-251.613 -155.995)" fill="none" stroke="#00a7ce" stroke-linecap="round" stroke-miterlimit="10" stroke-width="6"/>
                    </g>
                    <path id="Контур_17929" data-name="Контур 17929" d="M291,210.034c-1.137-.592-2.267-1.137-3.359-1.739s-2.153-1.23-3.164-1.919a29.341,29.341,0,0,1-2.9-2.209c-.465-.39-.907-.807-1.346-1.233l-.656-.646c-.208-.218-.4-.406-.585-.635a15.915,15.915,0,0,1-1.94-2.964,31.3,31.3,0,0,1-1.445-3.361,67.767,67.767,0,0,1-2.025-7.224,27.821,27.821,0,0,0,.7,7.619,21.093,21.093,0,0,0,1.231,3.7,14.316,14.316,0,0,0,2.05,3.431c.208.264.463.522.687.761s.455.456.693.676c.477.439.963.875,1.475,1.281a20.512,20.512,0,0,0,3.266,2.145A21.657,21.657,0,0,0,291,210.034Z" transform="translate(-273.55 -167.917)" fill="#f7f7f7"/>
                  </g>
                  <g id="Сгруппировать_417" data-name="Сгруппировать 417" transform="translate(0 19.262)">
                    <ellipse id="Эллипс_108" data-name="Эллипс 108" cx="18.339" cy="8.603" rx="18.339" ry="8.603" transform="translate(6.507 36.752) rotate(-90.245)" fill="#28697b"/>
                    <path id="Контур_17930" data-name="Контур 17930" d="M315.6,158.644l6.193-1.824v.005a3.955,3.955,0,0,1,1.062-.158c4.454-.019,8.1,7.664,8.139,17.16s-3.538,17.209-7.992,17.228a3.9,3.9,0,0,1-.949-.119v0l-6.322-1.748Z" transform="translate(-308.433 -155.483)" fill="#d5d1d2"/>
                    <ellipse id="Эллипс_109" data-name="Эллипс 109" cx="15.275" cy="7.165" rx="15.275" ry="7.165" transform="translate(0.131 33.74) rotate(-90.245)" fill="#f7f7f7"/>
                    <path id="Контур_17931" data-name="Контур 17931" d="M338.756,177.011l-5.169,1.491c.347,5.96,2.6,10.477,5.221,10.467,2.861-.013,5.192-5.421,5.164-11.98s-2.405-11.948-5.267-11.936c-2.452.011-4.572,3.985-5.06,9.485Z" transform="translate(-332.722 -158.597)" fill="#215261"/>
                    <path id="Контур_17932" data-name="Контур 17932" d="M339.717,177.056l-5.169,1.491c.347,5.96,2.6,10.478,5.221,10.467,2.861-.013,5.192-5.42,5.164-11.98s-2.405-11.948-5.267-11.935c-2.452.01-4.572,3.984-5.06,9.484Z" transform="translate(-334.287 -158.614)" fill="#00a7ce"/>
                  </g>
                </g>
                <g id="Сгруппировать_422" data-name="Сгруппировать 422" transform="translate(0 68.606)">
                  <path id="Контур_17933" data-name="Контур 17933" d="M354.923,233.269c18.739,7.854,20.369,31.377,8.443,37.257s-1.253,12.689,3.825,15.231c4.857,2.431,2.265,27.186-17.027,21.4,0,0-32.349-16.121-23.051-43.471C333.572,244.676,354.923,233.269,354.923,233.269Z" transform="translate(-325.433 -233.269)" fill="#f7f7f7"/>
                  <g id="Сгруппировать_419" data-name="Сгруппировать 419" transform="translate(22.765 52.488)">
                    <path id="Контур_17934" data-name="Контур 17934" d="M331.4,316.755s13.591,8,11.788,16.109-11,19.521-21.684,18c-14.248-2.028-7.5-15.211-7.5-15.211Z" transform="translate(-312.41 -316.755)" fill="#28697b"/>
                    <path id="Контур_17935" data-name="Контур 17935" d="M324.042,342.457,347.15,321.47s2.317,7.3-3.407,14.961a21.172,21.172,0,0,1-11.642,7.991,2.538,2.538,0,0,0-1.489,3.814,9.7,9.7,0,0,0,1.858,2.11c3.289,2.807-7.475,2.823-8.443-5.277A16.683,16.683,0,0,1,324.042,342.457Z" transform="translate(-323.945 -318.506)" fill="#215261"/>
                  </g>
                  <path id="Контур_17936" data-name="Контур 17936" d="M343.326,311.1c.481-2.066,6.547.837,9.07,4.96,2.172,3.55-1.206,19.329-16.021,22.817-9.69,2.282-11.876-7.578-11.876-7.578S338.748,330.765,343.326,311.1Z" transform="translate(-306.886 -261.914)" fill="#f7f7f7"/>
                  <path id="Контур_17937" data-name="Контур 17937" d="M343.577,263.682c6.461-19.006,27.811-30.413,27.811-30.413a27.532,27.532,0,0,1,5.682,3.216,122.051,122.051,0,0,0-20.088,18.791c-9.526,11.3-2.1,31.509,14.676,40.9,0,0-4.84,3.668,4.555,12.32a22.106,22.106,0,0,1-4.825,1.738c-9.69,2.282-11.876-7.578-11.876-7.578C350.58,296.084,337.16,282.558,343.577,263.682Z" transform="translate(-341.898 -233.269)" fill="#d5d1d2"/>
                  <path id="Контур_17938" data-name="Контур 17938" d="M339.88,331.7a15.276,15.276,0,0,0,7.186-1.874,20.3,20.3,0,0,0,5.872-4.71l1.154-1.5a6.234,6.234,0,0,0,.529-.78l.492-.8a24.419,24.419,0,0,0,1.687-3.353c.5-1.145.81-2.36,1.2-3.533.266-1.215.507-2.431.7-3.646-.469,1.151-.866,2.309-1.29,3.452l-.745,1.67a17.052,17.052,0,0,1-.763,1.65,31.218,31.218,0,0,1-1.8,3.131c-.345.491-.617,1.034-1,1.492l-1.117,1.406a23.8,23.8,0,0,1-5.4,4.675A20.385,20.385,0,0,1,339.88,331.7Z" transform="translate(-322.266 -262.317)" fill="#d5d1d2"/>
                  <g id="Сгруппировать_420" data-name="Сгруппировать 420" transform="translate(8.009 5.953)">
                    <path id="Контур_17939" data-name="Контур 17939" d="M364.089,244.82c9.25-7.184,13.5,5.886,4.525,13.887-7.385,6.585-16.411,1.88-14.25-3.728A57.6,57.6,0,0,1,364.089,244.82Z" transform="translate(-354.039 -242.737)" fill="#00a7ce"/>
                    <path id="Контур_17940" data-name="Контур 17940" d="M361.567,258.793a17.155,17.155,0,0,0-2,2.956c-3.616-.714-5.975-3.6-4.752-6.768.137-.181.27-.367.409-.545l.008-.009a65.6,65.6,0,0,1,9.307-9.6h0c4.781-3.713,8.218-2.011,9.192,1.6A119.954,119.954,0,0,0,361.567,258.793Z" transform="translate(-354.494 -242.738)" fill="#28697b"/>
                  </g>
                  <g id="Сгруппировать_421" data-name="Сгруппировать 421" transform="translate(0.001 30.413)">
                    <path id="Контур_17941" data-name="Контур 17941" d="M378.5,293.088s-33.054-3.617-31.071-11.445a30.812,30.812,0,0,0-1.675,9.412c-.332,6.215,23,8.266,32.493,3.432Z" transform="translate(-345.75 -281.643)" fill="#c3d924"/>
                    <path id="Контур_17942" data-name="Контур 17942" d="M376.156,291.055a30.813,30.813,0,0,1,1.675-9.412c-.766,3.025,3.7,5.421,9.47,7.223a29.75,29.75,0,0,0,2.487,8.14C382.338,296.433,375.981,294.32,376.156,291.055Z" transform="translate(-376.152 -281.643)" fill="#a1b41e"/>
                  </g>
                </g>
                <g id="Сгруппировать_428" data-name="Сгруппировать 428" transform="translate(73.079 84.353)">
                  <g id="Сгруппировать_427" data-name="Сгруппировать 427" transform="translate(0)">
                    <path id="Контур_17943" data-name="Контур 17943" d="M257.149,284.7a10.175,10.175,0,0,1-3.875,2.157s-15.2-4.382-36.092-1.969c0,0,1.172-11.1-1.438-20.151,0,0,.8-4.182,3.41-5.624S257.149,284.7,257.149,284.7Z" transform="translate(-215.744 -258.592)" fill="#d5d1d2"/>
                    <path id="Контур_17944" data-name="Контур 17944" d="M250.857,261.127s3.645,14.8-1.512,23.3c-16.1-6.22-35.73-3.091-35.73-3.091,1.523-6.806-2.265-22.5-2.265-22.5S236.659,256.681,250.857,261.127Z" transform="translate(-207.94 -258.316)" fill="#f7f7f7"/>
                    <g id="Сгруппировать_426" data-name="Сгруппировать 426" transform="translate(12.344 11.666)">
                      <g id="Сгруппировать_423" data-name="Сгруппировать 423" transform="translate(0 4.111)">
                        <path id="Контур_17945" data-name="Контур 17945" d="M251.865,284.7h.023c1.7-.061,5.424-.027,5.462-.027h.006a.629.629,0,0,0,.005-1.257c-.154,0-3.789-.033-5.518.028a.629.629,0,0,0,.022,1.257Z" transform="translate(-251.237 -283.409)" fill="#215261"/>
                      </g>
                      <g id="Сгруппировать_424" data-name="Сгруппировать 424" transform="translate(0 2.055)">
                        <path id="Контур_17946" data-name="Контур 17946" d="M251.865,281.434h.023c1.7-.06,5.424-.028,5.462-.027a.621.621,0,0,0,.634-.623.629.629,0,0,0-.624-.634c-.154,0-3.789-.033-5.518.028a.629.629,0,0,0,.022,1.257Z" transform="translate(-251.237 -280.139)" fill="#28697b"/>
                      </g>
                      <g id="Сгруппировать_425" data-name="Сгруппировать 425" transform="translate(0)">
                        <path id="Контур_17947" data-name="Контур 17947" d="M251.865,278.165h.023c1.7-.061,5.424-.028,5.462-.027h.006a.629.629,0,0,0,.005-1.257c-.153,0-3.788-.034-5.518.028a.629.629,0,0,0,.022,1.257Z" transform="translate(-251.237 -276.871)" fill="#00a7ce"/>
                      </g>
                    </g>
                  </g>
                  <path id="Контур_17948" data-name="Контур 17948" d="M224.03,276.185c-.007,2.53,1.576,4.586,3.536,4.591s3.553-2.041,3.56-4.572-1.576-4.586-3.535-4.591S224.037,273.654,224.03,276.185Z" transform="translate(-194.93 -263.253)" fill="#c3d924"/>
                  <path id="Контур_17949" data-name="Контур 17949" d="M238.3,269.458a2.011,2.011,0,1,0,1.954-2.509A2.286,2.286,0,0,0,238.3,269.458Z" transform="translate(-214.964 -261.521)" fill="#ef4864"/>
                  <path id="Контур_17950" data-name="Контур 17950" d="M253.262,282.732a56.3,56.3,0,0,0-6.009-1.264c-2.025-.311-4.062-.567-6.11-.7-2.046-.145-4.1-.19-6.154-.148a56.584,56.584,0,0,0-6.141.5l.317.313a27.863,27.863,0,0,0-.265-6.829,25.255,25.255,0,0,0-1.9-6.521,28.97,28.97,0,0,1,.951,3.248,31.1,31.1,0,0,1,.571,3.325,30.346,30.346,0,0,1,.216,3.361,29.025,29.025,0,0,1-.129,3.348l-.039.353.356-.04c2.021-.227,4.048-.4,6.083-.436,2.033-.066,4.071-.045,6.1.074s4.069.253,6.094.505S251.252,282.349,253.262,282.732Z" transform="translate(-218.93 -261.943)" fill="#d5d1d2"/>
                </g>
                <g id="Сгруппировать_429" data-name="Сгруппировать 429" transform="translate(51.939 174.966)">
                  <path id="Контур_17951" data-name="Контур 17951" d="M301.777,407.154s-5.816,3.812-19.02.2c-1.268-.347-2.386-4.328-1.459-4.526l.115.353s12.767,3.434,20.1-.3l-.05-.444C302.512,402.5,303.012,406.093,301.777,407.154Z" transform="translate(-280.956 -402.443)" fill="#00a7ce"/>
                  <path id="Контур_17952" data-name="Контур 17952" d="M297.617,403.058l.115.354a49.554,49.554,0,0,0,9.363,1.4,20.574,20.574,0,0,0,1.468,4.29l-.033.021a41.313,41.313,0,0,1-9.453-1.535C297.808,407.238,296.69,403.257,297.617,403.058Z" transform="translate(-297.275 -402.671)" fill="#00a7ce"/>
                </g>
              </g>
              <g id="Сгруппировать_435" data-name="Сгруппировать 435" transform="translate(110.858)">
                <g id="Сгруппировать_431" data-name="Сгруппировать 431" transform="translate(48.403 8.148)">
                  <path id="Контур_17953" data-name="Контур 17953" d="M122.287,191.054l1.857.172,5.538-97.265h-1.867Z" transform="translate(-115.702 -93.96)" fill="#f7f7f7"/>
                  <path id="Контур_17954" data-name="Контур 17954" d="M140.78,307.439l-4.471,78.536h-1.867l4.467-78.453A13.5,13.5,0,0,0,140.78,307.439Z" transform="translate(-134.442 -173.224)" fill="#f7f7f7"/>
                </g>
                <g id="Сгруппировать_434" data-name="Сгруппировать 434" transform="translate(0)">
                  <path id="Контур_17955" data-name="Контур 17955" d="M205.528,99.759s-4.436-3.222-25.422,7.148l-1.643,25.613s7.059,3.948,25.137,1.564Z" transform="translate(-178.463 -87.789)" fill="#01627a"/>
                  <path id="Контур_17956" data-name="Контур 17956" d="M191.5,149.968l-10.678-6.017a43.389,43.389,0,0,1,11.122-1.885Z" transform="translate(-166.365 -103.674)" fill="#215261"/>
                  <path id="Контур_17957" data-name="Контур 17957" d="M170.211,89.148s-19.953-13.178-45.332-6.017l-2.592,38.147s16.067-6.813,45.8,5.2Z" transform="translate(-107.828 -81)" fill="#00a7ce"/>
                </g>
              </g>
            </g>
            <g id="Сгруппировать_453" data-name="Сгруппировать 453" transform="translate(133.481 10.362) rotate(4)">
              <text id="CORP." transform="translate(31.293 18.677) rotate(-90)" fill="#fff" font-size="4" font-family="SegoeUI-Bold, Segoe UI" font-weight="700" letter-spacing="-0.01em"><tspan x="0" y="0">CORP.</tspan></text>
              <g id="Сгруппировать_312" data-name="Сгруппировать 312">
                <path id="Контур_1" data-name="Контур 1" d="M4.467,4.079l3.894,0v8.029a2.921,2.921,0,0,1-.571,1.85,2.3,2.3,0,0,1-1.85.628,4.392,4.392,0,0,1-3.207-1.831c-.65.711-2,2.205-2.732,3.012A8.724,8.724,0,0,0,1.71,17.4a8.8,8.8,0,0,0,7.386.91,5.558,5.558,0,0,0,2.928-2.065,6.857,6.857,0,0,0,1.14-3.853L13.143.005,6.541,0,4.467,4.079Z" fill="#fafafa" fill-rule="evenodd"/>
                <path id="Контур_2" data-name="Контур 2" d="M.708,5.409A5.076,5.076,0,0,0,1.957,8.932c1.849,1.977,4.488,2.138,6.633,3.424.532.319,1.011.914.661,1.55-.657,1.193-3.525.476-4.508.066a7.563,7.563,0,0,1-1.784-1.058C2.59,13.274.626,15.463,0,16.156a11.173,11.173,0,0,0,7.065,2.506A8.506,8.506,0,0,0,12.8,16.5a5.018,5.018,0,0,0,.552-6.482c-1.873-2.463-6.878-2.96-7.678-4.272-.435-.714.231-1.673,1.469-1.757a8.206,8.206,0,0,1,3.975,1.264c.384-.419,2.079-2.27,2.62-2.868A8.3,8.3,0,0,0,7.879,0C4.578.037.964,1.762.708,5.409Z" transform="translate(13.109 0.035)" fill="#fafafa" fill-rule="evenodd"/>
              </g>
            </g>
          </g>
        </g>
      </g>
    </g>
  </g>
</svg>
