<svg xmlns="http://www.w3.org/2000/svg" width="304.599" height="265.892" viewBox="0 0 304.599 265.892">
  <g id="Космонавт2" transform="translate(-332.633 -931.366)">
    <g id="OBJECTS" transform="translate(405.05 900.902) rotate(23)">
      <g id="Сгруппировать_581" data-name="Сгруппировать 581" transform="translate(0 0)">
        <g id="Сгруппировать_564" data-name="Сгруппировать 564" transform="translate(0 37.521)">
          <g id="Сгруппировать_531" data-name="Сгруппировать 531" transform="translate(0 9.972)">
            <g id="Сгруппировать_530" data-name="Сгруппировать 530">
              <path id="Контур_18238" data-name="Контур 18238" d="M91.209,110.483a41.294,41.294,0,0,1-28.746-11.9A44.312,44.312,0,0,1,56.022,90.6q-.6.094-1.211.164A30.316,30.316,0,0,1,24.356,73.6c-2.96-6.564-3.2-14.067-.7-21.7,2.833-8.653,9.067-17.358,18.531-25.874,6.618-5.955,9.643-10.85,8.516-13.781-.831-2.16-4.437-5.047-16.9-6.535-9.362-1.118-20.522-1.1-30.37-1.091L0,4.625V0L3.421,0H4.9C30.233,0,51.3.928,55.011,10.589c1.943,5.056-1.242,11.23-9.739,18.875C29.111,44.008,23.022,59.4,28.569,71.7A25.607,25.607,0,0,0,53.594,86.246a43.216,43.216,0,0,1-3.6-10.8,39.662,39.662,0,0,1,4.255-26.886c4.642-8.4,12.844-12.778,20.893-11.147A14.862,14.862,0,0,1,87.22,50.889c1.529,14.51-9.637,33.217-26.411,38.584A39.633,39.633,0,0,0,65.7,95.281a36.4,36.4,0,0,0,20.516,10.246c8.627,1.2,17.4-.741,26.065-5.771l2.32,4A46.327,46.327,0,0,1,91.209,110.483ZM71.814,41.7c-5.238,0-10.358,3.373-13.518,9.095a35.1,35.1,0,0,0-3.76,23.79,38.749,38.749,0,0,0,3.775,10.755c13.027-3.873,25.916-18.755,24.313-33.968a10.373,10.373,0,0,0-8.4-9.429A12.162,12.162,0,0,0,71.814,41.7Z" fill="#f8f8f8"/>
            </g>
            <path id="Контур_18239" data-name="Контур 18239" d="M57.321,12.119C50.157,17,41.337,20.082,30.909,18.629,15,16.413,3.939,5.435,6.233,1.963L4.787,0A25.842,25.842,0,0,1,0,1.132,45.862,45.862,0,0,0,6.442,9.11a41.294,41.294,0,0,0,28.746,11.9,46.327,46.327,0,0,0,23.388-6.73Z" transform="translate(56.022 89.473)" fill="#d5d1d2"/>
            <path id="Контур_18240" data-name="Контур 18240" d="M3.426,1.9c9.847-.012,21.008-.027,30.37,1.091C46.261,4.476,49.868,7.363,50.7,9.523c1.127,2.932-1.9,7.826-8.516,13.781a86.217,86.217,0,0,0-9.451,9.87c6.141-6.768,24.415-18.818,19.33-25.729S26.206,0,0,0V1.9Z" transform="translate(0 2.724)" fill="#d9d6d6"/>
            <path id="Контур_18241" data-name="Контур 18241" d="M21.1.039C8.448-.869,1.831,14.31,1.182,24.689s2.685,16.6.644,17.187A2.107,2.107,0,0,1,0,40.6a36.68,36.68,0,0,0,2.073,5.038,28.153,28.153,0,0,0,4.718-.906L4.952,40.676a38.027,38.027,0,0,1-1.936-6.7,35.1,35.1,0,0,1,3.761-23.79c3.16-5.722,8.28-9.095,13.518-9.095a12.162,12.162,0,0,1,2.413.242,10.373,10.373,0,0,1,8.4,9.429,26.4,26.4,0,0,1-1.018,10.282c.012-.035.027-.071.037-.1C32.21,14.268,33.746.947,21.1.039Z" transform="translate(51.52 40.612)" fill="#d5d1d2"/>
          </g>
          <g id="Сгруппировать_563" data-name="Сгруппировать 563" transform="translate(70.85 0)">
            <g id="Сгруппировать_534" data-name="Сгруппировать 534" transform="translate(12.867 24.92)">
              <g id="Сгруппировать_532" data-name="Сгруппировать 532" transform="translate(0 1.273)">
                <path id="Контур_18242" data-name="Контур 18242" d="M78.2,67.287C69.31,75.832,61.531,84.029,54.58,92.11c-5.316,5.478-15.039.735-19.181-3.59C16.641,68.963,5.916,50.338.314,30.488c-.981-4.344.163-11.232,5.919-14L45.412,1.057c6.758-2.539,12.8-.361,13.186,5,1.7,17.156,8,32.369,20.216,48.057C82.261,58.227,82.157,63.569,78.2,67.287Z" fill="#d5d1d2"/>
              </g>
              <path id="Контур_18243" data-name="Контур 18243" d="M4.8,6.941c1.456,4.145,1.886,7.768.961,8.093S2.9,12.261,1.448,8.116-.437.348.487.023,3.342,2.8,4.8,6.941Z" transform="translate(3.458 33.505)" fill="#c10020"/>
              <g id="Сгруппировать_533" data-name="Сгруппировать 533" transform="translate(6.298 0)">
                <path id="Контур_18244" data-name="Контур 18244" d="M77.358,66.844c-8.732,8.434-16.373,16.528-23.2,24.509-5.223,5.409-14.842.662-18.949-3.645C16.61,68.232,5.941,49.716.323,30.008-.665,25.7.434,18.871,6.1,16.149l38.6-15.125c6.659-2.488,12.628-.3,13.038,5.019C59.5,23.063,65.78,38.176,77.911,53.788,81.33,57.879,81.251,63.175,77.358,66.844Z" fill="#bfbfbf"/>
              </g>
            </g>
            <g id="Сгруппировать_562" data-name="Сгруппировать 562" transform="translate(0 0)">
              <g id="Сгруппировать_536" data-name="Сгруппировать 536" transform="translate(76.161 20.261)">
                <path id="Контур_18245" data-name="Контур 18245" d="M0,12.227C19.537,16.368,24.033,17.89,34.747,0c0,0-1.088,9.23,12.932,20.358,0,0-4.68,21.068-31.48,18.825Z" transform="translate(0 12.172)" fill="#d5d1d2"/>
                <path id="Контур_18246" data-name="Контур 18246" d="M19.209,22C5.19,10.876,6.278,1.646,6.278,1.646,5.893-3.778-1.042,5.518.134,10.524S7.5,28.738,14.524,31.077C17.414,32.039,22.23,23.356,19.209,22Z" transform="translate(28.469 10.526)" fill="#d5d1d2"/>
                <g id="Сгруппировать_535" data-name="Сгруппировать 535" transform="translate(31.446 0)">
                  <path id="Контур_18247" data-name="Контур 18247" d="M.137,16.277c-.379-1.23.1-4.026.574-6.179A6.078,6.078,0,0,1,3.879,6L15.587,0l5.859,6.33L20.041,8.456s4.906,3.561,9.116,14.313c0,0-2,12.564-11.451,12.04C9.532,34.356,1.482,20.646.137,16.277Z" fill="#ef4864"/>
                  <path id="Контур_18248" data-name="Контур 18248" d="M13.8,18.79C8.631,18.5,3.517,12.921.111,7.749,1.627,2.884,0,0,0,0L6.19,9.235a14.7,14.7,0,0,0,2.08-.386s4.192,6.465,5.828,6.9,8.934-2.716,11.15-8.995C25.248,6.75,23.25,19.314,13.8,18.79Z" transform="translate(3.908 16.02)" fill="#c10020"/>
                  <path id="Контур_18249" data-name="Контур 18249" d="M.054.291a6.2,6.2,0,0,1,3.582.944A12.44,12.44,0,0,1,5.167,2.293a14.758,14.758,0,0,1,1.4,1.246A23.094,23.094,0,0,1,9.016,6.381a23.226,23.226,0,0,1,2.018,3.134,14.162,14.162,0,0,1,1.353,3.28,3.212,3.212,0,0,1-.307,2.671,5.984,5.984,0,0,1-2.5,1.865,15.693,15.693,0,0,1-3.428,1.02l1.035.492L5.5,16.626,3.772,14.44C3.179,13.722,2.591,13,1.987,12.29l-.915-1.06L.128,10.19,0,10.276l6.156,9.258.039.059.069-.008a15.11,15.11,0,0,0,3.846-.945,7.034,7.034,0,0,0,3.21-2.322,4.2,4.2,0,0,0,.719-1.887,5.609,5.609,0,0,0-.18-2,14.7,14.7,0,0,0-1.576-3.636,23.509,23.509,0,0,0-2.277-3.231,22.113,22.113,0,0,0-2.776-2.81A13.768,13.768,0,0,0,3.9.62,6.084,6.084,0,0,0,.015.141Z" transform="translate(3.845 5.786)" fill="#c10020"/>
                  <path id="Контур_18250" data-name="Контур 18250" d="M6.692,0,0,8.7l1.284.851Z" transform="translate(14.755 6.33)" fill="#c10020"/>
                  <path id="Контур_18251" data-name="Контур 18251" d="M17.625,0A13.536,13.536,0,0,1,14.2,4.867a16.868,16.868,0,0,1-5,3.14l-.689.243-.694.194a5.984,5.984,0,0,1-.681.105c-.1,0-.223.02-.316.012a2.013,2.013,0,0,1-.244-.045c-.072-.049-.136-.061-.22-.122L6.1,8.2c-.167-.156-.34-.307-.5-.485-.328-.348-.643-.722-.947-1.11A54.4,54.4,0,0,1,1.292,1.68L0,2.518A55.544,55.544,0,0,0,3.765,7.349c.342.385.7.76,1.088,1.121A4.137,4.137,0,0,0,6.3,9.439a2.6,2.6,0,0,0,.5.061,4.3,4.3,0,0,0,.436-.041,6.864,6.864,0,0,0,.8-.177c.25-.087.5-.167.746-.26L9.5,8.715a17.452,17.452,0,0,0,4.969-3.573A13.735,13.735,0,0,0,17.625,0Z" transform="translate(11.532 22.769)" fill="#c10020"/>
                </g>
              </g>
              <g id="Сгруппировать_545" data-name="Сгруппировать 545" transform="translate(19.714 53.02)">
                <path id="Контур_18252" data-name="Контур 18252" d="M1.688,0,.778.96A2.813,2.813,0,0,0,.3,4.171c1.647,3.211,5.951,9.6,14.529,10.715a2.824,2.824,0,0,0,2.062-.539c.454-.341,1.083-.849,1.923-1.593Z" transform="translate(45.972 100.377)" fill="#ef4864"/>
                <path id="Контур_18253" data-name="Контур 18253" d="M0,29.463c14.122-6.178,30.818.655,29.1,18l.177,8.136s8.532,1.9,21.342-5.01a6.5,6.5,0,0,0-4.8-6.155S53.1,1.1,9.807,0Z" transform="translate(68.468 25.647)" fill="#f7f7f7"/>
                <path id="Контур_18254" data-name="Контур 18254" d="M29.276,55.6,40.864,48.6c-.094-3.314-2.981-5.567-2.981-5.567C34.579,22.624,15.542,14.564,14.763.337L14.54.313C13.97.271,12.327.151,10.278.019,10.119.014,9.967,0,9.807,0L0,29.463c14.122-6.178,30.818.655,29.1,18Z" transform="translate(68.468 25.647)" fill="#d5d1d2"/>
                <path id="Контур_18255" data-name="Контур 18255" d="M2.493,9.734C-2.994,18.226.074,29.215,16.75,39.261S31.388,59.019,42.457,60.88C79.92,67.177,91.831,21.974,69.022,0Z" fill="#f7f7f7"/>
                <path id="Контур_18256" data-name="Контур 18256" d="M0,8.881C7.4,17.626,4.286,19.7,10.773,28.928s14.683,14.628,9.2,32.188c0,0,1.863,10.387,17.131,12.754a8.06,8.06,0,0,0,1.182-9.261s15.035-26.735,1.656-52.286S0,8.881,0,8.881Z" transform="translate(27.684 39.261)" fill="#f7f7f7"/>
                <path id="Контур_18257" data-name="Контур 18257" d="M16.75,30.5A46.466,46.466,0,0,1,27.72,39.424c7.347,8.707,4.26,10.785,10.736,20,6.487,9.233,14.683,14.628,9.2,32.188a10.164,10.164,0,0,0,1.929,4.263c2.7,3.095,4.762-3.168,4.762-3.168,6.105-15.818-3.894-25.95-7.423-37.77S33.568,35.417,26.8,25.372s.585-19.14.585-19.14L9.135,0,2.493.972C-2.994,9.463.074,20.452,16.75,30.5Z" transform="translate(0 8.762)" fill="#d5d1d2"/>
                <g id="Сгруппировать_537" data-name="Сгруппировать 537" transform="translate(27.72 24.713)">
                  <path id="Контур_18258" data-name="Контур 18258" d="M52.759,0C48.813,8.49,31.819,20.825,0,23.473l1.168,1.44S42.554,22.061,52.895,3.172C52.895,3.172,52.837.9,52.759,0Z" fill="#00a7cf"/>
                  <path id="Контур_18259" data-name="Контур 18259" d="M1.168,2.563s3.794-.262,9.368-1.15Q9.968.7,9.389,0C6.413.466,3.291.849,0,1.123c.407.483.778.942,1.124,1.387Z" transform="translate(0 22.35)" fill="#01627a"/>
                </g>
                <g id="Сгруппировать_538" data-name="Сгруппировать 538" transform="translate(97.424 73.168)">
                  <path id="Контур_18260" data-name="Контур 18260" d="M21.518,1C21.057-.346,16.1-.349,10.155,1.08S-.007,4.751,0,6.177A8.82,8.82,0,0,0,.145,8.244C-.188,6.858,4.358,4.576,10.3,3.147s9.953.142,11.362-.076A3.219,3.219,0,0,0,21.518,1Z" fill="#ef4864"/>
                  <path id="Контур_18261" data-name="Контур 18261" d="M21.534,1.018c.333,1.387-4.213,3.669-10.155,5.1S.35,7.578.017,6.191s4.213-3.669,10.155-5.1S21.2-.368,21.534,1.018Z" transform="translate(0.128 2.053)" fill="#c10020"/>
                </g>
                <g id="Сгруппировать_541" data-name="Сгруппировать 541" transform="translate(100.411 31.526)">
                  <g id="Сгруппировать_539" data-name="Сгруппировать 539" transform="translate(0 0.166)">
                    <path id="Контур_18262" data-name="Контур 18262" d="M2.948,11.028C.471,7.606-1.2,2.553,1.079.552c2.024-1.778,6.665.942,9.636,5.2s3.009,9.474.8,11.016S5.425,14.45,2.948,11.028Z" fill="#c10020"/>
                  </g>
                  <g id="Сгруппировать_540" data-name="Сгруппировать 540" transform="translate(0.447 0)">
                    <path id="Контур_18263" data-name="Контур 18263" d="M3.234,10.08C.76,6.656-1.212,1.967.885.5S7.639.819,10.61,5.079s3.132,9.388,1.035,10.851S5.708,13.505,3.234,10.08Z" fill="#ef4864"/>
                  </g>
                </g>
                <g id="Сгруппировать_542" data-name="Сгруппировать 542" transform="translate(96.359 63.383)">
                  <path id="Контур_18264" data-name="Контур 18264" d="M1.2,9.755C3.46,10.844,13.615,4.979,18.1,6.763c0,0,1.077-.649,1.478-3.487S18.387,0,18.387,0l.029.51A30.4,30.4,0,0,0,7.536,2.766C2.165,5.047,1,3.535,1,3.535L.871,2.913S-.218,2.819.039,4.185C.513,6.7-.59,8.891,1.2,9.755Z" fill="#ef4864"/>
                  <path id="Контур_18265" data-name="Контур 18265" d="M1,1.445.871.823S-.218.729.039,2.095C.513,4.606-.59,6.8,1.2,7.665c1.442.7,6.107-1.445,10.459-2.619A9.159,9.159,0,0,0,9.993,3.2C9.813,2.1,9.58,1.036,9.314,0,8.726.2,8.131.423,7.535.676,2.165,2.957,1,1.445,1,1.445Z" transform="translate(0 2.09)" fill="#c10020"/>
                </g>
                <g id="Сгруппировать_543" data-name="Сгруппировать 543" transform="translate(62.644 73.945)">
                  <path id="Контур_18266" data-name="Контур 18266" d="M11.2,10.5C10.17,15.671,7.41,19.387,4.39,18.785S-.769,13.49.262,8.32,5.1-.538,8.123.064,12.232,5.332,11.2,10.5Z" fill="#c10020"/>
                  <path id="Контур_18267" data-name="Контур 18267" d="M10.968,10.36c-1.018,5.1-3.727,8.777-6.683,8.187S-.756,13.329.261,8.225,5.014-.527,7.971.062,11.986,5.255,10.968,10.36Z" transform="translate(1.015 0.648)" fill="#ef4864"/>
                </g>
                <g id="Сгруппировать_544" data-name="Сгруппировать 544" transform="translate(48.155 90.109)">
                  <path id="Контур_18268" data-name="Контур 18268" d="M.583,6.025c3.886,5.952,12.93,10.388,17.495,8.254,1.375-.642,2.863-4.635,1.931-5.219l-.278.666A23.722,23.722,0,0,1,1.294.469L1.3.005A.933.933,0,0,0,.282.854C-.045,2.305-.241,4.763.583,6.025Z" fill="#ef4864"/>
                  <path id="Контур_18269" data-name="Контур 18269" d="M1.294.469,1.3.005A.933.933,0,0,0,.282.854c-.327,1.451-.523,3.909.3,5.171A20.17,20.17,0,0,0,6.148,11.5c.031-.087.048-.138.048-.138A29.313,29.313,0,0,0,7.679,6.175,25.072,25.072,0,0,1,1.294.469Z" fill="#c10020"/>
                </g>
              </g>
              <g id="Сгруппировать_551" data-name="Сгруппировать 551" transform="translate(16.325 0)">
                <path id="Контур_18270" data-name="Контур 18270" d="M.572,13.318c1.412,6.689,5,11.6,8.007,10.961s4.3-6.573,2.893-13.262S6.474-.58,3.464.055-.841,6.629.572,13.318Z" transform="translate(59.937 15.876)" fill="#d5d1d2"/>
                <path id="Контур_18271" data-name="Контур 18271" d="M1.293,42.356C5.9,60.351,28.709,70.053,46.7,65.444S71.068,43.657,66.458,25.662,48.471-1.782,30.01.279C10.269,2.482-4.567,19.481,1.293,42.356Z" transform="translate(2.146)" fill="#f7f7f7"/>
                <path id="Контур_18272" data-name="Контур 18272" d="M60.92.5C53.16,7.789,27.99,14.815,6.413,6.341a1.822,1.822,0,0,0-2.167.684L0,13.288s18.977,8.58,41.388,3.947c20.353-4.207,25.14-13.682,25.14-13.682L63.458.527A1.828,1.828,0,0,0,60.92.5Z" transform="translate(5.881 49.466)" fill="#f7f7f7"/>
                <path id="Контур_18273" data-name="Контур 18273" d="M10.618,20.538C21.25,28.067,18.79,47.879,18.79,47.879,23.16,55.6,34.033,59.358,34.033,59.358c-7.094,1.4-5.429,8.3-5.409,8.377A73.276,73.276,0,0,1,3.736,62.476h0l4.246-6.263a1.835,1.835,0,0,1,1.281-.79A28.3,28.3,0,0,1,1.293,42.077C-4.567,19.2,10.269,2.2,30.01,0,10.828,4.472,10.618,20.538,10.618,20.538Z" transform="translate(2.146 0.279)" fill="#d5d1d2"/>
                <path id="Контур_18274" data-name="Контур 18274" d="M0,11.174a74.942,74.942,0,0,0,12.347.926,67.232,67.232,0,0,0,12.345-1.3q3.051-.6,6.051-1.459c.99-.316,1.989-.609,2.962-.981.978-.355,1.937-.764,2.891-1.181a38.348,38.348,0,0,0,5.451-3.047c.859-.589,1.691-1.218,2.487-1.886A24.129,24.129,0,0,0,46.76.073L46.687,0a34.858,34.858,0,0,1-5.023,3.529,43.183,43.183,0,0,1-5.482,2.712c-.939.4-1.883.785-2.847,1.121-.952.368-1.924.684-2.893,1.01C28.5,9,26.521,9.542,24.521,10a66.655,66.655,0,0,1-12.188,1.587A74.665,74.665,0,0,1,.014,11.072Z" transform="translate(23.099 56.203)" fill="#d5d1d2"/>
                <path id="Контур_18275" data-name="Контур 18275" d="M54.49,0a28.62,28.62,0,0,1-6.057,3.623A51.857,51.857,0,0,1,41.824,6.1,75.073,75.073,0,0,1,28,9.024a65.587,65.587,0,0,1-14.155.015A56.242,56.242,0,0,1,.038,5.833L0,5.929A56.562,56.562,0,0,0,13.788,9.549a66.228,66.228,0,0,0,14.295.293A59.784,59.784,0,0,0,42.141,7.08a46.331,46.331,0,0,0,6.611-2.816,33.413,33.413,0,0,0,3.071-1.87A19.449,19.449,0,0,0,54.56.074Z" transform="translate(12.276 49.926)" fill="#d5d1d2"/>
                <path id="Контур_18276" data-name="Контур 18276" d="M0,.069A10.264,10.264,0,0,1,1.632,2.518a5.079,5.079,0,0,1,.445,2.618l-.04.322.27.141A7.6,7.6,0,0,1,3.983,6.817a6.3,6.3,0,0,1,1.245,1.62A5.215,5.215,0,0,1,5.821,10.4a6.648,6.648,0,0,1-.2,2.176l.1.031a6.414,6.414,0,0,0,.447-2.222,5.354,5.354,0,0,0-.432-2.171,6.86,6.86,0,0,0-1.208-1.86,8.791,8.791,0,0,0-1.74-1.5l.228.456A4.045,4.045,0,0,0,3.12,3.7a3.941,3.941,0,0,0-.58-1.516A5.522,5.522,0,0,0,1.476.932,5.719,5.719,0,0,0,.065,0Z" transform="translate(54.173 50.184)" fill="#d5d1d2"/>
                <g id="Сгруппировать_546" data-name="Сгруппировать 546" transform="translate(0 19.453)">
                  <ellipse id="Эллипс_157" data-name="Эллипс 157" cx="7.026" cy="14.977" rx="7.026" ry="14.977" transform="matrix(0.978, -0.207, 0.207, 0.978, 2.541, 2.903)" fill="#c10020"/>
                  <path id="Контур_18277" data-name="Контур 18277" d="M0,2.849,4.652.366v0a3.215,3.215,0,0,1,.823-.3c3.559-.751,7.744,4.79,9.346,12.378s.015,14.348-3.544,15.1a3.174,3.174,0,0,1-.779.062v0l-5.346-.353Z" transform="translate(3.703 2.389)" fill="#d5d1d2"/>
                  <path id="Контур_18278" data-name="Контур 18278" d="M.555,13.474c1.423,6.741,5.141,11.664,8.3,11s4.571-6.673,3.148-13.414S6.865-.607,3.7.061-.868,6.734.555,13.474Z" transform="translate(0 5.177)" fill="#f7f7f7"/>
                  <path id="Контур_18279" data-name="Контур 18279" d="M4.629,9.6.741,11.643C2,16.352,4.553,19.592,6.647,19.15,8.933,18.668,9.9,13.957,8.8,8.715S4.9-.442,2.612.04C.652.454-.386,3.982.133,8.462Z" transform="translate(0.691 8.028)" fill="#c10020"/>
                  <path id="Контур_18280" data-name="Контур 18280" d="M4.629,9.6.742,11.642C2,16.352,4.553,19.592,6.647,19.15,8.934,18.668,9.9,13.957,8.8,8.715S4.9-.442,2.612.04C.653.454-.386,3.983.133,8.462Z" transform="translate(0.212 8.151)" fill="#ef4864"/>
                </g>
                <g id="Сгруппировать_550" data-name="Сгруппировать 550" transform="translate(21.586 9.044)">
                  <path id="Контур_18281" data-name="Контур 18281" d="M38.427,4.289C44.755,11.311,47.737,24.613,45,31.752c0,0-2.775,8.961-18.531,11.125C8.9,45.29,5.756,36.675,4.6,34.615c-2.5-4.455-5.729-14.5-4.212-23.052C2.342.554,30.895-4.07,38.427,4.289Z" transform="translate(0 0.967)" fill="#fff"/>
                  <path id="Контур_18282" data-name="Контур 18282" d="M38.251,4.269c6.3,6.99,9.266,20.23,6.544,27.337,0,0-2.762,8.919-18.446,11.074C8.859,45.082,5.73,36.506,4.58,34.455,2.1,30.021-1.122,20.019.387,11.51,2.331.551,30.752-4.051,38.251,4.269Z" transform="translate(0.777)" fill="#c10020"/>
                  <path id="Контур_18283" data-name="Контур 18283" d="M37.561,4.192c6.185,6.863,9.1,19.865,6.426,26.844,0,0-2.712,8.758-18.113,10.873C8.7,44.268,5.627,35.848,4.5,33.834,2.058,29.48-1.1,19.658.38,11.3,2.289.541,30.2-3.978,37.561,4.192Z" transform="translate(0.895 0.859)" fill="#c10020"/>
                  <path id="Контур_18284" data-name="Контур 18284" d="M35.824,26.982s-8.274-1.824-18.835-8.323A57.737,57.737,0,0,1,0,2.628,25.894,25.894,0,0,1,.24,0a64.041,64.041,0,0,0,18.3,17,94.332,94.332,0,0,0,19.511,8.71A22.216,22.216,0,0,1,35.824,26.982Z" transform="translate(0.921 12.88)" fill="#ef4864"/>
                  <path id="Контур_18285" data-name="Контур 18285" d="M25.844,24.743C8.67,27.1,5.6,18.681,4.468,16.667A40.968,40.968,0,0,1,0,0S4.536,7.448,15.5,14.545c10.251,6.638,18.073,8.277,18.073,8.277A34.533,34.533,0,0,1,25.844,24.743Z" transform="translate(0.924 18.027)" fill="#ef4864"/>
                  <g id="Сгруппировать_549" data-name="Сгруппировать 549" transform="translate(4.83 3.834)">
                    <g id="Сгруппировать_548" data-name="Сгруппировать 548" transform="translate(16.268 0)">
                      <path id="Контур_18286" data-name="Контур 18286" d="M1.25,3.057A11.675,11.675,0,0,1,4.359,4.07a6.35,6.35,0,0,1,1.272.847c.177.145.4.388.6.577.194.212.4.418.584.639a24.817,24.817,0,0,1,3.768,6,28.692,28.692,0,0,1,2.16,6.9,15.133,15.133,0,0,1-.269,7.239,11.961,11.961,0,0,0,.957-3.585,21,21,0,0,0,.077-3.744,29.835,29.835,0,0,0-1.49-7.373A26.712,26.712,0,0,0,8.633,4.711,17.1,17.1,0,0,0,7.395,3.138,8.878,8.878,0,0,0,5.737,1.752,14.455,14.455,0,0,0,2,.069h0a1.542,1.542,0,1,0-.9,2.95A1.618,1.618,0,0,0,1.25,3.057Z" transform="translate(8.667 0.638)" fill="#ef4864"/>
                      <g id="Сгруппировать_547" data-name="Сгруппировать 547">
                        <path id="Контур_18287" data-name="Контур 18287" d="M6.112,3.09A1.541,1.541,0,0,0,5.9.038,34.7,34.7,0,0,0,1.416.12a1.54,1.54,0,0,0,.248,3.07,31.555,31.555,0,0,1,4.082-.075A1.561,1.561,0,0,0,6.112,3.09Z" fill="#ef4864"/>
                      </g>
                    </g>
                    <path id="Контур_18288" data-name="Контур 18288" d="M17.329,14.929c-1-.3-1.992-.565-2.96-.882s-1.915-.657-2.831-1.056a23.783,23.783,0,0,1-2.665-1.328c-.432-.241-.851-.509-1.268-.783l-.625-.418c-.2-.143-.384-.264-.567-.419A13,13,0,0,1,4.4,7.961,25.5,25.5,0,0,1,2.729,5.486,55.405,55.405,0,0,1,0,0,22.71,22.71,0,0,0,1.725,6.006a17.242,17.242,0,0,0,1.553,2.78,11.669,11.669,0,0,0,2.169,2.439c.207.18.451.348.667.506s.434.3.659.436c.45.279.907.555,1.379.8A16.744,16.744,0,0,0,11.1,14.191,17.693,17.693,0,0,0,17.329,14.929Z" transform="translate(0 21.832)" fill="#f7f7f7"/>
                  </g>
                </g>
              </g>
              <g id="Сгруппировать_555" data-name="Сгруппировать 555" transform="translate(0 62.758)">
                <path id="Контур_18289" data-name="Контур 18289" d="M22.2,0C37.97,2.013,41.327,21.14,31.878,26.493S30.4,40.386,34.66,42.221c4.074,1.754,3.119,22.06-12.882,18.242,0,0-27.129-11.63-20.829-34.364C5.327,10.3,22.2,0,22.2,0Z" transform="translate(0 0.001)" fill="#f7f7f7"/>
                <g id="Сгруппировать_552" data-name="Сгруппировать 552" transform="translate(20.351 42.222)">
                  <path id="Контур_18290" data-name="Контур 18290" d="M14.309,0S25.764,5.884,24.674,12.583,16.619,29.013,7.837,28.273c-11.712-.987-6.826-12.051-6.826-12.051Z" fill="#ef4864"/>
                  <path id="Контур_18291" data-name="Контур 18291" d="M.009,18.193,17.868,0A14.348,14.348,0,0,1,15.79,12.358a17.289,17.289,0,0,1-9.118,7.06A2.072,2.072,0,0,0,5.637,22.6,7.909,7.909,0,0,0,7.25,24.231c2.813,2.135-5.963,2.652-7.131-3.907A13.651,13.651,0,0,1,.009,18.193Z" transform="translate(0.015 2.22)" fill="#c10020"/>
                </g>
                <path id="Контур_18292" data-name="Контур 18292" d="M14.4.611c.3-1.707,5.377.376,7.628,3.619,1.937,2.793-.079,15.816-11.994,19.353C2.243,25.9,0,17.961,0,17.961S11.592,16.858,14.4.611Z" transform="translate(15.766 39.168)" fill="#f7f7f7"/>
                <path id="Контур_18293" data-name="Контур 18293" d="M.949,26.1C5.327,10.3,22.2,0,22.2,0A12.4,12.4,0,0,1,28.12,1.781,98.413,98.413,0,0,0,11.484,18.619c-7.238,9.657-.24,25.788,13.881,32.658,0,0-3.774,3.217,4.29,9.832A18.023,18.023,0,0,1,25.8,62.752c-7.794,2.314-10.037-5.623-10.037-5.623C8.175,52.19-3.4,41.79.949,26.1Z" fill="#d5d1d2"/>
                <g id="Сгруппировать_553" data-name="Сгруппировать 553" transform="translate(0.007 27.667)">
                  <path id="Контур_18294" data-name="Контур 18294" d="M27.673,3.378C22.8,4.82,4.749,5.447.537,0A23.3,23.3,0,0,0,.185,7.676c1.423,3.4,19.5,3.537,27.265-3.17Z" transform="translate(0.019)" fill="#00a7cf"/>
                  <path id="Контур_18295" data-name="Контур 18295" d="M11.151,9.9A24,24,0,0,1,8.966,3.718C5.237,3.076,2.041,1.915.559,0A23.817,23.817,0,0,0,.115,7.436c.032.081.055.156.089.238C.9,9.343,5.616,10.222,11.151,9.9Z" transform="translate(0 0.002)" fill="#01627a"/>
                </g>
                <path id="Контур_18296" data-name="Контур 18296" d="M0,17.35a12.478,12.478,0,0,0,5.771-1.864,16.564,16.564,0,0,0,4.567-4.115L11.21,10.1a5.152,5.152,0,0,0,.395-.661l.363-.679a20,20,0,0,0,1.219-2.813c.352-.957.55-1.962.814-2.937C14.16,2,14.3,1,14.4,0c-.329.96-.6,1.923-.89,2.875l-.53,1.4a13.854,13.854,0,0,1-.545,1.38,25.309,25.309,0,0,1-1.325,2.638c-.258.416-.454.872-.749,1.264l-.845,1.2a19.407,19.407,0,0,1-4.183,4.064A16.652,16.652,0,0,1,0,17.35Z" transform="translate(15.766 39.779)" fill="#d5d1d2"/>
                <g id="Сгруппировать_554" data-name="Сгруппировать 554" transform="translate(5.612 5.151)">
                  <path id="Контур_18297" data-name="Контур 18297" d="M7.646,1.936c7.206-6.29,11.28,4.167,4.34,11.111C6.273,18.762-1.307,15.349.192,10.675A47.059,47.059,0,0,1,7.646,1.936Z" fill="#ef4864"/>
                  <path id="Контур_18298" data-name="Контур 18298" d="M5.872,13.466a14.074,14.074,0,0,0-1.488,2.5C1.4,15.556-.656,13.317.192,10.674c.1-.154.2-.312.309-.464L.506,10.2A53.579,53.579,0,0,1,7.645,1.935h0c3.724-3.251,6.607-2.024,7.569.875A98.033,98.033,0,0,0,5.872,13.466Z" transform="translate(0 0.002)" fill="#c10020"/>
                </g>
              </g>
              <g id="Сгруппировать_561" data-name="Сгруппировать 561" transform="translate(69.984 59.371)">
                <path id="Контур_18299" data-name="Контур 18299" d="M19.435,0a20.542,20.542,0,0,1,7.457,10.567,10.04,10.04,0,0,1-.846,2.633S21.46,20.637,7.4,24.478c0,0-2.973-8.584-7.3-14.482A2.465,2.465,0,0,1,.941,7.363C4.086,6.295,12.276,5.527,19.435,0Z" transform="translate(0 2.632)" fill="#d5d1d2"/>
                <path id="Контур_18300" data-name="Контур 18300" d="M19.339,0a27.92,27.92,0,0,1,6.612,13.2S21.364,20.637,7.3,24.478c0,0-2.973-8.584-7.3-14.482A62.975,62.975,0,0,0,19.339,0Z" transform="translate(0.941)" fill="#f7f7f7"/>
                <path id="Контур_18301" data-name="Контур 18301" d="M0,0A19.528,19.528,0,0,1,1.279,1.947c.4.668.749,1.364,1.091,2.064s.661,1.411.941,2.138.55,1.458.793,2.2l-.313-.161c1.056-.37,2.1-.833,3.133-1.3S8.971,5.9,9.974,5.362s2-1.082,2.972-1.679L14.408,2.8l1.447-.917a45.68,45.68,0,0,1-5.667,3.87c-1,.567-2.011,1.1-3.049,1.592A30.343,30.343,0,0,1,3.945,8.657l-.235.081L3.633,8.5C3.4,7.763,3.167,7.028,2.9,6.306s-.54-1.444-.836-2.156S1.43,2.743,1.1,2.045.4.666,0,0Z" transform="translate(6.124 12.808)" fill="#d5d1d2"/>
                <g id="Сгруппировать_560" data-name="Сгруппировать 560" transform="translate(8.766 6.014)">
                  <path id="Контур_18302" data-name="Контур 18302" d="M.676,5.043C1.752,6.807,3.732,7.561,5.1,6.727s1.6-2.939.525-4.7S2.567-.494,1.2.339-.4,3.279.676,5.043Z" transform="translate(9.746)" fill="#00a7cf"/>
                  <g id="Сгруппировать_559" data-name="Сгруппировать 559" transform="translate(0 6.98)">
                    <g id="Сгруппировать_556" data-name="Сгруппировать 556" transform="translate(1.986 3.041)">
                      <path id="Контур_18303" data-name="Контур 18303" d="M.771,3.272A.77.77,0,0,1,.435,1.808L4.012.077a.77.77,0,1,1,.671,1.386L1.106,3.194A.765.765,0,0,1,.771,3.272Z" fill="#215261"/>
                    </g>
                    <g id="Сгруппировать_557" data-name="Сгруппировать 557" transform="translate(1.028 1.478)">
                      <path id="Контур_18304" data-name="Контур 18304" d="M.771,3.131A.77.77,0,0,1,.454,1.659L3.988.068a.77.77,0,1,1,.632,1.4L1.086,3.063A.764.764,0,0,1,.771,3.131Z" fill="#28697b"/>
                    </g>
                    <g id="Сгруппировать_558" data-name="Сгруппировать 558">
                      <path id="Контур_18305" data-name="Контур 18305" d="M.771,3a.771.771,0,0,1-.3-1.481L3.972.06a.77.77,0,0,1,.595,1.421l-3.5,1.463A.772.772,0,0,1,.771,3Z" fill="#00a7cf"/>
                    </g>
                  </g>
                  <path id="Контур_18306" data-name="Контур 18306" d="M.371,2.768A1.868,1.868,0,0,0,2.8,3.693a1.868,1.868,0,0,0,.288-2.582A1.867,1.867,0,0,0,.659.186,1.868,1.868,0,0,0,.371,2.768Z" transform="translate(3.903 1.263)" fill="#ef4864"/>
                </g>
              </g>
            </g>
          </g>
        </g>
        <g id="Сгруппировать_570" data-name="Сгруппировать 570" transform="translate(31.008 0)">
          <path id="Контур_18307" data-name="Контур 18307" d="M1.245.622A.622.622,0,1,1,.622,0,.622.622,0,0,1,1.245.622Z" transform="translate(202.576 174.007)" fill="#d5d1d2"/>
          <circle id="Эллипс_158" data-name="Эллипс 158" cx="0.194" cy="0.194" r="0.194" transform="translate(185.051 185.675)" fill="#d5d1d2"/>
          <path id="Контур_18308" data-name="Контур 18308" d="M.556.278A.278.278,0,1,1,.278,0,.278.278,0,0,1,.556.278Z" transform="translate(164.753 192.96)" fill="#d5d1d2"/>
          <circle id="Эллипс_159" data-name="Эллипс 159" cx="0.389" cy="0.389" r="0.389" transform="translate(176.514 167.15)" fill="#d5d1d2"/>
          <path id="Контур_18309" data-name="Контур 18309" d="M1.588.794A.794.794,0,1,1,.794,0,.794.794,0,0,1,1.588.794Z" transform="translate(183.236 157.678)" fill="#d5d1d2"/>
          <path id="Контур_18310" data-name="Контур 18310" d="M.513.256A.256.256,0,1,1,.257,0,.257.257,0,0,1,.513.256Z" transform="translate(218.604 172.158)" fill="#d5d1d2"/>
          <path id="Контур_18311" data-name="Контур 18311" d="M1.875.938A.938.938,0,1,1,.938,0,.937.937,0,0,1,1.875.938Z" transform="translate(208.828 180.406)" fill="#d5d1d2"/>
          <path id="Контур_18312" data-name="Контур 18312" d="M1.348.674A.674.674,0,1,1,.674,0,.674.674,0,0,1,1.348.674Z" transform="translate(215.473 189.572)" fill="#d5d1d2"/>
          <path id="Контур_18313" data-name="Контур 18313" d="M2.045,1.023A1.023,1.023,0,1,1,1.022,0,1.023,1.023,0,0,1,2.045,1.023Z" transform="translate(200.131 203.079)" fill="#d5d1d2"/>
          <path id="Контур_18314" data-name="Контур 18314" d="M.831.415A.416.416,0,1,1,.415,0,.416.416,0,0,1,.831.415Z" transform="translate(185.93 189.607)" fill="#d5d1d2"/>
          <circle id="Эллипс_160" data-name="Эллипс 160" cx="0.814" cy="0.814" r="0.814" transform="translate(208.799 212.678)" fill="#d5d1d2"/>
          <path id="Контур_18315" data-name="Контур 18315" d="M1.245.623A.623.623,0,1,1,.623,0,.622.622,0,0,1,1.245.623Z" transform="translate(192.926 225.122)" fill="#d5d1d2"/>
          <path id="Контур_18316" data-name="Контур 18316" d="M1.1.549A.55.55,0,1,1,.549,0,.549.549,0,0,1,1.1.549Z" transform="translate(169.129 201.629)" fill="#d5d1d2"/>
          <circle id="Эллипс_161" data-name="Эллипс 161" cx="0.758" cy="0.758" r="0.758" transform="translate(167.693 206.215)" fill="#d5d1d2"/>
          <path id="Контур_18317" data-name="Контур 18317" d="M1.474.737A.737.737,0,1,1,.737,0,.737.737,0,0,1,1.474.737Z" transform="translate(148.668 222.245)" fill="#d5d1d2"/>
          <path id="Контур_18318" data-name="Контур 18318" d="M1.358.679A.679.679,0,1,1,.679,0,.679.679,0,0,1,1.358.679Z" transform="translate(142.901 223.886)" fill="#d5d1d2"/>
          <path id="Контур_18319" data-name="Контур 18319" d="M1.8.9A.9.9,0,1,1,.9,0,.9.9,0,0,1,1.8.9Z" transform="translate(154.422 197.32)" fill="#d5d1d2"/>
          <circle id="Эллипс_162" data-name="Эллипс 162" cx="0.636" cy="0.636" r="0.636" transform="translate(133.533 212.899)" fill="#d5d1d2"/>
          <path id="Контур_18320" data-name="Контур 18320" d="M.479.239A.24.24,0,1,1,.24,0,.24.24,0,0,1,.479.239Z" transform="translate(190.311 12.983)" fill="#d5d1d2"/>
          <path id="Контур_18321" data-name="Контур 18321" d="M.242.121A.121.121,0,1,1,.121,0,.121.121,0,0,1,.242.121Z" transform="translate(204.998 25.376)" fill="#d5d1d2"/>
          <circle id="Эллипс_163" data-name="Эллипс 163" cx="0.505" cy="0.505" r="0.505" transform="translate(229.138 21.019)" fill="#d5d1d2"/>
          <path id="Контур_18322" data-name="Контур 18322" d="M1.666.833A.833.833,0,1,1,.833,0,.833.833,0,0,1,1.666.833Z" transform="translate(225.688 27.801)" fill="#d5d1d2"/>
          <path id="Контур_18323" data-name="Контур 18323" d="M1.223.612A.611.611,0,1,1,.611,0,.611.611,0,0,1,1.223.612Z" transform="translate(218.033 47.272)" fill="#d5d1d2"/>
          <circle id="Эллипс_164" data-name="Эллипс 164" cx="0.906" cy="0.906" r="0.906" transform="translate(218.93 51.02)" fill="#d5d1d2"/>
          <circle id="Эллипс_165" data-name="Эллипс 165" cx="0.965" cy="0.965" r="0.965" transform="translate(222.015 61.167)" fill="#d5d1d2"/>
          <path id="Контур_18324" data-name="Контур 18324" d="M.668.334A.334.334,0,1,1,.334,0,.334.334,0,0,1,.668.334Z" transform="translate(226.187 75.669)" fill="#d5d1d2"/>
          <circle id="Эллипс_166" data-name="Эллипс 166" cx="0.57" cy="0.57" r="0.57" transform="translate(191.576 39.248)" fill="#d5d1d2"/>
          <path id="Контур_18325" data-name="Контур 18325" d="M1.684.842A.842.842,0,1,1,.842,0,.842.842,0,0,1,1.684.842Z" transform="translate(200.424 93.888)" fill="#d5d1d2"/>
          <path id="Контур_18326" data-name="Контур 18326" d="M1.433.716A.716.716,0,1,1,.716,0,.716.716,0,0,1,1.433.716Z" transform="translate(220.49 85.351)" fill="#d5d1d2"/>
          <path id="Контур_18327" data-name="Контур 18327" d="M1.042.521A.521.521,0,1,1,.521,0,.521.521,0,0,1,1.042.521Z" transform="translate(229.873 94.844)" fill="#d5d1d2"/>
          <path id="Контур_18328" data-name="Контур 18328" d="M1.687.844A.844.844,0,1,1,.844,0,.844.844,0,0,1,1.687.844Z" transform="translate(173.464 43.269)" fill="#d5d1d2"/>
          <path id="Контур_18329" data-name="Контур 18329" d="M.5.251A.251.251,0,1,1,.251,0,.25.25,0,0,1,.5.251Z" transform="translate(174.536 17.671)" fill="#d5d1d2"/>
          <circle id="Эллипс_167" data-name="Эллипс 167" cx="0.33" cy="0.33" r="0.33" transform="translate(177.453 8.897)" fill="#d5d1d2"/>
          <circle id="Эллипс_168" data-name="Эллипс 168" cx="0.494" cy="0.494" r="0.494" transform="translate(171.884 13.423)" fill="#d5d1d2"/>
          <path id="Контур_18330" data-name="Контур 18330" d="M.291.145A.145.145,0,1,1,.145,0,.146.146,0,0,1,.291.145Z" transform="translate(159.915 6.412)" fill="#d5d1d2"/>
          <circle id="Эллипс_169" data-name="Эллипс 169" cx="0.624" cy="0.624" r="0.624" transform="translate(150.39 21.566)" fill="#d5d1d2"/>
          <path id="Контур_18331" data-name="Контур 18331" d="M1.7.85A.849.849,0,1,1,.85,0,.849.849,0,0,1,1.7.85Z" transform="translate(8.099 29.037)" fill="#d5d1d2"/>
          <circle id="Эллипс_170" data-name="Эллипс 170" cx="0.398" cy="0.398" r="0.398" transform="translate(12.934 62.636)" fill="#d5d1d2"/>
          <path id="Контур_18332" data-name="Контур 18332" d="M.577.289A.288.288,0,1,1,.289,0,.289.289,0,0,1,.577.289Z" transform="translate(5.82 74.85)" fill="#d5d1d2"/>
          <path id="Контур_18333" data-name="Контур 18333" d="M1.871.936A.936.936,0,1,1,.936,0,.935.935,0,0,1,1.871.936Z" transform="translate(13.876 79.419)" fill="#d5d1d2"/>
          <circle id="Эллипс_171" data-name="Эллипс 171" cx="0.335" cy="0.335" r="0.335" transform="translate(13.526 97.948)" fill="#d5d1d2"/>
          <circle id="Эллипс_172" data-name="Эллипс 172" cx="1.01" cy="1.01" r="1.01" transform="translate(28.097 96.448)" fill="#d5d1d2"/>
          <circle id="Эллипс_173" data-name="Эллипс 173" cx="0.876" cy="0.876" r="0.876" transform="translate(24.669 102.608)" fill="#d5d1d2"/>
          <circle id="Эллипс_174" data-name="Эллипс 174" cx="0.48" cy="0.48" r="0.48" transform="translate(42.924 94.25)" fill="#d5d1d2"/>
          <circle id="Эллипс_175" data-name="Эллипс 175" cx="0.693" cy="0.693" r="0.693" transform="translate(11.591 100.135)" fill="#d5d1d2"/>
          <path id="Контур_18334" data-name="Контур 18334" d="M.739.37A.37.37,0,1,1,.37,0,.37.37,0,0,1,.739.37Z" transform="translate(14.322 100.853)" fill="#d5d1d2"/>
          <path id="Контур_18335" data-name="Контур 18335" d="M1.613.806A.806.806,0,1,1,.806,0,.806.806,0,0,1,1.613.806Z" transform="translate(14.389 105.832)" fill="#d5d1d2"/>
          <circle id="Эллипс_177" data-name="Эллипс 177" cx="1.025" cy="1.025" r="1.025" transform="translate(79.823 28.433)" fill="#d5d1d2"/>
          <path id="Контур_18336" data-name="Контур 18336" d="M1.983.991A.992.992,0,1,1,.992,0,.992.992,0,0,1,1.983.991Z" transform="translate(53.749 25.85)" fill="#d5d1d2"/>
          <path id="Контур_18337" data-name="Контур 18337" d="M1.548.774A.774.774,0,1,1,.774,0,.774.774,0,0,1,1.548.774Z" transform="translate(85.683 26.38)" fill="#d5d1d2"/>
          <path id="Контур_18338" data-name="Контур 18338" d="M1.139.569A.569.569,0,1,1,.569,0,.569.569,0,0,1,1.139.569Z" transform="translate(81.404 10.886)" fill="#d5d1d2"/>
          <path id="Контур_18339" data-name="Контур 18339" d="M1.477.738A.738.738,0,1,1,.738,0,.738.738,0,0,1,1.477.738Z" transform="translate(88.139 16.943)" fill="#d5d1d2"/>
          <path id="Контур_18340" data-name="Контур 18340" d="M1.692.846A.846.846,0,1,1,.846,0,.846.846,0,0,1,1.692.846Z" transform="translate(109.408 11.564)" fill="#d5d1d2"/>
          <path id="Контур_18341" data-name="Контур 18341" d="M.543.272A.271.271,0,1,1,.271,0,.272.272,0,0,1,.543.272Z" transform="translate(112.431 0)" fill="#d5d1d2"/>
          <path id="Контур_18342" data-name="Контур 18342" d="M1.336.668A.668.668,0,1,1,.668,0,.668.668,0,0,1,1.336.668Z" transform="translate(129.946 26.841)" fill="#d5d1d2"/>
          <path id="Контур_18343" data-name="Контур 18343" d="M1.541.77A.77.77,0,1,1,.77,0,.771.771,0,0,1,1.541.77Z" transform="translate(135.785 12.357)" fill="#d5d1d2"/>
          <path id="Контур_18344" data-name="Контур 18344" d="M2.051,1.026A1.026,1.026,0,1,1,1.026,0,1.026,1.026,0,0,1,2.051,1.026Z" transform="translate(138.796 2.274)" fill="#d5d1d2"/>
          <path id="Контур_18345" data-name="Контур 18345" d="M1.037.519A.519.519,0,1,1,.519,0,.518.518,0,0,1,1.037.519Z" transform="translate(67.496 200.228)" fill="#d5d1d2"/>
          <path id="Контур_18346" data-name="Контур 18346" d="M1.458.729A.729.729,0,1,1,.729,0,.729.729,0,0,1,1.458.729Z" transform="translate(74.778 203.14)" fill="#d5d1d2"/>
          <path id="Контур_18347" data-name="Контур 18347" d="M1.429.715A.715.715,0,1,1,.715,0,.715.715,0,0,1,1.429.715Z" transform="translate(56.922 207.219)" fill="#d5d1d2"/>
          <path id="Контур_18348" data-name="Контур 18348" d="M.778.389A.389.389,0,1,1,.389,0,.389.389,0,0,1,.778.389Z" transform="translate(55.299 194.01)" fill="#d5d1d2"/>
          <path id="Контур_18349" data-name="Контур 18349" d="M1.764.882A.882.882,0,1,1,.882,0,.882.882,0,0,1,1.764.882Z" transform="translate(33.618 174.139)" fill="#d5d1d2"/>
          <path id="Контур_18350" data-name="Контур 18350" d="M.484.241A.242.242,0,1,1,.242,0,.242.242,0,0,1,.484.241Z" transform="translate(68.238 212.222)" fill="#d5d1d2"/>
          <path id="Контур_18351" data-name="Контур 18351" d="M1.033.517A.517.517,0,1,1,.517,0,.516.516,0,0,1,1.033.517Z" transform="translate(66.489 189.68)" fill="#d5d1d2"/>
          <path id="Контур_18352" data-name="Контур 18352" d="M1.727.863A.864.864,0,1,1,.864,0,.864.864,0,0,1,1.727.863Z" transform="translate(80.646 217.403)" fill="#d5d1d2"/>
          <path id="Контур_18353" data-name="Контур 18353" d="M1.206.6A.6.6,0,1,1,.6,0,.6.6,0,0,1,1.206.6Z" transform="translate(44.024 185.872)" fill="#d5d1d2"/>
          <path id="Контур_18354" data-name="Контур 18354" d="M1.132.566A.566.566,0,1,1,.566,0,.566.566,0,0,1,1.132.566Z" transform="translate(28.098 114.861)" fill="#d5d1d2"/>
          <path id="Контур_18355" data-name="Контур 18355" d="M1.535.767A.767.767,0,1,1,.767,0,.767.767,0,0,1,1.535.767Z" transform="translate(29.654 116.388)" fill="#d5d1d2"/>
          <path id="Контур_18356" data-name="Контур 18356" d="M1.342.671A.671.671,0,1,1,.671,0,.671.671,0,0,1,1.342.671Z" transform="translate(36.159 184.68)" fill="#d5d1d2"/>
          <path id="Контур_18357" data-name="Контур 18357" d="M1.93.965A.965.965,0,1,1,.965,0,.965.965,0,0,1,1.93.965Z" transform="translate(42.585 100.489)" fill="#d5d1d2"/>
          <circle id="Эллипс_178" data-name="Эллипс 178" cx="0.696" cy="0.696" r="0.696" transform="translate(64.033 7.472)" fill="#d5d1d2"/>
          <circle id="Эллипс_179" data-name="Эллипс 179" cx="0.887" cy="0.887" r="0.887" transform="translate(43.845 1.322)" fill="#d5d1d2"/>
          <circle id="Эллипс_180" data-name="Эллипс 180" cx="0.302" cy="0.302" r="0.302" transform="translate(26.581 13.379)" fill="#d5d1d2"/>
          <path id="Контур_18358" data-name="Контур 18358" d="M.276.138A.138.138,0,1,1,.138,0,.138.138,0,0,1,.276.138Z" transform="translate(34.679 30.598)" fill="#d5d1d2"/>
          <path id="Контур_18359" data-name="Контур 18359" d="M1.964.982A.982.982,0,1,1,.982,0,.982.982,0,0,1,1.964.982Z" transform="translate(19.431 22.946)" fill="#d5d1d2"/>
          <circle id="Эллипс_181" data-name="Эллипс 181" cx="0.321" cy="0.321" r="0.321" transform="translate(0 118.14)" fill="#d5d1d2"/>
          <path id="Контур_18360" data-name="Контур 18360" d="M.872.436A.436.436,0,1,1,.436,0,.436.436,0,0,1,.872.436Z" transform="translate(5.546 128.133)" fill="#d5d1d2"/>
          <path id="Контур_18361" data-name="Контур 18361" d="M1.926.963A.963.963,0,1,1,.963,0,.963.963,0,0,1,1.926.963Z" transform="translate(6.791 150.53)" fill="#d5d1d2"/>
          <path id="Контур_18362" data-name="Контур 18362" d="M1.133.566A.566.566,0,1,1,.566,0,.566.566,0,0,1,1.133.566Z" transform="translate(243.012 198.108)" fill="#d5d1d2"/>
          <path id="Контур_18364" data-name="Контур 18364" d="M.639.319A.32.32,0,1,1,.319,0,.32.32,0,0,1,.639.319Z" transform="translate(217.591 155.185)" fill="#d5d1d2"/>
          <path id="Контур_18365" data-name="Контур 18365" d="M1.364.682A.682.682,0,1,1,.682,0,.682.682,0,0,1,1.364.682Z" transform="translate(220.267 150.22)" fill="#d5d1d2"/>
          <path id="Контур_18366" data-name="Контур 18366" d="M.621.31A.31.31,0,1,1,.31,0,.31.31,0,0,1,.621.31Z" transform="translate(245.138 141.892)" fill="#d5d1d2"/>
          <circle id="Эллипс_183" data-name="Эллипс 183" cx="0.537" cy="0.537" r="0.537" transform="translate(239.39 141.503)" fill="#d5d1d2"/>
          <circle id="Эллипс_184" data-name="Эллипс 184" cx="0.426" cy="0.426" r="0.426" transform="translate(219.729 127.043)" fill="#d5d1d2"/>
          <g id="Сгруппировать_569" data-name="Сгруппировать 569" transform="translate(33.144 41.765)">
            <g id="Сгруппировать_565" data-name="Сгруппировать 565" transform="translate(31.194 21.65)">
              <path id="Контур_18367" data-name="Контур 18367" d="M1.919.96A.96.96,0,1,1,.96,0,.96.96,0,0,1,1.919.96Z" fill="#d5d1d2"/>
            </g>
            <g id="Сгруппировать_567" data-name="Сгруппировать 567" transform="translate(8.613 0)">
              <path id="Контур_18369" data-name="Контур 18369" d="M1.579.79A.79.79,0,1,1,.79,0,.79.79,0,0,1,1.579.79Z" fill="#d5d1d2"/>
            </g>
            <g id="Сгруппировать_568" data-name="Сгруппировать 568" transform="translate(0 9.813)">
              <circle id="Эллипс_185" data-name="Эллипс 185" cx="0.843" cy="0.843" r="0.843" fill="#d5d1d2"/>
            </g>
          </g>
        </g>
        <g id="Сгруппировать_575" data-name="Сгруппировать 575" transform="translate(262.403 104.519) rotate(90)">
          <path id="Контур_18383" data-name="Контур 18383" d="M2.962.456c1,.67,10.629,9.158,10.629,9.158S2.1,3.9,1.1,3.227A1.972,1.972,0,0,1,.227.628,1.973,1.973,0,0,1,2.962.456Z" fill="#e78c17"/>
          <path id="Контур_18384" data-name="Контур 18384" d="M1.954.234c.6.4,6.231,5.656,6.231,5.656S1.191,2.654.6,2.253A1.261,1.261,0,0,1,.2.518,1.26,1.26,0,0,1,1.954.234Z" transform="translate(0.031 0.11)" fill="#f8aa48"/>
          <path id="Контур_18385" data-name="Контур 18385" d="M1.167.095c.3.2,3.068,3.044,3.068,3.044S.563,1.649.259,1.445A.75.75,0,0,1,.163.4.75.75,0,0,1,1.167.095Z" transform="translate(0.064 0.228)" fill="#fedf6d"/>
        </g>
        <g id="Сгруппировать_576" data-name="Сгруппировать 576" transform="translate(13.592 104.996) rotate(90)">
          <path id="Контур_18386" data-name="Контур 18386" d="M2.188.337C2.925.832,10.041,7.1,10.041,7.1S1.549,2.879.812,2.384A1.457,1.457,0,0,1,.167.464,1.458,1.458,0,0,1,2.188.337Z" fill="#e78c17"/>
          <path id="Контур_18387" data-name="Контур 18387" d="M1.443.173c.44.3,4.6,4.178,4.6,4.178S.88,1.961.44,1.665A.932.932,0,0,1,.145.383.931.931,0,0,1,1.443.173Z" transform="translate(0.023 0.081)" fill="#f8aa48"/>
          <path id="Контур_18388" data-name="Контур 18388" d="M.862.07c.224.151,2.267,2.248,2.267,2.248S.416,1.218.191,1.068A.554.554,0,0,1,.121.3.554.554,0,0,1,.862.07Z" transform="translate(0.047 0.168)" fill="#fedf6d"/>
        </g>
        <g id="Сгруппировать_577" data-name="Сгруппировать 577" transform="translate(152.319 17.51) rotate(98)">
          <path id="Контур_18389" data-name="Контур 18389" d="M3.9.6c1.311.881,13.98,12.045,13.98,12.045s-15.119-7.52-16.43-8.4S-.379,1.833.3.826,2.586-.281,3.9.6Z" fill="#e78c17"/>
          <path id="Контур_18390" data-name="Контур 18390" d="M2.57.307c.784.526,8.2,7.439,8.2,7.439S1.567,3.491.783,2.964A1.658,1.658,0,0,1,.258.682,1.657,1.657,0,0,1,2.57.307Z" transform="translate(0.04 0.145)" fill="#f8aa48"/>
          <path id="Контур_18391" data-name="Контур 18391" d="M1.535.125c.4.269,4.036,4,4.036,4S.74,2.17.341,1.9A.987.987,0,0,1,.215.527.986.986,0,0,1,1.535.125Z" transform="translate(0.084 0.3)" fill="#fedf6d"/>
        </g>
        <g id="Сгруппировать_580" data-name="Сгруппировать 580" transform="translate(8.887 181.04)">
          <circle id="Эллипс_186" data-name="Эллипс 186" cx="12.395" cy="12.395" r="12.395" transform="translate(7.281 11.253) rotate(-26.995)" fill="#ef4864"/>
          <path id="Контур_18392" data-name="Контур 18392" d="M5.872,19.285C15.558,15.73,17,2.232,11.358,0A12.4,12.4,0,1,1,0,19.938,12.337,12.337,0,0,0,5.872,19.285Z" transform="translate(14.196 4.381)" fill="#c10020"/>
          <g id="Сгруппировать_578" data-name="Сгруппировать 578" transform="translate(3.784 11.457)">
            <path id="Контур_18393" data-name="Контур 18393" d="M10.4,9.842c.013.107.025.213.04.319-3.808,1.719-6.165,3.087-5.982,3.585.314.857,8-1.176,17.177-4.541S37.985,2.418,37.671,1.561c-.183-.5-2.866-.017-6.882,1.134-.057-.091-.117-.18-.176-.27C37.365.378,42.125-.532,42.437.316c.452,1.233-8.677,5.717-20.391,10.015S.468,17.113.016,15.879C-.3,15.032,3.924,12.647,10.4,9.842Z" fill="#00a7cf"/>
            <path id="Контур_18394" data-name="Контур 18394" d="M.012,13.665c-.169-.462,1.4-1.515,4.114-2.876,1.079-.509,2.26-1.043,3.53-1.593.013.107.025.213.04.319C3.889,11.235,1.532,12.6,1.715,13.1c.314.857,8-1.176,17.177-4.541S35.244,1.773,34.93.916C34.747.417,32.064.9,28.048,2.05c-.057-.091-.117-.18-.176-.27,1.324-.4,2.57-.759,3.723-1.068,2.952-.718,4.828-.929,5-.467.37,1.007-7.519,4.828-17.62,8.535S.382,14.673.012,13.665Z" transform="translate(2.741 0.645)" fill="#215261"/>
          </g>
          <g id="Сгруппировать_579" data-name="Сгруппировать 579" transform="translate(0 7.097)">
            <path id="Контур_18395" data-name="Контур 18395" d="M11.643,11.02c.014.119.027.238.045.357-4.263,1.925-6.9,3.456-6.7,4.015.352.959,8.962-1.317,19.232-5.085s18.31-7.6,17.958-8.559c-.2-.558-3.209-.019-7.705,1.27-.064-.1-.13-.2-.2-.3C41.837.423,47.167-.6,47.515.354c.507,1.381-9.715,6.4-22.831,11.214S.524,19.161.018,17.78C-.331,16.83,4.393,14.16,11.643,11.02Z" fill="#00a7cf"/>
            <path id="Контур_18396" data-name="Контур 18396" d="M.014,15.3c-.189-.517,1.566-1.7,4.607-3.22,1.208-.57,2.531-1.168,3.953-1.783.014.119.027.238.045.357-4.263,1.925-6.9,3.457-6.7,4.015.352.959,8.962-1.317,19.232-5.085s18.31-7.6,17.958-8.559c-.2-.558-3.209-.02-7.705,1.27-.064-.1-.13-.2-.2-.3,1.483-.449,2.878-.849,4.168-1.2,3.305-.8,5.407-1.04,5.6-.523C41.386,1.4,32.553,5.681,21.243,9.83S.428,16.429.014,15.3Z" transform="translate(3.069 0.722)" fill="#215261"/>
          </g>
          <path id="Контур_18397" data-name="Контур 18397" d="M.046,3.174c.3.7,1.948.671,3.689-.065s2.912-1.9,2.616-2.6S4.4-.165,2.662.572-.25,2.474.046,3.174Z" transform="translate(17.359 5.955)" fill="#c10020"/>
          <path id="Контур_18398" data-name="Контур 18398" d="M.027,1.745c.168.4,1.071.394,2.017-.007S3.622.692,3.454.3,2.383-.1,1.437.3-.141,1.349.027,1.745Z" transform="translate(13.475 12.522)" fill="#c10020"/>
          <path id="Контур_18399" data-name="Контур 18399" d="M.074,4.276c.43,1.016,2.622,1.059,4.9.1S8.74,1.807,8.31.791s-2.622-1.059-4.9-.1S-.356,3.26.074,4.276Z" transform="translate(19.093 10.218)" fill="#c10020"/>
        </g>
      </g>
    </g>
    <ellipse id="Эллипс_143" data-name="Эллипс 143" cx="29.247" cy="1.913" rx="29.247" ry="1.913" transform="translate(456.767 1171.558)" fill="#24272d" opacity="0.5"/>
  </g>
</svg>
