<svg xmlns="http://www.w3.org/2000/svg" width="84.18" height="96.652" viewBox="0 0 84.18 96.652">
    <g id="creativity" transform="translate(-0.004 -0.001)">
        <path id="Контур_257" data-name="Контур 257" d="M104.182,51.441a7.789,7.789,0,0,0-5.06,7.274,7.7,7.7,0,0,0,.894,3.547,6.208,6.208,0,0,0,0,11.613,7.7,7.7,0,0,0-.894,3.546,7.787,7.787,0,0,0,5.06,7.274,6.15,6.15,0,0,0-.384,2.08,6.193,6.193,0,0,0,8.434,5.816,6.22,6.22,0,0,0,11.832-2.7V46.243a6.22,6.22,0,0,0-11.832-2.7,6.178,6.178,0,0,0-8.05,7.9Zm5.852-5.2a3.121,3.121,0,0,1,3.118,3.118h3.118a6.175,6.175,0,0,0-1.437-3.933,3.11,3.11,0,0,1,6.114.815V89.892a3.11,3.11,0,0,1-6.114.815,6.174,6.174,0,0,0,1.437-3.933h-3.118a3.118,3.118,0,1,1-3.118-3.118V80.539a6.176,6.176,0,0,0-3.975,1.472,4.673,4.673,0,1,1,5.534-4.59h3.118a7.8,7.8,0,0,0-7.794-7.794,7.712,7.712,0,0,0-4.677,1.6v-.041a3.118,3.118,0,0,1,0-6.236v-.04a7.711,7.711,0,0,0,4.677,1.6,7.8,7.8,0,0,0,7.794-7.794h-3.118a4.677,4.677,0,1,1-5.534-4.589,6.176,6.176,0,0,0,3.975,1.471V52.479a3.118,3.118,0,0,1,0-6.236Zm0,0" transform="translate(-77.294 -32.211)" fill="#fff"/>
        <path id="Контур_258" data-name="Контур 258" d="M270.034,43.126a6.2,6.2,0,0,0-2.2.419A6.221,6.221,0,0,0,256,46.243V89.892a6.221,6.221,0,0,0,11.832,2.7,6.193,6.193,0,0,0,8.433-5.816,6.131,6.131,0,0,0-.384-2.08,7.787,7.787,0,0,0,5.06-7.274,7.7,7.7,0,0,0-.893-3.546,6.209,6.209,0,0,0,0-11.613,7.7,7.7,0,0,0,.893-3.547,7.789,7.789,0,0,0-5.06-7.274,6.128,6.128,0,0,0,.384-2.08,6.242,6.242,0,0,0-6.236-6.236Zm7.794,15.589a4.677,4.677,0,1,1-9.353,0h-3.118a7.8,7.8,0,0,0,7.794,7.794,7.711,7.711,0,0,0,4.677-1.6v.04a3.118,3.118,0,0,1,0,6.236v.041a7.712,7.712,0,0,0-4.677-1.6,7.8,7.8,0,0,0-7.794,7.794h3.118a4.677,4.677,0,1,1,5.534,4.59,6.18,6.18,0,0,0-3.976-1.472v3.118a3.118,3.118,0,1,1-3.118,3.118H263.8a6.174,6.174,0,0,0,1.437,3.933,3.11,3.11,0,0,1-6.114-.815V46.243a3.11,3.11,0,0,1,6.114-.815,6.175,6.175,0,0,0-1.437,3.933h3.118a3.118,3.118,0,1,1,3.118,3.118V55.6a6.179,6.179,0,0,0,3.976-1.471,4.677,4.677,0,0,1,3.819,4.589Zm0,0" transform="translate(-206.116 -32.211)" fill="#fff"/>
        <path id="Контур_259" data-name="Контур 259" d="M124.41,9.724A35.557,35.557,0,0,0,97.572.075l.193,3.111A32.733,32.733,0,0,1,117.928,63.15a19.272,19.272,0,0,0-7.044,8.561H88.776A19.588,19.588,0,0,0,81.7,63.085,32.59,32.59,0,0,1,67.143,34.812l-3.116-.1a35.686,35.686,0,0,0,15.938,30.96,16.426,16.426,0,0,1,5.392,6.035h-4.2v3.118H86.6a17.991,17.991,0,0,1,.667,3.118H84.273v3.118h3.118v4.677A1.558,1.558,0,0,0,88.95,87.3h1.559a9.353,9.353,0,0,0,18.707,0h1.559a1.558,1.558,0,0,0,1.559-1.559V81.064h3.118V77.947h-3.008a17.377,17.377,0,0,1,.626-3.118h5.5V71.711H114.3a16.074,16.074,0,0,1,5.352-5.961A35.849,35.849,0,0,0,124.41,9.724ZM99.862,93.536A6.242,6.242,0,0,1,93.627,87.3H106.1A6.242,6.242,0,0,1,99.862,93.536Zm9.353-9.353H90.509V81.064h18.707Zm.111-6.236H90.384a21.23,21.23,0,0,0-.528-3.118h19.956a20.711,20.711,0,0,0-.485,3.118Zm0,0" transform="translate(-51.533 0)" fill="#fff"/>
        <path id="Контур_260" data-name="Контур 260" d="M49.563,10.92A6.242,6.242,0,0,1,55.8,17.156a1.559,1.559,0,0,0,3.118,0,6.242,6.242,0,0,1,6.236-6.236,1.559,1.559,0,0,0,0-3.118,6.242,6.242,0,0,1-6.236-6.236,1.559,1.559,0,1,0-3.118,0A6.242,6.242,0,0,1,49.563,7.8a1.559,1.559,0,0,0,0,3.118Zm7.794-4.189a9.434,9.434,0,0,0,2.63,2.63,9.445,9.445,0,0,0-2.63,2.63,9.434,9.434,0,0,0-2.63-2.63A9.424,9.424,0,0,0,57.357,6.731Zm0,0" transform="translate(-38.647 -0.005)" fill="#fff"/>
        <path id="Контур_261" data-name="Контур 261" d="M17.152,90.92a1.559,1.559,0,0,0,0-3.118,6.242,6.242,0,0,1-6.236-6.236,1.559,1.559,0,0,0-3.118,0A6.242,6.242,0,0,1,1.563,87.8a1.559,1.559,0,0,0,0,3.118A6.242,6.242,0,0,1,7.8,97.156a1.559,1.559,0,0,0,3.118,0A6.242,6.242,0,0,1,17.152,90.92ZM9.357,91.991a9.434,9.434,0,0,0-2.63-2.63,9.445,9.445,0,0,0,2.63-2.63,9.455,9.455,0,0,0,2.63,2.63A9.444,9.444,0,0,0,9.357,91.991Zm0,0" transform="translate(0 -64.417)" fill="#fff"/>
    </g>
</svg>
