<svg xmlns="http://www.w3.org/2000/svg" width="33.795" height="38.428" viewBox="0 0 33.795 38.428">
  <path id="css-3" d="M60.92,0H29.628a1.251,1.251,0,0,0-1.246,1.384l2.858,32.028a2.138,2.138,0,0,0,1.44,1.735l11.267,3.13a5.862,5.862,0,0,0,2.638,0l11.281-3.125a2.127,2.127,0,0,0,1.441-1.729L62.167,1.384A1.25,1.25,0,0,0,60.92,0ZM55.493,11.561a.011.011,0,0,1-.021,0l-8.827,3.617a.284.284,0,0,0,.108.548h6.866a1.288,1.288,0,0,1,1.28,1.424L53.826,27.218a1.287,1.287,0,0,1-.853,1.078L45.685,30.86a1.287,1.287,0,0,1-.849,0L37.582,28.35a1.288,1.288,0,0,1-.859-1.08l-.486-4.558a.848.848,0,0,1,.843-.938H39.1a.848.848,0,0,1,.843.758l.3,2.8,5.023,1.746,5.046-1.762.617-5.81H36.66a.848.848,0,0,1-.843-.755l-.272-2.463a.848.848,0,0,1,.52-.877l9.13-3.764a.234.234,0,0,0-.089-.451H35.493a.565.565,0,0,1-.562-.506l-.278-2.647a.565.565,0,0,1,.562-.624H55.33a.565.565,0,0,1,.562.629Z" transform="translate(-28.377)" fill="#fff"/>
</svg>
