<svg xmlns="http://www.w3.org/2000/svg" xmlns:xlink="http://www.w3.org/1999/xlink" width="82" height="82" viewBox="0 0 82 82">
  <defs>
    <filter id="Прямоугольник_1843" x="0" y="0" width="82" height="82" filterUnits="userSpaceOnUse">
      <feOffset dy="3" input="SourceAlpha"/>
      <feGaussianBlur stdDeviation="3" result="blur"/>
      <feFlood flood-opacity="0.161"/>
      <feComposite operator="in" in2="blur"/>
      <feComposite in="SourceGraphic"/>
    </filter>
    <filter id="clock" x="18.486" y="19.635" width="42.662" height="42.662" filterUnits="userSpaceOnUse">
      <feOffset dy="3" input="SourceAlpha"/>
      <feGaussianBlur stdDeviation="3" result="blur-2"/>
      <feFlood flood-opacity="0.4"/>
      <feComposite operator="in" in2="blur-2"/>
      <feComposite in="SourceGraphic"/>
    </filter>
  </defs>
  <g id="Сгруппировать_4738" data-name="Сгруппировать 4738" transform="translate(-58 -1589)">
    <g transform="matrix(1, 0, 0, 1, 58, 1589)" filter="url(#Прямоугольник_1843)">
      <g id="Прямоугольник_1843-2" data-name="Прямоугольник 1843" transform="translate(9 6)" fill="#1c1f23" stroke="#fff" stroke-width="2">
        <rect width="64" height="64" rx="10" stroke="none"/>
        <rect x="1" y="1" width="62" height="62" rx="9" fill="none"/>
      </g>
    </g>
    <g transform="matrix(1, 0, 0, 1, 58, 1589)" filter="url(#clock)">
      <path id="clock-2" data-name="clock" d="M12.331,0A12.331,12.331,0,1,0,24.662,12.331,12.345,12.345,0,0,0,12.331,0ZM18.2,18.709a1.027,1.027,0,0,1-1.453,0L11.6,13.571a1.023,1.023,0,0,1-.3-.726V6.166a1.028,1.028,0,0,1,2.055,0v6.254L18.2,17.256a1.026,1.026,0,0,1,0,1.453Zm0,0" transform="translate(27.49 25.63)" fill="#fff"/>
    </g>
  </g>
</svg>
