<svg xmlns="http://www.w3.org/2000/svg" width="548.715" height="606.763" viewBox="0 0 548.715 606.763">
  <g id="Сгруппировать_525" data-name="Сгруппировать 525" transform="translate(-375.527 -112.18)">
    <path id="Контур_18201" data-name="Контур 18201" d="M653.807,428.756V410.839h-9.695a54.619,54.619,0,0,0-9.567-23.064l6.864-6.863-12.672-12.666-6.859,6.861a54.714,54.714,0,0,0-23.072-9.565v-9.695H580.9v9.695a54.759,54.759,0,0,0-23.07,9.565l-6.855-6.861-12.666,12.666,6.855,6.863a54.63,54.63,0,0,0-9.557,23.064h-9.7v17.917h9.7a54.656,54.656,0,0,0,9.557,23.068l-6.855,6.861,12.666,12.666,6.859-6.859a54.694,54.694,0,0,0,23.066,9.563v9.692h17.909v-9.692a54.686,54.686,0,0,0,23.072-9.563l6.859,6.859,12.672-12.666-6.864-6.861a54.7,54.7,0,0,0,9.567-23.068Zm-63.951,32.68A41.638,41.638,0,1,1,631.5,419.8,41.634,41.634,0,0,1,589.857,461.436Z" transform="translate(145.147 235.196)" fill="#d0e729"/>
    <path id="Контур_18202" data-name="Контур 18202" d="M566.433,221.92V197.608H553.279a74.188,74.188,0,0,0-12.978-31.3L549.614,157l-17.192-17.19-9.313,9.311a74.154,74.154,0,0,0-31.3-12.976V122.988H467.5v13.157a74.237,74.237,0,0,0-31.3,12.976l-9.3-9.311L409.709,157l9.305,9.309a74.128,74.128,0,0,0-12.97,31.3H392.883V221.92h13.161a74.177,74.177,0,0,0,12.97,31.3l-9.305,9.309,17.192,17.19,9.305-9.309a74.226,74.226,0,0,0,31.3,12.976V296.54h24.306V283.385a74.179,74.179,0,0,0,31.3-12.976l9.313,9.309,17.192-17.19-9.313-9.309a74.212,74.212,0,0,0,12.978-31.3ZM479.66,273.059a63.3,63.3,0,1,1,63.3-63.294A63.3,63.3,0,0,1,479.66,273.059Z" transform="translate(16.752 10.432)" fill="#d0e729"/>
    <g id="Сгруппировать_496" data-name="Сгруппировать 496" transform="translate(492.029 177.264)">
      <g id="Сгруппировать_488" data-name="Сгруппировать 488">
        <g id="Сгруппировать_487" data-name="Сгруппировать 487">
          <path id="Прямоугольник_1016" data-name="Прямоугольник 1016" d="M14.213,0h233.61a14.213,14.213,0,0,1,14.213,14.213V483.167a14.214,14.214,0,0,1-14.214,14.214H14.215A14.215,14.215,0,0,1,0,483.166V14.213A14.213,14.213,0,0,1,14.213,0Z" transform="translate(5.896)" fill="#f5f5f5"/>
          <path id="Контур_18233" data-name="Контур 18233" d="M12.918,0h236.2a12.918,12.918,0,0,1,12.918,12.918V484.463a12.918,12.918,0,0,1-12.918,12.918H12.919A12.919,12.919,0,0,1,0,484.461V12.918A12.918,12.918,0,0,1,12.918,0Z" fill="#fff"/>
          <path id="Контур_18203" data-name="Контур 18203" d="M529.243,391.737a18.622,18.622,0,1,1-18.619-18.621A18.62,18.62,0,0,1,529.243,391.737Z" transform="translate(-379.606 74.6)" fill="#24272d"/>
          <g id="Сгруппировать_485" data-name="Сгруппировать 485" transform="translate(94.354 12.285)">
            <path id="Контур_18204" data-name="Контур 18204" d="M556.145,163.392a4.074,4.074,0,0,1-4.072,4.072H486.894a4.075,4.075,0,0,1-4.074-4.072h0a4.074,4.074,0,0,1,4.074-4.076h65.179a4.074,4.074,0,0,1,4.072,4.076Z" transform="translate(-482.82 -144.052)" fill="#24272d"/>
            <path id="Контур_18205" data-name="Контур 18205" d="M506.974,155.234a3.687,3.687,0,1,1-3.685-3.685A3.687,3.687,0,0,1,506.974,155.234Z" transform="translate(-466.623 -151.549)" fill="#24272d"/>
          </g>
          <g id="Сгруппировать_486" data-name="Сгруппировать 486" transform="translate(12.517 45.747)">
            <path id="Контур_18234" data-name="Контур 18234" d="M0,0H237V392.074H0Z" fill="#d6d6d6"/>
            <path id="Контур_18206" data-name="Контур 18206" d="M441.178,560.65l237-392.074V560.65Z" transform="translate(-441.178 -168.576)" fill="#aeaeae"/>
          </g>
        </g>
      </g>
      <g id="Сгруппировать_495" data-name="Сгруппировать 495" transform="translate(31.144 68.719)">
        <g id="Сгруппировать_489" data-name="Сгруппировать 489">
          <path id="Контур_18207" data-name="Контур 18207" d="M625.228,267.822h-149.4a25.2,25.2,0,0,1-25.173-25.173V205.438a25.2,25.2,0,0,1,25.173-25.173h149.4A25.2,25.2,0,0,1,650.4,205.438v37.212A25.2,25.2,0,0,1,625.228,267.822Zm-149.4-81.661a19.3,19.3,0,0,0-19.277,19.277v37.212a19.3,19.3,0,0,0,19.277,19.277h149.4A19.3,19.3,0,0,0,644.5,242.649V205.438a19.3,19.3,0,0,0-19.277-19.277Z" transform="translate(-450.656 -180.265)" fill="#fff"/>
        </g>
        <g id="Сгруппировать_494" data-name="Сгруппировать 494" transform="translate(0 98.98)">
          <g id="Сгруппировать_490" data-name="Сгруппировать 490" transform="translate(2.948)">
            <path id="Прямоугольник_1019" data-name="Прямоугольник 1019" d="M11.664,0h62.6A11.664,11.664,0,0,1,85.929,11.664V77.61A11.663,11.663,0,0,1,74.266,89.273h-62.6A11.664,11.664,0,0,1,0,77.609V11.664A11.664,11.664,0,0,1,11.664,0Z" fill="#ef4864"/>
            <path id="Прямоугольник_1020" data-name="Прямоугольник 1020" d="M11.664,0h62.6A11.664,11.664,0,0,1,85.929,11.664V77.61A11.663,11.663,0,0,1,74.266,89.273h-62.6A11.664,11.664,0,0,1,0,77.609V11.664A11.664,11.664,0,0,1,11.664,0Z" transform="translate(107.42)" fill="#ef4864"/>
          </g>
          <g id="Сгруппировать_493" data-name="Сгруппировать 493" transform="translate(0 100.765)">
            <g id="Сгруппировать_491" data-name="Сгруппировать 491">
              <path id="Контур_18208" data-name="Контур 18208" d="M516.611,377.074H476.526a25.9,25.9,0,0,1-25.87-25.87V307.772a25.9,25.9,0,0,1,25.87-25.868h40.085a25.9,25.9,0,0,1,25.87,25.868V351.2A25.9,25.9,0,0,1,516.611,377.074ZM476.526,287.8a20,20,0,0,0-19.975,19.973V351.2a20,20,0,0,0,19.975,19.975h40.085A20,20,0,0,0,536.586,351.2V307.772A20,20,0,0,0,516.611,287.8Z" transform="translate(-450.656 -281.904)" fill="#fff"/>
            </g>
            <g id="Сгруппировать_492" data-name="Сгруппировать 492" transform="translate(107.42)">
              <path id="Контур_18209" data-name="Контур 18209" d="M571.271,377.074H531.186a25.9,25.9,0,0,1-25.87-25.87V307.772a25.9,25.9,0,0,1,25.87-25.868h40.085a25.9,25.9,0,0,1,25.87,25.868V351.2A25.9,25.9,0,0,1,571.271,377.074ZM531.186,287.8a20,20,0,0,0-19.974,19.973V351.2a20,20,0,0,0,19.974,19.975h40.085A20,20,0,0,0,591.246,351.2V307.772A20,20,0,0,0,571.271,287.8Z" transform="translate(-505.316 -281.904)" fill="#fff"/>
            </g>
          </g>
        </g>
        <path id="Контур_18210" data-name="Контур 18210" d="M645.606,355.97c0,11.212-10.007,20.383-22.237,20.383H474.393c-12.23,0-22.237-9.172-22.237-20.383s10.007-20.383,22.237-20.383H623.369C635.6,335.587,645.606,344.759,645.606,355.97Z" transform="translate(-449.208 -30.343)" fill="#ef4864"/>
      </g>
    </g>
    <g id="Сгруппировать_497" data-name="Сгруппировать 497" transform="translate(537.813 371.962)">
      <path id="Контур_18211" data-name="Контур 18211" d="M480.076,244.369l16.973,22.4,9.308-12.281,14.294,18.867H458.106Z" transform="translate(-458.106 -244.369)" fill="#fff"/>
      <path id="Контур_18212" data-name="Контур 18212" d="M476.687,248.651a3.481,3.481,0,1,0,3.482-3.486A3.483,3.483,0,0,0,476.687,248.651Z" transform="translate(-440.17 -243.601)" fill="#fff"/>
    </g>
    <g id="Сгруппировать_498" data-name="Сгруппировать 498" transform="translate(645.233 371.962)">
      <path id="Контур_18213" data-name="Контур 18213" d="M534.736,244.369l16.973,22.4,9.308-12.281,14.294,18.867H512.766Z" transform="translate(-512.766 -244.369)" fill="#fff"/>
      <path id="Контур_18214" data-name="Контур 18214" d="M531.348,248.651a3.481,3.481,0,1,0,3.48-3.486A3.482,3.482,0,0,0,531.348,248.651Z" transform="translate(-494.829 -243.601)" fill="#fff"/>
    </g>
    <g id="Сгруппировать_512" data-name="Сгруппировать 512" transform="translate(638.761 232.713)">
      <g id="Сгруппировать_500" data-name="Сгруппировать 500">
        <path id="Прямоугольник_1021" data-name="Прямоугольник 1021" d="M9.369,0H170.18a9.37,9.37,0,0,1,9.37,9.37V63.008a9.371,9.371,0,0,1-9.371,9.371H9.371A9.371,9.371,0,0,1,0,63.008V9.369A9.369,9.369,0,0,1,9.369,0Z" fill="#00a7cf"/>
        <g id="Сгруппировать_499" data-name="Сгруппировать 499" transform="translate(8.306 6.475)">
          <path id="Прямоугольник_1022" data-name="Прямоугольник 1022" d="M7.711,0H50.874a7.711,7.711,0,0,1,7.711,7.711V51.854a7.709,7.709,0,0,1-7.709,7.709H7.711A7.711,7.711,0,0,1,0,51.852V7.711A7.711,7.711,0,0,1,7.711,0Z" fill="#fff"/>
          <path id="Контур_18215" data-name="Контур 18215" d="M524.4,185.3v26.2l16.528-13.276Z" transform="translate(-503.37 -168.615)" fill="#ef4864"/>
        </g>
      </g>
      <g id="Сгруппировать_511" data-name="Сгруппировать 511" transform="translate(78.275 9.919)">
        <g id="Сгруппировать_505" data-name="Сгруппировать 505">
          <g id="Сгруппировать_501" data-name="Сгруппировать 501">
            <rect id="Прямоугольник_1023" data-name="Прямоугольник 1023" width="20.401" height="2.14" fill="#fff"/>
            <rect id="Прямоугольник_1024" data-name="Прямоугольник 1024" width="52.503" height="2.14" transform="translate(28.799)" fill="#fff"/>
          </g>
          <g id="Сгруппировать_502" data-name="Сгруппировать 502" transform="translate(0 7.201)">
            <rect id="Прямоугольник_1025" data-name="Прямоугольник 1025" width="15.81" height="2.138" fill="#fff"/>
            <rect id="Прямоугольник_1026" data-name="Прямоугольник 1026" width="40.683" height="2.138" transform="translate(22.318)" fill="#fff"/>
          </g>
          <g id="Сгруппировать_503" data-name="Сгруппировать 503" transform="translate(0 14.4)">
            <rect id="Прямоугольник_1027" data-name="Прямоугольник 1027" width="18.292" height="2.139" fill="#fff"/>
            <rect id="Прямоугольник_1028" data-name="Прямоугольник 1028" width="47.074" height="2.139" transform="translate(25.826)" fill="#fff"/>
          </g>
          <g id="Сгруппировать_504" data-name="Сгруппировать 504" transform="translate(0 21.599)">
            <rect id="Прямоугольник_1029" data-name="Прямоугольник 1029" width="14.175" height="2.14" fill="#fff"/>
            <rect id="Прямоугольник_1030" data-name="Прямоугольник 1030" width="36.481" height="2.14" transform="translate(20.011)" fill="#fff"/>
          </g>
        </g>
        <g id="Сгруппировать_510" data-name="Сгруппировать 510" transform="translate(0 28.8)">
          <g id="Сгруппировать_506" data-name="Сгруппировать 506">
            <rect id="Прямоугольник_1031" data-name="Прямоугольник 1031" width="21.907" height="2.14" fill="#fff"/>
            <rect id="Прямоугольник_1032" data-name="Прямоугольник 1032" width="56.374" height="2.14" transform="translate(30.926)" fill="#fff"/>
          </g>
          <g id="Сгруппировать_507" data-name="Сгруппировать 507" transform="translate(0 7.2)">
            <rect id="Прямоугольник_1033" data-name="Прямоугольник 1033" width="16.979" height="2.139" fill="#fff"/>
            <rect id="Прямоугольник_1034" data-name="Прямоугольник 1034" width="43.684" height="2.139" transform="translate(23.967)" fill="#fff"/>
          </g>
          <g id="Сгруппировать_508" data-name="Сгруппировать 508" transform="translate(0 14.401)">
            <rect id="Прямоугольник_1035" data-name="Прямоугольник 1035" width="19.641" height="2.138" fill="#fff"/>
            <rect id="Прямоугольник_1036" data-name="Прямоугольник 1036" width="50.549" height="2.138" transform="translate(27.73)" fill="#fff"/>
          </g>
          <g id="Сгруппировать_509" data-name="Сгруппировать 509" transform="translate(0 21.599)">
            <rect id="Прямоугольник_1037" data-name="Прямоугольник 1037" width="15.223" height="2.14" fill="#fff"/>
            <rect id="Прямоугольник_1038" data-name="Прямоугольник 1038" width="39.174" height="2.14" transform="translate(21.487)" fill="#fff"/>
          </g>
        </g>
      </g>
    </g>
    <g id="Сгруппировать_514" data-name="Сгруппировать 514" transform="translate(458.021 379.326)">
      <path id="Прямоугольник_1039" data-name="Прямоугольник 1039" d="M10.379,0H66.088a10.38,10.38,0,0,1,10.38,10.38V69.066a10.38,10.38,0,0,1-10.38,10.38H10.379A10.379,10.379,0,0,1,0,69.067V10.379A10.379,10.379,0,0,1,10.379,0Z" fill="#00a7cf"/>
      <g id="Сгруппировать_513" data-name="Сгруппировать 513" transform="translate(15.009 22.922)">
        <path id="Контур_18216" data-name="Контур 18216" d="M440.212,267.671l-10.543,3.862,10.543,3.83v3.96l-15.071-5.733v-4.115l15.071-5.733Z" transform="translate(-425.141 -255.955)" fill="#fff"/>
        <path id="Контур_18217" data-name="Контур 18217" d="M443.711,259.78h4.4l-10.447,29.828h-4.4Z" transform="translate(-417.304 -259.78)" fill="#fff"/>
        <path id="Контур_18218" data-name="Контур 18218" d="M456.178,269.476v4.115l-15.073,5.733v-3.96l10.549-3.83-10.549-3.862v-3.928Z" transform="translate(-409.732 -255.955)" fill="#fff"/>
      </g>
    </g>
    <path id="Контур_18219" data-name="Контур 18219" d="M650.224,284.072V274.7h-5.07a28.622,28.622,0,0,0-5.005-12.065l3.592-3.591-6.629-6.627-3.589,3.59a28.608,28.608,0,0,0-12.07-5v-5.072h-9.37V251a28.621,28.621,0,0,0-12.068,5l-3.585-3.59-6.629,6.627,3.589,3.591a28.592,28.592,0,0,0-5,12.065h-5.074v9.374h5.074a28.651,28.651,0,0,0,5,12.067l-3.589,3.59,6.629,6.627,3.589-3.589a28.605,28.605,0,0,0,12.064,5v5.072h9.37v-5.072a28.63,28.63,0,0,0,12.07-5l3.589,3.589,6.629-6.627-3.592-3.59a28.631,28.631,0,0,0,5.005-12.067Zm-33.454,17.1a21.783,21.783,0,1,1,21.787-21.781A21.781,21.781,0,0,1,616.77,301.168Z" transform="translate(200.563 129.101)" fill="#d0e729"/>
    <path id="Контур_18220" data-name="Контур 18220" d="M616.767,316.472v-5.7h-3.091a17.359,17.359,0,0,0-3.042-7.346l2.183-2.189-4.035-4.029-2.183,2.183a17.451,17.451,0,0,0-7.346-3.048v-3.086h-5.705v3.086a17.444,17.444,0,0,0-7.346,3.048l-2.183-2.183-4.035,4.029,2.183,2.189a17.383,17.383,0,0,0-3.044,7.346h-3.089v5.7h3.089a17.443,17.443,0,0,0,3.044,7.348L579.984,326l4.035,4.035,2.183-2.185a17.388,17.388,0,0,0,7.346,3.044v3.089h5.705V330.9a17.4,17.4,0,0,0,7.346-3.044l2.183,2.185L612.817,326l-2.183-2.183a17.367,17.367,0,0,0,3.042-7.348ZM596.4,325.4a11.778,11.778,0,1,1,11.786-11.776A11.782,11.782,0,0,1,596.4,325.4Z" transform="translate(193.536 174.779)" fill="#d0e729"/>
    <g id="Сгруппировать_515" data-name="Сгруппировать 515" transform="translate(707.345 488.401)">
      <path id="Прямоугольник_1040" data-name="Прямоугольник 1040" d="M13.718,0H87.341A13.719,13.719,0,0,1,101.06,13.719V91.276a13.718,13.718,0,0,1-13.718,13.718H13.717A13.717,13.717,0,0,1,0,91.277V13.718A13.718,13.718,0,0,1,13.718,0Z" fill="#00a7cf"/>
      <text id="JAVA" transform="translate(48.706 61.246)" fill="#f5f7f8" font-size="28" font-family="Montserrat-ExtraBold, Montserrat" font-weight="800"><tspan x="-39.228" y="0">JAVA</tspan></text>
    </g>
    <g id="Сгруппировать_516" data-name="Сгруппировать 516" transform="translate(456.309 635.444)">
      <path id="Прямоугольник_1041" data-name="Прямоугольник 1041" d="M9.673,0H61.6A9.675,9.675,0,0,1,71.27,9.675v54.7A9.675,9.675,0,0,1,61.6,74.046H9.674A9.674,9.674,0,0,1,0,64.372V9.673A9.673,9.673,0,0,1,9.673,0Z" fill="#00a7cf"/>
      <text id="API" transform="translate(33.249 41.254)" fill="#f5f7f8" font-size="14" font-family="Montserrat-ExtraBold, Montserrat" font-weight="800"><tspan x="-12.964" y="0">API</tspan></text>
    </g>
    <path id="Контур_18221" data-name="Контур 18221" d="M443.573,322.971v-5.7h-3.089a17.388,17.388,0,0,0-3.044-7.346l2.185-2.187-4.035-4.031-2.185,2.183a17.406,17.406,0,0,0-7.346-3.046v-3.087h-5.7v3.087a17.4,17.4,0,0,0-7.346,3.046l-2.185-2.183-4.033,4.031,2.183,2.187a17.388,17.388,0,0,0-3.044,7.346h-3.089v5.7h3.089a17.445,17.445,0,0,0,3.044,7.348l-2.183,2.183,4.033,4.035,2.185-2.185a17.377,17.377,0,0,0,7.346,3.044v3.089h5.7V337.4a17.377,17.377,0,0,0,7.346-3.044l2.185,2.185,4.035-4.035-2.185-2.183a17.4,17.4,0,0,0,3.044-7.348ZM423.208,331.9a11.778,11.778,0,1,1,11.784-11.776A11.781,11.781,0,0,1,423.208,331.9Z" transform="translate(26.365 181.052)" fill="#d0e729"/>
    <g id="Сгруппировать_517" data-name="Сгруппировать 517" transform="translate(775.034 133.965)">
      <path id="Прямоугольник_1042" data-name="Прямоугольник 1042" d="M10.286,0H65.5A10.287,10.287,0,0,1,75.786,10.287V68.451A10.286,10.286,0,0,1,65.5,78.737H10.287A10.287,10.287,0,0,1,0,68.45V10.286A10.286,10.286,0,0,1,10.286,0Z" fill="#00a7cf"/>
      <text id="CSS" transform="translate(35.609 45.177)" fill="#fff" font-size="20" font-family="Montserrat-ExtraBold, Montserrat" font-weight="800"><tspan x="-20.24" y="0">CSS</tspan></text>
    </g>
    <g id="Сгруппировать_518" data-name="Сгруппировать 518" transform="translate(384.862 245.747)">
      <path id="Прямоугольник_1043" data-name="Прямоугольник 1043" d="M11.531,0H73.419A11.531,11.531,0,0,1,84.95,11.531V76.725a11.53,11.53,0,0,1-11.53,11.53H11.531A11.531,11.531,0,0,1,0,76.724V11.531A11.531,11.531,0,0,1,11.531,0Z" fill="#00a7cf"/>
      <text id="JS" transform="translate(42.35 52.132)" fill="#f5f7f8" font-size="29" font-family="Montserrat-ExtraBold, Montserrat" font-weight="800"><tspan x="-17.458" y="0">JS</tspan></text>
    </g>
    <g id="Сгруппировать_519" data-name="Сгруппировать 519" transform="translate(830.951 568.578)">
      <path id="Прямоугольник_1044" data-name="Прямоугольник 1044" d="M10.8,0H68.781a10.8,10.8,0,0,1,10.8,10.8V71.877a10.8,10.8,0,0,1-10.8,10.8H10.8A10.8,10.8,0,0,1,0,71.877V10.8A10.8,10.8,0,0,1,10.8,0Z" fill="#00a7cf"/>
      <text id="IOS" transform="translate(38.561 48.585)" fill="#f5f7f8" font-size="27" font-family="Montserrat-ExtraBold, Montserrat" font-weight="800"><tspan x="-24.732" y="0">IOS</tspan></text>
    </g>
    <g id="Сгруппировать_522" data-name="Сгруппировать 522" transform="translate(812.711 341.011)">
      <path id="Прямоугольник_1045" data-name="Прямоугольник 1045" d="M9.1,0H57.914a9.1,9.1,0,0,1,9.1,9.1V60.525a9.1,9.1,0,0,1-9.1,9.1H9.1a9.1,9.1,0,0,1-9.1-9.1V9.1A9.1,9.1,0,0,1,9.1,0Z" fill="#00a7cf"/>
      <path id="Контур_18224" data-name="Контур 18224" d="M647.67,246.8c-13.173-2.677-21.822-12.043-21.822-12.043s-8.649,9.366-21.82,12.043c0,0-3.779,19.014,21.82,33.468C651.447,265.81,647.67,246.8,647.67,246.8Zm-25.892,15.973,2.024-7.224a2.824,2.824,0,1,1,4.092,0l2.024,7.224Z" transform="translate(-592.344 -222.699)" fill="#fff"/>
    </g>
    <g id="Сгруппировать_523" data-name="Сгруппировать 523" transform="translate(587.542 112.18)">
      <path id="Контур_18225" data-name="Контур 18225" d="M504.735,128.913a6.762,6.762,0,1,0,6.759,6.764A6.763,6.763,0,0,0,504.735,128.913Z" transform="translate(-469.349 -96.029)" fill="#ef4864"/>
      <path id="Контур_18226" data-name="Контур 18226" d="M492.78,130.207c-1.517,1.317.7,3.51,2.2,2.2,9.148-7.938,21.561-6.621,30.829.244,1.615,1.193,3.166-1.507,1.574-2.688C516.913,122.21,502.986,121.361,492.78,130.207Z" transform="translate(-474.857 -100.908)" fill="#ef4864"/>
      <path id="Контур_18227" data-name="Контур 18227" d="M487.647,127.888c-1.515,1.319.692,3.506,2.2,2.2,15.1-13.1,35.651-11.127,51.01.242,1.613,1.193,3.162-1.505,1.568-2.688C525.859,115.383,503.839,113.852,487.647,127.888Z" transform="translate(-479.811 -106.66)" fill="#ef4864"/>
      <path id="Контур_18228" data-name="Контур 18228" d="M553.351,124.582c-20.926-15.574-48.94-17.555-69.432.242-1.517,1.319.7,3.512,2.2,2.2,19.369-16.83,45.931-14.435,65.656.244C553.39,128.466,554.939,125.765,553.351,124.582Z" transform="translate(-483.41 -112.18)" fill="#ef4864"/>
    </g>
    <g id="Сгруппировать_524" data-name="Сгруппировать 524" transform="translate(375.527 114.085)">
      <path id="Контур_18229" data-name="Контур 18229" d="M638.158,207.953h-7.37v-7.37h-3.931v7.37h-7.37v3.93h7.37v7.37h3.931v-7.37h7.37Z" transform="translate(-140.048 -28.756)" fill="#ef4864"/>
      <path id="Контур_18230" data-name="Контур 18230" d="M394.2,277.578h-7.37v-7.37H382.9v7.37h-7.37v3.931h7.37v7.37h3.93v-7.37h7.37Z" transform="translate(-375.527 38.449)" fill="#ef4864"/>
      <path id="Контур_18231" data-name="Контур 18231" d="M394.2,120.519h-7.37v-7.37H382.9v7.37h-7.37v3.93h7.37v7.37h3.93v-7.37h7.37Z" transform="translate(-375.527 -113.149)" fill="#ef4864"/>
      <path id="Контур_18232" data-name="Контур 18232" d="M663.908,270.327h-7.37v-7.37h-3.93v7.37h-7.37v3.93h7.37v7.37h3.93v-7.37h7.37Z" transform="translate(-115.193 31.45)" fill="#ef4864"/>
    </g>
  </g>
</svg>
