<svg xmlns="http://www.w3.org/2000/svg" xmlns:xlink="http://www.w3.org/1999/xlink" width="170" height="208.67" viewBox="0 0 170 208.67">
  <defs>
    <clipPath id="clip-path">
      <path id="Контур_17742" data-name="Контур 17742" d="M146.841,201.013l5.548-9.609H90.206l5.548,9.609Z" transform="translate(-90.206 -191.404)" fill="none"/>
    </clipPath>
    <clipPath id="clip-path-2">
      <path id="Контур_17751" data-name="Контур 17751" d="M136.4,357.671l-1.611,2.791h18.062l-1.611-2.791Z" transform="translate(-134.793 -357.671)" fill="none"/>
    </clipPath>
  </defs>
  <g id="Сгруппировать_3161" data-name="Сгруппировать 3161" transform="translate(-466 -3349.33)">
    <g id="Сгруппировать_399" data-name="Сгруппировать 399" transform="translate(527.589 3349.33)">
      <g id="Сгруппировать_397" data-name="Сгруппировать 397" transform="translate(17.207)">
        <g id="Сгруппировать_376" data-name="Сгруппировать 376" transform="translate(26.744 152.529)">
          <rect id="Прямоугольник_937" data-name="Прямоугольник 937" width="7.604" height="22.775" transform="translate(6.149)" fill="#124066"/>
          <path id="Контур_17710" data-name="Контур 17710" d="M152.581,381.3h-7.619v2.747a3.81,3.81,0,0,0,3.81,3.81h0a3.809,3.809,0,0,0,3.809-3.81Z" transform="translate(-138.821 -359.612)" fill="#124066"/>
          <g id="Сгруппировать_375" data-name="Сгруппировать 375" transform="translate(0 16.451)">
            <rect id="Прямоугольник_938" data-name="Прямоугольник 938" width="19.902" height="6.324" fill="#3a69a3"/>
            <path id="Контур_17711" data-name="Контур 17711" d="M140.226,372.328a2.53,2.53,0,1,0,2.53,2.53A2.531,2.531,0,0,0,140.226,372.328Zm.577,3.583a1.2,1.2,0,1,1,.476-1.629A1.2,1.2,0,0,1,140.8,375.911Z" transform="translate(-135.286 -371.697)" fill="#4e83b7"/>
            <path id="Контур_17712" data-name="Контур 17712" d="M149.884,372.328a2.53,2.53,0,1,0,2.53,2.53A2.531,2.531,0,0,0,149.884,372.328Zm.577,3.583a1.2,1.2,0,1,1,.475-1.629A1.2,1.2,0,0,1,150.462,375.911Z" transform="translate(-139.984 -371.697)" fill="#4e83b7"/>
            <path id="Контур_17713" data-name="Контур 17713" d="M159.741,372.328a2.53,2.53,0,1,0,2.53,2.53A2.531,2.531,0,0,0,159.741,372.328Zm.577,3.583a1.2,1.2,0,1,1,.476-1.629A1.2,1.2,0,0,1,160.317,375.911Z" transform="translate(-144.779 -371.697)" fill="#4e83b7"/>
          </g>
        </g>
        <g id="Сгруппировать_377" data-name="Сгруппировать 377">
          <path id="Контур_17714" data-name="Контур 17714" d="M149.6,83.588h12.32s-.1-2.424,5.209-9.569,6.709-11.484.967-16.46-7.307-16.42-15.184-10.463c0,0,5.831-.638,3.681,2.68s-10.7,3.062-7.509,13.525A40.577,40.577,0,0,1,149.6,83.588Z" transform="translate(-113.74 -43.671)" fill="#e83043"/>
          <path id="Контур_17715" data-name="Контур 17715" d="M155.5,82.165s13.679-2.136,11.985-12.362-5.9-5.652-3.973-9.966c3.322-7.426-2.605-9.9-2.605-9.9s2.475,4.755-3.908,8.208S155.5,82.165,155.5,82.165Z" transform="translate(-116.336 -45.869)" fill="#d62d46"/>
          <path id="Контур_17716" data-name="Контур 17716" d="M137.923,82.954s15.238-19.012,4.9-24.116S132.489,54.244,132.362,48.5s-3.982-9.825-9.009-2.679c0,0,7.485-3.318,5.184,1.914S118.2,53.5,125.982,62.485,130.4,82.316,130.4,82.316Z" transform="translate(-101.228 -42.016)" fill="#ea3f58"/>
          <path id="Контур_17717" data-name="Контур 17717" d="M113.457,69.613c-2.853-4.6-7.783-7.528-14.163-8.038s-14.707.638-13.606-3.318S85,51.877,80.92,55.322c0,0,4.338-.893,3.062,3.19s-4.976,10.845,3.062,12.249S91.511,76.63,98.4,79.055a14.236,14.236,0,0,1,8.726,8.549h7.106S117.413,75.993,113.457,69.613Z" transform="translate(-80.92 -47.687)" fill="#f45876"/>
          <path id="Контур_17718" data-name="Контур 17718" d="M120.464,94.03s2.749-9.831-3.249-13.413-16.746-1.583-20.078-4.749c0,0-.833,5.582,8.081,6.332S118.882,87.2,120.464,94.03Z" transform="translate(-88.8 -58.486)" fill="#ea3f58"/>
          <path id="Контур_17719" data-name="Контур 17719" d="M124.171,100s-1.82-4.885-4.851-5.993-6.79-1.172-8.851-1.954c0,0,4.664,3.359,8.5,4.3A8.014,8.014,0,0,1,124.171,100Z" transform="translate(-95.296 -66.359)" fill="#ea3f58"/>
          <path id="Контур_17720" data-name="Контур 17720" d="M145.364,83.067c.13-.26,9.249-10.382,3.908-13.952s-12.883-7.609-12.011-13.471c0,0-3.036,9.9,5.823,14.265S145.364,83.067,145.364,83.067Z" transform="translate(-108.086 -48.646)" fill="#e83043"/>
        </g>
        <g id="Сгруппировать_378" data-name="Сгруппировать 378" transform="translate(42.853 101.289)">
          <path id="Контур_17721" data-name="Контур 17721" d="M164.375,261.876c1.686-.22,4.911,0,6.23-4.983s1.393-6.816,2.125-9.454,1.9-6.875-.682-7.842-4.814.073-5.768,5.35S164.375,261.876,164.375,261.876Z" transform="translate(-164.375 -239.273)" fill="#3a69a3"/>
          <path id="Контур_17722" data-name="Контур 17722" d="M166.281,244.952c-.953,5.277-1.906,16.929-1.906,16.929,1.17-.152,3.08-.1,4.581-1.712l2.449-20.761C169.1,238.846,167.153,240.12,166.281,244.952Z" transform="translate(-164.375 -239.279)" fill="#124066"/>
        </g>
        <rect id="Прямоугольник_939" data-name="Прямоугольник 939" width="25.057" height="25.635" transform="translate(24.166 37.658)" fill="#124066"/>
        <g id="Сгруппировать_379" data-name="Сгруппировать 379" transform="translate(24.166 92.9)">
          <path id="Контур_17723" data-name="Контур 17723" d="M153.039,222.935H127.983l6.665,71.576h11.726Z" transform="translate(-127.983 -222.935)" fill="#3a69a3"/>
          <path id="Контур_17724" data-name="Контур 17724" d="M139.719,296.312l1.33-.077-3.736-65.089h-1.335Z" transform="translate(-131.873 -226.93)" fill="#4e83b7"/>
          <path id="Контур_17725" data-name="Контур 17725" d="M146.405,296.29l1.333-.034-1.66-65.11h-1.334Z" transform="translate(-136.138 -226.93)" fill="#4e83b7"/>
          <path id="Контур_17726" data-name="Контур 17726" d="M155.615,231.146l-1.659,65.11,1.333.034,1.66-65.144Z" transform="translate(-140.619 -226.93)" fill="#4e83b7"/>
          <path id="Контур_17727" data-name="Контур 17727" d="M162.644,231.146l-3.736,65.089,1.33.077,3.741-65.165Z" transform="translate(-143.028 -226.93)" fill="#4e83b7"/>
        </g>
        <g id="Сгруппировать_388" data-name="Сгруппировать 388" transform="translate(10.345 45.132)">
          <g id="Сгруппировать_381" data-name="Сгруппировать 381">
            <g id="Сгруппировать_380" data-name="Сгруппировать 380" transform="translate(0 4.013)">
              <path id="Контур_17728" data-name="Контур 17728" d="M101.067,160.076c0-10.4,8.43-22.352,18.83-22.352s18.83,11.952,18.83,22.352Z" transform="translate(-101.067 -137.724)" fill="#124066"/>
              <path id="Контур_17729" data-name="Контур 17729" d="M119.9,141.723c6.727,0,12.644,7.159,14.342,14.354H105.554c1.7-7.2,7.615-14.354,14.342-14.354m0-4c-10.4,0-18.83,11.952-18.83,22.352h37.659c0-10.4-8.43-22.352-18.83-22.352Z" transform="translate(-101.067 -137.724)" fill="#3a69a3"/>
            </g>
            <path id="Контур_17730" data-name="Контур 17730" d="M137.845,131.95a2.041,2.041,0,1,0-2.041,2.041A2.041,2.041,0,0,0,137.845,131.95Z" transform="translate(-116.974 -129.909)" fill="#4e83b7"/>
          </g>
          <g id="Сгруппировать_383" data-name="Сгруппировать 383" transform="translate(0.104 0.154)">
            <g id="Сгруппировать_382" data-name="Сгруппировать 382" transform="translate(0 3.859)">
              <path id="Контур_17731" data-name="Контур 17731" d="M101.269,158.5c0-11.475.679-20.778,5.142-20.778s8.081,9.3,8.081,20.778Z" transform="translate(-101.269 -137.724)" fill="#124066"/>
              <path id="Контур_17732" data-name="Контур 17732" d="M106.747,142.186c1.2,1.43,3.037,5.627,3.586,12.318H105.3a77.453,77.453,0,0,1,.472-7.887,18,18,0,0,1,.972-4.431m-.336-4.462c-4.463,0-5.142,9.3-5.142,20.778h13.223c0-11.475-3.618-20.778-8.081-20.778Z" transform="translate(-101.269 -137.724)" fill="#4e83b7"/>
            </g>
            <path id="Контур_17733" data-name="Контур 17733" d="M110.568,132.1a1.887,1.887,0,1,0-1.887,1.887A1.887,1.887,0,0,0,110.568,132.1Z" transform="translate(-103.956 -130.208)" fill="#4e83b7"/>
          </g>
          <g id="Сгруппировать_385" data-name="Сгруппировать 385" transform="translate(13.679 0)">
            <g id="Сгруппировать_384" data-name="Сгруппировать 384" transform="translate(0 4.013)">
              <path id="Контур_17734" data-name="Контур 17734" d="M165.365,160.076c0-10.4-8.43-22.352-18.83-22.352s-18.829,11.952-18.829,22.352Z" transform="translate(-127.706 -137.724)" fill="#124066"/>
              <path id="Контур_17735" data-name="Контур 17735" d="M146.535,141.723c6.728,0,12.644,7.159,14.342,14.354H132.193c1.7-7.2,7.615-14.354,14.342-14.354m0-4c-10.4,0-18.829,11.952-18.829,22.352h37.659c0-10.4-8.43-22.352-18.83-22.352Z" transform="translate(-127.706 -137.724)" fill="#4e83b7"/>
            </g>
            <circle id="Эллипс_100" data-name="Эллипс 100" cx="2.041" cy="2.041" r="2.041" transform="translate(18.049)" fill="#4e83b7"/>
          </g>
          <g id="Сгруппировать_387" data-name="Сгруппировать 387" transform="translate(38.043 0.154)">
            <g id="Сгруппировать_386" data-name="Сгруппировать 386" transform="translate(0 3.859)">
              <path id="Контур_17736" data-name="Контур 17736" d="M188.118,158.5c0-11.475-.419-20.778-4.882-20.778s-8.081,9.3-8.081,20.778Z" transform="translate(-175.155 -137.724)" fill="#124066"/>
              <path id="Контур_17737" data-name="Контур 17737" d="M182.606,143.866a28.014,28.014,0,0,1,.466,3.126c.2,2.041.3,4.4.345,6.845h-3.374a28.459,28.459,0,0,1,2.562-9.971m.63-6.142c-4.463,0-8.081,9.3-8.081,20.778h12.963c0-11.475-.419-20.778-4.882-20.778Z" transform="translate(-175.155 -137.724)" fill="#3a69a3"/>
            </g>
            <path id="Контур_17738" data-name="Контур 17738" d="M191.552,132.1a1.887,1.887,0,1,0-1.888,1.887A1.888,1.888,0,0,0,191.552,132.1Z" transform="translate(-181.296 -130.208)" fill="#4e83b7"/>
          </g>
        </g>
        <g id="Сгруппировать_391" data-name="Сгруппировать 391" transform="translate(4.768 67.1)">
          <path id="Контур_17739" data-name="Контур 17739" d="M146.841,172.691H95.754L90.206,182.3l5.548,9.609h51.087l5.548-9.609Z" transform="translate(-90.206 -172.691)" fill="#3a69a3"/>
          <path id="Контур_17740" data-name="Контур 17740" d="M146.841,201.013l5.548-9.609H90.206l5.548,9.609Z" transform="translate(-90.206 -181.795)" fill="#2b5a89"/>
          <g id="Сгруппировать_390" data-name="Сгруппировать 390" transform="translate(0 9.609)">
            <g id="Сгруппировать_389" data-name="Сгруппировать 389" clip-path="url(#clip-path)">
              <path id="Контур_17741" data-name="Контур 17741" d="M110.724,182.313,73.206,167.04a42.8,42.8,0,0,1,5.567-9.761l32.251,24.509A2.3,2.3,0,0,0,110.724,182.313Zm4.517,0a2.521,2.521,0,0,0-.332-.564l31.965-24.881a43.071,43.071,0,0,1,5.667,9.648Zm-3.755-.993L86.639,149.329a43.081,43.081,0,0,1,9.653-5.657l15.759,37.316A2.5,2.5,0,0,0,111.486,181.321Zm2.955-.034a2.3,2.3,0,0,0-.525-.3l15.235-37.532a42.808,42.808,0,0,1,9.766,5.556Zm-1.806-.46-5.5-40.131a43,43,0,0,1,11.146-.067l-4.971,40.2-.023,0A2.476,2.476,0,0,0,112.634,180.827Z" transform="translate(-81.935 -166.541)" fill="#124066"/>
            </g>
          </g>
          <path id="Контур_17743" data-name="Контур 17743" d="M92.408,183.977l-2.2,3.814h62.182l-2.2-3.814Z" transform="translate(-90.206 -178.182)" fill="#4e83b7"/>
        </g>
        <g id="Сгруппировать_392" data-name="Сгруппировать 392" transform="translate(20 84.469)">
          <rect id="Прямоугольник_940" data-name="Прямоугольник 940" width="33.39" height="12.647" fill="#124066"/>
          <rect id="Прямоугольник_941" data-name="Прямоугольник 941" width="33.39" height="2.614" fill="#2b5a89"/>
          <rect id="Прямоугольник_942" data-name="Прямоугольник 942" width="33.39" height="2.614" transform="translate(0 10.034)" fill="#2b5a89"/>
          <path id="Контур_17744" data-name="Контур 17744" d="M127.191,211.606a3.71,3.71,0,1,0,3.71,3.71A3.71,3.71,0,0,0,127.191,211.606Zm.846,5.254a1.76,1.76,0,1,1,.7-2.389A1.76,1.76,0,0,1,128.037,216.859Z" transform="translate(-121.626 -208.992)" fill="#2b5a89"/>
          <path id="Контур_17745" data-name="Контур 17745" d="M141.641,211.606a3.71,3.71,0,1,0,3.71,3.71A3.71,3.71,0,0,0,141.641,211.606Zm.846,5.254a1.76,1.76,0,1,1,.7-2.389A1.76,1.76,0,0,1,142.487,216.859Z" transform="translate(-128.656 -208.992)" fill="#2b5a89"/>
          <path id="Контур_17746" data-name="Контур 17746" d="M156.091,211.606a3.71,3.71,0,1,0,3.71,3.71A3.71,3.71,0,0,0,156.091,211.606Zm.846,5.254a1.76,1.76,0,1,1,.7-2.389A1.76,1.76,0,0,1,156.937,216.859Z" transform="translate(-135.686 -208.992)" fill="#2b5a89"/>
          <path id="Контур_17747" data-name="Контур 17747" d="M170.541,211.606a3.71,3.71,0,1,0,3.709,3.71A3.71,3.71,0,0,0,170.541,211.606Zm.846,5.254a1.76,1.76,0,1,1,.7-2.389A1.76,1.76,0,0,1,171.387,216.859Z" transform="translate(-142.716 -208.992)" fill="#2b5a89"/>
        </g>
        <g id="Сгруппировать_395" data-name="Сгруппировать 395" transform="translate(27.663 162.085)">
          <path id="Контур_17748" data-name="Контур 17748" d="M136.4,363.253h14.839l1.611-2.791-1.611-2.791H136.4l-1.611,2.791Z" transform="translate(-134.793 -357.671)" fill="#3a69a3"/>
          <path id="Контур_17749" data-name="Контур 17749" d="M136.4,357.671l-1.611,2.791h18.062l-1.611-2.791Z" transform="translate(-134.793 -357.671)" fill="#2b5a89"/>
          <g id="Сгруппировать_394" data-name="Сгруппировать 394">
            <g id="Сгруппировать_393" data-name="Сгруппировать 393" clip-path="url(#clip-path-2)">
              <path id="Контур_17750" data-name="Контур 17750" d="M142.175,354.184l10.9,4.436a12.46,12.46,0,0,1-1.617,2.836l-9.368-7.119A.671.671,0,0,0,142.175,354.184Zm-1.312,0a.733.733,0,0,0,.1.164l-9.285,7.227a12.5,12.5,0,0,1-1.646-2.8Zm1.091.289,7.218,9.293a12.514,12.514,0,0,1-2.8,1.643l-4.578-10.839A.727.727,0,0,0,141.953,354.473Zm-.858.01a.663.663,0,0,0,.152.087l-4.426,10.9a12.437,12.437,0,0,1-2.837-1.614Zm.525.133,1.6,11.657a12.512,12.512,0,0,1-3.238.02l1.443-11.677h.007A.724.724,0,0,0,141.62,354.616Z" transform="translate(-132.475 -355.974)" fill="#124066"/>
            </g>
          </g>
          <path id="Контур_17752" data-name="Контур 17752" d="M152.216,364.214l.64-1.108H134.793l.64,1.108Z" transform="translate(-134.793 -360.315)" fill="#4e83b7"/>
        </g>
        <g id="Сгруппировать_396" data-name="Сгруппировать 396" transform="translate(18.987 80.269)" opacity="0.5" style="mix-blend-mode: multiply;isolation: isolate">
          <path id="Контур_17753" data-name="Контур 17753" d="M151.551,253.527a11.443,11.443,0,0,0-1.376-.776c-2.249-1.071-7.292-2.929-10.859-4.185,0,0,4.465-.611,6.384-2.369,0,0,3.2,2.878,5.914,3.2.1.012.213.02.32.029L152.81,240l-.079-.035c-4.316-1.918-6.074-4.156-9.271-3.836s-8.472,1.279-10.709,1.119a10.685,10.685,0,0,0-3.2.752l4.8,51.6c1.093-3.468,1.9-6.59,1.751-9.671-.32-6.553-.32-11.349,3.676-11.029a49.775,49.775,0,0,1,10.109,2.421Z" transform="translate(-123.567 -216.708)" fill="#4e83b7"/>
          <path id="Контур_17754" data-name="Контур 17754" d="M134.273,200.813c.48-2.238-3.516-3.037-4.635-2.078s-7.832,3.676-10.23,4.635a5.011,5.011,0,0,0-1.512,1.015h1.013v10.8h2.175a30.32,30.32,0,0,1,7.755-6.7C134.273,205.289,133.794,203.052,134.273,200.813Z" transform="translate(-117.896 -198.337)" fill="#4e83b7"/>
        </g>
      </g>
      <g id="Сгруппировать_398" data-name="Сгруппировать 398" transform="translate(0 77.613)">
        <path id="Контур_17755" data-name="Контур 17755" d="M111.907,234.483a9.834,9.834,0,0,0-5.035-5.275c-2.249-1.071-7.292-2.929-10.859-4.184,0,0,4.465-.611,6.384-2.369,0,0,3.2,2.877,5.914,3.2s6.949-.319,6.831-3.836-1.4-3.677-5.712-5.594-6.074-4.156-9.271-3.836-8.472,1.279-10.709,1.119c-.944-.067-3.34.748-5.83,1.724-.555-2.75-1.044-4.282-1.044-4.282a30.023,30.023,0,0,1,8.632-7.832c5.434-3.2,4.955-5.434,5.434-7.672s-3.516-3.037-4.635-2.078-7.832,3.677-10.23,4.635-4,4.636-6.554,6.873-2.4,4.476-1.6,7.482-.64,11.22-1.439,13.37-1.918,8.239-3.836,15.112-5.754,22.058-8.631,30.21-4.316,23.976-5.435,30.69-6.873,19.98-6.873,19.98h39s-1.119-32.447.8-42.358,5.914-16.624,5.594-23.177-.32-11.349,3.676-11.029,8.951,2.078,10.55,2.558,3.676.8,4.476-1.758-2.558-4.316-2.558-4.316,4.636,1.6,5.914-1.758S112.626,235.922,111.907,234.483Z" transform="translate(-47.411 -193.165)" fill="#fff"/>
        <path id="Контур_17756" data-name="Контур 17756" d="M145.56,280.289s-7.05-3.183-9.587-4.155-13.311,0-13.311,0,6.124-4.575,10.25-3.854S145.56,280.289,145.56,280.289Z" transform="translate(-84.021 -231.618)" fill="#3a69a3" opacity="0.5"/>
        <path id="Контур_17757" data-name="Контур 17757" d="M77.9,221.288c-3.5-2.018,5.717-5.86,5.717-5.86-.555-2.75-1.044-4.282-1.044-4.282a30.023,30.023,0,0,1,8.632-7.832c5.434-3.2,4.955-5.434,5.434-7.672s-3.516-3.037-4.635-2.078-7.832,3.677-10.23,4.635-4,4.636-6.554,6.873-2.4,4.476-1.6,7.482-.64,11.22-1.439,13.37-1.918,8.239-3.836,15.112-5.754,22.058-8.631,30.21-4.316,23.976-5.435,30.69-6.873,19.98-6.873,19.98h6.448c1.976-9.826,7.58-36.205,9.817-31.06,2.738,6.3,13.98-7.162,15.424-15.377s-6.2-11.818-6.2-16,6.342-18.736,7.494-20.9.289-5.188-1.294-5.333a9.646,9.646,0,0,1-3.318-1.153c2.162-2.45,20.23-7.074,20.23-7.074C92.868,220.39,81.4,223.306,77.9,221.288Z" transform="translate(-47.411 -193.165)" fill="#3a69a3" opacity="0.3"/>
        <path id="Контур_17758" data-name="Контур 17758" d="M114.874,207.285c-2.722.928-10.274,4.774-10.386,8.62s-2.56,10.893-2.428,11.291c4.529-4.974,8.144-5.3,8.144-5.3-.555-2.75-1.044-4.282-1.044-4.282a30.023,30.023,0,0,1,8.632-7.832,14.145,14.145,0,0,0,3.713-2.917C119.952,205.993,116.651,206.679,114.874,207.285Z" transform="translate(-73.996 -199.628)" fill="#2b5a89"/>
        <path id="Контур_17759" data-name="Контур 17759" d="M130.353,247.057s.014-3.276-.621-3.735c0,0-.588,4.164-2.887,4.552s-16.832.338-21.97,7.809c0,0,17.41-5.932,19.095-6.257C123.97,249.425,128.435,248.815,130.353,247.057Z" transform="translate(-75.368 -217.567)" fill="#2b5a89"/>
        <path id="Контур_17760" data-name="Контур 17760" d="M135.973,277.9c.555.212,1.325.53,2.19.9a26.839,26.839,0,0,0-4.051-2.833c-1.735-.754-11.449,1.936-11.449,1.936S133.435,276.926,135.973,277.9Z" transform="translate(-84.021 -233.382)" fill="#2b5a89"/>
        <path id="Контур_17761" data-name="Контур 17761" d="M117.685,347.293c1.139-5.885,3.005-10.637,4.271-14.9-7.279,8-13.119,24.875-11.692,35.95a23.349,23.349,0,0,0,6.405,12.676C116.478,370.678,116.4,353.93,117.685,347.293Z" transform="translate(-77.885 -260.899)" fill="#3a69a3" opacity="0.3"/>
      </g>
    </g>
    <rect id="Фигура_3" data-name="Фигура 3" width="170" height="4" rx="2" transform="translate(466 3554)" fill="#fff"/>
  </g>
</svg>
