<svg id="analytics" xmlns="http://www.w3.org/2000/svg" width="88.186" height="88.185" viewBox="0 0 88.186 88.185">
    <g id="Сгруппировать_1165" data-name="Сгруппировать 1165" transform="translate(0 29.395)">
        <g id="Сгруппировать_1164" data-name="Сгруппировать 1164">
            <path id="Контур_19406" data-name="Контур 19406" d="M86.348,225.782H84.511V172.5a1.838,1.838,0,0,0-1.837-1.837H71.651a1.838,1.838,0,0,0-1.837,1.837v53.279H62.464V194.55a1.838,1.838,0,0,0-1.837-1.837H49.6a1.838,1.838,0,0,0-1.837,1.837v31.232H40.418V187.2a1.838,1.838,0,0,0-1.837-1.837H27.557A1.838,1.838,0,0,0,25.72,187.2v38.581H18.371V205.573a1.838,1.838,0,0,0-1.837-1.837H5.512a1.838,1.838,0,0,0-1.837,1.837v20.209H1.837a1.837,1.837,0,0,0,0,3.675H86.348a1.837,1.837,0,1,0,0-3.674Z" transform="translate(0 -170.666)" fill="#fafafa"/>
        </g>
    </g>
    <g id="Сгруппировать_1167" data-name="Сгруппировать 1167" transform="translate(3.674)">
        <g id="Сгруппировать_1166" data-name="Сгруппировать 1166">
            <path id="Контур_19407" data-name="Контур 19407" d="M94.821,0a7.3,7.3,0,0,0-6.309,11.06L76.486,23.086a7.213,7.213,0,0,0-9.4,1.712l-9.028-2.576c0-.059.018-.114.018-.176a7.349,7.349,0,1,0-14.7,0,7.261,7.261,0,0,0,.65,2.991L32.547,34.2a7.246,7.246,0,0,0-3.865-1.128,7.349,7.349,0,1,0,7.349,7.349,7.248,7.248,0,0,0-.952-3.542L46.334,27.9a7.256,7.256,0,0,0,10.7-2.146l8.514,2.429a6.962,6.962,0,0,0-.125,1.213,7.349,7.349,0,1,0,13.658-3.711l12.03-12.03A7.241,7.241,0,0,0,94.821,14.7a7.349,7.349,0,0,0,0-14.7Z" transform="translate(-21.333)" fill="#fafafa"/>
        </g>
    </g>
</svg>
