<svg xmlns="http://www.w3.org/2000/svg" width="40.185" height="34.088" viewBox="0 0 40.185 34.088">
    <g id="group" transform="translate(0 -38.84)">
        <g id="Сгруппировать_647" data-name="Сгруппировать 647" transform="translate(31.276 57.243)">
            <g id="Сгруппировать_646" data-name="Сгруппировать 646" transform="translate(0 0)">
                <path id="Контур_18515" data-name="Контур 18515" d="M401.6,273.32h-3.108a8.084,8.084,0,0,1,.49,2.779v11.745a3.464,3.464,0,0,1-.2,1.16h5.138a3.484,3.484,0,0,0,3.481-3.481v-6.4A5.807,5.807,0,0,0,401.6,273.32Z" transform="translate(-398.494 -273.32)" fill="#fff"/>
            </g>
        </g>
        <g id="Сгруппировать_649" data-name="Сгруппировать 649" transform="translate(0 57.243)">
            <g id="Сгруппировать_648" data-name="Сгруппировать 648" transform="translate(0 0)">
                <path id="Контур_18516" data-name="Контур 18516" d="M8.419,276.1a8.084,8.084,0,0,1,.49-2.779H5.8a5.807,5.807,0,0,0-5.8,5.8v6.4a3.484,3.484,0,0,0,3.481,3.481H8.618a3.465,3.465,0,0,1-.2-1.16Z" transform="translate(0 -273.321)" fill="#fff"/>
            </g>
        </g>
        <g id="Сгруппировать_651" data-name="Сгруппировать 651" transform="translate(10.739 54.221)">
            <g id="Сгруппировать_650" data-name="Сгруппировать 650" transform="translate(0 0)">
                <path id="Контур_18517" data-name="Контур 18517" d="M149.735,234.815h-7.1a5.807,5.807,0,0,0-5.8,5.8v11.745a1.16,1.16,0,0,0,1.16,1.16h16.386a1.16,1.16,0,0,0,1.16-1.16V240.616A5.807,5.807,0,0,0,149.735,234.815Z" transform="translate(-136.829 -234.815)" fill="#fff"/>
            </g>
        </g>
        <g id="Сгруппировать_653" data-name="Сгруппировать 653" transform="translate(13.116 38.84)">
            <g id="Сгруппировать_652" data-name="Сгруппировать 652" transform="translate(0 0)">
                <path id="Контур_18518" data-name="Контур 18518" d="M174.09,38.84a6.975,6.975,0,1,0,6.976,6.976A6.984,6.984,0,0,0,174.09,38.84Z" transform="translate(-167.114 -38.84)" fill="#fff"/>
            </g>
        </g>
        <g id="Сгруппировать_655" data-name="Сгруппировать 655" transform="translate(2.625 45.342)">
            <g id="Сгруппировать_654" data-name="Сгруппировать 654" transform="translate(0 0)">
                <path id="Контур_18519" data-name="Контур 18519" d="M38.66,121.689a5.215,5.215,0,1,0,5.217,5.217A5.223,5.223,0,0,0,38.66,121.689Z" transform="translate(-33.443 -121.689)" fill="#fff"/>
            </g>
        </g>
        <g id="Сгруппировать_657" data-name="Сгруппировать 657" transform="translate(27.125 45.342)">
            <g id="Сгруппировать_656" data-name="Сгруппировать 656" transform="translate(0 0)">
                <path id="Контур_18520" data-name="Контур 18520" d="M350.824,121.689a5.217,5.217,0,1,0,5.217,5.217A5.223,5.223,0,0,0,350.824,121.689Z" transform="translate(-345.607 -121.689)" fill="#fff"/>
            </g>
        </g>
    </g>
</svg>
