<svg xmlns="http://www.w3.org/2000/svg" xmlns:xlink="http://www.w3.org/1999/xlink" width="221.053" height="265.258" viewBox="0 0 221.053 265.258">
  <defs>
    <linearGradient id="linear-gradient" x1="0.5" x2="0.5" y2="1" gradientUnits="objectBoundingBox">
      <stop offset="0" stop-color="#00a7cf"/>
      <stop offset="1" stop-color="#01627a"/>
    </linearGradient>
  </defs>
  <g id="Сгруппировать_357" data-name="Сгруппировать 357" transform="translate(-407.9 -32.133)">
    <path id="Контур_1722" data-name="Контур 1722" d="M414.934,187.666s-9.717-27.643,11.742-37.166c33.393-14.82.348-28.5,29.4-47.4,18.428-11.99-14.241-62.2,53.279-70.387,63.313-7.677,40,63.423,54.432,68.829,23.484,8.8,20.933,30.792,20.933,41.522s31.172,7.61,23.008,38.44C600.2,209.923,422.234,251.417,414.934,187.666Z" transform="translate(5.254)" fill="#642800"/>
    <path id="Контур_1723" data-name="Контур 1723" d="M509.138,50.83s7.617,76.4-31.545,76.377c-26.938-.015-39.239-46.43-31.47-67.709S493.6,33.49,509.138,50.83Z" transform="translate(39.003 8.813)" fill="#e7bd9f"/>
    <path id="Контур_1724" data-name="Контур 1724" d="M514.887,71.165s-5.658,53.5,3.41,61.486,45.769-4.142,55.529,11.241,6.843,129.629,6.843,129.629H425.89s2.615-131.606,10.649-137.36,41.844,6.632,43.808-15.94c.943-10.8-3.727-66.116-3.727-66.116Z" transform="translate(19.53 23.854)" fill="#e7bd9f"/>
    <ellipse id="Эллипс_78" data-name="Эллипс 78" cx="2.386" cy="3.078" rx="2.386" ry="3.078" transform="translate(501.75 90.293)" fill="#24272d"/>
    <ellipse id="Эллипс_79" data-name="Эллипс 79" cx="2.386" cy="3.078" rx="2.386" ry="3.078" transform="translate(526.671 90.293)" fill="#24272d"/>
    <path id="Контур_1725" data-name="Контур 1725" d="M474.258,67.526s4.465-13.027,10.222-7.333-.69,21.332-6.23,21.246S471.63,72.842,474.258,67.526Z" transform="translate(70.556 28.899)" fill="#e7bd9f"/>
    <path id="Контур_1726" data-name="Контур 1726" d="M451.9,78.5s16.762,16.875,33.015,1.379l-1.249,9s-2.182,8.876-12.937,9.581-18.629-9.756-18.629-9.756Z" transform="translate(47.772 50.34)" fill="#24272d" opacity="0.5"/>
    <path id="Контур_1727" data-name="Контур 1727" d="M465.155,57.3s4.242-4.13,10.249.3C478.912,60.19,460.258,61.627,465.155,57.3Z" transform="translate(61.261 25.427)" fill="#642800"/>
    <path id="Контур_1728" data-name="Контур 1728" d="M460.831,56.7s-4.244-4.13-10.251.3C447.072,59.59,465.728,61.027,460.831,56.7Z" transform="translate(45.854 24.776)" fill="#642800"/>
    <path id="Контур_1729" data-name="Контур 1729" d="M486.972,92.678s.34,31.121,32.279,31.121c29.488,0,29.488-30.731,29.488-30.731s48.928-2.7,59.008,16.376,18.977,122.544,18.977,122.544H407.9s8.188-106.716,15.507-121.314C434.533,88.488,486.972,92.678,486.972,92.678Z" transform="translate(0 65.387)" fill="#ef4864"/>
    <path id="Контур_1730" data-name="Контур 1730" d="M476.147,73.867l-1.564-.063c.3-7.329,1.562-11.317,3.858-12.195a3.449,3.449,0,0,1,3.429.943l-1.12,1.093c-.01-.01-.905-.905-1.756-.571C478.258,63.36,476.508,64.985,476.147,73.867Z" transform="translate(72.392 31.809)" fill="#24272d"/>
    <path id="Контур_1731" data-name="Контур 1731" d="M464.581,80.944c-1.8,0-5.952-2.726-7.746-3.961l.813-1.183c2.544,1.754,5.683,3.556,6.7,3.71.53-1.679.332-10.716-.19-18.9l1.431-.092c1.27,19.832-.038,20.205-.665,20.385A1.269,1.269,0,0,1,464.581,80.944Z" transform="translate(53.124 30.812)" fill="#24272d"/>
    <path id="Контур_1732" data-name="Контур 1732" d="M463.443,76.756c-3.568,0-6.672-3.556-6.814-3.719l1.089-.936c.031.038,3.17,3.683,6.33,3.17,1.729-.282,3.181-1.835,4.317-4.618l1.328.544c-1.339,3.276-3.162,5.124-5.418,5.491A5.124,5.124,0,0,1,463.443,76.756Z" transform="translate(52.901 41.819)" fill="#24272d"/>
    <path id="Контур_1733" data-name="Контур 1733" d="M514.211,81.217s-28.74-13.771-36.123-35.847c0,0-14.691,37.015-36.458,41.685,0,0-3.819-46.082,37.637-50.649S524.827,75.027,514.211,81.217Z" transform="translate(36.517 4.273)" fill="#642800"/>
    <path id="Контур_1734" data-name="Контур 1734" d="M500.522,77.287c-1.139,0-29.784-.438-41.814-36.379l1.483-.5c11.834,35.357,40.121,35.3,40.336,35.314l.029,1.564Z" transform="translate(55.158 8.985)" fill="#441d02"/>
    <path id="Контур_1735" data-name="Контур 1735" d="M452.965,67.79s-4.4-13.048-10.186-7.385.584,21.336,6.123,21.279S455.566,73.118,452.965,67.79Z" transform="translate(35.383 29.146)" fill="#e7bd9f"/>
    <path id="Контур_1736" data-name="Контур 1736" d="M447.035,73.867c-.363-8.9-2.115-10.514-2.853-10.8-.851-.327-1.739.561-1.746.571l-1.124-1.091a3.448,3.448,0,0,1,3.429-.943c2.3.878,3.56,4.866,3.858,12.195Z" transform="translate(36.272 31.81)" fill="#24272d"/>
    <path id="Контур_1737" data-name="Контур 1737" d="M415.835,135.633c-.111-.254-10.708-25.5,11.923-36.659C446.944,89.514,446.81,87.848,445.951,77c-.113-1.439-.24-3.032-.336-4.816l1.56-.086c.1,1.769.223,3.35.334,4.778.924,11.642.519,13.846-19.058,23.5-8.935,4.4-13.536,11.552-13.675,21.242a36.54,36.54,0,0,0,2.492,13.392Z" transform="translate(5.82 43.386)" fill="#441d02"/>
    <path id="Контур_1738" data-name="Контур 1738" d="M433.589,114.994l-.987-1.216c6.847-5.569,6.319-12.482,5.589-22.051-.619-8.113-1.391-18.209,2.5-30.375,4.4-13.75,15.046-20.681,23.2-24.074a55.263,55.263,0,0,1,16.76-4.1l.077,1.562c-.3.015-30.471,1.846-38.546,27.086-3.8,11.873-3.041,21.8-2.432,29.778C440.488,101.271,441.074,108.906,433.589,114.994Z" transform="translate(26.817 1.14)" fill="#441d02"/>
    <path id="Контур_1739" data-name="Контур 1739" d="M494.915,128.4c-7.984-10.32-5.763-23.651-3.414-37.764,1.52-9.141,3.095-18.593,1.719-27.278a35.321,35.321,0,0,0-21.916-27.5l.488-1.485A36.9,36.9,0,0,1,494.763,63.11c1.418,8.935-.177,18.514-1.719,27.778-2.29,13.767-4.457,26.771,3.108,36.55Z" transform="translate(68.832 2.423)" fill="#441d02"/>
    <path id="Контур_1740" data-name="Контур 1740" d="M459.913,93.122s27.255,73.432,58.741,138.72c0,0,38-69.361,59.192-138.288,0,0,14.384-6.05,30.087,10.808,23.8,25.553,20.91,127.481,20.91,127.481H407.9s5.475-78.421,6.8-98.57C417.435,91.71,459.913,93.122,459.913,93.122Z" transform="translate(0 65.533)" fill="url(#linear-gradient)"/>
    <path id="Контур_1741" data-name="Контур 1741" d="M424.3,201.481l-1.564-.033c.065-2.993,1.6-73.363,2.64-80.967l1.547.211C425.9,128.207,424.319,200.749,424.3,201.481Z" transform="translate(16.108 95.911)" fill="#01627a"/>
    <path id="Контур_1742" data-name="Контур 1742" d="M500.248,201.481c-.017-.732-1.6-73.274-2.626-80.79l1.547-.211c1.039,7.6,2.576,77.975,2.642,80.967Z" transform="translate(97.403 95.911)" fill="#01627a"/>
    <path id="Контур_1743" data-name="Контур 1743" d="M434.444,92.8s-6.226,70.389-2.065,77.7,34.223,6.784,34.223,6.784-14.747,22.468-5.763,33.655,32.794,20.585,32.794,20.585S454.189,110.256,434.444,92.8Z" transform="translate(25.02 65.858)" fill="#f4f2e9"/>
    <path id="Контур_1744" data-name="Контур 1744" d="M520.2,92.8s6.225,70.389,2.065,77.7-34.223,6.784-34.223,6.784,14.747,22.468,5.763,33.655S461,231.517,461,231.517,500.451,110.256,520.2,92.8Z" transform="translate(57.65 65.858)" fill="#f4f2e9"/>
    <path id="Контур_1745" data-name="Контур 1745" d="M480.357,90.76l-19.279,34.78s20.789,12.23,26,13.794c3.712,1.114,7.147-30.293,7.147-43.9C494.229,92.858,480.357,90.76,480.357,90.76Z" transform="translate(57.731 63.647)" fill="#fff"/>
    <path id="Контур_1746" data-name="Контур 1746" d="M456.07,90.76l21.9,34.78s-20.789,12.23-26,13.794c-3.712,1.114-7.149-30.293-7.149-43.9C444.816,92.858,456.07,90.76,456.07,90.76Z" transform="translate(40.076 63.647)" fill="#fff"/>
    <path id="Контур_1747" data-name="Контур 1747" d="M424.487,118.837l-.148-1.558c16.059-1.5,24.1-11.98,24.573-32.052.361-15.069,8.63-16.681,8.983-16.743l.273,1.541c-.3.056-7.366,1.539-7.692,15.24C449.975,106.271,441.474,117.254,424.487,118.837Z" transform="translate(17.846 39.464)" fill="#441d02"/>
    <path id="Контур_1748" data-name="Контур 1748" d="M441.922,79.7l-.5-1.481c6.488-2.215,7.1-5.6,8.309-12.332a82.42,82.42,0,0,1,2.826-11.815c4.874-14.837,20.391-15.917,20.545-15.928l.094,1.562c-.146.008-14.616,1.043-19.152,14.854a81.609,81.609,0,0,0-2.774,11.6C450.031,73.038,449.282,77.189,441.922,79.7Z" transform="translate(36.386 6.528)" fill="#441d02"/>
    <path id="Контур_1749" data-name="Контур 1749" d="M440.161,111.973l-.436-1.5c14.143-4.121,11.863-15.029,9.852-24.654-2.152-10.318.021-13.765.115-13.907l1.31.851c-.019.031-1.883,3.2.106,12.737C453.152,95.278,455.694,107.448,440.161,111.973Z" transform="translate(34.55 43.184)" fill="#441d02"/>
    <path id="Контур_1750" data-name="Контур 1750" d="M513.609,118.837c-16.989-1.583-25.49-12.566-25.991-33.572-.327-13.8-7.615-15.227-7.688-15.24l.269-1.541c.352.063,8.624,1.675,8.983,16.743.478,20.072,8.516,30.556,24.573,32.052Z" transform="translate(78.197 39.464)" fill="#441d02"/>
    <path id="Контур_1751" data-name="Контур 1751" d="M487.051,111.973c-15.531-4.526-12.989-16.7-10.949-26.475,1.992-9.531.127-12.706.106-12.737l1.312-.851c.094.142,2.269,3.589.115,13.907-2.01,9.625-4.288,20.533,9.852,24.654Z" transform="translate(72.377 43.184)" fill="#441d02"/>
    <path id="Контур_1752" data-name="Контур 1752" d="M500.485,79.065,498.921,79c.336-8.169-2.413-10.113-6.219-12.806a25.709,25.709,0,0,1-10.639-13.5c-6.117-16.247-20.727-14.12-20.873-14.1l-.244-1.543c.156-.029,16.022-2.328,22.579,15.1A24.089,24.089,0,0,0,493.6,64.916C497.494,67.667,500.856,70.044,500.485,79.065Z" transform="translate(57.587 5.207)" fill="#441d02"/>
  </g>
</svg>
