<svg xmlns="http://www.w3.org/2000/svg" width="226.592" height="265.254" viewBox="0 0 226.592 265.254">
  <g id="Сгруппировать_358" data-name="Сгруппировать 358" transform="translate(-244.951 -32.217)">
    <path id="Контур_1753" data-name="Контур 1753" d="M354.181,71.177s-5.662,53.538,3.41,61.529,45.8-4.145,55.571,11.249,6.848,129.72,6.848,129.72H265.121s2.617-131.7,10.657-137.457,41.873,6.637,43.839-15.952c.943-10.811-3.73-66.162-3.73-66.162Z" transform="translate(21.926 23.793)" fill="#9f4f48"/>
    <path id="Контур_1754" data-name="Контур 1754" d="M326.256,92.678s3.642,29.492,28.835,35.261,32.978-34.871,32.978-34.871,54.037-2.006,64.123,17.083,13.917,121.935,13.917,121.935H247.131s8.194-106.792,15.517-121.4C273.783,88.485,326.256,92.678,326.256,92.678Z" transform="translate(2.37 65.383)" fill="#f4f2e9"/>
    <path id="Контур_1755" data-name="Контур 1755" d="M303.587,110.169c-19.568,0-43.568-.282-43.929-.286l.019-1.565c.543.006,54.552.641,66.459,0l.083,1.563C322.21,110.1,313.463,110.169,303.587,110.169Z" transform="translate(15.988 82.727)" fill="#e0a278"/>
    <path id="Контур_1756" data-name="Контур 1756" d="M352.887,110.169c-19.458,0-43.29-.282-43.649-.286l.019-1.565c.541.006,54.17.641,66.081,0l.083,1.563C371.41,110.1,362.707,110.169,352.887,110.169Z" transform="translate(69.885 82.727)" fill="#e0a278"/>
    <path id="Контур_1757" data-name="Контур 1757" d="M351.309,46.642s-10.8-22.3-38.431-11.281S261.435,80.933,284.6,98.854l62.435-2.546,10.479,7.551s19.7-16.039,12.994-36.28S351.309,46.642,351.309,46.642Z" transform="translate(32.927 0.094)" fill="#e0a278"/>
    <path id="Контур_1758" data-name="Контур 1758" d="M348.415,50.837s7.622,76.452-31.567,76.431c-26.957-.015-39.266-46.463-31.492-67.757S332.866,33.486,348.415,50.837Z" transform="translate(41.425 8.732)" fill="#9f4f48"/>
    <ellipse id="Эллипс_80" data-name="Эллипс 80" cx="2.388" cy="3.08" rx="2.388" ry="3.08" transform="translate(343.417 90.241)" fill="#3e2d4a"/>
    <ellipse id="Эллипс_81" data-name="Эллипс 81" cx="2.388" cy="3.08" rx="2.388" ry="3.08" transform="translate(368.355 90.241)" fill="#3e2d4a"/>
    <path id="Контур_1759" data-name="Контур 1759" d="M292.2,67.8s-4.4-13.057-10.193-7.39.584,21.351,6.128,21.294S294.807,73.128,292.2,67.8Z" transform="translate(37.801 29.093)" fill="#9f4f48"/>
    <path id="Контур_1760" data-name="Контур 1760" d="M313.488,67.532s4.471-13.036,10.231-7.338-.691,21.347-6.234,21.261S310.859,72.852,313.488,67.532Z" transform="translate(73.021 28.845)" fill="#9f4f48"/>
    <path id="Контур_1761" data-name="Контур 1761" d="M291.232,78.246s16.573,17.423,32.838,1.916l-1.25,9.01s-2.183,8.883-12.946,9.588S291.232,89,291.232,89Z" transform="translate(50.311 50.036)" fill="#793535"/>
    <path id="Контур_1762" data-name="Контур 1762" d="M304.387,57.3s4.245-4.132,10.256.3C318.153,60.193,299.487,61.631,304.387,57.3Z" transform="translate(63.714 25.368)" fill="#e0a278"/>
    <path id="Контур_1763" data-name="Контур 1763" d="M300.068,56.7s-4.245-4.132-10.256.3C286.3,59.593,304.968,61.031,300.068,56.7Z" transform="translate(48.286 24.716)" fill="#e0a278"/>
    <path id="Контур_1764" data-name="Контур 1764" d="M286.271,73.875c-.363-8.889-2.114-10.515-2.851-10.8-.847-.332-1.747.561-1.757.572l-1.119-1.094a3.457,3.457,0,0,1,3.429-.943c2.3.879,3.563,4.869,3.861,12.2Z" transform="translate(38.692 31.76)" fill="#793535"/>
    <path id="Контур_1765" data-name="Контур 1765" d="M315.377,73.875l-1.563-.063c.3-7.334,1.563-11.324,3.861-12.2a3.455,3.455,0,0,1,3.429.943l-1.119,1.094c-.01-.01-.92-.9-1.757-.572C317.491,63.36,315.74,64.986,315.377,73.875Z" transform="translate(74.859 31.76)" fill="#793535"/>
    <path id="Контур_1766" data-name="Контур 1766" d="M250.641,140.493s27.758-2.077,28.09,0,0,40.276,0,40.276h-31.6S249.306,152.667,250.641,140.493Z" transform="translate(2.37 116.7)" fill="#9f4f48"/>
    <path id="Контур_1767" data-name="Контур 1767" d="M366.095,140.493s-27.758-2.077-28.092,0,0,40.276,0,40.276h31.6S367.431,152.667,366.095,140.493Z" transform="translate(100.994 116.7)" fill="#9f4f48"/>
    <path id="Контур_1768" data-name="Контур 1768" d="M284.946,59.784s4.009,42.679,14.09,46.817,4.7-7.541,17.9-8.8,8.453,9.686,17.577,9.964,10.721-51.977,11.571-64.56l5.182,3.137s1.091,77.717-27.794,83.683c-25.742,5.32-38.886-32.932-39.842-55.285C283.634,74.74,280.315,65.8,284.946,59.784Z" transform="translate(40.8 11.943)" fill="#e0a278"/>
    <path id="Контур_1769" data-name="Контур 1769" d="M338.266,46.3s-.758,12.418-21.338,16.118-24.471,4.957-34.18,9.722c0,0,8.144-13.675,22.524-15.065,0,0-17.663.7-23.033,9.567C282.238,66.647,298.1,18.137,338.266,46.3Z" transform="translate(40.534 5.754)" fill="#e0a278"/>
    <path id="Контур_1770" data-name="Контур 1770" d="M303.817,80.958c-1.8,0-5.959-2.728-7.751-3.963l.814-1.183c2.546,1.755,5.687,3.558,6.708,3.713.53-1.68.332-10.723-.19-18.917l1.432-.092c1.271,19.846-.038,20.22-.666,20.4A1.269,1.269,0,0,1,303.817,80.958Z" transform="translate(55.566 30.761)" fill="#793535"/>
    <path id="Контур_1771" data-name="Контур 1771" d="M302.679,76.761c-3.571,0-6.677-3.558-6.819-3.721l1.089-.937c.031.038,3.172,3.686,6.334,3.172,1.73-.282,3.183-1.837,4.32-4.621l1.329.545c-1.34,3.279-3.166,5.128-5.422,5.5A5.127,5.127,0,0,1,302.679,76.761Z" transform="translate(55.342 41.783)" fill="#793535"/>
    <path id="Контур_1772" data-name="Контур 1772" d="M309.814,41.154s1.4,30.688,10.114,33.314S325.217,43.151,309.814,41.154Z" transform="translate(70.511 9.714)" fill="#e0a278"/>
    <path id="Контур_1773" data-name="Контур 1773" d="M318.081,131.012c-9.924,0-19.095-6.069-26.518-17.554A78.125,78.125,0,0,1,283.3,96.066l1.5-.455c.1.338,10.546,33.836,33.278,33.836,13.455,0,25.3-9.7,32.492-26.61l1.442.614C344.562,120.967,332.194,131.012,318.081,131.012Z" transform="translate(41.693 68.913)" fill="#3e2d4a"/>
    <path id="Контур_1774" data-name="Контур 1774" d="M328.471,123.007c-20.169,0-45.064-.282-45.442-.286l.019-1.565c.566.006,56.6.641,68.5,0l.086,1.563C347.624,122.936,338.65,123.007,328.471,123.007Z" transform="translate(41.394 96.683)" fill="#3e2d4a"/>
    <path id="Контур_1775" data-name="Контур 1775" d="M328.471,115.472c-20.169,0-45.064-.284-45.442-.288l.019-1.565c.566.008,56.6.643,68.5,0l.086,1.563C347.624,115.4,338.65,115.472,328.471,115.472Z" transform="translate(41.394 88.49)" fill="#3e2d4a"/>
    <path id="Контур_1776" data-name="Контур 1776" d="M328.471,131.68c-20.169,0-45.064-.284-45.442-.288l.019-1.565c.566.008,56.6.643,68.5,0l.086,1.563C347.624,131.607,338.65,131.68,328.471,131.68Z" transform="translate(41.394 106.109)" fill="#3e2d4a"/>
    <path id="Контур_1777" data-name="Контур 1777" d="M328.471,127.681c-20.169,0-45.064-.284-45.442-.288l.019-1.565c.566.006,56.6.645,68.5,0l.086,1.563C347.624,127.608,338.65,127.681,328.471,127.681Z" transform="translate(41.394 101.762)" fill="#e0a278"/>
    <path id="Контур_1778" data-name="Контур 1778" d="M328.471,119.253c-20.169,0-45.064-.282-45.442-.286l.019-1.565c.566.008,56.6.643,68.5,0l.086,1.563C347.624,119.182,338.65,119.253,328.471,119.253Z" transform="translate(41.394 92.602)" fill="#e0a278"/>
    <path id="Контур_1779" data-name="Контур 1779" d="M328.471,144.559c-20.169,0-45.064-.282-45.442-.286l.019-1.565c.566.006,56.6.643,68.5,0l.086,1.563C347.624,144.486,338.65,144.559,328.471,144.559Z" transform="translate(41.394 120.112)" fill="#e0a278"/>
    <path id="Контур_1780" data-name="Контур 1780" d="M328.471,135.226c-20.169,0-45.064-.284-45.442-.288l.019-1.565c.566.008,56.6.641,68.5,0l.086,1.563C347.624,135.153,338.65,135.226,328.471,135.226Z" transform="translate(41.394 109.964)" fill="#e0a278"/>
    <path id="Контур_1781" data-name="Контур 1781" d="M328.471,153.235c-20.169,0-45.064-.282-45.442-.286l.019-1.565c.566.008,56.6.643,68.5,0l.086,1.563C347.624,153.164,338.65,153.235,328.471,153.235Z" transform="translate(41.394 129.543)" fill="#e0a278"/>
    <path id="Контур_1782" data-name="Контур 1782" d="M328.471,139.117c-20.169,0-45.064-.282-45.442-.286l.019-1.565c.566.006,56.6.643,68.5,0l.086,1.563C347.624,139.044,338.65,139.117,328.471,139.117Z" transform="translate(41.394 114.196)" fill="#3e2d4a"/>
    <path id="Контур_1783" data-name="Контур 1783" d="M328.471,148.789c-20.169,0-45.064-.282-45.442-.286l.019-1.565c.566.008,56.6.643,68.5,0l.086,1.563C347.624,148.716,338.65,148.789,328.471,148.789Z" transform="translate(41.394 124.71)" fill="#3e2d4a"/>
    <path id="Контур_1784" data-name="Контур 1784" d="M328.471,157.23c-20.169,0-45.064-.282-45.442-.286l.019-1.565c.566.008,56.6.643,68.5,0l.086,1.563C347.624,157.159,338.65,157.23,328.471,157.23Z" transform="translate(41.394 133.886)" fill="#3e2d4a"/>
    <path id="Контур_1785" data-name="Контур 1785" d="M328.626,92.554,331.341,232.5h-86.39s2.674-106.408,20.424-125.657S328.626,92.554,328.626,92.554Z" transform="translate(0 64.967)" fill="#4db2b9"/>
    <path id="Контур_1786" data-name="Контур 1786" d="M284.815,178.089h0a3.291,3.291,0,0,1-.7-.073c-5.627-1.238-18.425-12.99-18.55-13.109-1.686-1.582-1.818-10.97-.465-33.477.111-1.853.194-3.241.217-3.924.05-1.357,1.421-2.609,11.051-2.609,11.567,0,28.987,1.841,29.163,1.858l.662.071.038.664c.065,1.158,1.57,28.391-.05,32.671C304.592,164.344,290.536,178.089,284.815,178.089Zm-8.453-51.626c-8.576,0-9.429,1.031-9.5,1.15-.012.641-.1,2.041-.209,3.911-1.213,20.205-1.221,31.052-.025,32.241,3.273,3.072,13.574,11.79,17.815,12.723a1.661,1.661,0,0,0,.367.035c4.731,0,18.343-12.81,19.9-16.916,1.213-3.208.432-23.11-.015-31.363C301.405,127.91,286.568,126.463,276.362,126.463Z" transform="translate(20.899 100.751)" fill="#3e2d4a"/>
    <path id="Контур_1787" data-name="Контур 1787" d="M283.747,148.737l-.136,0c-6.687-.271-17.619-19.748-18.844-21.966l1.369-.758c3.212,5.819,12.618,20.961,17.538,21.159,4.936.129,16.453-15.248,20.476-21.217l1.3.874C303.927,129.083,290.478,148.737,283.747,148.737Z" transform="translate(21.542 101.896)" fill="#3e2d4a"/>
    <path id="Контур_1788" data-name="Контур 1788" d="M261.075,199.508c-.008-.6-.908-60.039,0-78.247l1.563.077c-.906,18.158-.006,77.547,0,78.144Z" transform="translate(17.088 96.797)" fill="#3e2d4a"/>
    <path id="Контур_1789" data-name="Контур 1789" d="M314.836,92.41l-2.713,139.949h86.39S399.453,127.147,381.7,107.9,314.836,92.41,314.836,92.41Z" transform="translate(73.021 65.111)" fill="#4db2b9"/>
    <path id="Контур_1790" data-name="Контур 1790" d="M335.909,148.737c-6.731,0-20.18-19.654-21.7-21.91l1.3-.874c4,5.931,15.4,21.219,20.38,21.219l.1,0c4.921-.2,14.328-15.34,17.536-21.159l1.369.758c-1.223,2.219-12.155,21.7-18.842,21.966Z" transform="translate(75.288 101.896)" fill="#3e2d4a"/>
    <path id="Контур_1791" data-name="Контур 1791" d="M338.418,199.508l-1.565-.025c.008-.6.908-59.987,0-78.144l1.563-.077C339.326,139.469,338.427,198.909,338.418,199.508Z" transform="translate(99.905 96.797)" fill="#3e2d4a"/>
    <path id="Контур_1792" data-name="Контур 1792" d="M335.814,178.089c-5.721,0-19.777-13.745-21.359-17.928-1.622-4.281-.117-31.513-.05-32.671l.038-.664.662-.071c.173-.017,17.6-1.858,29.163-1.858,9.63,0,11,1.252,11.049,2.609.023.682.106,2.07.219,3.922,1.35,22.509,1.221,31.9-.465,33.479-.125.119-12.923,11.871-18.55,13.109A3.31,3.31,0,0,1,335.814,178.089ZM315.93,128.246c-.447,8.252-1.227,28.155-.013,31.363,1.553,4.105,15.165,16.916,19.9,16.916a1.681,1.681,0,0,0,.369-.035c4.239-.933,14.543-9.651,17.815-12.723,1.194-1.19,1.185-12.036-.027-32.243-.113-1.868-.2-3.27-.221-3.959-.056-.069-.908-1.1-9.484-1.1C334.058,126.463,319.221,127.91,315.93,128.246Z" transform="translate(74.741 100.751)" fill="#3e2d4a"/>
    <path id="Контур_1793" data-name="Контур 1793" d="M303.5,90.965s-42.612-.975-35.683,24.5c3.6,13.24,28.505,49.7,37.943,40.082S317.513,84.927,303.5,90.965Z" transform="translate(24.03 63.407)" fill="#fff"/>
    <path id="Контур_1794" data-name="Контур 1794" d="M319.521,90.933s42.612-.975,35.685,24.5c-3.6,13.24-28.505,49.7-37.945,40.082S304.271,85.39,319.521,90.933Z" transform="translate(69.763 63.439)" fill="#fff"/>
    <path id="Контур_1795" data-name="Контур 1795" d="M277.847,67.722l-1.5-.445c4.813-16.256,12.977-27.017,24.266-31.989,17.335-7.632,36.157,1.357,36.344,1.448l-.685,1.407c-.182-.088-18.379-8.759-35.04-1.417C290.388,41.506,282.52,51.933,277.847,67.722Z" transform="translate(34.129 0)" fill="#e0a278"/>
    <path id="Контур_1796" data-name="Контур 1796" d="M329.415,83.468l-1.363-.768c6.779-12.049,8.3-21.937,4.535-29.392-5.531-10.94-20.794-12.934-20.946-12.952l.192-1.553c.659.081,16.246,2.12,22.15,13.8C338,60.549,336.468,70.937,329.415,83.468Z" transform="translate(72.498 7.158)" fill="#e0a278"/>
    <path id="Контур_1797" data-name="Контур 1797" d="M280.727,61.959l-1.319-.845C303.217,23.885,333.4,42.168,333.7,42.355l-.831,1.327C331.689,42.948,303.683,26.059,280.727,61.959Z" transform="translate(37.457 5.963)" fill="#3e2d4a"/>
    <path id="Контур_1798" data-name="Контур 1798" d="M303.4,49.545a44.8,44.8,0,0,1-14.461-2.26l.561-1.463c.194.073,19.51,7.261,37.611-4.978l.877,1.3A43.393,43.393,0,0,1,303.4,49.545Z" transform="translate(47.816 9.377)" fill="#3e2d4a"/>
    <path id="Контур_1799" data-name="Контур 1799" d="M323.9,69.611l-1.565-.035c0-.175.273-17.5-10.888-26.89l1.008-1.2C324.2,51.366,323.918,68.873,323.9,69.611Z" transform="translate(72.285 10.077)" fill="#3e2d4a"/>
    <path id="Контур_1800" data-name="Контур 1800" d="M297.371,79.858a11.416,11.416,0,1,1,11.416-11.416A11.43,11.43,0,0,1,297.371,79.858Zm0-21.789a10.373,10.373,0,1,0,10.373,10.373A10.386,10.386,0,0,0,297.371,58.069Z" transform="translate(44.575 26.967)" fill="#f4f2e9"/>
    <path id="Контур_1801" data-name="Контур 1801" d="M312.173,79.858A11.416,11.416,0,1,1,323.59,68.441,11.429,11.429,0,0,1,312.173,79.858Zm0-21.789a10.373,10.373,0,1,0,10.373,10.373A10.384,10.384,0,0,0,312.173,58.069Z" transform="translate(60.668 26.967)" fill="#f4f2e9"/>
    <rect id="Прямоугольник_244" data-name="Прямоугольник 244" width="1.044" height="8.973" transform="matrix(0.638, -0.77, 0.77, 0.638, 323.81, 90.084)" fill="#f4f2e9"/>
    <rect id="Прямоугольник_245" data-name="Прямоугольник 245" width="9.109" height="1.044" transform="translate(352.84 94.887)" fill="#f4f2e9"/>
    <rect id="Прямоугольник_246" data-name="Прямоугольник 246" width="10.145" height="1.044" transform="translate(383.418 94.996) rotate(-37.541)" fill="#f4f2e9"/>
  </g>
</svg>
