<svg xmlns="http://www.w3.org/2000/svg" width="38.412" height="38.412" viewBox="0 0 38.412 38.412">
  <g id="java" transform="translate(0)">
    <path id="Контур_18469" data-name="Контур 18469" d="M38.412,19.206a19.2,19.2,0,0,1-9.5,16.577c-.153.09-.308.178-.464.263a19.245,19.245,0,0,1-16.559.922q-.543-.223-1.069-.48A19.208,19.208,0,1,1,38.412,19.206Z" transform="translate(0)" fill="#fff"/>
    <g id="Сгруппировать_599" data-name="Сгруппировать 599" transform="translate(9.335 0.345)">
      <path id="Контур_18470" data-name="Контур 18470" d="M214.977,4.605c.569,2.173.414,3.26-2.587,5.744s-3.467,2.536-3.467,4.088,2.3,4.01,3.415,4.709a8.684,8.684,0,0,0-.6-1.113c-.414-.673-1.682-1.811-1.449-3.545s3.894-3.946,4.838-5.615A3.637,3.637,0,0,0,214.977,4.605Z" transform="translate(-202.584 -4.605)" fill="#24272d"/>
      <path id="Контур_18471" data-name="Контур 18471" d="M262.312,77.717c-2.587.854-5.8,2.2-5.8,4.812s1.656,2.122,1.656,3.519a1.9,1.9,0,0,1-.906,1.811s2.38-.906,2.277-2.717-1.527-1.552-1.527-3.234C258.017,79.78,262.312,77.717,262.312,77.717Z" transform="translate(-246.606 -72.232)" fill="#24272d"/>
      <path id="Контур_18472" data-name="Контур 18472" d="M157.772,201.181c-2.587,0-4.373.957-4.373,1.5s3.182,1.061,6.624.828,5.252-.517,6.624-1.345a23.009,23.009,0,0,1-4.3.569c-1.863,0-7.187.333-7.063-.466s3.208-1.087,3.208-1.087Z" transform="translate(-151.225 -186.433)" fill="#24272d"/>
      <path id="Контур_18473" data-name="Контур 18473" d="M182.247,241.531c-1.371.492-1.734.983-.931,1.5s2.38.673,4.554.673a26.927,26.927,0,0,0,5.2-.75l-.983-.776a12.471,12.471,0,0,1-3.907.492C183.618,242.669,181.044,242.734,182.247,241.531Z" transform="translate(-176.658 -223.756)" fill="#24272d"/>
      <path id="Контур_18474" data-name="Контур 18474" d="M192.526,280.5c-1.345.466-1.63,1.087-.44,1.656a10.7,10.7,0,0,0,5.149.44,17.02,17.02,0,0,0,3.1-.75,4.767,4.767,0,0,1-1.345-.776,21.532,21.532,0,0,1-3.829.414C193.3,281.485,191.8,281.226,192.526,280.5Z" transform="translate(-186.316 -259.803)" fill="#24272d"/>
      <path id="Контур_18475" data-name="Контур 18475" d="M330.163,197.574s.647-.88,2.277-.207,1.578,2.484.1,3.571a9.343,9.343,0,0,1-3.26,1.449s3.312-1.449,3.234-3.234S330.913,197.419,330.163,197.574Z" transform="translate(-313.914 -182.671)" fill="#24272d"/>
      <path id="Контур_18476" data-name="Контур 18476" d="M127.429,307.588c5.1.931,12.859-.026,14.23-.362s.869-1.067.869-1.067c.335.237.484.5.347.782-.751,1.552-7.892,1.811-9.987,1.811s-8.461-.129-8.461-1.268,3-1.82,4.124-1.562C126.443,306.526,125.191,307.179,127.429,307.588Z" transform="translate(-124.427 -283.267)" fill="#24272d"/>
      <path id="Контур_18477" data-name="Контур 18477" d="M172.194,331.322s1.8,1.378,10.789.582c3.59-.291,5.084-1.184,5.278-2.173a13.549,13.549,0,0,1-3.687,1.32C182.537,331.439,179.18,332.04,172.194,331.322Z" transform="translate(-168.61 -305.339)" fill="#24272d"/>
      <path id="Контур_18478" data-name="Контур 18478" d="M146.133,377.49h-1.492c.033,1.252.066,2.352.066,3.495,0,.871-.033,1.894-.033,2.917a3.253,3.253,0,0,1-.467,1.756q.526.256,1.069.48a3.632,3.632,0,0,0,.824-2.464c-.022-.828-.022-1.894-.022-2.689C146.078,379.8,146.1,378.644,146.133,377.49Z" transform="translate(-142.723 -349.515)" fill="#24272d"/>
      <path id="Контур_18479" data-name="Контур 18479" d="M252.9,404.973l-.9,2.678c-.163.49-.283.958-.392,1.426h-.1a7.453,7.453,0,0,0-.37-1.426l-.294-.86c-.218-.609-.4-1.252-.566-1.872l-1.5.185,2.09,5.421,1.078-.109,1.273-3.3c.251-.642.577-1.4.882-2.08Z" transform="translate(-239.441 -374.886)" fill="#24272d"/>
      <path id="Контур_18480" data-name="Контур 18480" d="M330.543,404.908a4.43,4.43,0,0,0-2.231.643l.239.849.087.054a2.826,2.826,0,0,1,1.546-.642.917.917,0,0,1,.969.959v.478c-2.384.36-2.972,1.1-2.972,1.96a1.316,1.316,0,0,0,1.361,1.393,2.59,2.59,0,0,0,1.59-.751l.1.022a.8.8,0,0,0,.778.7c.156-.085.311-.173.464-.263v-3.706C332.471,405.464,331.785,404.908,330.543,404.908Zm.61,4.279a1.673,1.673,0,0,1-1.012.512.649.649,0,0,1-.675-.708c0-.5.337-.871,1.687-1.067v1.263Z" transform="translate(-312.895 -374.876)" fill="#24272d"/>
      <path id="Контур_18481" data-name="Контур 18481" d="M185.888,404.919a4.432,4.432,0,0,0-2.232.642l.24.849.087.055a2.819,2.819,0,0,1,1.546-.643.917.917,0,0,1,.969.958v.479c-2.384.36-2.972,1.1-2.972,1.96a1.316,1.316,0,0,0,1.361,1.393,2.587,2.587,0,0,0,1.589-.751l.1.022a.83.83,0,0,0,.925.708,1.536,1.536,0,0,0,.316-.035v-3.938C187.815,405.474,187.129,404.919,185.888,404.919Zm.61,4.278a1.677,1.677,0,0,1-1.013.512.649.649,0,0,1-.675-.708c0-.5.338-.871,1.688-1.067Z" transform="translate(-179.092 -374.886)" fill="#24272d"/>
    </g>
  </g>
</svg>
