<svg id="java-script" xmlns="http://www.w3.org/2000/svg" width="35.235" height="38.438" viewBox="0 0 35.235 38.438">
  <g id="Сгруппировать_598" data-name="Сгруппировать 598" transform="translate(0)">
    <path id="Контур_18468" data-name="Контур 18468" d="M56.409.32A.832.832,0,0,0,55.768,0H22.135a1.214,1.214,0,0,0-.641.32c-.16.16-.16.32-.16.641l3.2,32.032a.715.715,0,0,0,.48.641l14.414,4.8h.641l12.813-4.8c.32-.16.48-.32.48-.641L56.569.961a.962.962,0,0,0-.16-.641ZM38.951,28.989a1.214,1.214,0,0,1-.32.641.63.63,0,0,1-.49.181l-.151-.021-5.606-1.6a1.251,1.251,0,0,1-.641-.641l-.8-4c-.16-.48.16-.8.641-.961s.8.16.961.641l.641,3.523,4.164,1.121V9.77H28.541a.757.757,0,0,1-.8-.8.757.757,0,0,1,.8-.8h9.609a.757.757,0,0,1,.8.8ZM50.162,9.129l-.8,3.2a.816.816,0,0,1-.961.641.783.783,0,0,1-.641-.961c.06-.57.48-2.242.48-2.242H41.994v8.008H47.6a1.214,1.214,0,0,1,.641.32.963.963,0,0,1,.16.641l-1.6,8.809c0,.32-.32.48-.48.641l-4.8,1.6a.933.933,0,0,1-1.121-.48.778.778,0,0,1,.48-.961L45.2,26.907l1.281-7.367H41.033a.757.757,0,0,1-.8-.8V9.129a.757.757,0,0,1,.8-.8h8.008a1.821,1.821,0,0,1,.749.155.545.545,0,0,1,.372.646Z" transform="translate(-21.334)" fill="#fff"/>
  </g>
</svg>
