<svg xmlns="http://www.w3.org/2000/svg" width="202.637" height="190.47" viewBox="0 0 202.637 190.47">
  <g id="Сгруппировать_4737" data-name="Сгруппировать 4737" transform="translate(60.668 -2722.111)">
    <g id="Письмо" transform="translate(-1213.818 -205.949)">
      <g id="Background_Simple" data-name="Background Simple" transform="translate(1164.137 2928.061)" opacity="0.8">
        <g id="Сгруппировать_3182" data-name="Сгруппировать 3182" transform="translate(0 0)">
          <path id="Контур_20167" data-name="Контур 20167" d="M213.689,114.28a62.315,62.315,0,0,0-4.619-10.993c-9.738-17.867-26.814-31.343-45.492-39.306-14.826-6.321-33.167-9.626-48.9-3.932-7.954,2.879-15.443,8.406-19.709,15.75-5.571,9.59-5.033,21.489-9.447,31.568-3.577,8.167-12.476,13.076-19.448,18.092-10.878,7.825-21.591,17.084-25.363,30.325-5.033,17.668-3.543,38.68,6.653,54.38,7.605,11.709,20.629,15.227,34.066,15.469,12.682.228,28.179-2.935,40.025,2.776,20.164,9.722,46.771,20.634,69.331,12.939,23.251-7.93,34.665-23.373,38.047-43.408s-5.918-36.73-8.878-52.593C218.084,135.331,216.865,124.264,213.689,114.28Z" transform="translate(-37.911 -57.119)" fill="#4e83b7"/>
          <path id="Контур_20168" data-name="Контур 20168" d="M213.689,114.28a62.315,62.315,0,0,0-4.619-10.993c-9.738-17.867-26.814-31.343-45.492-39.306-14.826-6.321-33.167-9.626-48.9-3.932-7.954,2.879-15.443,8.406-19.709,15.75-5.571,9.59-5.033,21.489-9.447,31.568-3.577,8.167-12.476,13.076-19.448,18.092-10.878,7.825-21.591,17.084-25.363,30.325-5.033,17.668-3.543,38.68,6.653,54.38,7.605,11.709,20.629,15.227,34.066,15.469,12.682.228,28.179-2.935,40.025,2.776,20.164,9.722,46.771,20.634,69.331,12.939,23.251-7.93,34.665-23.373,38.047-43.408s-5.918-36.73-8.878-52.593C218.084,135.331,216.865,124.264,213.689,114.28Z" transform="translate(-37.911 -57.119)" fill="#4e83b7"/>
        </g>
      </g>
      <g id="Device" transform="translate(1312.356 3003.778)">
        <g id="Сгруппировать_3215" data-name="Сгруппировать 3215" transform="translate(0 0)">
          <rect id="Прямоугольник_1556" data-name="Прямоугольник 1556" width="24.961" height="47.149" rx="7.674" transform="translate(17.977 0) rotate(22.412)" opacity="0.2"/>
          <rect id="Прямоугольник_1557" data-name="Прямоугольник 1557" width="24.961" height="47.149" rx="7.674" transform="translate(18.803 0) rotate(22.412)" fill="#fff" stroke="#263238" stroke-linecap="round" stroke-linejoin="round" stroke-width="1"/>
          <rect id="Прямоугольник_1558" data-name="Прямоугольник 1558" width="22.743" height="36.795" transform="matrix(0.924, 0.381, -0.381, 0.924, 17.855, 5.209)" fill="#263238" stroke="#263238" stroke-linecap="round" stroke-linejoin="round" stroke-width="1"/>
          <g id="Сгруппировать_3214" data-name="Сгруппировать 3214" transform="translate(8.721 25.748)">
            <line id="Линия_76" data-name="Линия 76" x1="5.527" y2="1.682" transform="translate(0 5.831)" fill="none" stroke="#8a8a8a" stroke-linecap="round" stroke-linejoin="round" stroke-width="1"/>
            <line id="Линия_77" data-name="Линия 77" x1="17.469" y2="5.317" transform="translate(7.218)" fill="none" stroke="#8a8a8a" stroke-linecap="round" stroke-linejoin="round" stroke-width="1"/>
            <line id="Линия_78" data-name="Линия 78" y1="0.368" x2="1.221" transform="translate(14.449 0.859)" fill="none" stroke="#8a8a8a" stroke-linecap="round" stroke-linejoin="round" stroke-width="1"/>
            <line id="Линия_79" data-name="Линия 79" y1="3.259" x2="10.807" transform="translate(2.147 1.678)" fill="none" stroke="#8a8a8a" stroke-linecap="round" stroke-linejoin="round" stroke-width="1"/>
          </g>
          <path id="Контур_20245" data-name="Контур 20245" d="M426.02,233.674l-4.571-1.885a.337.337,0,0,1-.183-.44h0a.337.337,0,0,1,.44-.183l4.571,1.885a.337.337,0,0,1,.183.44h0A.337.337,0,0,1,426.02,233.674Z" transform="translate(-394.385 -225.567)" fill="#263238"/>
          <path id="Контур_20246" data-name="Контур 20246" d="M384.076,337.6a1.348,1.348,0,1,0-1.761.733A1.349,1.349,0,0,0,384.076,337.6Z" transform="translate(-369.283 -291.606)" fill="#fff" stroke="#263238" stroke-miterlimit="10" stroke-width="0.704"/>
          <rect id="Прямоугольник_1559" data-name="Прямоугольник 1559" width="1.367" height="1.367" transform="translate(13.175 44.588) rotate(22.412)" fill="#263238"/>
        </g>
      </g>
      <g id="Letter" transform="translate(1216.555 2984.107)">
        <g id="Сгруппировать_3218" data-name="Сгруппировать 3218" transform="translate(0 0)">
          <path id="Контур_20277" data-name="Контур 20277" d="M0,0H58.387V80.166H0Z" transform="translate(0 12.974) rotate(-12.839)" fill="#cde528" stroke="#263238" stroke-width="1"/>
          <rect id="Прямоугольник_1561" data-name="Прямоугольник 1561" width="55.734" height="76.523" transform="translate(1.698 14.456) rotate(-12.839)" fill="#fff" stroke="#263238" stroke-linecap="round" stroke-linejoin="round" stroke-width="1"/>
          <g id="Сгруппировать_3217" data-name="Сгруппировать 3217" transform="translate(8.219 9.09)">
            <line id="Линия_80" data-name="Линия 80" y1="3.578" x2="14.313" transform="translate(31.279)" fill="none" stroke="#263238" stroke-linecap="round" stroke-linejoin="round" stroke-width="1"/>
            <line id="Линия_81" data-name="Линия 81" y1="1.624" x2="6.496" transform="translate(0 9.774)" fill="none" stroke="#263238" stroke-linecap="round" stroke-linejoin="round" stroke-width="1"/>
            <g id="Сгруппировать_3216" data-name="Сгруппировать 3216" transform="translate(3.664 14.858)">
              <line id="Линия_82" data-name="Линия 82" y1="0.54" x2="2.159" transform="translate(43.433)" fill="none" stroke="#263238" stroke-linecap="round" stroke-linejoin="round" stroke-width="1"/>
              <line id="Линия_83" data-name="Линия 83" y1="2.163" x2="8.651" transform="translate(33.583 0.84)" fill="none" stroke="#263238" stroke-linecap="round" stroke-linejoin="round" stroke-width="1"/>
              <line id="Линия_84" data-name="Линия 84" y1="0.899" x2="3.598" transform="translate(28.558 3.359)" fill="none" stroke="#263238" stroke-linecap="round" stroke-linejoin="round" stroke-width="1"/>
              <line id="Линия_85" data-name="Линия 85" y1="2.149" x2="8.594" transform="translate(18.365 4.658)" fill="none" stroke="#263238" stroke-linecap="round" stroke-linejoin="round" stroke-width="1"/>
              <line id="Линия_86" data-name="Линия 86" y1="1.263" x2="5.054" transform="translate(11.798 7.185)" fill="none" stroke="#263238" stroke-linecap="round" stroke-linejoin="round" stroke-width="1"/>
              <line id="Линия_87" data-name="Линия 87" y1="2.55" x2="10.199" transform="translate(0 8.848)" fill="none" stroke="#263238" stroke-linecap="round" stroke-linejoin="round" stroke-width="1"/>
              <line id="Линия_88" data-name="Линия 88" y1="1.842" x2="7.37" transform="translate(40.055 4.478)" fill="none" stroke="#263238" stroke-linecap="round" stroke-linejoin="round" stroke-width="1"/>
              <line id="Линия_89" data-name="Линия 89" y1="3.398" x2="13.591" transform="translate(24.779 6.741)" fill="none" stroke="#263238" stroke-linecap="round" stroke-linejoin="round" stroke-width="1"/>
              <line id="Линия_90" data-name="Линия 90" y1="1.992" x2="7.966" transform="translate(14.358 10.753)" fill="none" stroke="#263238" stroke-linecap="round" stroke-linejoin="round" stroke-width="1"/>
              <line id="Линия_91" data-name="Линия 91" y1="2.768" x2="11.07" transform="translate(1.832 13.108)" fill="none" stroke="#263238" stroke-linecap="round" stroke-linejoin="round" stroke-width="1"/>
              <line id="Линия_92" data-name="Линия 92" y1="1.183" x2="4.731" transform="translate(43.508 9.363)" fill="none" stroke="#263238" stroke-linecap="round" stroke-linejoin="round" stroke-width="1"/>
              <line id="Линия_93" data-name="Линия 93" y1="2.884" x2="11.535" transform="translate(30.488 10.917)" fill="none" stroke="#263238" stroke-linecap="round" stroke-linejoin="round" stroke-width="1"/>
              <line id="Линия_94" data-name="Линия 94" y1="0.464" x2="1.856" transform="translate(27.547 14.072)" fill="none" stroke="#263238" stroke-linecap="round" stroke-linejoin="round" stroke-width="1"/>
              <line id="Линия_95" data-name="Линия 95" y1="1.863" x2="7.452" transform="translate(18.782 14.864)" fill="none" stroke="#263238" stroke-linecap="round" stroke-linejoin="round" stroke-width="1"/>
              <line id="Линия_96" data-name="Линия 96" y1="3.084" x2="12.334" transform="translate(5.277 17.02)" fill="none" stroke="#263238" stroke-linecap="round" stroke-linejoin="round" stroke-width="1"/>
              <line id="Линия_97" data-name="Линия 97" y1="0.386" x2="1.546" transform="translate(2.646 20.374)" fill="none" stroke="#263238" stroke-linecap="round" stroke-linejoin="round" stroke-width="1"/>
              <line id="Линия_98" data-name="Линия 98" y1="2.467" x2="9.869" transform="translate(39.387 14.044)" fill="none" stroke="#263238" stroke-linecap="round" stroke-linejoin="round" stroke-width="1"/>
              <line id="Линия_99" data-name="Линия 99" y1="3.676" x2="14.704" transform="translate(22.912 16.954)" fill="none" stroke="#263238" stroke-linecap="round" stroke-linejoin="round" stroke-width="1"/>
              <line id="Линия_100" data-name="Линия 100" y1="0.642" x2="2.57" transform="translate(18.801 21.015)" fill="none" stroke="#263238" stroke-linecap="round" stroke-linejoin="round" stroke-width="1"/>
              <line id="Линия_101" data-name="Линия 101" y1="3.285" x2="13.139" transform="translate(3.664 22.158)" fill="none" stroke="#263238" stroke-linecap="round" stroke-linejoin="round" stroke-width="1"/>
              <line id="Линия_102" data-name="Линия 102" y1="0.373" x2="1.493" transform="translate(29.242 23.61)" fill="none" stroke="#263238" stroke-linecap="round" stroke-linejoin="round" stroke-width="1"/>
              <line id="Линия_103" data-name="Линия 103" y1="2.655" x2="10.621" transform="translate(17.136 24.355)" fill="none" stroke="#263238" stroke-linecap="round" stroke-linejoin="round" stroke-width="1"/>
              <line id="Линия_104" data-name="Линия 104" y1="2.685" x2="10.741" transform="translate(4.681 27.438)" fill="none" stroke="#263238" stroke-linecap="round" stroke-linejoin="round" stroke-width="1"/>
            </g>
          </g>
        </g>
      </g>
      <g id="Hand_2" data-name="Hand 2" transform="translate(1278.986 3044.289)">
        <g id="Сгруппировать_3227" data-name="Сгруппировать 3227" transform="translate(0 0)">
          <path id="Контур_20247" data-name="Контур 20247" d="M292.539,322.211c-.4-4.809-3.407-15.631-7.415-17.034-2.481-.868-8.745,1.774-13.159,3.913.353-1.634.623-3.253.623-3.253L260.3,293.011l.174,1.663,4.389,11.545s-1.718,1.908-1.336,2.576,2.863,1.145,2.863,1.145-.763.191-.286,1.431a10.351,10.351,0,0,0,1.527,2.481l.133-.059a6.293,6.293,0,0,0,.821.727c2.4,1.8,2.917,1.88,2.917,1.88s1-.2,1.4,5.01-1.2,7.014,1.4,10.22,21.843,25.05,21.843,25.05S292.94,327.021,292.539,322.211Z" transform="translate(-259.403 -291.345)" opacity="0.2"/>
          <g id="Сгруппировать_3226" data-name="Сгруппировать 3226">
            <g id="Сгруппировать_3219" data-name="Сгруппировать 3219" transform="translate(5.281 2.794)">
              <path id="Контур_20248" data-name="Контур 20248" d="M278.823,298.658a30.291,30.291,0,0,1-4.293,3.863c-1.931,1.287-3.278,2.99-1.5,3.863a3.467,3.467,0,0,0,2.575-.215,4.048,4.048,0,0,0-2.79,2.79c-.429,2.146,4.292,1.287,4.292,1.287s-3.434,2.361-2.36,3.219,3.219.215,4.292.215,6.438-3.434,7.726-3.434,3.863,2.79,3.863,4.936,3.434,1.932,3.863-4.721-1.288-12.233-4.078-13.95S278.823,298.658,278.823,298.658Z" transform="translate(-272.199 -296.072)" fill="#fff" stroke="#263238" stroke-linecap="round" stroke-linejoin="round" stroke-width="1"/>
              <path id="Контур_20249" data-name="Контур 20249" d="M286.674,317.3l8.566-3.2s3.759-.817,6.457,3.63" transform="translate(-281.338 -307.415)" fill="none" stroke="#263238" stroke-linecap="round" stroke-linejoin="round" stroke-width="1"/>
              <path id="Контур_20250" data-name="Контур 20250" d="M290.749,327.657l7.726-1.288s3.434-.215,5.58,3.863" transform="translate(-283.911 -315.199)" fill="none" stroke="#263238" stroke-linecap="round" stroke-linejoin="round" stroke-width="1"/>
            </g>
            <path id="Контур_20251" data-name="Контур 20251" d="M337.149,349.993c-4.721-4.523-24.689-21.9-24.885-23.071-.215-1.288-1.073-16.311-1.073-18.457s-4.292-7.3-4.292-7.3a19.561,19.561,0,0,1-2.62-6.818,7.1,7.1,0,0,0-6.947-5.842c-2.146.215-8.031.856-10.392,2.573s-4.507,3.863-2.359,4.507c3.564,1.068,9.4-3.683,12.211-.4,1.288,1.5,2.81,8.125,3.025,8.984a2.767,2.767,0,0,1-.806,2.494,24.849,24.849,0,0,1-3.272,2.228,38.572,38.572,0,0,1-4.993,1.153c-1.5.125-1.5,7.388.125,9.517s4.007,12.022,6.011,14.526c1.91,2.387,19,27.949,19,27.949" transform="translate(-274.176 -288.492)" fill="#fff" stroke="#263238" stroke-linecap="round" stroke-linejoin="round" stroke-width="1"/>
            <g id="Сгруппировать_3222" data-name="Сгруппировать 3222" transform="translate(0 0.511)">
              <g id="Сгруппировать_3220" data-name="Сгруппировать 3220">
                <path id="Контур_20252" data-name="Контур 20252" d="M257.927,289.942a.2.2,0,0,1,.258-.027l1.036.466a.4.4,0,0,1-.454.653l-.808-.792a.2.2,0,0,1-.05-.277A.188.188,0,0,1,257.927,289.942Z" transform="translate(-257.873 -289.879)" fill="#263238" stroke="#263238" stroke-linecap="round" stroke-linejoin="round" stroke-width="1"/>
              </g>
              <g id="Сгруппировать_3221" data-name="Сгруппировать 3221" transform="translate(0.715 0.365)">
                <path id="Контур_20253" data-name="Контур 20253" d="M260.06,291.156a.91.91,0,0,1,1.182-.124l2.749,1.419,27,17.76a2.134,2.134,0,0,1-2.437,3.505l-26.2-19.33-2.145-1.86a.909.909,0,0,1-.227-1.266A.922.922,0,0,1,260.06,291.156Z" transform="translate(-259.813 -290.869)" fill="#cde528" stroke="#263238" stroke-linecap="round" stroke-linejoin="round" stroke-width="1"/>
              </g>
              <path id="Контур_20254" data-name="Контур 20254" d="M327.393,334.559l-7.791-5.125a2.959,2.959,0,0,0-2.128,2.759,2.641,2.641,0,0,0,.029.372l7.454,5.5a2.134,2.134,0,0,0,2.437-3.505Z" transform="translate(-295.502 -314.852)" fill="#263238" stroke="#263238" stroke-linecap="round" stroke-linejoin="round" stroke-width="1"/>
            </g>
            <g id="Сгруппировать_3225" data-name="Сгруппировать 3225" transform="translate(8.154 7.854)">
              <g id="Сгруппировать_3223" data-name="Сгруппировать 3223">
                <path id="Контур_20255" data-name="Контур 20255" d="M294.093,346.415c-8.482-9.59-7.067-14.878-8.355-16.6s-2.053-3.331-3.341-7.193-2.127-6.934-2.127-10.153,2.766-3.776,4.912-.342,4.746,8.712,4.746,8.712a5.347,5.347,0,0,0,5.151,1.5" transform="translate(-280.167 -309.796)" fill="#fff" stroke="#263238" stroke-linecap="round" stroke-linejoin="round" stroke-width="1"/>
                <path id="Контур_20256" data-name="Контур 20256" d="M306.467,339.763a25.435,25.435,0,0,1,3.514,4.142" transform="translate(-296.707 -328.716)" fill="none" stroke="#263238" stroke-linecap="round" stroke-linejoin="round" stroke-width="1"/>
                <path id="Контур_20257" data-name="Контур 20257" d="M282.784,311.964l.717,1.434a5.345,5.345,0,0,0-1.308.654,4.681,4.681,0,0,0-1.671,1.617s-1.107-3.088-.127-4.069a1.556,1.556,0,0,1,.891-.468A1.473,1.473,0,0,1,282.784,311.964Z" transform="translate(-279.991 -310.632)" fill="#fff" stroke="#263238" stroke-linecap="round" stroke-linejoin="round" stroke-width="1"/>
              </g>
              <g id="Сгруппировать_3224" data-name="Сгруппировать 3224" transform="translate(2.645 8.523)">
                <path id="Контур_20258" data-name="Контур 20258" d="M295.879,334.531q.169-.022.348-.041" transform="translate(-292.667 -333.909)" fill="none" stroke="#263238" stroke-linecap="round" stroke-linejoin="round" stroke-width="1"/>
                <path id="Контур_20259" data-name="Контур 20259" d="M287.165,336.572s.2-1.175,2.558-1.671" transform="translate(-287.165 -334.169)" fill="none" stroke="#263238" stroke-linecap="round" stroke-linejoin="round" stroke-width="1"/>
                <path id="Контур_20260" data-name="Контур 20260" d="M291.008,337.186s-.166.5-1.822,1.159" transform="translate(-288.441 -335.612)" fill="none" stroke="#263238" stroke-linecap="round" stroke-linejoin="round" stroke-width="1"/>
                <path id="Контур_20261" data-name="Контур 20261" d="M290.005,332.915a5.465,5.465,0,0,0-2.3.933" transform="translate(-287.507 -332.915)" fill="none" stroke="#263238" stroke-linecap="round" stroke-linejoin="round" stroke-width="1"/>
              </g>
            </g>
          </g>
        </g>
      </g>
      <g id="Hand_1" data-name="Hand 1" transform="translate(1153.848 3025.794)">
        <g id="Сгруппировать_3229" data-name="Сгруппировать 3229" transform="translate(0 0)">
          <path id="Контур_20262" data-name="Контур 20262" d="M101.465,247.312s-1.506,4.177-2.107,5.179-3.807,4.809-4.409,5.811a42.666,42.666,0,0,0-1.8,4.208l9.735-2.461s-2.721,4.064-4.324,6.068-5.01,6.212-5.01,6.814a20.45,20.45,0,0,1-.8,3.006l4.609,3.407,9.419-3.407,3.808-1.4s-7.615,4.809-10.02,7.214-10.821,7.214-13.026,8.817-6.813,2.4-8.617,2.806S61.283,306.6,61.283,306.6L84.128,259.7l6.613-11.021,5.811-4.208-.6,6.613Z" transform="translate(-42.378 -242.207)" opacity="0.2"/>
          <g id="Сгруппировать_3228" data-name="Сгруппировать 3228">
            <path id="Контур_20263" data-name="Контур 20263" d="M19.771,312.449,43.827,287.7a31.3,31.3,0,0,0,5.988-1.416c3.7-1.2,4.79-1.524,6.532-2.83s8.927-5.117,11.976-7.076,8.383-4.137,9.363-5.008.218-1.96-2.4-2.5-5.226.109-8.709,1.633-7.077,2.831-6.967,2.068a30.2,30.2,0,0,1,1.415-5.879c.653-1.306,7.189-8.341,7.3-8.668s.871-.653,2.177-1.851,3.375-2.613,3.7-4.681-1.306-1.307-1.96-.98-5.226,2.286-6.423,3.048-8.187,8.132-8.187,8.132l4.921-10.31a15.974,15.974,0,0,0,1.742-1.851c.653-.871,4.572-5.116,4.79-6.1a1.62,1.62,0,0,0-1.96-1.851c-1.2.327-4.961,3.653-6.205,4.573-2.582,1.908-6.75,9.145-6.75,9.145l4.572-8.383s3.484-3.157,4.355-4.137,1.92-3.149.98-4.137c-1-1.049-3.163.717-4.79,2.4-1.5,1.545-3.7,3.484-3.7,3.484s1.306-1.524.98-2.83-2.831.544-3.593.762-7.294,5.988-8.274,6.75-3.025,7.015-3.025,7.015l-7.912,16.5L10,289.814" transform="translate(-10 -238.322)" fill="#fff" stroke="#263238" stroke-linecap="round" stroke-linejoin="round" stroke-width="1"/>
            <path id="Контур_20264" data-name="Контур 20264" d="M116.976,255.124l-3.192,2.76a4.426,4.426,0,0,0-.883,1.041l-5.668,9.275" transform="translate(-71.388 -248.93)" fill="none" stroke="#263238" stroke-linecap="round" stroke-linejoin="round" stroke-width="1"/>
            <path id="Контур_20265" data-name="Контур 20265" d="M190.277,323.266l-1.644.109a1.784,1.784,0,0,1,.109,2.411" transform="translate(-122.78 -291.952)" fill="none" stroke="#263238" stroke-linecap="round" stroke-linejoin="round" stroke-width="1"/>
            <path id="Контур_20266" data-name="Контур 20266" d="M177.7,272.754s.706-.1,1.51,1.177a2.492,2.492,0,0,0,.792-1.177" transform="translate(-115.877 -260.06)" fill="none" stroke="#263238" stroke-linecap="round" stroke-linejoin="round" stroke-width="1"/>
            <path id="Контур_20267" data-name="Контур 20267" d="M161.346,249.566a5.861,5.861,0,0,1,1.9.8c.293.228.836-.174,1.062-.469h0" transform="translate(-105.553 -245.421)" fill="none" stroke="#263238" stroke-linecap="round" stroke-linejoin="round" stroke-width="1"/>
            <path id="Контур_20268" data-name="Контур 20268" d="M149.453,241.241a2.183,2.183,0,0,1,.877.219,6.988,6.988,0,0,1,.987.658,1.505,1.505,0,0,0,.877-.877" transform="translate(-98.044 -240.165)" fill="none" stroke="#263238" stroke-linecap="round" stroke-linejoin="round" stroke-width="1"/>
            <path id="Контур_20269" data-name="Контур 20269" d="M129.83,248.362a1.79,1.79,0,0,1,1.1.219c.527.45.219.658.219.658s.9-.314.986-.768" transform="translate(-85.655 -244.655)" fill="none" stroke="#263238" stroke-linecap="round" stroke-linejoin="round" stroke-width="1"/>
            <path id="Контур_20270" data-name="Контур 20270" d="M162.832,282.569a5.079,5.079,0,0,1,1.535,1.754" transform="translate(-106.491 -266.257)" fill="none" stroke="#263238" stroke-linecap="round" stroke-linejoin="round" stroke-width="1"/>
            <path id="Контур_20271" data-name="Контур 20271" d="M161.048,283.164a9.279,9.279,0,0,0,1.425,1.315" transform="translate(-105.365 -266.633)" fill="none" stroke="#263238" stroke-linecap="round" stroke-linejoin="round" stroke-width="1"/>
            <line id="Линия_105" data-name="Линия 105" x2="0.767" y2="0.986" transform="translate(57.985 16.64)" fill="none" stroke="#263238" stroke-linecap="round" stroke-linejoin="round" stroke-width="1"/>
            <line id="Линия_106" data-name="Линия 106" x2="0.767" y2="1.315" transform="translate(59.824 32.52)" fill="none" stroke="#263238" stroke-linecap="round" stroke-linejoin="round" stroke-width="1"/>
            <line id="Линия_107" data-name="Линия 107" x2="0.219" y2="0.438" transform="translate(60.811 34.603)" fill="none" stroke="#263238" stroke-linecap="round" stroke-linejoin="round" stroke-width="1"/>
            <path id="Контур_20272" data-name="Контур 20272" d="M177.038,327.429a10.322,10.322,0,0,1,.219,2.74" transform="translate(-115.46 -294.58)" fill="none" stroke="#263238" stroke-linecap="round" stroke-linejoin="round" stroke-width="1"/>
            <path id="Контур_20273" data-name="Контур 20273" d="M145.29,265.023a2.289,2.289,0,0,1,1.973,1.206" transform="translate(-95.416 -255.178)" fill="none" stroke="#263238" stroke-linecap="round" stroke-linejoin="round" stroke-width="1"/>
            <line id="Линия_108" data-name="Линия 108" x2="0.986" y2="0.548" transform="translate(50.422 11.16)" fill="none" stroke="#263238" stroke-linecap="round" stroke-linejoin="round" stroke-width="1"/>
            <line id="Линия_109" data-name="Линия 109" x2="0.658" y2="0.438" transform="translate(50.751 9.516)" fill="none" stroke="#263238" stroke-linecap="round" stroke-linejoin="round" stroke-width="1"/>
            <path id="Контур_20274" data-name="Контур 20274" d="M129.532,260.761a2.308,2.308,0,0,1,2.082.548" transform="translate(-85.467 -252.451)" fill="none" stroke="#263238" stroke-linecap="round" stroke-linejoin="round" stroke-width="1"/>
            <path id="Контур_20275" data-name="Контур 20275" d="M130.721,262.648a8.316,8.316,0,0,0,1.535.548" transform="translate(-86.218 -253.68)" fill="none" stroke="#263238" stroke-linecap="round" stroke-linejoin="round" stroke-width="1"/>
            <line id="Линия_110" data-name="Линия 110" x2="0.767" y2="0.219" transform="translate(45.819 7.762)" fill="none" stroke="#263238" stroke-linecap="round" stroke-linejoin="round" stroke-width="1"/>
            <path id="Контур_20276" data-name="Контур 20276" d="M109.909,265.752a5.177,5.177,0,0,1,2.082,0" transform="translate(-73.078 -255.578)" fill="none" stroke="#263238" stroke-linecap="round" stroke-linejoin="round" stroke-width="1"/>
            <line id="Линия_111" data-name="Линия 111" x2="1.096" y2="0.438" transform="translate(39.133 9.516)" fill="none" stroke="#263238" stroke-linecap="round" stroke-linejoin="round" stroke-width="1"/>
            <line id="Линия_112" data-name="Линия 112" x1="2.355" y2="4.478" transform="translate(41.818 16.972)" fill="none" stroke="#263238" stroke-linecap="round" stroke-linejoin="round" stroke-width="1"/>
          </g>
        </g>
      </g>
    </g>
  </g>
</svg>
