<svg xmlns="http://www.w3.org/2000/svg" width="52.485" height="29.161" viewBox="0 0 52.485 29.161">
  <g id="Group_7761" data-name="Group 7761" transform="translate(-517.235 -6912)">
    <text id="CORP." transform="translate(567.719 6941.074) rotate(-90)" fill="#fff" font-size="9" font-family="SegoeUI-Bold, Segoe UI" font-weight="700" letter-spacing="-0.01em"><tspan x="0" y="0">CORP.</tspan></text>
    <g id="Group_312" data-name="Group 312" transform="translate(517.235 6912)">
      <path id="Path_1" data-name="Path 1" d="M6.973,6.349l6.062.005,0,12.5a4.547,4.547,0,0,1-.889,2.88,3.575,3.575,0,0,1-2.88.978c-2.019,0-3.764-1.357-4.992-2.851C3.261,20.967,1.163,23.292.02,24.548a13.58,13.58,0,0,0,2.662,2.54c3.035,2.2,7.956,2.6,11.5,1.417a8.652,8.652,0,0,0,4.558-3.215,10.674,10.674,0,0,0,1.774-6L20.479.008,10.2,0,6.974,6.349Z" transform="translate(-0.02 0)" fill="#fafafa" fill-rule="evenodd"/>
      <path id="Path_2" data-name="Path 2" d="M603.932,10.04a7.9,7.9,0,0,0,1.943,5.484c2.879,3.078,6.985,3.328,10.324,5.33.828.5,1.573,1.423,1.029,2.413-1.022,1.857-5.487.741-7.017.1a11.774,11.774,0,0,1-2.778-1.648c-.572.56-3.63,3.968-4.6,5.045a17.392,17.392,0,0,0,11,3.9,13.24,13.24,0,0,0,8.929-3.367,7.812,7.812,0,0,0,.86-10.089c-2.916-3.834-10.707-4.607-11.952-6.65-.677-1.111.36-2.6,2.287-2.735,2.259.152,3.376.48,6.188,1.967.6-.652,3.236-3.533,4.079-4.465a12.915,12.915,0,0,0-9.122-3.711c-5.138.058-10.763,2.742-11.162,8.42Z" transform="translate(-582.424 -1.565)" fill="#fafafa" fill-rule="evenodd"/>
    </g>
  </g>
</svg>
