<svg xmlns="http://www.w3.org/2000/svg" width="96" height="96" viewBox="0 0 114 114">
  <defs>
    <filter id="Прямоугольник_1059" x="0" y="0" width="114" height="114" filterUnits="userSpaceOnUse">
      <feOffset dy="3" input="SourceAlpha"/>
      <feGaussianBlur stdDeviation="3" result="blur"/>
      <feFlood flood-opacity="0.161"/>
      <feComposite operator="in" in2="blur"/>
      <feComposite in="SourceGraphic"/>
    </filter>
    <linearGradient id="linear-gradient" x1="0.5" x2="0.5" y2="1" gradientUnits="objectBoundingBox">
      <stop offset="0" stop-color="#ef4864"/>
      <stop offset="1" stop-color="#c10020"/>
    </linearGradient>
    <filter id="Контур_18495" x="38.425" y="27.483" width="37.87" height="29.847" filterUnits="userSpaceOnUse">
      <feOffset dy="3" input="SourceAlpha"/>
      <feGaussianBlur stdDeviation="3" result="blur-2"/>
      <feFlood flood-opacity="0.4"/>
      <feComposite operator="in" in2="blur-2"/>
      <feComposite in="SourceGraphic"/>
    </filter>
    <filter id="Контур_18496" x="27.686" y="55.622" width="36.902" height="30.995" filterUnits="userSpaceOnUse">
      <feOffset dy="3" input="SourceAlpha"/>
      <feGaussianBlur stdDeviation="3" result="blur-3"/>
      <feFlood flood-opacity="0.4"/>
      <feComposite operator="in" in2="blur-3"/>
      <feComposite in="SourceGraphic"/>
    </filter>
    <filter id="Исключение_2" x="40.167" y="33.352" width="34.36" height="37.322" filterUnits="userSpaceOnUse">
      <feOffset dy="3" input="SourceAlpha"/>
      <feGaussianBlur stdDeviation="3" result="blur-4"/>
      <feFlood flood-opacity="0.4"/>
      <feComposite operator="in" in2="blur-4"/>
      <feComposite in="SourceGraphic"/>
    </filter>
    <filter id="Контур_18498" x="50.1" y="55.622" width="36.901" height="30.996" filterUnits="userSpaceOnUse">
      <feOffset dy="3" input="SourceAlpha"/>
      <feGaussianBlur stdDeviation="3" result="blur-5"/>
      <feFlood flood-opacity="0.4"/>
      <feComposite operator="in" in2="blur-5"/>
      <feComposite in="SourceGraphic"/>
    </filter>
  </defs>
  <g id="Сгруппировать_4739" data-name="Сгруппировать 4739" transform="translate(-995 -1723)">
    <g transform="matrix(1, 0, 0, 1, 995, 1723)" filter="url(#Прямоугольник_1059)">
      <g id="Прямоугольник_1059-2" data-name="Прямоугольник 1059" transform="translate(9 6)" fill="#1c1f23" stroke="#ef4864" stroke-width="2">
        <rect width="96" height="96" rx="17" stroke="none"/>
        <rect x="1" y="1" width="94" height="94" rx="16" fill="none"/>
      </g>
    </g>
    <g id="manager" transform="translate(1031.687 1755.41)">
      <g id="Сгруппировать_610" data-name="Сгруппировать 610" transform="translate(17.587 34.158)">
        <g id="Сгруппировать_609" data-name="Сгруппировать 609">
          <path id="Контур_18489" data-name="Контур 18489" d="M211.391,396.4l-1.246,1.7.971,1.765.5-3.142Z" transform="translate(-210.145 -396.4)" fill="url(#linear-gradient)"/>
        </g>
      </g>
      <g id="Сгруппировать_612" data-name="Сгруппировать 612" transform="translate(22.275 34.169)">
        <g id="Сгруппировать_611" data-name="Сгруппировать 611">
          <path id="Контур_18490" data-name="Контур 18490" d="M266.378,396.538l-.215.309.495,3.118.958-1.741Z" transform="translate(-266.163 -396.538)" fill="url(#linear-gradient)"/>
        </g>
      </g>
      <g id="Сгруппировать_614" data-name="Сгруппировать 614" transform="translate(21.638 27.717)">
        <g id="Сгруппировать_613" data-name="Сгруппировать 613">
          <path id="Контур_18491" data-name="Контур 18491" d="M262.991,319.445l-3.367,2.249-1.07.715,1.324,1.8.068.092,1.429,1.947,3.393-6.17Z" transform="translate(-258.554 -319.445)" fill="url(#linear-gradient)"/>
        </g>
      </g>
      <g id="Сгруппировать_616" data-name="Сгруппировать 616" transform="translate(19.64 31.676)">
        <g id="Сгруппировать_615" data-name="Сгруппировать 615">
          <path id="Контур_18492" data-name="Контур 18492" d="M235.909,369.495a.688.688,0,0,1,.115-.5l.642-.922-.934-1.272-.035-.048-.965,1.309.65.933a.688.688,0,0,1,.115.5l-.82,5.168,1.017,1.849,1.03-1.873Z" transform="translate(-234.678 -366.751)" fill="url(#linear-gradient)"/>
        </g>
      </g>
      <g id="Сгруппировать_618" data-name="Сгруппировать 618" transform="translate(23.255 29.462)">
        <g id="Сгруппировать_617" data-name="Сгруппировать 617">
          <path id="Контур_18493" data-name="Контур 18493" d="M282.254,343.47a.689.689,0,0,1,.581-.337l2-.031-1.4-2.81-3.669,6.672h0l-1.891,3.438,5.164-4.725-.8-1.536A.687.687,0,0,1,282.254,343.47Z" transform="translate(-277.876 -340.292)" fill="url(#linear-gradient)"/>
        </g>
      </g>
      <g id="Сгруппировать_620" data-name="Сгруппировать 620" transform="translate(16.021 25.696)">
        <g id="Сгруппировать_619" data-name="Сгруппировать 619">
          <path id="Контур_18494" data-name="Контур 18494" d="M200.7,295.3c-.209.188-.417.353-.625.507-.045.033-.089.067-.133.1-.2.145-.406.276-.6.392l-.1.055q-.287.162-.565.287l-.057.027c-.2.088-.391.161-.579.224l-.089.029a6.548,6.548,0,0,1-1.052.25l-.032.005c-.159.023-.306.038-.441.048h-.016a5.075,5.075,0,0,1-.63.005h-.014c-.068,0-.128-.009-.167-.014h-.011a3.2,3.2,0,0,1-.568-.057c-.066-.012-.133-.032-.2-.048-.13-.03-.26-.062-.392-.1-.079-.025-.157-.055-.236-.084-.122-.045-.243-.091-.364-.144-.083-.036-.164-.073-.246-.112-.118-.056-.235-.114-.352-.175-.081-.042-.16-.084-.239-.128-.119-.066-.234-.134-.349-.2-.072-.043-.144-.085-.214-.129-.127-.08-.248-.16-.369-.241-.051-.034-.105-.068-.155-.1-.164-.113-.321-.224-.467-.331v.827l.114.076,4.521,3.02,4.636-3.1v-.887Z" transform="translate(-191.439 -295.294)" fill="url(#linear-gradient)"/>
        </g>
      </g>
      <g id="Сгруппировать_622" data-name="Сгруппировать 622" transform="translate(10.738 1.073)">
        <g id="Сгруппировать_621" data-name="Сгруппировать 621" transform="translate(0 0)">
          <g transform="matrix(1, 0, 0, 1, -47.42, -33.48)" filter="url(#Контур_18495)">
            <path id="Контур_18495-2" data-name="Контур 18495" d="M145.8,3.82a.689.689,0,0,1-.462-.962,1.459,1.459,0,0,0,.032-1.118,1.572,1.572,0,0,0-1.149-.666h-9.958a5.955,5.955,0,0,0-5.948,5.948v3.934a3.089,3.089,0,0,0,.366,1.459V10.623a.684.684,0,0,1,.016-.15A4.7,4.7,0,0,1,132.5,6.716a.78.78,0,0,1,.088-.005h3.3a2.209,2.209,0,0,0,.677-.1c.591-.19,1.542-.544,2.236-.808a3.607,3.607,0,0,1,.617-.172c.09-.017.181-.017.271-.027a3.616,3.616,0,0,1,.365-.033l.025,0a3.594,3.594,0,0,1,.418.035c.058.007.116.005.173.015a3.6,3.6,0,0,1,.6.154l3.477,1.22a4.6,4.6,0,0,1,3.035,3.631.694.694,0,0,1,0,.075V12.92c.031-.052.063-.1.1-.157a1.907,1.907,0,0,0,.294-1.011v-5.3A3.262,3.262,0,0,0,145.8,3.82Z" transform="translate(-80.89 32.41)" fill="url(#linear-gradient)"/>
          </g>
        </g>
      </g>
      <g id="Сгруппировать_624" data-name="Сгруппировать 624" transform="translate(0 29.212)">
        <g id="Сгруппировать_623" data-name="Сгруппировать 623">
          <g transform="matrix(1, 0, 0, 1, -36.69, -61.62)" filter="url(#Контур_18496)">
            <path id="Контур_18496-2" data-name="Контур 18496" d="M11.574,343.6a.689.689,0,0,1-.145-.828l.531-1.015-1.979-.03a.689.689,0,0,1-.605-1l1.708-3.425-7.7,2.787a3.713,3.713,0,0,0-2.4,2.883L.017,348.8A1.3,1.3,0,0,0,1.294,350.3H18.9Z" transform="translate(36.69 -275.68)" fill="url(#linear-gradient)"/>
          </g>
        </g>
      </g>
      <g id="Сгруппировать_626" data-name="Сгруппировать 626" transform="translate(12.481 6.942)">
        <g transform="matrix(1, 0, 0, 1, -49.17, -39.35)" filter="url(#Исключение_2)">
          <path id="Исключение_2-2" data-name="Исключение 2" d="M14454,19694.969c-.1,0-.191,0-.261-.01h-.03a.093.093,0,0,0-.034-.006l-.024,0a.822.822,0,0,0-.1-.008.3.3,0,0,1-.042,0,7.708,7.708,0,0,1-3.739-1.91c-.212-.17-.441-.338-.7-.514l-.074-.049c-3.027-2-3.163-6.676-3.163-6.723v-6.342a3.49,3.49,0,0,1,.113-.385.741.741,0,0,1,.04-.105c.008-.016.014-.029.02-.043.025-.074.049-.139.074-.2s.046-.088.076-.143l.027-.051c.008-.016.015-.029.021-.045l.007-.016c.009-.018.017-.037.026-.053s.035-.057.053-.084l.02-.031q.029-.044.056-.088a.227.227,0,0,0,.034-.045l.008-.012.008-.012c.031-.045.067-.092.1-.137a.287.287,0,0,1,.02-.025l.029-.037.017-.021a.208.208,0,0,0,.018-.021l.03-.033c.051-.055.1-.111.157-.166a.021.021,0,0,0,.011-.014,3.264,3.264,0,0,1,1.621-.852h3.247a3.592,3.592,0,0,0,1.1-.172c.679-.217,1.734-.613,2.3-.83a2.269,2.269,0,0,1,.791-.145,2.21,2.21,0,0,1,.731.125l3.47,1.215a3.239,3.239,0,0,1,2.126,2.457v6.125c-.391,4.316-2.125,6.092-3.124,6.766l-.129.084a11.792,11.792,0,0,0-1.216.959,7.39,7.39,0,0,1-.583.469l-.052.039a1.351,1.351,0,0,1-.121.09.5.5,0,0,1-.049.029l-.017.01-.029.016c-.091.066-.191.129-.271.178a.146.146,0,0,0-.039.02A5.2,5.2,0,0,1,14454,19694.969Zm-.26-1.879a.129.129,0,0,1,.028.006h.025l.036,0c.042,0,.1.006.171.006a4.187,4.187,0,0,0,2.066-.6.1.1,0,0,1,.031-.02,1.874,1.874,0,0,0,.17-.105l.051-.033c.021-.014.039-.025.057-.035l.022-.016c.042-.027.091-.064.137-.1.128-.1.3-.225.471-.377a9.638,9.638,0,0,1,.984-.775l.1-.07c.807-.535,2.208-1.957,2.525-5.457v-4.943a2.616,2.616,0,0,0-1.715-1.98l-2.8-.984a1.818,1.818,0,0,0-1.23.016l-.006,0c-.537.2-1.349.508-1.853.668a2.776,2.776,0,0,1-.885.139h-2.627a2.626,2.626,0,0,0-1.3.691h0l0,0,0,0c-.05.049-.105.107-.153.162a.055.055,0,0,0-.012.018l-.013.018a1.373,1.373,0,0,0-.1.125l-.013.018-.011.016a.407.407,0,0,0-.039.059l-.013.02a1.313,1.313,0,0,0-.092.139l0,.008-.008.016a.483.483,0,0,1-.037.07l-.019.035-.009.018a1.061,1.061,0,0,0-.052.105l-.009.021c0,.012-.011.025-.016.039l-.011.027c-.01.023-.019.047-.029.07a.362.362,0,0,1-.016.039c-.01.025-.02.051-.029.08-.031.092-.061.193-.089.307v5.121c0,.037.109,3.809,2.551,5.426l.06.041c.219.15.4.287.568.414a6.2,6.2,0,0,0,3.018,1.543h.032a.841.841,0,0,1,.1,0Z" transform="translate(-14396.66 -19636.29)" fill="url(#linear-gradient)"/>
        </g>
      </g>
      <g id="Сгруппировать_628" data-name="Сгруппировать 628" transform="translate(22.413 29.212)">
        <g id="Сгруппировать_627" data-name="Сгруппировать 627">
          <g transform="matrix(1, 0, 0, 1, -59.1, -61.62)" filter="url(#Контур_18498)">
            <path id="Контур_18498-2" data-name="Контур 18498" d="M286.7,348.8l-.964-5.819a3.716,3.716,0,0,0-2.4-2.883l-7.7-2.787,1.708,3.425a.689.689,0,0,1-.605,1l-1.979.03.531,1.015a.689.689,0,0,1-.145.828l-7.326,6.7h17.606A1.3,1.3,0,0,0,286.7,348.8Z" transform="translate(-208.72 -275.68)" fill="url(#linear-gradient)"/>
          </g>
        </g>
      </g>
      <g id="Сгруппировать_630" data-name="Сгруппировать 630" transform="translate(13.461 27.717)">
        <g id="Сгруппировать_629" data-name="Сгруппировать 629">
          <path id="Контур_18499" data-name="Контур 18499" d="M162.626,319.438l-1.778.638,3.394,6.169,1.438-1.958h0l.684-.931.7-.953Z" transform="translate(-160.848 -319.438)" fill="url(#linear-gradient)"/>
        </g>
      </g>
      <g id="Сгруппировать_632" data-name="Сгруппировать 632" transform="translate(11.097 29.462)">
        <g id="Сгруппировать_631" data-name="Сгруппировать 631">
          <path id="Контур_18500" data-name="Контур 18500" d="M134.394,345.678l5.174,4.743-1.9-3.456h0L134,340.293l-1.4,2.81,2,.031a.689.689,0,0,1,.6,1.008Z" transform="translate(-132.596 -340.293)" fill="url(#linear-gradient)"/>
        </g>
      </g>
    </g>
  </g>
</svg>
