<svg xmlns="http://www.w3.org/2000/svg" width="34.743" height="50.535" viewBox="0 0 34.743 50.535">
    <g id="mobile-application" transform="translate(-80)">
        <g id="Сгруппировать_659" data-name="Сгруппировать 659" transform="translate(80)">
            <g id="Сгруппировать_658" data-name="Сгруппировать 658">
                <path id="Контур_18521" data-name="Контур 18521" d="M111.584,0H83.158A3.164,3.164,0,0,0,80,3.158V47.377a3.162,3.162,0,0,0,3.158,3.158h28.426a3.16,3.16,0,0,0,3.158-3.158V3.158A3.162,3.162,0,0,0,111.584,0Zm0,41.06H83.158V6.317h28.426Z" transform="translate(-80)" fill="#fff"/>
            </g>
        </g>
        <g id="Сгруппировать_661" data-name="Сгруппировать 661" transform="translate(86.317 12.634)">
            <g id="Сгруппировать_660" data-name="Сгруппировать 660">
                <path id="Контур_18522" data-name="Контур 18522" d="M151.9,128h-6.317A1.58,1.58,0,0,0,144,129.579V135.9a1.58,1.58,0,0,0,1.579,1.579H151.9a1.58,1.58,0,0,0,1.579-1.579v-6.317A1.58,1.58,0,0,0,151.9,128Z" transform="translate(-144 -128)" fill="#fff"/>
            </g>
        </g>
        <g id="Сгруппировать_663" data-name="Сгруппировать 663" transform="translate(86.317 25.268)">
            <g id="Сгруппировать_662" data-name="Сгруппировать 662">
                <path id="Контур_18523" data-name="Контур 18523" d="M151.9,256h-6.317A1.58,1.58,0,0,0,144,257.579V263.9a1.58,1.58,0,0,0,1.579,1.579H151.9a1.58,1.58,0,0,0,1.579-1.579v-6.317A1.58,1.58,0,0,0,151.9,256Z" transform="translate(-144 -256)" fill="#fff"/>
            </g>
        </g>
        <g id="Сгруппировать_665" data-name="Сгруппировать 665" transform="translate(98.951 12.634)">
            <g id="Сгруппировать_664" data-name="Сгруппировать 664">
                <path id="Контур_18524" data-name="Контур 18524" d="M279.9,128h-6.317A1.58,1.58,0,0,0,272,129.579V135.9a1.58,1.58,0,0,0,1.579,1.579H279.9a1.58,1.58,0,0,0,1.579-1.579v-6.317A1.58,1.58,0,0,0,279.9,128Z" transform="translate(-272 -128)" fill="#fff"/>
            </g>
        </g>
    </g>
</svg>
