<svg xmlns="http://www.w3.org/2000/svg" xmlns:xlink="http://www.w3.org/1999/xlink" width="230.122" height="318.999" viewBox="0 0 230.122 318.999">
    <defs>
        <filter id="Контур_18745" x="0" y="8.932" width="230.122" height="310.067" filterUnits="userSpaceOnUse">
            <feOffset input="SourceAlpha"/>
            <feGaussianBlur stdDeviation="5" result="blur"/>
            <feFlood flood-opacity="0.702"/>
            <feComposite operator="in" in2="blur"/>
            <feComposite in="SourceGraphic"/>
        </filter>
    </defs>
    <g id="OBJECTS" transform="translate(-114.157 -56.116)">
        <g id="Сгруппировать_835" data-name="Сгруппировать 835" transform="translate(129.157 56.116)">
            <g transform="matrix(1, 0, 0, 1, -15, 0)" filter="url(#Контур_18745)">
                <path id="Контур_18745-2" data-name="Контур 18745" d="M10.12,0H190a10.12,10.12,0,0,1,10.12,10.12V269.947A10.12,10.12,0,0,1,190,280.067H10.12A10.12,10.12,0,0,1,0,269.947V10.12A10.12,10.12,0,0,1,10.12,0Z" transform="translate(15 23.93)" fill="#ef4864"/>
            </g>
            <rect id="Прямоугольник_1213" data-name="Прямоугольник 1213" width="177.897" height="252.697" rx="3.152" transform="translate(13.852 44.616)" fill="#c7c7c7" style="mix-blend-mode: multiply;isolation: isolate"/>
            <rect id="Прямоугольник_1214" data-name="Прямоугольник 1214" width="177.897" height="252.697" rx="3.152" transform="translate(11.112 39.559)" fill="#e8e8e8"/>
            <path id="Контур_18672" data-name="Контур 18672" d="M322.41,354.005l-172.834,5.242a2.492,2.492,0,0,1-2.566-2.415l-7.509-247.6a2.492,2.492,0,0,1,2.415-2.566l172.834-5.242a2.492,2.492,0,0,1,2.566,2.415l7.509,247.6A2.492,2.492,0,0,1,322.41,354.005Z" transform="translate(-131.322 -65.602)" fill="#fff"/>
            <g id="Сгруппировать_834" data-name="Сгруппировать 834" transform="translate(38.764 89.679)">
                <g id="Сгруппировать_830" data-name="Сгруппировать 830">
                    <path id="Контур_18742" data-name="Контур 18742" d="M0,0H26.371V26.371H0Z" transform="translate(0 3.621)" fill="none" stroke="#24272d" stroke-width="2"/>
                    <path id="Контур_18673" data-name="Контур 18673" d="M182.615,181.141l8.41,12.917,23.326-24.514L191.6,184.905Z" transform="translate(-179.113 -169.544)" fill="#00a7cf"/>
                    <line id="Линия_18" data-name="Линия 18" x2="76.391" transform="translate(43.539 3.621)" fill="none" stroke="#00a7cf" stroke-linecap="round" stroke-miterlimit="10" stroke-width="2"/>
                    <line id="Линия_19" data-name="Линия 19" x2="76.391" transform="translate(43.539 12.257)" fill="none" stroke="#00a7cf" stroke-linecap="round" stroke-miterlimit="10" stroke-width="2"/>
                    <line id="Линия_20" data-name="Линия 20" x2="76.391" transform="translate(43.539 20.892)" fill="none" stroke="#00a7cf" stroke-linecap="round" stroke-miterlimit="10" stroke-width="2"/>
                    <line id="Линия_21" data-name="Линия 21" x2="42.376" transform="translate(43.539 29.528)" fill="none" stroke="#00a7cf" stroke-linecap="round" stroke-miterlimit="10" stroke-width="2"/>
                </g>
                <g id="Сгруппировать_831" data-name="Сгруппировать 831" transform="translate(0 49.016)">
                    <path id="Контур_18743" data-name="Контур 18743" d="M0,0H26.371V26.371H0Z" transform="translate(0 3.621)" fill="none" stroke="#24272d" stroke-width="2"/>
                    <path id="Контур_18674" data-name="Контур 18674" d="M182.615,243.137l8.41,12.916,23.326-24.514L191.6,246.9Z" transform="translate(-179.113 -231.54)" fill="#00a7cf"/>
                    <line id="Линия_22" data-name="Линия 22" x2="76.391" transform="translate(43.539 3.621)" fill="none" stroke="#00a7cf" stroke-linecap="round" stroke-miterlimit="10" stroke-width="2"/>
                    <line id="Линия_23" data-name="Линия 23" x2="76.391" transform="translate(43.539 12.257)" fill="none" stroke="#00a7cf" stroke-linecap="round" stroke-miterlimit="10" stroke-width="2"/>
                    <line id="Линия_24" data-name="Линия 24" x2="76.391" transform="translate(43.539 20.892)" fill="none" stroke="#00a7cf" stroke-linecap="round" stroke-miterlimit="10" stroke-width="2"/>
                    <line id="Линия_25" data-name="Линия 25" x2="28.162" transform="translate(43.539 29.528)" fill="none" stroke="#00a7cf" stroke-linecap="round" stroke-miterlimit="10" stroke-width="2"/>
                </g>
                <g id="Сгруппировать_832" data-name="Сгруппировать 832" transform="translate(0 98.032)">
                    <path id="Контур_18744" data-name="Контур 18744" d="M0,0H26.371V26.372H0Z" transform="translate(0 3.621)" fill="none" stroke="#24272d" stroke-width="2"/>
                    <path id="Контур_18675" data-name="Контур 18675" d="M182.615,305.134l8.41,12.917,23.326-24.514L191.6,308.9Z" transform="translate(-179.113 -293.536)" fill="#00a7cf"/>
                    <line id="Линия_26" data-name="Линия 26" x2="76.391" transform="translate(43.539 3.621)" fill="none" stroke="#00a7cf" stroke-linecap="round" stroke-miterlimit="10" stroke-width="2"/>
                    <line id="Линия_27" data-name="Линия 27" x2="76.391" transform="translate(43.539 12.257)" fill="none" stroke="#00a7cf" stroke-linecap="round" stroke-miterlimit="10" stroke-width="2"/>
                    <line id="Линия_28" data-name="Линия 28" x2="76.391" transform="translate(43.539 20.892)" fill="none" stroke="#00a7cf" stroke-linecap="round" stroke-miterlimit="10" stroke-width="2"/>
                    <line id="Линия_29" data-name="Линия 29" x2="42.744" transform="translate(43.539 29.528)" fill="none" stroke="#00a7cf" stroke-linecap="round" stroke-miterlimit="10" stroke-width="2"/>
                </g>
                <g id="Сгруппировать_833" data-name="Сгруппировать 833" transform="translate(0 147.048)">
                    <rect id="Прямоугольник_1218" data-name="Прямоугольник 1218" width="26.371" height="26.372" transform="translate(0 3.621)" fill="none" stroke="#24272d" stroke-miterlimit="10" stroke-width="2"/>
                    <path id="Контур_18676" data-name="Контур 18676" d="M182.615,367.13l8.41,12.917,23.326-24.514L191.6,370.894Z" transform="translate(-179.113 -355.532)" fill="#00a7cf"/>
                    <line id="Линия_30" data-name="Линия 30" x2="76.391" transform="translate(43.539 3.621)" fill="none" stroke="#00a7cf" stroke-linecap="round" stroke-miterlimit="10" stroke-width="2"/>
                    <line id="Линия_31" data-name="Линия 31" x2="76.391" transform="translate(43.539 12.257)" fill="none" stroke="#00a7cf" stroke-linecap="round" stroke-miterlimit="10" stroke-width="2"/>
                    <line id="Линия_32" data-name="Линия 32" x2="76.391" transform="translate(43.539 20.892)" fill="none" stroke="#00a7cf" stroke-linecap="round" stroke-miterlimit="10" stroke-width="2"/>
                    <line id="Линия_33" data-name="Линия 33" x2="28.162" transform="translate(43.539 29.528)" fill="none" stroke="#00a7cf" stroke-linecap="round" stroke-miterlimit="10" stroke-width="2"/>
                </g>
            </g>
            <path id="Контур_18677" data-name="Контур 18677" d="M293.649,86.383l3.485,19.147a4.327,4.327,0,0,1-4.26,5.1H212.979a4.326,4.326,0,0,1-4.253-5.1l3.485-19.147Z" transform="translate(-145.802 -62.453)" fill="#c7c7c7" style="mix-blend-mode: multiply;isolation: isolate"/>
            <path id="Контур_18678" data-name="Контур 18678" d="M289.656,107.753h-79.9a4.323,4.323,0,0,1-4.254-5.1l4.812-26.447a4.323,4.323,0,0,1,4.254-3.549h70.273a4.323,4.323,0,0,1,4.253,3.549l4.813,26.447A4.324,4.324,0,0,1,289.656,107.753Z" transform="translate(-145.127 -59.58)" fill="#e8e8e8"/>
            <path id="Контур_18679" data-name="Контур 18679" d="M290.457,86.6h-81.5l-3.453,18.976a4.323,4.323,0,0,0,4.254,5.1h79.9a4.324,4.324,0,0,0,4.254-5.1Z" transform="translate(-145.127 -62.498)" fill="#c7c7c7" opacity="0.21" style="mix-blend-mode: multiply;isolation: isolate"/>
            <rect id="Прямоугольник_1219" data-name="Прямоугольник 1219" width="110.463" height="20.531" rx="4.804" transform="translate(51.895 30.627)" fill="#c7c7c7" style="mix-blend-mode: multiply;isolation: isolate"/>
            <rect id="Прямоугольник_1220" data-name="Прямоугольник 1220" width="110.463" height="20.531" rx="4.804" transform="translate(49.349 27.643)" fill="#e8e8e8"/>
            <path id="Контур_18680" data-name="Контур 18680" d="M273.78,77.016V68.528a12.412,12.412,0,0,0-24.825,0v8.488ZM261.367,62.573a3.312,3.312,0,1,1-3.311,3.311A3.311,3.311,0,0,1,261.367,62.573Z" transform="translate(-154.239 -56.116)" fill="#e8e8e8"/>
            <rect id="Прямоугольник_1221" data-name="Прямоугольник 1221" width="80.561" height="13.232" rx="6.616" transform="translate(65.135 61.782)" fill="#24272d"/>
        </g>
    </g>
</svg>
