<svg xmlns="http://www.w3.org/2000/svg" width="185.586" height="254.035" viewBox="0 0 185.586 254.035">
  <g id="Сгруппировать_3174" data-name="Сгруппировать 3174" transform="translate(-560.728 -478.095)">
    <rect id="Прямоугольник_1278" data-name="Прямоугольник 1278" width="154.472" height="154.473" transform="translate(576.285 577.657)" fill="#00a7ce"/>
    <rect id="Прямоугольник_1279" data-name="Прямоугольник 1279" width="154.472" height="13.242" transform="translate(576.285 577.657)" fill="#184668" opacity="0.69"/>
    <rect id="Прямоугольник_1280" data-name="Прямоугольник 1280" width="185.586" height="33.077" transform="translate(560.728 544.58)" fill="#00a7ce"/>
    <g id="Сгруппировать_3173" data-name="Сгруппировать 3173" transform="translate(569.151 478.095)">
      <g id="Сгруппировать_3171" data-name="Сгруппировать 3171" transform="translate(81.606 0.019)">
        <path id="Контур_20450" data-name="Контур 20450" d="M644.969,547.341a2.763,2.763,0,0,1-2.7-3.327,256.738,256.738,0,0,1,8.293-29.383c7.261-20.638,15.252-32.658,23.751-35.724,3.29-1.185,8.426-1.634,14.21,2.972,7.472,5.951,9.652,14.161,6.3,23.741C687.732,525.9,657.3,547.341,644.969,547.341Zm33.84-63.71a7.708,7.708,0,0,0-2.625.473c-12.927,4.665-23.573,39.729-27.636,57.1,11.74-3.444,35.253-20.805,41.058-37.406,2.573-7.362,1.092-13.118-4.529-17.6A10.123,10.123,0,0,0,678.809,483.631Z" transform="translate(-642.206 -478.113)" fill="#ef4864"/>
        <path id="Контур_20451" data-name="Контур 20451" d="M654.869,544.411a35.4,35.4,0,0,1-10.729-1.628,2.762,2.762,0,1,1,1.66-5.27c12.988,4.1,25.752-1.647,39.266-7.725,13.659-6.14,27.779-12.487,42.342-7.9a2.763,2.763,0,0,1-1.661,5.271c-12.553-3.963-25.115,1.688-38.416,7.667C676.81,539.558,666.014,544.411,654.869,544.411Z" transform="translate(-642.206 -473.683)" fill="#ef4864"/>
      </g>
      <g id="Сгруппировать_3172" data-name="Сгруппировать 3172">
        <path id="Контур_20452" data-name="Контур 20452" d="M649.587,547.324c-12.332,0-42.763-21.445-49.851-41.721-3.349-9.58-1.17-17.79,6.3-23.74,5.782-4.608,10.919-4.159,14.21-2.973,8.5,3.067,16.49,15.087,23.751,35.724A256.76,256.76,0,0,1,652.291,544a2.762,2.762,0,0,1-2.7,3.327Zm-33.84-63.709a10.121,10.121,0,0,0-6.267,2.569c-5.621,4.478-7.1,10.234-4.528,17.6,5.8,16.6,29.317,33.959,41.055,37.4-4.066-17.37-14.717-52.437-27.636-57.1A7.648,7.648,0,0,0,615.747,483.615Z" transform="translate(-565.217 -478.095)" fill="#ef4864"/>
        <path id="Контур_20453" data-name="Контур 20453" d="M642.821,544.394c-11.146,0-21.94-4.852-32.462-9.583-13.3-5.979-25.861-11.631-38.413-7.667a2.763,2.763,0,1,1-1.662-5.27c14.562-4.591,28.683,1.757,42.341,7.9,13.517,6.077,26.287,11.816,39.267,7.725a2.763,2.763,0,1,1,1.66,5.271A35.423,35.423,0,0,1,642.821,544.394Z" transform="translate(-568.351 -473.665)" fill="#ef4864"/>
      </g>
    </g>
    <rect id="Прямоугольник_1281" data-name="Прямоугольник 1281" width="4.42" height="184.933" transform="translate(651.311 547.197)" fill="#ef4864"/>
  </g>
</svg>
