<svg xmlns="http://www.w3.org/2000/svg" width="40.842" height="38.588" viewBox="0 0 40.842 38.588">
  <g id="python-language-logotype" transform="translate(0 -0.47)">
    <g id="Сгруппировать_635" data-name="Сгруппировать 635" transform="translate(0 0.47)">
      <path id="Контур_18502" data-name="Контур 18502" d="M27.054,18.549c3.1-1.406,3.563-12.1,1.734-15.256C26.4-.821,15.038,0,11.451,2.945a27.646,27.646,0,0,0-.35,6.219H22.361v.987H11.1c0,.014-5.012.031-5.012.031-8.642,0-8.463,18.769,2.941,18.769a36.665,36.665,0,0,1,1.152-6.24C12.447,16.281,21.954,20.862,27.054,18.549ZM15.266,7.641A2.351,2.351,0,1,1,17.617,5.29,2.349,2.349,0,0,1,15.266,7.641Z" transform="translate(0 -0.47)" fill="#fff"/>
      <path id="Контур_18503" data-name="Контур 18503" d="M25.182,4.691a32.558,32.558,0,0,1-1.032,6.24c-2.263,6.427-11.767,1.849-16.87,4.162C4.181,16.5,3.714,27.2,5.546,30.349c2.387,4.116,13.747,3.29,17.337.347a27.615,27.615,0,0,0,.35-6.216H11.971v-.987H23.228c0-.014,5.548-.031,5.548-.031C36.74,23.462,37.454,4.691,25.182,4.691Zm-6.518,20.9a2.35,2.35,0,1,1-2.349,2.351A2.351,2.351,0,0,1,18.663,25.593Z" transform="translate(6.236 5.415)" fill="#fff"/>
    </g>
  </g>
</svg>
