<svg xmlns="http://www.w3.org/2000/svg" width="33.149" height="46.894" viewBox="0 0 33.149 46.894">
    <g id="question-mark" transform="translate(-142.61)">
        <path id="Контур_18513" data-name="Контур 18513" d="M400.446,788.2h-2.265a2.894,2.894,0,0,0-2.891,2.891v3.128a2.894,2.894,0,0,0,2.891,2.891h2.265a2.894,2.894,0,0,0,2.891-2.891V791.09A2.891,2.891,0,0,0,400.446,788.2Z" transform="translate(-240.504 -750.216)" fill="#fff"/>
        <path id="Контур_18514" data-name="Контур 18514" d="M143.973,13.773l4.178.52a2.893,2.893,0,0,0,3.06-1.846,8.913,8.913,0,0,1,2.516-3.725,8.524,8.524,0,0,1,5.682-1.928,8.152,8.152,0,0,1,5.6,1.846,5.727,5.727,0,0,1,2.077,4.438,5.524,5.524,0,0,1-1.171,3.412,38.66,38.66,0,0,1-4.66,4.14,19.632,19.632,0,0,0-5.2,5.691,13.171,13.171,0,0,0-1.272,5.556,2.891,2.891,0,0,0,2.891,3.012h2.361a2.9,2.9,0,0,0,2.882-2.646,7.3,7.3,0,0,1,.545-2.443,13.576,13.576,0,0,1,3.5-3.764q5.457-4.518,7.122-7.147a10.233,10.233,0,0,0,1.667-5.566A12.116,12.116,0,0,0,171.229,4Q166.7,0,159.037,0q-7.286,0-11.763,3.952a13.631,13.631,0,0,0-4.636,7.975A1.558,1.558,0,0,0,143.973,13.773Z" transform="translate(0 0)" fill="#fff"/>
    </g>
</svg>
