<svg id="react" xmlns="http://www.w3.org/2000/svg" width="38.564" height="38.564" viewBox="0 0 38.564 38.564">
  <path id="Контур_18504" data-name="Контур 18504" d="M38.564,19.282A19.282,19.282,0,1,1,19.282,0,19.256,19.256,0,0,1,38.564,19.282Z" fill="#fff"/>
  <g id="Сгруппировать_636" data-name="Сгруппировать 636" transform="translate(0.568 5.119)">
    <path id="Контур_18505" data-name="Контур 18505" d="M124.037,92.981c-.091-.607-.21-1.232-.358-1.871q-.2-.842-.455-1.714a37.4,37.4,0,0,0-1.775-4.713q-.476-1.051-1.023-2.107-.482-.929-1.016-1.856t-1.1-1.808q-.639-1-1.313-1.938A37.218,37.218,0,0,0,113.8,73.08q-.624-.66-1.257-1.25-.719-.673-1.442-1.247c-3.139-2.493-5.95-3.241-7.915-2.107s-2.722,3.943-2.134,7.909c.09.607.21,1.232.359,1.871q.194.842.454,1.714a37.228,37.228,0,0,0,1.776,4.713q.475,1.051,1.022,2.106.482.93,1.016,1.857t1.1,1.808q.64,1,1.313,1.939a37.2,37.2,0,0,0,3.194,3.893q.625.66,1.258,1.251.719.673,1.441,1.246a14.4,14.4,0,0,0,3.3,2.034,19.2,19.2,0,0,0,6.725-3.192A13.16,13.16,0,0,0,124.037,92.981Zm-1.768,4.358a2.515,2.515,0,0,1-3.623,2.093,11.438,11.438,0,0,1-3.556-2.037q-.642-.51-1.286-1.107t-1.258-1.249c-.716-.758-1.425-1.587-2.116-2.478q-.692-.891-1.358-1.86c-.643-.934-1.264-1.918-1.854-2.941s-1.133-2.053-1.62-3.076q-.505-1.059-.931-2.106c-.426-1.044-.79-2.072-1.088-3.071-.173-.582-.325-1.154-.452-1.713s-.237-1.127-.317-1.668a11.429,11.429,0,0,1,.014-4.1,2.954,2.954,0,0,1,1.252-2.016,2.25,2.25,0,0,1,1.142-.282,4.232,4.232,0,0,1,1.229.205A11.432,11.432,0,0,1,110,71.972q.642.51,1.286,1.109t1.257,1.247c.717.758,1.425,1.587,2.117,2.478q.692.891,1.358,1.86c.642.934,1.263,1.918,1.853,2.94s1.133,2.053,1.62,3.076q.505,1.06.931,2.107c.426,1.044.79,2.071,1.088,3.07q.26.874.453,1.713c.13.57.236,1.127.316,1.668A11.424,11.424,0,0,1,122.27,97.339Z" transform="translate(-93.833 -67.961)" fill="#24272d"/>
    <path id="Контур_18506" data-name="Контур 18506" d="M39.189,186.883q-.856-.338-1.8-.626-.826-.252-1.712-.464a37.252,37.252,0,0,0-4.968-.819c-.764-.076-1.544-.132-2.334-.168-.7-.032-1.4-.049-2.116-.049s-1.419.016-2.117.049c-.791.035-1.571.092-2.335.168a37.24,37.24,0,0,0-4.968.819q-.884.211-1.712.464-.942.287-1.8.626c-3.728,1.472-5.782,3.532-5.782,5.8s2.054,4.329,5.782,5.8q.856.338,1.8.626.826.251,1.712.463a37.238,37.238,0,0,0,4.969.819c.764.076,1.544.131,2.335.168.7.032,1.4.048,2.116.048s1.418-.016,2.116-.048q1.186-.054,2.335-.168a37.14,37.14,0,0,0,4.969-.819q.884-.211,1.712-.464c.627-.191,1.229-.4,1.8-.625,3.729-1.473,5.782-3.533,5.782-5.8S42.918,188.355,39.189,186.883Zm2.89,7.893a11.421,11.421,0,0,1-3.541,2.061q-.764.3-1.6.56-.823.254-1.709.464c-1.014.242-2.087.44-3.2.593q-1.117.155-2.289.246c-1.131.091-2.293.136-3.475.136s-2.344-.046-3.475-.135c-.78-.061-1.545-.144-2.289-.247-1.117-.154-2.19-.352-3.2-.593q-.885-.21-1.709-.464t-1.6-.56a11.421,11.421,0,0,1-3.541-2.061,2.514,2.514,0,0,1,0-4.184,11.421,11.421,0,0,1,3.541-2.061q.764-.3,1.6-.56.823-.254,1.709-.464c1.015-.242,2.087-.44,3.2-.593.745-.1,1.51-.186,2.289-.247,1.131-.09,2.293-.135,3.475-.135s2.344.046,3.475.136q1.17.091,2.289.246c1.117.154,2.19.352,3.2.593q.885.21,1.709.464t1.6.56a11.421,11.421,0,0,1,3.541,2.061,2.514,2.514,0,0,1,0,4.184Z" transform="translate(-7.544 -175.962)" fill="#24272d"/>
    <path id="Контур_18507" data-name="Контур 18507" d="M121.9,68.477c-1.965-1.134-4.776-.386-7.915,2.107q-.72.573-1.441,1.247-.632.589-1.258,1.251a37.3,37.3,0,0,0-3.195,3.893q-.672.937-1.312,1.938-.565.882-1.1,1.808t-1.016,1.857q-.547,1.054-1.022,2.106A37.277,37.277,0,0,0,101.87,89.4q-.26.872-.455,1.715-.222.959-.358,1.87a13.152,13.152,0,0,0,.02,4.643,19.189,19.189,0,0,0,6.725,3.193,14.4,14.4,0,0,0,3.3-2.034q.721-.573,1.442-1.246.632-.589,1.257-1.25A37.315,37.315,0,0,0,117,92.393q.672-.937,1.313-1.939.565-.882,1.1-1.808t1.016-1.856q.547-1.054,1.023-2.107a37.34,37.34,0,0,0,1.775-4.713q.258-.871.454-1.714c.149-.639.268-1.264.359-1.871C124.626,72.42,123.869,69.612,121.9,68.477Zm-.389,11.029c-.3,1-.663,2.027-1.088,3.07q-.425,1.045-.931,2.107c-.487,1.024-1.029,2.053-1.62,3.076s-1.211,2.006-1.853,2.94q-.666.968-1.359,1.86c-.691.89-1.4,1.72-2.116,2.478q-.624.661-1.257,1.248T110,97.395a11.438,11.438,0,0,1-3.556,2.037,2.515,2.515,0,0,1-3.623-2.093,11.427,11.427,0,0,1-.014-4.1c.08-.541.186-1.1.316-1.668s.279-1.131.453-1.713c.3-1,.663-2.027,1.088-3.071q.425-1.045.931-2.106c.487-1.024,1.029-2.053,1.62-3.076s1.211-2.007,1.854-2.941q.665-.967,1.358-1.859c.692-.891,1.4-1.72,2.116-2.478q.626-.662,1.258-1.248t1.286-1.108a11.436,11.436,0,0,1,3.556-2.036,4.231,4.231,0,0,1,1.229-.205,2.248,2.248,0,0,1,1.142.282,2.951,2.951,0,0,1,1.252,2.016,11.427,11.427,0,0,1,.014,4.1c-.08.541-.187,1.1-.317,1.668S121.688,78.924,121.515,79.507Z" transform="translate(-93.834 -67.961)" fill="#24272d"/>
    <circle id="Эллипс_187" data-name="Эллипс 187" cx="3.517" cy="3.517" r="3.517" transform="translate(15.197 13.206)" fill="#24272d"/>
  </g>
</svg>
