<svg xmlns="http://www.w3.org/2000/svg" xmlns:xlink="http://www.w3.org/1999/xlink" width="438.335" height="464.178" viewBox="0 0 438.335 464.178">
    <defs>
        <filter id="Контур_19347" x="276.165" y="47.899" width="93.845" height="89.02" filterUnits="userSpaceOnUse">
            <feOffset dy="3" input="SourceAlpha"/>
            <feGaussianBlur stdDeviation="3" result="blur"/>
            <feFlood flood-opacity="0.161"/>
            <feComposite operator="in" in2="blur"/>
            <feComposite in="SourceGraphic"/>
        </filter>
    </defs>
    <g id="Сгруппировать_7842" data-name="Сгруппировать 7842" transform="translate(-1007.99 -205.39)">
        <g id="Robot_1" data-name="Robot 1" transform="translate(956 150.521)">
            <g id="Сгруппировать_1091" data-name="Сгруппировать 1091" transform="translate(51.99 54.869)">
                <g id="Сгруппировать_1048" data-name="Сгруппировать 1048" transform="translate(19.786 164.615)">
                    <g id="Сгруппировать_1040" data-name="Сгруппировать 1040" transform="translate(0 51.391)">
                        <path id="Контур_19314" data-name="Контур 19314" d="M91.047,241.8a1.323,1.323,0,0,1-.31.127l-.922.314c-.811.275-2,.713-3.477,1.384A31.822,31.822,0,0,0,75.4,251.736a24.62,24.62,0,0,0-4.69,8.127,21.579,21.579,0,0,0-.7,10.667A20.267,20.267,0,0,0,75.326,281a16.557,16.557,0,0,0,5.15,3.517,19.18,19.18,0,0,0,6.28,1.466A33.655,33.655,0,0,0,99.38,283.96c3.95-1.339,7.593-3.11,11.134-4.639a62.85,62.85,0,0,1,10.33-3.7,24.943,24.943,0,0,1,9.538-.616c5.874.808,10.04,3.811,11.96,6.441a13.6,13.6,0,0,1,1.171,1.838c.244.584.483,1.063.612,1.474.107.388.194.7.262.944a1.321,1.321,0,0,1,.068.326,1.492,1.492,0,0,1-.128-.31l-.315-.919c-.147-.4-.4-.867-.658-1.433a14.061,14.061,0,0,0-1.2-1.778,17.922,17.922,0,0,0-11.833-6.164,24.652,24.652,0,0,0-9.361.681,63.221,63.221,0,0,0-10.226,3.721c-3.524,1.539-7.17,3.326-11.166,4.69a34.038,34.038,0,0,1-12.852,2.068,19.694,19.694,0,0,1-6.477-1.516,17.084,17.084,0,0,1-5.334-3.654,20.769,20.769,0,0,1-5.439-10.786,22.015,22.015,0,0,1,.768-10.928,24.924,24.924,0,0,1,4.841-8.245,31.305,31.305,0,0,1,11.167-8.046A26.433,26.433,0,0,1,91.047,241.8Z" transform="translate(-69.113 -241.8)" fill="#263238"/>
                    </g>
                    <path id="Контур_19315" data-name="Контур 19315" d="M238.1,406.794V363.408a22.2,22.2,0,0,0-21.924-22.2L90.6,339.642a15.1,15.1,0,0,0-15.287,15.1v51.524Z" transform="translate(-68.148 -175.192)" fill="#00a7ce"/>
                    <rect id="Прямоугольник_1444" data-name="Прямоугольник 1444" width="50.871" height="23.78" transform="translate(73.422 201.035) rotate(180)" fill="#fafafa"/>
                    <g id="Сгруппировать_1041" data-name="Сгруппировать 1041" transform="translate(89.075 165.766)">
                        <path id="Контур_19316" data-name="Контур 19316" d="M146.5,405.849c-.166,0-.3-14.568-.3-32.533s.134-32.536.3-32.536.3,14.564.3,32.536S146.665,405.849,146.5,405.849Z" transform="translate(-146.198 -340.78)" fill="#263238"/>
                    </g>
                    <g id="Сгруппировать_1042" data-name="Сгруппировать 1042" transform="translate(67.146 144.597)">
                        <path id="Контур_19317" data-name="Контур 19317" d="M148.938,323.906a23.509,23.509,0,0,0-4.928-.959A15.255,15.255,0,0,0,127.664,337.2a23.3,23.3,0,0,0,.28,5.013,4.817,4.817,0,0,1-.411-1.308,13.947,13.947,0,0,1-.294-3.734,15.8,15.8,0,0,1,1.255-5.422,14.864,14.864,0,0,1,10-8.723,15.777,15.777,0,0,1,5.541-.5,13.907,13.907,0,0,1,3.66.8A4.88,4.88,0,0,1,148.938,323.906Z" transform="translate(-127.221 -322.46)" fill="#263238"/>
                    </g>
                    <path id="Контур_19318" data-name="Контур 19318" d="M214.275,363.632l-61.8-166.306-44.678,21.209,52.425,156.046Z" transform="translate(-63.096 -197.327)" fill="#2e95b7"/>
                    <g id="Сгруппировать_1043" data-name="Сгруппировать 1043" transform="translate(101.047 159.88)">
                        <circle id="Эллипс_1207" data-name="Эллипс 1207" cx="24.804" cy="24.804" r="24.804" transform="translate(10.517 66.722) rotate(-88.049)" opacity="0.4"/>
                        <circle id="Эллипс_1208" data-name="Эллипс 1208" cx="25.517" cy="25.517" r="25.517" transform="translate(0 47.475) rotate(-68.477)" fill="#24272d"/>
                        <path id="Контур_19319" data-name="Контур 19319" d="M177.63,369.551a9.7,9.7,0,1,0,4.965-12.792A9.7,9.7,0,0,0,177.63,369.551Z" transform="translate(-153.41 -332.538)" fill="#aeaeae"/>
                    </g>
                    <g id="Сгруппировать_1044" data-name="Сгруппировать 1044" transform="translate(96.785 88.625)">
                        <path id="Контур_19320" data-name="Контур 19320" d="M180.835,357.056a.965.965,0,0,1-.125-.246c-.082-.2-.184-.444-.307-.742q-.414-1.056-1.129-2.873c-.974-2.556-2.352-6.166-4.044-10.607-3.378-9.02-8.014-21.4-13.134-35.074l-9.132-24.679-.094-.252.252-.086,18.294-6.219,5.142-1.7,1.362-.43a2.131,2.131,0,0,1,.476-.121,2.3,2.3,0,0,1-.449.2l-1.336.5-5.095,1.841-18.224,6.422.159-.337c2.683,7.185,5.84,15.637,9.207,24.652,5.057,13.7,9.634,26.1,12.969,35.134l3.865,10.674q.647,1.841,1.023,2.913l.252.763A.952.952,0,0,1,180.835,357.056Z" transform="translate(-152.87 -274.023)" fill="#263238"/>
                    </g>
                    <g id="Сгруппировать_1045" data-name="Сгруппировать 1045" transform="translate(67.332 71.448)">
                        <path id="Контур_19321" data-name="Контур 19321" d="M127.382,278.421c-.061-.155,10.77-4.591,24.187-9.909s24.349-9.5,24.411-9.351-10.767,4.591-24.189,9.91S127.443,278.576,127.382,278.421Z" transform="translate(-127.382 -259.157)" fill="#263238"/>
                    </g>
                    <g id="Сгруппировать_1046" data-name="Сгруппировать 1046" transform="translate(93.475 164.781)">
                        <path id="Контур_19322" data-name="Контур 19322" d="M177.928,392.683a2.44,2.44,0,0,1-.52-.339c-.322-.245-.819-.582-1.407-1.08a46.512,46.512,0,0,1-4.758-4.473,68.462,68.462,0,0,1-11.753-17.984,140.167,140.167,0,0,1-7.237-20.26c-.753-2.647-1.325-4.8-1.708-6.288l-.425-1.719a2.4,2.4,0,0,1-.109-.611,2.41,2.41,0,0,1,.225.578c.142.452.319,1.01.534,1.689.471,1.555,1.11,3.664,1.89,6.232a159.152,159.152,0,0,0,7.375,20.127,72.242,72.242,0,0,0,11.522,17.95,56.531,56.531,0,0,0,4.6,4.582A23.029,23.029,0,0,1,177.928,392.683Z" transform="translate(-150.006 -339.928)" fill="#263238"/>
                    </g>
                    <g id="Сгруппировать_1047" data-name="Сгруппировать 1047" transform="translate(150.279 163.137)">
                        <path id="Контур_19323" data-name="Контур 19323" d="M202.765,379.021a14.741,14.741,0,0,0,1.478-.855,7.913,7.913,0,0,0,2.683-3.668,14.44,14.44,0,0,0,.5-6.782c-.328-2.59-.844-5.436-1.487-8.387a108.065,108.065,0,0,0-4.425-14.836c-.693-1.859-1.315-3.341-1.73-4.371a9.474,9.474,0,0,1-.612-1.617,9.512,9.512,0,0,1,.826,1.521c.482,1,1.165,2.465,1.912,4.312a92.145,92.145,0,0,1,4.616,14.861c.647,2.974,1.147,5.825,1.449,8.455a14.452,14.452,0,0,1-.651,7,7.816,7.816,0,0,1-2.948,3.706,5.266,5.266,0,0,1-1.167.565A1.276,1.276,0,0,1,202.765,379.021Z" transform="translate(-199.164 -338.506)" fill="#263238"/>
                    </g>
                </g>
                <g id="Сгруппировать_1083" data-name="Сгруппировать 1083" transform="translate(0 395.687)">
                    <g id="Сгруппировать_1051" data-name="Сгруппировать 1051" transform="translate(160.75 11.641)">
                        <g id="Сгруппировать_1049" data-name="Сгруппировать 1049">
                            <circle id="Эллипс_1209" data-name="Эллипс 1209" cx="22.484" cy="22.484" r="22.484" fill="#aeaeae"/>
                        </g>
                        <g id="Сгруппировать_1050" data-name="Сгруппировать 1050" transform="translate(14.777 14.777)">
                            <circle id="Эллипс_1210" data-name="Эллипс 1210" cx="7.707" cy="7.707" r="7.707" fill="#24272d"/>
                        </g>
                    </g>
                    <g id="Сгруппировать_1054" data-name="Сгруппировать 1054" transform="translate(86.889 12.235)">
                        <g id="Сгруппировать_1052" data-name="Сгруппировать 1052">
                            <circle id="Эллипс_1211" data-name="Эллипс 1211" cx="22.484" cy="22.484" r="22.484" fill="#aeaeae"/>
                        </g>
                        <g id="Сгруппировать_1053" data-name="Сгруппировать 1053" transform="translate(14.777 14.777)">
                            <circle id="Эллипс_1212" data-name="Эллипс 1212" cx="7.707" cy="7.707" r="7.707" fill="#24272d"/>
                        </g>
                    </g>
                    <g id="Сгруппировать_1057" data-name="Сгруппировать 1057" transform="translate(12.45 12.235)">
                        <g id="Сгруппировать_1055" data-name="Сгруппировать 1055">
                            <path id="Контур_19354" data-name="Контур 19354" d="M22.484,0A22.484,22.484,0,1,1,0,22.484,22.484,22.484,0,0,1,22.484,0Z" fill="#aeaeae"/>
                        </g>
                        <g id="Сгруппировать_1056" data-name="Сгруппировать 1056" transform="translate(14.777 14.777)">
                            <circle id="Эллипс_1214" data-name="Эллипс 1214" cx="7.707" cy="7.707" r="7.707" fill="#24272d"/>
                        </g>
                    </g>
                    <g id="Сгруппировать_1058" data-name="Сгруппировать 1058">
                        <path id="Контур_19324" data-name="Контур 19324" d="M51.99,431.421A34.164,34.164,0,0,1,86.114,397.3H235.735a34.125,34.125,0,1,1,0,68.251H86.114A34.164,34.164,0,0,1,51.99,431.421Zm34.124-22.939a22.939,22.939,0,0,0,0,45.877H235.735a22.939,22.939,0,1,0,0-45.877Z" transform="translate(-51.99 -397.296)" fill="#d1e92a"/>
                    </g>
                    <g id="Сгруппировать_1071" data-name="Сгруппировать 1071" transform="translate(2.703 0.22)">
                        <g id="Сгруппировать_1064" data-name="Сгруппировать 1064">
                            <g id="Сгруппировать_1059" data-name="Сгруппировать 1059" transform="translate(106.489)">
                                <path id="Контур_19325" data-name="Контур 19325" d="M146.665,408.432a83.171,83.171,0,0,1,0-10.946,83.185,83.185,0,0,1,0,10.946Z" transform="translate(-146.485 -397.486)" fill="#455a64"/>
                            </g>
                            <g id="Сгруппировать_1060" data-name="Сгруппировать 1060" transform="translate(78.444)">
                                <path id="Контур_19326" data-name="Контур 19326" d="M122.4,408.432a83.178,83.178,0,0,1,0-10.946,83.178,83.178,0,0,1,0,10.946Z" transform="translate(-122.215 -397.486)" fill="#455a64"/>
                            </g>
                            <g id="Сгруппировать_1061" data-name="Сгруппировать 1061" transform="translate(50.399)">
                                <path id="Контур_19327" data-name="Контур 19327" d="M98.125,408.432a83.181,83.181,0,0,1,0-10.946,83.178,83.178,0,0,1,0,10.946Z" transform="translate(-97.945 -397.486)" fill="#455a64"/>
                            </g>
                            <g id="Сгруппировать_1062" data-name="Сгруппировать 1062" transform="translate(21.336 1.541)">
                                <path id="Контур_19328" data-name="Контур 19328" d="M75.982,409.294A83.1,83.1,0,0,1,72.8,398.82,41.55,41.55,0,0,1,74.565,404,41.879,41.879,0,0,1,75.982,409.294Z" transform="translate(-72.794 -398.82)" fill="#455a64"/>
                            </g>
                            <g id="Сгруппировать_1063" data-name="Сгруппировать 1063" transform="translate(0 21.08)">
                                <path id="Контур_19329" data-name="Контур 19329" d="M64.076,420.714a41.553,41.553,0,0,1-4.955-2.328,41.463,41.463,0,0,1-4.791-2.652,41.9,41.9,0,0,1,4.955,2.33A41.905,41.905,0,0,1,64.076,420.714Z" transform="translate(-54.329 -415.729)" fill="#455a64"/>
                            </g>
                        </g>
                        <g id="Сгруппировать_1070" data-name="Сгруппировать 1070" transform="translate(0.609 43.348)">
                            <g id="Сгруппировать_1065" data-name="Сгруппировать 1065" transform="translate(107.26 13.978)">
                                <path id="Контур_19330" data-name="Контур 19330" d="M147.86,447.1a83.153,83.153,0,0,1,0,10.945,82.637,82.637,0,0,1,0-10.945Z" transform="translate(-147.679 -447.096)" fill="#455a64"/>
                            </g>
                            <g id="Сгруппировать_1066" data-name="Сгруппировать 1066" transform="translate(79.215 13.635)">
                                <path id="Контур_19331" data-name="Контур 19331" d="M123.589,446.8a82.637,82.637,0,0,1,0,10.945,83.16,83.16,0,0,1,0-10.945Z" transform="translate(-123.409 -446.799)" fill="#455a64"/>
                            </g>
                            <g id="Сгруппировать_1067" data-name="Сгруппировать 1067" transform="translate(51.17 13.635)">
                                <path id="Контур_19332" data-name="Контур 19332" d="M99.319,446.8a82.63,82.63,0,0,1,0,10.945,83.164,83.164,0,0,1,0-10.945Z" transform="translate(-99.139 -446.799)" fill="#455a64"/>
                            </g>
                            <g id="Сгруппировать_1068" data-name="Сгруппировать 1068" transform="translate(22.108 12.909)">
                                <path id="Контур_19333" data-name="Контур 19333" d="M77.176,446.171a41.465,41.465,0,0,1-1.417,5.289A41.756,41.756,0,0,1,74,456.645a82.69,82.69,0,0,1,3.178-10.474Z" transform="translate(-73.989 -446.171)" fill="#455a64"/>
                            </g>
                            <g id="Сгруппировать_1069" data-name="Сгруппировать 1069">
                                <path id="Контур_19334" data-name="Контур 19334" d="M64.6,435a41.609,41.609,0,0,1-4.791,2.651,41.41,41.41,0,0,1-4.956,2.33,41.993,41.993,0,0,1,4.792-2.651A41.677,41.677,0,0,1,64.6,435Z" transform="translate(-54.856 -434.999)" fill="#455a64"/>
                            </g>
                        </g>
                    </g>
                    <g id="Сгруппировать_1082" data-name="Сгруппировать 1082" transform="translate(134.59 0.563)">
                        <g id="Сгруппировать_1076" data-name="Сгруппировать 1076" transform="translate(1.381 41.857)">
                            <g id="Сгруппировать_1072" data-name="Сгруппировать 1072" transform="translate(0 15.126)">
                                <path id="Контур_19335" data-name="Контур 19335" d="M169.839,447.1a83.167,83.167,0,0,1,0,10.945,83.16,83.16,0,0,1,0-10.945Z" transform="translate(-169.659 -447.096)" fill="#455a64"/>
                            </g>
                            <g id="Сгруппировать_1073" data-name="Сгруппировать 1073" transform="translate(28.045 15.126)">
                                <path id="Контур_19336" data-name="Контур 19336" d="M194.109,447.1a83.167,83.167,0,0,1,0,10.945,83.16,83.16,0,0,1,0-10.945Z" transform="translate(-193.929 -447.096)" fill="#455a64"/>
                            </g>
                            <g id="Сгруппировать_1074" data-name="Сгруппировать 1074" transform="translate(54.271 14.056)">
                                <path id="Контур_19337" data-name="Контур 19337" d="M216.634,446.171a82.947,82.947,0,0,1,3.179,10.474,83.1,83.1,0,0,1-3.179-10.474Z" transform="translate(-216.625 -446.171)" fill="#455a64"/>
                            </g>
                            <g id="Сгруппировать_1075" data-name="Сгруппировать 1075" transform="translate(69.056)">
                                <path id="Контур_19338" data-name="Контур 19338" d="M229.421,434.012a41.55,41.55,0,0,1,4.956,2.33,41.6,41.6,0,0,1,4.791,2.651,83.244,83.244,0,0,1-9.747-4.98Z" transform="translate(-229.42 -434.006)" fill="#455a64"/>
                            </g>
                        </g>
                        <g id="Сгруппировать_1081" data-name="Сгруппировать 1081">
                            <g id="Сгруппировать_1077" data-name="Сгруппировать 1077">
                                <path id="Контур_19339" data-name="Контур 19339" d="M168.644,408.728a83.167,83.167,0,0,1,0-10.945,82.637,82.637,0,0,1,0,10.945Z" transform="translate(-168.464 -397.783)" fill="#455a64"/>
                            </g>
                            <g id="Сгруппировать_1078" data-name="Сгруппировать 1078" transform="translate(28.045)">
                                <path id="Контур_19340" data-name="Контур 19340" d="M192.914,408.728a83.16,83.16,0,0,1,0-10.945,82.637,82.637,0,0,1,0,10.945Z" transform="translate(-192.734 -397.783)" fill="#455a64"/>
                            </g>
                            <g id="Сгруппировать_1079" data-name="Сгруппировать 1079" transform="translate(54.272 1.198)">
                                <path id="Контур_19341" data-name="Контур 19341" d="M215.44,409.294a82.843,82.843,0,0,1,3.178-10.474,83.347,83.347,0,0,1-3.178,10.474Z" transform="translate(-215.431 -398.82)" fill="#455a64"/>
                            </g>
                            <g id="Сгруппировать_1080" data-name="Сгруппировать 1080" transform="translate(69.828 19.589)">
                                <path id="Контур_19342" data-name="Контур 19342" d="M228.894,419.721a83.013,83.013,0,0,1,9.747-4.98,41.57,41.57,0,0,1-4.792,2.651A41.452,41.452,0,0,1,228.894,419.721Z" transform="translate(-228.893 -414.735)" fill="#455a64"/>
                            </g>
                        </g>
                    </g>
                </g>
                <g id="Сгруппировать_1090" data-name="Сгруппировать 1090" transform="translate(33.469)">
                    <g id="Сгруппировать_1084" data-name="Сгруппировать 1084" transform="translate(102.85)">
                        <path id="Контур_19343" data-name="Контур 19343" d="M169.961,183.576s.092-.153.3-.43l.919-1.221c.82-1.065,2.018-2.644,3.534-4.7,3.023-4.109,7.352-10.1,12.214-17.817a283.759,283.759,0,0,0,15.58-27.972c2.635-5.423,5.213-11.2,7.717-17.269,2.526-6.057,5.066-12.372,8.038-18.684A108.7,108.7,0,0,1,228.4,77.834a67.069,67.069,0,0,1,13.112-13.688,46.238,46.238,0,0,1,15.22-7.867,35.434,35.434,0,0,1,14.873-1.071,34.575,34.575,0,0,1,11.708,3.824,29.767,29.767,0,0,1,7.388,5.654,26.426,26.426,0,0,1,3.437,4.777c.295.581.525,1.034.692,1.366.154.31.217.474.217.474s-.1-.147-.272-.446l-.743-1.333a28,28,0,0,0-3.5-4.676,29.993,29.993,0,0,0-7.377-5.519,34.474,34.474,0,0,0-11.606-3.7,35.1,35.1,0,0,0-14.675,1.128,45.921,45.921,0,0,0-15.022,7.828A66.839,66.839,0,0,0,228.879,78.18,108.9,108.9,0,0,0,218.8,95.743c-2.963,6.291-5.5,12.6-8.038,18.655-2.513,6.069-5.109,11.859-7.762,17.285a275.94,275.94,0,0,1-15.721,27.958c-4.916,7.7-9.3,13.66-12.385,17.729-1.546,2.033-2.774,3.588-3.625,4.629l-.966,1.186C170.086,183.45,169.961,183.576,169.961,183.576Z" transform="translate(-169.961 -54.869)" fill="#263238"/>
                    </g>
                    <path id="Контур_19344" data-name="Контур 19344" d="M249.655,108.846l-74.4,61.024,14.4,13.7,73.521-56.956Z" transform="translate(-66.288 -46.473)" fill="#fafafa"/>
                    <path id="Контур_19345" data-name="Контур 19345" d="M155.367,228.512l52.139-43.2-27.578-31.938-60.433,48.174Z" transform="translate(-74.96 -39.548)" fill="#00a7ce"/>
                    <path id="Контур_19346" data-name="Контур 19346" d="M125.386,225.291,92.113,251.921l-11.158-13.5,31.879-26.081Z" transform="translate(-80.954 -30.376)" fill="#fafafa"/>
                    <g id="Сгруппировать_1085" data-name="Сгруппировать 1085" transform="translate(247.511 36.37)">
                        <rect id="Прямоугольник_1445" data-name="Прямоугольник 1445" width="21.415" height="25.517" transform="translate(0 12.011) rotate(-34.116)" fill="#fafafa"/>
                        <g transform="matrix(1, 0, 0, 1, -280.98, -36.37)" filter="url(#Контур_19347)">
                            <path id="Контур_19347-2" data-name="Контур 19347" d="M324.981,102.678l31.925.454,17.711,26.143-8.631,27.2L358.3,154.56l3.988-17.987-13.135-15.791-16.176.9-11.03,7.644-6.964,14.5,12.472,18.41,14.888,3.135-.16,7.172-24.54-2.154-18.876-27.863,8.48-27.827L326.7,101.513" transform="translate(-13.61 -47.61)" fill="#d1e92a"/>
                        </g>
                    </g>
                    <g id="Сгруппировать_1086" data-name="Сгруппировать 1086" transform="translate(21.861 144.748)">
                        <circle id="Эллипс_1215" data-name="Эллипс 1215" cx="24.804" cy="24.804" r="24.804" transform="translate(3.187 32.733) rotate(-26.061)" opacity="0.4"/>
                        <circle id="Эллипс_1216" data-name="Эллипс 1216" cx="25.517" cy="25.517" r="25.517" transform="translate(0 45.708) rotate(-63.59)" fill="#263238"/>
                        <path id="Контур_19348" data-name="Контур 19348" d="M121.583,214.133a9.7,9.7,0,1,0,6.1-12.29A9.7,9.7,0,0,0,121.583,214.133Z" transform="translate(-96.575 -176.836)" fill="#aeaeae"/>
                    </g>
                    <g id="Сгруппировать_1087" data-name="Сгруппировать 1087" transform="translate(73.539 120.002)">
                        <path id="Контур_19349" data-name="Контур 19349" d="M168.275,158.718a6.781,6.781,0,0,1,.491,1.175c.311.86.714,1.977,1.209,3.344,1.027,2.969,2.427,7.013,4.059,11.73l.062.179-.149.124-7.941,6.622c-5.86,4.866-11.187,9.244-15.061,12.39l-4.608,3.7-1.272.982a2.024,2.024,0,0,1-.469.312c-.014-.016.121-.155.392-.4.327-.291.722-.645,1.2-1.07l4.486-3.849c3.805-3.23,9.088-7.66,14.948-12.526l7.97-6.588-.087.3c-1.55-4.746-2.877-8.813-3.853-11.8-.433-1.388-.787-2.523-1.058-3.395A6.752,6.752,0,0,1,168.275,158.718Z" transform="translate(-144.595 -158.718)" fill="#263238"/>
                    </g>
                    <path id="Контур_19350" data-name="Контур 19350" d="M286.86,65.943l-53.743,42.412,23.972,33.609,56.1-43.751Z" transform="translate(-57.288 -53.146)" fill="#00a7ce"/>
                    <g id="Сгруппировать_1088" data-name="Сгруппировать 1088" transform="translate(215.966 6.672)">
                        <circle id="Эллипс_1217" data-name="Эллипс 1217" cx="20.374" cy="20.374" r="20.374" transform="translate(0 46.537) rotate(-86.894)" opacity="0.4"/>
                        <path id="Контур_19351" data-name="Контур 19351" d="M281.53,65.351a21.8,21.8,0,1,0,30.626,3.563A21.8,21.8,0,0,0,281.53,65.351Z" transform="translate(-267.009 -60.643)" fill="#263238"/>
                        <path id="Контур_19352" data-name="Контур 19352" d="M288.1,74.126a8.29,8.29,0,1,0,11.645,1.354A8.29,8.29,0,0,0,288.1,74.126Z" transform="translate(-265.191 -58.824)" fill="#aeaeae"/>
                    </g>
                    <g id="Сгруппировать_1089" data-name="Сгруппировать 1089" transform="translate(188.375 48.415)">
                        <path id="Контур_19353" data-name="Контур 19353" d="M290.515,109.783a9.673,9.673,0,0,1-1.337-.868l-3.606-2.563-12.328-8.987.355-.008-6.471,5.295c-6.342,5.174-12.1,9.831-16.293,13.18-2.05,1.621-3.735,2.954-4.98,3.94l-1.374,1.047a2.262,2.262,0,0,1-.5.334,2.327,2.327,0,0,1,.429-.428l1.3-1.136,4.859-4.088c4.121-3.432,9.841-8.142,16.182-13.315l6.486-5.276.176-.143.178.135,12.2,9.158,3.506,2.7A9.833,9.833,0,0,1,290.515,109.783Z" transform="translate(-243.974 -96.767)" fill="#263238"/>
                    </g>
                </g>
            </g>
        </g>
        <g id="Gears" transform="translate(957 212)">
            <g id="Сгруппировать_959" data-name="Сгруппировать 959">
                <g id="Сгруппировать_952" data-name="Сгруппировать 952">
                    <path id="Контур_19241" data-name="Контур 19241" d="M294.4,213.317a18.078,18.078,0,0,1,2.746-3.96l-1.529-4.2,6.216-4,3.189,3.129a18.107,18.107,0,0,1,4.742-.861l1.887-4.048,7.225,1.566.042,4.466a18.08,18.08,0,0,1,3.96,2.747l4.2-1.529,4,6.216-3.13,3.189a18.148,18.148,0,0,1,.861,4.742l4.048,1.887-1.565,7.225-4.467.042a18.071,18.071,0,0,1-2.747,3.96l1.529,4.2-6.216,4-3.189-3.13a18.1,18.1,0,0,1-4.742.861l-1.887,4.049-7.225-1.566-.042-4.466a18.14,18.14,0,0,1-3.96-2.747l-4.2,1.529-4-6.216,3.13-3.19a18.093,18.093,0,0,1-.861-4.741l-4.049-1.887,1.566-7.225,4.467-.042Zm8.534,6.3a7.93,7.93,0,1,0,9.43-6.071A7.929,7.929,0,0,0,302.93,219.614Z" fill="#fafafa" fill-rule="evenodd"/>
                </g>
                <g id="Сгруппировать_953" data-name="Сгруппировать 953">
                    <path id="Контур_19242" data-name="Контур 19242" d="M282.7,180.406a8.778,8.778,0,0,1,1.333-1.922l-.742-2.039,3.017-1.942,1.548,1.519a8.821,8.821,0,0,1,2.3-.418l.916-1.965,3.507.761.02,2.167a8.788,8.788,0,0,1,1.923,1.334l2.038-.742,1.942,3.017-1.519,1.548a8.812,8.812,0,0,1,.418,2.3l1.965.916-.76,3.507-2.168.02a8.79,8.79,0,0,1-1.333,1.922l.742,2.038-3.017,1.943-1.549-1.52a8.731,8.731,0,0,1-2.3.418l-.916,1.965-3.507-.76-.02-2.167a8.782,8.782,0,0,1-1.922-1.334l-2.038.742-1.943-3.017,1.52-1.548a8.731,8.731,0,0,1-.418-2.3l-1.965-.916.76-3.507,2.168-.02Zm4.142,3.056a3.849,3.849,0,1,0,4.577-2.946A3.851,3.851,0,0,0,286.84,183.462Z" fill="#ef4864" fill-rule="evenodd"/>
                </g>
                <g id="Сгруппировать_957" data-name="Сгруппировать 957">
                    <g id="Сгруппировать_956" data-name="Сгруппировать 956">
                        <path id="Контур_19243" data-name="Контур 19243" d="M256.334,204.034a11.265,11.265,0,0,1,1.707-2.462l-.951-2.61,3.865-2.488,1.983,1.945a11.269,11.269,0,0,1,2.948-.535l1.173-2.517,4.491.974.026,2.776a11.28,11.28,0,0,1,2.462,1.708l2.611-.95,2.487,3.864-1.945,1.983a11.285,11.285,0,0,1,.535,2.948l2.517,1.173-.974,4.492-2.776.026a11.236,11.236,0,0,1-1.708,2.462l.951,2.61-3.865,2.488-1.983-1.946a11.269,11.269,0,0,1-2.948.535l-1.173,2.517-4.491-.973-.026-2.777a11.212,11.212,0,0,1-2.462-1.708l-2.611.951-2.487-3.865,1.945-1.983a11.269,11.269,0,0,1-.535-2.947l-2.517-1.173.974-4.492,2.777-.026Zm5.3,3.915a4.93,4.93,0,1,0,5.862-3.774A4.931,4.931,0,0,0,261.639,207.949Z" fill="none"/>
                        <g id="Сгруппировать_954" data-name="Сгруппировать 954">
                            <path id="Контур_19244" data-name="Контур 19244" d="M261.639,207.949c-.018,0-.007-.112.032-.318a3.675,3.675,0,0,1,.283-.871,4.906,4.906,0,0,1,2.34-2.395,5.1,5.1,0,0,1,4.913.255,5.153,5.153,0,0,1-2.057,9.492,5.1,5.1,0,0,1-4.578-1.8,4.91,4.91,0,0,1-1.139-3.15,3.758,3.758,0,0,1,.1-.91c.051-.2.085-.306.1-.3.05.009-.051.438,0,1.206a4.919,4.919,0,0,0,1.216,2.917,4.706,4.706,0,1,0,1.6-7.374,4.922,4.922,0,0,0-2.315,2.152C261.774,207.529,261.688,207.962,261.639,207.949Z" fill="#263238"/>
                        </g>
                        <g id="Сгруппировать_955" data-name="Сгруппировать 955">
                            <path id="Контур_19245" data-name="Контур 19245" d="M256.334,204.034a4.856,4.856,0,0,1-.691.046l-2.086.063.081-.065c-.24,1.168-.551,2.68-.926,4.5l-.073-.147,2.526,1.154.083.038.005.094a11.214,11.214,0,0,0,.545,2.9l.032.1-.072.075-1.936,1.993.024-.23,2.5,3.854-.243-.082,2.607-.96.122-.045.1.088a11.058,11.058,0,0,0,2.419,1.667l.121.061v.137c.011.861.022,1.81.034,2.776l-.183-.224,4.494.963-.271.134c.364-.784.763-1.646,1.168-2.518l.063-.136.15-.007a11.1,11.1,0,0,0,2.882-.528l.144-.047.11.107,1.985,1.944-.317-.033,3.862-2.491-.1.306c-.3-.824-.625-1.713-.951-2.609l-.054-.148.106-.117a11.019,11.019,0,0,0,1.667-2.4v0c.459-.283.128-.078.23-.142h.172l.174,0,.349,0,.7-.007,1.384-.012-.252.205q.495-2.277.976-4.491l.143.288-2.516-1.176-.141-.065-.006-.155a11.067,11.067,0,0,0-.52-2.881l-.047-.146.107-.109,1.948-1.98-.031.308-2.481-3.868.284.1-2.613.945-.133.048-.1-.1a11.077,11.077,0,0,0-2.407-1.68l-.122-.063v-.136c-.006-.951-.012-1.874-.017-2.776l.17.21-4.487-.991.222-.11-1.184,2.511-.049.1-.112.005a11.142,11.142,0,0,0-2.9.511l-.1.032-.072-.072-1.971-1.958.191.019-3.884,2.457.046-.138.92,2.621.017.048-.034.038a15.019,15.019,0,0,0-1.769,2.4.755.755,0,0,1,.066-.174c.052-.112.134-.28.257-.5a10.514,10.514,0,0,1,1.322-1.846l-.017.085-.981-2.6-.033-.087.079-.052,3.845-2.518.1-.067.089.086,1.994,1.933-.172-.04a11.419,11.419,0,0,1,2.992-.559l-.161.107c.37-.8.754-1.635,1.162-2.522l.066-.144.157.034,4.495.956.169.036,0,.174c.011.9.023,1.824.035,2.776l-.123-.2a11.463,11.463,0,0,1,2.517,1.736l-.237-.047,2.608-.956.179-.066.1.161q1.218,1.883,2.495,3.86l.108.166-.139.142-1.943,1.985.06-.254a11.511,11.511,0,0,1,.55,3.014l-.147-.22,2.518,1.171.186.087-.043.2-.971,4.492-.044.2-.208,0-1.384.013-.7.007-.349,0H276.5l.229-.142,0,0A11.532,11.532,0,0,1,274.977,217l.052-.264.95,2.61.07.2-.173.112-3.867,2.484-.171.111-.146-.143c-.683-.673-1.36-1.338-1.98-1.948l.254.06a11.524,11.524,0,0,1-3.014.542l.213-.142-1.178,2.514-.082.176-.189-.041-4.489-.984-.182-.04,0-.184c-.006-.967-.012-1.916-.018-2.777l.122.2a11.477,11.477,0,0,1-2.5-1.749l.218.043-2.613.941-.155.056-.088-.137-2.471-3.875-.081-.126.1-.105,1.956-1.972-.04.172a11.355,11.355,0,0,1-.525-2.993l.088.131c-.9-.428-1.747-.83-2.508-1.192l-.1-.046.023-.1,1.021-4.481.015-.066h.066l2.052.025.536.015A.834.834,0,0,1,256.334,204.034Z" fill="#263238"/>
                        </g>
                    </g>
                </g>
            </g>
        </g>
        <g id="Platform" transform="translate(957 212)">
            <g id="Сгруппировать_971" data-name="Сгруппировать 971">
                <g id="Сгруппировать_964" data-name="Сгруппировать 964">
                    <g id="Сгруппировать_961" data-name="Сгруппировать 961">
                        <path id="Контур_19247" data-name="Контур 19247" d="M476.44,205.785c-1.792-20.137-8.806-40.271-22.47-55.17s-34.508-23.842-54.444-20.485S361.948,150.53,360.6,170.7c-.713,10.706,2.861,21.34,2.267,32.054-1.026,18.516-14.286,34.184-29.153,45.269-12.81,9.551-26.611,12.976-35.8,26.05-16.466,23.434-13.725,50.441-3.992,66.594,3.346,5.552,8.826,10.769,15.4,15.224,18.872,12.8,42.479,16.1,64.573,10.463,34.3-8.746,65.252-30.38,83.091-58.448C477.714,275.3,479.385,238.862,476.44,205.785Z" fill="#e8505b"/>
                        <g id="Сгруппировать_960" data-name="Сгруппировать 960" opacity="0.8">
                            <path id="Контур_19248" data-name="Контур 19248" d="M476.44,205.785c-1.792-20.137-8.806-40.271-22.47-55.17s-34.508-23.842-54.444-20.485S361.948,150.53,360.6,170.7c-.713,10.706,2.861,21.34,2.267,32.054-1.026,18.516-14.286,34.184-29.153,45.269-12.81,9.551-26.611,12.976-35.8,26.05-16.466,23.434-13.725,50.441-3.992,66.594,3.346,5.552,8.826,10.769,15.4,15.224,18.872,12.8,42.479,16.1,64.573,10.463,34.3-8.746,65.252-30.38,83.091-58.448C477.714,275.3,479.385,238.862,476.44,205.785Z" fill="#00a7ce"/>
                        </g>
                    </g>
                    <circle id="Эллипс_1192" data-name="Эллипс 1192" cx="1.421" cy="1.421" r="1.421" transform="translate(330.73 346.525)" fill="#ef4864"/>
                    <circle id="Эллипс_1193" data-name="Эллипс 1193" cx="0.753" cy="0.753" r="0.753" transform="translate(353.999 371.596)" fill="#ef4864"/>
                    <g id="Сгруппировать_963" data-name="Сгруппировать 963" transform="translate(3 -3)">
                        <path id="Контур_19249" data-name="Контур 19249" d="M404.206,376.724c-5.116,2.1-10.972,9.435-11.387,15.2s2.634,11.508,7.285,14.945a23.568,23.568,0,0,0,16.457,4.065c4.106-.445,8.275-1.909,11.061-4.959,3.076-3.37,4.05-8.251,3.6-12.791a21.449,21.449,0,0,0-9.153-15.759c-5.255-3.44-12.471-3.93-17.861-.7" fill="#e8505b"/>
                        <g id="Сгруппировать_962" data-name="Сгруппировать 962" transform="translate(55 -32)" opacity="0.8">
                            <path id="Контур_19250" data-name="Контур 19250" d="M404.206,376.724c-5.116,2.1-10.972,9.435-11.387,15.2s2.634,11.508,7.285,14.945a23.568,23.568,0,0,0,16.457,4.065c4.106-.445,8.275-1.909,11.061-4.959,3.076-3.37,4.05-8.251,3.6-12.791a21.449,21.449,0,0,0-9.153-15.759c-5.255-3.44-12.471-3.93-17.861-.7" fill="#2e95b7"/>
                        </g>
                    </g>
                    <path id="Контур_19251" data-name="Контур 19251" d="M444.023,265.925a2.563,2.563,0,1,1-2.562-2.563A2.562,2.562,0,0,1,444.023,265.925Z" fill="#e8505b" fill-rule="evenodd"/>
                    <circle id="Эллипс_1194" data-name="Эллипс 1194" cx="1.421" cy="1.421" r="1.421" transform="translate(401.497 168.301)" fill="#ef4864"/>
                </g>
                <g id="Сгруппировать_970" data-name="Сгруппировать 970">
                    <path id="Контур_19252" data-name="Контур 19252" d="M437.332,430.277c0,1.67-24.737,3.024-55.252,3.024s-55.252-1.354-55.252-3.024,24.737-3.024,55.252-3.024S437.332,428.607,437.332,430.277Z" fill="#fafafa"/>
                    <path id="Контур_19253" data-name="Контур 19253" d="M298.3,456.561l12.621-26.031H450.133l16.59,25.967s-168.422,1.752-168.422.064" fill="#d1e92a"/>
                    <g id="Сгруппировать_965" data-name="Сгруппировать 965">
                        <path id="Контур_19254" data-name="Контур 19254" d="M384.765,456.988c-.116,0-.21-5.053-.21-11.285s.094-11.285.21-11.285.21,5.052.21,11.285S384.881,456.988,384.765,456.988Z" fill="#455a64"/>
                    </g>
                    <g id="Сгруппировать_966" data-name="Сгруппировать 966">
                        <path id="Контур_19255" data-name="Контур 19255" d="M455.512,440.773a3.032,3.032,0,0,1-.532.084l-1.543.176-5.77.589-19.813,1.89.154-.1-4.146,6.692-.059.1-.114,0-1.63.034-26.37.485-7.992.1-2.174.006-.565-.009a.671.671,0,0,1-.193-.017.638.638,0,0,1,.192-.026l.564-.032,2.172-.085,7.99-.232,26.367-.608,1.63-.034-.174.1,4.158-6.685.053-.086.1-.009,19.827-1.743,5.78-.47,1.55-.109A3.119,3.119,0,0,1,455.512,440.773Z" fill="#455a64"/>
                    </g>
                    <g id="Сгруппировать_967" data-name="Сгруппировать 967">
                        <path id="Контур_19256" data-name="Контур 19256" d="M442.932,441.926a56,56,0,0,1-1.488-9.565,56.008,56.008,0,0,1,1.488,9.565Z" fill="#455a64"/>
                    </g>
                    <g id="Сгруппировать_968" data-name="Сгруппировать 968">
                        <path id="Контур_19257" data-name="Контур 19257" d="M331.338,457.3a1.645,1.645,0,0,1-.219-.416l-.523-1.2-1.778-4.331.15.1-9.544-.716c-4.854-.378-9.245-.738-12.422-1.015l-3.759-.344a11.414,11.414,0,0,1-1.373-.17,11.066,11.066,0,0,1,1.389.044l3.773.242c3.184.218,7.58.541,12.434.919l9.537.768.119.01.032.086,1.637,4.365c.173.492.315.9.43,1.224A1.486,1.486,0,0,1,331.338,457.3Z" fill="#455a64"/>
                    </g>
                    <g id="Сгруппировать_969" data-name="Сгруппировать 969">
                        <path id="Контур_19258" data-name="Контур 19258" d="M384.765,440.773a.562.562,0,0,1-.164.019l-.483.019-1.865.035-6.927.062-23.468.071.073-.013-6.371,2.4-3.455,1.3-.048.018-.051-.006L316.6,441.527l-7.577-.983-2.046-.285-.53-.084a.611.611,0,0,1-.178-.042.626.626,0,0,1,.183,0l.534.045,2.055.211,7.593.855,25.426,3.011-.1.012,3.454-1.3,6.374-2.391.035-.013h.037l23.468.071,6.927.062,1.865.036.483.019A.52.52,0,0,1,384.765,440.773Z" fill="#455a64"/>
                    </g>
                </g>
            </g>
            <g id="Сгруппировать_972" data-name="Сгруппировать 972">
                <rect id="Прямоугольник_1439" data-name="Прямоугольник 1439" width="32.056" height="4.389" transform="translate(456.453 230.315)" fill="#ef4864"/>
                <rect id="Прямоугольник_1440" data-name="Прямоугольник 1440" width="13.871" height="4.389" transform="translate(456.453 238.263)" fill="#ef4864"/>
            </g>
        </g>
        <g id="Robot_2" data-name="Robot 2" transform="translate(957 212)">
            <g id="Сгруппировать_1039" data-name="Сгруппировать 1039">
                <g id="Сгруппировать_1028" data-name="Сгруппировать 1028">
                    <path id="Контур_19297" data-name="Контур 19297" d="M386.26,244.9s-45.99-1.488-45.99,22.968c0,27.73,9.14,79.689,45.99,79.151s43.616-73.4,44.03-76.645C430.29,270.376,432.213,247.027,386.26,244.9Z" fill="#ef4864"/>
                    <g id="Сгруппировать_1025" data-name="Сгруппировать 1025">
                        <path id="Контур_19298" data-name="Контур 19298" d="M429.186,264.063a.818.818,0,0,1-.189.148l-.583.392c-.511.346-1.29.819-2.309,1.4a55.4,55.4,0,0,1-9.07,4.038,74.506,74.506,0,0,1-14.344,3.331,127.6,127.6,0,0,1-18,.994,166.87,166.87,0,0,1-18.011-.908,49.406,49.406,0,0,1-14.234-3.734,32.149,32.149,0,0,1-8.362-5.338,24.572,24.572,0,0,1-1.9-1.918l-.454-.536a.851.851,0,0,1-.141-.2c.007-.006.068.048.181.159l.49.5c.43.44,1.081,1.073,1.961,1.837a33.415,33.415,0,0,0,8.378,5.154,50.038,50.038,0,0,0,14.144,3.593,173.437,173.437,0,0,0,17.955.864,131.473,131.473,0,0,0,17.935-.949,76.474,76.474,0,0,0,14.288-3.2,59.67,59.67,0,0,0,9.092-3.867c1.03-.552,1.823-1,2.351-1.311l.609-.348A.836.836,0,0,1,429.186,264.063Z" fill="#263238"/>
                    </g>
                    <g id="Сгруппировать_1026" data-name="Сгруппировать 1026">
                        <path id="Контур_19299" data-name="Контур 19299" d="M401.39,273.3a3.446,3.446,0,0,1,.066.686c.027.45.047,1.115.044,1.972a33.957,33.957,0,0,1-.763,7.221,25.136,25.136,0,0,1-1.569,4.782,20.008,20.008,0,0,1-3.029,4.928,18.236,18.236,0,0,1-4.91,4.1,17.086,17.086,0,0,1-3.127,1.347,14.456,14.456,0,0,1-3.464.585,12.96,12.96,0,0,1-6.671-1.623,16.592,16.592,0,0,1-4.881-4.139,21.308,21.308,0,0,1-4.253-9.856,35.973,35.973,0,0,1-.458-7.246c.026-.857.072-1.521.112-1.97a3.38,3.38,0,0,1,.088-.683,3.414,3.414,0,0,1,.016.689c0,.5-.008,1.155-.014,1.966a39.578,39.578,0,0,0,.618,7.177,21.249,21.249,0,0,0,4.263,9.62,16.246,16.246,0,0,0,4.753,3.994,12.508,12.508,0,0,0,6.409,1.55,14.042,14.042,0,0,0,3.332-.559,16.753,16.753,0,0,0,3.027-1.3,17.888,17.888,0,0,0,4.794-3.967,19.821,19.821,0,0,0,3-4.794,25.326,25.326,0,0,0,1.6-4.688,37.107,37.107,0,0,0,.919-7.142c.022-.811.04-1.464.054-1.966A3.42,3.42,0,0,1,401.39,273.3Z" fill="#263238"/>
                    </g>
                    <g id="Сгруппировать_1027" data-name="Сгруппировать 1027">
                        <path id="Контур_19300" data-name="Контур 19300" d="M412.331,329.784c-.057.02-.356-.983-1.141-2.693a30.151,30.151,0,0,0-4.252-6.686,29.509,29.509,0,0,0-9.148-7.261,28.85,28.85,0,0,0-27.556,1.043,29.516,29.516,0,0,0-8.573,7.932,30.187,30.187,0,0,0-3.735,6.989c-.652,1.764-.875,2.787-.934,2.771a4.23,4.23,0,0,1,.147-.744,21.767,21.767,0,0,1,.6-2.1,28.562,28.562,0,0,1,3.625-7.134,29.386,29.386,0,0,1,8.625-8.129,29.033,29.033,0,0,1,28.022-1.061,29.376,29.376,0,0,1,9.214,7.453,28.593,28.593,0,0,1,4.155,6.84,21.735,21.735,0,0,1,.753,2.044A4.069,4.069,0,0,1,412.331,329.784Z" fill="#263238"/>
                    </g>
                    <path id="Контур_19301" data-name="Контур 19301" d="M405.181,305.463l2.115-9.509h18.587c-.658,2.817-1.588,6.1-2.639,9.606Z" fill="#fafafa"/>
                    <path id="Контур_19302" data-name="Контур 19302" d="M363.625,305.463l-2.115-9.509H342.923c.659,2.817,1.217,6.1,2.269,9.606Z" fill="#fafafa"/>
                    <path id="Контур_19303" data-name="Контур 19303" d="M427.865,261.737c-4.444-7.258-16.217-15.661-41.6-16.835,0,0-28.45-.92-40.6,10.585a26.69,26.69,0,0,0-3.108,3.844c-.738,1.374,9.5,13.662,42.375,12.606C418.847,270.848,427.865,261.737,427.865,261.737Z" opacity="0.4"/>
                </g>
                <g id="Сгруппировать_1038" data-name="Сгруппировать 1038">
                    <g id="Сгруппировать_1030" data-name="Сгруппировать 1030">
                        <path id="Контур_19304" data-name="Контур 19304" d="M339.473,218.36c-1.632-3.65-2.419-7.833-1.311-11.674s4.412-7.187,8.4-7.539" fill="#263238"/>
                        <g id="Сгруппировать_1029" data-name="Сгруппировать 1029">
                            <path id="Контур_19305" data-name="Контур 19305" d="M345.231,199.38c.048.067-.669.613-1.622,1.7a20.19,20.19,0,0,0-3.1,4.666,44.627,44.627,0,0,0-1.935,5.315,17.753,17.753,0,0,1-.663,2.265,7.721,7.721,0,0,1,.306-2.356,30.505,30.505,0,0,1,1.819-5.44,16.955,16.955,0,0,1,3.308-4.7A5.865,5.865,0,0,1,345.231,199.38Z" fill="#ef4864"/>
                        </g>
                    </g>
                    <g id="Сгруппировать_1032" data-name="Сгруппировать 1032">
                        <path id="Контур_19306" data-name="Контур 19306" d="M431.418,218.36c1.633-3.65,2.42-7.833,1.312-11.674s-4.413-7.187-8.4-7.539" fill="#263238"/>
                        <g id="Сгруппировать_1031" data-name="Сгруппировать 1031">
                            <path id="Контур_19307" data-name="Контур 19307" d="M425.661,199.38a5.856,5.856,0,0,1,1.889,1.448,16.935,16.935,0,0,1,3.309,4.7,30.505,30.505,0,0,1,1.819,5.44,7.7,7.7,0,0,1,.3,2.356,17.667,17.667,0,0,1-.662-2.265,44.667,44.667,0,0,0-1.936-5.315,20.128,20.128,0,0,0-3.1-4.666C426.33,199.993,425.612,199.447,425.661,199.38Z" fill="#ef4864"/>
                        </g>
                    </g>
                    <path id="Контур_19308" data-name="Контур 19308" d="M343.156,236.481a19.36,19.36,0,0,1-5.131-17.406c2.652-13.4,12.4-37.517,48.235-37.009,37.592.534,44.646,26.553,45.861,39.088a19.537,19.537,0,0,1-4.379,14.36c-5.593,6.75-17.465,15.464-41.482,15.455C362.467,250.96,349.68,243.06,343.156,236.481Z" fill="#ef4864"/>
                    <g id="Сгруппировать_1033" data-name="Сгруппировать 1033">
                        <path id="Контур_19309" data-name="Контур 19309" d="M369.514,183.653a1.777,1.777,0,0,1,.21.449l.515,1.316c.449,1.14,1.077,2.8,2.061,4.752a20.763,20.763,0,0,0,4.491,6.112,12.041,12.041,0,0,0,8.365,3.367,14.038,14.038,0,0,0,8.419-3.454,21.775,21.775,0,0,0,4.745-5.926,44.262,44.262,0,0,0,2.252-4.66,16.086,16.086,0,0,1,.769-1.746,1.775,1.775,0,0,1-.121.481c-.1.309-.248.761-.459,1.339a36.282,36.282,0,0,1-2.119,4.764,21.45,21.45,0,0,1-4.756,6.114,14.351,14.351,0,0,1-8.716,3.608,11.055,11.055,0,0,1-4.861-.977,14.246,14.246,0,0,1-3.841-2.555,20.528,20.528,0,0,1-4.5-6.3,41.181,41.181,0,0,1-1.922-4.846c-.193-.583-.333-1.04-.423-1.351A1.8,1.8,0,0,1,369.514,183.653Z" fill="#263238"/>
                    </g>
                    <path id="Контур_19310" data-name="Контур 19310" d="M410.015,234.965c-17.443,4.266-34.468,4.426-51.046.186a14.109,14.109,0,0,1-10.55-13.693v-.242a14.156,14.156,0,0,1,14.157-14.156h44.045a14.156,14.156,0,0,1,14.157,14.156h0A14.147,14.147,0,0,1,410.015,234.965Z" fill="#263238"/>
                    <g id="Сгруппировать_1034" data-name="Сгруппировать 1034">
                        <path id="Контур_19311" data-name="Контур 19311" d="M371.577,223.939a3.21,3.21,0,1,1-2.662-3.678A3.209,3.209,0,0,1,371.577,223.939Z" fill="#fff"/>
                    </g>
                    <g id="Сгруппировать_1035" data-name="Сгруппировать 1035">
                        <path id="Контур_19312" data-name="Контур 19312" d="M408.358,222.079A3.211,3.211,0,1,1,405.7,218.4,3.211,3.211,0,0,1,408.358,222.079Z" fill="#fff"/>
                    </g>
                    <g id="Сгруппировать_1037" data-name="Сгруппировать 1037">
                        <g id="Сгруппировать_1036" data-name="Сгруппировать 1036">
                            <path id="Контур_19313" data-name="Контур 19313" d="M394.237,222.489a4.426,4.426,0,0,1-.477,2.785,6.707,6.707,0,0,1-1.885,2.457,6.3,6.3,0,0,1-3.473,1.359,6.127,6.127,0,0,1-3.6-.834,6.4,6.4,0,0,1-2.153-2.157,4.343,4.343,0,0,1-.793-2.691,13.846,13.846,0,0,0,1.168,2.426,6.393,6.393,0,0,0,2.069,1.89,5.831,5.831,0,0,0,3.271.706,5.981,5.981,0,0,0,3.16-1.184,6.719,6.719,0,0,0,1.834-2.178A14.326,14.326,0,0,0,394.237,222.489Z" fill="#fff"/>
                        </g>
                    </g>
                </g>
            </g>
        </g>
    </g>
</svg>
