<svg xmlns="http://www.w3.org/2000/svg" width="52.455" height="52.455" viewBox="0 0 52.455 52.455">
  <g id="high" transform="translate(0)">
    <path id="Контур_18752" data-name="Контур 18752" d="M13.474,31.114H3.639A1.64,1.64,0,0,1,2,29.474V19.639A1.64,1.64,0,0,1,3.639,18h9.835a1.64,1.64,0,0,1,1.639,1.639v9.835A1.64,1.64,0,0,1,13.474,31.114Z" transform="translate(2.371 21.341)" fill="#00a6ce"/>
    <path id="Контур_18753" data-name="Контур 18753" d="M21.474,37.042H11.639A1.64,1.64,0,0,1,10,35.4V14.639A1.64,1.64,0,0,1,11.639,13h9.835a1.64,1.64,0,0,1,1.639,1.639V35.4A1.64,1.64,0,0,1,21.474,37.042Z" transform="translate(11.856 15.413)" fill="#00a6ce"/>
    <path id="Контур_18754" data-name="Контур 18754" d="M29.474,42.97H19.639A1.64,1.64,0,0,1,18,41.331V9.639A1.64,1.64,0,0,1,19.639,8h9.835a1.64,1.64,0,0,1,1.639,1.639V41.331A1.64,1.64,0,0,1,29.474,42.97Z" transform="translate(21.341 9.485)" fill="#00a6ce"/>
    <path id="Контур_18755" data-name="Контур 18755" d="M31.528.322A1.132,1.132,0,0,0,30.735,0C24.556.116,17.348,3.722,12.771,8.961c-4.953.177-9.083,1.67-11.66,4.247a1.093,1.093,0,0,0,.518,1.836l4.653,1.115-.028.031a1.093,1.093,0,0,0,.039,1.5l7.862,7.862a1.1,1.1,0,0,0,1.5.039l.031-.028L16.8,30.218a1.091,1.091,0,0,0,.767.8,1.061,1.061,0,0,0,.3.042,1.1,1.1,0,0,0,.774-.319c2.579-2.579,4.07-6.71,4.247-11.662,5.245-4.592,8.845-11.791,8.961-17.964a1.107,1.107,0,0,0-.321-.791Z" transform="translate(0.937 0)" fill="#ef4864"/>
    <path id="Контур_18756" data-name="Контур 18756" d="M3.751,11.068C2.284,12.534.407,18.626.046,19.832a1.09,1.09,0,0,0,1.047,1.405,1.119,1.119,0,0,0,.315-.046c1.206-.361,7.3-2.236,8.764-3.7a4.54,4.54,0,1,0-6.421-6.419Z" transform="translate(0 11.547)" fill="#ef4864"/>
  </g>
</svg>
