<svg xmlns="http://www.w3.org/2000/svg" xmlns:xlink="http://www.w3.org/1999/xlink" width="321.922" height="358" viewBox="0 0 321.922 358">
  <defs>
    <style>
      .cls-1 {
        fill: #00a7cf;
      }

      .cls-2 {
        filter: url(#Контур_56);
      }

      .cls-3 {
        filter: url(#Контур_55);
      }
    </style>
    <filter id="Контур_55" x="88.618" y="315.549" width="144.758" height="42.451" filterUnits="userSpaceOnUse">
      <feOffset dx="3" dy="3" input="SourceAlpha"/>
      <feGaussianBlur stdDeviation="1" result="blur"/>
      <feFlood flood-opacity="0.29"/>
      <feComposite operator="in" in2="blur"/>
      <feComposite in="SourceGraphic"/>
    </filter>
    <filter id="Контур_56" x="0" y="73.141" width="321.922" height="236.078" filterUnits="userSpaceOnUse">
      <feOffset dx="3" dy="4" input="SourceAlpha"/>
      <feGaussianBlur stdDeviation="2.5" result="blur-2"/>
      <feFlood flood-opacity="0.361"/>
      <feComposite operator="in" in2="blur-2"/>
      <feComposite in="SourceGraphic"/>
    </filter>
  </defs>
  <g id="Сгруппировать_73" data-name="Сгруппировать 73" transform="translate(4.5)">
    <rect id="Прямоугольник_131" data-name="Прямоугольник 131" class="cls-1" width="291.967" height="47.81" transform="translate(8.412 243.438)"/>
    <g class="cls-3" transform="matrix(1, 0, 0, 1, -4.5, 0)">
      <path id="Контур_55-2" data-name="Контур 55" d="M217.729,438.9a6.566,6.566,0,0,0-6.542,6.543v16.824H154.892a6.542,6.542,0,1,0,0,13.085H280.566a6.542,6.542,0,1,0,0-13.085H224.272V445.443A6.52,6.52,0,0,0,217.729,438.9Z" transform="translate(-59.73 -123.35)"/>
    </g>
    <g class="cls-2" transform="matrix(1, 0, 0, 1, -4.5, 0)">
      <path id="Контур_56-2" data-name="Контур 56" d="M47.1,327.678H322.526a15.741,15.741,0,0,0,15.745-15.745V122.345A15.741,15.741,0,0,0,322.526,106.6H245.455a6.542,6.542,0,0,0,0,13.085h77.072a2.731,2.731,0,0,1,2.732,2.732v189.66a2.731,2.731,0,0,1-2.732,2.732H47.1a2.731,2.731,0,0,1-2.732-2.732V280.515h259.83a6.542,6.542,0,1,0,0-13.085H271.337a39.18,39.18,0,0,0-38.68-33.5,6.542,6.542,0,1,0,0,13.085,26.131,26.131,0,0,1,25.451,20.418H228.343a44.7,44.7,0,0,0-38.536-38.608V183.456a6.542,6.542,0,1,0-13.085,0V229.11a44.78,44.78,0,0,0-36.882,38.32H109.932a26.131,26.131,0,0,1,25.451-20.418,6.542,6.542,0,1,0,0-13.085,39.18,39.18,0,0,0-38.68,33.5H41.056a6.709,6.709,0,0,0-3.163-.863,6.566,6.566,0,0,0-6.542,6.543v38.9A15.819,15.819,0,0,0,47.1,327.678ZM184.2,241.4a31.64,31.64,0,0,1,31.059,25.954H153.213A31.449,31.449,0,0,1,184.2,241.4Z" transform="translate(-26.85 -29.96)"/>
    </g>
    <path id="Контур_57" data-name="Контур 57" d="M37.892,253.139a6.566,6.566,0,0,0,6.542-6.542V122.217a2.731,2.731,0,0,1,2.732-2.732h77.288a6.542,6.542,0,0,0,0-13.085H47.1A15.741,15.741,0,0,0,31.35,122.145V246.524A6.582,6.582,0,0,0,37.892,253.139Z" transform="translate(-31.35 -29.903)"/>
    <circle id="Эллипс_8" data-name="Эллипс 8" cx="7.549" cy="7.549" r="7.549" transform="translate(145.373 260.908)"/>
    <path id="Контур_58" data-name="Контур 58" d="M163.75,163.706a6.566,6.566,0,0,0,6.543,6.542h13.373v15.1a6.542,6.542,0,1,0,13.085,0v-15.1h.863a6.542,6.542,0,1,0,0-13.085h-20.85V149.9a11.674,11.674,0,0,1,2.157-6.83l11.791-16.9a23.923,23.923,0,0,0,4.314-13.732V55.863a22.4,22.4,0,0,1,5.392-14.523l21.209-24.8,21.281,24.732a22.415,22.415,0,0,1,5.464,14.595V112.8a24.155,24.155,0,0,0,3.738,12.869l11,17.327a11.865,11.865,0,0,1,1.869,6.4v7.693H245.208a6.53,6.53,0,0,0-.791,13.013v15.17a6.542,6.542,0,0,0,13.085,0v-15.1h13.948a6.566,6.566,0,0,0,6.542-6.542V149.4a25.188,25.188,0,0,0-3.882-13.373l-11-17.327a10.838,10.838,0,0,1-1.725-5.9V55.935a35.645,35.645,0,0,0-8.627-23.15L226.443,2.229A6.438,6.438,0,0,0,221.482,0a6.617,6.617,0,0,0-4.961,2.3l-26.1,30.556a35.511,35.511,0,0,0-8.484,23.007v56.654A10.739,10.739,0,0,1,180,118.771l-11.791,16.9a24.787,24.787,0,0,0-4.458,14.307v13.732Z" transform="translate(-68.56 0)"/>
  </g>
</svg>
