<svg id="search" xmlns="http://www.w3.org/2000/svg" width="88.603" height="88.604" viewBox="0 0 88.603 88.604">
    <ellipse id="Эллипс_1226" data-name="Эллипс 1226" cx="19.06" cy="19.06" rx="19.06" ry="19.06" transform="translate(16.21 16.21)" fill="#fff"/>
    <path id="Контур_19405" data-name="Контур 19405" d="M10.321,10.318a35.288,35.288,0,0,1,51.674,48l6.766,6.768,4.446-4.446,12.8,12.8A8.883,8.883,0,0,1,73.446,86l-12.8-12.8,4.446-4.446-6.768-6.766a35.288,35.288,0,0,1-48-51.674ZM35.274,59.524A24.253,24.253,0,1,0,11.02,35.271,24.281,24.281,0,0,0,35.274,59.524Z" transform="translate(-0.003)" fill="#fff"/>
</svg>
