<svg xmlns="http://www.w3.org/2000/svg" width="92.076" height="96.934" viewBox="0 0 92.076 96.934">
    <g id="sell" transform="translate(-5 -3.954)">
        <path id="Контур_262" data-name="Контур 262" d="M36.729,18H16.69a1.67,1.67,0,0,0-1.67,1.67v12.9L6.428,46.89A10.02,10.02,0,0,0,5,52.042V63.256A54.516,54.516,0,0,0,6.627,76.473L6.67,91.478h3.34V76.448a1.643,1.643,0,0,0-.05-.4l-.092-.369A51.248,51.248,0,0,1,8.34,63.256V52.042a6.68,6.68,0,0,1,.952-3.437l5.728-9.547V53.069A1.67,1.67,0,0,0,17.87,54.25l9.185-9.185a1.837,1.837,0,0,1,.99-.481h.015A1.85,1.85,0,0,1,29.7,47.717l-7.515,7.515a1.67,1.67,0,0,0,.434,2.672,10.354,10.354,0,0,1,5.756,9.313,9.185,9.185,0,0,1-.965,4.086l-2.2,4.4a1.67,1.67,0,0,0-.175.746v15.03h3.34V76.843L30.4,72.8a12.538,12.538,0,0,0,1.318-5.579,13.674,13.674,0,0,0-3.477-9.138h8.487a1.67,1.67,0,0,0,1.67-1.67V19.67A1.67,1.67,0,0,0,36.729,18Zm-1.67,4.546a3.365,3.365,0,0,1-1.206-1.206h1.206ZM19.565,21.34a3.365,3.365,0,0,1-1.206,1.206V21.34Zm7.979,19.919c-.12.018-.237.043-.356.072a3.34,3.34,0,1,1,.356-.072Zm4.509,8.816a5.209,5.209,0,0,0,0-7.371c-.109-.109-.235-.189-.351-.287a6.68,6.68,0,1,0-8.191,1.458L18.36,49.038V26.113a6.68,6.68,0,0,0,4.773-4.773h7.154a6.68,6.68,0,0,0,4.773,4.773V49.966a6.68,6.68,0,0,0-4.773,4.773H27.4Zm1.8,4.664a3.365,3.365,0,0,1,1.206-1.206v1.206Z" transform="translate(0 9.41)" fill="#fff"/>
        <path id="Контур_263" data-name="Контур 263" d="M80.052,18.95,80,3.954h-3.34V18.93a1.554,1.554,0,0,0,.05.4l.1.421a51.582,51.582,0,0,1,1.516,12.414V43.332a6.75,6.75,0,0,1-.949,3.447l-5.731,9.629V42.415a1.67,1.67,0,0,0-2.856-1.169l-9.23,9.293a1.8,1.8,0,0,1-2.639-.082,1.865,1.865,0,0,1,0-2.618l7.555-7.615a1.67,1.67,0,0,0-.434-2.672,10.477,10.477,0,0,1-5.761-9.445,9.173,9.173,0,0,1,.95-4.058l2.216-4.465a1.67,1.67,0,0,0,.167-.741V3.954h-3.34v14.5L57.159,20.73H29.67A1.67,1.67,0,0,0,28,22.4V64.149c0,.028.015.052.017.078a1.58,1.58,0,0,0,.089.441c.017.052.022.107.043.157a1.67,1.67,0,0,0,.334.5c.028.03.068.045.1.073a1.7,1.7,0,0,0,.342.25l1.1.549a2.381,2.381,0,0,1,0,4.262l-1.1.549a1.67,1.67,0,0,0,.746,3.158h35.9a5.845,5.845,0,0,0,5.845-5.845v-5L80.25,48.487a10.092,10.092,0,0,0,1.418-5.155V32.168a54.923,54.923,0,0,0-1.614-13.214ZM61.4,53.328V55.8H38.02V45.78h16.3A5.205,5.205,0,0,0,61.4,53.328ZM31.34,24.07H55.633a12.6,12.6,0,0,0-.643,3.34H36.35v3.34H55.22a13.882,13.882,0,0,0,1.07,3.34H36.35v3.34H58.5a13.761,13.761,0,0,0,2.129,1.939L57.58,42.44H36.35a1.67,1.67,0,0,0-1.67,1.67v13.36a1.67,1.67,0,0,0,1.67,1.67H63.069a1.67,1.67,0,0,0,1.67-1.67v-7.4l3.34-3.367V63.044c-.035-.017-.077-.023-.112-.04a5.888,5.888,0,0,0-.758-.262c-.132-.04-.257-.094-.392-.122a5.747,5.747,0,0,0-1.242-.14H31.34ZM65.574,70.829H34.109a5.778,5.778,0,0,0,0-5.01H65.574a2.5,2.5,0,1,1,0,5.01Z" transform="translate(15.409 0)" fill="#fff"/>
    </g>
</svg>
