<svg xmlns="http://www.w3.org/2000/svg" width="40.531" height="48.158" viewBox="0 0 40.531 48.158">
    <g id="shield" transform="translate(-33.908)">
        <g id="Сгруппировать_645" data-name="Сгруппировать 645" transform="translate(33.908 0)">
            <path id="Контур_18512" data-name="Контур 18512" d="M74.387,12.4c-.058-1.267-.058-2.476-.058-3.686A1.7,1.7,0,0,0,72.6,6.983c-7.2,0-12.669-2.073-17.219-6.507a1.777,1.777,0,0,0-2.419,0c-4.549,4.434-10.02,6.507-17.219,6.507A1.7,1.7,0,0,0,34.018,8.71c0,1.209,0,2.419-.058,3.686-.23,12.094-.576,28.679,19.638,35.647l.576.115.576-.115C74.906,41.075,74.618,24.547,74.387,12.4Zm-21.6,16.758a1.859,1.859,0,0,1-1.209.461h-.058a1.621,1.621,0,0,1-1.209-.576L44.96,23.107l2.591-2.3,4.2,4.665L61.084,16.6l2.361,2.534Z" transform="translate(-33.908 0)" fill="#fff"/>
        </g>
    </g>
</svg>
