<svg id="skill-development" xmlns="http://www.w3.org/2000/svg" width="52.91" height="52.91" viewBox="0 0 52.91 52.91">
  <path id="Контур_18757" data-name="Контур 18757" d="M21.8,269.005v-4.754a6.2,6.2,0,1,1,0-12.4V247.2H13.14l.737-2.071a3.034,3.034,0,0,0,.177-1.029,3.1,3.1,0,0,0-6.2,0,3.034,3.034,0,0,0,.177,1.029l.737,2.071H0A23.592,23.592,0,0,0,21.8,269.005Z" transform="translate(0 -216.095)" fill="#00a6ce"/>
  <path id="Контур_18758" data-name="Контур 18758" d="M10.954,77.182a6.206,6.206,0,0,1,6.2,6.2H21.8V74.718l2.071.737a3.1,3.1,0,1,0,0-5.846l-2.071.737V61.76A23.42,23.42,0,0,0,0,83.383H4.754A6.206,6.206,0,0,1,10.954,77.182Z" transform="translate(0 -55.378)" fill="#00a6ce"/>
  <path id="Контур_18759" data-name="Контур 18759" d="M208.823,301h-4.572a6.2,6.2,0,1,1-12.4,0H187.2v8.665l-2.071-.737a3.1,3.1,0,1,0,0,5.846l2.071-.737V322.8A23.42,23.42,0,0,0,208.823,301Z" transform="translate(-162.295 -269.895)" fill="#00a6ce"/>
  <path id="Контур_18760" data-name="Контур 18760" d="M262.7,12.5V6.3h-6.2a6.2,6.2,0,1,0-12.4,0H241v4.65a6.2,6.2,0,0,1,0,12.4v4.65h8.665l-.737,2.071a3.034,3.034,0,0,0-.177,1.029,3.1,3.1,0,1,0,6.2,0,3.034,3.034,0,0,0-.177-1.029l-.737-2.071H262.7V24.9a6.3,6.3,0,0,0,6.3-6.2A6.3,6.3,0,0,0,262.7,12.5Z" transform="translate(-216.095)" fill="#ef4864"/>
</svg>
