<svg id="Сгруппировать_3188" data-name="Сгруппировать 3188" xmlns="http://www.w3.org/2000/svg" width="272.4" height="288.105" viewBox="0 0 272.4 288.105">
  <g id="Icons" transform="translate(0)">
    <path id="Контур_20432" data-name="Контур 20432" d="M107.588,290.1a46.312,46.312,0,0,1-46.147-42.2,46.2,46.2,0,0,1-33.648-72.869A38.369,38.369,0,0,1,37.6,102.164a37.583,37.583,0,0,1-3.469-15.906,38.525,38.525,0,0,1,27.5-36.9,36.9,36.9,0,0,1-1.062-8.741A38.311,38.311,0,0,1,72.241,12.978,38.031,38.031,0,0,1,100.172,2.014a39.509,39.509,0,0,1,37.5,39.92V265.94a23.047,23.047,0,0,1-16.3,22.1,46.365,46.365,0,0,1-13.791,2.058ZM99.168,10.245A30.2,30.2,0,0,0,70.693,50.98a4.115,4.115,0,0,1-3.165,5.428,30.335,30.335,0,0,0-25.166,29.85A29.014,29.014,0,0,0,47.754,103.3a4.115,4.115,0,0,1-3.342,6.515,30.714,30.714,0,0,0-30.973,30.376,30.3,30.3,0,0,0,22.224,28.989A4.115,4.115,0,0,1,37.6,175.9a38.513,38.513,0,0,0-10.194,25.8A38.093,38.093,0,0,0,65.372,239.84a4.115,4.115,0,0,1,4.115,4.115,38.142,38.142,0,0,0,49.427,36.216,14.849,14.849,0,0,0,10.531-14.231V41.934A31.216,31.216,0,0,0,99.962,10.245Z" transform="translate(-5.213 -1.995)" fill="#24272d"/>
  </g>
  <g id="Icons-2" data-name="Icons" transform="translate(139.934 0.003)">
    <path id="Контур_20432-2" data-name="Контур 20432" d="M35.3,290.1a46.312,46.312,0,0,0,46.147-42.2A46.2,46.2,0,0,0,115.1,175.033a38.369,38.369,0,0,0-9.811-72.869,37.582,37.582,0,0,0,3.469-15.906,38.525,38.525,0,0,0-27.5-36.9,36.9,36.9,0,0,0,1.062-8.741A38.311,38.311,0,0,0,70.652,12.978,38.031,38.031,0,0,0,42.72,2.014a39.509,39.509,0,0,0-37.5,39.92V265.94a23.047,23.047,0,0,0,16.3,22.1A46.369,46.369,0,0,0,35.3,290.1Zm8.42-279.853A30.2,30.2,0,0,1,72.2,50.98a4.115,4.115,0,0,0,3.165,5.428,30.335,30.335,0,0,1,25.166,29.85A29.014,29.014,0,0,1,95.139,103.3a4.115,4.115,0,0,0,3.342,6.515,30.714,30.714,0,0,1,30.973,30.376,30.3,30.3,0,0,1-22.224,28.989,4.115,4.115,0,0,0-1.943,6.725,38.513,38.513,0,0,1,10.194,25.8A38.093,38.093,0,0,1,77.521,239.84a4.115,4.115,0,0,0-4.115,4.115,38.142,38.142,0,0,1-49.427,36.216A14.849,14.849,0,0,1,13.447,265.94V41.934A31.216,31.216,0,0,1,42.93,10.245Z" transform="translate(-5.213 -1.995)" fill="#24272d"/>
  </g>
  <ellipse id="Эллипс_1327" data-name="Эллипс 1327" cx="22.5" cy="22" rx="22.5" ry="22" transform="translate(71.999 17.566)" fill="#24272d"/>
  <ellipse id="Эллипс_1339" data-name="Эллипс 1339" cx="22.898" cy="22.898" rx="22.898" ry="22.898" transform="translate(155.364 16.181)" fill="#ef4864"/>
  <ellipse id="Эллипс_1328" data-name="Эллипс 1328" cx="29" cy="28" rx="29" ry="28" transform="translate(41.999 60.566)" fill="#d1e92a"/>
  <ellipse id="Эллипс_1337" data-name="Эллипс 1337" cx="27.987" cy="27.987" rx="27.987" ry="27.987" transform="translate(173.174 59.435)" fill="#00a7cf"/>
  <ellipse id="Эллипс_1329" data-name="Эллипс 1329" cx="25" cy="26" rx="25" ry="26" transform="translate(16.999 111.566)" fill="#ef4864"/>
  <ellipse id="Эллипс_1336" data-name="Эллипс 1336" cx="25.443" cy="25.443" rx="25.443" ry="25.443" transform="translate(206.25 112.864)" fill="#24272d"/>
  <circle id="Эллипс_1330" data-name="Эллипс 1330" cx="29" cy="29" r="29" transform="translate(27.999 171.566)" fill="#00a7cf"/>
  <ellipse id="Эллипс_1340" data-name="Эллипс 1340" cx="29.259" cy="29.259" rx="29.259" ry="29.259" transform="translate(185.895 171.383)" fill="#d1e92a"/>
  <ellipse id="Эллипс_1331" data-name="Эллипс 1331" cx="24.5" cy="23.5" rx="24.5" ry="23.5" transform="translate(72.999 224.566)" fill="#ef4864"/>
  <ellipse id="Эллипс_1344" data-name="Эллипс 1344" cx="24.17" cy="24.17" rx="24.17" ry="24.17" transform="translate(150.276 224.811)" fill="#24272d"/>
  <circle id="Эллипс_1332" data-name="Эллипс 1332" cx="27.5" cy="27.5" r="27.5" transform="translate(66.999 122.566)" fill="#24272d"/>
  <ellipse id="Эллипс_1338" data-name="Эллипс 1338" cx="26.715" cy="26.715" rx="26.715" ry="26.715" transform="translate(150.276 123.039)" fill="#ef4864"/>
  <ellipse id="Эллипс_1333" data-name="Эллипс 1333" cx="12" cy="12.5" rx="12" ry="12.5" transform="translate(97.999 96.566)" fill="#00a7cf"/>
  <ellipse id="Эллипс_1342" data-name="Эллипс 1342" cx="12.721" cy="12.721" rx="12.721" ry="12.721" transform="translate(150.276 95.053)" fill="#d1e92a"/>
  <ellipse id="Эллипс_1335" data-name="Эллипс 1335" cx="16" cy="17.5" rx="16" ry="17.5" transform="translate(89.999 185.566)" fill="#d1e92a"/>
  <circle id="Эллипс_1341" data-name="Эллипс 1341" cx="16.538" cy="16.538" r="16.538" transform="translate(150.276 186.651)" fill="#00a7cf"/>
  <ellipse id="Эллипс_1334" data-name="Эллипс 1334" cx="9.5" cy="10.5" rx="9.5" ry="10.5" transform="translate(99.999 61.566)" fill="#ef4864"/>
  <circle id="Эллипс_1343" data-name="Эллипс 1343" cx="10.177" cy="10.177" r="10.177" transform="translate(152.82 61.979)" fill="#24272d"/>
</svg>
