<svg xmlns="http://www.w3.org/2000/svg" xmlns:xlink="http://www.w3.org/1999/xlink" width="592.874" height="412.005" viewBox="0 0 592.874 412.005">
  <defs>
    <filter id="Кубок_Сократа_" x="194.762" y="105.067" width="242" height="114" filterUnits="userSpaceOnUse">
      <feOffset dy="3" input="SourceAlpha"/>
      <feGaussianBlur stdDeviation="3" result="blur"/>
      <feFlood flood-opacity="0.161"/>
      <feComposite operator="in" in2="blur"/>
      <feComposite in="SourceGraphic"/>
    </filter>
  </defs>
  <g id="Сгруппировать_3157" data-name="Сгруппировать 3157" transform="translate(-1079.238 -153.933)">
    <g id="Сгруппировать_692" data-name="Сгруппировать 692" transform="translate(1041 105)">
      <g id="Сгруппировать_676" data-name="Сгруппировать 676">
        <g id="Сгруппировать_675" data-name="Сгруппировать 675">
          <path id="Контур_18535" data-name="Контур 18535" d="M284.6,70.715h-4.842V67.862H284.6V62.8h2.964v5.065h4.841v2.853h-4.841V75.78H284.6Z" fill="#fff"/>
        </g>
      </g>
      <g id="Сгруппировать_678" data-name="Сгруппировать 678">
        <g id="Сгруппировать_677" data-name="Сгруппировать 677">
          <path id="Контур_18536" data-name="Контур 18536" d="M425.275,68.751h-4.842V65.9h4.842V60.833h2.963V65.9h4.842v2.854h-4.842v5.064h-2.963Z" fill="#fff"/>
        </g>
      </g>
      <g id="Сгруппировать_683" data-name="Сгруппировать 683">
        <g id="Сгруппировать_680" data-name="Сгруппировать 680">
          <g id="Сгруппировать_679" data-name="Сгруппировать 679">
            <path id="Контур_18537" data-name="Контур 18537" d="M76.837,100.678H72V97.824h4.842V92.76H79.8v5.064h4.842v2.854H79.8v5.064H76.837Z" fill="#fff"/>
          </g>
        </g>
        <g id="Сгруппировать_682" data-name="Сгруппировать 682">
          <g id="Сгруппировать_681" data-name="Сгруппировать 681">
            <path id="Контур_18538" data-name="Контур 18538" d="M154.213,89.483h-4.841V86.629h4.841V81.565h2.964v5.064h4.842v2.854h-4.842v5.064h-2.964Z" fill="#fff"/>
          </g>
        </g>
        <path id="Контур_18539" data-name="Контур 18539" d="M192.945,72.126a6.837,6.837,0,1,1,6.837-6.837A6.845,6.845,0,0,1,192.945,72.126Zm0-11.213a4.376,4.376,0,1,0,4.376,4.376A4.381,4.381,0,0,0,192.945,60.913Z" fill="#fff"/>
        <path id="Контур_18540" data-name="Контур 18540" d="M114.278,78.649a6.837,6.837,0,1,1,6.836-6.837A6.845,6.845,0,0,1,114.278,78.649Zm0-11.212a4.376,4.376,0,1,0,4.375,4.375A4.381,4.381,0,0,0,114.278,67.437Z" fill="#fff"/>
        <path id="Контур_18541" data-name="Контур 18541" d="M57.384,75.176a6.837,6.837,0,1,1,6.837-6.837A6.845,6.845,0,0,1,57.384,75.176Zm0-11.212a4.375,4.375,0,1,0,4.375,4.375A4.381,4.381,0,0,0,57.384,63.964Z" fill="#fff"/>
      </g>
      <g id="Сгруппировать_686" data-name="Сгруппировать 686">
        <g id="Сгруппировать_685" data-name="Сгруппировать 685">
          <g id="Сгруппировать_684" data-name="Сгруппировать 684">
            <path id="Контур_18542" data-name="Контур 18542" d="M77.753,337.5l-4.813.522-.308-2.838,4.814-.521-.546-5.035,2.946-.32.546,5.035,4.813-.522.308,2.837-4.813.522.545,5.035-2.946.32Z" fill="#fff"/>
          </g>
        </g>
        <path id="Контур_18543" data-name="Контур 18543" d="M52.666,380.476a6.837,6.837,0,1,1,6.059-7.534A6.845,6.845,0,0,1,52.666,380.476Zm-1.209-11.147a4.375,4.375,0,1,0,4.822,3.878A4.381,4.381,0,0,0,51.457,369.329Z" fill="#fff"/>
        <path id="Контур_18544" data-name="Контур 18544" d="M69.3,300.76a6.837,6.837,0,1,1,6.06-7.534A6.844,6.844,0,0,1,69.3,300.76Zm-1.208-11.147a4.375,4.375,0,1,0,4.821,3.879A4.381,4.381,0,0,0,68.091,289.613Z" fill="#fff"/>
      </g>
      <g id="Сгруппировать_691" data-name="Сгруппировать 691">
        <g id="Сгруппировать_688" data-name="Сгруппировать 688" transform="translate(-61 295)">
          <g id="Сгруппировать_687" data-name="Сгруппировать 687">
            <path id="Контур_18545" data-name="Контур 18545" d="M595.754,72.675h-4.842V69.821h4.842V64.756h2.963v5.065h4.842v2.854h-4.842v5.064h-2.963Z" fill="#fff"/>
          </g>
        </g>
        <g id="Сгруппировать_690" data-name="Сгруппировать 690" transform="translate(-329 -85)">
          <g id="Сгруппировать_689" data-name="Сгруппировать 689">
            <path id="Контур_18546" data-name="Контур 18546" d="M681.124,184.218h-4.842v-2.854h4.842V176.3h2.964v5.064h4.841v2.854h-4.841v5.064h-2.964Z" fill="#fff"/>
          </g>
        </g>
        <path id="Контур_18547" data-name="Контур 18547" d="M680.7,85.466a6.837,6.837,0,1,1,6.837-6.837A6.845,6.845,0,0,1,680.7,85.466Zm0-11.212a4.375,4.375,0,1,0,4.375,4.375A4.381,4.381,0,0,0,680.7,74.254Z" transform="translate(-206 287)" fill="#fff"/>
        <path id="Контур_18548" data-name="Контур 18548" d="M579.159,166.456A6.836,6.836,0,1,1,586,159.619,6.845,6.845,0,0,1,579.159,166.456Zm0-11.212a4.375,4.375,0,1,0,4.375,4.375A4.381,4.381,0,0,0,579.159,155.244Z" transform="translate(-71 231)" fill="#fff"/>
      </g>
    </g>
    <g id="Сгруппировать_709" data-name="Сгруппировать 709" transform="translate(1041 105)">
      <g id="Сгруппировать_708" data-name="Сгруппировать 708">
        <g id="Сгруппировать_700" data-name="Сгруппировать 700">
          <g id="Сгруппировать_699" data-name="Сгруппировать 699">
            <path id="Контур_18565" data-name="Контур 18565" d="M133.06,347.94l-.468-4.308c4.777-.519,10.935-5.194,14.019-10.641,1.505-2.659,2.931-6.626,1.177-10.426-.93-2.015-2.06-3.144-3.359-3.354-2.537-.416-5.778,2.347-6.715,3.345l-3.16-2.966c.532-.566,5.345-5.5,10.569-4.657,2.808.455,5.029,2.412,6.6,5.816,1.97,4.266,1.493,9.371-1.34,14.376C146.623,341.767,139.176,347.276,133.06,347.94Z" fill="#c94769"/>
            <g id="Сгруппировать_698" data-name="Сгруппировать 698">
              <path id="Контур_18566" data-name="Контур 18566" d="M133.35,360.819l-30.939-.35-7.749-59.081h46.612Z" fill="#c94769"/>
              <path id="Контур_18567" data-name="Контур 18567" d="M99.217,301.388l8.162,59.134,9.1.115-3.225-59.251Z" fill="#d85b82"/>
            </g>
          </g>
          <path id="Контур_18568" data-name="Контур 18568" d="M131.056,301.463l10.218-.075-7.924,59.43-6.988-.136Z" fill="#c13d65"/>
        </g>
        <g id="Сгруппировать_707" data-name="Сгруппировать 707">
          <g id="Сгруппировать_703" data-name="Сгруппировать 703">
            <g id="Сгруппировать_701" data-name="Сгруппировать 701">
              <path id="Контур_18569" data-name="Контур 18569" d="M238.867,398.04a16.644,16.644,0,0,1-9.216-15.173h0a16.642,16.642,0,0,1,9.216-15.173v-5.883H101.393a16.32,16.32,0,0,0-16.512,16.12V387.3a16.319,16.319,0,0,0,16.512,16.119H238.867Z" fill="#bc3756"/>
              <path id="Контур_18570" data-name="Контур 18570" d="M238.867,398.04a16.644,16.644,0,0,1-9.216-15.173h0a16.642,16.642,0,0,1,9.216-15.173v-5.883H166.213A21.064,21.064,0,0,0,144.9,382.617h0a21.063,21.063,0,0,0,21.312,20.8h72.654Z" fill="#c10020"/>
              <path id="Контур_18571" data-name="Контур 18571" d="M238.867,398.04a16.644,16.644,0,0,1-9.216-15.173h0a16.642,16.642,0,0,1,9.216-15.173V366.31H169.6a16.762,16.762,0,0,0-16.96,16.557h0a16.762,16.762,0,0,0,16.96,16.557h69.266Z" fill="#fefefe"/>
            </g>
            <path id="Контур_18572" data-name="Контур 18572" d="M97.416,364.924s-5.857,3.434-6.758,7.782-.282,6.25-.282,6.25l50.688.2s.337-10.3,8.9-15.044Z" fill="#cc4669"/>
            <g id="Сгруппировать_702" data-name="Сгруппировать 702">
              <path id="Контур_18573" data-name="Контур 18573" d="M169.11,373.06l63.76-.293-1.021,1.742Z" fill="#cfd5e5"/>
              <path id="Контур_18574" data-name="Контур 18574" d="M156.495,383.2l73.44-1.007-.028,1.125Z" fill="#cfd5e5"/>
              <path id="Контур_18575" data-name="Контур 18575" d="M171.005,393l62.181-.267.868,1.149Z" fill="#cfd5e5"/>
            </g>
          </g>
          <g id="Сгруппировать_706" data-name="Сгруппировать 706">
            <g id="Сгруппировать_704" data-name="Сгруппировать 704">
              <path id="Контур_18576" data-name="Контур 18576" d="M69.44,440.883a16.642,16.642,0,0,0,9.216-15.173h0a16.644,16.644,0,0,0-9.216-15.173v-5.882H206.914a16.319,16.319,0,0,1,16.512,16.119v9.372a16.32,16.32,0,0,1-16.512,16.12H69.44Z" fill="#01627a"/>
              <path id="Контур_18577" data-name="Контур 18577" d="M69.44,440.883a16.642,16.642,0,0,0,9.216-15.173h0a16.644,16.644,0,0,0-9.216-15.173v-5.882h72.654a21.063,21.063,0,0,1,21.312,20.8h0a21.064,21.064,0,0,1-21.312,20.806H69.44Z" fill="#00a7cf"/>
              <path id="Контур_18578" data-name="Контур 18578" d="M69.44,440.883a16.642,16.642,0,0,0,9.216-15.173h0a16.644,16.644,0,0,0-9.216-15.173v-1.384h69.266a16.762,16.762,0,0,1,16.96,16.557h0a16.762,16.762,0,0,1-16.96,16.557H69.44Z" fill="#fefefe"/>
            </g>
            <path id="Контур_18579" data-name="Контур 18579" d="M210.813,407.334s5.857,3.434,6.758,7.782.281,6.25.281,6.25l-50.687.2s-.338-10.3-8.9-15.044Z" fill="#00a7cf"/>
            <g id="Сгруппировать_705" data-name="Сгруппировать 705">
              <path id="Контур_18580" data-name="Контур 18580" d="M139.391,416.508l-63.76-.293,1.021,1.742Z" fill="#cfd5e5"/>
              <path id="Контур_18581" data-name="Контур 18581" d="M152.006,426.652l-73.44-1.007.028,1.125Z" fill="#cfd5e5"/>
              <path id="Контур_18582" data-name="Контур 18582" d="M137.5,436.443l-62.181-.267-.868,1.149Z" fill="#cfd5e5"/>
            </g>
          </g>
        </g>
      </g>
    </g>
    <g id="Сгруппировать_718" data-name="Сгруппировать 718" transform="translate(1041 105)">
      <g id="Сгруппировать_711" data-name="Сгруппировать 711">
        <g id="Сгруппировать_710" data-name="Сгруппировать 710">
          <path id="Контур_18583" data-name="Контур 18583" d="M148.679,185.674V163.519l-12.461,11.076Z" fill="#cee629"/>
          <rect id="Прямоугольник_1168" data-name="Прямоугольник 1168" width="98.386" height="52.299" transform="translate(59.519 122.251)" fill="#cee629"/>
        </g>
      </g>
      <g id="Сгруппировать_717" data-name="Сгруппировать 717">
        <g id="Сгруппировать_716" data-name="Сгруппировать 716">
          <g id="Сгруппировать_712" data-name="Сгруппировать 712">
            <rect id="Прямоугольник_1169" data-name="Прямоугольник 1169" width="88.485" height="4.092" transform="translate(64.539 128.9)" fill="#24272d"/>
          </g>
          <g id="Сгруппировать_713" data-name="Сгруппировать 713">
            <rect id="Прямоугольник_1170" data-name="Прямоугольник 1170" width="67.941" height="4.092" transform="translate(64.539 140.323)" fill="#24272d"/>
          </g>
          <g id="Сгруппировать_714" data-name="Сгруппировать 714">
            <rect id="Прямоугольник_1171" data-name="Прямоугольник 1171" width="80.899" height="4.092" transform="translate(64.539 151.746)" fill="#24272d"/>
          </g>
          <g id="Сгруппировать_715" data-name="Сгруппировать 715">
            <rect id="Прямоугольник_1172" data-name="Прямоугольник 1172" width="79.535" height="4.092" transform="translate(64.539 163.169)" fill="#24272d"/>
          </g>
        </g>
      </g>
    </g>
    <g id="Сгруппировать_722" data-name="Сгруппировать 722" transform="translate(1041 105)">
      <g id="Сгруппировать_720" data-name="Сгруппировать 720">
        <g id="Сгруппировать_719" data-name="Сгруппировать 719">
          <path id="Контур_18584" data-name="Контур 18584" d="M147.235,273.081V251.758l-11.993,10.66Z" fill="#cee629"/>
          <rect id="Прямоугольник_1173" data-name="Прямоугольник 1173" width="94.691" height="50.335" transform="translate(61.424 212.041)" fill="#cee629"/>
        </g>
      </g>
      <g id="Сгруппировать_721" data-name="Сгруппировать 721">
        <circle id="Эллипс_861" data-name="Эллипс 861" cx="4.973" cy="4.973" r="4.973" transform="translate(78.375 231.855)" fill="#24272d"/>
        <circle id="Эллипс_862" data-name="Эллипс 862" cx="4.973" cy="4.973" r="4.973" transform="translate(103.709 231.955)" fill="#24272d"/>
        <circle id="Эллипс_863" data-name="Эллипс 863" cx="4.973" cy="4.973" r="4.973" transform="translate(129.042 232.055)" fill="#24272d"/>
      </g>
    </g>
    <g id="Сгруппировать_739" data-name="Сгруппировать 739" transform="translate(1041 105)">
      <g id="Сгруппировать_738" data-name="Сгруппировать 738">
        <g id="Сгруппировать_735" data-name="Сгруппировать 735">
          <g id="Сгруппировать_734" data-name="Сгруппировать 734">
            <g id="Сгруппировать_733" data-name="Сгруппировать 733">
              <path id="Контур_18592" data-name="Контур 18592" d="M541.126,349.8l9.3-9.007V115.636l-9.3,9.007V349.8" fill="#c1c1c1"/>
              <g id="Сгруппировать_732" data-name="Сгруппировать 732">
                <path id="Контур_18593" data-name="Контур 18593" d="M166.83,124.642l9.3-9.007h374.3l-9.3,9.007H166.83" fill="#c1c1c1"/>
                <rect id="Прямоугольник_1176" data-name="Прямоугольник 1176" width="374.296" height="225.157" transform="translate(166.83 124.642)" fill="#fff"/>
              </g>
            </g>
          </g>
          <rect id="Прямоугольник_1177" data-name="Прямоугольник 1177" width="344.784" height="178.453" transform="translate(181.417 138.013)" fill="#24272d"/>
        </g>
        <g id="Сгруппировать_737" data-name="Сгруппировать 737">
          <path id="Контур_18594" data-name="Контур 18594" d="M467.071,133.57l-297.743.069v-5.406H458.382Z" fill="#c1c1c1"/>
          <g id="Сгруппировать_736" data-name="Сгруппировать 736">
            <path id="Контур_18595" data-name="Контур 18595" d="M536.1,340.4l-364.739.931V326.123l364.739-.553Z" fill="#c1c1c1"/>
            <circle id="Эллипс_867" data-name="Эллипс 867" cx="7.849" cy="7.849" r="7.849" transform="translate(346.213 325.199)" fill="#24272d"/>
          </g>
        </g>
      </g>
    </g>
    <g id="Сгруппировать_784" data-name="Сгруппировать 784" transform="translate(1041 105)">
      <g id="Сгруппировать_780" data-name="Сгруппировать 780">
        <rect id="Прямоугольник_1179" data-name="Прямоугольник 1179" width="267.841" height="6.028" transform="translate(220.01 283.183)" fill="#7b7b7b"/>
        <path id="Контур_18669" data-name="Контур 18669" d="M0,0H95.482V6.028H0Z" transform="translate(220.01 283.183)" fill="#a1a1a1"/>
      </g>
      <g id="Сгруппировать_783" data-name="Сгруппировать 783">
        <path id="Контур_18668" data-name="Контур 18668" d="M0,0H267.841V20.311H0Z" transform="translate(220.02 289.194)" fill="#c1c1c1"/>
        <path id="Контур_18638" data-name="Контур 18638" d="M224.9,306.572V291.746l12.19,7.411Z" fill="#24272d"/>
        <g id="Сгруппировать_782" data-name="Сгруппировать 782">
          <g id="Сгруппировать_781" data-name="Сгруппировать 781">
            <path id="Контур_18639" data-name="Контур 18639" d="M469.889,298.273v-3.686h3.694v-2.46h-6.156v6.156Z" fill="#24272d"/>
            <path id="Контур_18640" data-name="Контур 18640" d="M476.043,294.587h3.688v3.648l2.46-.01v-6.1h-6.147Z" fill="#24272d"/>
            <path id="Контур_18641" data-name="Контур 18641" d="M473.577,304.429h-3.689v-3.695l-2.46.01v6.146h6.148Z" fill="#24272d"/>
            <path id="Контур_18642" data-name="Контур 18642" d="M479.731,300.7v3.733h-3.693v2.46h6.154v-6.2Z" fill="#24272d"/>
          </g>
        </g>
      </g>
    </g>
    <g id="Сгруппировать_819" data-name="Сгруппировать 819" transform="translate(908 105)">
      <g id="Сгруппировать_818" data-name="Сгруппировать 818">
        <g id="Сгруппировать_817" data-name="Сгруппировать 817">
          <path id="Контур_18664" data-name="Контур 18664" d="M620.65,438.339l-65.779.2v11.765h77.009Z" fill="#c10020"/>
          <g id="Сгруппировать_816" data-name="Сгруппировать 816">
            <path id="Контур_18665" data-name="Контур 18665" d="M406.945,450.238H559.273L530.7,351.57H383.349Z" fill="#ef4864"/>
            <path id="Контур_18666" data-name="Контур 18666" d="M530.7,351.57l6.016-6.484,28.572,98.668-6.016,6.484Z" fill="#c10020"/>
            <path id="Контур_18667" data-name="Контур 18667" d="M383.349,351.57l6.016-6.484H536.718L530.7,351.57Z" fill="#c10020"/>
          </g>
        </g>
        <path id="Контур_18670" data-name="Контур 18670" d="M10.95,0C17,0,21.9,5.913,21.9,13.207S17,26.414,10.95,26.414,0,20.5,0,13.207,4.9,0,10.95,0Z" transform="matrix(0.989, -0.149, 0.149, 0.989, 453.016, 390.59)" fill="#c10020"/>
      </g>
    </g>
    <rect id="Прямоугольник_1182" data-name="Прямоугольник 1182" width="533.704" height="11.079" transform="translate(1079.238 554.859)" fill="#00a7cf"/>
    <g id="Сгруппировать_821" data-name="Сгруппировать 821" transform="matrix(0.891, 0.454, -0.454, 0.891, 362.774, -1072.243)">
      <g id="Сгруппировать_820" data-name="Сгруппировать 820" transform="translate(1599.125 560.645)">
        <g id="Сгруппировать_740" data-name="Сгруппировать 740" transform="translate(0)">
          <path id="Контур_18596" data-name="Контур 18596" d="M508.241,101.272l-5.082,14.89a8.524,8.524,0,0,0,2.375,9.164l28.281,24.3a7.227,7.227,0,0,0,4.818,1.778l38.764-.548a7.681,7.681,0,0,0,7.152-5.773l3.464-12.184a8.3,8.3,0,0,0-4.565-10L518.022,96.445A7.442,7.442,0,0,0,508.241,101.272Z" transform="translate(-471.167 -62.112)" fill="#00a7cf"/>
          <path id="Контур_18597" data-name="Контур 18597" d="M480.108,80.966,548.8,140.975a2.533,2.533,0,0,0,1.711.635l80.3-1.525a2.621,2.621,0,0,0,2.427-1.831c.377-1.067,2.659-6.459,1.671-7.317L576.99,86.893a2.543,2.543,0,0,0-1.388-.614L482.044,71.193c-1.132-.124-2.024,5.206-2.513,6.066A2.954,2.954,0,0,0,480.108,80.966Z" transform="translate(-479.125 -70.461)" fill="#01627a"/>
          <path id="Контур_18598" data-name="Контур 18598" d="M481.419,75.7l68.693,60.008a2.52,2.52,0,0,0,1.711.635l80.3-1.525c2.47-.047,3.541-3.388,1.62-5.056L578.3,81.625a2.539,2.539,0,0,0-1.387-.614L483.362,70.662C480.749,70.372,479.382,73.918,481.419,75.7Z" transform="translate(-478.682 -70.645)" fill="#00a7cf"/>
        </g>
        <path id="Контур_18599" data-name="Контур 18599" d="M483.824,72.176,562.731,104.3l14.181-21.815Z" transform="translate(-477.538 -70.129)" fill="#fefefe"/>
      </g>
      <path id="Контур_18600" data-name="Контур 18600" d="M542.815,96.192l23.919,30.414-1.223,40.817-8.427,5.352,1.077-45.216Z" transform="translate(1141.502 498.625)" fill="#ef4864"/>
    </g>
    <g transform="matrix(1, 0, 0, 1, 1079.24, 153.93)" filter="url(#Кубок_Сократа_)">
      <text id="Кубок_Сократа_2" data-name="Кубок
&quot;Сократа&quot;" transform="translate(315.76 157.07)" fill="#f5f7f8" font-size="43" font-family="SegoeUIBlack, Segoe UI" letter-spacing="-0.01em"><tspan x="-66.317" y="0">Кубок</tspan><tspan fill="#cee629"><tspan x="-111.386" y="39">&quot;Сократа&quot;</tspan></tspan></text>
    </g>
  </g>
</svg>
