<svg xmlns="http://www.w3.org/2000/svg" xmlns:xlink="http://www.w3.org/1999/xlink" width="217.558" height="373.559" viewBox="0 0 217.558 373.559">
  <defs>
    <filter id="Контур_20554" x="0" y="0" width="217.558" height="373.559" filterUnits="userSpaceOnUse">
      <feOffset dy="3" input="SourceAlpha"/>
      <feGaussianBlur stdDeviation="3" result="blur"/>
      <feFlood flood-opacity="0.161"/>
      <feComposite operator="in" in2="blur"/>
      <feComposite in="SourceGraphic"/>
    </filter>
    <filter id="Контур_20507" x="122.701" y="97.841" width="25.07" height="24.199" filterUnits="userSpaceOnUse">
      <feOffset dy="1" input="SourceAlpha"/>
      <feGaussianBlur stdDeviation="0.5" result="blur-2"/>
      <feFlood flood-opacity="0.161"/>
      <feComposite operator="in" in2="blur-2"/>
      <feComposite in="SourceGraphic"/>
    </filter>
    <filter id="Контур_20532" x="103.555" y="127.579" width="76.307" height="59.023" filterUnits="userSpaceOnUse">
      <feOffset dy="3" input="SourceAlpha"/>
      <feGaussianBlur stdDeviation="3" result="blur-3"/>
      <feFlood flood-opacity="0.161"/>
      <feComposite operator="in" in2="blur-3"/>
      <feComposite in="SourceGraphic"/>
    </filter>
    <filter id="Контур_20434" x="61.694" y="96.758" width="56.584" height="55.24" filterUnits="userSpaceOnUse">
      <feOffset dy="3" input="SourceAlpha"/>
      <feGaussianBlur stdDeviation="3" result="blur-4"/>
      <feFlood flood-opacity="0.161"/>
      <feComposite operator="in" in2="blur-4"/>
      <feComposite in="SourceGraphic"/>
    </filter>
    <filter id="Контур_20437" x="55.945" y="114.882" width="69.858" height="99.37" filterUnits="userSpaceOnUse">
      <feOffset dx="-1" input="SourceAlpha"/>
      <feGaussianBlur stdDeviation="3" result="blur-5"/>
      <feFlood flood-opacity="0.161"/>
      <feComposite operator="in" in2="blur-5"/>
      <feComposite in="SourceGraphic"/>
    </filter>
    <filter id="Контур_20441" x="77.236" y="108.499" width="14.935" height="14.398" filterUnits="userSpaceOnUse">
      <feOffset dy="2" input="SourceAlpha"/>
      <feGaussianBlur stdDeviation="1" result="blur-6"/>
      <feFlood flood-opacity="0.161"/>
      <feComposite operator="in" in2="blur-6"/>
      <feComposite in="SourceGraphic"/>
    </filter>
    <filter id="Контур_20472" x="66.81" y="134.51" width="49.515" height="68.745" filterUnits="userSpaceOnUse">
      <feOffset dy="3" input="SourceAlpha"/>
      <feGaussianBlur stdDeviation="3" result="blur-7"/>
      <feFlood flood-opacity="0.161"/>
      <feComposite operator="in" in2="blur-7"/>
      <feComposite in="SourceGraphic"/>
    </filter>
    <filter id="Прямоугольник_112" x="6.974" y="318.082" width="202.581" height="52.474" filterUnits="userSpaceOnUse">
      <feOffset dy="3" input="SourceAlpha"/>
      <feGaussianBlur stdDeviation="3.5" result="blur-8"/>
      <feFlood flood-opacity="0.161"/>
      <feComposite operator="in" in2="blur-8"/>
      <feComposite in="SourceGraphic"/>
    </filter>
  </defs>
  <g id="Сгруппировать_7583" data-name="Сгруппировать 7583" transform="translate(-4987 16054)">
    <g transform="matrix(1, 0, 0, 1, 4987, -16054)" filter="url(#Контур_20554)">
      <path id="Контур_20554-2" data-name="Контур 20554" d="M0,0H199.559V355.559H0Z" transform="translate(9 6)" fill="#fff"/>
    </g>
    <rect id="Прямоугольник_1888" data-name="Прямоугольник 1888" width="199.739" height="199.739" transform="translate(4996 -16048)" fill="#f3f4f9"/>
    <text id="Skillbox" transform="translate(5004.474 -15835.787)" fill="#24272d" font-size="4" font-family="SegoeUI, Segoe UI"><tspan x="0" y="0">Skillbox</tspan></text>
    <text id="Философия_искусственного_интеллекта" data-name="Философия искусственного 
интеллекта" transform="translate(5004.474 -15820.682)" fill="#24272d" font-size="8" font-family="SegoeUI-Bold, Segoe UI" font-weight="700"><tspan x="0" y="0">Философия искусственного </tspan><tspan x="0" y="11">интеллекта</tspan></text>
    <rect id="Прямоугольник_110" data-name="Прямоугольник 110" width="33.895" height="35.106" rx="4" transform="translate(5152.16 -15839.787)" fill="#f3f4f9"/>
    <g id="Сгруппировать_3194" data-name="Сгруппировать 3194" transform="translate(5005.685 -16044.368)">
      <rect id="Прямоугольник_1615" data-name="Прямоугольник 1615" width="16.948" height="18.158" rx="8.474" transform="translate(0 0)" fill="#fff"/>
      <path id="left-chevron" d="M4.331,7.661h0A1.093,1.093,0,0,1,3.6,7.392L.294,4.45a.821.821,0,0,1,0-1.257L3.579.27a1.13,1.13,0,0,1,1.463,0L5.2.41a.838.838,0,0,1,.295.637.842.842,0,0,1-.306.633l-2.5,2.144.719.617a.274.274,0,0,1,.005.423.377.377,0,0,1-.483,0l-.968-.831a.274.274,0,0,1,0-.428L4.71,1.253a.274.274,0,0,0,0-.423L4.555.688a.377.377,0,0,0-.488,0L.779,3.612a.275.275,0,0,0,0,.418L4.087,6.973a.377.377,0,0,0,.486,0l.156-.137a.274.274,0,0,0,0-.426l-.614-.527a.274.274,0,0,1,0-.423.377.377,0,0,1,.483,0l.614.527a.822.822,0,0,1,.008,1.276L5.056,7.4a1.1,1.1,0,0,1-.725.263Zm0,0" transform="translate(4.743 4.872)" fill="#24272d"/>
    </g>
    <g id="Сгруппировать_4488" data-name="Сгруппировать 4488" transform="translate(5155.375 -15824.767)">
      <path id="Контур_1061" data-name="Контур 1061" d="M633.225,270.1a1.068,1.068,0,0,0-.8.321,1.117,1.117,0,0,0-.317.8,1.056,1.056,0,0,0,.342.813,1.253,1.253,0,0,0,.886.312,2,2,0,0,0,.809-.184v-.432a1.639,1.639,0,0,1-.809.21.7.7,0,0,1-.766-.565h1.665a1.139,1.139,0,0,0,.021-.252,1.013,1.013,0,0,0-1.036-1.027Zm-.013.424a.586.586,0,0,1,.608.5h-1.241A.607.607,0,0,1,633.212,270.523Z" transform="translate(-620.156 -268.578)" fill="#121621"/>
      <path id="Контур_1062" data-name="Контур 1062" d="M1019.626,271.183a.958.958,0,0,0-.651.261v-.218h-.445v2.139h.445v-1.074a.608.608,0,0,1,.676-.672.659.659,0,0,1,.081.009v-.436C1019.695,271.187,1019.647,271.183,1019.626,271.183Z" transform="translate(-999.264 -269.641)" fill="#121621"/>
      <path id="Контур_1063" data-name="Контур 1063" d="M789.831,274.269l.8-1.044h-.539l-.783,1.053.83,1.087h.527l-.839-1.091Z" transform="translate(-774.373 -271.644)" fill="#121621"/>
      <path id="Контур_1064" data-name="Контур 1064" d="M765.34,227.3H764.9v3.008h.445Z" transform="translate(-750.426 -226.591)" fill="#121621"/>
      <path id="Контур_1065" data-name="Контур 1065" d="M342.461,227.2v-.116h-1.4v.424h.929v.625a1.787,1.787,0,0,1-.659.124,1.094,1.094,0,0,1-.8-.312,1.129,1.129,0,0,1,0-1.532,1.256,1.256,0,0,1,.912-.312,1.849,1.849,0,0,1,.869.21v-.488a2.124,2.124,0,0,0-.869-.184,1.78,1.78,0,0,0-1.246.445,1.508,1.508,0,0,0-.449,1.1,1.525,1.525,0,0,0,.449,1.1,1.55,1.55,0,0,0,1.126.441,2.177,2.177,0,0,0,1.126-.317v-1.2Z" transform="translate(-333.329 -224.96)" fill="#121621"/>
      <path id="Контур_1066" data-name="Контур 1066" d="M503.824,270.411a1.036,1.036,0,0,0-.758-.312,1.068,1.068,0,0,0-.8.321,1.117,1.117,0,0,0-.317.8,1.056,1.056,0,0,0,.342.813,1.167,1.167,0,0,0,.223.158,1.374,1.374,0,0,0,.668.154,2,2,0,0,0,.809-.184v-.432a1.485,1.485,0,0,1-.167.081,1.62,1.62,0,0,1-.642.124.7.7,0,0,1-.766-.565h1.661a1.139,1.139,0,0,0,.021-.252,1.006,1.006,0,0,0-.265-.7S503.828,270.42,503.824,270.411Zm-.167.612h-1.241a.617.617,0,0,1,.634-.5A.586.586,0,0,1,503.657,271.023Z" transform="translate(-492.458 -268.578)" fill="#121621"/>
      <path id="Контур_1067" data-name="Контур 1067" d="M1234.625,273.225h-.445v2.139h.445Z" transform="translate(-1210.835 -271.644)" fill="#121621"/>
      <path id="Контур_1068" data-name="Контур 1068" d="M1231.292,223.907a.261.261,0,0,0-.2.081.3.3,0,0,0,0,.411.268.268,0,0,0,.2.081.262.262,0,0,0,.2-.081.3.3,0,0,0,0-.411A.262.262,0,0,0,1231.292,223.907Z" transform="translate(-1207.724 -223.259)" fill="#121621"/>
      <path id="Контур_1069" data-name="Контур 1069" d="M1403.991,272.106a.511.511,0,0,0-.1-.321,1.144,1.144,0,0,0-.672-.355,1.583,1.583,0,0,1-.338-.111.194.194,0,0,1-.115-.18h0c0-.145.18-.214.4-.214a1.5,1.5,0,0,1,.728.18v-.445a1.828,1.828,0,0,0-.728-.15,1.034,1.034,0,0,0-.616.171.564.564,0,0,0-.219.479c0,.415.36.573.771.676a1.563,1.563,0,0,1,.338.111.193.193,0,0,1,.116.18c0,.15-.159.223-.42.223a2.265,2.265,0,0,1-.775-.133v.415a2.452,2.452,0,0,0,.775.128,1.1,1.1,0,0,0,.629-.175.551.551,0,0,0,.132-.133A.617.617,0,0,0,1403.991,272.106Z" transform="translate(-1375.805 -268.98)" fill="#121621"/>
      <path id="Контур_1070" data-name="Контур 1070" d="M879.049,228.957a.685.685,0,0,0,.291-.586.818.818,0,0,0-.261-.6.977.977,0,0,0-.659-.24h-1.267v3h1.374a1,1,0,0,0,.676-.244.817.817,0,0,0,.261-.616A.8.8,0,0,0,879.049,228.957Zm-1.438-1.018h.856a.428.428,0,0,1,0,.856h-.856Zm.937,2.187h-.937V229.2h.937a.462.462,0,0,1,0,.924Z" transform="translate(-860.562 -226.811)" fill="#121621"/>
      <path id="Контур_1071" data-name="Контур 1071" d="M1285.119,270.691a.485.485,0,0,1,.42.184.623.623,0,0,1,.1.368v1.232h.445v-1.25a.958.958,0,0,0-.214-.655l-.008-.009a.808.808,0,0,0-.625-.282,1,1,0,0,0-.63.218v-.163h-.445v2.14h.445v-1.232a.579.579,0,0,1,.111-.351.492.492,0,0,1,.128-.12A.462.462,0,0,1,1285.119,270.691Z" transform="translate(-1259.87 -268.755)" fill="#121621"/>
      <path id="Контур_1072" data-name="Контур 1072" d="M1089.172,270.541a1.056,1.056,0,0,0-.719-.261,1.132,1.132,0,0,0-.942.514c-.009.013-.017.03-.026.043a1.105,1.105,0,0,0-.146.569,1.091,1.091,0,0,0,.325.8,1.07,1.07,0,0,0,.788.325,1.025,1.025,0,0,0,.719-.265v.21h.445v-2.14h-.445Zm-.2,1.374a.724.724,0,0,1-.993,0,.694.694,0,0,1-.2-.5.677.677,0,0,1,.2-.5.713.713,0,0,1,.993,0,.676.676,0,0,1,.2.5A.693.693,0,0,1,1088.971,271.915Z" transform="translate(-1066.771 -268.755)" fill="#121621"/>
      <path id="Контур_1073" data-name="Контур 1073" d="M127.87,190.12a.943.943,0,0,0-.14.558v.337a.482.482,0,0,0,.106.3l.328.41a.321.321,0,1,1-.273.318.32.32,0,0,1,.022-.117l-.328-.41a.8.8,0,0,1-.176-.5v-.337a1.255,1.255,0,0,1,.2-.747.719.719,0,0,1,.6-.3.964.964,0,0,1,.892.6.884.884,0,0,1,.634.848.939.939,0,0,1-.026.254.8.8,0,0,1,0,1.419.94.94,0,0,1,.025.254.884.884,0,0,1-.634.848.965.965,0,0,1-1.193.55l.1-.305a.644.644,0,0,0,.817-.427l.028-.095.1-.017a.562.562,0,0,0,.463-.553c0-.14-.011-.191-.05-.238a.22.22,0,0,0-.2-.08.341.341,0,0,0-.224.126l-.189.236a.321.321,0,1,1-.3-.2.324.324,0,0,1,.048,0l.189-.236a.662.662,0,0,1,.441-.245.544.544,0,0,1,.4.114.482.482,0,0,0,0-.88.545.545,0,0,1-.4.114.662.662,0,0,1-.441-.245l-.189-.236a.325.325,0,0,1-.048,0,.321.321,0,1,1,.3-.2l.189.236a.341.341,0,0,0,.224.126.22.22,0,0,0,.2-.08c.039-.047.05-.1.05-.238a.562.562,0,0,0-.463-.553l-.1-.017-.028-.095a.643.643,0,0,0-.616-.459A.4.4,0,0,0,127.87,190.12Z" transform="translate(-124.999 -189.634)" fill="#121621"/>
      <path id="Контур_1074" data-name="Контур 1074" d="M1.388,193.052a.321.321,0,1,0,.251-.2l-.189-.236a.662.662,0,0,0-.441-.245.545.545,0,0,0-.4.114.482.482,0,0,1,0-.88.545.545,0,0,0,.4.114.662.662,0,0,0,.441-.245l.189-.236a.321.321,0,1,0-.251-.2l-.189.236a.341.341,0,0,1-.224.126.22.22,0,0,1-.2-.08c-.039-.047-.05-.1-.05-.238a.562.562,0,0,1,.463-.553l.1-.017.028-.095a.644.644,0,0,1,.817-.427l.1-.305a.965.965,0,0,0-1.193.55.884.884,0,0,0-.634.848.941.941,0,0,0,.025.254.8.8,0,0,0,0,1.419.94.94,0,0,0-.025.254.884.884,0,0,0,.634.848.964.964,0,0,0,.892.6.719.719,0,0,0,.6-.3,1.254,1.254,0,0,0,.2-.748v-.337a.8.8,0,0,0-.176-.5l-.328-.41a.321.321,0,1,0-.3.2.326.326,0,0,0,.048,0l.328.41a.482.482,0,0,1,.106.3v.337a.943.943,0,0,1-.14.558.4.4,0,0,1-.342.165.643.643,0,0,1-.616-.459l-.028-.095-.1-.017a.562.562,0,0,1-.463-.553c0-.14.011-.191.05-.238a.22.22,0,0,1,.2-.08.341.341,0,0,1,.224.126Z" transform="translate(0 -189.634)" fill="#121621"/>
    </g>
    <rect id="Прямоугольник_1676" data-name="Прямоугольник 1676" width="21.79" height="21.79" rx="10.895" transform="translate(5164.265 -16029.842)" fill="#ef4864"/>
    <g id="bookmark" transform="translate(5171.654 -16023.461)">
      <g id="Сгруппировать_866" data-name="Сгруппировать 866" transform="translate(0)">
        <path id="Контур_18763" data-name="Контур 18763" d="M69.3,8.566a.4.4,0,0,0-.4.4.374.374,0,0,1-.111.277.43.43,0,0,1-.3.12.364.364,0,0,1-.269-.113L66.133,7.1a.4.4,0,0,0-.568,0L63.476,9.247a.369.369,0,0,1-.271.113.423.423,0,0,1-.3-.118A.367.367,0,0,1,62.8,8.97V1.586a.794.794,0,0,1,.793-.793H68.11a.794.794,0,0,1,.793.793V7A.4.4,0,0,0,69.7,7V1.586A1.588,1.588,0,0,0,68.11,0H63.588A1.588,1.588,0,0,0,62,1.586V8.97a1.164,1.164,0,0,0,.347.838,1.217,1.217,0,0,0,.849.345h.021a1.156,1.156,0,0,0,.826-.353l1.8-1.854,1.8,1.854a1.151,1.151,0,0,0,.828.353,1.224,1.224,0,0,0,.867-.349,1.171,1.171,0,0,0,.347-.841A.4.4,0,0,0,69.3,8.566Z" transform="translate(-62.002 0)" fill="#fff"/>
      </g>
    </g>
    <g id="Сгруппировать_4750" data-name="Сгруппировать 4750" transform="translate(5033.562 -15955.659)">
      <g id="Сгруппировать_4749" data-name="Сгруппировать 4749" transform="translate(0 0)">
        <g id="Сгруппировать_4746" data-name="Сгруппировать 4746" transform="translate(58.573)">
          <path id="Контур_20504" data-name="Контур 20504" d="M3380.088,421.482c.4.545.909.988,1.306,1.533-.208,1.588-.876,2.826-1.084,4.414-.23,1.75-.112,3.955-.341,5.706l-2.231.448c.434-2.233,1.031-4.044,1.464-6.277C3379.552,425.505,3379.739,423.283,3380.088,421.482Z" transform="translate(-3350.091 -402.672)" fill="#10758e" fill-rule="evenodd"/>
          <path id="Контур_20505" data-name="Контур 20505" d="M3290.688,536.384c-7.851-.008-12.423-46.8,4.888-67.589,5.327-6.4,12.06-10.156,13.859-9.121,1.29.742,5.738-.295,6.512.438,1.606,1.52,6.524,3.411,7.671,5.8,5.884,12.259,10.884,22.021,8.967,35.607-.593,4.2,1.592,7.656,1.219,17.238l-.687,17.671Z" transform="translate(-3283.696 -429.516)" fill="#a9bd24" fill-rule="evenodd"/>
          <path id="Контур_20506" data-name="Контур 20506" d="M3389.124,401.787c-2.13,2.095-5.933,1.3-6.658.317s-.98-.674-1.174-1.373c-.237-.023-.853.188-1.12-.143s-.447-1.766-.1-2.109,1.43.2,1.632.133c.087-1.132-.2-4.1,1.268-5.544s5.663-.47,7.208,1.45S3391.255,399.692,3389.124,401.787Z" transform="translate(-3351.604 -382.122)" fill="#00a7cf" fill-rule="evenodd"/>
          <g transform="matrix(1, 0, 0, 1, -105.13, -98.34)" filter="url(#Контур_20507)">
            <path id="Контур_20507-2" data-name="Контур 20507" d="M3348.917,362.208c.173-.434,1.6-.611,2.905-.089,1.1.44-.281-2.07,1.044-2.7.67-.318,1.753,1.116,2.264.871,1.155-.556,1.479-2.232,2.176-2.525.224-.094.8-.375,1.045,0,.545.827.63,1.89,1.588,1.753,1.218-.174,2.045-2.317,3.574-1.985,1.438.311,1,2.138,1.193,2.757.255.82,1.018.441,2.873.609.958.087,1.232,1.43,1.045,2.089-.191.677-1.047,1.218-1.131,1.741-.212,1.314,2.568,1.526,3.047,2.438.194.37.1,1.223-.871,1.741-.552.294-1.133-.257-2.264.174-.5.192-.514.651-.958.7a3.351,3.351,0,0,1-1.479-.435c-3.945-2.468-1.454,2.822-3.221,3.308-.4.109-1.2.016-1.48.261-.307.267-.435,1.393-.435,1.393-.785-.427-2.7.77-1.655,1.567.3.232,1.088.131,1.045.174-.486.484.083,3.465-2.47,2.436-.276-.111-1.617-2.83-2.412-2.175-.676.557-1.207,1.433-1.909,1.654-3.61,1.137-1.418-4.2-1.567-4.875-.307-1.387-2.033-2.278-2.187-2.61a1.6,1.6,0,0,1,.708-2c1.03-.508,2.519-.338,1.274-1.74C3349.341,365.253,3348.151,364.126,3348.917,362.208Z" transform="translate(-3224.35 -259.16)" fill="#1f2024" fill-rule="evenodd"/>
          </g>
          <path id="Контур_20508" data-name="Контур 20508" d="M3484.031,423.222c-.217,0-.987,3.392-1.928,6.463-.459,1.5-1.242,3.134-1.474,3.856a47.021,47.021,0,0,0-2.077,7.385h1.807a14.365,14.365,0,0,0,.347-1.515c.3-1.593.916-4.561,2.191-6.211.584-.755,1.377-.954,1.7-1.588C3485.61,429.631,3484.712,428.1,3484.031,423.222Z" transform="translate(-3421.237 -403.901)" fill="#00a7cf" fill-rule="evenodd"/>
          <path id="Контур_20509" data-name="Контур 20509" d="M3478.4,480.044l1.542.982.67-3a8.486,8.486,0,0,0-1.583-.238C3478.492,477.863,3478.713,478.4,3478.4,480.044Z" transform="translate(-3421.157 -442.422)" fill="#10758e" fill-rule="evenodd"/>
          <path id="Контур_20510" data-name="Контур 20510" d="M3483.024,427.074s.735.517,1.559-1.522c.467-1.155.855-2.909,1.286-4.427.638-2.247,1.238-4.143,1.238-4.143.132-1.216.934-3.23-.225-3.072-.23.031-.739,2.43-1.477,5C3484.437,422.287,3483.2,426.138,3483.024,427.074Z" transform="translate(-3424.424 -397.32)" fill="#1f2024" fill-rule="evenodd"/>
          <path id="Контур_20511" data-name="Контур 20511" d="M3327.61,491.48a2.059,2.059,0,1,0-2.059-2.059A2.063,2.063,0,0,0,3327.61,491.48Z" transform="translate(-3313.246 -449.184)" fill="#1f2024" fill-rule="evenodd"/>
          <path id="Контур_20512" data-name="Контур 20512" d="M3311,522.472a2.059,2.059,0,1,0-2.059-2.059A2.063,2.063,0,0,0,3311,522.472Z" transform="translate(-3301.518 -471.065)" fill="#1f2024" fill-rule="evenodd"/>
          <path id="Контур_20513" data-name="Контур 20513" d="M3302,557.873a2.059,2.059,0,1,0-2.059-2.059A2.063,2.063,0,0,0,3302,557.873Z" transform="translate(-3295.163 -496.059)" fill="#1f2024" fill-rule="evenodd"/>
          <path id="Контур_20514" data-name="Контур 20514" d="M3296.523,599.326a2.059,2.059,0,1,0-2.059-2.059A2.063,2.063,0,0,0,3296.523,599.326Z" transform="translate(-3291.299 -525.325)" fill="#1f2024" fill-rule="evenodd"/>
          <path id="Контур_20515" data-name="Контур 20515" d="M3336.082,616.54a2.059,2.059,0,1,0-2.06-2.059A2.063,2.063,0,0,0,3336.082,616.54Z" transform="translate(-3319.227 -537.478)" fill="#1f2024" fill-rule="evenodd"/>
          <path id="Контур_20516" data-name="Контур 20516" d="M3384.852,615.272a2.059,2.059,0,1,0-2.059-2.059A2.063,2.063,0,0,0,3384.852,615.272Z" transform="translate(-3353.66 -536.583)" fill="#1f2024" fill-rule="evenodd"/>
          <path id="Контур_20517" data-name="Контур 20517" d="M3420.825,627.106a2.059,2.059,0,1,0-2.059-2.059A2.063,2.063,0,0,0,3420.825,627.106Z" transform="translate(-3379.058 -544.938)" fill="#1f2024" fill-rule="evenodd"/>
          <path id="Контур_20518" data-name="Контур 20518" d="M3361.607,640.273a2.059,2.059,0,1,0-2.059-2.059A2.063,2.063,0,0,0,3361.607,640.273Z" transform="translate(-3337.248 -554.234)" fill="#1f2024" fill-rule="evenodd"/>
          <path id="Контур_20519" data-name="Контур 20519" d="M3329.076,654.281a2.059,2.059,0,1,0-2.059-2.059A2.063,2.063,0,0,0,3329.076,654.281Z" transform="translate(-3314.281 -564.124)" fill="#1f2024" fill-rule="evenodd"/>
          <path id="Контур_20520" data-name="Контур 20520" d="M3331.476,683.059a2.059,2.059,0,1,0-2.059-2.059A2.063,2.063,0,0,0,3331.476,683.059Z" transform="translate(-3315.976 -584.442)" fill="#1f2024" fill-rule="evenodd"/>
          <path id="Контур_20521" data-name="Контур 20521" d="M3315.068,707.661a2.059,2.059,0,1,0-2.059-2.059A2.063,2.063,0,0,0,3315.068,707.661Z" transform="translate(-3304.391 -601.811)" fill="#1f2024" fill-rule="evenodd"/>
          <path id="Контур_20522" data-name="Контур 20522" d="M3364.046,704.364a2.059,2.059,0,1,0-2.059-2.059A2.063,2.063,0,0,0,3364.046,704.364Z" transform="translate(-3338.97 -599.483)" fill="#1f2024" fill-rule="evenodd"/>
          <path id="Контур_20523" data-name="Контур 20523" d="M3391.856,648.468a2.059,2.059,0,1,0-2.059-2.059A2.063,2.063,0,0,0,3391.856,648.468Z" transform="translate(-3358.605 -560.02)" fill="#1f2024" fill-rule="evenodd"/>
          <path id="Контур_20524" data-name="Контур 20524" d="M3436.423,651.881a2.059,2.059,0,1,0-2.059-2.059A2.063,2.063,0,0,0,3436.423,651.881Z" transform="translate(-3390.069 -562.43)" fill="#1f2024" fill-rule="evenodd"/>
          <path id="Контур_20525" data-name="Контур 20525" d="M3413.821,665.888a2.059,2.059,0,1,0-2.06-2.059A2.063,2.063,0,0,0,3413.821,665.888Z" transform="translate(-3374.112 -572.319)" fill="#1f2024" fill-rule="evenodd"/>
          <path id="Контур_20526" data-name="Контур 20526" d="M3431.135,701.547a2.059,2.059,0,1,0-2.059-2.059A2.063,2.063,0,0,0,3431.135,701.547Z" transform="translate(-3386.336 -597.494)" fill="#1f2024" fill-rule="evenodd"/>
          <path id="Контур_20527" data-name="Контур 20527" d="M3372.793,673.532a2.059,2.059,0,1,0-2.059-2.059A2.063,2.063,0,0,0,3372.793,673.532Z" transform="translate(-3345.146 -577.715)" fill="#1f2024" fill-rule="evenodd"/>
          <path id="Контур_20528" data-name="Контур 20528" d="M3399.813,693.653a2.059,2.059,0,1,0-2.06-2.059A2.063,2.063,0,0,0,3399.813,693.653Z" transform="translate(-3364.222 -591.921)" fill="#1f2024" fill-rule="evenodd"/>
          <path id="Контур_20529" data-name="Контур 20529" d="M3296.545,668.289a2.059,2.059,0,1,0-2.059-2.059A2.064,2.064,0,0,0,3296.545,668.289Z" transform="translate(-3291.314 -574.014)" fill="#1f2024" fill-rule="evenodd"/>
          <path id="Контур_20530" data-name="Контур 20530" d="M3304.51,631.385a2.059,2.059,0,1,0-2.059-2.059A2.063,2.063,0,0,0,3304.51,631.385Z" transform="translate(-3296.938 -547.959)" fill="#1f2024" fill-rule="evenodd"/>
          <path id="Контур_20531" data-name="Контур 20531" d="M3431.135,595.307a2.059,2.059,0,1,0-2.059-2.059A2.063,2.063,0,0,0,3431.135,595.307Z" transform="translate(-3386.336 -522.487)" fill="#1f2024" fill-rule="evenodd"/>
          <g transform="matrix(1, 0, 0, 1, -105.13, -98.34)" filter="url(#Контур_20532)">
            <path id="Контур_20532-2" data-name="Контур 20532" d="M3340.133,484c6.995-14.074,32.873-2.9,25.943,6.964-2.948,4.2-8.136,12.31-13.161,16.815-9.541,8.555-51.417,23.61-42.822-11.858,1.812-7.477,7.008-17.7,17.33-18.539C3331.609,477.047,3334.753,494.829,3340.133,484Z" transform="translate(-3196.38 -343.78)" fill="#d1e92a" fill-rule="evenodd"/>
          </g>
          <circle id="Эллипс_1345" data-name="Эллипс 1345" cx="1.773" cy="1.773" r="1.773" transform="translate(22.343 37.196)" fill="#1f2024"/>
          <path id="Контур_20533" data-name="Контур 20533" d="M3334.324,509.829a1.77,1.77,0,1,0-1.77-1.77A1.773,1.773,0,0,0,3334.324,509.829Z" transform="translate(-3318.191 -462.547)" fill="#1f2024" fill-rule="evenodd"/>
          <circle id="Эллипс_1346" data-name="Эллипс 1346" cx="1.773" cy="1.773" r="1.773" transform="translate(28.177 44.982)" fill="#1f2024"/>
          <path id="Контур_20534" data-name="Контур 20534" d="M3361.607,536.89a2.059,2.059,0,1,0-2.059-2.059A2.063,2.063,0,0,0,3361.607,536.89Z" transform="translate(-3337.248 -481.244)" fill="#1f2024" fill-rule="evenodd"/>
          <path id="Контур_20535" data-name="Контур 20535" d="M3384.852,564.877a2.059,2.059,0,1,0-2.059-2.059A2.063,2.063,0,0,0,3384.852,564.877Z" transform="translate(-3353.66 -501.003)" fill="#1f2024" fill-rule="evenodd"/>
          <path id="Контур_20536" data-name="Контур 20536" d="M3333.629,555.639a2.059,2.059,0,1,0-2.059-2.059A2.063,2.063,0,0,0,3333.629,555.639Z" transform="translate(-3317.496 -494.481)" fill="#1f2024" fill-rule="evenodd"/>
          <path id="Контур_20537" data-name="Контур 20537" d="M3370.016,595.307a2.059,2.059,0,1,0-2.059-2.059A2.063,2.063,0,0,0,3370.016,595.307Z" transform="translate(-3343.185 -522.487)" fill="#1f2024" fill-rule="evenodd"/>
          <path id="Контур_20538" data-name="Контур 20538" d="M3329.076,586.446a2.059,2.059,0,1,0-2.059-2.059A2.063,2.063,0,0,0,3329.076,586.446Z" transform="translate(-3314.281 -516.232)" fill="#1f2024" fill-rule="evenodd"/>
          <path id="Контур_20539" data-name="Контур 20539" d="M3413.821,579.212a2.059,2.059,0,1,0-2.06-2.059A2.063,2.063,0,0,0,3413.821,579.212Z" transform="translate(-3374.112 -511.124)" fill="#1f2024" fill-rule="evenodd"/>
          <path id="Контур_20540" data-name="Контур 20540" d="M3442.336,561.848a2.059,2.059,0,1,0-2.06-2.059A2.063,2.063,0,0,0,3442.336,561.848Z" transform="translate(-3394.244 -498.865)" fill="#1f2024" fill-rule="evenodd"/>
          <path id="Контур_20541" data-name="Контур 20541" d="M3425.179,500.742a2.059,2.059,0,1,0-2.059-2.059A2.063,2.063,0,0,0,3425.179,500.742Z" transform="translate(-3382.131 -455.723)" fill="#1f2024" fill-rule="evenodd"/>
          <path id="Контур_20542" data-name="Контур 20542" d="M3398.861,494.419a2.059,2.059,0,1,0-2.059-2.059A2.063,2.063,0,0,0,3398.861,494.419Z" transform="translate(-3363.551 -451.259)" fill="#1f2024" fill-rule="evenodd"/>
          <path id="Контур_20543" data-name="Контур 20543" d="M3388.815,469.606a2.059,2.059,0,1,0-2.059-2.059A2.063,2.063,0,0,0,3388.815,469.606Z" transform="translate(-3356.458 -433.741)" fill="#1f2024" fill-rule="evenodd"/>
          <path id="Контур_20544" data-name="Контур 20544" d="M3360.782,466.762a2.059,2.059,0,1,0-2.059-2.059A2.063,2.063,0,0,0,3360.782,466.762Z" transform="translate(-3336.667 -431.733)" fill="#1f2024" fill-rule="evenodd"/>
          <path id="Контур_20545" data-name="Контур 20545" d="M3436.423,534.183a2.059,2.059,0,1,0-2.059-2.059A2.063,2.063,0,0,0,3436.423,534.183Z" transform="translate(-3390.069 -479.333)" fill="#1f2024" fill-rule="evenodd"/>
          <path id="Контур_20546" data-name="Контур 20546" d="M3471.076,536.48a2.059,2.059,0,1,0-2.06-2.059A2.062,2.062,0,0,0,3471.076,536.48Z" transform="translate(-3414.535 -480.955)" fill="#1f2024" fill-rule="evenodd"/>
          <path id="Контур_20547" data-name="Контур 20547" d="M3463.35,512.492a2.059,2.059,0,1,0-2.059-2.059A2.064,2.064,0,0,0,3463.35,512.492Z" transform="translate(-3409.081 -464.019)" fill="#1f2024" fill-rule="evenodd"/>
          <path id="Контур_20548" data-name="Контур 20548" d="M3493.3,505.488a2.059,2.059,0,1,0-2.06-2.059A2.063,2.063,0,0,0,3493.3,505.488Z" transform="translate(-3430.227 -459.074)" fill="#1f2024" fill-rule="evenodd"/>
          <path id="Контур_20549" data-name="Контур 20549" d="M3456.345,487.415a2.059,2.059,0,1,0-2.06-2.059A2.063,2.063,0,0,0,3456.345,487.415Z" transform="translate(-3404.135 -446.314)" fill="#1f2024" fill-rule="evenodd"/>
          <path id="Контур_20550" data-name="Контур 20550" d="M3405.3,534.183a2.059,2.059,0,1,0-2.06-2.059A2.063,2.063,0,0,0,3405.3,534.183Z" transform="translate(-3368.093 -479.333)" fill="#1f2024" fill-rule="evenodd"/>
        </g>
        <g id="Сгруппировать_4748" data-name="Сгруппировать 4748" transform="translate(0 4.417)">
          <g id="Сгруппировать_4747" data-name="Сгруппировать 4747" transform="translate(0 0)">
            <path id="Контур_20433" data-name="Контур 20433" d="M3012.969,481.5c1.846,0,21.178,14.062,22.461,13.581,5.105-1.916,9.911-7.2,10.19-5.75,3.759,11.011-5.837,31.654-9.505,36.094-.685.649-5.482,1.043-10.262-1.267C3010.528,516.751,3007.706,496.178,3012.969,481.5Z" transform="translate(-3010.534 -449.588)" fill="#ef4864" fill-rule="evenodd"/>
            <g transform="matrix(1, 0, 0, 1, -46.56, -102.76)" filter="url(#Контур_20434)">
              <path id="Контур_20434-2" data-name="Контур 20434" d="M3092.861,381.8c.173-.434,2.743-1.279,3.656-2.786,1.411-2.327,1.272-3.83,2.177-4.266,2.351-1.132,3.624.435,6.337-.121,2.958-.606,4-1.946,5.533-1.614,3,.651,2.06,4.086,4.235,5.566,2.318,1.576,5.883,1.139,6.7,2.96.586,1.3.119,1.849-.261,3.308a2.516,2.516,0,0,0,.876,3.177c1.3,1.176,2.691,1.2,3.825,1.96,1.373.915,2.156,2.354,1.741,2.873a10.3,10.3,0,0,1-.348,1.045c-.459.792-1.5,1.578-1.044,2.438,1.079,2.026,7.068,4.009,4.091,6.529-.878.743-2.228,1.494-2.351,2.786-.083.871-.121,4.363-.783,4.527-1.873.464-6.458-7.187-10.012-10.012-3.037-2.413-6.867-.551-6.964-.609-.89.612-3.7.536-5.808.536-1.206,0-1.576-4.247-4.2-5.063-.844-.262-2-.208-2.873-.784a2.9,2.9,0,0,1-1.306-1.306c-.843-1.811.579-4.3-1.479-6.616C3093.286,384.841,3092.1,383.715,3092.861,381.8Z" transform="translate(-3021.93 -270.2)" fill="#1f2024" fill-rule="evenodd"/>
            </g>
            <path id="Контур_20435" data-name="Контур 20435" d="M3121.549,405.389a5.528,5.528,0,0,1,4.9,8.105,1.351,1.351,0,0,1-1.764,1.981,5.53,5.53,0,1,1-3.132-10.086Z" transform="translate(-3085.006 -395.854)" fill="#00a7cf" fill-rule="evenodd"/>
            <path id="Контур_20436" data-name="Контур 20436" d="M3141.8,445.847l1.3-1.034,1.3,5.726-1.3.89Z" transform="translate(-3103.21 -423.689)" fill="#10758e" fill-rule="evenodd"/>
            <g transform="matrix(1, 0, 0, 1, -46.56, -102.76)" filter="url(#Контур_20437)">
              <path id="Контур_20437-2" data-name="Контур 20437" d="M3089.035,455.935l19.06-11.122c-.123,8.017,2.051,10.442,4.7,13.222,1.088,1.141,2.7,1.912,3.57,3.831,4.44,9.816,4.647,29.243,6.877,41.091,1.618,8.6,2.945,14.084,4.97,22.282.11.443,0,.438.11.9,0,0-1.728-.011-6.239,0s-11.805.045-11.805.045-23.562-.062-33.814,0c1.626-9.088,2.189-15.4,4.99-23.4,3.324-9.5,8.692-19.334,10.621-30.122C3092.788,468.681,3092.251,460.125,3089.035,455.935Z" transform="translate(-3010.52 -320.93)" fill="#ca3750" fill-rule="evenodd"/>
            </g>
            <path id="Контур_20438" data-name="Контур 20438" d="M3029.073,445.665c.166,0,.758,2.6,1.48,4.962.353,1.153.954,2.406,1.132,2.96.783,2.437,1.412,4.415,1.654,5.67l-1.491.09s-.422-4.1-1.9-6.021c-.449-.58-1.057-.732-1.305-1.219C3027.861,450.586,3028.551,449.409,3029.073,445.665Z" transform="translate(-3023.07 -424.29)" fill="#00a7cf" fill-rule="evenodd"/>
            <path id="Контур_20439" data-name="Контур 20439" d="M3042.326,493.729l-1.761-1.162-.222-.628s1.247-.1,1.511-.063C3042.041,492.34,3041.964,492.633,3042.326,493.729Z" transform="translate(-3031.585 -456.908)" fill="#10758e" fill-rule="evenodd"/>
            <path id="Контур_20440" data-name="Контур 20440" d="M3033.773,448.606s-.564.4-1.2-1.168c-.358-.887-.656-2.233-.987-3.4-.49-1.725-.95-3.181-.95-3.181l-.256-2.347a1.128,1.128,0,0,1,.428-.011,25.929,25.929,0,0,1,1.133,3.838C3032.689,444.931,3033.635,447.888,3033.773,448.606Z" transform="translate(-3024.549 -419.221)" fill="#1f2024" fill-rule="evenodd"/>
            <g transform="matrix(1, 0, 0, 1, -46.56, -102.76)" filter="url(#Контур_20441)">
              <path id="Контур_20441-2" data-name="Контур 20441" d="M3132.838,403.417c-.345-.592-.491-.907-4.375-1.058-1.121.069-3.585-2.31-3.375-3.676a22.536,22.536,0,0,1,2.445-2.371c.144.019,5.264-1.2,5.691.425C3133.686,398.5,3134.923,407,3132.838,403.417Z" transform="translate(-3044.84 -286.39)" fill="#1f2024" fill-rule="evenodd"/>
            </g>
            <path id="Контур_20442" data-name="Контур 20442" d="M3142.221,494.823l.39,1.192,1.269,0-1.028.734.394,1.191-1.026-.738-1.025.738.394-1.191-1.029-.734,1.27,0Z" transform="translate(-3102.336 -458.996)" fill="#fff" fill-rule="evenodd"/>
            <path id="Контур_20443" data-name="Контур 20443" d="M3171.064,458.7l.39,1.192,1.269,0-1.028.734.395,1.191-1.026-.738-1.025.738.395-1.191-1.028-.734,1.269,0Z" transform="translate(-3122.699 -433.491)" fill="#fff" fill-rule="evenodd"/>
            <path id="Контур_20444" data-name="Контур 20444" d="M3171.064,490.776l.39,1.192,1.269,0-1.028.734.395,1.191-1.026-.738-1.025.738.395-1.191-1.028-.734,1.269,0Z" transform="translate(-3122.699 -456.139)" fill="#fff" fill-rule="evenodd"/>
            <path id="Контур_20445" data-name="Контур 20445" d="M3149.672,473.062l.39,1.192,1.269,0-1.028.734.394,1.191-1.025-.738-1.025.738.395-1.191-1.028-.734,1.269,0Z" transform="translate(-3107.596 -443.633)" fill="#fff" fill-rule="evenodd"/>
            <path id="Контур_20446" data-name="Контур 20446" d="M3136.287,528.153l.39,1.192,1.269,0-1.028.734.394,1.191-1.025-.738-1.026.738.394-1.191-1.028-.734,1.269,0Z" transform="translate(-3098.146 -482.527)" fill="#fff" fill-rule="evenodd"/>
            <path id="Контур_20447" data-name="Контур 20447" d="M3130.643,560.232l.39,1.192,1.27,0-1.029.734.395,1.191-1.025-.738-1.025.738.395-1.191-1.028-.734,1.27,0Z" transform="translate(-3094.162 -505.176)" fill="#fff" fill-rule="evenodd"/>
            <path id="Контур_20448" data-name="Контур 20448" d="M3119.354,591.2l.39,1.192,1.27,0-1.029.734.394,1.19-1.025-.738-1.026.738.395-1.19-1.028-.734,1.269,0Z" transform="translate(-3086.191 -527.043)" fill="#fff" fill-rule="evenodd"/>
            <path id="Контур_20449" data-name="Контур 20449" d="M3113.709,618.96l.39,1.192,1.27,0-1.029.734.395,1.191-1.025-.738-1.025.738.395-1.191-1.028-.734,1.27,0Z" transform="translate(-3082.206 -546.638)" fill="#fff" fill-rule="evenodd"/>
            <path id="Контур_20450" data-name="Контур 20450" d="M3097.4,638.069l.39,1.192,1.27,0-1.028.734.395,1.191-1.026-.738-1.026.738.4-1.191-1.029-.734,1.27,0Z" transform="translate(-3070.688 -560.13)" fill="#fff" fill-rule="evenodd"/>
            <path id="Контур_20451" data-name="Контур 20451" d="M3108.352,658.256l.39,1.192,1.269,0-1.028.734.395,1.191-1.025-.738-1.026.738.395-1.191-1.029-.734,1.269,0Z" transform="translate(-3078.424 -574.382)" fill="#fff" fill-rule="evenodd"/>
            <path id="Контур_20452" data-name="Контур 20452" d="M3203.456,505.418l.39,1.192,1.27,0-1.029.734.395,1.191-1.026-.738-1.025.738.395-1.191-1.029-.734,1.27,0Z" transform="translate(-3145.568 -466.476)" fill="#fff" fill-rule="evenodd"/>
            <path id="Контур_20453" data-name="Контур 20453" d="M3207.592,533.45l.39,1.192,1.269,0-1.028.734.4,1.19-1.026-.738-1.025.738.395-1.19-1.029-.734,1.27,0Z" transform="translate(-3148.488 -486.267)" fill="#fff" fill-rule="evenodd"/>
            <path id="Контур_20454" data-name="Контур 20454" d="M3213.237,565.529l.39,1.192,1.269,0-1.028.734.395,1.191-1.025-.738-1.025.738.395-1.191-1.028-.734,1.27,0Z" transform="translate(-3152.474 -508.916)" fill="#fff" fill-rule="evenodd"/>
            <path id="Контур_20455" data-name="Контур 20455" d="M3214.039,599.9l.39,1.192,1.269,0-1.028.734.395,1.191-1.026-.738-1.025.738.395-1.191-1.029-.734,1.27,0Z" transform="translate(-3153.04 -533.182)" fill="#fff" fill-rule="evenodd"/>
            <path id="Контур_20456" data-name="Контур 20456" d="M3221.878,634.271l.39,1.192,1.27,0-1.029.734.395,1.19-1.026-.738-1.025.738.395-1.19-1.028-.734,1.269,0Z" transform="translate(-3158.575 -557.449)" fill="#fff" fill-rule="evenodd"/>
            <path id="Контур_20457" data-name="Контур 20457" d="M3209.342,660.986l.39,1.192,1.27,0-1.029.734.395,1.191-1.025-.738-1.025.738.394-1.191-1.028-.734,1.269,0Z" transform="translate(-3149.723 -576.309)" fill="#fff" fill-rule="evenodd"/>
            <path id="Контур_20458" data-name="Контур 20458" d="M3227.523,671.581l.39,1.192,1.269,0-1.028.734.395,1.191-1.026-.738-1.025.738.394-1.191-1.029-.734,1.27,0Z" transform="translate(-3162.56 -583.789)" fill="#fff" fill-rule="evenodd"/>
            <path id="Контур_20459" data-name="Контур 20459" d="M3225.328,703.66l.39,1.192,1.269,0-1.028.734.395,1.191-1.025-.738-1.026.738.395-1.191-1.029-.734,1.27,0Z" transform="translate(-3161.01 -606.438)" fill="#fff" fill-rule="evenodd"/>
            <path id="Контур_20460" data-name="Контур 20460" d="M3213.237,684.238l.39,1.192,1.269,0-1.028.734.395,1.191-1.025-.738-1.025.738.395-1.191-1.028-.734,1.27,0Z" transform="translate(-3152.474 -592.726)" fill="#fff" fill-rule="evenodd"/>
            <path id="Контур_20461" data-name="Контур 20461" d="M3186.428,678.941l.39,1.192,1.27,0-1.029.734.4,1.19-1.026-.738-1.026.738.4-1.19-1.029-.734,1.269,0Z" transform="translate(-3133.546 -588.986)" fill="#fff" fill-rule="evenodd"/>
            <path id="Контур_20462" data-name="Контур 20462" d="M3166.611,676.466l.39,1.192,1.269,0-1.028.734.395,1.191-1.026-.738-1.025.738.395-1.191-1.029-.734,1.269,0Z" transform="translate(-3119.555 -587.239)" fill="#fff" fill-rule="evenodd"/>
            <path id="Контур_20463" data-name="Контур 20463" d="M3143.71,684.6l.39,1.192,1.269,0-1.028.734.394,1.191-1.025-.738-1.026.738.395-1.191-1.028-.734,1.269,0Z" transform="translate(-3103.386 -592.979)" fill="#fff" fill-rule="evenodd"/>
            <path id="Контур_20464" data-name="Контур 20464" d="M3119.354,681.764l.39,1.192,1.27,0-1.029.734.394,1.191-1.025-.738-1.026.738.395-1.191-1.028-.734,1.269,0Z" transform="translate(-3086.191 -590.979)" fill="#fff" fill-rule="evenodd"/>
            <path id="Контур_20465" data-name="Контур 20465" d="M3095,678.931l.39,1.192,1.269,0-1.028.734.395,1.191-1.026-.738-1.025.738.395-1.191-1.029-.734,1.269,0Z" transform="translate(-3068.996 -588.979)" fill="#fff" fill-rule="evenodd"/>
            <path id="Контур_20466" data-name="Контур 20466" d="M3102.421,699.605l.39,1.192,1.27,0-1.029.734.4,1.191-1.025-.738-1.026.738.395-1.191-1.028-.734,1.27,0Z" transform="translate(-3074.236 -603.575)" fill="#fff" fill-rule="evenodd"/>
            <path id="Контур_20467" data-name="Контур 20467" d="M3128.812,704.9l.39,1.192,1.269,0-1.028.734.394,1.191-1.026-.738-1.026.738.394-1.191-1.028-.734,1.269,0Z" transform="translate(-3092.868 -607.315)" fill="#fff" fill-rule="evenodd"/>
            <path id="Контур_20468" data-name="Контур 20468" d="M3085.444,707.608l.39,1.192,1.269,0-1.029.734.4,1.191-1.025-.738-1.026.738.395-1.191-1.028-.734,1.27,0Z" transform="translate(-3062.25 -609.225)" fill="#fff" fill-rule="evenodd"/>
            <path id="Контур_20469" data-name="Контур 20469" d="M3155.2,706.571l.391,1.192,1.269,0-1.028.734.395,1.191-1.026-.738-1.025.738.395-1.191-1.029-.734,1.27,0Z" transform="translate(-3111.5 -608.493)" fill="#fff" fill-rule="evenodd"/>
            <path id="Контур_20470" data-name="Контур 20470" d="M3178.886,700.842l.39,1.192,1.27,0-1.028.734.395,1.191-1.025-.738-1.025.738.394-1.191-1.028-.734,1.27,0Z" transform="translate(-3128.221 -604.448)" fill="#fff" fill-rule="evenodd"/>
            <path id="Контур_20471" data-name="Контур 20471" d="M3198.052,708.958l.39,1.192,1.269,0-1.028.734.395,1.19-1.026-.738-1.025.738.395-1.19-1.028-.734,1.269,0Z" transform="translate(-3141.753 -610.178)" fill="#fff" fill-rule="evenodd"/>
            <g transform="matrix(1, 0, 0, 1, -46.56, -102.76)" filter="url(#Контур_20472)">
              <path id="Контур_20472-2" data-name="Контур 20472" d="M3131.875,501.371c1.4,0,6.219,4.611,8.1,13.658,1.991,9.6-.422,26.78,1.567,34.823-7.541-1.264-24.725,1.567-31.515,2.263.544-3.042,2.306-5.649,2.96-8.358,2.645-10.949,4.763-19.474,6.382-25.267A28.684,28.684,0,0,1,3131.875,501.371Z" transform="translate(-3034.21 -360.86)" fill="#ef4864" fill-rule="evenodd"/>
            </g>
            <path id="Контур_20473" data-name="Контур 20473" d="M3162.266,671.1l1.49-.306-.874-3.461s-1.079.126-1.344.162C3161.131,667.552,3162.1,670.473,3162.266,671.1Z" transform="translate(-3117.096 -580.817)" fill="#10758e" fill-rule="evenodd"/>
            <path id="Контур_20474" data-name="Контур 20474" d="M3171.368,686.831s-3.126-4.124-5.1-7.468a15.472,15.472,0,0,1-1.609-3.952s-1.584.031-1.527.292C3163.952,679.465,3167.547,685.248,3171.368,686.831Z" transform="translate(-3118.266 -586.494)" fill="#00a7cf" fill-rule="evenodd"/>
            <path id="Контур_20475" data-name="Контур 20475" d="M3179.228,507.515l.389,1.192,1.27,0-1.029.734.394,1.191-1.025-.738-1.026.738.394-1.191-1.029-.734,1.27,0Z" transform="translate(-3128.462 -467.957)" fill="#fff" fill-rule="evenodd"/>
            <path id="Контур_20476" data-name="Контур 20476" d="M3163.455,530l.39,1.192,1.269,0-1.028.734.394,1.19-1.025-.738-1.025.738.394-1.19-1.028-.734,1.269,0Z" transform="translate(-3117.327 -483.829)" fill="#fff" fill-rule="evenodd"/>
            <path id="Контур_20477" data-name="Контур 20477" d="M3188.716,533.45l.39,1.192,1.27,0-1.028.734.394,1.19-1.025-.738-1.025.738.394-1.19-1.028-.734,1.27,0Z" transform="translate(-3135.161 -486.267)" fill="#fff" fill-rule="evenodd"/>
            <path id="Контур_20478" data-name="Контур 20478" d="M3171.94,560.232l.39,1.192,1.269,0-1.028.734.394,1.191-1.025-.738-1.026.738.4-1.191-1.029-.734,1.27,0Z" transform="translate(-3123.317 -505.176)" fill="#fff" fill-rule="evenodd"/>
            <path id="Контур_20479" data-name="Контур 20479" d="M3147.554,567.27l.39,1.192,1.27,0-1.028.734.394,1.191-1.025-.738-1.025.738.394-1.191-1.028-.734,1.27,0Z" transform="translate(-3106.1 -510.145)" fill="#fff" fill-rule="evenodd"/>
            <path id="Контур_20480" data-name="Контур 20480" d="M3113.709,522.856l.39,1.192,1.27,0-1.029.734.395,1.191-1.025-.738-1.025.738.395-1.191-1.028-.734,1.27,0Z" transform="translate(-3082.206 -478.787)" fill="#fff" fill-rule="evenodd"/>
            <path id="Контур_20481" data-name="Контур 20481" d="M3108.065,551.758l.39,1.192,1.269,0-1.028.734.395,1.191-1.026-.738-1.025.738.395-1.191-1.028-.734,1.269,0Z" transform="translate(-3078.221 -499.193)" fill="#fff" fill-rule="evenodd"/>
            <path id="Контур_20482" data-name="Контур 20482" d="M3069.205,591.205l.39,1.192,1.269,0-1.028.734.395,1.191-1.026-.738-1.026.738.4-1.191-1.029-.734,1.27,0Z" transform="translate(-3050.785 -527.043)" fill="#fff" fill-rule="evenodd"/>
            <path id="Контур_20483" data-name="Контур 20483" d="M3094.28,585.908l.39,1.192,1.27,0-1.029.734.395,1.191-1.025-.738-1.025.738.395-1.191-1.028-.734,1.27,0Z" transform="translate(-3068.488 -523.303)" fill="#fff" fill-rule="evenodd"/>
            <path id="Контур_20484" data-name="Контур 20484" d="M3060.4,565.53l.39,1.192,1.269,0-1.028.734.395,1.191-1.026-.738-1.025.738.395-1.191-1.029-.734,1.27,0Z" transform="translate(-3044.567 -508.916)" fill="#fff" fill-rule="evenodd"/>
            <path id="Контур_20485" data-name="Контур 20485" d="M3063.561,541.164l.39,1.192,1.269,0-1.028.734.394,1.19-1.026-.738-1.025.738.395-1.19-1.029-.734,1.27,0Z" transform="translate(-3046.8 -491.713)" fill="#fff" fill-rule="evenodd"/>
            <path id="Контур_20486" data-name="Контур 20486" d="M3057.917,518.11l.39,1.192,1.269,0-1.028.734.395,1.191-1.025-.738-1.026.738.395-1.191-1.028-.734,1.27,0Z" transform="translate(-3042.815 -475.437)" fill="#fff" fill-rule="evenodd"/>
            <path id="Контур_20487" data-name="Контур 20487" d="M3044.131,554.935l.39,1.192,1.269,0-1.028.734.394,1.19-1.026-.738-1.025.738.395-1.19-1.029-.734,1.27,0Z" transform="translate(-3033.083 -501.436)" fill="#fff" fill-rule="evenodd"/>
            <path id="Контур_20488" data-name="Контур 20488" d="M3043.773,533.479l.389,1.192,1.27,0-1.029.734.395,1.191-1.025-.738-1.026.738.395-1.191-1.028-.734,1.269,0Z" transform="translate(-3032.83 -486.288)" fill="#fff" fill-rule="evenodd"/>
            <path id="Контур_20489" data-name="Контур 20489" d="M3032.135,511.043l.39,1.192,1.27,0-1.029.734.4,1.191-1.026-.738-1.026.738.395-1.191-1.028-.734,1.269,0Z" transform="translate(-3024.614 -470.448)" fill="#fff" fill-rule="evenodd"/>
            <path id="Контур_20490" data-name="Контур 20490" d="M3018.66,496.073l.39,1.192,1.269,0-1.029.734.394,1.191-1.025-.738-1.025.738.395-1.191-1.029-.734,1.269,0Z" transform="translate(-3015.1 -459.879)" fill="#fff" fill-rule="evenodd"/>
            <path id="Контур_20491" data-name="Контур 20491" d="M3020.755,535.866l.389,1.192,1.27,0-1.029.734.4,1.191-1.026-.738-1.026.738.395-1.191-1.028-.734,1.27,0Z" transform="translate(-3016.579 -487.973)" fill="#fff" fill-rule="evenodd"/>
            <path id="Контур_20492" data-name="Контур 20492" d="M3026.4,570.016l.39,1.192,1.27,0-1.028.734.394,1.191-1.025-.738-1.025.738.394-1.191-1.029-.734,1.27,0Z" transform="translate(-3020.564 -512.083)" fill="#fff" fill-rule="evenodd"/>
            <path id="Контур_20493" data-name="Контур 20493" d="M3044.131,587.211l.39,1.192,1.269,0-1.028.734.394,1.191-1.026-.738-1.025.738.395-1.191-1.029-.734,1.27,0Z" transform="translate(-3033.083 -524.223)" fill="#fff" fill-rule="evenodd"/>
            <path id="Контур_20494" data-name="Контур 20494" d="M3088.635,561.973l.389,1.192,1.27,0-1.029.734.395,1.19-1.025-.738-1.026.738.395-1.19-1.028-.734,1.269,0Z" transform="translate(-3064.503 -506.405)" fill="#fff" fill-rule="evenodd"/>
            <path id="Контур_20495" data-name="Контур 20495" d="M3086.108,538.038l.39,1.192,1.269,0-1.028.734.395,1.191-1.025-.738-1.026.738.395-1.191-1.028-.734,1.269,0Z" transform="translate(-3062.719 -489.506)" fill="#fff" fill-rule="evenodd"/>
            <path id="Контур_20496" data-name="Контур 20496" d="M3071.687,614.76l.39,1.192,1.27,0-1.029.734.395,1.191-1.026-.738-1.025.738.395-1.191-1.029-.734,1.27,0Z" transform="translate(-3052.537 -543.673)" fill="#fff" fill-rule="evenodd"/>
            <path id="Контур_20497" data-name="Контур 20497" d="M3192.167,580.61l.39,1.192,1.269,0-1.028.734.395,1.191-1.026-.738-1.025.738.395-1.191-1.029-.734,1.27,0Z" transform="translate(-3137.598 -519.563)" fill="#fff" fill-rule="evenodd"/>
            <path id="Контур_20498" data-name="Контур 20498" d="M3166.7,596.5l.39,1.192,1.27,0-1.028.734.394,1.191-1.025-.738-1.025.738.394-1.191-1.029-.734,1.269,0Z" transform="translate(-3119.615 -530.783)" fill="#fff" fill-rule="evenodd"/>
            <path id="Контур_20499" data-name="Контур 20499" d="M3141.226,612.394l.39,1.192,1.27,0-1.029.734.395,1.191-1.026-.738-1.025.738.395-1.191-1.029-.734,1.269,0Z" transform="translate(-3101.633 -542.003)" fill="#fff" fill-rule="evenodd"/>
            <path id="Контур_20500" data-name="Контур 20500" d="M3163.455,639.569l.39,1.192,1.269,0-1.028.734.394,1.191-1.025-.738-1.025.738.394-1.191-1.028-.734,1.269,0Z" transform="translate(-3117.327 -561.189)" fill="#fff" fill-rule="evenodd"/>
            <path id="Контур_20501" data-name="Контур 20501" d="M3196.16,647.763l.39,1.192,1.269,0-1.028.734.394,1.191-1.025-.738-1.026.738.4-1.191-1.029-.734,1.269,0Z" transform="translate(-3140.417 -566.974)" fill="#fff" fill-rule="evenodd"/>
            <path id="Контур_20502" data-name="Контур 20502" d="M3190.516,617.691l.39,1.192,1.27,0-1.029.734.394,1.191-1.026-.738-1.025.738.395-1.191-1.029-.734,1.269,0Z" transform="translate(-3136.432 -545.743)" fill="#fff" fill-rule="evenodd"/>
            <path id="Контур_20503" data-name="Контур 20503" d="M3125,650.163l.39,1.192,1.27,0-1.029.734.395,1.191L3125,652.54l-1.025.738.395-1.191-1.029-.734,1.269,0Z" transform="translate(-3090.176 -568.668)" fill="#fff" fill-rule="evenodd"/>
          </g>
        </g>
      </g>
      <circle id="Эллипс_1347" data-name="Эллипс 1347" cx="0.605" cy="0.605" r="0.605" transform="translate(8.438 22.662)" fill="#ef4864"/>
      <circle id="Эллипс_1356" data-name="Эллипс 1356" cx="1.211" cy="1.211" r="1.211" transform="translate(116.176 15.399)" fill="#24272d"/>
      <ellipse id="Эллипс_1348" data-name="Эллипс 1348" cx="2.421" cy="1.816" rx="2.421" ry="1.816" transform="translate(3.596 16.609)" fill="#00a7cf"/>
      <path id="Контур_20552" data-name="Контур 20552" d="M1.594,0A1.594,1.594,0,1,1,0,1.594,1.594,1.594,0,0,1,1.594,0Z" transform="translate(118.12 9.145)" fill="#ef4864"/>
      <circle id="Эллипс_1349" data-name="Эллипс 1349" cx="1.816" cy="1.816" r="1.816" transform="translate(10.859 16.609)" fill="#d1e92a"/>
      <ellipse id="Эллипс_1355" data-name="Эллипс 1355" cx="1.816" cy="1.211" rx="1.816" ry="1.211" transform="translate(111.334 10.556)" fill="#d1e92a"/>
      <ellipse id="Эллипс_1350" data-name="Эллипс 1350" cx="1.816" cy="2.421" rx="1.816" ry="2.421" transform="translate(8.438 10.556)" fill="#24272d"/>
      <path id="Контур_20551" data-name="Контур 20551" d="M1.86,0A1.86,1.86,0,1,1,0,1.86,1.86,1.86,0,0,1,1.86,0Z" transform="translate(113.869 4.363)" fill="#00a7cf"/>
      <ellipse id="Эллипс_1351" data-name="Эллипс 1351" cx="2.421" cy="1.816" rx="2.421" ry="1.816" transform="translate(3.596 8.135)" fill="#ef4864"/>
      <circle id="Эллипс_1353" data-name="Эллипс 1353" cx="1.211" cy="1.211" r="1.211" transform="translate(118.598 0.872)" fill="#d1e92a"/>
      <ellipse id="Эллипс_1352" data-name="Эллипс 1352" cx="1.816" cy="1.211" rx="1.816" ry="1.211" transform="translate(13.28 9.346)" fill="#00a7cf"/>
      <ellipse id="Эллипс_1358" data-name="Эллипс 1358" cx="1.816" cy="1.211" rx="1.816" ry="1.211" transform="translate(108.913 2.083)" fill="#24272d"/>
    </g>
    <g id="Сгруппировать_4752" data-name="Сгруппировать 4752" transform="translate(5032.414 -16005.493)">
      <text id="Начните_обучение_с_" data-name="Начните обучение с " transform="translate(31.71 8)" fill="#24272d" font-size="12" font-family="SegoeUI, Segoe UI"><tspan x="0" y="0">Начните обучение с </tspan></text>
      <g id="Сгруппировать_4751" data-name="Сгруппировать 4751" transform="translate(31.417 11.947)">
        <path id="Контур_20388" data-name="Контур 20388" d="M5061.891,1272.356a4.513,4.513,0,0,0,.982,3.176c1.571,1.823,3.909,2.062,5.769,3.282.461.3.865.849.531,1.4-.627,1.036-3.15.3-4.007-.1a6.719,6.719,0,0,1-1.548-1.005c-.34.306-2.165,2.181-2.746,2.773a9.942,9.942,0,0,0,6.188,2.483,7.562,7.562,0,0,0,5.175-1.715,4.462,4.462,0,0,0,.725-5.739c-1.575-2.256-6-2.879-6.668-4.074-.36-.65.268-1.478,1.371-1.508a7.293,7.293,0,0,1,3.485,1.267c.357-.358,1.93-1.942,2.433-2.454a7.376,7.376,0,0,0-5.121-2.33C5065.524,1267.723,5062.25,1269.125,5061.891,1272.356Z" transform="translate(-5060.872 -1265.06)" fill="#24272d" fill-rule="evenodd"/>
        <path id="Контур_20389" data-name="Контур 20389" d="M5196.879,1284.4h4.263v-9.506a2.741,2.741,0,0,1,2.733-2.733h.432v-4.306h-1.013a6.433,6.433,0,0,0-6.415,6.415Z" transform="translate(-5147.177 -1265.092)" fill="#24272d" fill-rule="evenodd"/>
        <path id="Контур_20390" data-name="Контур 20390" d="M5277.58,1260.36h4.282v2.714h3.52v4.579h-3.52v4.97a2.754,2.754,0,0,0,2.746,2.746h.435v4.325h-1.02a6.462,6.462,0,0,1-6.443-6.444v-5.6h-2.059v-4.579h2.059Z" transform="translate(-5197.082 -1260.335)" fill="#24272d" fill-rule="evenodd"/>
        <path id="Контур_20391" data-name="Контур 20391" d="M5236.04,1284.351h4.161v-7.139c-.022-.349,0-.7,0-1.064a8.364,8.364,0,1,0-4.161,7.234v.969Zm-4.205-4.266a3.937,3.937,0,1,1,3.937-3.937A3.938,3.938,0,0,1,5231.835,1280.085Z" transform="translate(-5164.049 -1265.045)" fill="#24272d" fill-rule="evenodd"/>
        <path id="Контур_20392" data-name="Контур 20392" d="M5110.651,1284.4a8.272,8.272,0,1,1,8.271-8.273,8.273,8.273,0,0,1-8.271,8.273Zm0-4.385a3.888,3.888,0,1,0-3.889-3.888A3.888,3.888,0,0,0,5110.651,1280.016Z" transform="translate(-5087.21 -1265.092)" fill="#24272d" fill-rule="evenodd"/>
        <path id="Контур_20393" data-name="Контур 20393" d="M5163.025,1279.6h4.4v-3.972a6.679,6.679,0,0,0-3.163-5.663,2.741,2.741,0,0,1,2.73-2.626h.433v-4.306h-1.014a6.436,6.436,0,0,0-6.4,5.93h-1.53v-8.66l-4.416-.011v16.281h4.416v-3.307h1.73a2.815,2.815,0,0,1,2.807,2.807Z" transform="translate(-5120.013 -1260.293)" fill="#24272d" fill-rule="evenodd"/>
        <circle id="Эллипс_1325" data-name="Эллипс 1325" cx="2.149" cy="2.149" r="2.149" transform="translate(90.265 15.041)" fill="#24272d"/>
      </g>
      <g id="Сгруппировать_4742" data-name="Сгруппировать 4742" transform="translate(0 2.425)">
        <g id="Icons" transform="translate(0)">
          <path id="Контур_20432" data-name="Контур 20432" d="M15.515,30.987a4.66,4.66,0,0,1-4.644-4.246,4.649,4.649,0,0,1-3.386-7.333,3.861,3.861,0,0,1,.987-7.333,3.782,3.782,0,0,1-.349-1.6,3.877,3.877,0,0,1,2.767-3.713,3.714,3.714,0,0,1-.107-.88A3.89,3.89,0,0,1,14.769,2a3.976,3.976,0,0,1,3.774,4.017V28.556A2.319,2.319,0,0,1,16.9,30.78a4.666,4.666,0,0,1-1.388.207ZM14.668,2.826a3.039,3.039,0,0,0-2.865,4.1.414.414,0,0,1-.318.546,3.053,3.053,0,0,0-2.532,3,2.92,2.92,0,0,0,.543,1.715.414.414,0,0,1-.336.656A3.091,3.091,0,0,0,6.041,15.9a3.049,3.049,0,0,0,2.236,2.917.414.414,0,0,1,.2.677,3.876,3.876,0,0,0-1.026,2.6,3.833,3.833,0,0,0,3.82,3.837.414.414,0,0,1,.414.414,3.838,3.838,0,0,0,4.974,3.644,1.494,1.494,0,0,0,1.06-1.432V6.014a3.141,3.141,0,0,0-2.967-3.189Z" transform="translate(-5.213 -1.995)" fill="#24272d"/>
        </g>
        <g id="Icons-2" data-name="Icons" transform="translate(14.082)">
          <path id="Контур_20432-2" data-name="Контур 20432" d="M8.241,30.987a4.66,4.66,0,0,0,4.644-4.246,4.649,4.649,0,0,0,3.386-7.333,3.861,3.861,0,0,0-.987-7.333,3.782,3.782,0,0,0,.349-1.6,3.877,3.877,0,0,0-2.767-3.713,3.714,3.714,0,0,0,.107-.88A3.89,3.89,0,0,0,8.988,2,3.976,3.976,0,0,0,5.214,6.014V28.556a2.319,2.319,0,0,0,1.64,2.224,4.666,4.666,0,0,0,1.388.207ZM9.089,2.826a3.039,3.039,0,0,1,2.865,4.1.414.414,0,0,0,.318.546,3.053,3.053,0,0,1,2.532,3,2.92,2.92,0,0,1-.543,1.715.414.414,0,0,0,.336.656A3.091,3.091,0,0,1,17.716,15.9a3.049,3.049,0,0,1-2.236,2.917.414.414,0,0,0-.2.677,3.876,3.876,0,0,1,1.026,2.6,3.833,3.833,0,0,1-3.82,3.837.414.414,0,0,0-.414.414A3.838,3.838,0,0,1,7.1,29.988a1.494,1.494,0,0,1-1.06-1.432V6.014A3.141,3.141,0,0,1,9.009,2.826Z" transform="translate(-5.213 -1.995)" fill="#24272d"/>
        </g>
        <circle id="Эллипс_1327" data-name="Эллипс 1327" cx="2.318" cy="2.318" r="2.318" transform="translate(7.168 1.598)" fill="#24272d"/>
        <circle id="Эллипс_1339" data-name="Эллипс 1339" cx="2.304" cy="2.304" r="2.304" transform="translate(15.634 1.627)" fill="#ef4864"/>
        <ellipse id="Эллипс_1328" data-name="Эллипс 1328" cx="2.827" cy="2.771" rx="2.827" ry="2.771" transform="translate(4.341 6.009)" fill="#d1e92a"/>
        <ellipse id="Эллипс_1337" data-name="Эллипс 1337" cx="2.816" cy="2.816" rx="2.816" ry="2.816" transform="translate(17.427 5.981)" fill="#00a7cf"/>
        <ellipse id="Эллипс_1329" data-name="Эллипс 1329" cx="2.545" cy="2.601" rx="2.545" ry="2.601" transform="translate(1.513 11.324)" fill="#ef4864"/>
        <ellipse id="Эллипс_1336" data-name="Эллипс 1336" cx="2.56" cy="2.56" rx="2.56" ry="2.56" transform="translate(20.755 11.357)" fill="#24272d"/>
        <circle id="Эллипс_1330" data-name="Эллипс 1330" cx="2.94" cy="2.94" r="2.94" transform="translate(2.871 17.204)" fill="#00a7cf"/>
        <ellipse id="Эллипс_1340" data-name="Эллипс 1340" cx="2.944" cy="2.944" rx="2.944" ry="2.944" transform="translate(18.707 17.247)" fill="#d1e92a"/>
        <circle id="Эллипс_1331" data-name="Эллипс 1331" cx="2.431" cy="2.431" r="2.431" transform="translate(7.394 22.635)" fill="#ef4864"/>
        <ellipse id="Эллипс_1344" data-name="Эллипс 1344" cx="2.432" cy="2.432" rx="2.432" ry="2.432" transform="translate(15.122 22.623)" fill="#24272d"/>
        <ellipse id="Эллипс_1332" data-name="Эллипс 1332" cx="2.658" cy="2.714" rx="2.658" ry="2.714" transform="translate(6.942 12.341)" fill="#24272d"/>
        <ellipse id="Эллипс_1338" data-name="Эллипс 1338" cx="2.688" cy="2.688" rx="2.688" ry="2.688" transform="translate(15.122 12.382)" fill="#ef4864"/>
        <circle id="Эллипс_1333" data-name="Эллипс 1333" cx="1.244" cy="1.244" r="1.244" transform="translate(9.769 9.628)" fill="#00a7cf"/>
        <ellipse id="Эллипс_1342" data-name="Эллипс 1342" cx="1.28" cy="1.28" rx="1.28" ry="1.28" transform="translate(15.122 9.565)" fill="#d1e92a"/>
        <circle id="Эллипс_1335" data-name="Эллипс 1335" cx="1.64" cy="1.64" r="1.64" transform="translate(8.977 18.788)" fill="#d1e92a"/>
        <ellipse id="Эллипс_1341" data-name="Эллипс 1341" cx="1.664" cy="1.664" rx="1.664" ry="1.664" transform="translate(15.122 18.783)" fill="#00a7cf"/>
        <circle id="Эллипс_1334" data-name="Эллипс 1334" cx="1.018" cy="1.018" r="1.018" transform="translate(9.995 6.233)" fill="#ef4864"/>
        <ellipse id="Эллипс_1343" data-name="Эллипс 1343" cx="1.024" cy="1.024" rx="1.024" ry="1.024" transform="translate(15.378 6.236)" fill="#24272d"/>
      </g>
    </g>
    <text id="Вы_изучите_основы_HTML_CSS_и_JavaScript_научитесь_создавать_сайты_и_приложения_для_любых_устройств_оптимизировать_код_и_работать_с_анимацией._Соберёте_портфолио_и_сможете_начать_карьеру_разработчика." data-name="Вы изучите основы HTML, CSS и JavaScript, 
научитесь создавать сайты и приложения 
для любых устройств, оптимизировать код 
и работать с анимацией. Соберёте 
портфолио и сможете начать карьеру 
разработчика." transform="translate(5004.474 -15789.997)" fill="#24272d" font-size="5" font-family="SegoeUI, Segoe UI"><tspan x="0" y="0">Вы изучите основы HTML, CSS и JavaScript, </tspan><tspan x="0" y="8">научитесь создавать сайты и приложения </tspan><tspan x="0" y="16">для любых устройств, оптимизировать код </tspan><tspan x="0" y="24">и работать с анимацией. Соберёте </tspan><tspan x="0" y="32">портфолио и сможете начать карьеру </tspan><tspan x="0" y="40">разработчика.</tspan></text>
    <text id="Детали_курса" data-name="Детали курса" transform="translate(5004.474 -15701.627)" fill="#24272d" font-size="5" font-family="SegoeUI-Bold, Segoe UI" font-weight="700"><tspan x="0" y="0">Детали курса</tspan></text>
    <rect id="Прямоугольник_109" data-name="Прямоугольник 109" width="69.001" height="15.737" rx="7.869" transform="translate(5117.054 -15710.259)" fill="#f3f4f9"/>
    <g id="wall-clock" transform="translate(5128.318 -15705.041)">
      <g id="Сгруппировать_17" data-name="Сгруппировать 17" transform="translate(0 0)">
        <g id="Сгруппировать_16" data-name="Сгруппировать 16">
          <path id="Контур_42" data-name="Контур 42" d="M5.082.872a2.977,2.977,0,0,0-4.21,4.21,2.978,2.978,0,0,0,3.645.443.233.233,0,1,0-.241-.4,2.534,2.534,0,1,1,.787-.756.233.233,0,0,0,.387.259A2.97,2.97,0,0,0,5.082.872Z" transform="translate(0 0)" fill="#24272d"/>
        </g>
      </g>
      <g id="Сгруппировать_19" data-name="Сгруппировать 19" transform="translate(1.823 0.884)">
        <g id="Сгруппировать_18" data-name="Сгруппировать 18">
          <path id="Контур_43" data-name="Контур 43" d="M157.957,76a.233.233,0,0,0-.233.233V78l-.853.853a.233.233,0,0,0,.329.329l.921-.921a.233.233,0,0,0,.068-.164V76.233A.233.233,0,0,0,157.957,76Z" transform="translate(-156.804 -76)" fill="#24272d"/>
        </g>
      </g>
    </g>
    <text id="_4_месяца" data-name="4 месяца" transform="translate(5140.054 -15701.627)" fill="#24272d" font-size="5" font-family="SegoeUI, Segoe UI"><tspan x="0" y="0">4 месяца</tspan></text>
    <g id="Сгруппировать_7579" data-name="Сгруппировать 7579" transform="translate(5004.474 -15728.418)">
      <g transform="matrix(1, 0, 0, 1, -17.47, -325.58)" filter="url(#Прямоугольник_112)">
        <rect id="Прямоугольник_112-2" data-name="Прямоугольник 112" width="181.581" height="31.474" rx="15.737" transform="translate(17.47 325.58)" fill="#f3f4f9"/>
      </g>
      <text id="_5_000_мес." data-name="5 000 ₽/мес." transform="translate(7.263 17.263)" fill="#24272d" font-size="9" font-family="SegoeUI-Bold, Segoe UI" font-weight="700"><tspan x="0" y="0">5 000 ₽/мес.</tspan></text>
      <rect id="Прямоугольник_116" data-name="Прямоугольник 116" width="83.527" height="19.369" rx="9.684" transform="translate(92.001 6.053)" fill="#24272d"/>
      <text id="Начать_обучение" data-name="Начать обучение" transform="translate(105.317 18.105)" fill="#00a7cf" font-size="6" font-family="SegoeUI-Bold, Segoe UI" font-weight="700"><tspan x="0" y="0">Начать обучение</tspan></text>
    </g>
  </g>
</svg>
