<svg xmlns="http://www.w3.org/2000/svg" xmlns:xlink="http://www.w3.org/1999/xlink" width="156.445" height="168.312" viewBox="0 0 156.445 168.312">
  <defs>
    <linearGradient id="linear-gradient" x1="0.5" x2="0.5" y2="1" gradientUnits="objectBoundingBox">
      <stop offset="0" stop-color="#ef4864"/>
      <stop offset="1" stop-color="#ff062f"/>
    </linearGradient>
    <filter id="Контур_48" x="31.981" y="0" width="92.482" height="108.841" filterUnits="userSpaceOnUse">
      <feOffset dy="3" input="SourceAlpha"/>
      <feGaussianBlur stdDeviation="3" result="blur"/>
      <feFlood flood-opacity="0.4"/>
      <feComposite operator="in" in2="blur"/>
      <feComposite in="SourceGraphic"/>
    </filter>
    <filter id="Контур_49" x="0" y="86.622" width="156.445" height="81.69" filterUnits="userSpaceOnUse">
      <feOffset dy="3" input="SourceAlpha"/>
      <feGaussianBlur stdDeviation="3" result="blur-2"/>
      <feFlood flood-opacity="0.4"/>
      <feComposite operator="in" in2="blur-2"/>
      <feComposite in="SourceGraphic"/>
    </filter>
  </defs>
  <g id="softtware-engineer" transform="translate(9 6)">
    <g transform="matrix(1, 0, 0, 1, -9, -6)" filter="url(#Контур_48)">
      <path id="Контур_48-2" data-name="Контур 48" d="M131.228,90.841c11.113,0,37.241-13.374,37.241-45.421,0-25.085-3.386-45.42-37.241-45.42S93.987,20.335,93.987,45.42C93.988,77.467,120.115,90.841,131.228,90.841Zm-31.675-53c2.616-5.059,8.275-10.905,20.444-10.646,0,0,7.254,17.594,42.863,9.693.144,2.81.189,5.678.189,8.534,0,15.664-6.917,25.37-12.719,30.754-7.311,6.784-15.428,9.246-19.1,9.246s-11.79-2.462-19.1-9.246c-5.8-5.384-12.719-15.089-12.719-30.754C99.408,42.886,99.445,40.344,99.553,37.84Z" transform="translate(-53.01 6)" fill="url(#linear-gradient)"/>
    </g>
    <g transform="matrix(1, 0, 0, 1, -9, -6)" filter="url(#Контур_49)">
      <path id="Контур_49-2" data-name="Контур 49" d="M162.922,238.846c-1.9-11.822-5.815-27.051-13.666-32.462-5.362-3.7-24.068-13.691-32.056-17.958l-.135-.072a2.61,2.61,0,0,0-2.842.249,33.937,33.937,0,0,1-13.623,6.58,2.61,2.61,0,0,0-1.847,1.554l-4.971,12.072-4.971-12.072a2.612,2.612,0,0,0-1.847-1.554,33.937,33.937,0,0,1-13.623-6.58,2.611,2.611,0,0,0-2.842-.249c-7.893,4.218-26.827,14.416-32.167,18.015-9.038,6.088-12.989,28.123-13.69,32.479-.069.432-.146,12.071,0,12.483.324.913,8.059,0,68.464,0s69.491.913,69.815,0C163.068,250.917,162.991,239.278,162.922,238.846Zm-76.129-7.179a.46.46,0,0,1-.276.422l-7.45,3.264,7.45,3.263a.461.461,0,0,1,.276.422v2.442a.46.46,0,0,1-.655.417l-11.056-5.136a.462.462,0,0,1-.267-.418v-1.981a.461.461,0,0,1,.267-.418l11.056-5.136a.461.461,0,0,1,.655.418v2.441Zm11.243-5.835-4.929,16.7a.461.461,0,0,1-.442.33H90.339a.461.461,0,0,1-.442-.591l4.929-16.7a.46.46,0,0,1,.442-.33h2.327a.46.46,0,0,1,.442.591Zm14.713,10.58a.461.461,0,0,1-.269.419L101.424,241.9a.459.459,0,0,1-.192.042.46.46,0,0,1-.461-.461v-2.442a.461.461,0,0,1,.279-.423l7.611-3.262-7.611-3.262a.461.461,0,0,1-.279-.423v-2.442a.461.461,0,0,1,.652-.419l11.056,5.067a.461.461,0,0,1,.269.419Z" transform="translate(-15.56 -95.42)" fill="url(#linear-gradient)"/>
    </g>
  </g>
</svg>
