<svg xmlns="http://www.w3.org/2000/svg" xmlns:xlink="http://www.w3.org/1999/xlink" width="227" height="227" viewBox="0 0 227 227">
  <defs>
    <filter id="Прямоугольник_1126" x="0" y="0" width="227" height="227" filterUnits="userSpaceOnUse">
      <feOffset input="SourceAlpha"/>
      <feGaussianBlur stdDeviation="6.5" result="blur"/>
      <feFlood flood-opacity="0.4"/>
      <feComposite operator="in" in2="blur"/>
      <feComposite in="SourceGraphic"/>
    </filter>
  </defs>
  <g id="Сгруппировать_7768" data-name="Сгруппировать 7768" transform="translate(-93.5 -63.5)">
    <g transform="matrix(1, 0, 0, 1, 93.5, 63.5)" filter="url(#Прямоугольник_1126)">
      <rect id="Прямоугольник_1126-2" data-name="Прямоугольник 1126" width="188" height="188" rx="20" transform="translate(19.5 19.5)" fill="#f3f4f9"/>
    </g>
    <g id="Сгруппировать_4742" data-name="Сгруппировать 4742" transform="translate(171.163 124.943)">
      <g id="Icons" transform="translate(0 0)">
        <path id="Контур_20432" data-name="Контур 20432" d="M31.616,76.3a11.944,11.944,0,0,1-11.9-10.882,11.915,11.915,0,0,1-8.678-18.793,9.9,9.9,0,0,1,2.53-18.793,9.692,9.692,0,0,1-.895-4.1,9.936,9.936,0,0,1,7.091-9.515,9.518,9.518,0,0,1-.274-2.254A9.88,9.88,0,0,1,22.5,4.828,9.808,9.808,0,0,1,29.7,2a10.189,10.189,0,0,1,9.672,10.3V70.066a5.944,5.944,0,0,1-4.2,5.7,11.958,11.958,0,0,1-3.557.531ZM29.444,4.123A7.788,7.788,0,0,0,22.1,14.628a1.061,1.061,0,0,1-.816,1.4,7.823,7.823,0,0,0-6.49,7.7,7.483,7.483,0,0,0,1.39,4.394,1.061,1.061,0,0,1-.862,1.68,7.921,7.921,0,0,0-7.988,7.834,7.815,7.815,0,0,0,5.731,7.476,1.061,1.061,0,0,1,.5,1.734A9.932,9.932,0,0,0,10.938,53.5a9.824,9.824,0,0,0,9.79,9.835A1.061,1.061,0,0,1,21.79,64.4a9.837,9.837,0,0,0,12.747,9.34,3.829,3.829,0,0,0,2.716-3.67V12.3a8.051,8.051,0,0,0-7.6-8.173Z" transform="translate(-5.213 -1.995)" fill="#24272d"/>
      </g>
      <g id="Icons-2" data-name="Icons" transform="translate(36.089 0)">
        <path id="Контур_20432-2" data-name="Контур 20432" d="M12.974,76.3a11.944,11.944,0,0,0,11.9-10.882,11.915,11.915,0,0,0,8.678-18.793,9.9,9.9,0,0,0-2.53-18.793,9.692,9.692,0,0,0,.895-4.1,9.936,9.936,0,0,0-7.091-9.515,9.518,9.518,0,0,0,.274-2.254,9.88,9.88,0,0,0-3.01-7.129A9.808,9.808,0,0,0,14.886,2,10.189,10.189,0,0,0,5.214,12.3V70.066a5.944,5.944,0,0,0,4.2,5.7,11.958,11.958,0,0,0,3.557.531ZM15.145,4.123a7.788,7.788,0,0,1,7.344,10.505,1.061,1.061,0,0,0,.816,1.4,7.823,7.823,0,0,1,6.49,7.7,7.483,7.483,0,0,1-1.39,4.394,1.061,1.061,0,0,0,.862,1.68,7.921,7.921,0,0,1,7.988,7.834,7.815,7.815,0,0,1-5.731,7.476,1.061,1.061,0,0,0-.5,1.734A9.932,9.932,0,0,1,33.651,53.5a9.824,9.824,0,0,1-9.79,9.835A1.061,1.061,0,0,0,22.8,64.4a9.837,9.837,0,0,1-12.747,9.34,3.829,3.829,0,0,1-2.716-3.67V12.3a8.051,8.051,0,0,1,7.6-8.173Z" transform="translate(-5.213 -1.995)" fill="#24272d"/>
      </g>
      <circle id="Эллипс_1327" data-name="Эллипс 1327" cx="5.942" cy="5.942" r="5.942" transform="translate(18.371 4.097)" fill="#24272d"/>
      <circle id="Эллипс_1339" data-name="Эллипс 1339" cx="5.905" cy="5.905" r="5.905" transform="translate(40.068 4.171)" fill="#ef4864"/>
      <ellipse id="Эллипс_1328" data-name="Эллипс 1328" cx="7.246" cy="7.101" rx="7.246" ry="7.101" transform="translate(11.125 15.4)" fill="#d1e92a"/>
      <ellipse id="Эллипс_1337" data-name="Эллипс 1337" cx="7.218" cy="7.218" rx="7.218" ry="7.218" transform="translate(44.662 15.329)" fill="#00a7cf"/>
      <ellipse id="Эллипс_1329" data-name="Эллипс 1329" cx="6.521" cy="6.666" rx="6.521" ry="6.666" transform="translate(3.879 29.022)" fill="#ef4864"/>
      <ellipse id="Эллипс_1336" data-name="Эллипс 1336" cx="6.562" cy="6.562" rx="6.562" ry="6.562" transform="translate(53.192 29.108)" fill="#24272d"/>
      <circle id="Эллипс_1330" data-name="Эллипс 1330" cx="7.536" cy="7.536" r="7.536" transform="translate(7.357 44.091)" fill="#00a7cf"/>
      <ellipse id="Эллипс_1340" data-name="Эллипс 1340" cx="7.546" cy="7.546" rx="7.546" ry="7.546" transform="translate(47.942 44.201)" fill="#d1e92a"/>
      <circle id="Эллипс_1331" data-name="Эллипс 1331" cx="6.231" cy="6.231" r="6.231" transform="translate(18.95 58.01)" fill="#ef4864"/>
      <ellipse id="Эллипс_1344" data-name="Эллипс 1344" cx="6.234" cy="6.234" rx="6.234" ry="6.234" transform="translate(38.756 57.981)" fill="#24272d"/>
      <ellipse id="Эллипс_1332" data-name="Эллипс 1332" cx="6.811" cy="6.956" rx="6.811" ry="6.956" transform="translate(17.791 31.629)" fill="#24272d"/>
      <ellipse id="Эллипс_1338" data-name="Эллипс 1338" cx="6.89" cy="6.89" rx="6.89" ry="6.89" transform="translate(38.756 31.732)" fill="#ef4864"/>
      <circle id="Эллипс_1333" data-name="Эллипс 1333" cx="3.188" cy="3.188" r="3.188" transform="translate(25.037 24.676)" fill="#00a7cf"/>
      <ellipse id="Эллипс_1342" data-name="Эллипс 1342" cx="3.281" cy="3.281" rx="3.281" ry="3.281" transform="translate(38.756 24.515)" fill="#d1e92a"/>
      <circle id="Эллипс_1335" data-name="Эллипс 1335" cx="4.203" cy="4.203" r="4.203" transform="translate(23.008 48.149)" fill="#d1e92a"/>
      <ellipse id="Эллипс_1341" data-name="Эллипс 1341" cx="4.265" cy="4.265" rx="4.265" ry="4.265" transform="translate(38.756 48.137)" fill="#00a7cf"/>
      <circle id="Эллипс_1334" data-name="Эллипс 1334" cx="2.609" cy="2.609" r="2.609" transform="translate(25.617 15.975)" fill="#ef4864"/>
      <ellipse id="Эллипс_1343" data-name="Эллипс 1343" cx="2.625" cy="2.625" rx="2.625" ry="2.625" transform="translate(39.412 15.982)" fill="#24272d"/>
    </g>
    <g id="Сгруппировать_4751" data-name="Сгруппировать 4751" transform="translate(158.201 207.832)">
      <path id="Контур_20388" data-name="Контур 20388" d="M5061.907,1272.434a4.591,4.591,0,0,0,1,3.23c1.6,1.854,3.976,2.1,5.867,3.338.469.308.88.864.54,1.426-.638,1.054-3.2.3-4.076-.106a6.818,6.818,0,0,1-1.573-1.023c-.346.312-2.2,2.218-2.793,2.82a10.107,10.107,0,0,0,6.293,2.525,7.693,7.693,0,0,0,5.263-1.744,4.539,4.539,0,0,0,.737-5.837c-1.6-2.295-6.107-2.928-6.781-4.143-.367-.661.271-1.5,1.393-1.534a7.418,7.418,0,0,1,3.545,1.288c.363-.364,1.963-1.975,2.475-2.5a7.506,7.506,0,0,0-5.21-2.37C5065.6,1267.722,5062.272,1269.147,5061.907,1272.434Z" transform="translate(-5060.872 -1265.013)" fill="#24272d" fill-rule="evenodd"/>
      <path id="Контур_20389" data-name="Контур 20389" d="M5196.879,1284.683h4.336v-9.668a2.788,2.788,0,0,1,2.779-2.78h.44v-4.379h-1.03a6.544,6.544,0,0,0-6.525,6.524Z" transform="translate(-5146.33 -1265.044)" fill="#24272d" fill-rule="evenodd"/>
      <path id="Контур_20390" data-name="Контур 20390" d="M5277.614,1260.36h4.356v2.76h3.579v4.657h-3.579v5.055a2.8,2.8,0,0,0,2.793,2.793h.441v4.4h-1.036a6.573,6.573,0,0,1-6.554-6.554v-5.693h-2.092v-4.657h2.092Z" transform="translate(-5195.745 -1260.334)" fill="#24272d" fill-rule="evenodd"/>
      <path id="Контур_20391" data-name="Контур 20391" d="M5236.254,1284.633h4.232v-7.261c-.022-.355,0-.716,0-1.082a8.506,8.506,0,1,0-4.232,7.358v.985Zm-4.276-4.338a4,4,0,1,1,4-4A4,4,0,0,1,5231.978,1280.295Z" transform="translate(-5163.036 -1264.997)" fill="#24272d" fill-rule="evenodd"/>
      <path id="Контур_20392" data-name="Контур 20392" d="M5110.792,1284.683a8.413,8.413,0,1,1,8.413-8.413,8.414,8.414,0,0,1-8.413,8.413Zm0-4.459a3.954,3.954,0,1,0-3.954-3.954A3.954,3.954,0,0,0,5110.792,1280.223Z" transform="translate(-5086.951 -1265.044)" fill="#24272d" fill-rule="evenodd"/>
      <path id="Контур_20393" data-name="Контур 20393" d="M5163.178,1279.93h4.478v-4.039a6.791,6.791,0,0,0-3.217-5.76,2.789,2.789,0,0,1,2.778-2.67h.438v-4.379h-1.031a6.547,6.547,0,0,0-6.506,6.031h-1.556V1260.3l-4.49-.011v16.559h4.49v-3.363h1.761a2.863,2.863,0,0,1,2.854,2.854Z" transform="translate(-5119.433 -1260.292)" fill="#24272d" fill-rule="evenodd"/>
      <circle id="Эллипс_1325" data-name="Эллипс 1325" cx="2.185" cy="2.185" r="2.185" transform="translate(91.804 15.298)" fill="#24272d"/>
    </g>
  </g>
</svg>
