<svg xmlns="http://www.w3.org/2000/svg" xmlns:xlink="http://www.w3.org/1999/xlink" width="215.441" height="265.447" viewBox="0 0 215.441 265.447">
  <defs>
    <linearGradient id="linear-gradient" x1="0.5" x2="0.5" y2="1" gradientUnits="objectBoundingBox">
      <stop offset="0" stop-color="#00a7cf"/>
      <stop offset="1" stop-color="#01627a"/>
    </linearGradient>
    <linearGradient id="linear-gradient-2" x1="0.5" x2="0.5" y2="1" gradientUnits="objectBoundingBox">
      <stop offset="0" stop-color="#ef4864"/>
      <stop offset="1" stop-color="#ff062f"/>
    </linearGradient>
  </defs>
  <g id="Сгруппировать_348" data-name="Сгруппировать 348" transform="translate(-563.203 -343.232)">
    <path id="Контур_1373" data-name="Контур 1373" d="M665.3,374.467s6.68,65.835-31.874,65.815c-26.521-.014-40.895-48.084-33.246-69.034S656.86,340.71,665.3,374.467Z" transform="translate(36.794 9.524)" fill="#e7bd9f"/>
    <path id="Контур_1374" data-name="Контур 1374" d="M668.815,384.092s-5.571,52.673,3.357,60.535,45.061-4.078,54.671,11.068,6.739,127.625,6.739,127.625H581.194s2.575-129.572,10.484-135.237,41.2,6.53,43.133-15.694c.926-10.636-3.669-65.094-3.669-65.094Z" transform="translate(18.95 25.347)" fill="#e7bd9f"/>
    <ellipse id="Эллипс_54" data-name="Эллипс 54" cx="2.349" cy="3.031" rx="2.349" ry="3.031" transform="translate(655.604 404.786)" fill="#24272d"/>
    <ellipse id="Эллипс_55" data-name="Эллипс 55" cx="2.349" cy="3.031" rx="2.349" ry="3.031" transform="translate(680.139 404.786)" fill="#24272d"/>
    <path id="Контур_1375" data-name="Контур 1375" d="M629.541,380.58s4.4-12.825,10.064-7.22-.68,21-6.133,20.918S626.953,385.814,629.541,380.58Z" transform="translate(68.461 30.243)" fill="#e7bd9f"/>
    <path id="Контур_1376" data-name="Контур 1376" d="M607.209,391.693s16.5,16.614,32.5,1.357l-1.23,8.864s-2.148,8.741-12.735,9.433-18.341-9.606-18.341-9.606Z" transform="translate(46.353 51.047)" fill="#24272d" opacity="0.5"/>
    <path id="Контур_1377" data-name="Контур 1377" d="M620.447,370.466s4.177-4.066,10.092.3C633.991,373.31,615.625,374.723,620.447,370.466Z" transform="translate(59.442 26.874)" fill="#7e4d38"/>
    <path id="Контур_1378" data-name="Контур 1378" d="M615.97,369.867s-4.178-4.066-10.092.3C602.424,372.708,620.791,374.123,615.97,369.867Z" transform="translate(44.492 26.242)" fill="#7e4d38"/>
    <path id="Контур_1379" data-name="Контур 1379" d="M641.053,405.863s7,26.782,31.782,26.782c28.063,0,29.031-26.4,29.031-26.4s50.739-2.138,60.663,16.645S778.645,543.02,778.645,543.02H563.2s8.062-105.067,15.267-119.436C589.428,401.738,641.053,405.863,641.053,405.863Z" transform="translate(0 65.647)" fill="url(#linear-gradient)"/>
    <path id="Контур_1380" data-name="Контур 1380" d="M631.426,386.869l-1.54-.064c.3-7.216,1.54-11.142,3.8-12.006a3.368,3.368,0,0,1,3.374.928l-1.1,1.076c-.01-.01-.891-.889-1.727-.565C633.508,376.522,631.783,378.122,631.426,386.869Z" transform="translate(70.241 33.064)" fill="#24272d"/>
    <path id="Контур_1381" data-name="Контур 1381" d="M619.767,393.818c-1.77,0-5.862-2.682-7.628-3.9l.8-1.164c2.505,1.727,5.6,3.5,6.6,3.653.522-1.653.327-10.55-.187-18.612l1.409-.09c1.251,19.525-.037,19.893-.655,20.07A1.232,1.232,0,0,1,619.767,393.818Z" transform="translate(51.546 32.099)" fill="#24272d"/>
    <path id="Контур_1382" data-name="Контур 1382" d="M618.64,389.854c-3.513,0-6.569-3.5-6.706-3.663l1.07-.922c.031.037,3.121,3.628,6.234,3.121,1.7-.277,3.129-1.807,4.248-4.546l1.31.536c-1.32,3.226-3.115,5.045-5.337,5.407A5.049,5.049,0,0,1,618.64,389.854Z" transform="translate(51.331 42.78)" fill="#24272d"/>
    <path id="Контур_1383" data-name="Контур 1383" d="M608.076,380.845s-4.33-12.848-10.029-7.271.575,21,6.029,20.948S610.637,386.089,608.076,380.845Z" transform="translate(34.332 30.483)" fill="#e7bd9f"/>
    <path id="Контур_1384" data-name="Контур 1384" d="M602.251,386.869c-.357-8.762-2.084-10.355-2.809-10.63-.834-.314-1.712.552-1.719.561l-1.107-1.072a3.363,3.363,0,0,1,3.374-.928c2.263.864,3.505,4.79,3.8,12.006Z" transform="translate(35.196 33.065)" fill="#24272d"/>
    <path id="Контур_1385" data-name="Контур 1385" d="M648.088,405.728V543.417H563.2s2.32-97.089,14.238-118.494C591.276,400.077,648.088,405.728,648.088,405.728Z" transform="translate(0 65.25)" fill="url(#linear-gradient-2)"/>
    <path id="Контур_1386" data-name="Контур 1386" d="M628.808,405.55V543.239h80.016s3.121-96.514-14.593-119.966C678.255,402.125,628.808,405.55,628.808,405.55Z" transform="translate(69.105 65.428)" fill="url(#linear-gradient-2)"/>
    <path id="Контур_1387" data-name="Контур 1387" d="M664.35,373.753s2.916-22.735-14.573-29.412-42.281,19.456-48.1,7.649c-3.682-7.464-5.924,15.686,8.536,15.872,0,0-16.762-7-16.484-4.322C596.406,389.5,656.125,397.316,664.35,373.753Z" transform="translate(32.146 0)" fill="#7e4d38"/>
    <path id="Контур_1388" data-name="Контур 1388" d="M608.311,357.963s9.08,31.059-6.8,32.324C601.514,390.287,587.317,371.252,608.311,357.963Z" transform="translate(35.412 15.517)" fill="#7e4d38"/>
    <path id="Контур_1389" data-name="Контур 1389" d="M626.818,358.042s-6.189,28.809,9.686,30.074C636.5,388.116,646.806,355.373,626.818,358.042Z" transform="translate(65.758 15.438)" fill="#7e4d38"/>
    <path id="Контур_1390" data-name="Контур 1390" d="M623.244,401.982s-41.807-3.3-36.4,22.109c2.809,13.2,25.271,50.388,35.072,41.458S636.539,392.805,623.244,401.982Z" transform="translate(24.393 60.937)" fill="#f4f2e9"/>
    <path id="Контур_1391" data-name="Контур 1391" d="M631.083,401.982s41.8-3.3,36.4,22.109c-2.809,13.2-23.248,50.388-33.049,41.458S617.786,392.805,631.083,401.982Z" transform="translate(63.719 60.937)" fill="#f4f2e9"/>
    <path id="Контур_1392" data-name="Контур 1392" d="M637.009,372.1l-1.431-.573c.043-.111,4.376-11.2-.431-18.213-2.725-3.977-7.953-6.006-15.384-5.885l-.017-1.54c8.082-.115,13.643,2.129,16.673,6.558C641.688,360.152,637.2,371.618,637.009,372.1Z" transform="translate(59.56 2.799)" fill="#7e4d38"/>
    <path id="Контур_1393" data-name="Контур 1393" d="M601.516,385.325c-12.571-15.948,1.269-27.536,1.411-27.653l.973,1.193c-.528.433-12.795,10.764-1.173,25.5Z" transform="translate(34.804 15.211)" fill="#7e4d38"/>
    <path id="Контур_1394" data-name="Контур 1394" d="M632.1,386.593l-1.211-.955c11.622-14.739-.647-25.072-1.175-25.5l.975-1.193C630.829,359.055,644.671,370.646,632.1,386.593Z" transform="translate(70.06 16.546)" fill="#7e4d38"/>
    <path id="Контур_1395" data-name="Контур 1395" d="M601.754,490.986h0a3.235,3.235,0,0,1-.692-.072c-5.54-1.22-18.127-12.784-18.25-12.9-1.659-1.556-1.786-10.79-.458-32.936.109-1.823.191-3.187.216-3.86.047-1.335,1.4-2.567,10.873-2.567,11.38,0,28.519,1.811,28.692,1.827l.651.07.035.655c.066,1.138,1.546,27.93-.047,32.141C621.214,477.461,607.382,490.986,601.754,490.986Zm-8.312-50.794c-8.439,0-9.277,1.014-9.345,1.129-.012.63-.1,2.01-.207,3.848-1.193,19.879-1.2,30.552-.023,31.723,3.218,3.021,13.353,11.6,17.528,12.517a1.6,1.6,0,0,0,.359.037c4.653,0,18.047-12.606,19.579-16.645,1.193-3.156.425-22.737-.012-30.858C618.08,441.615,603.483,440.192,593.442,440.192Z" transform="translate(19.222 100.512)" fill="#3e2d4a"/>
    <path id="Контур_1396" data-name="Контур 1396" d="M600.714,462.122c-.043,0-.088,0-.133,0-6.579-.265-17.332-19.427-18.538-21.612l1.347-.741c3.158,5.723,12.413,20.62,17.255,20.813,4.936.2,16.187-15,20.148-20.875l1.275.862C620.57,442.785,607.338,462.122,600.714,462.122Z" transform="translate(19.844 101.622)" fill="#3e2d4a"/>
    <path id="Контур_1397" data-name="Контур 1397" d="M651.6,490.986h0a3.271,3.271,0,0,1-.694-.072c-5.536-1.22-18.123-12.784-18.246-12.9-1.659-1.556-1.789-10.79-.458-32.936.109-1.823.191-3.187.214-3.86.049-1.335,1.4-2.567,10.87-2.567,11.38,0,28.521,1.811,28.694,1.827l.649.07.037.655c.064,1.138,1.546,27.93-.049,32.141C671.063,477.461,657.232,490.986,651.6,490.986Zm-8.314-50.794c-8.435,0-9.273,1.014-9.341,1.129-.012.63-.094,2.01-.207,3.848-1.193,19.879-1.2,30.552-.025,31.723,3.22,3.021,13.351,11.6,17.525,12.517a1.633,1.633,0,0,0,.361.037c4.657,0,18.047-12.606,19.577-16.645,1.193-3.156.425-22.737-.012-30.858C667.926,441.615,653.33,440.192,643.287,440.192Z" transform="translate(71.73 100.512)" fill="#3e2d4a"/>
    <path id="Контур_1398" data-name="Контур 1398" d="M650.564,462.122c-.043,0-.088,0-.134,0-6.581-.265-17.334-19.427-18.54-21.612l1.347-.741c3.16,5.723,12.413,20.62,17.256,20.813.029,0,.062,0,.092,0,4.9,0,16.115-15.041,20.051-20.877l1.275.862C670.418,442.785,657.187,462.122,650.564,462.122Z" transform="translate(72.353 101.622)" fill="#3e2d4a"/>
    <path id="Контур_1399" data-name="Контур 1399" d="M627.161,427.153a31.635,31.635,0,0,1-20.211-7.5l1.062-1.115c.622.591,15.417,14.3,35.93,2.131l.786,1.322A34.111,34.111,0,0,1,627.161,427.153Z" transform="translate(46.081 79.324)" fill="#f4f2e9"/>
    <path id="Контур_1400" data-name="Контур 1400" d="M578.343,512c-.008-.589-.891-59.069,0-76.983l1.54.076c-.891,17.862-.01,76.295,0,76.882Z" transform="translate(15.528 96.681)" fill="#3e2d4a"/>
    <path id="Контур_1401" data-name="Контур 1401" d="M655,512l-1.54-.025c.01-.587.891-59.02,0-76.882l1.54-.076C655.887,452.929,655,511.408,655,512Z" transform="translate(95.069 96.681)" fill="#3e2d4a"/>
    <path id="Контур_1402" data-name="Контур 1402" d="M655.422,370.507l-1.485-.419c.142-.5,3.267-12.388-10.87-19.942-6.521-3.487-13.115.778-20.1,5.287-8.158,5.261-16.6,10.706-24.911,2.844l1.06-1.117c7.431,7.025,15,2.146,23.016-3.021,7.055-4.552,14.353-9.263,21.665-5.353C659.052,356.943,655.459,370.372,655.422,370.507Z" transform="translate(36.709 4.318)" fill="#724531"/>
    <path id="Контур_1403" data-name="Контур 1403" d="M633.255,368.384c-10.54,0-24.361-2.074-34.4-11.148l1.035-1.144c17.8,16.094,48.145,9.386,48.451,9.318l.345,1.5A77.867,77.867,0,0,1,633.255,368.384Z" transform="translate(37.554 13.548)" fill="#724531"/>
    <path id="Контур_1404" data-name="Контур 1404" d="M641.263,366.967c-.361-.71-9.111-17.345-31.5-8.866l-.546-1.439c23.725-8.977,33.33,9.425,33.425,9.612Z" transform="translate(48.465 11.548)" fill="#724531"/>
    <path id="Контур_1405" data-name="Контур 1405" d="M634,379.185l-1.515-.261c.023-.148,2.439-14.749-5.663-17.577l.509-1.456C636.665,363.151,634.119,378.535,634,379.185Z" transform="translate(67.016 17.549)" fill="#724531"/>
    <path id="Контур_1406" data-name="Контур 1406" d="M598.764,377.332c-.54-5.768,2.887-15.33,3.035-15.735l1.448.526c-.035.094-3.458,9.641-2.951,15.066Z" transform="translate(37.397 19.345)" fill="#724531"/>
  </g>
</svg>
