<svg>
  <symbol id="badlogo"
    xmlns="http://www.w3.org/2000/svg" xmlns:xlink="http://www.w3.org/1999/xlink" viewBox="0 0 55.327 55.326">
  <defs>
    <clipPath id="clip-path">
      <rect id="Прямоугольник_1559" data-name="Прямоугольник 1559" width="55.327" height="55.327" fill="none"/>
    </clipPath>
  </defs>
  <g id="Сгруппировать_3170" data-name="Сгруппировать 3170" clip-path="url(#clip-path)">
    <path id="Контур_20154" data-name="Контур 20154" d="M55.342,27.851h0a27.4,27.4,0,1,1-54.8,0h0a27.4,27.4,0,0,1,54.8,0m-.345,0h0a27.063,27.063,0,0,0-54.126,0h0a27.059,27.059,0,1,0,54.118,0" transform="translate(-0.152 -0.126)" fill="#24272d"/>
    <path id="Контур_20155" data-name="Контур 20155" d="M24.24,19.45h0" transform="translate(-6.802 -5.458)" fill="#24272d"/>
    <path id="Контур_20156" data-name="Контур 20156" d="M34.06,60.5h0" transform="translate(-9.558 -16.978)" fill="#24272d"/>
    <path id="Контур_20157" data-name="Контур 20157" d="M29.28,59.16h0" transform="translate(-8.217 -16.602)" fill="#24272d"/>
    <path id="Контур_20158" data-name="Контур 20158" d="M34.39,61.19h0" transform="translate(-9.651 -17.172)" fill="#24272d"/>
    <path id="Контур_20159" data-name="Контур 20159" d="M31.17,61h0" transform="translate(-8.747 -17.118)" fill="#24272d"/>
    <path id="Контур_20160" data-name="Контур 20160" d="M22.48,50.62h0" transform="translate(-6.308 -14.205)" fill="#24272d"/>
    <path id="Контур_20161" data-name="Контур 20161" d="M27.65,56.7h0" transform="translate(-7.759 -15.912)" fill="#24272d"/>
    <path id="Контур_20162" data-name="Контур 20162" d="M33.45,60.807h.007V60.8h0l-.007.007" transform="translate(-9.387 -17.062)" fill="#24272d"/>
    <path id="Контур_20163" data-name="Контур 20163" d="M27.17,56.3h0" transform="translate(-7.625 -15.799)" fill="#24272d"/>
    <path id="Контур_20164" data-name="Контур 20164" d="M20.6,49.2Z" transform="translate(-5.781 -13.807)" fill="#24272d"/>
    <path id="Контур_20165" data-name="Контур 20165" d="M26.28,54h0" transform="translate(-7.375 -15.154)" fill="#24272d"/>
    <path id="Контур_20166" data-name="Контур 20166" d="M23.08,50.62h0" transform="translate(-6.477 -14.205)" fill="#24272d"/>
    <path id="Контур_20167" data-name="Контур 20167" d="M19.02,42.32l.014.007h0Z" transform="translate(-5.338 -11.876)" fill="#24272d"/>
    <path id="Контур_20168" data-name="Контур 20168" d="M44.19,60.994l.036.036h.036a.2.2,0,0,0-.036-.05H44.19" transform="translate(-12.401 -17.113)" fill="#24272d"/>
    <path id="Контур_20169" data-name="Контур 20169" d="M45.45,59.7h.007l-.007-.007V59.7" transform="translate(-12.754 -16.751)" fill="#24272d"/>
    <path id="Контур_20170" data-name="Контур 20170" d="M52.1,19.08h.036" transform="translate(-14.621 -5.354)" fill="#24272d"/>
    <path id="Контур_20171" data-name="Контур 20171" d="M35.56,61.37h0" transform="translate(-9.979 -17.222)" fill="#24272d"/>
    <path id="Контур_20172" data-name="Контур 20172" d="M37.1,60.38h0" transform="translate(-10.411 -16.944)" fill="#24272d"/>
    <path id="Контур_20173" data-name="Контур 20173" d="M38.76,62.92h0" transform="translate(-10.877 -17.657)" fill="#24272d"/>
    <path id="Контур_20174" data-name="Контур 20174" d="M49.975,18H49.91Z" transform="translate(-14.006 -5.051)" fill="#24272d"/>
    <path id="Контур_20175" data-name="Контур 20175" d="M43.13,61.32h0" transform="translate(-12.103 -17.208)" fill="#24272d"/>
    <path id="Контур_20176" data-name="Контур 20176" d="M21,45.65h-.086a3.817,3.817,0,0,0-.777,2.69.568.568,0,0,1,.194,0l.122-.115-.194-.561Z" transform="translate(-5.646 -12.811)" fill="#24272d"/>
    <path id="Контур_20177" data-name="Контур 20177" d="M21.447,48.79l-.345.151-.309.223-.194-.05h0a.439.439,0,0,0,.036.245c.036.058.144.036.194,0,.194-.165.417-.4.619-.54Z" transform="translate(-5.779 -13.692)" fill="#24272d"/>
    <path id="Контур_20178" data-name="Контур 20178" d="M22.161,50.087l-.086-1.367h-.122l-.173.065h.137a6.215,6.215,0,0,0,.144,1.633l.223-.309Z" transform="translate(-6.112 -13.672)" fill="#24272d"/>
    <path id="Контур_20179" data-name="Контур 20179" d="M22.7,50.55l-.216.05c0,.317-.058.424.129.432s.151-.352.295-.432Z" transform="translate(-6.308 -14.186)" fill="#24272d"/>
    <path id="Контур_20180" data-name="Контур 20180" d="M20.494,26.781l.036-.482-.036-.993-.05-1.561.058-.719.554-1.331.719-.921.655-.6.482-.3.194-.338a3.46,3.46,0,0,0-1.633,1.2,4.057,4.057,0,0,0-.935,1.439c-.072.468-.518.827-.331,1.295v1.87c0,.4.381,1.165.108,1.331-.072.417-.137.827-.194,1.245h.388V26.781Z" transform="translate(-5.646 -5.481)" fill="#24272d"/>
    <path id="Контур_20181" data-name="Контур 20181" d="M53.6,20.453l.36.619h0l.072.05A4.5,4.5,0,0,0,52.09,19.05l.518.324Z" transform="translate(-14.618 -5.346)" fill="#24272d"/>
    <path id="Контур_20182" data-name="Контур 20182" d="M49.806,17.91a.439.439,0,0,0-.266-.23h0Z" transform="translate(-13.902 -4.961)" fill="#24272d"/>
    <path id="Контур_20183" data-name="Контур 20183" d="M20.9,45.647l-.295.058-.453.432H20.07c0,.2,0,.446.165.41.36-.05.36-.676.655-.906h0Z" transform="translate(-5.632 -12.808)" fill="#24272d"/>
    <path id="Контур_20184" data-name="Контур 20184" d="M23.974,17.479l-.086-.108h.1l.9.209.626-.194.41-.482.345-.317.827-.122,1.3-.108.065-.834s1.115-.187,1.18-.187,1.834.381,1.834.381l1.834-1.245.223.655,1.022.122.719-.237.237-.64,1.439,1.194.777-.194,1.18-.345.194.273H40.11l.453.719,1.036.6h.619a1.094,1.094,0,0,0-.295-.295.266.266,0,0,0-.1,0c-.784,0-.8-.4-.957-.432.173-.863.173-.863.108-1.022H40.8a3.956,3.956,0,0,0-1.719.158V14.76a1.187,1.187,0,0,1-.259.05l-.41.1c-.122.036-.259.072-.5.158-.4.281-.4.281-.575.309A2.935,2.935,0,0,0,35.254,14a1.439,1.439,0,0,1-.05.194v.072c0,.4,0,.4-.072.446-.158-.05-.417-.173-.719-.281-.273.108-.525.23-.719.281-.05-.05-.05-.05-.072-.446a2.1,2.1,0,0,1-.072-.273,2.935,2.935,0,0,0-2.115,1.388c-.194,0-.194,0-.59-.309a3.453,3.453,0,0,0-.777-.223l-.381-.086v.273a4.259,4.259,0,0,0-1.892-.144c-.065.158-.065.158.108,1.022-.173.036-.173.036-1.057-.05a1.346,1.346,0,0,1-.237.108c-.863.381-1.439.453-1.8,1.388l-.518-.072-.36-.05h-.259a.23.23,0,0,0-.072.108.813.813,0,0,1,.108.05c.094.108.18.23.266.345h0Z" transform="translate(-6.623 -3.926)" fill="#24272d"/>
    <path id="Контур_20185" data-name="Контур 20185" d="M24.169,19.21a.194.194,0,0,0,.05.173l-.043-.158h0" transform="translate(-6.781 -5.391)" fill="#24272d"/>
    <path id="Контур_20186" data-name="Контур 20186" d="M51.23,18.583l.245.173h0c0-.036.072-.079.05-.1l.309-.036V18.46l-1.3-.295L50,18l.115.094Z" transform="translate(-14.031 -5.051)" fill="#24272d"/>
    <path id="Контур_20187" data-name="Контур 20187" d="M56.13,26.911l.137.878h0A4.869,4.869,0,0,0,55.9,25.12h0Z" transform="translate(-15.687 -7.049)" fill="#24272d"/>
    <path id="Контур_20188" data-name="Контур 20188" d="M19.165,42.416,19,42.33c.072.158.3.2.525.252h0Z" transform="translate(-5.332 -11.879)" fill="#24272d"/>
    <path id="Контур_20189" data-name="Контур 20189" d="M19.764,45.305l.309-1.338-.2-.482-.072-.719-.1-.036h0c-.05.223-.086.453-.122.719.108.108.281.158.345.468-.295.719-.54.921-.245,1.748l.2-.281h0Z" transform="translate(-5.485 -11.991)" fill="#24272d"/>
    <path id="Контур_20190" data-name="Контур 20190" d="M20.64,31.19h0v.2H20.8Z" transform="translate(-5.792 -8.753)" fill="#24272d"/>
    <path id="Контур_20191" data-name="Контур 20191" d="M18.678,39.224l-.173-.209s.173-2.669.259-2.741-.108-.662-.108-.662l-.41-.87.209-.849.482-.935,1.144-1.388-.05-.05h0c-.468.64-1.007.719-1.511,1.647-.576,1.439-.719,1.129,0,2.6a22.056,22.056,0,0,0-.158,3.367l.367.18h0Z" transform="translate(-5.061 -8.845)" fill="#24272d"/>
    <path id="Контур_20192" data-name="Контур 20192" d="M55.152,22.6l.281.971.187.676h0c-.1-.719.065-.8,0-1.28a2.777,2.777,0,0,0-.719-.95h0v.043Z" transform="translate(-15.406 -6.179)" fill="#24272d"/>
    <path id="Контур_20193" data-name="Контур 20193" d="M44.295,60.484l-.065.173v.036l-.194-.058L44,60.549h0c.043.144.1.281.194.194a.274.274,0,0,0,.086-.108,2.208,2.208,0,0,1,.324-.446c.086-.086.173-.187.259-.259a3.022,3.022,0,0,0,.209-.23h-.209Z" transform="translate(-12.348 -16.753)" fill="#24272d"/>
    <path id="Контур_20194" data-name="Контур 20194" d="M34.187,60.53H34.05l.043.59a.72.72,0,0,1,.194-.094l-.043-.094Z" transform="translate(-9.555 -16.986)" fill="#24272d"/>
    <path id="Контур_20195" data-name="Контур 20195" d="M35.117,61.286h-.59l-.137-.036c0,.086,0,.158.1.173.324.079.432-.058.719-.05l-.05-.043h-.043" transform="translate(-9.651 -17.188)" fill="#24272d"/>
    <path id="Контур_20196" data-name="Контур 20196" d="M35.57,61.38c0,.079.072.158.115.23l.223-.086h0Z" transform="translate(-9.982 -17.225)" fill="#24272d"/>
    <path id="Контур_20197" data-name="Контур 20197" d="M33.64,60.655l-.18.058a.719.719,0,0,0,.2.173c.144.058.065-.158.223-.4h0Z" transform="translate(-9.39 -16.975)" fill="#24272d"/>
    <path id="Контур_20198" data-name="Контур 20198" d="M30.778,60.385,30.3,58.81H30.21a5.957,5.957,0,0,0,.59,1.8l.086-.194h0Z" transform="translate(-8.478 -16.504)" fill="#24272d"/>
    <path id="Контур_20199" data-name="Контур 20199" d="M32.414,59.68H32.32l.223.266c.173.194.331.4.5.6l.1-.086h-.1Z" transform="translate(-9.07 -16.748)" fill="#24272d"/>
    <path id="Контур_20200" data-name="Контур 20200" d="M36.719,60.35l-.259.8-.245.122L36,61.235h0c0,.072,0,.158.072.173a.59.59,0,0,0,.5-.194c.122-.144.086-.367.122-.54l.065-.295h0Z" transform="translate(-10.103 -16.936)" fill="#24272d"/>
    <path id="Контур_20201" data-name="Контур 20201" d="M31.909,59.68l-.647.95H31.19a.719.719,0,0,0,.209.281c.223.158.424-.849.6-1.216h0Z" transform="translate(-8.753 -16.748)" fill="#24272d"/>
    <path id="Контур_20202" data-name="Контур 20202" d="M54.876,32.384c-.54-1.022-1.144-1.007-1.633-1.856H53.9c-.065-.417-.137-.827-.194-1.245a1.065,1.065,0,0,1-.345-.453h0v.187l-.3.921-.863.885.676,1.633.906,1.748.1.921.489,2.065-.331.719-.309.209-.317,1.122-1.115,1.784.568,1.3-1.245,1.331L50.9,44.908l-1.288,1-.87,1.46-1.079,1.957-1.216.5L46,50.936l-.489.1a11.292,11.292,0,0,1,.54,1.144,4.173,4.173,0,0,0,.554-2.05.633.633,0,0,1,.417.23,1.69,1.69,0,0,0,.417.381c.237-.36.432-.64.6-.921a4.554,4.554,0,0,0,.4-.813,4.71,4.71,0,0,0,.137-.482c.173,0,.173,0,.453.173a5.546,5.546,0,0,0,.273-.8c.108-.41.151-.784.223-1.216l.54.295a2.388,2.388,0,0,1,.719-1.216c.309.813.309.813.417.9.194-.719.4-1.5.576-2.252,0-.036,0-.036.317-.036l.151.223.158.223c.072-.158.072-.158.144-1.633.655.058.719,0,1.108.417a.468.468,0,0,1,.194,0c.122-1.331-.223-1.676-.827-2.806a2.485,2.485,0,0,1,.432,0c.23.317.453.611.662.921.295-.82.065-.993-.23-1.748.05-.309.223-.36.345-.468a5.958,5.958,0,0,0-.137-.719l.95-.453a25.578,25.578,0,0,0-.173-3.367c.719-1.475.611-1.129,0-2.6" transform="translate(-12.771 -8.09)" fill="#24272d"/>
    <path id="Контур_20203" data-name="Контур 20203" d="M43.629,60.47H43.5a1.129,1.129,0,0,0,.309.345h0Z" transform="translate(-12.207 -16.969)" fill="#24272d"/>
    <path id="Контур_20204" data-name="Контур 20204" d="M29.926,58.71l-.554.317H29.3a1.857,1.857,0,0,0,.187.173c.165.129.331-.194.482-.446h0Z" transform="translate(-8.222 -16.476)" fill="#24272d"/>
    <path id="Контур_20205" data-name="Контур 20205" d="M37.678,61.109l-.281-.281-.187-.4-.1-.043a1.137,1.137,0,0,0,.3.547c.345-.072.54,1.439.784,1.316a.178.178,0,0,0,.108-.036l-.129-.05Z" transform="translate(-10.414 -16.947)" fill="#24272d"/>
    <path id="Контур_20206" data-name="Контур 20206" d="M43.392,60.424h-.065l-.036.468V61H43.14a.813.813,0,0,1,.259.129,3.99,3.99,0,0,1,0-.719h0Z" transform="translate(-12.106 -16.953)" fill="#24272d"/>
    <path id="Контур_20207" data-name="Контур 20207" d="M42.495,61.27h-.23l-.568.122-.1.194h-.173l-.223-.108h0c.036.173.331.209.489.194s.065-.259.158-.281a1.583,1.583,0,0,1,.719-.1h-.043Z" transform="translate(-11.562 -17.194)" fill="#24272d"/>
    <path id="Контур_20208" data-name="Контур 20208" d="M40,60.48l-.54.626-.295.568-.295.59H38.78c.05.079.108.137.165.137.194,0,.345-.5.518-.9a.849.849,0,0,1,.281-.4.755.755,0,0,0,.353-.575h0Z" transform="translate(-10.883 -16.972)" fill="#24272d"/>
    <path id="Контур_20209" data-name="Контур 20209" d="M40.965,61.165l-.273-.655H40.62l.137.662.281.108h0Z" transform="translate(-11.399 -16.981)" fill="#24272d"/>
    <path id="Контур_20210" data-name="Контур 20210" d="M27.18,56.31a.755.755,0,0,0,.137.216c.094.094.158.094.2.065l-.165-.115Z" transform="translate(-7.627 -15.802)" fill="#24272d"/>
    <path id="Контур_20211" data-name="Контур 20211" d="M23.831,52.468h-.072l-.525-1.8H23.09c.18.719.374,1.439.561,2.158.072-.058.1-.079.194-.309h0Z" transform="translate(-6.48 -14.219)" fill="#24272d"/>
    <path id="Контур_20212" data-name="Контур 20212" d="M25.482,53.535l-.065-.036-.532-.849H24.77a3.482,3.482,0,0,1,.489.993l.223-.122h0Z" transform="translate(-6.951 -14.775)" fill="#24272d"/>
    <path id="Контур_20213" data-name="Контур 20213" d="M28.463,58.051l-.676-1.331H27.7a2.589,2.589,0,0,0,.086.281,8.7,8.7,0,0,0,.935,1.575.525.525,0,0,0,.115-.086h-.108Z" transform="translate(-7.773 -15.917)" fill="#24272d"/>
    <path id="Контур_20214" data-name="Контур 20214" d="M24.593,52.656l-.122-.036-.259.367H24.14a2.921,2.921,0,0,0,.151.417c.144.331,0-.144.187-.561a.612.612,0,0,1,.122-.223Z" transform="translate(-6.774 -14.767)" fill="#24272d"/>
    <path id="Контур_20215" data-name="Контур 20215" d="M25.849,53.88H25.77a.719.719,0,0,0,.108.23c.108.122.187,0,.259-.129h-.079Z" transform="translate(-7.232 -15.12)" fill="#24272d"/>
    <path id="Контур_20216" data-name="Контур 20216" d="M26.8,55.6,26.376,54H26.29a6.518,6.518,0,0,0,.446,1.734l.187-.108h0Z" transform="translate(-7.378 -15.154)" fill="#24272d"/>
    <path id="Контур_20217" data-name="Контур 20217" d="M49.748,17.919h.094l-.252-.209a.913.913,0,0,0,.18.223" transform="translate(-13.916 -4.97)" fill="#24272d"/>
    <path id="Контур_20218" data-name="Контур 20218" d="M36.338,60.912l-.288.108.18.036.245-.122.259-.791h.072c-.165-.583-.1-1.072-.475.719" transform="translate(-10.117 -16.728)" fill="#24272d"/>
    <path id="Контур_20219" data-name="Контур 20219" d="M20.8,49.147l.3-.194.345-.122h0c-.446.036-.568.036-.849.288h0Z" transform="translate(-5.781 -13.703)" fill="#24272d"/>
    <path id="Контур_20220" data-name="Контур 20220" d="M20.547,48.013c0-.957.4-1.316.863-2.324,0-.058-.259-.115-.4-.05h.072l-.719,1.993.194.561h0v-.18" transform="translate(-5.714 -12.799)" fill="#24272d"/>
    <path id="Контур_20221" data-name="Контур 20221" d="M24.3,19.378l-.122-.158.043.158h.065" transform="translate(-6.786 -5.394)" fill="#24272d"/>
    <path id="Контур_20222" data-name="Контур 20222" d="M35.119,61.263a2.075,2.075,0,0,0-.719-.079h0l.137.036Z" transform="translate(-9.654 -17.165)" fill="#24272d"/>
    <path id="Контур_20223" data-name="Контур 20223" d="M35.523,61.32H35.48l.05.043h0" transform="translate(-9.957 -17.208)" fill="#24272d"/>
    <path id="Контур_20224" data-name="Контур 20224" d="M26.1,53.639l-.324.173h.072l.209.072h.079L26.1,53.61" transform="translate(-7.235 -15.044)" fill="#24272d"/>
    <path id="Контур_20225" data-name="Контур 20225" d="M35.891,61.406a1.324,1.324,0,0,0-.281-.036h0l.338.144c0-.05,0-.1-.058-.108" transform="translate(-9.993 -17.222)" fill="#24272d"/>
    <path id="Контур_20226" data-name="Контур 20226" d="M34.341,60.151a.8.8,0,0,0-.281.245H34.2l.058.381.05.094h0c0-.3.245-.863.036-.719" transform="translate(-9.558 -16.873)" fill="#24272d"/>
    <path id="Контур_20227" data-name="Контур 20227" d="M39.406,45.8l1.216-.5,1.122-1.942.87-1.439L43.9,40.9l.719-1.252,1.216-1.367-.568-1.3,1.122-1.784.317-1.122.309-.209.331-.719-.489-2.065-.079-.885-.87-1.748-.676-1.633.827-.885.259-.906v-.187h0a.194.194,0,0,1-.309.072c-.417-.273.158-1.352-.237-1.122a2.726,2.726,0,0,1-.59.245c-.971.273-1.252-.518-.971-.561a3.928,3.928,0,0,0,.971-.259c.1-.05.086-.1,0-.122-.266-.122-1.245-.173-1.216-.295.381-1.525.82-1.921,1.216-1.748a2.093,2.093,0,0,1,.763,1.115h0l-.187-.676-.281-.971-.3-.575h0c.05.137.05.187,0,.122a3.942,3.942,0,0,0-2.964-1.381,6.359,6.359,0,0,0-.856.036l-.4.065c-.827.158-1.2.345-.6-.237a5.411,5.411,0,0,1,.6-.5c.137-.072.273-.158.4-.223a2.338,2.338,0,0,1,.856-.223,2.158,2.158,0,0,1,.957.187h0l-.245-.173-1.129-.453-.05-.122h0a.36.36,0,0,1,0,.108c0,.173-.223,0-.331-.072s0,0-.036,0c-.237-.209-.129-.3,0-.281h-.611l-1.036-.6-.453-.719H38.269l-.194-.273-1.18.345-.777.194L34.68,14.53l-.23.64-.719.237-1.022-.122-.223-.655-1.834,1.245s-1.784-.381-1.834-.381-1.18.187-1.18.187l-.065.834-1.3.108-.82.122-.345.317-.41.482-.626.194-.9-.209h-.1l.086.108.036.252a.2.2,0,0,1,.065-.094c.065-.05.144,0,.245.05.23.144.482.518.158.453a.489.489,0,0,1-.158-.05.561.561,0,0,1-.252-.158h0l-.209.374-.468.36-.655.6-.719.921-.554,1.331-.065.719.05,1.561.036,1-.036.482v1.115l.158-.978c.281-.158-.108-1.079-.108-1.352V22.306c-.187-.453.259-.827.331-1.266a4.1,4.1,0,0,1,.935-1.439v.1a3.64,3.64,0,0,0,1.316-.317,1.993,1.993,0,0,0,.223-.072,3.921,3.921,0,0,1,2.309-.209c1.928.6.626,3.935,3.05,2.7a.41.41,0,0,1,.4.1.223.223,0,0,1,0,.36h-.036c-.367.345-1.072,1.892-1.374,2.273s-.4-.158-.417.036c-.036,1.007.834,1.439,1.834,1.719a12.317,12.317,0,0,1,2.568.719c.259.194.317.4.518.95.237.676-.108,5.273-.518,5.4s-.518.108-.576.4a2.4,2.4,0,0,0,.345.4,9.668,9.668,0,0,0,2.1.173h.691a6.956,6.956,0,0,0,1.547-.158c.259-.158.439-.813.662-.237s-.719,1.2-1.575,1.676a1.439,1.439,0,0,0-.64.719,4.755,4.755,0,0,0-.266,1.561c.079.043.158.1.245.144a7.661,7.661,0,0,0,2.475,1.108c-.065.158,0,.223-.209.259a7.806,7.806,0,0,1-1.439-.1H32.55c-1.611,0-1.633,1.043-1.712,1.439s.05.4.187.489.173,0,.295.173.209.532.331.719c.309.489,1.539.719,2.7.662,1.295-.05,2.511-.367,2.309-.914s0,0,.122-.158.518-.072.719.137a.475.475,0,0,0,.108.108c.1.072.151.036,0-.1l-.086-.072c-.317-.259-.6-1.266.05-.64a.179.179,0,0,1,0,.05,4.5,4.5,0,0,1,.4.468,2.253,2.253,0,0,1,.259.446.324.324,0,0,1,0,.309.18.18,0,0,1-.086.036.927.927,0,0,1-.173,0c-.173,0-.295-.05-.4,0a.209.209,0,0,0-.1.086c-.173.245-.086.5.1.784.108.173.259.367.4.568l.259.4a2.158,2.158,0,0,1,.295,1.079,10.552,10.552,0,0,0,0,1.539L38.464,47h0l.489-.1ZM26.313,17.523l-.525.036-.468.036a2.006,2.006,0,0,1-.058-.331h.525l.525.036ZM41.42,34.457a2,2,0,0,1-.086.273,1.151,1.151,0,0,0-.223.05.481.481,0,0,1-.086-.058c-.187-.151-.151-.309-.309-.345-.05-.626-.1-1.252-.137-1.856.151-.036.295-.072.446-.1l.158-.036a7.193,7.193,0,0,1,.237.993,2.878,2.878,0,0,1,0,1.072m.518-1.525c-.309.245-.453-.036-.518-.446a7.518,7.518,0,0,1-.036-1.23h.036c.036,0,.194.086.23,0s0-.719.281-.417a3.7,3.7,0,0,1,.345.576,3.064,3.064,0,0,0,.834,1.072c.086.065.108.281,0,.317-.317.1-.489-.259-.5-.072-.05.885-.173.611-.331.295M39.852,22.623h.137c.23,0,.518-.122.719,0s-.151.309-.05.417a1.611,1.611,0,0,0,.345.345h0c-.151,0-.331-.058-.453,0-.245.144.453,1.093.432,1.439a1.158,1.158,0,0,0,0,.482,1.223,1.223,0,0,0,.4.54,5.366,5.366,0,0,1,.64.719c-.072.367-.4.259.05.784v.137h-.122a3.036,3.036,0,0,1-.568-.446,4.839,4.839,0,0,1-.4-.482c-.345-.468-.6-.993-.95-1.489l-.072-.058a7.913,7.913,0,0,1-1.719-2.065,4.424,4.424,0,0,1-.259-.554,1.813,1.813,0,0,1-.122-.719h.173a.719.719,0,0,0,.209.345c.367.36,1.108.4,1.59.568m-2.252-6.474a1.439,1.439,0,0,1,.317,0,.183.183,0,0,1,.086-.173,1.611,1.611,0,0,1,.259-.173c.367-.194.914-.36.863-.187s-.345.662-.64.662a1.258,1.258,0,0,1-.223,0h-.187a.151.151,0,0,1-.072.223h0a.762.762,0,0,1-.381.058c-.273-.058-.317-.345,0-.4m-3.244,1.892a2.381,2.381,0,0,0-.4,1.2c-.209,5.079-4.316-1.978-.568-3.122a4.849,4.849,0,0,0,.87-.338.3.3,0,0,1,.1-.352c.187-.1.468,0,0,.295l-.1.058a.77.77,0,0,0,.1.216.583.583,0,0,0,.108.144c.367.468,2.985-1.108,2.259-.417A12.179,12.179,0,0,0,34.349,18m2.734,10.6c-.223.137-.453,1.144-.518.784a4.028,4.028,0,0,1,.144-1.978A1.734,1.734,0,0,1,37.6,27.1a2.28,2.28,0,0,1,.4-.036h.259a3.216,3.216,0,0,1,1.122.122c.453.194.36.482-.151.489-.331,0-.662.367-.971.64a2.058,2.058,0,0,1-.259.209.59.59,0,0,1-.194.1.835.835,0,0,1-.209.05c-.259.036-.345-.065-.518.05M38.708,41.73a.972.972,0,0,1-.065-.194h-.137c-.137-.54-.187-.777-.245-.971a2.97,2.97,0,0,0-.223-.482H38c-.036,0-.086.036-.086,0-.05-.194-.453-1.245.086-.834l.036.036a.856.856,0,0,1,.223.295c.345.64.719,1.957.446,2.158" transform="translate(-5.775 -4.078)" fill="#24272d"/>
    <path id="Контур_20228" data-name="Контур 20228" d="M56.267,27.8l-.137-.878L55.9,25.15c0,.6.158,1.2.158,1.813a1.949,1.949,0,0,0,.209.842" transform="translate(-15.687 -7.058)" fill="#24272d"/>
    <path id="Контур_20229" data-name="Контур 20229" d="M22.843,50.466c0-.036,0-.036-.309-.036l-.094.129h0l.216-.05.209.05h0v-.1" transform="translate(-6.297 -14.152)" fill="#24272d"/>
    <path id="Контур_20230" data-name="Контур 20230" d="M44.776,16.891h.072a.18.18,0,0,0-.072-.065l-.086-.036h0a.129.129,0,0,0,.086.086" transform="translate(-12.541 -4.712)" fill="#24272d"/>
    <path id="Контур_20231" data-name="Контур 20231" d="M39.154,61.435l.295-.568.54-.626h.094c-.309-1.439-.122.043-.633.482-.295-.05-.482,1.036-.719,1.273h.094Z" transform="translate(-10.869 -16.733)" fill="#24272d"/>
    <path id="Контур_20232" data-name="Контур 20232" d="M37.693,60.9c-.583-.252-.353-1.7-.583-.669h0l.1.043.187.4.281.281L38.167,62l.129.05h0c-.2-.309-.36-1.043-.611-1.158" transform="translate(-10.414 -16.798)" fill="#24272d"/>
    <path id="Контур_20233" data-name="Контур 20233" d="M52,19.1s.576.295.54.324c-.137.158.367.525.655.763a2.244,2.244,0,0,1,.611.834l.115.086h0l-.36-.611-.986-1.072-.518-.324h0" transform="translate(-14.593 -5.36)" fill="#24272d"/>
    <path id="Контур_20234" data-name="Контур 20234" d="M44.846,59.41h0l-.259.317-.4.482-.194.237.058.058.173.086v-.036l.065-.173.54-.763h.209a.489.489,0,0,0-.194-.209m-.669,1.144h0a.2.2,0,0,1,.036.05Z" transform="translate(-12.345 -16.672)" fill="#24272d"/>
    <path id="Контур_20235" data-name="Контур 20235" d="M22.269,48.85c-.043-.352-.245-.295-.489-.108l.173-.065h.122l.086,1.367h.122a5.035,5.035,0,0,0,0-1.2" transform="translate(-6.112 -13.637)" fill="#24272d"/>
    <path id="Контур_20236" data-name="Контур 20236" d="M38.432,47l-.072.043h.719Z" transform="translate(-10.765 -13.189)" fill="#24272d"/>
    <path id="Контур_20237" data-name="Контур 20237" d="M32.536,59.6a.339.339,0,0,0-.086-.065c-.043,0-.086,0-.129.122h.094l.626.8h.1c-.223-.252-.345-.64-.6-.842" transform="translate(-9.07 -16.709)" fill="#24272d"/>
    <path id="Контур_20238" data-name="Контур 20238" d="M32.616,34.957a1.3,1.3,0,0,0,.259.676.794.794,0,0,0,.281-.086,1.137,1.137,0,0,0-.906-1.5,1.7,1.7,0,0,0-.95,0,7.541,7.541,0,0,0,.95.662l.367.259" transform="translate(-8.784 -9.535)" fill="#24272d"/>
    <path id="Контур_20239" data-name="Контур 20239" d="M34.929,41.384a.676.676,0,0,0,.187.683h.058l.05-.777a.611.611,0,0,1,0-.1c-.108-.115-.209-.129-.317.158" transform="translate(-9.794 -11.537)" fill="#24272d"/>
    <path id="Контур_20240" data-name="Контур 20240" d="M27.436,56.209a.432.432,0,0,0-.266.065h0l.18.165.165.115h0a1.884,1.884,0,0,0-.108-.345" transform="translate(-7.625 -15.773)" fill="#24272d"/>
    <path id="Контур_20241" data-name="Контур 20241" d="M23.739,52.413h.072c-.151-.5-.3-1.237-.424-1.784,0-.072,0-.158-.317-.065h.144Z" transform="translate(-6.474 -14.178)" fill="#24272d"/>
    <path id="Контур_20242" data-name="Контур 20242" d="M29.906,58.631l.043.05a1.144,1.144,0,0,1,0-.252c-.288,0-.5.338-.719.518H29.3Z" transform="translate(-8.203 -16.397)" fill="#24272d"/>
    <path id="Контур_20243" data-name="Контур 20243" d="M27.916,56.3c-.086-.209-.1-.122-.122,0a.547.547,0,0,1-.094.245h.086l.676,1.331.273.4h.108a5.115,5.115,0,0,1-.928-1.971" transform="translate(-7.773 -15.764)" fill="#24272d"/>
    <path id="Контур_20244" data-name="Контур 20244" d="M19.547,42.582,19,42.33h0l.137.086Z" transform="translate(-5.332 -11.879)" fill="#24272d"/>
    <path id="Контур_20245" data-name="Контур 20245" d="M30.568,58.557c-.094-.223-.209-.072-.338.129h.086l.468,1.6.1.036h0c-.223-.5-.158-1.338-.338-1.719" transform="translate(-8.483 -16.402)" fill="#24272d"/>
    <path id="Контур_20246" data-name="Контур 20246" d="M31.907,59.593h.086l-.18-.223c-.187.058-.46.719-.633,1.144h.072Z" transform="translate(-8.75 -16.661)" fill="#24272d"/>
    <path id="Контур_20247" data-name="Контур 20247" d="M18.812,39.255c-.295-1.072.223-2.216.173-3.324,0-.295-.5-.935-.5-1.28a4.683,4.683,0,0,1,.482-1.316c.54-1.007,1.144-.993,1.626-1.834h-.482l.05.05-1.144,1.388-.482.935-.2.863.4.9s.209.59.108.662a27.024,27.024,0,0,0-.259,2.741l.173.209.065.065h0" transform="translate(-5.144 -8.84)" fill="#24272d"/>
    <path id="Контур_20248" data-name="Контур 20248" d="M40.62,60.3h.072l.273.647.072.108c-.446-1.662-.324-1.288-.417-.784" transform="translate(-11.399 -16.794)" fill="#24272d"/>
    <path id="Контур_20249" data-name="Контур 20249" d="M24.363,52.36l-.223.576h.072l.259-.367.122.036h0a1.049,1.049,0,0,0-.122-.137l-.108-.086" transform="translate(-6.774 -14.694)" fill="#24272d"/>
    <path id="Контур_20250" data-name="Контур 20250" d="M20.538,45.46l-.468.64h.086l.453-.432.295-.058h0l.058-.108a2.537,2.537,0,0,0-.432,0" transform="translate(-5.632 -12.757)" fill="#24272d"/>
    <path id="Контур_20251" data-name="Контур 20251" d="M24.874,52.5a.6.6,0,0,0-.094.1H24.9l.532.849.065.036h0c-.144-.475-.2-1.324-.619-.971" transform="translate(-6.954 -14.714)" fill="#24272d"/>
    <path id="Контур_20252" data-name="Контур 20252" d="M20.64,31.19l.115.2a2.288,2.288,0,0,0,.137-.2H20.64" transform="translate(-5.792 -8.753)" fill="#24272d"/>
    <path id="Контур_20253" data-name="Контур 20253" d="M20.036,43.553c-.151-.187.245-.482.122-.676a.6.6,0,0,0-.388-.187h0l.1.036.072.719.187.482-.309,1.338h.158v-.194c0-.87.676-.784.036-1.575" transform="translate(-5.548 -11.98)" fill="#24272d"/>
    <path id="Контур_20254" data-name="Контур 20254" d="M33.843,60a3.885,3.885,0,0,1-.4.561h0l.18-.058.245-.158h0V60" transform="translate(-9.384 -16.838)" fill="#24272d"/>
    <path id="Контур_20255" data-name="Контур 20255" d="M43.13,60.935h.151v-.108l.036-.468h.065L43.195,60a4.95,4.95,0,0,1-.058.921" transform="translate(-12.103 -16.838)" fill="#24272d"/>
    <path id="Контур_20256" data-name="Контур 20256" d="M43.565,60.166a.511.511,0,0,0-.065.173h.129l.209.295-.05-.173c0-.086-.122-.468-.223-.324" transform="translate(-12.207 -16.867)" fill="#24272d"/>
    <path id="Контур_20257" data-name="Контур 20257" d="M35.558,43.313a5.036,5.036,0,0,1-1.388-.993c-.18-.1-.719-.381-.791-.288s.36.324.489.554a1.388,1.388,0,0,1,.158,1.158,12.274,12.274,0,0,0-1.7-.432,1.439,1.439,0,0,0-.8,0,4.238,4.238,0,0,0,.8.381c.5.23,1.036.518.784.655a1.626,1.626,0,0,1-.784,0,1.812,1.812,0,0,0-.554,0c-.108.086.345.273.554.446a.216.216,0,0,1,.108.158.194.194,0,0,1-.108.108c-.23.122-.719.072-.223.317l.223.151a20.416,20.416,0,0,0,1.957,1.266,21.821,21.821,0,0,0,2.158-1.137c-.036-1.676-.4-2.021-.885-2.316" transform="translate(-8.848 -11.79)" fill="#24272d"/>
    <path id="Контур_20258" data-name="Контур 20258" d="M26.578,53.763c-.115-.223-.194,0-.288.158h.094l.417,1.59.1.05h0c-.237-.518-.165-1.439-.345-1.8" transform="translate(-7.378 -15.061)" fill="#24272d"/>
    <path id="Контур_20259" data-name="Контур 20259" d="M41.584,61.282a3.06,3.06,0,0,1-.158.273l-.216-.086.216.108H41.6l.1-.194.568-.122h.281c-.309-.173-.432,0-.957,0" transform="translate(-11.565 -17.17)" fill="#24272d"/>
    <path id="Контур_20260" data-name="Контур 20260" d="M5.817,26l.086-.719a.95.95,0,0,0-.863-1.093.906.906,0,0,0-1.108.806L3.76,26.428l3.086.367.072-.64Zm-1.439-.173.065-.518c.05-.4.194-.54.489-.5a.432.432,0,0,1,.432.532l-.072.6ZM4.9,20.788l2.69-.273c.144.173.173.23.1.4a.669.669,0,0,1-.158.237l.5.209A1.849,1.849,0,0,0,8.22,21c.122-.281.122-.518-.245-.885L5.99,18.069l-.273.676L7.084,20l-1.921.122Zm5.165-7.244a1.259,1.259,0,0,0-1.683.439,1.439,1.439,0,0,0,.489,2.137,1.439,1.439,0,0,0,2.158-.187,1.288,1.288,0,0,0-.137-1.755l-.381.518a.719.719,0,0,1,.072.906c-.317.439-.87.331-1.331,0-.719-.5-.6-1.022-.417-1.266a.626.626,0,0,1,.856-.252Zm4.244-4.108a1.245,1.245,0,0,0-1.734,0,1.439,1.439,0,0,0-.036,2.158,1.439,1.439,0,0,0,2.158.331,1.273,1.273,0,0,0,.295-1.734l-.489.4a.719.719,0,0,1-.144.906c-.417.345-.921.1-1.28-.317-.568-.676-.345-1.144-.108-1.338a.647.647,0,0,1,.885,0Zm2.877-2.985-.575.281L17.96,9.509l.575-.281-.453-.95.137-.4,1.439.8.719-.36L18.406,7.257,19,5.574l-.763.36L17.73,7.6ZM23.09,4.293l-.367,3.273.633-.173.065-.676,1.122-.259.331.575.719-.158L23.816,4.113Zm.518.6h0l.719,1.093-.813.187ZM30.8,3.646,29.24,3.61a.957.957,0,0,0-.993.935.935.935,0,0,0,.719.9l-.842,1.223h.719l.719-1.194h.482V6.689H30.7Zm-.662,1.338H29.42c-.331,0-.5-.187-.489-.439s.122-.381.453-.381h.8Zm7.769.281-.59-.259L36.031,7.811,39.275,9.25l1.252-2.842-.576-.259L38.909,8.494l-.719-.331.993-2.331-.59-.259L37.563,7.926,36.844,7.6ZM44.146,8.8l-.518-.4-1.87,2.482.518.381.626-.834.432-.065-.05,1.662.662.5.036-2.273,1.77-.245-.662-.5L43.376,9.8Zm2.777,4.647a1.5,1.5,0,1,0,2.2.245,1.439,1.439,0,0,0-2.2-.245m.381.532c.719-.518,1.165-.245,1.374.036s.317.813-.4,1.331-1.158.23-1.367-.05-.317-.813.381-1.316m4.5,4.374L50.109,19c-.619.245-.834.259-.95,0a.835.835,0,0,1-.05-.187L48.656,19a1.741,1.741,0,0,0,.1.381c.23.568.784.554,1.539.245l1.216-.489.331.813-2.374.957.23.6,2.877-1.165Zm1.921,6.474L50.512,24.1l.072.676.662.137.137,1.129-.6.273.086.719L53.8,25.6Zm-.655.439h0l-1.165.568L51.8,25Z" transform="translate(-1.055 -1.013)" fill="#24272d"/>
    <path id="Контур_20261" data-name="Контур 20261" d="M9.638,51.43,8.2,53.718c-.223,0-.281,0-.367-.158a.532.532,0,0,1-.1-.281l-.482.273a1.9,1.9,0,0,0,.173.367c.144.259.331.4.849.345l2.877-.317-.367-.626-1.82.309,1.086-1.6Zm2.971,4.726L10.35,58.242l.446.468,1.885-1.748.827.885-1.885,1.748.446.482,2.266-2.115Zm3.359,5.755.59.439a.978.978,0,0,0,1.388-.223.906.906,0,0,0-.194-1.367l-1.144-.834-1.82,2.511.518.381Zm.849-1.165.417.309c.317.23.381.432.209.676a.432.432,0,0,1-.676.108l-.489-.353Zm5.036,2.079L19.63,65.249l.626.273.453-.5,1.043.439-.065.662.64.273.209-3.273Zm.065.784h0L21.832,64.9l-.763-.317Zm3.762,3.467L27,67.249c1.144.137,1.316-.5,1.352-.777a.719.719,0,0,0-.417-.834.633.633,0,0,0,.446-.59c.05-.317-.086-.813-.834-.906l-1.525-.187Zm.8-1.266.813.1a.383.383,0,0,1,.417.432.446.446,0,0,1-.554.4l-.777-.1Zm.151-1.194.719.086c.295.036.453.137.432.4s-.245.317-.5.281l-.719-.086Zm4.964-.381L31.817,66c.086.676.036.885-.245.921a.885.885,0,0,1-.194,0l.058.5a1.439,1.439,0,0,0,.4,0c.6-.072.719-.611.64-1.4l-.223-1.388.856-.108.324,2.547.64-.072-.381-3.079Zm4.813-.885,1.165,2.877,2.158-.885-.173-.554-1.583.64-.317-.8,1.381-.561-.194-.489-1.388.568-.245-.59,1.511-.59-.194-.5Zm5.287-2.518-.54.36,1.7,2.6.54-.345-.763-1.165,1.007-.662.763,1.165.54-.345L43.255,59.8l-.54.36.64.986-1.036.64Zm4.043-3.259-.417.489,2.338,2.029.453-.518-.834-2.41L48.945,58.6l.417-.489-2.338-2.029-.482.54.813,2.331Zm4.007-5.913L49.024,53.1a.928.928,0,0,0,1.525,1.043l.813,1.245.331-.719-.741-1.194.209-.432,1.079.532L52.52,53Zm.935,1.18-.331.662c-.144.309-.381.381-.6.273a.417.417,0,0,1-.158-.576l.36-.719Z" transform="translate(-2.035 -14.433)" fill="#24272d"/>
    <path id="Контур_20262" data-name="Контур 20262" d="M70.531,43.14a.971.971,0,1,1-.971.971.971.971,0,0,1,.971-.971" transform="translate(-19.52 -12.106)" fill="#24272d" fill-rule="evenodd"/>
    <path id="Контур_20263" data-name="Контур 20263" d="M5.954,43.09a.964.964,0,1,1-.964.964.964.964,0,0,1,.964-.964" transform="translate(-1.4 -12.092)" fill="#24272d" fill-rule="evenodd"/>
    <circle id="Эллипс_1283" data-name="Эллипс 1283" cx="20.315" cy="20.315" r="20.315" transform="translate(7.366 7.546)" fill="none" stroke="#24272d" stroke-miterlimit="10" stroke-width="1"/>
    <circle id="Эллипс_1284" data-name="Эллипс 1284" cx="27.466" cy="27.466" r="27.466" transform="translate(0.36 0.352)" fill="none" stroke="#24272d" stroke-miterlimit="10" stroke-width="1"/>
  </g>
  </symbol>
  <symbol id="geekbrains" xmlns="http://www.w3.org/2000/svg" viewBox="0 0 188.119 32.159">
  <g id="Сгруппировать_882" data-name="Сгруппировать 882" transform="translate(22300 19388.001)">
    <path id="Контур_1061" data-name="Контур 1061" d="M639.54,270.1a7.127,7.127,0,0,0-5.314,2.142,7.455,7.455,0,0,0-2.114,5.369,7.049,7.049,0,0,0,2.285,5.426,8.359,8.359,0,0,0,5.914,2.085,13.339,13.339,0,0,0,5.4-1.228v-2.884a10.943,10.943,0,0,1-5.4,1.4c-2.371,0-4.628-1.028-5.114-3.77H646.31a7.591,7.591,0,0,0,.143-1.685,6.765,6.765,0,0,0-6.914-6.854Zm-.086,2.827a3.913,3.913,0,0,1,4.057,3.341h-8.285A4.054,4.054,0,0,1,639.454,272.926Z" transform="translate(-22852.313 -19647.941)" fill="#121621"/>
    <path id="Контур_1062" data-name="Контур 1062" d="M1025.844,271.183a6.392,6.392,0,0,0-4.343,1.742v-1.456h-2.97v14.279h2.97v-7.168c0-3.341,2.086-4.484,4.513-4.484a4.374,4.374,0,0,1,.543.057V271.24C1026.3,271.212,1025.986,271.183,1025.844,271.183Z" transform="translate(-23189.947 -19648.889)" fill="#121621"/>
    <path id="Контур_1063" data-name="Контур 1063" d="M792.819,280.193l5.314-6.968h-3.6L789.3,280.25l5.542,7.254h3.514l-5.6-7.282Z" transform="translate(-22989.66 -19650.672)" fill="#121621"/>
    <path id="Контур_1064" data-name="Контур 1064" d="M767.866,227.3H764.9V247.38h2.971Z" transform="translate(-22968.332 -19610.549)" fill="#121621"/>
    <path id="Контур_1065" data-name="Контур 1065" d="M357.811,236.066v-.771H348.5v2.827h6.2v4.169a11.93,11.93,0,0,1-4.4.828,7.3,7.3,0,0,1-5.314-2.085,7.533,7.533,0,0,1,0-10.224,8.383,8.383,0,0,1,6.085-2.085,12.342,12.342,0,0,1,5.8,1.4V226.87a14.174,14.174,0,0,0-5.8-1.228c-3.371.029-6.456,1.085-8.313,2.97a10.062,10.062,0,0,0-3,7.311,10.175,10.175,0,0,0,3,7.34,10.344,10.344,0,0,0,7.513,2.941,14.529,14.529,0,0,0,7.513-2.113v-8.025Z" transform="translate(-22596.863 -19609.098)" fill="#121621"/>
    <path id="Контур_1066" data-name="Контур 1066" d="M514.437,272.184a6.918,6.918,0,0,0-5.056-2.085,7.127,7.127,0,0,0-5.314,2.142,7.455,7.455,0,0,0-2.114,5.369,7.049,7.049,0,0,0,2.285,5.426,7.785,7.785,0,0,0,1.485,1.057,9.172,9.172,0,0,0,4.457,1.028,13.338,13.338,0,0,0,5.4-1.228v-2.884a9.958,9.958,0,0,1-1.114.543,10.812,10.812,0,0,1-4.285.828c-2.371,0-4.628-1.028-5.114-3.77h11.084a7.593,7.593,0,0,0,.143-1.685,6.713,6.713,0,0,0-1.771-4.655Q514.48,272.269,514.437,272.184Zm-1.114,4.084h-8.285a4.119,4.119,0,0,1,4.228-3.341A3.913,3.913,0,0,1,513.323,276.268Z" transform="translate(-22738.584 -19647.941)" fill="#121621"/>
    <path id="Контур_1067" data-name="Контур 1067" d="M1237.151,273.225h-2.971V287.5h2.971Z" transform="translate(-23378.375 -19650.672)" fill="#121621"/>
    <path id="Контур_1068" data-name="Контур 1068" d="M1232.895,223.907a1.743,1.743,0,0,0-1.342.543,2,2,0,0,0,0,2.741,1.786,1.786,0,0,0,1.342.542,1.748,1.748,0,0,0,1.343-.542,2.005,2.005,0,0,0,0-2.741A1.748,1.748,0,0,0,1232.895,223.907Z" transform="translate(-23375.604 -19607.58)" fill="#121621"/>
    <path id="Контур_1069" data-name="Контур 1069" d="M1413.414,281.162a3.414,3.414,0,0,0-.658-2.142c-.885-1.257-2.6-1.885-4.484-2.37a10.467,10.467,0,0,1-2.257-.742,1.293,1.293,0,0,1-.771-1.2h0c0-.971,1.2-1.428,2.656-1.428a10.029,10.029,0,0,1,4.857,1.2v-2.97a12.21,12.21,0,0,0-4.857-1,6.9,6.9,0,0,0-4.113,1.142,3.763,3.763,0,0,0-1.457,3.2c0,2.77,2.4,3.827,5.142,4.512a10.47,10.47,0,0,1,2.257.742,1.293,1.293,0,0,1,.771,1.2c0,1-1.058,1.485-2.8,1.485a15.118,15.118,0,0,1-5.171-.885v2.77a16.36,16.36,0,0,0,5.171.857,7.337,7.337,0,0,0,4.2-1.171,3.7,3.7,0,0,0,.886-.885A4.135,4.135,0,0,0,1413.414,281.162Z" transform="translate(-23525.295 -19648.301)" fill="#121621"/>
    <path id="Контур_1070" data-name="Контур 1070" d="M889.808,237.066a4.57,4.57,0,0,0,1.943-3.912,5.461,5.461,0,0,0-1.743-4.027,6.518,6.518,0,0,0-4.4-1.6h-8.456v20.048h9.17a6.642,6.642,0,0,0,4.514-1.628,5.453,5.453,0,0,0,1.743-4.112A5.3,5.3,0,0,0,889.808,237.066Zm-9.6-6.8h5.714a2.856,2.856,0,0,1,0,5.712H880.21Zm6.256,14.593H880.21v-6.169h6.256a3.086,3.086,0,0,1,0,6.169Z" transform="translate(-23066.418 -19610.744)" fill="#121621"/>
    <path id="Контур_1071" data-name="Контур 1071" d="M1290.559,273.022a3.23,3.23,0,0,1,2.8,1.228,4.147,4.147,0,0,1,.658,2.456v8.225h2.97v-8.339a6.4,6.4,0,0,0-1.428-4.369l-.057-.057a5.394,5.394,0,0,0-4.171-1.885,6.643,6.643,0,0,0-4.2,1.456v-1.085h-2.971V284.93h2.971v-8.225a3.86,3.86,0,0,1,.744-2.342,3.246,3.246,0,0,1,.856-.8A3.085,3.085,0,0,1,1290.559,273.022Z" transform="translate(-23422.045 -19648.1)" fill="#121621"/>
    <path id="Контур_1072" data-name="Контур 1072" d="M1099.568,272.022a7.051,7.051,0,0,0-4.8-1.742,7.141,7.141,0,0,0-5.257,2.171,7.047,7.047,0,0,0-1.028,1.257c-.058.086-.115.2-.172.286a7.367,7.367,0,0,0-.972,3.8,7.282,7.282,0,0,0,2.171,5.34,7.141,7.141,0,0,0,5.257,2.171,6.839,6.839,0,0,0,4.8-1.771v1.4h2.97V270.651h-2.97Zm-1.343,9.167a4.837,4.837,0,0,1-6.628,0,4.632,4.632,0,0,1-1.314-3.37,4.521,4.521,0,0,1,1.314-3.341,4.762,4.762,0,0,1,6.628,0,4.516,4.516,0,0,1,1.314,3.341A4.627,4.627,0,0,1,1098.225,281.189Z" transform="translate(-23250.07 -19648.1)" fill="#121621"/>
    <path id="Контур_1073" data-name="Контур 1073" d="M130.485,192.881a6.293,6.293,0,0,0-.932,3.721v2.248a3.215,3.215,0,0,0,.7,2.009l2.189,2.735a2.144,2.144,0,1,1-1.822,2.12,2.137,2.137,0,0,1,.147-.781l-2.189-2.735a5.359,5.359,0,0,1-1.175-3.348V196.6a8.371,8.371,0,0,1,1.347-4.989,4.8,4.8,0,0,1,4.015-1.979,6.435,6.435,0,0,1,5.954,3.99,5.9,5.9,0,0,1,4.233,5.657,6.273,6.273,0,0,1-.17,1.7,5.36,5.36,0,0,1,0,9.473,6.275,6.275,0,0,1,.17,1.695,5.9,5.9,0,0,1-4.233,5.657,6.443,6.443,0,0,1-7.964,3.67l.67-2.037a4.3,4.3,0,0,0,5.452-2.847l.189-.634.651-.116a3.754,3.754,0,0,0,3.091-3.694c0-.932-.072-1.273-.332-1.588a1.47,1.47,0,0,0-1.35-.536,2.275,2.275,0,0,0-1.494.84l-1.26,1.575a2.145,2.145,0,1,1-2-1.363,2.161,2.161,0,0,1,.323.024l1.261-1.575a4.418,4.418,0,0,1,2.941-1.633,3.635,3.635,0,0,1,2.685.762,3.217,3.217,0,0,0,0-5.875,3.635,3.635,0,0,1-2.685.762,4.418,4.418,0,0,1-2.941-1.633l-1.26-1.575a2.144,2.144,0,1,1,1.822-2.12,2.138,2.138,0,0,1-.147.781l1.26,1.575a2.274,2.274,0,0,0,1.494.84,1.47,1.47,0,0,0,1.35-.536c.259-.315.332-.656.332-1.588a3.754,3.754,0,0,0-3.091-3.694l-.651-.116-.189-.634a4.291,4.291,0,0,0-4.111-3.061A2.658,2.658,0,0,0,130.485,192.881Z" transform="translate(-22411.324 -19577.635)" fill="#121621"/>
    <path id="Контур_1074" data-name="Контур 1074" d="M9.261,212.437a2.145,2.145,0,1,0,2-1.363,2.161,2.161,0,0,0-.323.024l-1.26-1.575a4.418,4.418,0,0,0-2.941-1.633,3.635,3.635,0,0,0-2.685.762,3.217,3.217,0,0,1,0-5.875,3.635,3.635,0,0,0,2.685.762,4.418,4.418,0,0,0,2.941-1.633l1.261-1.575a2.142,2.142,0,1,0-1.675-1.339L8,200.566a2.275,2.275,0,0,1-1.494.84,1.47,1.47,0,0,1-1.35-.536c-.259-.315-.332-.656-.332-1.588a3.754,3.754,0,0,1,3.091-3.694l.651-.116.189-.634a4.3,4.3,0,0,1,5.452-2.847l.67-2.037a6.442,6.442,0,0,0-7.964,3.67,5.9,5.9,0,0,0-4.233,5.657,6.276,6.276,0,0,0,.17,1.695,5.36,5.36,0,0,0,0,9.473,6.274,6.274,0,0,0-.17,1.695A5.9,5.9,0,0,0,6.914,217.8a6.435,6.435,0,0,0,5.954,3.99,4.8,4.8,0,0,0,4.015-1.979,8.371,8.371,0,0,0,1.347-4.989v-2.248a5.359,5.359,0,0,0-1.175-3.348l-2.189-2.735a2.145,2.145,0,1,0-2,1.363,2.163,2.163,0,0,0,.323-.024l2.189,2.735a3.216,3.216,0,0,1,.7,2.009v2.248a6.293,6.293,0,0,1-.932,3.721,2.658,2.658,0,0,1-2.285,1.1,4.291,4.291,0,0,1-4.111-3.061l-.189-.634-.651-.116a3.753,3.753,0,0,1-3.091-3.694c0-.932.072-1.273.332-1.588a1.47,1.47,0,0,1,1.35-.536,2.274,2.274,0,0,1,1.494.84Z" transform="translate(-22300 -19577.635)" fill="#121621"/>
  </g>
  </symbol>
  <symbol id="techline" xmlns="http://www.w3.org/2000/svg" viewBox="0 0 86.571 27.188">
  <path id="Контур_1075" data-name="Контур 1075" d="M8.968,17.935A8.968,8.968,0,1,0,0,8.968,8.968,8.968,0,0,0,8.968,17.935Z" fill="#a2c81f"/>
  <path id="Контур_1076" data-name="Контур 1076" d="M66.268,17.935A8.968,8.968,0,1,0,57.3,8.968,8.967,8.967,0,0,0,66.268,17.935Z" transform="translate(-41.538)" fill="#a2c81f"/>
  <path id="Контур_1077" data-name="Контур 1077" d="M144.768,17.935A8.968,8.968,0,1,0,135.8,8.968,8.967,8.967,0,0,0,144.768,17.935Z" transform="translate(-98.444)" fill="#a2c81f"/>
  <path id="Контур_1078" data-name="Контур 1078" d="M213.485,15.7V11.658H212V10.2h4.621v1.458h-1.458V15.7Z" transform="translate(-153.683 -7.394)"/>
  <path id="Контур_1079" data-name="Контур 1079" d="M231.7,15.7V10.2h4.181v1.458h-2.5v.55h2.448v1.458h-2.448v.605h2.5v1.458H231.7Z" transform="translate(-167.964 -7.394)"/>
  <path id="Контур_1080" data-name="Контур 1080" d="M252.464,15.7l-.193-.633h-1.981l-.193.633h-1.9l2.036-5.5h2.091l2.036,5.5Zm-1.183-3.879-.55,1.761h1.1Z" transform="translate(-179.925 -7.394)"/>
  <path id="Контур_1081" data-name="Контур 1081" d="M271.4,12.733A2.813,2.813,0,0,1,274.426,9.9a2.6,2.6,0,0,1,2.5,1.6l-1.43.66a1.158,1.158,0,0,0-1.073-.8,1.376,1.376,0,0,0,0,2.751,1.158,1.158,0,0,0,1.073-.8l1.43.66a2.576,2.576,0,0,1-2.5,1.6A2.8,2.8,0,0,1,271.4,12.733Z" transform="translate(-196.744 -7.177)"/>
  <path id="Контур_1082" data-name="Контур 1082" d="M297.759,15.7V13.611h-1.981V15.7H294.1V10.2h1.678v1.953h1.981V10.2h1.678v5.5Z" transform="translate(-213.199 -7.394)"/>
  <path id="Контур_1083" data-name="Контур 1083" d="M248.9,40.8V35.3h1.678v4.044h2.091V40.8Z" transform="translate(-180.433 -25.59)"/>
  <path id="Контур_1084" data-name="Контур 1084" d="M265.7,40.8V35.3h1.678v5.5Z" transform="translate(-192.612 -25.59)"/>
  <path id="Контур_1085" data-name="Контур 1085" d="M279.514,40.8l-2.036-2.778V40.8H275.8V35.3h1.706l1.926,2.613V35.3h1.678v5.5Z" transform="translate(-199.933 -25.59)"/>
  <path id="Контур_1086" data-name="Контур 1086" d="M299.1,40.8V35.3h4.181v1.458h-2.5v.55h2.448v1.458h-2.448v.605h2.5v1.458H299.1Z" transform="translate(-216.824 -25.59)"/>
  <path id="Контур_1087" data-name="Контур 1087" d="M156.205,80.447l.778-2.505h.611L156.251,81.8q-.312.834-.992.834l-.108-.009-.213-.04v-.463l.155.012a.753.753,0,0,0,.451-.117.842.842,0,0,0,.269-.429l.127-.34-1.192-3.306h.624Zm4.427.837h-.575V80.073a3.03,3.03,0,0,1-.772.1,1.32,1.32,0,0,1-.958-.321,1.242,1.242,0,0,1-.334-.914v-1h.572v1.016q.015.748.72.748a3.03,3.03,0,0,0,.772-.1V77.942h.575Zm2.3.062a1.463,1.463,0,0,1-1.106-.445,1.663,1.663,0,0,1-.426-1.2V79.6a2.009,2.009,0,0,1,.189-.887,1.484,1.484,0,0,1,.531-.612,1.337,1.337,0,0,1,.741-.222,1.252,1.252,0,0,1,1.013.429,1.859,1.859,0,0,1,.361,1.23v.238h-2.264a1.2,1.2,0,0,0,.287.8.914.914,0,0,0,.7.3,1,1,0,0,0,.513-.124,1.29,1.29,0,0,0,.368-.327l.349.272A1.4,1.4,0,0,1,162.937,81.346Zm-.071-3a.76.76,0,0,0-.581.253,1.214,1.214,0,0,0-.29.7h1.674v-.043a1.08,1.08,0,0,0-.235-.673A.716.716,0,0,0,162.865,78.35Zm3.506-.216a1.282,1.282,0,0,1,1.007.423,1.59,1.59,0,0,1,.38,1.109v.053a1.906,1.906,0,0,1-.182.846,1.36,1.36,0,0,1-.525.578,1.5,1.5,0,0,1-.785.2,1.4,1.4,0,0,1-1.084-.448,1.726,1.726,0,0,1-.411-1.208v-.278a3.127,3.127,0,0,1,.389-1.674,1.643,1.643,0,0,1,1.155-.757,1.53,1.53,0,0,0,.584-.188.359.359,0,0,0,.152-.306h.47a.93.93,0,0,1-.176.6.968.968,0,0,1-.556.306l-.426.1a1.439,1.439,0,0,0-.766.408,1.467,1.467,0,0,0-.33.76A1.409,1.409,0,0,1,166.372,78.133Zm-.111.47a.839.839,0,0,0-.667.284,1.144,1.144,0,0,0-.247.782v.049a1.346,1.346,0,0,0,.247.853.818.818,0,0,0,.673.312.809.809,0,0,0,.673-.315,1.468,1.468,0,0,0,.247-.921,1.1,1.1,0,0,0-.25-.757A.846.846,0,0,0,166.261,78.6Zm4.816,2.681h-.572V79.857H168.97v1.427H168.4V77.942h.575v1.449h1.535V77.942h.572Zm1.545-2.19h.868a1.337,1.337,0,0,1,.9.3,1,1,0,0,1,.331.788,1.023,1.023,0,0,1-.34.8,1.323,1.323,0,0,1-.914.3H172.05V77.942h.571Zm3.29,2.19h-.575V77.942h.575Zm-3.29-1.724v1.257h.85a.7.7,0,0,0,.5-.164.6.6,0,0,0,.176-.454.621.621,0,0,0-.173-.454.647.647,0,0,0-.479-.185Zm6.451-1.619h.571v3.343h-.571V78.847l-1.542,2.437h-.572V77.942h.572v2.441Zm.154-1.217a.769.769,0,0,1-.256.6,1.1,1.1,0,0,1-1.338,0,.765.765,0,0,1-.256-.6h.467a.473.473,0,0,0,.117.34.539.539,0,0,0,.679,0,.452.452,0,0,0,.124-.34Zm2.953,1.217h.575v2.876h1.538V77.942h.572v2.876h.4l-.056,1.458h-.513v-.992H182.18Zm5.088,3.4a1.464,1.464,0,0,1-1.106-.445,1.662,1.662,0,0,1-.426-1.2V79.6a2.009,2.009,0,0,1,.188-.887,1.484,1.484,0,0,1,.531-.612,1.337,1.337,0,0,1,.742-.222,1.252,1.252,0,0,1,1.013.429,1.859,1.859,0,0,1,.361,1.23v.238h-2.264a1.2,1.2,0,0,0,.287.8.915.915,0,0,0,.7.3,1,1,0,0,0,.513-.124,1.289,1.289,0,0,0,.367-.327l.349.272A1.4,1.4,0,0,1,187.268,81.346Zm-.071-3a.76.76,0,0,0-.581.253,1.214,1.214,0,0,0-.29.7H188v-.043a1.082,1.082,0,0,0-.235-.673A.716.716,0,0,0,187.2,78.35Zm4.77,2.935h-.572V79.857h-1.535v1.427h-.575V77.942h.575v1.449h1.535V77.942h.572Zm3.4-2.879h-1.121v2.879h-.572V78.405h-1.1v-.463h2.793Zm3.38,1.245a2,2,0,0,1-.349,1.23,1.119,1.119,0,0,1-.945.466,1.226,1.226,0,0,1-.958-.386v1.609h-.572V77.942h.522l.028.371a1.177,1.177,0,0,1,.97-.433,1.136,1.136,0,0,1,.951.454,2.016,2.016,0,0,1,.352,1.264Zm-.572-.065a1.477,1.477,0,0,0-.241-.893.776.776,0,0,0-.661-.327.84.84,0,0,0-.778.46v1.6a.841.841,0,0,0,.785.457.77.77,0,0,0,.652-.324A1.612,1.612,0,0,0,198.179,79.585Z" transform="translate(-112.179 -55.447)"/>
  </symbol>
  <symbol id="interra"
    xmlns="http://www.w3.org/2000/svg" xmlns:xlink="http://www.w3.org/1999/xlink" viewBox="0 0 1026 339">

    <path class="st0" d="M269.9,115.8c1.6-6.8,3.1-13.6,4.3-20.6s2.4-14,3-21.3c-5.1,5.1-9.8,10.5-14.4,16s-8.9,11-13,16.6
  c-1.1,1.5-2.2,3.1-3.4,4.6c7.7,2.6,15,6.1,22,10.3C269,119.5,269.5,117.6,269.9,115.8" fill="#FFCB31"/>
    <path class="st0" d="M145.6,330.1c-1.6,6.8-3.1,13.6-4.3,20.6s-2.4,14-3,21.3c5.1-5.1,9.8-10.5,14.4-16s8.8-11,13-16.6
  c1.1-1.5,2.2-3.1,3.4-4.6c-7.6-2.6-15-6-21.9-10.2C146.6,326.4,146.1,328.3,145.6,330.1" fill="#FFCB31"/>
    <path class="st0" d="M268.5,121.4c-1.2,5-2.5,9.8-3.9,14.7c-1.9,6.7-3.9,13.3-6,19.8c-8.6,26.1-18.8,51.6-30.5,76.5
  c-11.6,24.9-24.6,49.1-39.1,72.4c-3.6,5.9-7.4,11.7-11.3,17.4c-2.8,4.2-5.8,8.3-8.7,12.4c61.7,21.5,129.1-11.1,150.6-72.8
  C338,208.8,316.7,150.1,268.5,121.4" fill="#FFCB31"/>
    <path class="st0" d="M157,290c17.3-52.2,40.6-102.3,69.4-149.1c3.6-5.8,7.4-11.7,11.3-17.3c2.8-4.2,5.8-8.3,8.8-12.4
  c-12.5-4.4-25.6-6.6-38.8-6.6c-65.4-0.1-118.4,52.9-118.5,118.3c0,41.7,21.9,80.4,57.7,101.7c1.2-5,2.6-9.8,3.9-14.7
  C152.8,303.2,154.9,296.6,157,290" fill="#FFCB31"/>
    <path class="st1" d="M378.4,161.2h21.3v19.6h-21.3V161.2z M378.4,191h21.3v88.9h-21.3V191z"/>
    <path class="st1" d="M416.9,191.1h19.6v8.1h0.4c2.9-3.7,9.9-11.1,24.4-11.1c20.5,0,34.7,14.8,34.7,39.9v52h-21.4v-47.2
  c0-19.9-9.5-24.4-17.8-24.4c-17.4,0-18.4,16.6-18.4,24.4V280H417v-88.9H416.9z"/>
    <polygon class="st1" points="516.4,210 506,210 506,191.1 516.4,191.1 516.4,161.2 537.8,161.2 537.8,191.1 550.6,191.1 550.6,210
  537.8,210 537.8,280 516.4,280 "/>
    <path class="st1" d="M580.4,245c2.8,10.9,11.9,17.6,23.3,17.6c6.9,0,14.6-1.9,19.9-8.3h24.1c-11.9,28.3-39,28.6-43.2,28.6
  c-32,0-47-26.3-47-46.8s15.2-48,47.4-48c27.1,0,45.8,20.9,45.8,47.4c0.1,3.2-0.1,6.3-0.5,9.5H580.4z M628.3,226
  c-3-11.2-12.5-17.6-23.5-17.6c-11.2-0.2-21.2,7-24.7,17.6H628.3z"/>
    <path class="st1" d="M664.1,191.1h19.6v8.1h0.3c4-7.5,12.1-11.8,20.5-10.9V209c-19.4-0.2-19.1,18.3-19.1,23.1v48h-21.3V191.1z"/>
    <path class="st1" d="M715.5,191.1H735v8.1h0.3c4-7.5,12.1-11.8,20.6-10.9V209c-19.4-0.2-19.1,18.3-19.1,23.1v48h-21.4V191.1z"/>
    <path class="st1" d="M855.5,280h-19.6v-12h-0.3c-6.9,9.5-17.9,15.1-29.7,15c-22.7,0-43.5-17.8-43.5-46.6c0-28,19.6-48.2,44.2-48.2
  c12.7,0,22.7,5.3,29,15.4h0.4v-12.5h19.5V280z M783.8,236.3c0,15.1,10.6,26.3,26.2,26.3c15.2,0,25.5-11.1,25.5-27.3
  c0-15.4-10.1-27-25.5-27S783.8,220.3,783.8,236.3"/>
    <polygon class="st2" points="382.3,314.7 382.3,334.1 389.1,334.1 389.1,314.7 393,314.7 393,334.1 399.8,334.1 399.8,314.7
  403.7,314.7 403.7,337.2 378.4,337.2 378.4,314.7 " fill="#4D555B"/>
    <polygon class="st2" points="415,327.5 412.4,327.5 412.4,337.2 408.5,337.2 408.5,314.7 412.4,314.7 412.4,324.2 414.5,324.2
  421,314.7 425.9,314.7 418.1,325.5 426.5,337.2 421.8,337.2 " fill="#4D555B"/>
    <path class="st2" d="M446.2,326.6c0.1,2-0.3,4-1.1,5.8c-0.7,1.6-1.8,2.9-3.3,3.8c-3,1.8-6.7,1.8-9.7,0c-1.5-0.9-2.6-2.2-3.3-3.8
  c-0.8-1.8-1.2-3.7-1.1-5.7v-1.2c-0.1-2,0.3-4,1.1-5.9c0.7-1.6,1.8-2.9,3.3-3.8c3-1.8,6.7-1.8,9.7,0c1.4,0.9,2.6,2.2,3.3,3.8
  c0.8,1.8,1.2,3.8,1.1,5.8V326.6z M442.3,325.4c0.1-2-0.4-4-1.4-5.8c-0.9-1.3-2.4-2-4-2c-1.6,0-3.1,0.7-4,1.9
  c-1.1,1.7-1.6,3.6-1.4,5.6v1.3c-0.1,2,0.4,4,1.4,5.8c0.9,1.3,2.4,2.1,4,2c1.6,0.1,3.1-0.6,4-1.9c1-1.7,1.5-3.7,1.4-5.8V325.4z" fill="#4D555B"/>
    <path class="st2" d="M467.3,314.7v22.5h-3.9v-19.3h-6.9l-0.4,8.7c-0.1,2.1-0.4,4.2-1,6.3c-0.7,2.8-3.3,4.6-6.1,4.3h-1v-3.1l0.6-0.1
  c0.8,0,1.5-0.4,2-1c0.6-0.7,1-1.6,1.1-2.5c0.3-1.6,0.5-3.2,0.5-4.9l0.4-11L467.3,314.7z" fill="#4D555B"/>
    <path class="st2" d="M484.8,332h-8.7l-1.9,5.2h-4.1l8.5-22.5h3.5l8.5,22.5h-4.1L484.8,332z M477.2,328.8h6.5l-3.3-9.3L477.2,328.8z" fill="#4D555B"
    />
    <path class="st2" d="M518.3,329.9c-0.1,2.1-1.1,4.1-2.7,5.6c-1.7,1.4-4,2.1-6.2,2c-1.7,0-3.3-0.4-4.7-1.2c-1.4-0.9-2.5-2.2-3.2-3.6
  c-0.8-1.7-1.2-3.6-1.1-5.5V325c-0.1-1.9,0.3-3.8,1.1-5.6c0.7-1.5,1.8-2.8,3.2-3.7c3.4-2,7.7-1.7,10.9,0.7c1.6,1.5,2.5,3.5,2.7,5.7
  h-3.9c0-1.3-0.5-2.5-1.4-3.5c-0.9-0.8-2.2-1.1-3.4-1.1c-1.5-0.1-3,0.6-3.9,1.9c-1,1.6-1.5,3.6-1.4,5.5v2c-0.1,2,0.3,3.9,1.3,5.6
  c0.8,1.3,2.3,2,3.8,2c1.2,0.1,2.5-0.3,3.5-1.1c0.9-0.9,1.4-2.2,1.5-3.5L518.3,329.9z" fill="#4D555B"/>
    <path class="st2" d="M539.7,326.6c0.1,2-0.3,4-1.2,5.8c-0.7,1.6-1.8,2.9-3.3,3.8c-3,1.8-6.7,1.8-9.7,0c-1.5-0.9-2.6-2.2-3.3-3.8
  c-0.8-1.8-1.2-3.7-1.2-5.7v-1.2c-0.1-2,0.3-4,1.2-5.9c0.7-1.6,1.8-2.9,3.3-3.8c3-1.8,6.7-1.8,9.7,0c1.4,0.9,2.6,2.2,3.3,3.8
  c0.8,1.8,1.2,3.8,1.2,5.8V326.6z M535.8,325.4c0.1-2-0.4-4-1.4-5.8c-0.9-1.3-2.4-2-4-2c-1.6,0-3.1,0.7-4,1.9c-1,1.7-1.5,3.6-1.4,5.6
  v1.3c-0.1,2,0.4,4,1.4,5.8c0.9,1.3,2.4,2.1,4,2c1.6,0.1,3.1-0.6,4-1.9c1.1-1.7,1.5-3.7,1.4-5.8L535.8,325.4z" fill="#4D555B"/>
    <path class="st2" d="M543.6,337.2v-22.5h7.7c2.1-0.1,4.1,0.4,5.8,1.5c1.3,1.1,2.1,2.8,1.9,4.5c0,1-0.3,1.9-0.8,2.7
  c-0.6,0.9-1.5,1.6-2.5,2c1.1,0.3,2.1,0.9,2.8,1.9c0.7,1,1,2.1,1,3.3c0.1,1.8-0.6,3.6-2,4.9c-1.3,1.1-3.3,1.7-5.8,1.7L543.6,337.2
  L543.6,337.2z M547.5,324.2h3.8c1,0.1,2-0.2,2.8-0.8c1.3-1.2,1.4-3.2,0.3-4.5c-0.1-0.1-0.1-0.1-0.2-0.2c-0.9-0.6-1.9-0.8-2.9-0.7
  h-3.8L547.5,324.2L547.5,324.2z M547.5,327.1v7h4.3c1,0.1,2-0.2,2.8-0.9c0.7-0.6,1.1-1.5,1.1-2.5c0.2-1.7-1-3.3-2.8-3.5
  c-0.3,0-0.5,0-0.8,0L547.5,327.1L547.5,327.1z" fill="#4D555B"/>
    <path class="st2" d="M567.5,328.9v8.3h-3.9v-22.5h8.6c2.2-0.1,4.3,0.6,6,2c1.5,1.3,2.3,3.2,2.2,5.2c0.1,1.9-0.7,3.8-2.1,5.1
  c-1.7,1.3-3.9,2-6.1,1.9H567.5z M567.5,325.7h4.7c1.1,0.1,2.3-0.3,3.2-1c0.8-0.7,1.1-1.8,1.1-2.8c0.1-1.1-0.3-2.2-1.2-2.9
  c-0.9-0.7-2-1.2-3.1-1.1h-4.8L567.5,325.7L567.5,325.7z" fill="#4D555B"/>
    <polygon class="st2" points="596.9,327.2 587.7,327.2 587.7,334.1 598.5,334.1 598.5,337.2 583.8,337.2 583.8,314.7 598.4,314.7
  598.4,317.9 587.7,317.9 587.7,324.1 596.9,324.1 " fill="#4D555B"/>
    <polygon class="st2" points="606.7,314.7 613.2,332 619.7,314.7 624.7,314.7 624.7,337.2 620.8,337.2 620.8,329.7 621.3,319.9
  614.6,337.2 611.8,337.2 605.1,319.9 605.6,329.7 605.6,337.2 601.7,337.2 601.7,314.7 "/>
    <polygon class="st2" points="642.5,327.2 633.2,327.2 633.2,334.1 644,334.1 644,337.2 629.3,337.2 629.3,314.7 643.9,314.7
  643.9,317.9 633.2,317.9 633.2,324.1 642.5,324.1 " fill="#4D555B"/>
    <polygon class="st2" points="665.1,337.2 661.2,337.2 661.2,327.3 651.1,327.3 651.1,337.2 647.2,337.2 647.2,314.7 651.1,314.7
  651.1,324.1 661.2,324.1 661.2,314.7 665.1,314.7 " fill="#4D555B"/>
    <polygon class="st2" points="687.6,337.2 683.7,337.2 683.7,327.3 673.6,327.3 673.6,337.2 669.7,337.2 669.7,314.7 673.6,314.7
  673.6,324.1 683.7,324.1 683.7,314.7 687.6,314.7 " fill="#4D555B"/>
    <path class="st2" d="M696.2,323.3h4.6c1.5,0,3,0.3,4.3,0.9c1.2,0.5,2.1,1.3,2.8,2.4c0.7,1.1,1,2.4,1,3.6c0.1,1.9-0.7,3.8-2.1,5
  c-1.6,1.3-3.7,2-5.8,1.9h-8.6v-22.5h3.9v8.6H696.2z M696.2,326.5v7.6h4.6c1.1,0.1,2.2-0.3,3.1-1.1c0.7-0.8,1.1-1.8,1.1-2.8
  c0.1-1-0.3-2-1.1-2.7c-0.8-0.7-1.9-1-3-1L696.2,326.5L696.2,326.5z M715,337.2h-3.9v-22.5h3.9V337.2z" fill="#4D555B"/>
    <polygon class="st2" points="727.4,322.8 732.2,314.7 736.6,314.7 729.9,325.8 736.8,337.2 732.3,337.2 727.4,328.9 722.6,337.2
  718,337.2 725,325.8 718.2,314.7 722.7,314.7 " fill="#4D555B"/>
    <polygon class="st2" points="396.1,375.2 392.2,375.2 392.2,355.8 382.3,355.8 382.3,375.2 378.4,375.2 378.4,352.7 396.1,352.7 " fill="#4D555B"/>
    <path class="st2" d="M404.7,366.8v8.3h-3.9v-22.4h8.6c2.2-0.1,4.3,0.6,6,2c1.5,1.3,2.3,3.2,2.2,5.2c0.1,1.9-0.7,3.8-2.1,5.1
  c-1.7,1.3-3.9,2-6.1,1.9L404.7,366.8L404.7,366.8z M404.7,363.7h4.7c1.1,0.1,2.3-0.3,3.2-1c0.8-0.7,1.1-1.8,1.1-2.8
  c0.1-1.1-0.3-2.2-1.1-2.9c-0.9-0.7-2-1.2-3.1-1.1h-4.8L404.7,363.7L404.7,363.7z" fill="#4D555B"/>
    <path class="st2" d="M438.9,364.5c0.1,2-0.3,4-1.1,5.8c-0.7,1.6-1.8,2.9-3.3,3.8c-3,1.8-6.7,1.8-9.7,0c-1.5-0.9-2.6-2.2-3.3-3.8
  c-0.8-1.8-1.2-3.7-1.1-5.7v-1.2c-0.1-2,0.3-4,1.1-5.8c0.7-1.6,1.8-2.9,3.3-3.8c3-1.8,6.7-1.8,9.7,0c1.4,0.9,2.6,2.2,3.3,3.8
  c0.8,1.8,1.2,3.8,1.1,5.8V364.5z M435,363.3c0.1-2-0.4-4-1.4-5.8c-1.7-2.2-4.9-2.6-7.1-0.9c-0.3,0.3-0.6,0.6-0.9,0.9
  c-1,1.7-1.5,3.6-1.4,5.6v1.3c-0.1,2,0.4,4,1.4,5.8c0.9,1.3,2.4,2,4,2c1.6,0.1,3.1-0.6,4-1.9c1.1-1.7,1.6-3.7,1.4-5.8V363.3z" fill="#4D555B"/>
    <path class="st2" d="M455,354.8c1.7-0.1,3.5,0.3,5,1.1c1.4,0.8,2.6,1.9,3.4,3.3c0.8,1.5,1.2,3.1,1.1,4.8c0,1.6-0.3,3.3-1.1,4.7
  c-0.8,1.4-1.9,2.5-3.3,3.3c-1.6,0.8-3.3,1.2-5,1.1v2.9h-3.7v-2.9H451c-1.7,0-3.3-0.4-4.8-1.1c-1.4-0.8-2.5-1.9-3.3-3.2
  c-0.8-1.4-1.2-3.1-1.1-4.7c0-1.7,0.4-3.3,1.1-4.8c0.8-1.4,1.9-2.5,3.3-3.3c1.5-0.8,3.3-1.2,5-1.1v-3.1h3.8V354.8z M451,357.9
  c-1.5-0.1-3.1,0.5-4.2,1.6c-1.1,1.3-1.6,2.9-1.5,4.5c-0.1,1.6,0.4,3.1,1.4,4.3c1.1,1.1,2.5,1.7,4.1,1.6h0.4v-12L451,357.9z
   M455,357.9v12h0.3c1.5,0.1,3-0.5,4.1-1.6c2-2.6,2-6.3,0-8.9c-1.1-1.1-2.6-1.7-4.2-1.6L455,357.9z" fill="#4D555B"/>
    <polygon class="st2" points="481.2,365.1 471.9,365.1 471.9,372 482.7,372 482.7,375.2 468,375.2 468,352.7 482.6,352.7
  482.6,355.8 471.9,355.8 471.9,362 481.2,362 " fill="#4D555B"/>
    <path class="st2" d="M503,367.8c-0.1,2.1-1.1,4.1-2.7,5.6c-1.8,1.4-4,2.1-6.2,2c-1.6,0-3.3-0.4-4.7-1.2c-1.4-0.9-2.5-2.2-3.2-3.6
  c-0.8-1.7-1.2-3.6-1.1-5.5v-2.1c-0.1-1.9,0.3-3.8,1.1-5.6c0.7-1.5,1.8-2.8,3.2-3.7c3.4-2,7.7-1.7,10.9,0.7c1.6,1.5,2.5,3.5,2.7,5.7
  h-3.9c0-1.3-0.5-2.6-1.4-3.5c-0.9-0.8-2.2-1.1-3.4-1.1c-1.5-0.1-3,0.6-3.9,1.9c-1,1.6-1.5,3.6-1.4,5.5v2c-0.1,1.9,0.3,3.9,1.3,5.6
  c0.8,1.3,2.3,2,3.8,2c1.2,0.1,2.5-0.3,3.5-1.1c0.9-0.9,1.4-2.2,1.5-3.5L503,367.8z" fill="#4D555B"/>
    <path class="st2" d="M523.7,367.8c-0.1,2.1-1.1,4.1-2.7,5.6c-1.8,1.4-4,2.1-6.2,2c-3.4,0.1-6.5-1.8-7.9-4.9
  c-0.8-1.7-1.2-3.6-1.2-5.5v-2.1c-0.1-1.9,0.3-3.8,1.2-5.6c2.4-4.6,8.1-6.4,12.7-4c0.5,0.3,1,0.6,1.5,1c1.6,1.5,2.5,3.5,2.7,5.7h-3.9
  c0-1.3-0.5-2.6-1.4-3.5c-0.9-0.8-2.2-1.1-3.4-1.1c-1.5-0.1-3,0.6-3.9,1.9c-1,1.6-1.5,3.6-1.4,5.5v2c-0.1,1.9,0.3,3.9,1.3,5.6
  c0.8,1.3,2.3,2,3.8,2c1.2,0.1,2.5-0.3,3.5-1.1c0.9-0.9,1.4-2.2,1.5-3.5L523.7,367.8z" fill="#4D555B"/>
    <polygon class="st2" points="540.9,352.7 544.8,352.7 544.8,375.2 540.9,375.2 540.9,359.1 531,375.2 527.1,375.2 527.1,352.7
  531,352.7 531,368.7 " fill="#4D555B"/>
    <path class="st2" d="M563.3,352.7h3.9v22.5h-3.9v-16l-9.8,16h-3.9v-22.5h3.9v16L563.3,352.7z M563.4,346.9c0,1.2-0.4,2.4-1.3,3.2
  c-1,0.9-2.3,1.3-3.6,1.2c-1.3,0.1-2.6-0.4-3.6-1.2c-0.9-0.8-1.4-2-1.3-3.2h2.8c0,0.6,0.2,1.2,0.6,1.6c0.4,0.4,1,0.6,1.6,0.5
  c1,0.1,2-0.6,2.1-1.6c0-0.2,0-0.4,0-0.5H563.4z" fill="#4D555B"/>
  </symbol>
  <symbol id="wayUp"
     viewBox="0 0 1026 339" fill="none" xmlns="http://www.w3.org/2000/svg">
    <defs>
      <linearGradient id="paint0_linear" x1="177.487" y1="0" x2="177.487" y2="327" gradientUnits="userSpaceOnUse">
      <stop stop-color="#2D8431"/>
      <stop offset="1" stop-color="#3BB241"/>
      </linearGradient>
      <linearGradient id="paint1_linear" x1="156.665" y1="260.97" x2="1.73388" y2="257.448" gradientUnits="userSpaceOnUse">
      <stop stop-color="#FF6D00"/>
      <stop offset="0.2487" stop-color="#FF9B00"/>
      <stop offset="0.5135" stop-color="#FFC600"/>
      <stop offset="0.721" stop-color="#FFE000"/>
      <stop offset="0.8439" stop-color="#FFEA00"/>
      </linearGradient>
      <linearGradient id="paint2_linear" x1="104.707" y1="234.043" x2="22.5938" y2="314.85" gradientUnits="userSpaceOnUse">
      <stop offset="0.00444748" stop-color="#C62828"/>
      <stop offset="0.2711" stop-color="#D75327"/>
      <stop offset="0.5983" stop-color="#E98126"/>
      <stop offset="0.8504" stop-color="#F59D25"/>
      <stop offset="0.9953" stop-color="#F9A825"/>
      </linearGradient>
    </defs>
    <path d="M436.779 107.968H407.279L436.279 233.968H463.779L484.279 156.468H485.279L506.279 233.968H534.279L563.279 107.968H532.779L517.779 189.968L495.779 107.968H473.779L452.279 189.968L436.779 107.968Z" fill="#3BB241" stroke="#3BB241"/>
    <path fill-rule="evenodd" clip-rule="evenodd" d="M674.279 233.968H643.279L636.279 208.968H599.279L591.279 233.968H561.279L602.279 107.968H632.779L674.279 233.968ZM617.279 147.968H618.279L629.279 186.968H605.279L617.279 147.968Z" fill="#3BB241"/>
    <path d="M726.279 233.968H698.279V189.968L656.279 107.968H687.279L712.279 162.968H713.279L738.279 107.968H769.279L726.279 189.968V233.968Z" fill="#3BB241" stroke="#3BB241"/>
    <path d="M797 70L796.707 70.2929C796.254 70.7456 796 71.3597 796 72V271.586C796 272.491 796.36 273.36 797 274C797.64 274.64 798.509 275 799.414 275H844C845.5 275 847.065 277.707 847.5 281.5L848 288C848.164 290.666 848.267 292.185 848.5 295C848.733 297.815 848.429 298.7 850 300C851.805 301.494 854.125 301.406 856 300C856 300 890.5 275 894 275H895H896H897H1021.59C1022.49 275 1023.36 274.64 1024 274L1024.29 273.707C1024.75 273.254 1025 272.64 1025 272V72C1025 71.3597 1024.75 70.7456 1024.29 70.2929L1024 70L1023.85 69.8483C1023.31 69.3052 1022.57 69 1021.8 69H799C798.36 69 797.746 69.2544 797.293 69.7071L797 70Z" stroke="#3BB241" stroke-width="2"/>
    <path d="M841 126.5C841 126.5 841 158 841 190C841 222 900 222 900 190C900 158 900 126.5 900 126.5" stroke="#3BB241" stroke-width="5"/>
    <path d="M927 217V175M927 175C927 175 935 175 961.5 175C988 175 988 128 961.5 128C935 128 927 128 927 128V175Z" stroke="#3BB241" stroke-width="5"/>
    <circle cx="177.487" cy="163.5" r="163.5" transform="rotate(90 177.487 163.5)" fill="url(#paint0_linear)"/>
    <path d="M43.8073 225.248C3.73245 263.54 0.00109732 334.912 0.00109732 334.912C0.00109732 334.912 71.4234 334.427 111.546 296.136C151.669 257.845 168.983 210.936 150.256 191.388C131.531 171.792 83.8821 186.955 43.8073 225.248Z" fill="url(#paint1_linear)"/>
    <g opacity="0.2">
    <path opacity="0.2" d="M127.851 192.412C134.701 192.567 139.882 194.458 143.3 197.987C156.174 211.459 143.553 252.245 104.898 289.227C76.9725 315.91 31.3303 322.924 10.6801 324.755C13.4477 304.21 22.5287 258.935 50.4058 232.251C76.2252 207.533 106.63 191.929 127.851 192.412ZM128.069 182.831C105.028 182.308 72.4671 197.862 43.8062 225.295C3.73136 263.587 7.67224e-06 334.96 7.67224e-06 334.96C7.67224e-06 334.96 71.4223 334.475 111.545 296.184C151.668 257.893 168.981 210.983 150.255 191.435C144.92 185.755 137.266 183.04 128.069 182.831Z" fill="#424242"/>
    </g>
    <path d="M55.3734 239.313C30.1429 263.421 27.7802 308.322 27.7802 308.322C27.7802 308.322 72.743 308.002 97.9735 283.894C123.204 259.786 134.132 230.224 122.334 217.927C110.536 205.629 80.6529 215.158 55.3734 239.313Z" fill="url(#paint2_linear)"/>
    <path d="M103.987 275.5L63.4872 233L30.1222 242.787C27.3796 243.592 24.5361 244 21.678 244H19.4872C12.182 242.993 8.36229 240.885 5.11825 234.763C3.50295 231.715 2.98721 228.23 2.98721 224.781C2.98721 220.967 3.77407 217.174 5.30493 213.681C35.9914 143.676 57.1952 112.867 115.987 125C173.608 59.3688 210.774 42.3793 282.279 32.4681L295.386 31.3499C298.107 31.1177 300.877 31.1694 303.494 31.95C308.993 33.5899 311.541 36.1375 313.008 40.7932C313.871 43.5353 313.987 46.4455 313.987 49.3204V50.3458C313.987 55.7729 313.568 61.2103 312.595 66.5495C300.299 134.023 277.254 169.482 214.487 224C224.602 282.546 197.835 304.642 121.379 332.25C118.166 333.41 114.741 334 111.325 334H110.511C108.5 334 106.477 333.854 104.55 333.28C99.1432 331.67 96.0042 328.752 93.0595 321.041C92.2975 319.046 91.9872 316.912 91.9872 314.776C91.9872 312.606 92.337 310.451 93.0231 308.392L103.987 275.5Z" fill="#3BB241"/>
    <path d="M89.9873 243L68.4873 221L119.586 140.216C120.518 138.741 121.598 137.327 122.777 136.04C187.217 65.6708 228.976 44.0307 297.063 43.5078C297.956 43.501 298.819 43.8975 299.391 44.5842L300.987 46.5L89.9873 243Z" fill="white"/>
    <path d="M300.987 46.5L89.9872 243L116.487 270L199.172 219.117C200.381 218.373 201.553 217.531 202.641 216.62C271.72 158.796 296.875 111.965 301.438 47.7102C301.469 47.2621 301.305 46.8177 300.987 46.5Z" fill="#ECECEC"/>
    <circle cx="183.488" cy="157.5" r="16.5" fill="#3BB241"/>
    <circle cx="217.487" cy="127.5" r="12.5" fill="#3BB241"/>
    <circle cx="246.487" cy="99.5" r="8.5" fill="#3BB241"/>
    <path d="M201.987 222L119.104 272.623C118.706 272.867 118.405 273.242 118.254 273.683L104.987 312.5C103.713 316.998 104.625 318.794 108.487 321C110.625 321.871 111.971 321.737 114.487 321C179.503 291.067 213.461 273.579 201.987 222Z" fill="#ECECEC" stroke="#ECECEC"/>
    <path d="M117.088 136.773L64.3426 218.322C64.0891 218.714 63.7065 219.005 63.261 219.145L24.1151 231.405C19.586 232.563 17.8143 231.605 15.7083 227.687C14.8925 225.527 15.0612 224.186 15.8631 221.689C47.4637 157.468 65.8218 123.972 117.088 136.773Z" fill="#ECECEC" stroke="#ECECEC"/>
  </symbol>
  <symbol id="netology" xmlns="http://www.w3.org/2000/svg" viewBox="0 0 146.673 16.089">
    <g id="netology" transform="translate(0 -12)">
      <path id="Контур_20264" data-name="Контур 20264" d="M134,21.349h3.246v4.969H142.8V21.349h3.246V34.2H142.8V28.985h-5.557V34.2H134Z" transform="translate(-108.958 -7.579)"/>
      <path id="Контур_20265" data-name="Контур 20265" d="M216.537,33.227A8.211,8.211,0,0,1,214,32.839a5.986,5.986,0,0,1-2.066-1.213,5.851,5.851,0,0,1-1.4-2.062,7.708,7.708,0,0,1-.516-2.935v-.485a7.265,7.265,0,0,1,.492-2.79,5.356,5.356,0,0,1,1.352-1.965,5.522,5.522,0,0,1,1.992-1.189,7.053,7.053,0,0,1,2.434-.412,6.325,6.325,0,0,1,4.672,1.6,6.28,6.28,0,0,1,1.6,4.633v1.358h-9.221a4.033,4.033,0,0,0,.295,1.48,2.834,2.834,0,0,0,.713.995,2.983,2.983,0,0,0,1.008.582,4.251,4.251,0,0,0,1.18.17,3.912,3.912,0,0,0,1.893-.364,2.025,2.025,0,0,0,.91-1.067h2.976a4.48,4.48,0,0,1-1.943,3.032A6.835,6.835,0,0,1,216.537,33.227Zm-.123-10.819a4.522,4.522,0,0,0-1.131.146,2.77,2.77,0,0,0-.959.461,2.4,2.4,0,0,0-.688.849,3.04,3.04,0,0,0-.295,1.286h6.074a3.445,3.445,0,0,0-.271-1.334,1.992,1.992,0,0,0-.639-.849,2.263,2.263,0,0,0-.934-.437A5.276,5.276,0,0,0,216.415,22.409Z" transform="translate(-170.774 -6.314)"/>
      <path id="Контур_20266" data-name="Контур 20266" d="M286.3,24.015h-4.156V21.349H293.7v2.667h-4.156V34.2H286.3Z" transform="translate(-229.411 -7.579)"/>
      <path id="Контур_20267" data-name="Контур 20267" d="M355.541,33.227a8.209,8.209,0,0,1-2.533-.388,5.689,5.689,0,0,1-3.467-3.3,7.523,7.523,0,0,1-.516-2.911v-.485a6.891,6.891,0,0,1,.516-2.765,5.583,5.583,0,0,1,3.467-3.178,7.766,7.766,0,0,1,2.533-.412,7.551,7.551,0,0,1,2.508.412,5.689,5.689,0,0,1,2.066,1.189,5.554,5.554,0,0,1,1.426,1.989,6.891,6.891,0,0,1,.516,2.765v.485a7.454,7.454,0,0,1-.516,2.887,5.7,5.7,0,0,1-1.426,2.062,5.8,5.8,0,0,1-2.066,1.237A7.551,7.551,0,0,1,355.541,33.227Zm0-2.717a3,3,0,0,0,2.287-.97,4.048,4.048,0,0,0,.934-2.911v-.485a3.619,3.619,0,0,0-.934-2.693,3.267,3.267,0,0,0-4.6,0,3.677,3.677,0,0,0-.91,2.693v.485a4.156,4.156,0,0,0,.91,2.935A3.069,3.069,0,0,0,355.541,30.511Z" transform="translate(-283.804 -6.314)"/>
      <path id="Контур_20268" data-name="Контур 20268" d="M425.314,34.492q-.2,0-.492-.024a2.1,2.1,0,0,1-.492-.048V31.533a2.066,2.066,0,0,0,.369.024,1.286,1.286,0,0,0,.812-.267,2.1,2.1,0,0,0,.566-.97,7.286,7.286,0,0,0,.344-1.794,26.883,26.883,0,0,0,.123-2.813V21.349h10.328V34.2h-3.246V24.016h-4.082V26.2a25.867,25.867,0,0,1-.27,4.122,7.194,7.194,0,0,1-.787,2.522,2.888,2.888,0,0,1-1.328,1.285A4.358,4.358,0,0,1,425.314,34.492Z" transform="translate(-345.034 -7.579)"/>
      <path id="Контур_20269" data-name="Контур 20269" d="M509.384,33.227a8.209,8.209,0,0,1-2.533-.388,5.688,5.688,0,0,1-3.467-3.3,7.519,7.519,0,0,1-.517-2.911v-.485a6.888,6.888,0,0,1,.517-2.765,5.582,5.582,0,0,1,3.467-3.178,7.767,7.767,0,0,1,2.533-.412,7.549,7.549,0,0,1,2.508.412,5.69,5.69,0,0,1,2.066,1.189,5.554,5.554,0,0,1,1.426,1.989,6.892,6.892,0,0,1,.516,2.765v.485a7.454,7.454,0,0,1-.516,2.887,5.7,5.7,0,0,1-1.426,2.062,5.8,5.8,0,0,1-2.066,1.237A7.549,7.549,0,0,1,509.384,33.227Zm0-2.717a3,3,0,0,0,2.287-.97,4.048,4.048,0,0,0,.934-2.911v-.485a3.619,3.619,0,0,0-.934-2.693,3.267,3.267,0,0,0-4.6,0,3.677,3.677,0,0,0-.91,2.693v.485a4.157,4.157,0,0,0,.91,2.935A3.069,3.069,0,0,0,509.384,30.511Z" transform="translate(-408.899 -6.314)"/>
      <path id="Контур_20270" data-name="Контур 20270" d="M585.285,21.349h9.344v2.667h-6.1V34.2h-3.246Z" transform="translate(-475.877 -7.579)"/>
      <path id="Контур_20271" data-name="Контур 20271" d="M644.991,21.349h3.246v8.242l5.8-8.242h3V34.2h-3.246V25.954l-5.8,8.242h-3Z" transform="translate(-524.638 -7.579)"/>
      <path id="Контур_20272" data-name="Контур 20272" d="M723.732,29.372a4.131,4.131,0,0,1-2.188-1.454,3.833,3.833,0,0,1-.689-2.279,4.478,4.478,0,0,1,.32-1.721,3.615,3.615,0,0,1,1.008-1.358,4.566,4.566,0,0,1,1.672-.9,8.281,8.281,0,0,1,2.41-.315h6.148V34.2h-3.246V29.76H726.83L724,34.2h-3.639Zm.369-3.733a1.39,1.39,0,0,0,.541,1.212,2.608,2.608,0,0,0,1.5.388h3.025V24.015h-3.025a2.492,2.492,0,0,0-1.5.412A1.39,1.39,0,0,0,724.1,25.639Z" transform="translate(-585.739 -7.579)"/>
      <path id="Контур_20273" data-name="Контур 20273" d="M4.2,57.013Q4.04,57,3.882,57a3.878,3.878,0,1,0,3.851,3.4A3.883,3.883,0,0,1,4.2,57.013Z" transform="translate(0 -36.674)" fill="#5d00f5" fill-rule="evenodd"/>
      <path id="Контур_20274" data-name="Контур 20274" d="M7.763,15.882a3.882,3.882,0,1,0-3.882,3.882q.149,0,.3-.011a3.882,3.882,0,0,1,3.575-3.575Q7.763,16.031,7.763,15.882Z" fill="#eb236b" fill-rule="evenodd"/>
      <path id="Контур_20275" data-name="Контур 20275" d="M48.4,19.733A3.882,3.882,0,1,0,45,15.882q0,.159.013.314A3.883,3.883,0,0,1,48.4,19.733Z" transform="translate(-36.48)" fill="#4bd0a0" fill-rule="evenodd"/>
      <path id="Контур_20276" data-name="Контур 20276" d="M45.033,60.375a3.878,3.878,0,1,0,3.343-3.343A3.884,3.884,0,0,1,45.033,60.375Z" transform="translate(-36.48 -36.674)" fill="#06f" fill-rule="evenodd"/>
    </g>
  </symbol>
  <symbol id="skillFactory" xmlns="http://www.w3.org/2000/svg" viewBox="0 0 93.027 20">
    <path id="Контур_1032" data-name="Контур 1032" d="M5.327,9.839a4.491,4.491,0,0,1,1.31,1.59,5.068,5.068,0,0,1,.371,2.062v2.857C7.008,18.775,5.916,20,3.755,20H3.209C1.07,20,0,18.8,0,16.412V12.288H1.943V16.5c0,.988.437,1.482,1.332,1.482h.393C4.541,17.981,5,17.487,5,16.5V13.555a2.468,2.468,0,0,0-.2-1.1,2.675,2.675,0,0,0-.677-.795l-2.445-2a4.314,4.314,0,0,1-1.31-1.59A5.214,5.214,0,0,1,0,6.015V3.652C0,1.224,1.092,0,3.253,0h.5C5.894,0,6.964,1.2,6.964,3.588V7.132H5.021V3.5c0-.988-.437-1.482-1.332-1.482H3.34c-.873,0-1.332.494-1.332,1.482V5.994a2.173,2.173,0,0,0,.218,1.1,3.047,3.047,0,0,0,.677.795Z" transform="translate(0 0)"/>
    <path id="Контур_1033" data-name="Контур 1033" d="M245.188,105.913h-2.2l-3.275-7.877v7.877H237.7V89.191h2.008v7.746l3.449-7.746h2.118l-3.6,8.23Z" transform="translate(-228.449 -86.044)"/>
    <path id="Контур_1034" data-name="Контур 1034" d="M475.158,89.191v16.722H473.15V89.191Z" transform="translate(-455.036 -86.044)"/>
    <path id="Контур_1035" data-name="Контур 1035" d="M583.691,89.191H585.7v14.954H589v1.768h-5.3Z" transform="translate(-561.359 -86.044)"/>
    <path id="Контур_1036" data-name="Контур 1036" d="M756.268,89.191h2.008v14.954h3.3v1.768h-5.3Z" transform="translate(-727.333 -86.044)"/>
    <path id="Контур_1037" data-name="Контур 1037" d="M941.167.561h6.605V2.3h-4.619V7.8h3.253V9.518h-3.253v10.89h-2.008V.561Z" transform="translate(-905.147 -0.539)"/>
    <path id="Контур_1038" data-name="Контур 1038" d="M1102.288,88.068l2.707,16.766h-1.965l-.415-2.794h-3.231l-.393,2.794h-1.921l2.707-16.766Zm-1.31,2.991-1.375,9.256h2.729Z" transform="translate(-1055.118 -84.965)"/>
    <path id="Контур_1039" data-name="Контур 1039" d="M1348.657,95.7h1.943V99.17c0,2.074-1.092,3.1-3.253,3.1h-.655c-2.161,0-3.253-1.026-3.253-3.1V88.364c0-2.074,1.091-3.1,3.253-3.1h.655c2.139,0,3.209,1.026,3.209,3.056v3.013h-1.943V88.277c0-.851-.437-1.266-1.332-1.266h-.5c-.873,0-1.332.415-1.332,1.266V99.257c0,.851.437,1.266,1.332,1.266h.546c.873,0,1.331-.415,1.331-1.266V95.7Z" transform="translate(-1292.06 -82.27)"/>
    <path id="Контур_1040" data-name="Контур 1040" d="M1572.208,105.913H1570.2V90.959h-2.62V89.191h7.248v1.768h-2.62Z" transform="translate(-1507.628 -86.044)"/>
    <path id="Контур_1041" data-name="Контур 1041" d="M1798.628,99.17c0,2.074-1.091,3.1-3.253,3.1h-.742c-2.161,0-3.253-1.026-3.253-3.1V88.364c0-2.074,1.092-3.1,3.253-3.1h.742c2.161,0,3.253,1.026,3.253,3.1Zm-2.008-10.893c0-.851-.437-1.266-1.332-1.266h-.59c-.873,0-1.331.415-1.331,1.266V99.257c0,.851.437,1.266,1.331,1.266h.59c.873,0,1.332-.415,1.332-1.266Z" transform="translate(-1722.869 -82.27)"/>
    <path id="Контур_1042" data-name="Контур 1042" d="M2030.976,98.032a2.041,2.041,0,0,1,1.572,2.249v5.632h-2.008v-5.567c0-.961-.5-1.463-1.528-1.463h-1.485v7.029h-1.986V89.191h3.733c2.161,0,3.253,1.026,3.253,3.1v3.1A2.545,2.545,0,0,1,2030.976,98.032Zm-.458-5.829c0-.851-.436-1.266-1.331-1.266h-1.659V97.2h1.506c.982,0,1.484-.48,1.484-1.419V92.2Z" transform="translate(-1948.22 -86.044)"/>
    <path id="Контур_1043" data-name="Контур 1043" d="M2236.621,97.377l1.855-8.186h1.965l-2.816,10.959v5.763h-2.008v-5.741L2232.8,89.191h2.052Z" transform="translate(-2147.414 -86.044)"/>
  </symbol>
  <symbol id="skillbox"
    viewBox="0 0 99 22" fill="none" xmlns="http://www.w3.org/2000/svg">
    <path fill-rule="evenodd" clip-rule="evenodd" d="M13.7959 15.6815C13.7959 19.1368 11.0442 21.6426 6.67334 21.6426C4.1389 21.5724 1.73709 20.4944 0 18.6476L1.46179 17.0309C2.82998 18.3336 4.43982 19.5997 6.64441 19.5997C9.0932 19.5997 11.7334 18.2264 11.7334 15.7606C11.7334 13.7126 10.1057 12.3767 6.68525 11.3233C2.78744 10.1321 0.807471 8.51546 0.807471 5.47617C0.807471 2.46836 3.35326 0 6.9805 0C9.68966 0 11.3846 1.15462 13.0344 2.63003L11.5973 4.2254C10.1508 2.94399 8.77242 2.07526 7.0809 2.07526C4.98267 2.07526 2.91166 3.42814 2.91166 5.37577C2.91166 7.14046 3.92589 8.26446 7.50633 9.36037C10.7856 10.3703 13.7959 11.9351 13.7959 15.6806V15.6815ZM31.488 1.99285C31.488 2.94049 32.256 3.70871 33.2034 3.70871C33.6584 3.70893 34.0948 3.52823 34.4165 3.20639C34.7383 2.88456 34.9189 2.44799 34.9187 1.99285C34.9187 1.04521 34.1507 0.276995 33.2034 0.276995C32.256 0.276995 31.488 1.04521 31.488 1.99285ZM48.0876 0.628674H46.0199V21.3037H48.0876V0.628674ZM52.9131 20.6155C52.9131 20.6155 54.186 21.6493 58.4267 21.6493L58.4241 21.6485C62.6104 21.6485 66.0079 18.587 66.0079 14.4042C66.0079 10.2213 62.6129 7.17183 58.4267 7.17183C57.2392 7.14003 56.0603 7.38105 54.9807 7.87634V0.628674H52.9131V20.6155ZM68.4219 14.4223C68.4216 18.607 71.8138 21.9996 75.9988 22.0001C80.184 22.0001 83.577 18.6078 83.5774 14.4229C83.5774 10.2382 80.1849 6.84586 75.9999 6.8457C71.815 6.84555 68.4222 10.2377 68.4219 14.4223ZM96.115 21.3101H98.8139L92.8468 14.2028L98.4115 7.53711H95.7279L91.5016 12.5998L87.2541 7.53711H84.5552L90.1598 14.2121L84.2344 21.3101H86.9172L91.5042 15.8152L96.115 21.3101ZM76.0118 8.89146C73.7799 8.89112 71.7675 10.2354 70.9133 12.2973C70.059 14.3593 70.531 16.7328 72.1092 18.311C73.6874 19.8892 76.061 20.3613 78.1229 19.507C80.1849 18.6527 81.5292 16.6404 81.5288 14.4085C81.5283 11.3617 79.0586 8.89193 76.0118 8.89146ZM58.4264 9.24374C57.1917 9.2611 55.9908 9.65017 54.9804 10.3602V18.8937C56.0513 19.4142 57.2378 19.6515 58.4264 19.583C61.4708 19.583 63.94 17.4556 63.94 14.4134C63.94 11.3712 61.4683 9.24289 58.4239 9.24289L58.4264 9.24374ZM39.1289 0.628906H41.1965V21.3039H39.1289V0.628906ZM26.3769 21.3055L19.1445 14.0731L25.6919 7.52148H28.6155L22.0681 14.0731L29.3005 21.3055H26.3769ZM17.0704 0.628674V21.3037H19.138V0.628674H17.0704ZM32.2422 21.3055H34.3098V7.52148H32.2422V21.3055Z" fill="currentColor"/>
  </symbol>
  <symbol id="user" xmlns="http://www.w3.org/2000/svg" viewBox="0 0 11.566 11.566">
      <g transform="translate(0 7.436)">
        <g transform="translate(0)">
          <path d="M9.325,307.807l-1.759-.586a.413.413,0,0,0-.131-.022h-3.3a.412.412,0,0,0-.131.022l-1.759.586A3.274,3.274,0,0,0,0,310.917a.413.413,0,0,0,.413.413h10.74a.413.413,0,0,0,.413-.413A3.274,3.274,0,0,0,9.325,307.807Z" transform="translate(0 -307.199)"/>
        </g>
      </g>
      <g transform="translate(3.305)">
        <g>
          <path d="M139.012,0a2.479,2.479,0,0,0-2.479,2.479V4.131a2.479,2.479,0,0,0,4.957,0V2.479A2.479,2.479,0,0,0,139.012,0Z" transform="translate(-136.533)"/>
        </g>
      </g>
  </symbol>
  <symbol id="search" xmlns="http://www.w3.org/2000/svg" viewBox="0 0 13.871 13.872">
    <g transform="translate(12 0.064)">
      <path d="M1.618,1.615A5.525,5.525,0,0,1,9.708,9.13l1.059,1.06.7-.7,2,2A1.391,1.391,0,0,1,11.5,13.465l-2-2,.7-.7L9.133,9.705a5.525,5.525,0,0,1-7.515-8.09Zm3.906,7.7a3.8,3.8,0,1,0-3.8-3.8A3.8,3.8,0,0,0,5.525,9.319Z" transform="translate(-12.003 -0.064)"/>
    </g>
  </symbol>
  <symbol id="lang-switch-shape" xmlns="http://www.w3.org/2000/svg">
    <defs>
      <linearGradient id="linear-gradient">
        <stop offset="0" stop-color="#00a7cf"/>
        <stop offset="1" stop-color="#01627a"/>
      </linearGradient>
    </defs>
      <path d="M34.019.01A9.692,9.692,0,0,0,27.71,1.934,10.676,10.676,0,0,1,21.277,4.07H21.09a10.316,10.316,0,0,1-6.12-1.894A9.692,9.692,0,0,0,8.459.357,8.937,8.937,0,0,0,.012,8.443c-.267,4.97,4.04,9.038,9.332,8.967,2.128-.029,5.623-1.865,5.623-1.865s4.14-2.2,6.527-2.2h.188a10.717,10.717,0,0,1,6.226,1.974,9.656,9.656,0,0,0,5.752,1.769c5.29-.071,9.484-4.251,9.083-9.21C42.4,3.625,38.614.215,34.019.01Z" fill="#linear-gradient"/>
  </symbol>
  <symbol id="vk" xmlns="http://www.w3.org/2000/svg" viewBox="0 0 18.152 10.356">
    <path d="M26.821,49.168h1.085a.915.915,0,0,0,.5-.216.794.794,0,0,0,.149-.477s-.021-1.456.655-1.67,1.521,1.407,2.428,2.029a1.718,1.718,0,0,0,1.207.368l2.424-.034s1.268-.078.667-1.075a8.1,8.1,0,0,0-1.8-2.086c-1.52-1.411-1.316-1.183.515-3.623C35.757,40.9,36.2,39.99,36.064,39.6c-.133-.37-.953-.272-.953-.272l-2.729.017a.62.62,0,0,0-.352.062.765.765,0,0,0-.241.293A15.8,15.8,0,0,1,30.78,41.83c-1.215,2.064-1.7,2.173-1.9,2.045-.462-.3-.347-1.2-.347-1.84,0-2,.3-2.834-.591-3.05a4.661,4.661,0,0,0-1.274-.127,5.883,5.883,0,0,0-2.265.232c-.311.152-.55.491-.4.51a1.225,1.225,0,0,1,.806.405,2.634,2.634,0,0,1,.27,1.235s.161,2.354-.375,2.647c-.368.2-.873-.209-1.956-2.081a17.406,17.406,0,0,1-.974-2.019.811.811,0,0,0-.225-.3,1.131,1.131,0,0,0-.419-.169l-2.594.017s-.389.011-.532.18c-.127.151-.01.462-.01.462s2.031,4.751,4.33,7.145a6.228,6.228,0,0,0,4.5,2.051Z" transform="translate(-17.94 -38.855)"/>
  </symbol>
  <symbol id="fb" xmlns="http://www.w3.org/2000/svg" viewBox="0 0 8.317 18.039">
    <path d="M45.794,30.765H43.327V39.8H39.589V30.765H37.812V27.589h1.777V25.534a3.5,3.5,0,0,1,3.771-3.771l2.768.012v3.083H44.12a.761.761,0,0,0-.793.866v1.869H46.12Z" transform="translate(-37.812 -21.763)"/>
  </symbol>
	<symbol id="logo" xmlns="http://www.w3.org/2000/svg" viewBox="0 0 64 45.348">
	    <path d="M10.276,9.365l8.942.007,0,18.434A6.707,6.707,0,0,1,17.9,32.055c-.953,1.074-2.337,1.443-4.248,1.443-2.979,0-5.553-2-7.363-4.2C4.8,30.927,1.706,34.356.02,36.209a20.031,20.031,0,0,0,3.926,3.747c4.476,3.25,11.736,3.841,16.958,2.09A12.762,12.762,0,0,0,27.626,37.3a15.745,15.745,0,0,0,2.617-8.847L30.2.012,15.039,0,10.277,9.365Z"/>
	    <path d="M604.456,14.04a11.655,11.655,0,0,0,2.867,8.089c4.246,4.539,10.3,4.908,15.229,7.862,1.221.732,2.321,2.1,1.517,3.56-1.508,2.739-8.094,1.094-10.35.151a17.366,17.366,0,0,1-4.1-2.43c-.844.825-5.355,5.852-6.791,7.442,5.047,3.719,9.8,5.755,16.221,5.755,4.553,0,9.875-1.7,13.17-4.966a11.523,11.523,0,0,0,1.268-14.882c-4.3-5.655-15.792-6.8-17.629-9.809-1-1.638.531-3.841,3.373-4.034,3.332.224,4.98.708,9.127,2.9.882-.961,4.773-5.212,6.016-6.586A19.049,19.049,0,0,0,620.92,1.62c-7.578.086-15.876,4.045-16.464,12.419Z" transform="translate(-572.73 -1.539)"/>
  </symbol>
  <symbol id="clouds" xmlns="http://www.w3.org/2000/svg" viewBox="0 0 2018.215 152.001">
	    <path d="M1474.145,131H17.69a64.206,64.206,0,0,1,11.517-15.39A73.929,73.929,0,0,1,45.245,103.6,85.653,85.653,0,0,1,87,93a87.232,87.232,0,0,1,29.867,5.172,80.99,80.99,0,0,1,13,6.063,75.071,75.071,0,0,1,11.3,8.024,63.642,63.642,0,0,1,7.95-20.724A65.06,65.06,0,0,1,205,60a65.582,65.582,0,0,1,17.9,2.478,76.332,76.332,0,0,1,13.2-20.339,86.537,86.537,0,0,1,19.3-15.968A98.75,98.75,0,0,1,307,12a100.981,100.981,0,0,1,34.376,5.93A95.124,95.124,0,0,1,356.443,24.9a89.647,89.647,0,0,1,13.2,9.24,83.185,83.185,0,0,1,10.991,11.215,76.684,76.684,0,0,1,8.442,12.893,71.519,71.519,0,0,1,5.553,14.275,69.327,69.327,0,0,1,2.323,15.359A73.7,73.7,0,0,1,419.529,73.3a71.245,71.245,0,0,1,55.745.766,73.324,73.324,0,0,1,12.579,7.125,75.951,75.951,0,0,1,10.985,9.441A80.566,80.566,0,0,1,547.025,53.86a82.1,82.1,0,0,1,40.7-.578,80.618,80.618,0,0,1,45.461,29.891A80.814,80.814,0,0,1,680.5,68a82.571,82.571,0,0,1,10.468.666,79.555,79.555,0,0,1,28.621-32.251,78.532,78.532,0,0,1,83.427-.873,79.657,79.657,0,0,1,28.507,30.171,73.117,73.117,0,0,1,20.26-10.831,71.434,71.434,0,0,1,38.785-2.167,79.614,79.614,0,0,1,28.259-37.881,77.654,77.654,0,0,1,91.381.025A79.622,79.622,0,0,1,1038.462,52.8a58.621,58.621,0,0,1,13.674-5.772,55.613,55.613,0,0,1,32.9.981,60.561,60.561,0,0,1,16.13,8.463,75.51,75.51,0,0,1,23.8,29.995,32.493,32.493,0,0,1,10.513-6.917,34.618,34.618,0,0,1,23.68-.866,33.085,33.085,0,0,1,9.177,4.661,52.411,52.411,0,0,1,8.395-7.987,54.806,54.806,0,0,1,10.136-6.1,56.514,56.514,0,0,1,11.535-3.89,58.713,58.713,0,0,1,24.654-.116,56.663,56.663,0,0,1,11.106,3.57,54.97,54.97,0,0,1,9.854,5.613,52.826,52.826,0,0,1,8.3,7.379,51.842,51.842,0,0,1,8.073-7.379,53.081,53.081,0,0,1,9.58-5.613,54.013,54.013,0,0,1,10.8-3.57A55.318,55.318,0,0,1,1292.5,64a54.449,54.449,0,0,1,20.394,3.911,52.557,52.557,0,0,1,16.666,10.672,49.294,49.294,0,0,1,15.713-10.672A49.25,49.25,0,0,1,1380.6,66.7a66,66,0,0,1,7.6-19.394A62.217,62.217,0,0,1,1401,31.876a57.164,57.164,0,0,1,16.826-10.195,54.427,54.427,0,0,1,39.347,0,57.166,57.166,0,0,1,16.822,10.187,62.208,62.208,0,0,1,12.8,15.421,65.99,65.99,0,0,1,7.6,19.382,33.519,33.519,0,0,1,25.177-.418,36.109,36.109,0,0,1,10.439,6.256,40.739,40.739,0,0,1,8.15,9.52,44.81,44.81,0,0,1,5.208,12.042c.707-.045,1.424-.068,2.13-.068a34.221,34.221,0,0,1,19.8,6.4A44.114,44.114,0,0,1,1598,86a44.739,44.739,0,0,1,9.8,1.084,44.121,44.121,0,0,1,9.031,3.092,63.461,63.461,0,0,1,8.972-18.094A64.568,64.568,0,0,1,1678.5,45a65.142,65.142,0,0,1,17.052,2.26A64.558,64.558,0,0,1,1734,76.371,48.6,48.6,0,0,1,1766.5,64a49.1,49.1,0,0,1,12.849,1.7,48.517,48.517,0,0,1,11.552,4.806,55.769,55.769,0,0,1,8.338-14.32A56.593,56.593,0,0,1,1843.5,35a57.173,57.173,0,0,1,14.233,1.792,56.509,56.509,0,0,1,12.9,5.074,65.655,65.655,0,0,1,35.948-22.185A66.825,66.825,0,0,1,1921.5,18a65.644,65.644,0,0,1,53.341,27.057,64.319,64.319,0,0,1,6.176,10.472,63.182,63.182,0,0,1,5.919,24.094,65.69,65.69,0,0,1,12.14,9.527,64.979,64.979,0,0,1,9.539,12.065,63.435,63.435,0,0,1,9.29,29.784H1476.855c-.335-.537-.654-1.075-.95-1.6-.579.547-1.172,1.085-1.76,1.6Z" transform="translate(-8.69 21)"/>
	</symbol>
	<symbol id="student-with-graduation-cap" xmlns="http://www.w3.org/2000/svg" viewBox="0 0 14.255 17">
	    <g  transform="translate(-37.452)">
            <g id="Layer_2_9_" transform="translate(37.452)">
		        <g id="Сгруппировать_69" data-name="Сгруппировать 69">
		            <path id="Контур_43" data-name="Контур 43" d="M86.314,2.941c.164.092,1.269.626,1.8.883,0,.207.007.565.014.571.059.513.16,1.083.189,1.244-.049.027-.3.19-.3.7v.008c0,.013,0,.027,0,.04.107,1.41.668.8.784,1.42a3.068,3.068,0,0,0,1.667,2.026,2.356,2.356,0,0,0,2.035,0A3.068,3.068,0,0,0,94.174,7.8c.116-.618.676-.01.784-1.42,0-.014,0-.027,0-.04V6.336c0-.507-.249-.67-.3-.7.029-.161.13-.731.189-1.244.007-.006.012-.364.014-.571.293-.141.758-.366,1.145-.555V4.632a.351.351,0,0,0-.036.594s-.156.874-.206,1.131.887.205.845,0-.206-1.131-.206-1.131a.351.351,0,0,0-.035-.594V3.091c.144-.072.252-.126.295-.15.116-.065.179-.149.165-.236.016-.091-.05-.188-.225-.274C95.351,1.817,92.153.253,91.837.1a.646.646,0,0,0-.7,0c-.316.151-3.513,1.715-4.768,2.329-.176.086-.241.183-.225.274C86.135,2.792,86.2,2.875,86.314,2.941Z" transform="translate(-84.362)" fill="#fff"/>
		            <path id="Контур_44" data-name="Контур 44" d="M48.836,295.58a15.72,15.72,0,0,1-1.793-.921.308.308,0,0,0-.434.135c-.486.814-1.388,3.183-2.018,3.226l-.012,0-.012,0c-.629-.044-1.531-2.412-2.018-3.226a.308.308,0,0,0-.434-.135,15.719,15.719,0,0,1-1.793.921c-1.98.714-2.871,1.442-2.871,1.939v3.3H51.707v-3.3C51.707,297.022,50.816,296.294,48.836,295.58Z" transform="translate(-37.452 -283.821)" fill="#fff"/>
		        </g>
	        </g>
	    </g>
	</symbol>
	
  <symbol id="user1" xmlns="http://www.w3.org/2000/svg" viewBox="0 0 11.566 11.566">
      <g id="Сгруппировать_65" data-name="Сгруппировать 65" transform="translate(0 7.436)">
        <g id="Сгруппировать_64" data-name="Сгруппировать 64" transform="translate(0)">
          <path id="Контур_41" data-name="Контур 41" d="M9.325,307.807l-1.759-.586a.413.413,0,0,0-.131-.022h-3.3a.412.412,0,0,0-.131.022l-1.759.586A3.274,3.274,0,0,0,0,310.917a.413.413,0,0,0,.413.413h10.74a.413.413,0,0,0,.413-.413A3.274,3.274,0,0,0,9.325,307.807Z" transform="translate(0 -307.199)" fill="#fff"/>
        </g>
      </g>
      <g id="Сгруппировать_67" data-name="Сгруппировать 67" transform="translate(3.305)">
        <g id="Сгруппировать_66" data-name="Сгруппировать 66">
          <path id="Контур_42" data-name="Контур 42" d="M139.012,0a2.479,2.479,0,0,0-2.479,2.479V4.131a2.479,2.479,0,0,0,4.957,0V2.479A2.479,2.479,0,0,0,139.012,0Z" transform="translate(-136.533)" fill="#fff"/>
        </g>
      </g>
  </symbol>
	<symbol id="project-manager" xmlns="http://www.w3.org/2000/svg" viewBox="0 0 101.287 93.572">
	    <path d="M83.287,23.714H0v4.88H2.6V81.051H39.2V87.2a6.29,6.29,0,1,0,4.88,0V81.051H80.689V28.594h2.6ZM60.245,35.3v4.88h-48.7V35.3ZM44.788,69.464H11.545v-4.88H44.788Zm0-9.761H11.545v-4.88H44.788Zm0-9.761H11.545v-4.88H44.788ZM70.821,69.464H48.855v-24.4H70.821Z">
	</symbol>
	<symbol id="developer" xmlns="http://www.w3.org/2000/svg"  width="101.559" height="93.073" viewBox="0 0 101.559 93.073">
  <defs>
    <filter id="Контур_17708" x="0" y="0" width="101.559" height="62.064" filterUnits="userSpaceOnUse">
      <feOffset dy="3" input="SourceAlpha"/>
      <feGaussianBlur stdDeviation="3" result="blur"/>
      <feFlood flood-opacity="0.4"/>
      <feComposite operator="in" in2="blur"/>
      <feComposite in="SourceGraphic"/>
    </filter>
    <filter id="Контур_17709" x="0" y="48.961" width="101.559" height="29.424" filterUnits="userSpaceOnUse">
      <feOffset dy="3" input="SourceAlpha"/>
      <feGaussianBlur stdDeviation="3" result="blur-2"/>
      <feFlood flood-opacity="0.4"/>
      <feComposite operator="in" in2="blur-2"/>
      <feComposite in="SourceGraphic"/>
    </filter>
    <filter id="Контур_17710" x="27.092" y="65.281" width="47.376" height="27.792" filterUnits="userSpaceOnUse">
      <feOffset dy="3" input="SourceAlpha"/>
      <feGaussianBlur stdDeviation="3" result="blur-3"/>
      <feFlood flood-opacity="0.4"/>
      <feComposite operator="in" in2="blur-3"/>
      <feComposite in="SourceGraphic"/>
    </filter>
  </defs>
  <g id="Сгруппировать_886" data-name="Сгруппировать 886" transform="translate(-1206.021 -1813)">
    <g transform="matrix(1, 0, 0, 1, 1206.02, 1813)" filter="url(#Контур_17708)">
      <path id="Контур_17708-2" data-name="Контур 17708" d="M81.111,26H2.448A2.448,2.448,0,0,0,0,28.448V70.064H83.559V28.448A2.448,2.448,0,0,0,81.111,26ZM28.8,60.195A2.447,2.447,0,0,1,25.45,59.3L19.516,49.058a2.448,2.448,0,0,1,.022-2.491l5.934-9.843a2.448,2.448,0,1,1,4.193,2.528l-5.187,8.6,5.209,8.993a2.448,2.448,0,0,1-.891,3.345ZM48.473,37.827,39.635,60.046a2.448,2.448,0,0,1-4.549-1.809l8.837-22.219a2.448,2.448,0,1,1,4.549,1.81Zm15.57,11.231L58.108,59.3a2.448,2.448,0,1,1-4.237-2.454l5.209-8.993-5.187-8.6a2.448,2.448,0,0,1,4.193-2.528l5.934,9.843A2.448,2.448,0,0,1,64.043,49.058Z" transform="translate(9 -20)" fill="#fff"/>
    </g>
    <g transform="matrix(1, 0, 0, 1, 1206.02, 1813)" filter="url(#Контур_17709)">
      <path id="Контур_17709-2" data-name="Контур 17709" d="M0,334.976a2.448,2.448,0,0,0,2.448,2.448H81.111a2.448,2.448,0,0,0,2.448-2.448V326H0Z" transform="translate(9 -271.04)" fill="#fff"/>
    </g>
    <g transform="matrix(1, 0, 0, 1, 1206.02, 1813)" filter="url(#Контур_17710)">
      <path id="Контур_17710-2" data-name="Контур 17710" d="M192.928,430.9H190.48V426H170.9v4.9h-2.448a2.448,2.448,0,1,0,0,4.9h24.48a2.448,2.448,0,0,0,0-4.9Z" transform="translate(-129.91 -354.72)" fill="#fff"/>
    </g>
  </g>
</symbol>
    <symbol id="design" xmlns="http://www.w3.org/2000/svg" viewBox="0 0 99.745 93.073">

    <path id="Контур_17703" data-name="Контур 17703" d="M168.248,211.106c-4.324,0-6.765,3.874-7.2,7.474a28.486,28.486,0,0,1-1.878,6.9h9.08a7.185,7.185,0,0,0,0-14.369Z"/>
    <path id="Контур_17705" data-name="Контур 17705" d="M260.755,127.48l12.5-12.5a2.395,2.395,0,1,0-3.387-3.387l-12.5,12.5a12.067,12.067,0,0,1,3.387,3.387Z"/>

    <g>
      
        <path id="Контур_17704-2" data-name="Контур 17704" d="M79.35,20.894H2.395A2.4,2.4,0,0,0,0,23.289V65.632H20.192a26.58,26.58,0,0,0,2.343-7.474,14.3,14.3,0,0,1,3.687-8.121,11.32,11.32,0,0,1,8.269-3.565,12.03,12.03,0,0,1,1.692.122L50.2,32.578a7.184,7.184,0,1,1,10.16,10.16L46.345,56.755a12.045,12.045,0,0,1,.122,1.692,11.913,11.913,0,0,1-2.4,7.185h37.68V23.289a2.4,2.4,0,0,0-2.395-2.395Z" transform="translate(9 -14.89)" fill="#fff"/>
      
      
        <path id="Контур_17706-2" data-name="Контур 17706" d="M0,339.887a2.4,2.4,0,0,0,2.395,2.395H79.35a2.4,2.4,0,0,0,2.395-2.395v-8.781H0Z" transform="translate(9 -275.58)" fill="#fff"/>
      
      
        <path id="Контур_17707-2" data-name="Контур 17707" d="M192.343,435.9h-2.395v-4.79H170.79v4.79h-2.395a2.395,2.395,0,1,0,0,4.79h23.949a2.395,2.395,0,1,0,0-4.79Z" transform="translate(-130.5 -359.61)" fill="#fff"/>
      
    </g>
  
</symbol>

</svg>
