<svg xmlns="http://www.w3.org/2000/svg" width="46.843" height="42.747" viewBox="0 0 46.843 42.747">
    <g id="strategy-hand-drawn-sketch" transform="translate(0 -20.37)">
        <g id="Сгруппировать_666" data-name="Сгруппировать 666" transform="translate(0 20.371)">
            <path id="Контур_18526" data-name="Контур 18526" d="M333.786,31.428c.825-1.166,1.7-2.293,2.589-3.4.968.852,1.95,1.688,2.968,2.486,1.534,1.2,3.717-.947,2.165-2.165-1.088-.854-2.138-1.75-3.171-2.665.786-.9,1.584-1.8,2.406-2.672,1.35-1.438-.811-3.608-2.165-2.165-.852.908-1.679,1.837-2.494,2.776q-1.127-1.068-2.23-2.163a1.532,1.532,0,0,0-2.166,2.165q1.2,1.194,2.43,2.349c-1.028,1.274-2.027,2.571-2.975,3.911C330,31.5,332.655,33.025,333.786,31.428Z" transform="translate(-297.605 -20.371)" fill="#fff"/>
            <path id="Контур_18527" data-name="Контур 18527" d="M50.08,297.154c-1.084.966-2.129,1.972-3.163,2.991-.632-.63-1.258-1.267-1.869-1.919-1.352-1.444-3.513.725-2.165,2.165.61.652,1.235,1.288,1.867,1.918q-1.085,1.1-2.173,2.195a1.532,1.532,0,0,0,2.165,2.165q1.107-1.11,2.206-2.227,1.1,1.043,2.212,2.074c1.445,1.342,3.615-.819,2.165-2.165q-1.111-1.032-2.21-2.074c1.023-1.007,2.057-2,3.129-2.957C53.721,298,51.548,295.844,50.08,297.154Z" transform="translate(-37.892 -268.967)" fill="#fff"/>
            <path id="Контур_18528" data-name="Контур 18528" d="M356.59,315.712c-.07-.145-.252-.5-.4-.81a6.37,6.37,0,0,0-2.749-3.047,6.206,6.206,0,0,0-5.584.306,1.594,1.594,0,0,0-.391.254,8.9,8.9,0,0,0-.676.838,8.221,8.221,0,0,0-1.627,7.22,1.628,1.628,0,0,0,.112.324c.081.172.291.543.452.841a6.02,6.02,0,0,0,4.893,3.175,1.006,1.006,0,0,0,.2,0c.108-.011.333-.007.508-.013a1.672,1.672,0,0,0,.315-.042,7.228,7.228,0,0,0,4.614-2.938c1.14-1.694.943-3.973.436-5.835A1.58,1.58,0,0,0,356.59,315.712Zm-2.839,4.321a3.394,3.394,0,0,1-2.287,1.609,2.734,2.734,0,0,1-.717.127c-.041-.007-.083-.014-.125-.018a2.817,2.817,0,0,1-2.352-1.785c-.021-.054-.045-.108-.07-.159a3.083,3.083,0,0,1-.192-.755,5.029,5.029,0,0,1,1.126-3.837,2.262,2.262,0,0,1,.975-.671c1.766-.494,2.987.531,3.63,2.409a.922.922,0,0,0,.042.1,4.23,4.23,0,0,1,.176.7A3.7,3.7,0,0,1,353.751,320.033Z" transform="translate(-310.253 -282.07)" fill="#fff"/>
            <path id="Контур_18529" data-name="Контур 18529" d="M35.8,157.291q-.128,2.42-.264,4.837c-8.162-8.079-22.165-11.538-30.674-2.092C3.54,161.5,5.7,163.671,7.023,162.2c7.253-8.05,18.766-4.953,25.871,1.649l-4.346-.687c-1.932-.305-2.761,2.646-.815,2.953l8.727,1.378a1.681,1.681,0,0,0,1.917-1.641c.007-.048.018-.092.021-.142q.234-4.21.459-8.421C38.962,155.317,35.9,155.327,35.8,157.291Z" transform="translate(-4 -140.883)" fill="#fff"/>
            <path id="Контур_18530" data-name="Контур 18530" d="M.924,31.939C-.159,33.6,2.493,35.131,3.568,33.485c.576-.882,1.17-1.751,1.768-2.618q.881.794,1.8,1.549c1.512,1.243,3.692-.911,2.165-2.165-.756-.621-1.487-1.271-2.206-1.932.568-.825,1.132-1.652,1.679-2.49,1.083-1.659-1.569-3.191-2.644-1.546q-.617.945-1.255,1.874c-.79-.811-1.565-1.636-2.311-2.49-1.3-1.49-3.459.685-2.166,2.165.87,1,1.776,1.957,2.705,2.893C2.366,29.79,1.632,30.855.924,31.939Z" transform="translate(0 -22.887)" fill="#fff"/>
        </g>
    </g>
</svg>
