<svg xmlns="http://www.w3.org/2000/svg" xmlns:xlink="http://www.w3.org/1999/xlink" width="240.118" height="282.885" viewBox="0 0 240.118 282.885">
  <defs>
    <linearGradient id="linear-gradient" x1="0.5" x2="0.5" y2="1" gradientUnits="objectBoundingBox">
      <stop offset="0" stop-color="#d1e92a"/>
      <stop offset="1" stop-color="#899b03"/>
    </linearGradient>
    <filter id="Контур_43" x="27.804" y="0" width="184.51" height="174.774" filterUnits="userSpaceOnUse">
      <feOffset dy="3" input="SourceAlpha"/>
      <feGaussianBlur stdDeviation="3" result="blur"/>
      <feFlood flood-opacity="0.4"/>
      <feComposite operator="in" in2="blur"/>
      <feComposite in="SourceGraphic"/>
    </filter>
    <filter id="Контур_44" x="0" y="168.224" width="240.118" height="114.661" filterUnits="userSpaceOnUse">
      <feOffset dy="3" input="SourceAlpha"/>
      <feGaussianBlur stdDeviation="3" result="blur-2"/>
      <feFlood flood-opacity="0.4"/>
      <feComposite operator="in" in2="blur-2"/>
      <feComposite in="SourceGraphic"/>
    </filter>
  </defs>
  <g id="student-with-graduation-cap" transform="translate(8.999 6.001)">
    <g id="Layer_2_9_" transform="translate(0.001 -0.001)">
      <g id="Сгруппировать_69" data-name="Сгруппировать 69">
        <g transform="matrix(1, 0, 0, 1, -9, -6)" filter="url(#Контур_43)">
          <path id="Контур_43-2" data-name="Контур 43" d="M88.759,45.822c2.557,1.439,19.768,9.754,28.083,13.758.033,3.227.1,8.808.214,8.9.916,7.992,2.49,16.87,2.945,19.377-.756.419-4.642,2.96-4.642,10.863,0,.045.008.086.011.131-.006.207-.011.416-.011.631,1.673,21.967,10.409,12.5,12.21,22.121,3,16,17.162,27.573,25.979,31.569a36.713,36.713,0,0,0,31.705,0c8.817-4,22.982-15.571,25.979-31.569,1.8-9.622,10.538-.155,12.211-22.121,0-.215-.006-.424-.011-.631,0-.045.007-.086.011-.131,0-7.9-3.886-10.444-4.642-10.863.456-2.507,2.029-11.385,2.945-19.377.109-.095.181-5.675.214-8.9,4.567-2.2,11.815-5.7,17.847-8.644V72.17a5.462,5.462,0,0,0-.555,9.251s-2.423,13.621-3.207,17.627,13.819,3.2,13.161,0S246,81.421,246,81.421a5.465,5.465,0,0,0-.549-9.251V48.161c2.248-1.115,3.921-1.963,4.589-2.339,1.81-1.018,2.784-2.321,2.578-3.674.247-1.411-.773-2.927-3.511-4.268-19.541-9.565-69.359-33.945-74.285-36.295A15.146,15.146,0,0,0,169.4,0a15.145,15.145,0,0,0-5.423,1.586c-4.926,2.35-54.744,26.73-74.285,36.295-2.739,1.341-3.759,2.857-3.511,4.268C85.975,43.5,86.95,44.8,88.759,45.822Z" transform="translate(-49.34 6)" fill="url(#linear-gradient)"/>
        </g>
        <g transform="matrix(1, 0, 0, 1, -9, -6)" filter="url(#Контур_44)">
          <path id="Контур_44-2" data-name="Контур 44" d="M214.833,309.616c-9.194-3.314-25.2-12.87-27.937-14.345a4.8,4.8,0,0,0-6.765,2.109c-7.58,12.689-21.633,49.589-31.438,50.273-.06,0-.122-.017-.182-.024s-.122.02-.182.024c-9.805-.685-23.858-37.584-31.438-50.273a4.8,4.8,0,0,0-6.766-2.109c-2.741,1.475-18.744,11.031-27.937,14.345-30.858,11.126-44.736,22.474-44.736,30.211v51.451H259.57V339.827C259.569,332.09,245.691,320.742,214.833,309.616Z" transform="translate(-28.45 -120.39)" fill="url(#linear-gradient)"/>
        </g>
      </g>
    </g>
  </g>
</svg>
