<svg xmlns="http://www.w3.org/2000/svg" xmlns:xlink="http://www.w3.org/1999/xlink" width="204.002" height="265.395" viewBox="0 0 204.002 265.395">
  <defs>
    <linearGradient id="linear-gradient" x1="0.5" x2="0.5" y2="1" gradientUnits="objectBoundingBox">
      <stop offset="0" stop-color="#d1e92a"/>
      <stop offset="1" stop-color="#899b03"/>
    </linearGradient>
  </defs>
  <g id="Сгруппировать_352" data-name="Сгруппировать 352" transform="translate(0 0)">
    <path id="Контур_1521" data-name="Контур 1521" d="M636.247,36.757s-30.881-3.145-39.529,24.764,9.571,36.952-7.855,58.7c-13.432,16.765,27.464,26.994,51.466,12.45,0,0,22.646,16.509,45.839,1.179s-3.988-26.713-2.1-44.805S689.49,23.784,636.247,36.757Z" transform="translate(-540.921 -9.438)" fill="#8b4406"/>
    <path id="Контур_1522" data-name="Контур 1522" d="M658.926,50.019s7.033,70.54-29.126,70.521c-24.872-.013-36.23-42.87-29.057-62.518S644.58,34.009,658.926,50.019Z" transform="translate(-529.439 -4.144)" fill="#e7bd9f"/>
    <path id="Контур_1523" data-name="Контур 1523" d="M662.857,69.857s-5.222,49.4,3.149,56.771,42.261-3.824,51.273,10.379S723.6,256.7,723.6,256.7H580.686s2.415-121.515,9.833-126.828,38.635,6.124,40.449-14.718c.87-9.975-3.441-61.046-3.441-61.046Z" transform="translate(-546.043 8.682)" fill="#e7bd9f"/>
    <ellipse id="Эллипс_64" data-name="Эллипс 64" cx="2.203" cy="2.842" rx="2.203" ry="2.842" transform="translate(86.654 74.175)" fill="#24272d"/>
    <ellipse id="Эллипс_65" data-name="Эллипс 65" cx="2.203" cy="2.842" rx="2.203" ry="2.842" transform="translate(109.664 74.175)" fill="#24272d"/>
    <path id="Контур_1524" data-name="Контур 1524" d="M628.948,66.853s4.125-12.028,9.44-6.771-.637,19.7-5.752,19.617S626.521,71.762,628.948,66.853Z" transform="translate(-502.534 12.984)" fill="#e7bd9f"/>
    <path id="Контур_1525" data-name="Контур 1525" d="M606.7,78.5s15.477,15.581,30.484,1.273l-1.154,8.313s-2.014,8.2-11.945,8.847-17.2-9.008-17.2-9.008Z" transform="translate(-521.961 31.267)" fill="#24272d" opacity="0.5"/>
    <path id="Контур_1526" data-name="Контур 1526" d="M619.888,57.17s3.917-3.813,9.463.277C632.59,59.835,615.367,61.161,619.888,57.17Z" transform="translate(-510.459 10.023)" fill="#8b4406"/>
    <path id="Контур_1527" data-name="Контур 1527" d="M614.805,56.57s-3.917-3.813-9.463.277C602.1,59.235,619.327,60.561,614.805,56.57Z" transform="translate(-523.597 9.468)" fill="#8b4406"/>
    <path id="Контур_1528" data-name="Контур 1528" d="M635.7,92.524s-8.575,62.048,29.806,62.048c36.126,0,27.227-61.688,27.227-61.688s46.565-1.529,55.872,16.083,16.133,112.185,16.133,112.185H562.7s6.6-96.092,13.36-109.568C586.332,91.1,635.7,92.524,635.7,92.524Z" transform="translate(-562.696 44.226)" fill="#fff"/>
    <path id="Контур_1529" data-name="Контур 1529" d="M630.823,72.914l-1.444-.058c.275-6.767,1.442-10.449,3.562-11.26a3.183,3.183,0,0,1,3.166.87l-1.034,1.009c-.01-.01-.834-.836-1.621-.528C632.772,63.212,631.156,64.712,630.823,72.914Z" transform="translate(-500.968 15.465)" fill="#24272d"/>
    <path id="Контур_1530" data-name="Контур 1530" d="M565.935,140.421s25.612-1.916,25.918,0,0,37.162,0,37.162H562.7S564.7,151.654,565.935,140.421Z" transform="translate(-562.696 87.796)" fill="#e7bd9f"/>
    <path id="Контур_1531" data-name="Контур 1531" d="M679.477,140.421s-25.612-1.916-25.92,0,0,37.162,0,37.162h29.159S680.709,151.654,679.477,140.421Z" transform="translate(-478.713 87.796)" fill="#e7bd9f"/>
    <path id="Контур_1532" data-name="Контур 1532" d="M618.783,79.377c-1.66,0-5.5-2.517-7.152-3.657l.751-1.092c2.349,1.619,5.247,3.283,6.189,3.426.489-1.55.306-9.894-.175-17.454l1.319-.085c1.175,18.311-.033,18.656-.612,18.822A1.171,1.171,0,0,1,618.783,79.377Z" transform="translate(-517.397 14.615)" fill="#24272d"/>
    <path id="Контур_1533" data-name="Контур 1533" d="M617.716,76.289c-3.295,0-6.16-3.283-6.291-3.434l1.005-.865c.029.035,2.927,3.4,5.844,2.927,1.6-.26,2.937-1.695,3.986-4.263l1.227.5c-1.236,3.025-2.921,4.731-5,5.07A4.732,4.732,0,0,1,617.716,76.289Z" transform="translate(-517.588 24.001)" fill="#24272d"/>
    <path id="Контур_1534" data-name="Контур 1534" d="M606.8,67.114S602.743,55.067,597.4,60.3s.539,19.7,5.654,19.648S609.206,72.034,606.8,67.114Z" transform="translate(-532.525 13.194)" fill="#e7bd9f"/>
    <path id="Контур_1535" data-name="Контур 1535" d="M601.392,72.913c-.335-8.217-1.953-9.707-2.634-9.967-.784-.3-1.6.518-1.612.528l-1.038-1.007a3.184,3.184,0,0,1,3.166-.87c2.12.811,3.287,4.493,3.562,11.26Z" transform="translate(-531.767 15.466)" fill="#24272d"/>
    <path id="Контур_1536" data-name="Контур 1536" d="M618.753,92.256V221.384H562.7s.9-94.249,14.317-112.012S618.753,92.256,618.753,92.256Z" transform="translate(-562.696 43.995)" fill="url(#linear-gradient)"/>
    <ellipse id="Эллипс_66" data-name="Эллипс 66" cx="18.053" cy="18.053" rx="18.053" ry="18.053" transform="translate(79.117 0)" fill="#8b4406"/>
    <path id="Контур_1537" data-name="Контур 1537" d="M598.244,78.059s14.8-2,33.417-24.7c0,0,12.14,19.74,29.018,21.545s-.834-35.987-23.753-36.95S592.588,46.909,598.244,78.059Z" transform="translate(-530.639 -6.324)" fill="#8b4406"/>
    <path id="Контур_1538" data-name="Контур 1538" d="M603.094,61.742s-.907,9.964,1.5,16.9c.9,2.594-8.962-6.43-6.617-21.774S603.094,61.742,603.094,61.742Z" transform="translate(-530.372 5.917)" fill="#773d0a"/>
    <path id="Контур_1539" data-name="Контур 1539" d="M628.91,61.742s.907,9.964-1.5,16.9c-.9,2.594,8.962-6.43,6.619-21.774S628.91,61.742,628.91,61.742Z" transform="translate(-502.844 5.917)" fill="#773d0a"/>
    <path id="Контур_1540" data-name="Контур 1540" d="M617.391,55.4l-.7-1.265c7.526-4.125,11.591-8.864,12.082-14.086.738-7.849-6.921-14.25-7-14.314l.917-1.117c.341.281,8.327,6.963,7.518,15.565C629.677,45.912,625.364,51.031,617.391,55.4Z" transform="translate(-512.708 -18.614)" fill="#773d0a"/>
    <path id="Контур_1541" data-name="Контур 1541" d="M600.853,72.732q-1.73,0-3.555-.139l.11-1.44c9.469.732,16.952-1.464,22.286-6.5,8.922-8.417,8.775-22.07,8.773-22.209l1.444-.025c.011.583.156,14.433-9.226,23.284C615.738,70.377,609.077,72.732,600.853,72.732Z" transform="translate(-530.665 -2.133)" fill="#773d0a"/>
    <path id="Контур_1542" data-name="Контур 1542" d="M587.287,221.175l-1.444-.027c.121-6.5,3.025-127.433,3.052-128.654l1.444.035C590.311,93.75,587.409,214.683,587.287,221.175Z" transform="translate(-541.269 44.218)" fill="#24272d"/>
    <rect id="Прямоугольник_233" data-name="Прямоугольник 233" width="125.666" height="1.444" transform="translate(31.947 265.368) rotate(-89.105)" fill="#24272d"/>
    <path id="Контур_1543" data-name="Контур 1543" d="M607.1,151.31c-14.878-.1-31.637,0-31.8,0l-.008-1.444c.168,0,16.935-.1,31.818,0Z" transform="translate(-551.042 97.287)" fill="#24272d"/>
    <path id="Контур_1544" data-name="Контур 1544" d="M607.1,140.67c-14.878-.094-31.637,0-31.8,0l-.008-1.444c.168,0,16.935-.092,31.818,0Z" transform="translate(-551.042 87.439)" fill="#24272d"/>
    <path id="Контур_1545" data-name="Контур 1545" d="M607.1,130.166c-14.878-.1-31.637,0-31.8,0l-.008-1.444c.168,0,16.935-.1,31.818,0Z" transform="translate(-551.042 77.714)" fill="#24272d"/>
    <path id="Контур_1546" data-name="Контур 1546" d="M605.928,119.332c-14.874-.1-29.228,0-29.373,0l-.01-1.444c.144,0,14.5-.1,29.39,0Z" transform="translate(-549.875 67.685)" fill="#24272d"/>
    <path id="Контур_1547" data-name="Контур 1547" d="M607.1,109c-14.878-.1-31.637,0-31.8,0l-.008-1.444c.168,0,16.935-.1,31.818,0Z" transform="translate(-551.042 58.12)" fill="#24272d"/>
    <path id="Контур_1548" data-name="Контур 1548" d="M573.392,101.5l-.008-1.444c.2,0,20.6-.1,35.479,0l-.008,1.444C593.973,101.4,573.6,101.5,573.392,101.5Z" transform="translate(-552.802 51.177)" fill="#24272d"/>
    <path id="Контур_1549" data-name="Контур 1549" d="M571.12,209.42c-.318-14.308,5.592-103.514,5.652-104.413l1.44.1c-.06.9-5.966,90.04-5.648,104.286Z" transform="translate(-554.909 55.801)" fill="#24272d"/>
    <path id="Контур_1550" data-name="Контур 1550" d="M566.558,213.9l-1.444-.027c.079-4,2.1-98.006,15.379-113.706l1.1.934C568.65,116.411,566.578,212.927,566.558,213.9Z" transform="translate(-560.457 51.32)" fill="#24272d"/>
    <path id="Контур_1551" data-name="Контур 1551" d="M586.112,122.713c-8.205-4.127-19.671-10.081-19.784-10.141l.664-1.283c.115.062,11.572,6.01,19.771,10.133Z" transform="translate(-559.335 61.617)" fill="#24272d"/>
    <path id="Контур_1552" data-name="Контур 1552" d="M584.712,126.038c-6.129,0-19.29-2.763-19.9-2.89l.3-1.413c.162.035,16.2,3.414,21,2.786l.183,1.435A12.947,12.947,0,0,1,584.712,126.038Z" transform="translate(-560.737 71.285)" fill="#24272d"/>
    <path id="Контур_1553" data-name="Контур 1553" d="M585.522,136.243c-6.688,0-21.077-2.76-21.745-2.889l.275-1.419c.175.035,17.77,3.41,23.02,2.788l.169,1.435A14.912,14.912,0,0,1,585.522,136.243Z" transform="translate(-561.695 80.728)" fill="#24272d"/>
    <path id="Контур_1554" data-name="Контур 1554" d="M586.019,148.134c-7.144,0-22.219-2.76-22.918-2.889l.264-1.419c.185.035,18.635,3.407,24.339,2.79l.158,1.435A17.3,17.3,0,0,1,586.019,148.134Z" transform="translate(-562.321 91.736)" fill="#24272d"/>
    <path id="Контур_1555" data-name="Контур 1555" d="M586.321,159.237c-7.235,0-22.837-2.758-23.559-2.887l.252-1.421c.195.033,19.3,3.4,25,2.79l.158,1.435A17.43,17.43,0,0,1,586.321,159.237Z" transform="translate(-562.635 102.014)" fill="#24272d"/>
    <path id="Контур_1556" data-name="Контур 1556" d="M579.569,136.872c-1.467-16.393-7-38.111-7.06-38.329l1.4-.358c.056.22,5.621,22.047,7.1,38.56Z" transform="translate(-553.612 49.486)" fill="#899b03"/>
    <path id="Контур_1557" data-name="Контур 1557" d="M576.356,195.27l-1.444-.031c.06-2.763,1.477-67.738,2.436-74.759l1.431.194C577.831,127.615,576.372,194.594,576.356,195.27Z" transform="translate(-551.388 70.125)" fill="#899b03"/>
    <path id="Контур_1558" data-name="Контур 1558" d="M678.443,140.421s-25.612-1.916-25.92,0,0,37.162,0,37.162h29.159S679.676,151.654,678.443,140.421Z" transform="translate(-479.669 87.796)" fill="#e7bd9f"/>
    <path id="Контур_1559" data-name="Контур 1559" d="M638.49,92.256V221.384h56.057s-.9-94.249-14.318-112.012S638.49,92.256,638.49,92.256Z" transform="translate(-492.534 43.995)" fill="url(#linear-gradient)"/>
    <path id="Контур_1560" data-name="Контур 1560" d="M645.168,221.175c-.12-6.492-3.022-127.425-3.05-128.646l1.444-.035c.027,1.221,2.931,122.158,3.05,128.654Z" transform="translate(-489.176 44.218)" fill="#24272d"/>
    <rect id="Прямоугольник_234" data-name="Прямоугольник 234" width="1.444" height="125.666" transform="translate(166.648 139.74) rotate(-0.905)" fill="#24272d"/>
    <path id="Контур_1561" data-name="Контур 1561" d="M670.3,151.309c-.166,0-16.923-.092-31.8,0l-.008-1.444c14.882-.094,31.653,0,31.818,0Z" transform="translate(-492.536 97.287)" fill="#24272d"/>
    <path id="Контур_1562" data-name="Контур 1562" d="M670.3,140.67c-.166,0-16.919-.092-31.8,0l-.008-1.444c14.882-.092,31.653,0,31.818,0Z" transform="translate(-492.536 87.439)" fill="#24272d"/>
    <path id="Контур_1563" data-name="Контур 1563" d="M670.3,130.166c-.166,0-16.923-.094-31.8,0l-.008-1.444c14.882-.1,31.653,0,31.818,0Z" transform="translate(-492.536 77.714)" fill="#24272d"/>
    <path id="Контур_1564" data-name="Контур 1564" d="M667.866,119.332c-.141,0-14.493-.094-29.371,0l-.008-1.444c14.884-.094,29.244,0,29.39,0Z" transform="translate(-492.536 67.685)" fill="#24272d"/>
    <path id="Контур_1565" data-name="Контур 1565" d="M670.3,109c-.166,0-16.919-.094-31.8,0l-.008-1.444c14.882-.094,31.653,0,31.818,0Z" transform="translate(-492.536 58.12)" fill="#24272d"/>
    <path id="Контур_1566" data-name="Контур 1566" d="M673.959,101.5c-.206,0-20.584-.1-35.464,0l-.008-1.444c14.88-.1,35.273,0,35.479,0Z" transform="translate(-492.536 51.177)" fill="#24272d"/>
    <path id="Контур_1567" data-name="Контур 1567" d="M662.591,209.42l-1.444-.031C661.463,195.143,655.559,106,655.5,105.1l1.44-.1C657,105.906,662.907,195.112,662.591,209.42Z" transform="translate(-476.789 55.801)" fill="#24272d"/>
    <path id="Контур_1568" data-name="Контур 1568" d="M671.66,213.9c-.019-.973-2.091-97.488-15.036-112.8l1.1-.934c13.274,15.7,15.3,109.711,15.379,113.706Z" transform="translate(-475.747 51.32)" fill="#24272d"/>
    <path id="Контур_1569" data-name="Контур 1569" d="M654,122.713l-.647-1.29c8.2-4.123,19.656-10.071,19.771-10.133l.664,1.283C673.679,112.632,662.213,118.586,654,122.713Z" transform="translate(-478.772 61.617)" fill="#24272d"/>
    <path id="Контур_1570" data-name="Контур 1570" d="M655.907,126.038a12.966,12.966,0,0,1-1.577-.083l.183-1.435c4.77.624,20.838-2.754,21-2.786l.3,1.413C675.2,123.275,662.039,126.038,655.907,126.038Z" transform="translate(-477.871 71.285)" fill="#24272d"/>
    <path id="Контур_1571" data-name="Контур 1571" d="M656.052,136.243a14.9,14.9,0,0,1-1.718-.085l.169-1.435c5.24.622,22.844-2.754,23.022-2.788l.273,1.419C677.13,133.483,662.744,136.243,656.052,136.243Z" transform="translate(-477.867 80.728)" fill="#24272d"/>
    <path id="Контур_1572" data-name="Контур 1572" d="M656.18,148.134a17.28,17.28,0,0,1-1.843-.083l.158-1.435c5.716.626,24.154-2.756,24.337-2.79l.264,1.419C678.4,145.374,663.326,148.134,656.18,148.134Z" transform="translate(-477.864 91.736)" fill="#24272d"/>
    <path id="Контур_1573" data-name="Контур 1573" d="M656.19,159.237a17.344,17.344,0,0,1-1.853-.083l.158-1.435c5.7.6,24.809-2.758,25-2.79l.252,1.421C679.028,156.479,663.426,159.237,656.19,159.237Z" transform="translate(-477.864 102.014)" fill="#24272d"/>
    <path id="Контур_1574" data-name="Контур 1574" d="M654.811,136.872l-1.436-.127c1.475-16.513,7.042-38.341,7.1-38.56l1.4.358C661.814,98.761,656.278,120.479,654.811,136.872Z" transform="translate(-478.756 49.486)" fill="#899b03"/>
    <path id="Контур_1575" data-name="Контур 1575" d="M655.8,195.27c-.013-.676-1.477-67.655-2.423-74.6l1.429-.194c.959,7.021,2.378,72,2.438,74.759Z" transform="translate(-478.754 70.125)" fill="#899b03"/>
    <path id="Контур_1576" data-name="Контур 1576" d="M632.367,162.32q-1.305,0-2.652-.079c-8.879-.533-16.116-4.123-21.51-10.672-15.633-18.976-10.9-55.965-10.688-57.53l1.433.191c-.05.377-4.86,37.936,10.37,56.423A27.6,27.6,0,0,0,629.8,160.8c10.726.641,19.313-2.7,25.519-9.939,13.3-15.508,12.365-44.813,9.829-56.575l1.41-.3c2.588,11.991,3.514,41.9-10.141,57.821C650.421,158.788,642.34,162.32,632.367,162.32Z" transform="translate(-531.233 45.595)" fill="#f4f2e9"/>
    <path id="Контур_1577" data-name="Контур 1577" d="M612.545,78.566a10.533,10.533,0,1,1,10.534-10.532A10.544,10.544,0,0,1,612.545,78.566Zm0-20.1a9.57,9.57,0,1,0,9.571,9.571A9.583,9.583,0,0,0,612.545,58.464Z" transform="translate(-526.301 11.825)" fill="#f4f2e9"/>
    <path id="Контур_1578" data-name="Контур 1578" d="M627.35,78.566a10.533,10.533,0,1,1,10.532-10.532A10.544,10.544,0,0,1,627.35,78.566Zm0-20.1a9.57,9.57,0,1,0,9.569,9.571A9.583,9.583,0,0,0,627.35,58.464Z" transform="translate(-512.597 11.825)" fill="#f4f2e9"/>
    <path id="Контур_1579" data-name="Контур 1579" d="M605.167,66.06l-6.373-5.284.613-.741,6.373,5.284Z" transform="translate(-529.281 14.171)" fill="#f4f2e9"/>
    <rect id="Прямоугольник_235" data-name="Прямоугольник 235" width="8.404" height="0.963" transform="translate(96.296 79.378)" fill="#f4f2e9"/>
    <rect id="Прямоугольник_236" data-name="Прямоугольник 236" width="9.361" height="0.963" transform="translate(124.509 79.479) rotate(-37.541)" fill="#f4f2e9"/>
  </g>
</svg>
