<svg xmlns="http://www.w3.org/2000/svg" xmlns:xlink="http://www.w3.org/1999/xlink" width="258.605" height="439.424" viewBox="0 0 258.605 439.424">
  <defs>
    <linearGradient id="linear-gradient" x1="0.5" x2="0.5" y2="1" gradientUnits="objectBoundingBox">
      <stop offset="0" stop-color="#00a7cf"/>
      <stop offset="1" stop-color="#01627a"/>
    </linearGradient>
  </defs>
  <g id="pic_student" transform="translate(-1123.762 -196.577)">
    <g id="student" transform="translate(1123.762 196.577)">
      <g id="Сгруппировать_342" data-name="Сгруппировать 342" transform="translate(0 0)">
        <g id="Сгруппировать_333" data-name="Сгруппировать 333" transform="translate(189.698 0)">
          <path id="Контур_1287" data-name="Контур 1287" d="M48.274,164.269c23.3-6.039,41.517-28.015,46.353-33.312a9.991,9.991,0,0,0,1.393-2.287l0,0c4.623-9.583,12.088-41.094,13.751-48.236.113-.486.2-.857.253-1.1.055-.226.082-.345.082-.345L96.853,73.189S95.773,85.9,89.388,96.152s-12.27,26.507-12.27,26.507c-12.48,6.141-25.831,17.553-25.831,17.553C44.321,154.813,48.274,164.269,48.274,164.269Z" transform="translate(-47.157 -56.448)" fill="#f9b587"/>
          <path id="Контур_1288" data-name="Контур 1288" d="M60.49,156.9c23.3-6.04,41.517-28.015,46.353-33.312a9.992,9.992,0,0,0,1.393-2.287c-.27.229-17.5,15.013-23.982,18.757-6.53,3.773-13.922,7.126-17.553,4.579s-4.649-7.4-3.2-11.794C56.537,147.442,60.49,156.9,60.49,156.9Z" transform="translate(-59.373 -49.077)" fill="#f39568"/>
          <g id="Сгруппировать_332" data-name="Сгруппировать 332" transform="translate(45.771)">
            <path id="Контур_1289" data-name="Контур 1289" d="M58.357,81.875c-2.554-.084-11.469-2.38-12.576-2.885-.386-.178-.548-.733-.592-1.379-.347-.374-2.6-2.851-3.148-4.793-.3-1.069.806-1.975,2.133-2.747-1.111-2.236-1.311-8.24,1.432-10.454,2.988-2.414,5.857.564,5.857.564,3.424-2.779,5.576.893,5.576.893,1.608-1.07,4.5,1.052,4.5,1.052,1.482-.78,3.163.782,3.54,2.228s-1.595,13.592-2.674,14.962S58.357,81.875,58.357,81.875Z" transform="translate(-41.992 -58.673)" fill="#f9b587"/>
            <path id="Контур_1290" data-name="Контур 1290" d="M52.823,73.018c-1.315,1.864-2.725.625-2.725.625.461.1,1.165-.524,1.718-1.126a4.964,4.964,0,0,0,.788-.947l0-.006a3.083,3.083,0,0,0,.487-2.506c-.5-1.752-1.373-2-1.373-2l1.309-5.412a24.753,24.753,0,0,1-.111,5.291,4.281,4.281,0,0,1,.363,5.462,1.5,1.5,0,0,0,1.773.4,4.167,4.167,0,0,0,2.023-2.485L58.8,62.88S58.354,71.424,56.7,73A2.508,2.508,0,0,1,52.823,73.018Z" transform="translate(-45.012 -58.217)" fill="#f39568"/>
            <path id="Контур_1291" data-name="Контур 1291" d="M53.461,64.694s-1.113,6.277-1.789,7.55a2.406,2.406,0,0,1-3.351.985,1.845,1.845,0,0,1-.878-1.451l-1.177.993s2.168,3.581,5.149,1.026C52.906,72.52,53.461,64.694,53.461,64.694Z" transform="translate(-35.253 -57.75)" fill="#f39568"/>
            <path id="Контур_1292" data-name="Контур 1292" d="M45.806,71.909a2.4,2.4,0,0,0,.987,2.057c1.077.675,1.864.34,2.253-.357a1.434,1.434,0,0,1-1.294,1.225c-1.579.256-2.7-1.46-2.98-2.059Z" transform="translate(-29.117 -56.644)" fill="#f39568"/>
          </g>
          <path id="Контур_1293" data-name="Контур 1293" d="M47.228,78.836a4.289,4.289,0,0,0,2.859.778c.113-.486.2-.857.253-1.1A10.075,10.075,0,0,1,47.228,78.836Z" transform="translate(12.53 -55.633)" fill="#f39568"/>
          <path id="Контур_1294" data-name="Контур 1294" d="M56.942,76.038a8.244,8.244,0,0,0,2.624,1.693,4.913,4.913,0,0,1-2.8-.7Z" transform="translate(-7.696 -56.012)" fill="#f39568"/>
          <path id="Контур_1295" data-name="Контур 1295" d="M72.122,116.086s4.449,3.726,6.965,4.114a9.3,9.3,0,0,1-9.363-2.877Z" transform="translate(-42.161 -49.875)" fill="#f39568"/>
        </g>
        <path id="Контур_1296" data-name="Контур 1296" d="M166.589,222.424a4.062,4.062,0,0,1-2.49,1.423c-.77,12.25-2.4,22.636-4.829,27.1-7.49,13.759-56.3,14.675-66.458,2.677s-7.491-82.232,9.437-91.189c12.639-6.688,37.121-4.891,48.718-3.55a11.858,11.858,0,0,1,10.13,8.744c1.98,7.57,3.108,19.312,3.426,31.7a6.96,6.96,0,0,1,2.084.654C168.9,201.162,168,220.36,166.589,222.424Z" transform="translate(38.852 -43.512)" fill="#c9e025"/>
        <path id="Контур_1297" data-name="Контур 1297" d="M177.409,154.921s3.727,13.821,9.627,29.155c.891,2.316,1.831,4.669,2.818,7.014,4.013,9.552,8.765,18.973,13.887,25.387,2.734,3.419,5.57,5.982,8.458,7.256,0,0,8.272,1.16,14.076-2.323s28.442-14.7,31.2-19.54c0,0-8.707-12.344-16.978-13.452,0,0-3.073,1.587-7.428,4.118a168.639,168.639,0,0,0-16.281,10.617q-.784.588-1.542,1.184s-.427-.83-1.195-2.275c-1.959-3.675-6.144-11.326-11.215-19.409-1.083-1.73-2.208-3.483-3.361-5.218-.256-.385-.514-.772-.773-1.154-9-13.351-10.158-23.108-10.158-23.108S179.876,152.446,177.409,154.921Z" transform="translate(-155.036 -44.208)" fill="#f9b587"/>
        <path id="Контур_1298" data-name="Контур 1298" d="M224.788,180.838c.891,2.316,1.831,4.669,2.818,7.014l12.982-8.437c-1.083-1.73-2.208-3.483-3.361-5.218Z" transform="translate(-192.788 -40.971)" fill="#f39568"/>
        <path id="Контур_1299" data-name="Контур 1299" d="M177.409,211.78c2.734,3.419,5.57,5.982,8.458,7.256,0,0,8.272,1.16,14.076-2.323s28.442-14.7,31.2-19.54c0,0-8.707-12.344-16.978-13.452,0,0-3.073,1.587-7.428,4.118.505,1.736,2.511,7.972,6.113,10.991,4.208,3.523-5.515,11.65-13.932,15.277S184.636,217.579,177.409,211.78Z" transform="translate(-128.704 -39.512)" fill="#f39568"/>
        <path id="Контур_1300" data-name="Контур 1300" d="M214.4,207.216c-.969-3.967,1.211-10.573,1.211-10.573q-.784.588-1.542,1.184s-.427-.83-1.195-2.275C212.023,204.009,214.4,207.216,214.4,207.216Z" transform="translate(-153.859 -37.699)" fill="#f39568"/>
        <path id="Контур_1301" data-name="Контур 1301" d="M173.295,389.458c7.74-4.449,10.448-8.9,15.092-16.64,2.756-4.6,5.311-8.443,6.93-10.808a5.376,5.376,0,0,0,.337-5.517c-.069-.136-.142-.273-.217-.415-1.82-3.442-4.841-8.289-7.447-8.414l-2.949,1.605-10.2,5.555s-4.449,10.225-4.254,14.689c.165,3.9-7.361,12.927-9.639,18.005a9.98,9.98,0,0,0-.456,1.2,4.669,4.669,0,0,0-.163.74C159.785,393.747,165.554,393.91,173.295,389.458Z" transform="translate(-74.083 -14.391)" fill="#fff"/>
        <path id="Контур_1302" data-name="Контур 1302" d="M173.295,388.34c7.74-4.449,10.448-8.9,15.092-16.64,2.756-4.6,5.311-8.443,6.93-10.808a5.376,5.376,0,0,0,.337-5.517c-.069-.136-.142-.273-.217-.415a22.671,22.671,0,0,1-4.293,8.9c-3.483,4.064-8.6,13.206-9.813,14.947s-9.855,9.206-15.292,10.3c-4.409.891-5.213-.046-5.546-1.514a4.67,4.67,0,0,0-.163.74C159.785,392.629,165.554,392.792,173.295,388.34Z" transform="translate(-74.083 -13.273)" fill="#2c2a40"/>
        <path id="Контур_1303" data-name="Контур 1303" d="M173.295,389.458c7.74-4.449,10.448-8.9,15.092-16.64,2.756-4.6,5.311-8.443,6.93-10.808a5.376,5.376,0,0,0,.337-5.517c-.069-.136-.142-.273-.217-.415-1.82-3.442-4.841-8.289-7.447-8.414l-2.949,1.605s5.764,5.169,3.927,10.875-8,14.32-11.206,18.093c-3.111,3.657-10,10.039-16.813,9.281a9.98,9.98,0,0,0-.456,1.2,4.669,4.669,0,0,0-.163.74C159.785,393.747,165.554,393.91,173.295,389.458Z" transform="translate(-74.083 -14.391)" fill="#2c2a40" opacity="0.2"/>
        <path id="Контур_1304" data-name="Контур 1304" d="M146.831,412.9c.178,5.134,3.829,9.857,11.889,8.481,9.081-1.546,11.621-9.093,13.748-13.737s7.16-20.7,9.288-27.087a20.136,20.136,0,0,0,.258-10.027,25.814,25.814,0,0,0-1.086-3.921l-3.273.5-18.537,2.809a52.824,52.824,0,0,0-4.258,15.673c-.662,7.119-5.431,16.36-7.279,22.516v.006a18.8,18.8,0,0,0-.654,2.824A11.6,11.6,0,0,0,146.831,412.9Z" transform="translate(-44.813 -11.488)" fill="#fff"/>
        <path id="Контур_1305" data-name="Контур 1305" d="M146.831,412.9c.178,5.134,3.829,9.857,11.889,8.481,9.081-1.546,11.621-9.093,13.748-13.737s7.16-20.7,9.288-27.087a20.136,20.136,0,0,0,.258-10.027,25.814,25.814,0,0,0-1.086-3.921l-3.273.5c.31,3.216-1.079,12.331-3.638,17.225-3.19,6.095-5.571,19.494-11.126,25.444s-15.519,7.058-15.309-1.664a18.8,18.8,0,0,0-.654,2.824A11.6,11.6,0,0,0,146.831,412.9Z" transform="translate(-44.813 -11.488)" fill="#2c2a40" opacity="0.2"/>
        <path id="Контур_1306" data-name="Контур 1306" d="M146.823,412.381c.178,5.134,3.829,9.857,11.889,8.481,9.081-1.547,11.621-9.093,13.748-13.737s7.16-20.7,9.288-27.087a20.136,20.136,0,0,0,.258-10.027,128.611,128.611,0,0,1-5.758,19.3c-4.642,11.851-8.347,22.262-11.581,25.746S148.679,420.856,146.823,412.381Z" transform="translate(-44.805 -10.967)" fill="#2c2a40"/>
        <path id="Контур_1307" data-name="Контур 1307" d="M102.623,150.441l-7.27,2.29s1.229,5.138,3.332,5.134S103.252,156.742,102.623,150.441Z" transform="translate(94.344 -44.611)" fill="#c7425d"/>
        <g id="Сгруппировать_338" data-name="Сгруппировать 338" transform="translate(46.643 217.556)">
          <path id="Контур_1308" data-name="Контур 1308" d="M182.212,312.85c-1.408,3.52-.095,7.2,1.465,13.079-6.2-9.024-16.557-23.333-16.557-23.333l30.185-9.313S183.76,308.981,182.212,312.85Z" transform="translate(-129.643 -240.28)" fill="none"/>
          <path id="Контур_1309" data-name="Контур 1309" d="M109.671,297.534a9.43,9.43,0,0,1,2.024-3.747c3.123-3.6,12.352-13.127,30.86-24.2,23.6-14.124,28.056-12.962,39.857-21.669,0,0,40.363-4.539,56.935,11.482.172.165.34.334.505.5a22.524,22.524,0,0,1,3.814,5.178s0,20.938-8.271,28.577-34.213,34.671-36.729,34.422c0,0-.191,4.2-3.289,4.394,0,0,4.258,17.219,2.516,24.574,0,0,2.708,6.19,1.353,10.64s.389,8.9.389,11.609-2.321,14.706-9.867,17.222-15.867-.195-16.447-6.774.966-10.835.385-14.512c-.157-1-.842-3.921-1.791-7.787-2.786,1.741-7.177,3.054-8.657,2.757-1.933-.386-6-11.8-8.512-12.576s-11.415-11.8-17.8-17.995C130.823,333.694,105.155,314.623,109.671,297.534Zm67.132,2.792-30.185,9.311s10.358,14.311,16.558,23.334c-1.561-5.877-2.874-9.56-1.466-13.078C163.257,316.022,176.8,300.325,176.8,300.325Z" transform="translate(-109.141 -247.322)" fill="url(#linear-gradient)"/>
          <g id="Сгруппировать_336" data-name="Сгруппировать 336" transform="translate(80.306 11.989)">
            <g id="Сгруппировать_334" data-name="Сгруппировать 334" transform="translate(49.023)">
              <path id="Контур_1310" data-name="Контур 1310" d="M112.448,259.569l1.144.191c.107-.638.188-1.135.238-1.454-.165-.167-.333-.337-.505-.5l-.574-.086S112.643,258.405,112.448,259.569Z" transform="translate(-112.448 -257.718)" fill="#5b5b6c"/>
            </g>
            <g id="Сгруппировать_335" data-name="Сгруппировать 335" transform="translate(0 4.426)">
              <path id="Контур_1311" data-name="Контур 1311" d="M161.619,261.556l1.141.209c-.229,1.256-.467,2.513-.714,3.735l-1.138-.227C161.151,264.057,161.39,262.806,161.619,261.556Zm-1.245,6.281,1.135.243c-.279,1.289-.563,2.539-.844,3.712l-1.129-.273C159.817,270.355,160.1,269.117,160.374,267.837Zm-1.477,6.216,1.123.3c-.348,1.315-.7,2.551-1.051,3.668l-1.108-.346C158.206,276.572,158.554,275.355,158.9,274.052Zm-1.864,6.087,1.092.4a28.683,28.683,0,0,1-1.53,3.555l-1.024-.543A28.152,28.152,0,0,0,157.033,280.139Zm-2.847,5.439.84.8c-.566.6-1.472,1.508-2.69,2.716l-.815-.823C152.729,287.072,153.626,286.167,154.186,285.578Zm-4.545,4.533.813.83c-.838.819-1.753,1.707-2.725,2.65l-.81-.836C147.894,291.815,148.8,290.93,149.641,290.111Zm-4.614,4.47.806.836c-.885.85-1.8,1.73-2.745,2.629l-.8-.838C143.227,296.307,144.145,295.429,145.027,294.581Zm-4.644,4.438.8.842q-1.363,1.292-2.761,2.614l-.795-.844C138.554,300.754,139.477,299.881,140.383,299.019Zm-4.667,4.411.8.848q-1.394,1.306-2.775,2.6l-.792-.851C133.861,305.169,134.79,304.3,135.716,303.43Zm-4.7,4.386.79.85c-.949.883-1.887,1.745-2.8,2.577l-.783-.856C129.139,309.557,130.071,308.7,131.02,307.815Zm-4.731,4.345.781.859c-.989.9-1.936,1.753-2.827,2.545l-.773-.868C124.359,313.908,125.3,313.057,126.289,312.161Zm-4.786,4.272.76.876c-1.16,1.01-2.145,1.84-2.922,2.467l-.729-.905C119.379,318.256,120.351,317.433,121.5,316.432Zm-4.925,3.843.471,1.062c-.848.375-1.344,1.158-1.657,2.627l-1.138-.241A4.435,4.435,0,0,1,116.578,320.275Zm-2.711,6.1,1.153.134a23.033,23.033,0,0,1-.679,3.825L113.229,330A22.3,22.3,0,0,0,113.867,326.373Zm.34,6.355c.073.958.241,2.168.517,3.695l-1.144.206c-.281-1.567-.455-2.815-.53-3.814Zm1.013,6.261c.195.957.4,1.944.616,2.945l.159.763-1.135.239-.163-.761c-.211-1-.421-2-.615-2.954Zm1.309,6.286c.3,1.463.52,2.652.706,3.745l-1.144.194c-.182-1.079-.406-2.258-.7-3.709Zm-.055,6.51,1.153-.142a27.736,27.736,0,0,1,.238,3.345c0,.18,0,.354-.009.526l-1.16-.04c.006-.157.008-.319.008-.485A26.339,26.339,0,0,0,116.473,351.786Zm.059,6.3,1.158.047c-.023.641-.038,1.309-.038,1.988,0,.569.009,1.146.027,1.761l-1.161.032c-.017-.627-.025-1.213-.025-1.793C116.491,359.43,116.505,358.745,116.532,358.089Zm1.259,6.4c.038.683.082,1.358.122,2.026.037.589.075,1.175.107,1.755l-1.158.065c-.032-.578-.07-1.158-.107-1.747-.042-.671-.084-1.351-.122-2.034Zm-.844,9.589c.031-.592.046-1.2.046-1.872,0-.421-.006-.842-.017-1.269l1.161-.029q.017.654.017,1.3c0,.687-.015,1.32-.047,1.936-.012.182-.014.374-.017.571l-1.16-.006Q116.933,374.385,116.947,374.081Zm1.294,3.19c.119,1.089.3,2.336.557,3.707l-1.143.209c-.256-1.4-.447-2.673-.566-3.791Zm1.068,6.263c.253,1.167.54,2.4.857,3.674l-1.127.281c-.319-1.282-.612-2.534-.865-3.711Z" transform="translate(-113.049 -261.556)" fill="#5b5b6c"/>
            </g>
          </g>
          <g id="Сгруппировать_337" data-name="Сгруппировать 337" transform="translate(29.49 43.961)">
            <path id="Контур_1312" data-name="Контур 1312" d="M167.135,286.545s-1.364.455-3.6,1.207l-.371-1.1,3.6-1.21Z" transform="translate(-124.401 -285.442)" fill="#5b5b6c"/>
            <path id="Контур_1313" data-name="Контур 1313" d="M168.439,288.429c1.282-.436,2.49-.842,3.584-1.213l.369,1.1c-1.091.368-2.3.777-3.582,1.212Z" transform="translate(-135.742 -285.17)" fill="#5b5b6c"/>
            <path id="Контур_1314" data-name="Контур 1314" d="M181.3,328.812l-.949.67-2.177-3.091.949-.67Z" transform="translate(-155.881 -279.27)" fill="#5b5b6c"/>
            <rect id="Прямоугольник_221" data-name="Прямоугольник 221" width="3.779" height="1.161" transform="translate(28.157 55.441) rotate(-125.118)" fill="#5b5b6c"/>
            <path id="Контур_1315" data-name="Контур 1315" d="M174.686,335.5c-.037.643-.055,1.287-.062,1.931l-1.386-1.969.949-.671Z" transform="translate(-143.57 -277.88)" fill="#5b5b6c"/>
            <path id="Контур_1316" data-name="Контур 1316" d="M173.694,290.217c1.225-.419,2.426-.825,3.581-1.219l.375,1.1c-1.156.392-2.357.8-3.578,1.219Z" transform="translate(-147.059 -284.897)" fill="#5b5b6c"/>
            <path id="Контур_1317" data-name="Контур 1317" d="M189.426,295.71c1.112-.4,2.308-.83,3.563-1.274l.386,1.094c-1.254.444-2.446.871-3.555,1.271Z" transform="translate(-180.928 -284.064)" fill="#5b5b6c"/>
            <path id="Контур_1318" data-name="Контур 1318" d="M178.946,292.023c1.192-.412,2.392-.825,3.578-1.231l.375,1.1c-1.184.407-2.38.819-3.573,1.231Z" transform="translate(-158.365 -284.622)" fill="#5b5b6c"/>
            <path id="Контур_1319" data-name="Контур 1319" d="M195.007,311.076l-.859.781c-.769-.848-1.665-1.831-2.53-2.815l.867-.767C193.347,309.251,194.242,310.232,195.007,311.076Z" transform="translate(-185.087 -281.943)" fill="#5b5b6c"/>
            <path id="Контур_1320" data-name="Контур 1320" d="M198.528,306.957l-.891.748c-.946-1.129-1.718-2.11-2.359-3.006l.943-.677C196.844,304.893,197.6,305.853,198.528,306.957Z" transform="translate(-192.828 -282.595)" fill="#5b5b6c"/>
            <path id="Контур_1321" data-name="Контур 1321" d="M194.641,297.688c.848-.345,2.044-.806,3.553-1.367l.4,1.091c-1.5.555-2.681,1.008-3.517,1.353Z" transform="translate(-192.163 -283.775)" fill="#5b5b6c"/>
            <path id="Контур_1322" data-name="Контур 1322" d="M198.619,299.137l1.094.386a1.681,1.681,0,0,0-.084.545,5.8,5.8,0,0,0,.859,2.562l-1.019.555a6.761,6.761,0,0,1-1-3.117A2.769,2.769,0,0,1,198.619,299.137Z" transform="translate(-198.468 -283.344)" fill="#5b5b6c"/>
            <path id="Контур_1323" data-name="Контур 1323" d="M184.5,324.277l-.949.67-2.177-3.091.949-.67Z" transform="translate(-162.763 -279.965)" fill="#5b5b6c"/>
            <path id="Контур_1324" data-name="Контур 1324" d="M191.286,315.23l-.882.751c-.654-.769-1.423-1.64-2.491-2.821l.863-.777C189.852,313.573,190.627,314.452,191.286,315.23Z" transform="translate(-177.093 -281.314)" fill="#5b5b6c"/>
            <path id="Контур_1325" data-name="Контур 1325" d="M185.846,317.119l1.849,2.624-.949.668-1.849-2.62c-.1-.149-.212-.3-.327-.453l.932-.693C185.622,316.805,185.736,316.962,185.846,317.119Z" transform="translate(-169.645 -280.661)" fill="#5b5b6c"/>
            <path id="Контур_1326" data-name="Контур 1326" d="M188.141,293.7c-1.213.421-2.409.836-3.569,1.244l-.383-1.1c1.16-.406,2.356-.825,3.569-1.244Z" transform="translate(-169.654 -284.345)" fill="#5b5b6c"/>
          </g>
        </g>
        <path id="Контур_1327" data-name="Контур 1327" d="M95.141,194.629c1.352,6.054,7.1,11.574,11.669,15.127h0a57.683,57.683,0,0,0,5.935,4.08l2.711-2.336,8.414-7.241,4.043,8.341c4.04,8.341,2.922,29.679,3.389,35.751.409,5.3-7.761,17.712-9.4,21.953a2.24,2.24,0,0,0-.255,1.288c.678,1.741,20.873,4.353,34.006,0s39.726,11.552,40.6,11.261,1.632-39.123,5.695-56.389-2.708-62.548-2.708-62.548l5.467-1.736,2.464-.781c7.16.389,4.882-8.028,4.882-8.028s-.238,8.513-4.591,6.3c-1.948-.993-1.864-6.774-1.173-12.861.844-7.459,2.595-15.376,2.62-15.5-.084.023-1.4.375-3.459.958-6.885,1.939-22.122,6.455-27.883,9.885-1.73,1.03-5.909,4.028-9.143,6.388-2.386,1.736-4.254,3.129-4.254,3.129-11.4,6.277-15.046,5.862-24.333,8.619-.407.122-.819.244-1.231.363-11.284,3.352-24.195,7.335-28.986,15.4-3.7,6.24-9.937,13.5-12.865,16.793C95.756,193.971,95.141,194.629,95.141,194.629Z" transform="translate(-15.084 -47.543)" fill="#ef4864"/>
        <path id="Контур_1328" data-name="Контур 1328" d="M97.149,162.181l2.464-.781c7.16.389,4.882-8.028,4.882-8.028s-.238,8.513-4.591,6.3c-1.948-.993-1.864-6.774-1.173-12.861.844-7.459,2.595-15.376,2.62-15.5-.084.023-1.4.375-3.459.958C96.171,139.218,93.082,154.6,97.149,162.181Z" transform="translate(92.473 -47.543)" fill="#2c2a40"/>
        <path id="Контур_1329" data-name="Контур 1329" d="M179.2,186.52c1.352,6.054,7.1,11.574,11.669,15.127h0a57.681,57.681,0,0,0,5.935,4.08l2.711-2.336c-9.206-6.229-15.724-14.061-18.256-19.161C180.262,185.353,179.2,186.52,179.2,186.52Z" transform="translate(-99.141 -39.434)" fill="#2c2a40"/>
        <path id="Контур_1330" data-name="Контур 1330" d="M132.6,157.587c1.818,4.839,4.577,9.2,18.772,5.771,15.985-3.866,7.245-16.089,7.245-16.089-2.385,1.736-2.647,1.955-2.647,1.955-11.4,6.277-11.7,4.931-20.986,7.689C134.575,157.033,133.009,157.468,132.6,157.587Z" transform="translate(-6.882 -45.097)" fill="#2c2a40"/>
        <path id="Контур_1331" data-name="Контур 1331" d="M163.324,201.34a57.686,57.686,0,0,0,5.935,4.08l11.125-9.578,4.043,8.341c4.04,8.341,2.922,29.68,3.389,35.751,7.972-18.961-5.982-53.7-5.982-53.7C177.806,194.062,163.565,201.166,163.324,201.34Z" transform="translate(-71.594 -39.127)" fill="#2c2a40" opacity="0.2"/>
        <path id="Контур_1332" data-name="Контур 1332" d="M95.172,269.533c.678,1.741,20.873,4.353,34.006,0s39.726,11.552,40.6,11.261,1.632-39.123,5.695-56.389-2.708-62.548-2.708-62.548l7.932-2.516c7.16.389,4.882-8.028,4.882-8.028s-.238,8.513-4.591,6.3c-1.948-.993-1.864-6.774-1.173-12.861,0,0-13.824,9.952-21.756,12.275,0,0,2.226,14.224,4.353,32.747s.772,31.261-3.483,44.223-13.763,25.383-26.954,26.738-26.036,10.582-36.546,7.514A2.24,2.24,0,0,0,95.172,269.533Z" transform="translate(11.392 -45.483)" fill="#2c2a40" opacity="0.2"/>
        <g id="Сгруппировать_339" data-name="Сгруппировать 339" transform="translate(94.791 44.125)">
          <path id="Контур_1333" data-name="Контур 1333" d="M141.669,121.782h0a6.672,6.672,0,0,0,.547.494l43.435,15.2s6.49-2.988,6.11-14.333a14.933,14.933,0,0,0-8.474-13.389,11.325,11.325,0,0,0,.946-1.086.785.785,0,0,0-.605-1.264,9.045,9.045,0,0,0-1.437.07,10.55,10.55,0,0,0,.236-1.568.788.788,0,0,0-1.2-.732,7.307,7.307,0,0,0-1.9,1.595l-.057-.058a24.231,24.231,0,0,0-15.826-7.11c-3.266-.187-7.246-.474-11.2-.911-7.6-.842-13.52.526-15.737-1.755C136.506,96.935,127.141,112.528,141.669,121.782Z" transform="translate(-133.536 -96.935)" fill="#fff"/>
          <path id="Контур_1334" data-name="Контур 1334" d="M174.94,116.086s-4.442,10.4,2.917,16.594C177.857,132.68,178.944,120.228,174.94,116.086Z" transform="translate(-165.964 -94.001)" fill="#f1f1f1"/>
          <path id="Контур_1335" data-name="Контур 1335" d="M135.348,162.939l.224.182a13.176,13.176,0,0,0,4.238,2.121c3.77,1.2,12.1-2.486,15.72-4.238a2.08,2.08,0,0,0,1.043-2.606,47.6,47.6,0,0,1-2.983-16.852,47.431,47.431,0,0,0-3.548-16.9c.9,4.157-.673,10.158-3.091,16.192A149.635,149.635,0,0,1,135.348,162.939Z" transform="translate(-100.552 -92.689)" fill="#f9b587"/>
          <path id="Контур_1336" data-name="Контур 1336" d="M144.372,138.415a15.684,15.684,0,0,0,2.829,9.09l5.752,8.205a8.686,8.686,0,0,0,9.563,3.35,29.391,29.391,0,0,0,13.405-7.9c7.562-8.27,4.172-22.122,4.172-22.122s-4.222-13.859-17.2-16.293-23.291,6.729-23.291,6.729l1.075,10.162a15.677,15.677,0,0,0,2.468,6.919Z" transform="translate(-129.609 -94.576)" fill="#f9b587"/>
          <path id="Контур_1337" data-name="Контур 1337" d="M155.773,124.56s4.972-8.02,10.912-3.372l-.452,1.677s-5.542-2.843-9.585,3.423Z" transform="translate(-134.086 -93.441)" fill="#2c2a40"/>
          <path id="Контур_1338" data-name="Контур 1338" d="M165.568,135.927a15.53,15.53,0,0,0,.815,5.1c1.158-1.345,3.781-2.877,9.666-3.514,0,0-3.67-1.725-6.731-1.025a1.254,1.254,0,0,1-1.53-1.314l.412-5.636a3.655,3.655,0,0,0-2.264-.959,23,23,0,0,0-3.786.251,15.624,15.624,0,0,0,2.2,5.238Z" transform="translate(-150.805 -92.088)" fill="#f39568"/>
          <path id="Контур_1339" data-name="Контур 1339" d="M170.986,127.4a17,17,0,0,1,4.179-.21l.623,1.649a12.053,12.053,0,0,0-4.342.363,1.007,1.007,0,0,1-1.3-.7l0-.02A.968.968,0,0,1,170.986,127.4Z" transform="translate(-159.742 -92.306)" fill="#2c2a40"/>
          <path id="Контур_1340" data-name="Контур 1340" d="M154.051,142.143l15.2-5.327s.293,8.846-8.04,10.681C154.679,148.935,154.051,142.143,154.051,142.143Z" transform="translate(-134.671 -90.824)" fill="#fff"/>
          <path id="Контур_1341" data-name="Контур 1341" d="M142.638,154.846l.7,5.97c.1.1.214.2.337.3l.224.182c2.238-1.025,11.6-5.712,12.531-12.593a18.12,18.12,0,0,0-1.153-9.687,10.921,10.921,0,0,0-1.415-2.492C151.995,151.256,142.638,154.846,142.638,154.846Z" transform="translate(-108.877 -90.868)" fill="#f39568"/>
          <path id="Контур_1342" data-name="Контур 1342" d="M135.452,126.376s1.549-6.319,6.451-4.863,5.674,14.806-1.129,13.952S135.452,126.376,135.452,126.376Z" transform="translate(-89.537 -93.202)" fill="#f9b587"/>
          <path id="Контур_1343" data-name="Контур 1343" d="M141.922,112.6s2.866.3,3.212,3.922.964,9.794,5.63,9.664,5.12,5.538,5.12,5.538l3.337-.806s.33-10.076-1.892-13.508S145.746,109.024,141.922,112.6Z" transform="translate(-110.666 -94.725)" fill="#f1f1f1"/>
          <path id="Контур_1344" data-name="Контур 1344" d="M164.3,126.426a4.424,4.424,0,0,0-4.8-1.1,4.365,4.365,0,0,0-3.021,4.347S158.269,125.2,164.3,126.426Z" transform="translate(-132.507 -92.623)" fill="#2c2a40"/>
          <path id="Контур_1345" data-name="Контур 1345" d="M172.918,131.175a2.97,2.97,0,0,0-2.458-.186c-1.319.512-.838,2.234-.838,2.234S169.927,131.006,172.918,131.175Z" transform="translate(-156.192 -91.746)" fill="#2c2a40"/>
        </g>
        <g id="Сгруппировать_341" data-name="Сгруппировать 341" transform="translate(0 79.318)">
          <g id="Сгруппировать_340" data-name="Сгруппировать 340" transform="translate(0 0)">
            <rect id="Прямоугольник_222" data-name="Прямоугольник 222" width="63.077" height="41.767" transform="translate(75.635 37.494) rotate(147.711)" fill="#899b03"/>
            <path id="Контур_1346" data-name="Контур 1346" d="M200.652,159.051l22.312,35.309,53.322-33.695-2.307-.163-72.378-5.11-.64,2.464v0Z" transform="translate(-200.652 -123.17)" fill="#899b03"/>
            <path id="Контур_1347" data-name="Контур 1347" d="M233.4,157.856l21.337,33.866,1.616-1.022,14.61-33.753-36.923-1.556Z" transform="translate(-233.088 -123.17)" fill="#fff"/>
            <rect id="Прямоугольник_223" data-name="Прямоугольник 223" width="60.32" height="41.767" transform="translate(74.254 35.308) rotate(147.711)" fill="#c9e025"/>
          </g>
          <path id="Контур_1348" data-name="Контур 1348" d="M232.259,144.276l.007-.009a3.833,3.833,0,0,1,2.366-1.823c.007-.8.778-1.543,1.736-1.957a2.677,2.677,0,0,1,1.767-.1c.272-.973,1.31-1.734,2.008-1.518,0,0,.166.032.45.1a2.111,2.111,0,0,1,.5-1.138h0a3.252,3.252,0,0,1,2.978-1.665s6.639,1.191,8.21,5.789,3.587,9.912,1.235,9.586a4.2,4.2,0,0,1-2.222-1.693c.829,2.785,1.135,4.931-.386,4.72-.845-.116-1.86-1.116-2.806-2.475.639,2.376.75,4.094-.619,3.9-1.234-.171-2.829-2.222-4.043-4.525.785,2.689,1.041,4.732-.445,4.525-1.82-.253-3.1-3.952-4.924-6.778-2.143-3.31-2.069-1.36-4.382-2.251L232,148.037A4.214,4.214,0,0,1,232.259,144.276Z" transform="translate(-214.729 -126.123)" fill="#f9b587"/>
        </g>
        <path id="Контур_1349" data-name="Контур 1349" d="M98.044,149.5s-1.841-15.322,4.51-16.57c12.335-2.422,26.032,15.843,33.455,34.836,11.174,28.587-1.734,50.051-1.734,50.051l-.23-10.949s1.015-23.8-10.015-42.628-18.719-23.9-20.316-22.6-1.674,4.949-1.674,4.949Z" transform="translate(53.689 -47.328)" fill="#c9e025"/>
        <path id="Контур_1350" data-name="Контур 1350" d="M183.338,157.6s-3.689-9.539-15.515-5.289c-10.343,3.719-9.274,14.745-7.678,29.257s15.65,50.4,15.65,50.4.6-12.644-1-20.19c0,0-9.674-31.905-6.192-44.531s11.246-8.6,11.246-8.6Z" transform="translate(-59.816 -44.492)" fill="#c9e025"/>
      </g>
      <ellipse id="Эллипс_1142" data-name="Эллипс 1142" cx="69.5" cy="5" rx="69.5" ry="5" transform="translate(44.368 429.424)" opacity="0.6"/>
    </g>
    <g id="logo" transform="matrix(0.966, -0.259, 0.259, 0.966, -1040.763, -6204.067)">
      <text id="CORP." transform="translate(552.462 6931.486) rotate(-90)" fill="#fff" font-size="6" font-family="GothamPro-Bold, Gotham Pro" font-weight="700" letter-spacing="-0.01em"><tspan x="0" y="0">CORP.</tspan></text>
      <g id="Сгруппировать_312" data-name="Сгруппировать 312" transform="translate(517.235 6912)">
        <path id="Контур_1" data-name="Контур 1" d="M4.785,4.351l4.154,0V12.92a3.116,3.116,0,0,1-.609,1.974,2.45,2.45,0,0,1-1.974.67A4.686,4.686,0,0,1,2.935,13.61C2.241,14.369.8,15.963.02,16.824a9.307,9.307,0,0,0,1.824,1.741,9.384,9.384,0,0,0,7.879.971,5.93,5.93,0,0,0,3.123-2.2,7.315,7.315,0,0,0,1.216-4.111L14.041.006,7,0,4.786,4.351Z" transform="translate(-0.02 0)" fill="#fafafa" fill-rule="evenodd"/>
        <path id="Контур_2" data-name="Контур 2" d="M603.586,7.391a5.415,5.415,0,0,0,1.332,3.758c1.973,2.109,4.787,2.281,7.076,3.653.567.34,1.078.976.7,1.654-.7,1.273-3.761.508-4.809.07a8.069,8.069,0,0,1-1.9-1.129c-.392.383-2.488,2.719-3.155,3.458a11.919,11.919,0,0,0,7.537,2.674,9.074,9.074,0,0,0,6.119-2.308,5.354,5.354,0,0,0,.589-6.915c-2-2.627-7.338-3.157-8.191-4.557-.464-.761.247-1.785,1.567-1.874a8.755,8.755,0,0,1,4.241,1.348c.41-.447,2.217-2.421,2.8-3.06a8.851,8.851,0,0,0-6.252-2.543c-3.521.04-7.377,1.879-7.65,5.77Z" transform="translate(-588.845 -1.582)" fill="#fafafa" fill-rule="evenodd"/>
      </g>
    </g>
  </g>
</svg>
