<svg xmlns="http://www.w3.org/2000/svg" width="101.32" height="88.604" viewBox="0 0 101.32 88.604">
    <g id="presentation" transform="translate(0)">
        <path id="Контур_19403" data-name="Контур 19403" d="M246.641,0H202.128A9.326,9.326,0,0,0,192.8,9.326V31.253l7.269,3.614L203.7,27.6a8.905,8.905,0,1,1,15.93,7.965l-6.472,12.948a13.522,13.522,0,0,1-.464,5.113h4.273L205.7,84.62a2.968,2.968,0,1,0,5.579,2.028l12.008-33.02h2.08l12.13,33.03a2.968,2.968,0,0,0,5.573-2.046L231.688,53.629h14.953a9.327,9.327,0,0,0,9.326-9.326V9.326A9.327,9.327,0,0,0,246.641,0Zm-6.36,40.912H226.963a2.968,2.968,0,1,1,0-5.937h13.318a2.968,2.968,0,1,1,0,5.937Zm0-11.129H226.963a2.968,2.968,0,1,1,0-5.937h13.318a2.968,2.968,0,1,1,0,5.937Zm0-11.128H208.488a2.968,2.968,0,0,1,0-5.937h31.793a2.968,2.968,0,1,1,0,5.937Zm0,0" transform="translate(-154.647)" fill="#fff"/>
        <path id="Контур_19404" data-name="Контур 19404" d="M52.228,76.418a7.675,7.675,0,0,0,.08-4.712l7.367-14.732a2.968,2.968,0,0,0-5.31-2.655L48.081,66.884c-3.755-1.87-9.461-4.707-14.057-6.993-4.276-2.127-7.328-4.034-12.535-4.034H18.866a12.931,12.931,0,1,0-9.415-4.068,12.9,12.9,0,0,0,9.415,4.068A18.96,18.96,0,0,0,5.53,61.381,18.716,18.716,0,0,0,0,74.724v9.538a9.343,9.343,0,0,0,6.359,8.843V109.7a2.968,2.968,0,0,0,2.968,2.968H28.4a2.968,2.968,0,0,0,2.968-2.968V76.346l9.5,4.752a8.131,8.131,0,0,0,11.341-4.644l.012-.035Zm0,0" transform="translate(0 -24.063)" fill="#fff"/>
    </g>
</svg>
