<svg xmlns="http://www.w3.org/2000/svg" xmlns:xlink="http://www.w3.org/1999/xlink" width="82" height="82" viewBox="0 0 82 82">
  <defs>
    <filter id="Прямоугольник_1844" x="0" y="0" width="82" height="82" filterUnits="userSpaceOnUse">
      <feOffset dy="3" input="SourceAlpha"/>
      <feGaussianBlur stdDeviation="3" result="blur"/>
      <feFlood flood-opacity="0.161"/>
      <feComposite operator="in" in2="blur"/>
      <feComposite in="SourceGraphic"/>
    </filter>
    <filter id="Контур_18482" x="18.391" y="20.045" width="46.156" height="32.292" filterUnits="userSpaceOnUse">
      <feOffset dy="3" input="SourceAlpha"/>
      <feGaussianBlur stdDeviation="3" result="blur-2"/>
      <feFlood flood-opacity="0.4"/>
      <feComposite operator="in" in2="blur-2"/>
      <feComposite in="SourceGraphic"/>
    </filter>
    <filter id="Контур_18483" x="37.494" y="21.618" width="28.624" height="38.697" filterUnits="userSpaceOnUse">
      <feOffset dy="3" input="SourceAlpha"/>
      <feGaussianBlur stdDeviation="3" result="blur-3"/>
      <feFlood flood-opacity="0.4"/>
      <feComposite operator="in" in2="blur-3"/>
      <feComposite in="SourceGraphic"/>
    </filter>
    <filter id="Контур_18484" x="16.818" y="21.617" width="28.624" height="38.697" filterUnits="userSpaceOnUse">
      <feOffset dy="3" input="SourceAlpha"/>
      <feGaussianBlur stdDeviation="3" result="blur-4"/>
      <feFlood flood-opacity="0.4"/>
      <feComposite operator="in" in2="blur-4"/>
      <feComposite in="SourceGraphic"/>
    </filter>
    <filter id="Контур_18485" x="18.39" y="33.263" width="46.156" height="28.624" filterUnits="userSpaceOnUse">
      <feOffset dy="3" input="SourceAlpha"/>
      <feGaussianBlur stdDeviation="3" result="blur-5"/>
      <feFlood flood-opacity="0.4"/>
      <feComposite operator="in" in2="blur-5"/>
      <feComposite in="SourceGraphic"/>
    </filter>
  </defs>
  <g id="Сгруппировать_4738" data-name="Сгруппировать 4738" transform="translate(-63 -1712)">
    <g transform="matrix(1, 0, 0, 1, 63, 1712)" filter="url(#Прямоугольник_1844)">
      <g id="Прямоугольник_1844-2" data-name="Прямоугольник 1844" transform="translate(9 6)" fill="#1c1f23" stroke="#fff" stroke-width="2">
        <rect width="64" height="64" rx="10" stroke="none"/>
        <rect x="1" y="1" width="62" height="62" rx="9" fill="none"/>
      </g>
    </g>
    <g id="email" transform="translate(88.818 1677.045)">
      <g id="Сгруппировать_601" data-name="Сгруппировать 601" transform="translate(1.572 61)">
        <g id="Сгруппировать_600" data-name="Сгруппировать 600" transform="translate(0 0)">
          <g transform="matrix(1, 0, 0, 1, -27.39, -26.04)" filter="url(#Контур_18482)">
            <path id="Контур_18482-2" data-name="Контур 18482" d="M52.7,61H26.9a2.719,2.719,0,0,0-1.179.276L39.737,75.292l3.142-3.019h0l11-11A2.719,2.719,0,0,0,52.7,61Z" transform="translate(1.67 -34.96)" fill="#fff"/>
          </g>
        </g>
      </g>
      <g id="Сгруппировать_603" data-name="Сгруппировать 603" transform="translate(20.676 62.573)">
        <g id="Сгруппировать_602" data-name="Сгруппировать 602" transform="translate(0 0)">
          <g transform="matrix(1, 0, 0, 1, -46.49, -27.62)" filter="url(#Контур_18483)">
            <path id="Контур_18483-2" data-name="Контур 18483" d="M348.562,86.728,338.213,97.076l10.348,10.348a2.719,2.719,0,0,0,.276-1.179V87.906A2.719,2.719,0,0,0,348.562,86.728Z" transform="translate(-291.72 -59.11)" fill="#fff"/>
          </g>
        </g>
      </g>
      <g id="Сгруппировать_605" data-name="Сгруппировать 605" transform="translate(0 62.572)">
        <g id="Сгруппировать_604" data-name="Сгруппировать 604" transform="translate(0 0)">
          <g transform="matrix(1, 0, 0, 1, -25.82, -27.62)" filter="url(#Контур_18484)">
            <path id="Контур_18484-2" data-name="Контур 18484" d="M.276,86.721A2.719,2.719,0,0,0,0,87.9v18.34a2.72,2.72,0,0,0,.275,1.178L10.624,97.07Z" transform="translate(25.82 -59.1)" fill="#fff"/>
          </g>
        </g>
      </g>
      <g id="Сгруппировать_607" data-name="Сгруппировать 607" transform="translate(1.572 74.218)">
        <g id="Сгруппировать_606" data-name="Сгруппировать 606">
          <g transform="matrix(1, 0, 0, 1, -27.39, -39.26)" filter="url(#Контур_18485)">
            <path id="Контур_18485-2" data-name="Контур 18485" d="M43.521,277.211l-3.142,3.02a.917.917,0,0,1-1.3,0l-3.02-3.02L25.714,287.559a2.719,2.719,0,0,0,1.179.276h25.8a2.719,2.719,0,0,0,1.179-.276Z" transform="translate(1.68 -237.95)" fill="#fff"/>
          </g>
        </g>
      </g>
    </g>
  </g>
</svg>
