<svg id="user" xmlns="http://www.w3.org/2000/svg" width="11.566" height="11.566" viewBox="0 0 11.566 11.566">
  <g id="Сгруппировать_65" data-name="Сгруппировать 65" transform="translate(0 7.436)">
    <g id="Сгруппировать_64" data-name="Сгруппировать 64" transform="translate(0)">
      <path id="Контур_41" data-name="Контур 41" d="M9.325,307.807l-1.759-.586a.413.413,0,0,0-.131-.022h-3.3a.412.412,0,0,0-.131.022l-1.759.586A3.274,3.274,0,0,0,0,310.917a.413.413,0,0,0,.413.413h10.74a.413.413,0,0,0,.413-.413A3.274,3.274,0,0,0,9.325,307.807Z" transform="translate(0 -307.199)" fill="#fff"/>
    </g>
  </g>
  <g id="Сгруппировать_67" data-name="Сгруппировать 67" transform="translate(3.305)">
    <g id="Сгруппировать_66" data-name="Сгруппировать 66">
      <path id="Контур_42" data-name="Контур 42" d="M139.012,0a2.479,2.479,0,0,0-2.479,2.479V4.131a2.479,2.479,0,0,0,4.957,0V2.479A2.479,2.479,0,0,0,139.012,0Z" transform="translate(-136.533)" fill="#fff"/>
    </g>
  </g>
</svg>
