<svg xmlns="http://www.w3.org/2000/svg" width="39.058" height="38.429" viewBox="0 0 39.058 38.429">
  <g id="wordpress-" transform="translate(0 0)">
    <path id="Контур_18440" data-name="Контур 18440" d="M36.638,10.265A19.343,19.343,0,0,0,16.82.356C1.758,2.471-6.178,21.548,5.849,33.273,20.4,47.456,47.248,30.989,36.638,10.265ZM15.406,37.519C7.627,36.194,1.049,28.1.894,19.822.7,9.489,7.867,2.675,16.469,1.415,28.507-.351,39.361,8.438,37.7,21.946,36.346,33.027,26.022,39.329,15.406,37.519ZM11.868,10.974c-.478.587-2.01.118-2.479.707,1.931,5.853,3.644,11.929,6.017,17.341,2.264-5.861,4.761-11.575,1.061-17.341-.593-.589-2.587.226-2.479-1.063,1.581-.634,8.679-.634,10.263,0,0,1.175-2,.36-2.477,1.063C23.73,17.394,25.3,23.5,27.79,28.67c.665-4.288,2.934-5.836,2.831-10.267-.112-5.048-6.442-9.474-.354-11.681C24.339.362,8.44,2.309,5.849,10.265,8.212,10.773,11.407,9.2,11.868,10.974Zm15.924,22.3c6.442-2.365,10.937-14.073,6.015-21.24C33.913,19.832,29.711,26.319,27.792,33.273Zm-15.924.707A223.277,223.277,0,0,0,4.079,12.744C.679,21.584,5.026,31.111,11.868,33.98Zm2.827,1.061c2.345,1.227,7.485.851,9.909,0-1.546-4.824-2.721-10.017-5.308-13.8A135.833,135.833,0,0,1,14.695,35.041Z" transform="translate(0 -0.156)" fill="#fff"/>
  </g>
</svg>
