<svg xmlns="http://www.w3.org/2000/svg" xmlns:xlink="http://www.w3.org/1999/xlink" width="55.327" height="55.326" viewBox="0 0 55.327 55.326">
  <defs>
    <clipPath id="clip-path">
      <rect id="Прямоугольник_1559" data-name="Прямоугольник 1559" width="55.327" height="55.327" fill="none"/>
    </clipPath>
  </defs>
  <g id="Сгруппировать_3170" data-name="Сгруппировать 3170" clip-path="url(#clip-path)">
    <path id="Контур_20154" data-name="Контур 20154" d="M55.342,27.851h0a27.4,27.4,0,1,1-54.8,0h0a27.4,27.4,0,0,1,54.8,0m-.345,0h0a27.063,27.063,0,0,0-54.126,0h0a27.059,27.059,0,1,0,54.118,0" transform="translate(-0.152 -0.126)" fill="#24272d"/>
    <path id="Контур_20155" data-name="Контур 20155" d="M24.24,19.45h0" transform="translate(-6.802 -5.458)" fill="#24272d"/>
    <path id="Контур_20156" data-name="Контур 20156" d="M34.06,60.5h0" transform="translate(-9.558 -16.978)" fill="#24272d"/>
    <path id="Контур_20157" data-name="Контур 20157" d="M29.28,59.16h0" transform="translate(-8.217 -16.602)" fill="#24272d"/>
    <path id="Контур_20158" data-name="Контур 20158" d="M34.39,61.19h0" transform="translate(-9.651 -17.172)" fill="#24272d"/>
    <path id="Контур_20159" data-name="Контур 20159" d="M31.17,61h0" transform="translate(-8.747 -17.118)" fill="#24272d"/>
    <path id="Контур_20160" data-name="Контур 20160" d="M22.48,50.62h0" transform="translate(-6.308 -14.205)" fill="#24272d"/>
    <path id="Контур_20161" data-name="Контур 20161" d="M27.65,56.7h0" transform="translate(-7.759 -15.912)" fill="#24272d"/>
    <path id="Контур_20162" data-name="Контур 20162" d="M33.45,60.807h.007V60.8h0l-.007.007" transform="translate(-9.387 -17.062)" fill="#24272d"/>
    <path id="Контур_20163" data-name="Контур 20163" d="M27.17,56.3h0" transform="translate(-7.625 -15.799)" fill="#24272d"/>
    <path id="Контур_20164" data-name="Контур 20164" d="M20.6,49.2Z" transform="translate(-5.781 -13.807)" fill="#24272d"/>
    <path id="Контур_20165" data-name="Контур 20165" d="M26.28,54h0" transform="translate(-7.375 -15.154)" fill="#24272d"/>
    <path id="Контур_20166" data-name="Контур 20166" d="M23.08,50.62h0" transform="translate(-6.477 -14.205)" fill="#24272d"/>
    <path id="Контур_20167" data-name="Контур 20167" d="M19.02,42.32l.014.007h0Z" transform="translate(-5.338 -11.876)" fill="#24272d"/>
    <path id="Контур_20168" data-name="Контур 20168" d="M44.19,60.994l.036.036h.036a.2.2,0,0,0-.036-.05H44.19" transform="translate(-12.401 -17.113)" fill="#24272d"/>
    <path id="Контур_20169" data-name="Контур 20169" d="M45.45,59.7h.007l-.007-.007V59.7" transform="translate(-12.754 -16.751)" fill="#24272d"/>
    <path id="Контур_20170" data-name="Контур 20170" d="M52.1,19.08h.036" transform="translate(-14.621 -5.354)" fill="#24272d"/>
    <path id="Контур_20171" data-name="Контур 20171" d="M35.56,61.37h0" transform="translate(-9.979 -17.222)" fill="#24272d"/>
    <path id="Контур_20172" data-name="Контур 20172" d="M37.1,60.38h0" transform="translate(-10.411 -16.944)" fill="#24272d"/>
    <path id="Контур_20173" data-name="Контур 20173" d="M38.76,62.92h0" transform="translate(-10.877 -17.657)" fill="#24272d"/>
    <path id="Контур_20174" data-name="Контур 20174" d="M49.975,18H49.91Z" transform="translate(-14.006 -5.051)" fill="#24272d"/>
    <path id="Контур_20175" data-name="Контур 20175" d="M43.13,61.32h0" transform="translate(-12.103 -17.208)" fill="#24272d"/>
    <path id="Контур_20176" data-name="Контур 20176" d="M21,45.65h-.086a3.817,3.817,0,0,0-.777,2.69.568.568,0,0,1,.194,0l.122-.115-.194-.561Z" transform="translate(-5.646 -12.811)" fill="#24272d"/>
    <path id="Контур_20177" data-name="Контур 20177" d="M21.447,48.79l-.345.151-.309.223-.194-.05h0a.439.439,0,0,0,.036.245c.036.058.144.036.194,0,.194-.165.417-.4.619-.54Z" transform="translate(-5.779 -13.692)" fill="#24272d"/>
    <path id="Контур_20178" data-name="Контур 20178" d="M22.161,50.087l-.086-1.367h-.122l-.173.065h.137a6.215,6.215,0,0,0,.144,1.633l.223-.309Z" transform="translate(-6.112 -13.672)" fill="#24272d"/>
    <path id="Контур_20179" data-name="Контур 20179" d="M22.7,50.55l-.216.05c0,.317-.058.424.129.432s.151-.352.295-.432Z" transform="translate(-6.308 -14.186)" fill="#24272d"/>
    <path id="Контур_20180" data-name="Контур 20180" d="M20.494,26.781l.036-.482-.036-.993-.05-1.561.058-.719.554-1.331.719-.921.655-.6.482-.3.194-.338a3.46,3.46,0,0,0-1.633,1.2,4.057,4.057,0,0,0-.935,1.439c-.072.468-.518.827-.331,1.295v1.87c0,.4.381,1.165.108,1.331-.072.417-.137.827-.194,1.245h.388V26.781Z" transform="translate(-5.646 -5.481)" fill="#24272d"/>
    <path id="Контур_20181" data-name="Контур 20181" d="M53.6,20.453l.36.619h0l.072.05A4.5,4.5,0,0,0,52.09,19.05l.518.324Z" transform="translate(-14.618 -5.346)" fill="#24272d"/>
    <path id="Контур_20182" data-name="Контур 20182" d="M49.806,17.91a.439.439,0,0,0-.266-.23h0Z" transform="translate(-13.902 -4.961)" fill="#24272d"/>
    <path id="Контур_20183" data-name="Контур 20183" d="M20.9,45.647l-.295.058-.453.432H20.07c0,.2,0,.446.165.41.36-.05.36-.676.655-.906h0Z" transform="translate(-5.632 -12.808)" fill="#24272d"/>
    <path id="Контур_20184" data-name="Контур 20184" d="M23.974,17.479l-.086-.108h.1l.9.209.626-.194.41-.482.345-.317.827-.122,1.3-.108.065-.834s1.115-.187,1.18-.187,1.834.381,1.834.381l1.834-1.245.223.655,1.022.122.719-.237.237-.64,1.439,1.194.777-.194,1.18-.345.194.273H40.11l.453.719,1.036.6h.619a1.094,1.094,0,0,0-.295-.295.266.266,0,0,0-.1,0c-.784,0-.8-.4-.957-.432.173-.863.173-.863.108-1.022H40.8a3.956,3.956,0,0,0-1.719.158V14.76a1.187,1.187,0,0,1-.259.05l-.41.1c-.122.036-.259.072-.5.158-.4.281-.4.281-.575.309A2.935,2.935,0,0,0,35.254,14a1.439,1.439,0,0,1-.05.194v.072c0,.4,0,.4-.072.446-.158-.05-.417-.173-.719-.281-.273.108-.525.23-.719.281-.05-.05-.05-.05-.072-.446a2.1,2.1,0,0,1-.072-.273,2.935,2.935,0,0,0-2.115,1.388c-.194,0-.194,0-.59-.309a3.453,3.453,0,0,0-.777-.223l-.381-.086v.273a4.259,4.259,0,0,0-1.892-.144c-.065.158-.065.158.108,1.022-.173.036-.173.036-1.057-.05a1.346,1.346,0,0,1-.237.108c-.863.381-1.439.453-1.8,1.388l-.518-.072-.36-.05h-.259a.23.23,0,0,0-.072.108.813.813,0,0,1,.108.05c.094.108.18.23.266.345h0Z" transform="translate(-6.623 -3.926)" fill="#24272d"/>
    <path id="Контур_20185" data-name="Контур 20185" d="M24.169,19.21a.194.194,0,0,0,.05.173l-.043-.158h0" transform="translate(-6.781 -5.391)" fill="#24272d"/>
    <path id="Контур_20186" data-name="Контур 20186" d="M51.23,18.583l.245.173h0c0-.036.072-.079.05-.1l.309-.036V18.46l-1.3-.295L50,18l.115.094Z" transform="translate(-14.031 -5.051)" fill="#24272d"/>
    <path id="Контур_20187" data-name="Контур 20187" d="M56.13,26.911l.137.878h0A4.869,4.869,0,0,0,55.9,25.12h0Z" transform="translate(-15.687 -7.049)" fill="#24272d"/>
    <path id="Контур_20188" data-name="Контур 20188" d="M19.165,42.416,19,42.33c.072.158.3.2.525.252h0Z" transform="translate(-5.332 -11.879)" fill="#24272d"/>
    <path id="Контур_20189" data-name="Контур 20189" d="M19.764,45.305l.309-1.338-.2-.482-.072-.719-.1-.036h0c-.05.223-.086.453-.122.719.108.108.281.158.345.468-.295.719-.54.921-.245,1.748l.2-.281h0Z" transform="translate(-5.485 -11.991)" fill="#24272d"/>
    <path id="Контур_20190" data-name="Контур 20190" d="M20.64,31.19h0v.2H20.8Z" transform="translate(-5.792 -8.753)" fill="#24272d"/>
    <path id="Контур_20191" data-name="Контур 20191" d="M18.678,39.224l-.173-.209s.173-2.669.259-2.741-.108-.662-.108-.662l-.41-.87.209-.849.482-.935,1.144-1.388-.05-.05h0c-.468.64-1.007.719-1.511,1.647-.576,1.439-.719,1.129,0,2.6a22.056,22.056,0,0,0-.158,3.367l.367.18h0Z" transform="translate(-5.061 -8.845)" fill="#24272d"/>
    <path id="Контур_20192" data-name="Контур 20192" d="M55.152,22.6l.281.971.187.676h0c-.1-.719.065-.8,0-1.28a2.777,2.777,0,0,0-.719-.95h0v.043Z" transform="translate(-15.406 -6.179)" fill="#24272d"/>
    <path id="Контур_20193" data-name="Контур 20193" d="M44.295,60.484l-.065.173v.036l-.194-.058L44,60.549h0c.043.144.1.281.194.194a.274.274,0,0,0,.086-.108,2.208,2.208,0,0,1,.324-.446c.086-.086.173-.187.259-.259a3.022,3.022,0,0,0,.209-.23h-.209Z" transform="translate(-12.348 -16.753)" fill="#24272d"/>
    <path id="Контур_20194" data-name="Контур 20194" d="M34.187,60.53H34.05l.043.59a.72.72,0,0,1,.194-.094l-.043-.094Z" transform="translate(-9.555 -16.986)" fill="#24272d"/>
    <path id="Контур_20195" data-name="Контур 20195" d="M35.117,61.286h-.59l-.137-.036c0,.086,0,.158.1.173.324.079.432-.058.719-.05l-.05-.043h-.043" transform="translate(-9.651 -17.188)" fill="#24272d"/>
    <path id="Контур_20196" data-name="Контур 20196" d="M35.57,61.38c0,.079.072.158.115.23l.223-.086h0Z" transform="translate(-9.982 -17.225)" fill="#24272d"/>
    <path id="Контур_20197" data-name="Контур 20197" d="M33.64,60.655l-.18.058a.719.719,0,0,0,.2.173c.144.058.065-.158.223-.4h0Z" transform="translate(-9.39 -16.975)" fill="#24272d"/>
    <path id="Контур_20198" data-name="Контур 20198" d="M30.778,60.385,30.3,58.81H30.21a5.957,5.957,0,0,0,.59,1.8l.086-.194h0Z" transform="translate(-8.478 -16.504)" fill="#24272d"/>
    <path id="Контур_20199" data-name="Контур 20199" d="M32.414,59.68H32.32l.223.266c.173.194.331.4.5.6l.1-.086h-.1Z" transform="translate(-9.07 -16.748)" fill="#24272d"/>
    <path id="Контур_20200" data-name="Контур 20200" d="M36.719,60.35l-.259.8-.245.122L36,61.235h0c0,.072,0,.158.072.173a.59.59,0,0,0,.5-.194c.122-.144.086-.367.122-.54l.065-.295h0Z" transform="translate(-10.103 -16.936)" fill="#24272d"/>
    <path id="Контур_20201" data-name="Контур 20201" d="M31.909,59.68l-.647.95H31.19a.719.719,0,0,0,.209.281c.223.158.424-.849.6-1.216h0Z" transform="translate(-8.753 -16.748)" fill="#24272d"/>
    <path id="Контур_20202" data-name="Контур 20202" d="M54.876,32.384c-.54-1.022-1.144-1.007-1.633-1.856H53.9c-.065-.417-.137-.827-.194-1.245a1.065,1.065,0,0,1-.345-.453h0v.187l-.3.921-.863.885.676,1.633.906,1.748.1.921.489,2.065-.331.719-.309.209-.317,1.122-1.115,1.784.568,1.3-1.245,1.331L50.9,44.908l-1.288,1-.87,1.46-1.079,1.957-1.216.5L46,50.936l-.489.1a11.292,11.292,0,0,1,.54,1.144,4.173,4.173,0,0,0,.554-2.05.633.633,0,0,1,.417.23,1.69,1.69,0,0,0,.417.381c.237-.36.432-.64.6-.921a4.554,4.554,0,0,0,.4-.813,4.71,4.71,0,0,0,.137-.482c.173,0,.173,0,.453.173a5.546,5.546,0,0,0,.273-.8c.108-.41.151-.784.223-1.216l.54.295a2.388,2.388,0,0,1,.719-1.216c.309.813.309.813.417.9.194-.719.4-1.5.576-2.252,0-.036,0-.036.317-.036l.151.223.158.223c.072-.158.072-.158.144-1.633.655.058.719,0,1.108.417a.468.468,0,0,1,.194,0c.122-1.331-.223-1.676-.827-2.806a2.485,2.485,0,0,1,.432,0c.23.317.453.611.662.921.295-.82.065-.993-.23-1.748.05-.309.223-.36.345-.468a5.958,5.958,0,0,0-.137-.719l.95-.453a25.578,25.578,0,0,0-.173-3.367c.719-1.475.611-1.129,0-2.6" transform="translate(-12.771 -8.09)" fill="#24272d"/>
    <path id="Контур_20203" data-name="Контур 20203" d="M43.629,60.47H43.5a1.129,1.129,0,0,0,.309.345h0Z" transform="translate(-12.207 -16.969)" fill="#24272d"/>
    <path id="Контур_20204" data-name="Контур 20204" d="M29.926,58.71l-.554.317H29.3a1.857,1.857,0,0,0,.187.173c.165.129.331-.194.482-.446h0Z" transform="translate(-8.222 -16.476)" fill="#24272d"/>
    <path id="Контур_20205" data-name="Контур 20205" d="M37.678,61.109l-.281-.281-.187-.4-.1-.043a1.137,1.137,0,0,0,.3.547c.345-.072.54,1.439.784,1.316a.178.178,0,0,0,.108-.036l-.129-.05Z" transform="translate(-10.414 -16.947)" fill="#24272d"/>
    <path id="Контур_20206" data-name="Контур 20206" d="M43.392,60.424h-.065l-.036.468V61H43.14a.813.813,0,0,1,.259.129,3.99,3.99,0,0,1,0-.719h0Z" transform="translate(-12.106 -16.953)" fill="#24272d"/>
    <path id="Контур_20207" data-name="Контур 20207" d="M42.495,61.27h-.23l-.568.122-.1.194h-.173l-.223-.108h0c.036.173.331.209.489.194s.065-.259.158-.281a1.583,1.583,0,0,1,.719-.1h-.043Z" transform="translate(-11.562 -17.194)" fill="#24272d"/>
    <path id="Контур_20208" data-name="Контур 20208" d="M40,60.48l-.54.626-.295.568-.295.59H38.78c.05.079.108.137.165.137.194,0,.345-.5.518-.9a.849.849,0,0,1,.281-.4.755.755,0,0,0,.353-.575h0Z" transform="translate(-10.883 -16.972)" fill="#24272d"/>
    <path id="Контур_20209" data-name="Контур 20209" d="M40.965,61.165l-.273-.655H40.62l.137.662.281.108h0Z" transform="translate(-11.399 -16.981)" fill="#24272d"/>
    <path id="Контур_20210" data-name="Контур 20210" d="M27.18,56.31a.755.755,0,0,0,.137.216c.094.094.158.094.2.065l-.165-.115Z" transform="translate(-7.627 -15.802)" fill="#24272d"/>
    <path id="Контур_20211" data-name="Контур 20211" d="M23.831,52.468h-.072l-.525-1.8H23.09c.18.719.374,1.439.561,2.158.072-.058.1-.079.194-.309h0Z" transform="translate(-6.48 -14.219)" fill="#24272d"/>
    <path id="Контур_20212" data-name="Контур 20212" d="M25.482,53.535l-.065-.036-.532-.849H24.77a3.482,3.482,0,0,1,.489.993l.223-.122h0Z" transform="translate(-6.951 -14.775)" fill="#24272d"/>
    <path id="Контур_20213" data-name="Контур 20213" d="M28.463,58.051l-.676-1.331H27.7a2.589,2.589,0,0,0,.086.281,8.7,8.7,0,0,0,.935,1.575.525.525,0,0,0,.115-.086h-.108Z" transform="translate(-7.773 -15.917)" fill="#24272d"/>
    <path id="Контур_20214" data-name="Контур 20214" d="M24.593,52.656l-.122-.036-.259.367H24.14a2.921,2.921,0,0,0,.151.417c.144.331,0-.144.187-.561a.612.612,0,0,1,.122-.223Z" transform="translate(-6.774 -14.767)" fill="#24272d"/>
    <path id="Контур_20215" data-name="Контур 20215" d="M25.849,53.88H25.77a.719.719,0,0,0,.108.23c.108.122.187,0,.259-.129h-.079Z" transform="translate(-7.232 -15.12)" fill="#24272d"/>
    <path id="Контур_20216" data-name="Контур 20216" d="M26.8,55.6,26.376,54H26.29a6.518,6.518,0,0,0,.446,1.734l.187-.108h0Z" transform="translate(-7.378 -15.154)" fill="#24272d"/>
    <path id="Контур_20217" data-name="Контур 20217" d="M49.748,17.919h.094l-.252-.209a.913.913,0,0,0,.18.223" transform="translate(-13.916 -4.97)" fill="#24272d"/>
    <path id="Контур_20218" data-name="Контур 20218" d="M36.338,60.912l-.288.108.18.036.245-.122.259-.791h.072c-.165-.583-.1-1.072-.475.719" transform="translate(-10.117 -16.728)" fill="#24272d"/>
    <path id="Контур_20219" data-name="Контур 20219" d="M20.8,49.147l.3-.194.345-.122h0c-.446.036-.568.036-.849.288h0Z" transform="translate(-5.781 -13.703)" fill="#24272d"/>
    <path id="Контур_20220" data-name="Контур 20220" d="M20.547,48.013c0-.957.4-1.316.863-2.324,0-.058-.259-.115-.4-.05h.072l-.719,1.993.194.561h0v-.18" transform="translate(-5.714 -12.799)" fill="#24272d"/>
    <path id="Контур_20221" data-name="Контур 20221" d="M24.3,19.378l-.122-.158.043.158h.065" transform="translate(-6.786 -5.394)" fill="#24272d"/>
    <path id="Контур_20222" data-name="Контур 20222" d="M35.119,61.263a2.075,2.075,0,0,0-.719-.079h0l.137.036Z" transform="translate(-9.654 -17.165)" fill="#24272d"/>
    <path id="Контур_20223" data-name="Контур 20223" d="M35.523,61.32H35.48l.05.043h0" transform="translate(-9.957 -17.208)" fill="#24272d"/>
    <path id="Контур_20224" data-name="Контур 20224" d="M26.1,53.639l-.324.173h.072l.209.072h.079L26.1,53.61" transform="translate(-7.235 -15.044)" fill="#24272d"/>
    <path id="Контур_20225" data-name="Контур 20225" d="M35.891,61.406a1.324,1.324,0,0,0-.281-.036h0l.338.144c0-.05,0-.1-.058-.108" transform="translate(-9.993 -17.222)" fill="#24272d"/>
    <path id="Контур_20226" data-name="Контур 20226" d="M34.341,60.151a.8.8,0,0,0-.281.245H34.2l.058.381.05.094h0c0-.3.245-.863.036-.719" transform="translate(-9.558 -16.873)" fill="#24272d"/>
    <path id="Контур_20227" data-name="Контур 20227" d="M39.406,45.8l1.216-.5,1.122-1.942.87-1.439L43.9,40.9l.719-1.252,1.216-1.367-.568-1.3,1.122-1.784.317-1.122.309-.209.331-.719-.489-2.065-.079-.885-.87-1.748-.676-1.633.827-.885.259-.906v-.187h0a.194.194,0,0,1-.309.072c-.417-.273.158-1.352-.237-1.122a2.726,2.726,0,0,1-.59.245c-.971.273-1.252-.518-.971-.561a3.928,3.928,0,0,0,.971-.259c.1-.05.086-.1,0-.122-.266-.122-1.245-.173-1.216-.295.381-1.525.82-1.921,1.216-1.748a2.093,2.093,0,0,1,.763,1.115h0l-.187-.676-.281-.971-.3-.575h0c.05.137.05.187,0,.122a3.942,3.942,0,0,0-2.964-1.381,6.359,6.359,0,0,0-.856.036l-.4.065c-.827.158-1.2.345-.6-.237a5.411,5.411,0,0,1,.6-.5c.137-.072.273-.158.4-.223a2.338,2.338,0,0,1,.856-.223,2.158,2.158,0,0,1,.957.187h0l-.245-.173-1.129-.453-.05-.122h0a.36.36,0,0,1,0,.108c0,.173-.223,0-.331-.072s0,0-.036,0c-.237-.209-.129-.3,0-.281h-.611l-1.036-.6-.453-.719H38.269l-.194-.273-1.18.345-.777.194L34.68,14.53l-.23.64-.719.237-1.022-.122-.223-.655-1.834,1.245s-1.784-.381-1.834-.381-1.18.187-1.18.187l-.065.834-1.3.108-.82.122-.345.317-.41.482-.626.194-.9-.209h-.1l.086.108.036.252a.2.2,0,0,1,.065-.094c.065-.05.144,0,.245.05.23.144.482.518.158.453a.489.489,0,0,1-.158-.05.561.561,0,0,1-.252-.158h0l-.209.374-.468.36-.655.6-.719.921-.554,1.331-.065.719.05,1.561.036,1-.036.482v1.115l.158-.978c.281-.158-.108-1.079-.108-1.352V22.306c-.187-.453.259-.827.331-1.266a4.1,4.1,0,0,1,.935-1.439v.1a3.64,3.64,0,0,0,1.316-.317,1.993,1.993,0,0,0,.223-.072,3.921,3.921,0,0,1,2.309-.209c1.928.6.626,3.935,3.05,2.7a.41.41,0,0,1,.4.1.223.223,0,0,1,0,.36h-.036c-.367.345-1.072,1.892-1.374,2.273s-.4-.158-.417.036c-.036,1.007.834,1.439,1.834,1.719a12.317,12.317,0,0,1,2.568.719c.259.194.317.4.518.95.237.676-.108,5.273-.518,5.4s-.518.108-.576.4a2.4,2.4,0,0,0,.345.4,9.668,9.668,0,0,0,2.1.173h.691a6.956,6.956,0,0,0,1.547-.158c.259-.158.439-.813.662-.237s-.719,1.2-1.575,1.676a1.439,1.439,0,0,0-.64.719,4.755,4.755,0,0,0-.266,1.561c.079.043.158.1.245.144a7.661,7.661,0,0,0,2.475,1.108c-.065.158,0,.223-.209.259a7.806,7.806,0,0,1-1.439-.1H32.55c-1.611,0-1.633,1.043-1.712,1.439s.05.4.187.489.173,0,.295.173.209.532.331.719c.309.489,1.539.719,2.7.662,1.295-.05,2.511-.367,2.309-.914s0,0,.122-.158.518-.072.719.137a.475.475,0,0,0,.108.108c.1.072.151.036,0-.1l-.086-.072c-.317-.259-.6-1.266.05-.64a.179.179,0,0,1,0,.05,4.5,4.5,0,0,1,.4.468,2.253,2.253,0,0,1,.259.446.324.324,0,0,1,0,.309.18.18,0,0,1-.086.036.927.927,0,0,1-.173,0c-.173,0-.295-.05-.4,0a.209.209,0,0,0-.1.086c-.173.245-.086.5.1.784.108.173.259.367.4.568l.259.4a2.158,2.158,0,0,1,.295,1.079,10.552,10.552,0,0,0,0,1.539L38.464,47h0l.489-.1ZM26.313,17.523l-.525.036-.468.036a2.006,2.006,0,0,1-.058-.331h.525l.525.036ZM41.42,34.457a2,2,0,0,1-.086.273,1.151,1.151,0,0,0-.223.05.481.481,0,0,1-.086-.058c-.187-.151-.151-.309-.309-.345-.05-.626-.1-1.252-.137-1.856.151-.036.295-.072.446-.1l.158-.036a7.193,7.193,0,0,1,.237.993,2.878,2.878,0,0,1,0,1.072m.518-1.525c-.309.245-.453-.036-.518-.446a7.518,7.518,0,0,1-.036-1.23h.036c.036,0,.194.086.23,0s0-.719.281-.417a3.7,3.7,0,0,1,.345.576,3.064,3.064,0,0,0,.834,1.072c.086.065.108.281,0,.317-.317.1-.489-.259-.5-.072-.05.885-.173.611-.331.295M39.852,22.623h.137c.23,0,.518-.122.719,0s-.151.309-.05.417a1.611,1.611,0,0,0,.345.345h0c-.151,0-.331-.058-.453,0-.245.144.453,1.093.432,1.439a1.158,1.158,0,0,0,0,.482,1.223,1.223,0,0,0,.4.54,5.366,5.366,0,0,1,.64.719c-.072.367-.4.259.05.784v.137h-.122a3.036,3.036,0,0,1-.568-.446,4.839,4.839,0,0,1-.4-.482c-.345-.468-.6-.993-.95-1.489l-.072-.058a7.913,7.913,0,0,1-1.719-2.065,4.424,4.424,0,0,1-.259-.554,1.813,1.813,0,0,1-.122-.719h.173a.719.719,0,0,0,.209.345c.367.36,1.108.4,1.59.568m-2.252-6.474a1.439,1.439,0,0,1,.317,0,.183.183,0,0,1,.086-.173,1.611,1.611,0,0,1,.259-.173c.367-.194.914-.36.863-.187s-.345.662-.64.662a1.258,1.258,0,0,1-.223,0h-.187a.151.151,0,0,1-.072.223h0a.762.762,0,0,1-.381.058c-.273-.058-.317-.345,0-.4m-3.244,1.892a2.381,2.381,0,0,0-.4,1.2c-.209,5.079-4.316-1.978-.568-3.122a4.849,4.849,0,0,0,.87-.338.3.3,0,0,1,.1-.352c.187-.1.468,0,0,.295l-.1.058a.77.77,0,0,0,.1.216.583.583,0,0,0,.108.144c.367.468,2.985-1.108,2.259-.417A12.179,12.179,0,0,0,34.349,18m2.734,10.6c-.223.137-.453,1.144-.518.784a4.028,4.028,0,0,1,.144-1.978A1.734,1.734,0,0,1,37.6,27.1a2.28,2.28,0,0,1,.4-.036h.259a3.216,3.216,0,0,1,1.122.122c.453.194.36.482-.151.489-.331,0-.662.367-.971.64a2.058,2.058,0,0,1-.259.209.59.59,0,0,1-.194.1.835.835,0,0,1-.209.05c-.259.036-.345-.065-.518.05M38.708,41.73a.972.972,0,0,1-.065-.194h-.137c-.137-.54-.187-.777-.245-.971a2.97,2.97,0,0,0-.223-.482H38c-.036,0-.086.036-.086,0-.05-.194-.453-1.245.086-.834l.036.036a.856.856,0,0,1,.223.295c.345.64.719,1.957.446,2.158" transform="translate(-5.775 -4.078)" fill="#24272d"/>
    <path id="Контур_20228" data-name="Контур 20228" d="M56.267,27.8l-.137-.878L55.9,25.15c0,.6.158,1.2.158,1.813a1.949,1.949,0,0,0,.209.842" transform="translate(-15.687 -7.058)" fill="#24272d"/>
    <path id="Контур_20229" data-name="Контур 20229" d="M22.843,50.466c0-.036,0-.036-.309-.036l-.094.129h0l.216-.05.209.05h0v-.1" transform="translate(-6.297 -14.152)" fill="#24272d"/>
    <path id="Контур_20230" data-name="Контур 20230" d="M44.776,16.891h.072a.18.18,0,0,0-.072-.065l-.086-.036h0a.129.129,0,0,0,.086.086" transform="translate(-12.541 -4.712)" fill="#24272d"/>
    <path id="Контур_20231" data-name="Контур 20231" d="M39.154,61.435l.295-.568.54-.626h.094c-.309-1.439-.122.043-.633.482-.295-.05-.482,1.036-.719,1.273h.094Z" transform="translate(-10.869 -16.733)" fill="#24272d"/>
    <path id="Контур_20232" data-name="Контур 20232" d="M37.693,60.9c-.583-.252-.353-1.7-.583-.669h0l.1.043.187.4.281.281L38.167,62l.129.05h0c-.2-.309-.36-1.043-.611-1.158" transform="translate(-10.414 -16.798)" fill="#24272d"/>
    <path id="Контур_20233" data-name="Контур 20233" d="M52,19.1s.576.295.54.324c-.137.158.367.525.655.763a2.244,2.244,0,0,1,.611.834l.115.086h0l-.36-.611-.986-1.072-.518-.324h0" transform="translate(-14.593 -5.36)" fill="#24272d"/>
    <path id="Контур_20234" data-name="Контур 20234" d="M44.846,59.41h0l-.259.317-.4.482-.194.237.058.058.173.086v-.036l.065-.173.54-.763h.209a.489.489,0,0,0-.194-.209m-.669,1.144h0a.2.2,0,0,1,.036.05Z" transform="translate(-12.345 -16.672)" fill="#24272d"/>
    <path id="Контур_20235" data-name="Контур 20235" d="M22.269,48.85c-.043-.352-.245-.295-.489-.108l.173-.065h.122l.086,1.367h.122a5.035,5.035,0,0,0,0-1.2" transform="translate(-6.112 -13.637)" fill="#24272d"/>
    <path id="Контур_20236" data-name="Контур 20236" d="M38.432,47l-.072.043h.719Z" transform="translate(-10.765 -13.189)" fill="#24272d"/>
    <path id="Контур_20237" data-name="Контур 20237" d="M32.536,59.6a.339.339,0,0,0-.086-.065c-.043,0-.086,0-.129.122h.094l.626.8h.1c-.223-.252-.345-.64-.6-.842" transform="translate(-9.07 -16.709)" fill="#24272d"/>
    <path id="Контур_20238" data-name="Контур 20238" d="M32.616,34.957a1.3,1.3,0,0,0,.259.676.794.794,0,0,0,.281-.086,1.137,1.137,0,0,0-.906-1.5,1.7,1.7,0,0,0-.95,0,7.541,7.541,0,0,0,.95.662l.367.259" transform="translate(-8.784 -9.535)" fill="#24272d"/>
    <path id="Контур_20239" data-name="Контур 20239" d="M34.929,41.384a.676.676,0,0,0,.187.683h.058l.05-.777a.611.611,0,0,1,0-.1c-.108-.115-.209-.129-.317.158" transform="translate(-9.794 -11.537)" fill="#24272d"/>
    <path id="Контур_20240" data-name="Контур 20240" d="M27.436,56.209a.432.432,0,0,0-.266.065h0l.18.165.165.115h0a1.884,1.884,0,0,0-.108-.345" transform="translate(-7.625 -15.773)" fill="#24272d"/>
    <path id="Контур_20241" data-name="Контур 20241" d="M23.739,52.413h.072c-.151-.5-.3-1.237-.424-1.784,0-.072,0-.158-.317-.065h.144Z" transform="translate(-6.474 -14.178)" fill="#24272d"/>
    <path id="Контур_20242" data-name="Контур 20242" d="M29.906,58.631l.043.05a1.144,1.144,0,0,1,0-.252c-.288,0-.5.338-.719.518H29.3Z" transform="translate(-8.203 -16.397)" fill="#24272d"/>
    <path id="Контур_20243" data-name="Контур 20243" d="M27.916,56.3c-.086-.209-.1-.122-.122,0a.547.547,0,0,1-.094.245h.086l.676,1.331.273.4h.108a5.115,5.115,0,0,1-.928-1.971" transform="translate(-7.773 -15.764)" fill="#24272d"/>
    <path id="Контур_20244" data-name="Контур 20244" d="M19.547,42.582,19,42.33h0l.137.086Z" transform="translate(-5.332 -11.879)" fill="#24272d"/>
    <path id="Контур_20245" data-name="Контур 20245" d="M30.568,58.557c-.094-.223-.209-.072-.338.129h.086l.468,1.6.1.036h0c-.223-.5-.158-1.338-.338-1.719" transform="translate(-8.483 -16.402)" fill="#24272d"/>
    <path id="Контур_20246" data-name="Контур 20246" d="M31.907,59.593h.086l-.18-.223c-.187.058-.46.719-.633,1.144h.072Z" transform="translate(-8.75 -16.661)" fill="#24272d"/>
    <path id="Контур_20247" data-name="Контур 20247" d="M18.812,39.255c-.295-1.072.223-2.216.173-3.324,0-.295-.5-.935-.5-1.28a4.683,4.683,0,0,1,.482-1.316c.54-1.007,1.144-.993,1.626-1.834h-.482l.05.05-1.144,1.388-.482.935-.2.863.4.9s.209.59.108.662a27.024,27.024,0,0,0-.259,2.741l.173.209.065.065h0" transform="translate(-5.144 -8.84)" fill="#24272d"/>
    <path id="Контур_20248" data-name="Контур 20248" d="M40.62,60.3h.072l.273.647.072.108c-.446-1.662-.324-1.288-.417-.784" transform="translate(-11.399 -16.794)" fill="#24272d"/>
    <path id="Контур_20249" data-name="Контур 20249" d="M24.363,52.36l-.223.576h.072l.259-.367.122.036h0a1.049,1.049,0,0,0-.122-.137l-.108-.086" transform="translate(-6.774 -14.694)" fill="#24272d"/>
    <path id="Контур_20250" data-name="Контур 20250" d="M20.538,45.46l-.468.64h.086l.453-.432.295-.058h0l.058-.108a2.537,2.537,0,0,0-.432,0" transform="translate(-5.632 -12.757)" fill="#24272d"/>
    <path id="Контур_20251" data-name="Контур 20251" d="M24.874,52.5a.6.6,0,0,0-.094.1H24.9l.532.849.065.036h0c-.144-.475-.2-1.324-.619-.971" transform="translate(-6.954 -14.714)" fill="#24272d"/>
    <path id="Контур_20252" data-name="Контур 20252" d="M20.64,31.19l.115.2a2.288,2.288,0,0,0,.137-.2H20.64" transform="translate(-5.792 -8.753)" fill="#24272d"/>
    <path id="Контур_20253" data-name="Контур 20253" d="M20.036,43.553c-.151-.187.245-.482.122-.676a.6.6,0,0,0-.388-.187h0l.1.036.072.719.187.482-.309,1.338h.158v-.194c0-.87.676-.784.036-1.575" transform="translate(-5.548 -11.98)" fill="#24272d"/>
    <path id="Контур_20254" data-name="Контур 20254" d="M33.843,60a3.885,3.885,0,0,1-.4.561h0l.18-.058.245-.158h0V60" transform="translate(-9.384 -16.838)" fill="#24272d"/>
    <path id="Контур_20255" data-name="Контур 20255" d="M43.13,60.935h.151v-.108l.036-.468h.065L43.195,60a4.95,4.95,0,0,1-.058.921" transform="translate(-12.103 -16.838)" fill="#24272d"/>
    <path id="Контур_20256" data-name="Контур 20256" d="M43.565,60.166a.511.511,0,0,0-.065.173h.129l.209.295-.05-.173c0-.086-.122-.468-.223-.324" transform="translate(-12.207 -16.867)" fill="#24272d"/>
    <path id="Контур_20257" data-name="Контур 20257" d="M35.558,43.313a5.036,5.036,0,0,1-1.388-.993c-.18-.1-.719-.381-.791-.288s.36.324.489.554a1.388,1.388,0,0,1,.158,1.158,12.274,12.274,0,0,0-1.7-.432,1.439,1.439,0,0,0-.8,0,4.238,4.238,0,0,0,.8.381c.5.23,1.036.518.784.655a1.626,1.626,0,0,1-.784,0,1.812,1.812,0,0,0-.554,0c-.108.086.345.273.554.446a.216.216,0,0,1,.108.158.194.194,0,0,1-.108.108c-.23.122-.719.072-.223.317l.223.151a20.416,20.416,0,0,0,1.957,1.266,21.821,21.821,0,0,0,2.158-1.137c-.036-1.676-.4-2.021-.885-2.316" transform="translate(-8.848 -11.79)" fill="#24272d"/>
    <path id="Контур_20258" data-name="Контур 20258" d="M26.578,53.763c-.115-.223-.194,0-.288.158h.094l.417,1.59.1.05h0c-.237-.518-.165-1.439-.345-1.8" transform="translate(-7.378 -15.061)" fill="#24272d"/>
    <path id="Контур_20259" data-name="Контур 20259" d="M41.584,61.282a3.06,3.06,0,0,1-.158.273l-.216-.086.216.108H41.6l.1-.194.568-.122h.281c-.309-.173-.432,0-.957,0" transform="translate(-11.565 -17.17)" fill="#24272d"/>
    <path id="Контур_20260" data-name="Контур 20260" d="M5.817,26l.086-.719a.95.95,0,0,0-.863-1.093.906.906,0,0,0-1.108.806L3.76,26.428l3.086.367.072-.64Zm-1.439-.173.065-.518c.05-.4.194-.54.489-.5a.432.432,0,0,1,.432.532l-.072.6ZM4.9,20.788l2.69-.273c.144.173.173.23.1.4a.669.669,0,0,1-.158.237l.5.209A1.849,1.849,0,0,0,8.22,21c.122-.281.122-.518-.245-.885L5.99,18.069l-.273.676L7.084,20l-1.921.122Zm5.165-7.244a1.259,1.259,0,0,0-1.683.439,1.439,1.439,0,0,0,.489,2.137,1.439,1.439,0,0,0,2.158-.187,1.288,1.288,0,0,0-.137-1.755l-.381.518a.719.719,0,0,1,.072.906c-.317.439-.87.331-1.331,0-.719-.5-.6-1.022-.417-1.266a.626.626,0,0,1,.856-.252Zm4.244-4.108a1.245,1.245,0,0,0-1.734,0,1.439,1.439,0,0,0-.036,2.158,1.439,1.439,0,0,0,2.158.331,1.273,1.273,0,0,0,.295-1.734l-.489.4a.719.719,0,0,1-.144.906c-.417.345-.921.1-1.28-.317-.568-.676-.345-1.144-.108-1.338a.647.647,0,0,1,.885,0Zm2.877-2.985-.575.281L17.96,9.509l.575-.281-.453-.95.137-.4,1.439.8.719-.36L18.406,7.257,19,5.574l-.763.36L17.73,7.6ZM23.09,4.293l-.367,3.273.633-.173.065-.676,1.122-.259.331.575.719-.158L23.816,4.113Zm.518.6h0l.719,1.093-.813.187ZM30.8,3.646,29.24,3.61a.957.957,0,0,0-.993.935.935.935,0,0,0,.719.9l-.842,1.223h.719l.719-1.194h.482V6.689H30.7Zm-.662,1.338H29.42c-.331,0-.5-.187-.489-.439s.122-.381.453-.381h.8Zm7.769.281-.59-.259L36.031,7.811,39.275,9.25l1.252-2.842-.576-.259L38.909,8.494l-.719-.331.993-2.331-.59-.259L37.563,7.926,36.844,7.6ZM44.146,8.8l-.518-.4-1.87,2.482.518.381.626-.834.432-.065-.05,1.662.662.5.036-2.273,1.77-.245-.662-.5L43.376,9.8Zm2.777,4.647a1.5,1.5,0,1,0,2.2.245,1.439,1.439,0,0,0-2.2-.245m.381.532c.719-.518,1.165-.245,1.374.036s.317.813-.4,1.331-1.158.23-1.367-.05-.317-.813.381-1.316m4.5,4.374L50.109,19c-.619.245-.834.259-.95,0a.835.835,0,0,1-.05-.187L48.656,19a1.741,1.741,0,0,0,.1.381c.23.568.784.554,1.539.245l1.216-.489.331.813-2.374.957.23.6,2.877-1.165Zm1.921,6.474L50.512,24.1l.072.676.662.137.137,1.129-.6.273.086.719L53.8,25.6Zm-.655.439h0l-1.165.568L51.8,25Z" transform="translate(-1.055 -1.013)" fill="#24272d"/>
    <path id="Контур_20261" data-name="Контур 20261" d="M9.638,51.43,8.2,53.718c-.223,0-.281,0-.367-.158a.532.532,0,0,1-.1-.281l-.482.273a1.9,1.9,0,0,0,.173.367c.144.259.331.4.849.345l2.877-.317-.367-.626-1.82.309,1.086-1.6Zm2.971,4.726L10.35,58.242l.446.468,1.885-1.748.827.885-1.885,1.748.446.482,2.266-2.115Zm3.359,5.755.59.439a.978.978,0,0,0,1.388-.223.906.906,0,0,0-.194-1.367l-1.144-.834-1.82,2.511.518.381Zm.849-1.165.417.309c.317.23.381.432.209.676a.432.432,0,0,1-.676.108l-.489-.353Zm5.036,2.079L19.63,65.249l.626.273.453-.5,1.043.439-.065.662.64.273.209-3.273Zm.065.784h0L21.832,64.9l-.763-.317Zm3.762,3.467L27,67.249c1.144.137,1.316-.5,1.352-.777a.719.719,0,0,0-.417-.834.633.633,0,0,0,.446-.59c.05-.317-.086-.813-.834-.906l-1.525-.187Zm.8-1.266.813.1a.383.383,0,0,1,.417.432.446.446,0,0,1-.554.4l-.777-.1Zm.151-1.194.719.086c.295.036.453.137.432.4s-.245.317-.5.281l-.719-.086Zm4.964-.381L31.817,66c.086.676.036.885-.245.921a.885.885,0,0,1-.194,0l.058.5a1.439,1.439,0,0,0,.4,0c.6-.072.719-.611.64-1.4l-.223-1.388.856-.108.324,2.547.64-.072-.381-3.079Zm4.813-.885,1.165,2.877,2.158-.885-.173-.554-1.583.64-.317-.8,1.381-.561-.194-.489-1.388.568-.245-.59,1.511-.59-.194-.5Zm5.287-2.518-.54.36,1.7,2.6.54-.345-.763-1.165,1.007-.662.763,1.165.54-.345L43.255,59.8l-.54.36.64.986-1.036.64Zm4.043-3.259-.417.489,2.338,2.029.453-.518-.834-2.41L48.945,58.6l.417-.489-2.338-2.029-.482.54.813,2.331Zm4.007-5.913L49.024,53.1a.928.928,0,0,0,1.525,1.043l.813,1.245.331-.719-.741-1.194.209-.432,1.079.532L52.52,53Zm.935,1.18-.331.662c-.144.309-.381.381-.6.273a.417.417,0,0,1-.158-.576l.36-.719Z" transform="translate(-2.035 -14.433)" fill="#24272d"/>
    <path id="Контур_20262" data-name="Контур 20262" d="M70.531,43.14a.971.971,0,1,1-.971.971.971.971,0,0,1,.971-.971" transform="translate(-19.52 -12.106)" fill="#24272d" fill-rule="evenodd"/>
    <path id="Контур_20263" data-name="Контур 20263" d="M5.954,43.09a.964.964,0,1,1-.964.964.964.964,0,0,1,.964-.964" transform="translate(-1.4 -12.092)" fill="#24272d" fill-rule="evenodd"/>
    <circle id="Эллипс_1283" data-name="Эллипс 1283" cx="20.315" cy="20.315" r="20.315" transform="translate(7.366 7.546)" fill="none" stroke="#24272d" stroke-miterlimit="10" stroke-width="1"/>
    <circle id="Эллипс_1284" data-name="Эллипс 1284" cx="27.466" cy="27.466" r="27.466" transform="translate(0.36 0.352)" fill="none" stroke="#24272d" stroke-miterlimit="10" stroke-width="1"/>
  </g>
</svg>
