<svg xmlns="http://www.w3.org/2000/svg" width="188.119" height="32.159" viewBox="0 0 188.119 32.159">
  <g id="Сгруппировать_882" data-name="Сгруппировать 882" transform="translate(22300 19388.001)">
    <path id="Контур_1061" data-name="Контур 1061" d="M639.54,270.1a7.127,7.127,0,0,0-5.314,2.142,7.455,7.455,0,0,0-2.114,5.369,7.049,7.049,0,0,0,2.285,5.426,8.359,8.359,0,0,0,5.914,2.085,13.339,13.339,0,0,0,5.4-1.228v-2.884a10.943,10.943,0,0,1-5.4,1.4c-2.371,0-4.628-1.028-5.114-3.77H646.31a7.591,7.591,0,0,0,.143-1.685,6.765,6.765,0,0,0-6.914-6.854Zm-.086,2.827a3.913,3.913,0,0,1,4.057,3.341h-8.285A4.054,4.054,0,0,1,639.454,272.926Z" transform="translate(-22852.313 -19647.941)" fill="#121621"/>
    <path id="Контур_1062" data-name="Контур 1062" d="M1025.844,271.183a6.392,6.392,0,0,0-4.343,1.742v-1.456h-2.97v14.279h2.97v-7.168c0-3.341,2.086-4.484,4.513-4.484a4.374,4.374,0,0,1,.543.057V271.24C1026.3,271.212,1025.986,271.183,1025.844,271.183Z" transform="translate(-23189.947 -19648.889)" fill="#121621"/>
    <path id="Контур_1063" data-name="Контур 1063" d="M792.819,280.193l5.314-6.968h-3.6L789.3,280.25l5.542,7.254h3.514l-5.6-7.282Z" transform="translate(-22989.66 -19650.672)" fill="#121621"/>
    <path id="Контур_1064" data-name="Контур 1064" d="M767.866,227.3H764.9V247.38h2.971Z" transform="translate(-22968.332 -19610.549)" fill="#121621"/>
    <path id="Контур_1065" data-name="Контур 1065" d="M357.811,236.066v-.771H348.5v2.827h6.2v4.169a11.93,11.93,0,0,1-4.4.828,7.3,7.3,0,0,1-5.314-2.085,7.533,7.533,0,0,1,0-10.224,8.383,8.383,0,0,1,6.085-2.085,12.342,12.342,0,0,1,5.8,1.4V226.87a14.174,14.174,0,0,0-5.8-1.228c-3.371.029-6.456,1.085-8.313,2.97a10.062,10.062,0,0,0-3,7.311,10.175,10.175,0,0,0,3,7.34,10.344,10.344,0,0,0,7.513,2.941,14.529,14.529,0,0,0,7.513-2.113v-8.025Z" transform="translate(-22596.863 -19609.098)" fill="#121621"/>
    <path id="Контур_1066" data-name="Контур 1066" d="M514.437,272.184a6.918,6.918,0,0,0-5.056-2.085,7.127,7.127,0,0,0-5.314,2.142,7.455,7.455,0,0,0-2.114,5.369,7.049,7.049,0,0,0,2.285,5.426,7.785,7.785,0,0,0,1.485,1.057,9.172,9.172,0,0,0,4.457,1.028,13.338,13.338,0,0,0,5.4-1.228v-2.884a9.958,9.958,0,0,1-1.114.543,10.812,10.812,0,0,1-4.285.828c-2.371,0-4.628-1.028-5.114-3.77h11.084a7.593,7.593,0,0,0,.143-1.685,6.713,6.713,0,0,0-1.771-4.655Q514.48,272.269,514.437,272.184Zm-1.114,4.084h-8.285a4.119,4.119,0,0,1,4.228-3.341A3.913,3.913,0,0,1,513.323,276.268Z" transform="translate(-22738.584 -19647.941)" fill="#121621"/>
    <path id="Контур_1067" data-name="Контур 1067" d="M1237.151,273.225h-2.971V287.5h2.971Z" transform="translate(-23378.375 -19650.672)" fill="#121621"/>
    <path id="Контур_1068" data-name="Контур 1068" d="M1232.895,223.907a1.743,1.743,0,0,0-1.342.543,2,2,0,0,0,0,2.741,1.786,1.786,0,0,0,1.342.542,1.748,1.748,0,0,0,1.343-.542,2.005,2.005,0,0,0,0-2.741A1.748,1.748,0,0,0,1232.895,223.907Z" transform="translate(-23375.604 -19607.58)" fill="#121621"/>
    <path id="Контур_1069" data-name="Контур 1069" d="M1413.414,281.162a3.414,3.414,0,0,0-.658-2.142c-.885-1.257-2.6-1.885-4.484-2.37a10.467,10.467,0,0,1-2.257-.742,1.293,1.293,0,0,1-.771-1.2h0c0-.971,1.2-1.428,2.656-1.428a10.029,10.029,0,0,1,4.857,1.2v-2.97a12.21,12.21,0,0,0-4.857-1,6.9,6.9,0,0,0-4.113,1.142,3.763,3.763,0,0,0-1.457,3.2c0,2.77,2.4,3.827,5.142,4.512a10.47,10.47,0,0,1,2.257.742,1.293,1.293,0,0,1,.771,1.2c0,1-1.058,1.485-2.8,1.485a15.118,15.118,0,0,1-5.171-.885v2.77a16.36,16.36,0,0,0,5.171.857,7.337,7.337,0,0,0,4.2-1.171,3.7,3.7,0,0,0,.886-.885A4.135,4.135,0,0,0,1413.414,281.162Z" transform="translate(-23525.295 -19648.301)" fill="#121621"/>
    <path id="Контур_1070" data-name="Контур 1070" d="M889.808,237.066a4.57,4.57,0,0,0,1.943-3.912,5.461,5.461,0,0,0-1.743-4.027,6.518,6.518,0,0,0-4.4-1.6h-8.456v20.048h9.17a6.642,6.642,0,0,0,4.514-1.628,5.453,5.453,0,0,0,1.743-4.112A5.3,5.3,0,0,0,889.808,237.066Zm-9.6-6.8h5.714a2.856,2.856,0,0,1,0,5.712H880.21Zm6.256,14.593H880.21v-6.169h6.256a3.086,3.086,0,0,1,0,6.169Z" transform="translate(-23066.418 -19610.744)" fill="#121621"/>
    <path id="Контур_1071" data-name="Контур 1071" d="M1290.559,273.022a3.23,3.23,0,0,1,2.8,1.228,4.147,4.147,0,0,1,.658,2.456v8.225h2.97v-8.339a6.4,6.4,0,0,0-1.428-4.369l-.057-.057a5.394,5.394,0,0,0-4.171-1.885,6.643,6.643,0,0,0-4.2,1.456v-1.085h-2.971V284.93h2.971v-8.225a3.86,3.86,0,0,1,.744-2.342,3.246,3.246,0,0,1,.856-.8A3.085,3.085,0,0,1,1290.559,273.022Z" transform="translate(-23422.045 -19648.1)" fill="#121621"/>
    <path id="Контур_1072" data-name="Контур 1072" d="M1099.568,272.022a7.051,7.051,0,0,0-4.8-1.742,7.141,7.141,0,0,0-5.257,2.171,7.047,7.047,0,0,0-1.028,1.257c-.058.086-.115.2-.172.286a7.367,7.367,0,0,0-.972,3.8,7.282,7.282,0,0,0,2.171,5.34,7.141,7.141,0,0,0,5.257,2.171,6.839,6.839,0,0,0,4.8-1.771v1.4h2.97V270.651h-2.97Zm-1.343,9.167a4.837,4.837,0,0,1-6.628,0,4.632,4.632,0,0,1-1.314-3.37,4.521,4.521,0,0,1,1.314-3.341,4.762,4.762,0,0,1,6.628,0,4.516,4.516,0,0,1,1.314,3.341A4.627,4.627,0,0,1,1098.225,281.189Z" transform="translate(-23250.07 -19648.1)" fill="#121621"/>
    <path id="Контур_1073" data-name="Контур 1073" d="M130.485,192.881a6.293,6.293,0,0,0-.932,3.721v2.248a3.215,3.215,0,0,0,.7,2.009l2.189,2.735a2.144,2.144,0,1,1-1.822,2.12,2.137,2.137,0,0,1,.147-.781l-2.189-2.735a5.359,5.359,0,0,1-1.175-3.348V196.6a8.371,8.371,0,0,1,1.347-4.989,4.8,4.8,0,0,1,4.015-1.979,6.435,6.435,0,0,1,5.954,3.99,5.9,5.9,0,0,1,4.233,5.657,6.273,6.273,0,0,1-.17,1.7,5.36,5.36,0,0,1,0,9.473,6.275,6.275,0,0,1,.17,1.695,5.9,5.9,0,0,1-4.233,5.657,6.443,6.443,0,0,1-7.964,3.67l.67-2.037a4.3,4.3,0,0,0,5.452-2.847l.189-.634.651-.116a3.754,3.754,0,0,0,3.091-3.694c0-.932-.072-1.273-.332-1.588a1.47,1.47,0,0,0-1.35-.536,2.275,2.275,0,0,0-1.494.84l-1.26,1.575a2.145,2.145,0,1,1-2-1.363,2.161,2.161,0,0,1,.323.024l1.261-1.575a4.418,4.418,0,0,1,2.941-1.633,3.635,3.635,0,0,1,2.685.762,3.217,3.217,0,0,0,0-5.875,3.635,3.635,0,0,1-2.685.762,4.418,4.418,0,0,1-2.941-1.633l-1.26-1.575a2.144,2.144,0,1,1,1.822-2.12,2.138,2.138,0,0,1-.147.781l1.26,1.575a2.274,2.274,0,0,0,1.494.84,1.47,1.47,0,0,0,1.35-.536c.259-.315.332-.656.332-1.588a3.754,3.754,0,0,0-3.091-3.694l-.651-.116-.189-.634a4.291,4.291,0,0,0-4.111-3.061A2.658,2.658,0,0,0,130.485,192.881Z" transform="translate(-22411.324 -19577.635)" fill="#121621"/>
    <path id="Контур_1074" data-name="Контур 1074" d="M9.261,212.437a2.145,2.145,0,1,0,2-1.363,2.161,2.161,0,0,0-.323.024l-1.26-1.575a4.418,4.418,0,0,0-2.941-1.633,3.635,3.635,0,0,0-2.685.762,3.217,3.217,0,0,1,0-5.875,3.635,3.635,0,0,0,2.685.762,4.418,4.418,0,0,0,2.941-1.633l1.261-1.575a2.142,2.142,0,1,0-1.675-1.339L8,200.566a2.275,2.275,0,0,1-1.494.84,1.47,1.47,0,0,1-1.35-.536c-.259-.315-.332-.656-.332-1.588a3.754,3.754,0,0,1,3.091-3.694l.651-.116.189-.634a4.3,4.3,0,0,1,5.452-2.847l.67-2.037a6.442,6.442,0,0,0-7.964,3.67,5.9,5.9,0,0,0-4.233,5.657,6.276,6.276,0,0,0,.17,1.695,5.36,5.36,0,0,0,0,9.473,6.274,6.274,0,0,0-.17,1.695A5.9,5.9,0,0,0,6.914,217.8a6.435,6.435,0,0,0,5.954,3.99,4.8,4.8,0,0,0,4.015-1.979,8.371,8.371,0,0,0,1.347-4.989v-2.248a5.359,5.359,0,0,0-1.175-3.348l-2.189-2.735a2.145,2.145,0,1,0-2,1.363,2.163,2.163,0,0,0,.323-.024l2.189,2.735a3.216,3.216,0,0,1,.7,2.009v2.248a6.293,6.293,0,0,1-.932,3.721,2.658,2.658,0,0,1-2.285,1.1,4.291,4.291,0,0,1-4.111-3.061l-.189-.634-.651-.116a3.753,3.753,0,0,1-3.091-3.694c0-.932.072-1.273.332-1.588a1.47,1.47,0,0,1,1.35-.536,2.274,2.274,0,0,1,1.494.84Z" transform="translate(-22300 -19577.635)" fill="#121621"/>
  </g>
</svg>
