<?xml version="1.0" encoding="utf-8"?>
<!-- Generator: Adobe Illustrator 24.3.0, SVG Export Plug-In . SVG Version: 6.00 Build 0)  -->
<svg version="1.1" id="Layer_1" xmlns="http://www.w3.org/2000/svg" xmlns:xlink="http://www.w3.org/1999/xlink" x="0px" y="0px"
	 viewBox="0 0 1408 596" style="enable-background:new 0 0 1408 596;" xml:space="preserve">
<style type="text/css">
	.st0{fill:#E0E6EE;}
	.st1{fill:#202745;}
	.st2{fill:#637298;}
	.st3{fill:#8FA0BD;}
	.st4{fill:#F5F8FA;}
	.st5{fill:#F4F7F9;}
	.st6{fill:#DFE5ED;}
	.st7{fill:#8E9FBC;}
	.st8{fill:#8E9EBC;}
	.st9{fill:#434E71;}
	.st10{fill:#4F5F86;}
	.st11{fill:#51628A;}
	.st12{fill:#52638A;}
	.st13{fill:#747C9E;}
	.st14{fill:#212846;}
</style>
<g>
	<g>
		<path class="st0" d="M59,320.26c11.63,13.58,25.94,23.53,42.09,30.96c5.69,2.62,11.57,4.7,18.52,6.47
			c-33.52-33.51-38.63-74.19-34.27-118.3c2.63,1.66,1.47,3.85,2.07,5.44c0.67,1.77,0.92,3.71,1.31,5.58
			c5.32,25.24,14.07,49.02,29.84,69.77c3.81,5.01,8.17,9.58,13.14,13.49c0.15,0.12,0.65-0.2,0.98-0.31c0.96-0.1,1.54,0.53,2.04,1.18
			c8.87,11.48,15.29,23.81,14.72,38.94c-0.34,9.08-0.02,18.19-0.08,27.29c-0.04,5.39-1.14,6.03-5.72,3.34
			c-12.41-7.27-23.66-16.14-34.46-24.84c5.67,8.41,11.67,17.17,18.49,25.35c5.83,6.99,11.7,13.93,18.81,19.68
			c1.69,1.37,2.79,3.02,2.84,5.27c0.36,15.44,8.05,27.46,17.96,38.41c4.17,4.61,8.91,8.61,13.89,12.34c1.24,0.93,3.04,1.6,2.77,3.72
			c-7.48-2.95-13.81-7.79-20.23-12.43c-14.62-10.54-28.21-22.31-40.5-35.49c-15.67-16.81-29.2-35.2-40.23-55.42
			c-9.43-17.28-16.93-35.33-22.35-54.25c-0.37-1.28-0.51-2.72-1.62-3.7C59,321.91,59,321.08,59,320.26z"/>
		<path class="st1" d="M183.94,484.03c-7.79-6.32-15.75-12.48-21.91-20.53c-7.81-10.21-13.95-21.11-13.66-34.52
			c0.05-2.27-1.63-3-2.91-4.12c-15.91-13.9-27.88-30.96-39.05-48.72c13.39,10.35,26.56,20.95,41.98,29.47
			c-0.41-15.08,0.99-29.64-1.03-44.1c-1.53-11.01-8.52-19.42-14.68-28.16c-15.68-25-25.27-51.9-25.95-81.71
			c-0.46-20.03,2.45-39.44,9.7-58.11c0.94-2.42-0.19-3.57-1.24-5.11c-9.18-13.48-12.28-27.75-5.67-43.28
			c0.1-0.23,0.3-0.42,0.79-1.09c2.79,12.57,11.39,18.56,23.01,21.75c-5.71-27.01-9.01-53.09,14.6-74.01
			c-5.03,13.49-2.16,24.32,10.18,32.53c-1.12-20.5,4.27-31.86,18.97-39.85c-4.6,20.21-0.08,37.21,17.21,50.81
			c-7.45-23.8-7.31-45.5,11-64.73c3.95,17.2,10.05,32.45,25.84,42.2c0.45-7.81,0.53-15.1,2.47-22.17c1.14-4.15,2.76-8.07,5.77-11.25
			c1.6-1.7,2.5-1.98,3.43,0.87c5.28,16.3,13.5,30.95,25.37,43.41c4.56,4.78,9.56,9.05,15.69,12.73c-0.89-8.57-0.79-16.69,0.11-24.85
			c3.05-27.61,22.65-50.34,49.45-57.28c2.82-0.73,3.41,0.96,4.21,2.63c3.63,7.61,4.48,15.8,4.79,24.08
			c0.13,3.51,0.02,7.02,0.02,10.98c6.26-7.56,10.41-15.85,12.42-25.9c11.11,9.14,19.01,19.97,23.47,33.3
			c4.44,13.27,4.15,26.74,1.48,40.86c21.35-9.79,40.33-21.5,51.73-42.44c3.39-6.23,5.5-12.93,5.64-20.05
			c0.07-3.5,1.05-3.69,3.69-2.04c15.1,9.45,23.16,23.06,24.25,40.81c0.09,1.5,0.01,3.01,0.01,5.04c15.04-5.5,27.05-14.06,35.2-28.36
			c10.81,19.25,16.97,38.5,6.95,60.39c12.32-4.5,20.91-12.01,25.42-24.62c2.53,6.22,3.69,12.22,4.39,18.36
			c1.73,15.1-2.53,29.43-5.48,43.94c-0.16,0.8-0.22,1.63-0.32,2.44c-4.3,2.19-8.35,0.44-12.32-0.99
			c-7.14-2.57-12.26-7.78-16.86-13.54c-5.26-6.59-8.89-14.26-13.78-21.1c-0.95-1.33-1.71-2.81-2.97-3.91
			c-1.38,0.55-1.19,1.86-1.59,2.8c-1.68,3.98-3.68,7.72-7.07,10.54c-1.43,1.19-2.98,3.36-4.87,1.94c-1.48-1.1,0.11-3.05,0.74-4.51
			c2.47-5.78,3.14-11.63,1.18-17.72c-1.13-3.48-3.33-5.59-6.92-6.32c-9.61-1.94-18.57-0.27-27.07,4.56
			c-7.24,4.11-13.93,9.01-19.91,14.7c-14.59,13.86-28.76,28.13-39.94,45.04c-2.06,3.12-3.82,6.39-4.99,9.94
			c-0.32,0.97-1.29,2.18-0.2,3.03c0.96,0.76,2.09-0.16,3.07-0.58c4.9-2.09,8.78-5.63,12.77-9.02c1.24-1.05,2.55-3.54,4.24-1.93
			c1.46,1.39-0.43,3.29-1.5,4.65c-4.62,5.88-9.63,11.32-16.57,14.62c-3.05,1.45-3.07,3.11-0.21,4.94c2.8,1.79,5.98,2,9.18,1.73
			c6.07-0.52,11.37-3.13,16.42-6.34c10.62-6.76,19.85-15.28,29.53-23.23c1.81-1.49,3.67-2.91,5.48-4.4
			c8.56-7.07,17.96-7.67,27.9-3.49c8.52,3.58,16.21,8.82,24.72,12.44c1.8,0.77,2.56,2.3,2.85,4.23c1.73,11.68,0.3,23.35-0.01,35.03
			c-0.06,2.18-1.17,3.59-3.22,4.33c-1.3,0.47-2.59,0.93-3.91,1.35c-14.5,4.63-23.12,13.93-23.61,29.69
			c0.04,1.48-0.18,2.99,0.05,3.75c-0.25-0.3,0.01-1.41-0.05-2.47c0.48-7.17,5.68-11.22,10.66-14.96c8.08-6.06,17.41-9.34,27.62-9.69
			c5.22-0.18,5.96-0.85,6.05-6.02c0.16-9.32-2.25-18.26-4.11-27.28c-0.67-3.23-1.61-6.4-2.38-9.62c-1.6-6.65-0.35-8.05,6.69-7.59
			c1.2,0.9,1.53,2.26,1.79,3.61c2.31,11.76,4.08,23.59,4.36,35.59c0.1,4.29-0.69,8.5-2.05,12.58c-1.37,4.12-4.15,6.7-8.48,7.57
			c-19.84,3.99-32.85,20.91-33.27,42.14c-0.06,3.17-0.09,6.34,0.02,9.5c0.11,3.49,0.87,3.87,3.96,2.04c2.26-1.33,4.28-3,6.33-4.62
			c0.43-0.34,0.8-0.76,1.25-1.08c1.7-1.2,3.59-3.99,5.42-2.29c1.73,1.6-0.6,3.99-1.71,5.79c-2.82,4.59-6.07,8.87-10.05,12.52
			c-2.1,1.93-3.12,4.16-2.26,7.01c0.56,1.95,0.12,4.96,1.92,5.58c2.06,0.72,3.74-1.82,5.31-3.25c9.99-9.04,18.14-19.54,24.83-31.23
			c1.12-1.96,1.49-4.86,4.58-5.2c1.13,1.81,0.18,3.48-0.46,5.08c-6.41,16.07-15.3,30.63-27.24,43.17c-2.7,2.83-3.6,5.27-1.58,8.62
			c2.39,6.29,1.83,6.62,6.98,1.51c14.67-14.54,26.77-31.01,36.59-49.14c3.47-6.41,6.03-13.26,8.21-20.24
			c3.37-13.13,5.07-26.45,4.23-39.99c-1.08-17.29-2.91-34.48-8.6-51.01c-0.45-1.3-1.01-2.56-0.79-3.99c1.11-2.42,2.39-4.62,5.66-4
			c5.51,14.72,9.5,29.8,11.01,45.5c2.36,24.62,0.05,48.55-10.22,71.35c-0.44,0.98-0.77,2.01-1.15,3.02c0.58,1.81-0.49,3.2-1.27,4.62
			c-4.3,7.86-9.08,15.42-14.51,22.55c-2.67,3.51-5.12,7.17-7.62,10.8c-5.69,8.26-9.41,17.03-8.36,27.41
			c0.45,4.48,0.05,9.05,0.1,14.04c2.58-0.74,4.44-2.13,6.29-3.38c11.65-7.88,22.94-16.22,32.39-26.76c0.46-0.51,0.88-1.06,1.43-1.48
			c0.55-0.41,1.17-0.87,1.83-0.32c0.44,0.37,0.41,0.99,0.3,1.55c-0.16,0.82-0.57,1.54-0.96,2.27
			c-9.93,18.81-22.77,35.39-38.32,49.86c-2.11,1.96-3.19,3.96-3.01,6.81c0.14,2.19-0.09,4.41,0.05,6.61
			c1.04,16.85-6.61,29.63-18.81,40.28c-0.93,0.81-1.84,1.66-2.83,2.41c-28.27,22.5-58.29,42.24-91.23,57.3
			c-5.11,2.34-10.48,4.08-15.66,6.27c-9.71,4.09-19.93,3.48-30.1,3.38c-5.85-0.06-11.91,1.07-17.13-2.85
			c-0.79-0.6-1.51-0.15-2.32,0.08c-18.52,5.21-36.73,3.59-54.68-2.69c-24.28-8.5-45.5-22.47-66.2-37.33
			C194.87,491.89,189.41,487.96,183.94,484.03z"/>
		<path class="st0" d="M506.3,208.7c-6.91,1.43-6.77,1.4-5.16,8.12c2.88,11.99,6.34,23.9,6.24,36.41c-0.05,6.09-0.59,6.45-6.53,6.67
			c-12.68,0.48-23.87,4.7-32.93,13.82c-2.74,2.76-4.85,5.96-5.43,9.95c-1.61,0.6-0.72-1.21-1.42-1.48
			c-0.25-14.4,7.26-24.61,22.2-30.18c8.07-3.01,8.04-3.01,8.48-11.61c0.48-9.49,0.63-18.97-0.14-28.45c-0.1-1.28,0.43-2.73-1.47-3.4
			c-7.55-2.65-14.2-7.12-21.28-10.73c-11.92-6.08-22.92-6.15-33.46,3.31c-8.28,7.43-17.04,14.36-25.88,21.14
			c-7.19,5.51-14.7,10.71-24.22,11.46c-3.95,0.31-7.73-0.25-10.81-2.93c-2.82-2.45-2.52-4.07,0.82-5.52
			c8.81-3.81,14.73-10.6,19.05-19.15c-1.26,1.22-2.49,2.47-3.78,3.65c-1.32,1.21-2.67,2.38-4.06,3.5
			c-3.43,2.79-7.15,5.09-11.41,6.42c-0.77,0.24-1.59,0.82-2.3,0.2c-0.73-0.64-0.24-1.55-0.01-2.3c1.22-3.94,2.74-7.8,5.08-11.2
			c15.94-23.2,34.72-43.71,57.92-59.85c7.21-5.01,15.27-7.96,24.32-7.78c14.31,0.28,16.99,7.15,15.39,20.47
			c-0.42,3.47-2.1,6.68-4.14,10.5c8.11-4.16,11.17-10.79,12.92-18.71c4.19,4.39,6.92,9.16,9.8,13.81
			c4.27,6.89,8.24,14.02,14.26,19.62c6.45,6,13.87,9.72,22.96,9.18c0.01,0.29,0.01,0.59,0.02,0.88c-2.26,0.19-3.11,2.46-4.89,3.35
			c-1.12,2.46-3.48,3.46-5.57,4.79c-2.43,1.64-4.9,3.22-7.57,4.45C511,207.82,508.91,209.43,506.3,208.7z"/>
		<path class="st0" d="M477.65,471.66c3.45-3.92,7.25-7.5,10.46-11.65c7.54-9.77,11.48-20.55,9.95-33.02
			c-0.68-5.53,0.39-9.78,5.09-13.99c14.89-13.31,26.46-29.39,36.02-46.91c0.64-1.18,1.21-2.39,1.65-3.74
			c-12.24,13.67-26.83,24.29-43.05,34.19c0.98-11.93-1.75-23.32,2.88-34.16c2.56-5.98,6.28-11.27,10.08-16.48
			c7.37-10.09,14.6-20.27,20.21-31.49c2.29-0.8,3.15-3.01,4.34-4.74c15.24-21.96,23.75-46.57,28.27-72.72
			c0.23-1.35,0.51-2.64,2.07-4.74c1.99,20.74,2.24,40.41-2.05,59.98c-4.31,19.64-12.4,37.41-25.88,52.67
			c20.09-6.46,36.45-18.32,50.38-34c-2.13,8.91-5.4,17.31-8.69,25.69c-11.56,29.37-27.54,56.22-46.85,81.09
			c-9.61,12.38-19.97,24.17-31.46,34.83c-6.82,6.33-13.52,12.87-21.27,18.14C479.16,471.06,478.38,471.32,477.65,471.66z"/>
		<path class="st2" d="M356.78,161.51c12.06-3.75,24.45-6.45,36.01-11.75c19.89-9.12,35.43-23.55,49.08-40.21
			c2.72-3.32,4.78-2.45,7.06-0.22c4.25,4.17,6.49,9.53,8.04,15.13c0.96,3.49,2.81,4.63,6.42,4.86c11.27,0.7,21.62-1.66,30.95-8.06
			c1.9-1.3,3.05-0.9,4.56,0.58c4.12,4.02,5.55,9.13,5.9,14.55c0.37,5.77,0.24,11.57-1.35,17.2c-0.77,2.73,0.12,3.76,2.97,3.7
			c8.73-0.18,16.5-2.65,22.81-8.96c1.02-1.02,2.43-3.32,3.25,0.05c2.08,8.49,0.93,26.91-8.31,34.61c-0.21,0.17-0.47,0.28-1.3,0.76
			c3.03-6.16,6.06-11.8,5.87-19.23c-3.04,4.1-5.08,8.05-8.88,10.43c-1.05,0.66-2.07,1.35-3.15,1.94c-3.19,1.74-5.53,1.35-7.28-2.27
			c-2.69-5.57-5.61-11.04-8.66-16.42c-7.26-12.81-17.12-22.56-31.99-25.98c-10.16-2.34-19.9-0.35-29.31,3.64
			c-13.23,5.61-24.4,14.3-34.99,23.8c-4.1,3.68-8.11,7.46-12.1,11.26c-3.02,2.87-6.06,4.23-9.78,1.08c-2.08-1.76-4.45-1.68-7-0.77
			c-6.92,2.48-12.24,7.32-17.73,11.88c-4.68,3.89-9.57,7.44-15.12,9.97c-8.44,3.85-15.05,2.39-20.93-4.79
			c-6.39-7.8-13.12-15.25-21.21-21.33c-6.01-4.52-12.44-8.11-20.3-8.14c-4.79-0.02-8.86,1.62-12.39,4.8
			c-1.64,1.47-3.27,2.95-4.98,4.34c-5.64,4.58-9.58,4.67-15.7,0.72c-13.38-8.64-27.92-13.74-43.99-12.83
			c-14.02,0.8-26.56,6.53-38.79,12.99c-8.87,4.69-17.61,9.67-27.27,12.7c-16.13,5.05-27.91-3.61-27.73-20.46
			c0.01-0.68,0-1.36,0-3.09c1.08,2.33,1.71,3.78,2.41,5.19c5.25,10.52,16.17,14.41,26.8,9.37c8.94-4.24,15.99-11.18,23.54-17.33
			c11.06-9.01,23-15.08,37.73-13.62c2.81,0.28,3.13-0.73,2.59-3.33c-0.99-4.72-1.39-9.54,2.37-14.17
			c7.71,13.6,19.79,20.94,34.14,26.18c-4.84-17.82-4.9-19.55-0.94-25.14c2.61,2.83,4.87,5.92,7.9,8.31
			c10.5,8.31,22.85,11.38,35.77,12.07c14.04,0.75,25.29,6.52,34.53,16.66c0.08-6.21-2.47-12.7-7.56-19.45
			c-3.85-5.11-8.45-9.45-13.59-13.19c-1.51-1.1-2.21-2.21-2.12-4.07c0.62-13.22,5.5-24.53,14.85-33.94
			c1.78-1.79,3.42-1.25,5.24-0.47c14.33,6.14,22.4,17.22,25.45,32.27c0.78,3.86,0.99,7.77,1.34,11.74
			c5.95-10.01,8.24-20.67,6.35-32.11c7.36,6.76,10.7,26.97,6.27,49.36c0.05,2.58-0.78,4.69-2.81,6.43
			c-3.21,2.75-4.91,6.38-5.64,10.15C346.71,164.03,351.17,161.85,356.78,161.51z"/>
		<path class="st0" d="M443.02,480.96c6.85-8.19,12.59-16.16,17.03-24.97c11.75-23.32,15.1-47.2,4.16-71.8
			c-5.74-12.9-14.38-22.38-29.65-23.38c-10.73-0.7-21.06,1.04-31.19,4.5c-6.39,2.18-12.23,5.52-18.34,8.29
			c-11.32,5.12-23.14,7.71-35.61,7.1c-5.51-0.27-9.78-4.33-10.06-9.88c-0.5-9.75-0.91-19.51-1.48-29.26
			c-0.12-2.07,0.23-2.93,2.5-3.51c7.25-1.84,12.98-6.42,18.46-11.26c2.68-2.37,5.09-5.03,7.63-7.56c2.87-2.85,4.48-6.63,10.5-4.21
			c5.82,2.34,12.69-5.71,12.82-13.79c0.14-8.57-4.08-15.49-8.75-22.21c-0.72-1.04-2.59-1.89-1.82-3.31c0.8-1.47,2.71-0.94,4.2-0.98
			c2.38-0.06,4.6,0.68,6.8,1.46c17.9,6.36,32.31,17.41,43.63,32.57c4.03,5.4,7.85,10.96,11.81,16.41c0.78,1.08,1.14,2.56,2.62,3.05
			c2.5-7.63,6.47-14.16,13.6-18.87c-5.6,20.62,0.43,39.43,7.68,57.91c7.43,18.97,13.2,38.31,16.13,58.51
			c1.55,10.67-1.82,19.41-8.89,27.16c-9.51,10.45-20.35,19.33-31.87,27.43C444.63,480.57,444.23,480.59,443.02,480.96z"/>
		<path class="st3" d="M135.78,237.49c1.89,7.63,4.53,14.98,8.38,21.86c0.83,1.48,1.02,3.06,0.88,4.76
			c-1.23,15.24,2.68,27.29,13.23,39.88c-1.6-4.33-2.92-7.86-4.22-11.41c-1.39-3.78-1.78-7.77-2.17-11.72
			c-0.4-3.98,0-7.96,0.88-12.19c3.6,2.18,7.27,3.45,7.46,8.99c0.18,5.25,3.55,9.57,8.15,13.94c-2.06-5.66-2.47-10.52-1.63-15.74
			c22.39,6.88,41.24-2.36,59.74-12.93c6.44-3.68,12.51-7.98,19.12-11.43c7.35-3.84,15.1-4.78,23.21-4.11
			c2.37,0.2,3.04,0.74,2.27,3.3c-1.81,6.04-3.09,12.2-3.87,18.5c-1.01,8.14-0.57,15.86,4.31,23.29c-9.4,1.24-18.37,2.93-27.19,5.38
			c-10.9,3.03-21.31,7.14-31.21,12.68c-16.99,9.51-26.06,24.2-29.25,43.09c-2.12,12.51-1.39,24.89,0.6,37.34
			c-4.03-8.65-6.67-17.74-8.84-26.97c-1.98-8.45-3.37-17-3.27-25.71c0.02-1.77-0.76-2.81-2.02-3.75
			c-10.15-7.54-17.97-17.29-25.66-27.16c-0.76-0.97-1.03-2.33-1.53-3.51c-4.91-6.19-7.18-13.51-9.01-21.03
			c-0.55-2.26-0.87-4.6-2.09-6.67c-1.52-12.09-0.85-24.08,1.61-35.99C133.91,239.06,134.22,237.73,135.78,237.49z"/>
		<path class="st0" d="M278.53,304.7c-1.56-5.79,0.42-9.98,3.86-13.68c3.51-3.77,7.75-6.57,12.35-8.81
			c1.61-0.79,2.47-1.62,2.69-3.57c2.14-18.57,4.66-37.1,6.95-55.64c2.05-16.63-5.2-30.49-16.28-42.51
			c-2.04-2.22-3.92-4.59-5.99-7.04c8.75-0.97,16.87,1.12,23.63,7.55c5.98,5.68,10.74,12.57,17.33,17.68
			c2.29,1.78,4.63,3.45,7.22,4.74c7.23,3.58,13.04,2.48,18.57-3.46c7-7.54,18.63-15.27,26.35-17.39
			c-5.11,6.31-10.02,12.4-14.12,19.07c-2.44,3.97-4.85,8.02-5.97,12.58c-0.81,3.3-2.16,3.96-5.47,2.88
			c-8.44-2.75-15.72-0.67-21.38,6.35c-0.5,0.61-0.84,1.35-1.51,2.43c1.19-0.4,1.94-0.62,2.67-0.89c7.13-2.59,11.7-0.44,13.27,6.89
			c1.7,7.91,2.79,15.95,4.17,23.92c0.66,3.8,1.84,7.46,3.45,10.95c2.6,5.63,6.6,9.59,12.8,11.35c7.52,2.14,12.65,6.98,14.82,14.66
			c0.22,0.79,0.34,1.61,0.42,2.43c0.05,0.47-0.05,0.95-0.14,2.16c-3.36-6.45-8.73-8.84-14.7-10.53c-2.52-0.71-3.67-0.43-4.33,2.38
			c-1.22,5.25-3.44,10.15-6.68,14.49c-7.27,9.76-17.1,13.82-29.12,12.71c-5.48-0.5-8.82-4.08-11.43-8.5
			c-2.3-3.9-4.25-8.02-6.78-11.76c-3.51-5.18-6.7-5.86-12.39-3.2C287.19,295.55,283.12,300.07,278.53,304.7z"/>
		<path class="st0" d="M425.42,488.62c-9.29,11.87-21.49,19.9-35.12,25.77c-23.69,10.2-48.62,14.36-74.31,14.07
			c-6.03-0.07-12.06-0.96-17.78-3.13c-11.94-4.52-19.81-12.73-20.49-25.77c-0.62-12,5.83-20.6,16.04-26.34
			c10.04-5.64,21.04-6.8,32.32-6.23c2.3,0.12,4.59,0.44,6.94,0.68c-15.87,9.01-19.38,18.65-11.92,33.68
			c-1.4-8.32-0.15-15.5,5.7-21.31c5.49-5.45,12.45-7.91,19.85-9.24c10.96-1.97,19.82,1.66,26.1,10.82
			c5.68,8.29,4.17,18.66-3.32,25.34c-1.09,0.98-2.24,1.9-3.58,3.02C379.88,510.24,407.1,505.65,425.42,488.62z"/>
		<path class="st3" d="M506.3,208.7c2.29-0.86,4.57-1.72,6.86-2.59c3.39,2.08,4.7,5.7,6.3,8.98c2.91,5.98,4.82,12.3,4.74,18.48
			c-0.61-10.24,0.4-21.26-3.69-31.68c1.97-1.34,3.94-2.68,5.91-4.02c2.06,7.77,4.83,15.34,6.17,23.31c4,23.93,6.19,47.83-0.38,71.69
			c-0.17,0.63-0.58,1.19-0.87,1.79c-3.93,8.87-8.01,17.63-13.4,25.76c-9.77,14.75-21.36,27.83-34.95,39.14
			c-1.3,1.08-2.57,2.58-4.65,2.13c-2.56-3.48-2.09-6,1.16-9.33c12.45-12.73,21.57-27.7,27.85-44.37c0.43-1.14,0.59-2.37,0.88-3.56
			c-1.05-1.48-0.48-2.87,0.26-4.23c1.61-2.97,2.99-6.05,4.31-9.16c-8.41,19.09-21.78,34.16-38.09,46.83
			c-1.05,0.81-2.11,1.82-3.67,1.47c-1.8-3.28-0.94-5.74,1.78-8.29c5.41-5.07,10.03-10.81,12.63-18.13
			c-3.78,2.93-7.47,5.97-11.37,8.73c-1.69,1.2-3.67,3.53-5.66,2.41c-1.71-0.97-0.71-3.8-0.82-5.8c-0.72-12.61,0.9-24.74,8.5-35.29
			c6.36-8.83,15-14.44,25.74-16.42c4.22-0.78,6.6-3.12,7.77-6.96c1.78-5.86,2.09-11.9,1.61-17.95
			C510.31,230.55,508.8,219.55,506.3,208.7z"/>
		<path class="st0" d="M276.42,189.65c6.84,7.9,12.66,15.31,14.83,24.82c1.66,7.29-2.15,12.94-9.56,14.81
			c-12.19,3.08-23.35,0.82-33.6-6.39c-9.05-6.36-16.79-14.24-25.09-21.46c-9.24-8.04-19.23-9.9-30.58-5.77
			c-3.4,1.24-6.86,1.9-10.49,0.94c-5.27-1.39-7.83-5.14-9.22-11.06c-0.91,6.13-0.45,11.14,3.15,15.2c1.94,2.19,0.89,2.65-0.88,3.67
			c-16.71,9.66-32.16,5.52-47.07-4.28c-3.54-2.33-6.63-5.22-9.73-9.06c13.32,2.73,23.58-3.19,34.06-9.11
			c15.35-8.67,31.35-15.73,49.28-17.33c18.82-1.68,33.51,5.51,44.75,20.28c4.41,5.8,8.43,11.89,12.73,17.77
			c2.61,3.56,5.42,6.99,9.63,8.81c5.63,2.43,9.11,0.31,9.54-5.81c0.3-4.3-0.33-8.51-1.29-12.69
			C276.71,192.23,276.66,191.43,276.42,189.65z"/>
		<path class="st4" d="M427.78,441.72c-23.93,1.56-47.47-1.82-70.85-6.14c-20.1-3.72-40.18-6.14-60.61-3.59
			c-13.35,1.67-26.49,4.56-39.71,7.02c-2.7,0.5-5.42,0.88-8.12,1.31c-4.35,1.36-4.87-2.12-5.99-4.31c0.6,4.94,0.6,4.94-5.78,5.75
			c-7.14-0.08-14.31,0.16-21.33-1.54c-2.14-0.52-4.22-1.24-5.88-2.8c-1.85-1.73-2.29-3.79-1.04-5.96
			c4.69-8.15,10.62-14.69,20.77-15.63c3.93-0.36,7.58,1.55,11.2,1.66c3.27,0.09,5.74-4.2,9.63-4.6c7.99-0.82,15.19,1.6,22.04,5.3
			c2,1.08,3.27,1.41,5.3-0.31c6.3-5.31,13.63-5.01,21.07-2.94c4.11,1.15,8,2.88,11.62,5.15c1.55,0.97,2.66,1.21,4.41,0.14
			c10.09-6.18,20.03-5.47,29.74,1.03c0.98,0.66,1.72,1.97,3.37,0.43c9.4-8.77,21.18-6.44,30.7,0.96c2.24,1.74,3.21,1.67,5.11-0.33
			c3.98-4.16,8.97-3.24,13.87-1.96c0.53,0.14,1.09,0.28,1.53,0.58c4.33,2.86,8.5,3.27,13.52,1.01c5.38-2.43,10.4,0.23,14.91,3.47
			c1.92-5.46,4.43-7.17,10.19-6.47c3.98,0.48,7.95,0.54,11.94,0.58c4.29,0.45,5.72,2.29,5.87,7.54c-2.59,6.34-7.87,9.45-13.96,11.54
			c-1.93,0.66-3.91,1.16-5.86,1.73c-1.83,0.79-2.71-0.65-3.94-1.9C430.27,439.61,430,441.92,427.78,441.72z"/>
		<path class="st4" d="M239.38,368.33c11.17-2.88,21.31,0.48,31.25,5.12c1.1,0.52,2.22,1,3.33,1.5c1.85,0.54,1.64,2.18,1.88,3.63
			c1.45,0.44,2.61-1.39,4.09-0.53c21.61,11.77,44.57,17.63,69.26,15.72c10.99-0.85,21.7-3.3,32.15-6.74
			c2.8-0.92,4.94-1.38,6.69,3.02c0.04-4.25,1.34-6.06,4.46-6.93c5.27-1.47,10.35-3.59,15.59-5.2c7.18-2.21,16.73,4.35,17.14,11.76
			c0.17,3.07-1.21,5.75-3.74,7.43c-7.76,5.18-16.43,7.34-25.72,7.29c-2.96-0.02-5.51-3.57-7.43-2.74c-2.23,0.96-4.15,3.47-6.76,4.32
			c-7.89,2.58-16.02,3.82-24.34,3.58c-1.08-0.03-2.44-0.04-3.17-0.66c-3.81-3.17-7.65-1.22-11.68-0.68
			c-11.23,1.52-22.31-0.02-32.71-4.26c-3.38-1.38-6.05-2.39-9.81-1.92c-6.86,0.85-13.73-0.34-20.29-2.56
			c-4.33-1.47-8-3.76-7.22-9.45c-13.06,8.32-31.57,3.58-37.21-9.29C234.19,375.8,233.67,371,239.38,368.33z"/>
		<path class="st0" d="M204.02,374.19c0.48-21.56,9.26-41.13,29.04-49.36c7.44-3.1,15.15-3.64,23.03-2.77
			c2.19,0.24,3.69,1,4.57,3.62c2.87,8.63,11.05,14.12,21.03,14.39c12.37,0.33,24.69,0.97,36.9,3.28c3.73,0.7,5.17,2.07,4.32,5.86
			c-0.54,2.4-0.67,4.9-0.87,7.36c-0.66,8.44-5.58,11.95-13.77,9.36c-7.94-2.51-15.57-5.94-23.69-7.99
			c-21.79-5.48-43.17-5.8-63.8,4.56C214.89,365.48,209.67,369.49,204.02,374.19z"/>
		<path class="st4" d="M197.51,443.39c7.7,1.96,14.8,3.89,22.04,5.25c13.19,2.49,26.22,1.74,39.35-0.53
			c24.94-4.32,49.96-8.05,75.41-7.1c20.59,0.77,40.47,5.47,60.19,11c8.61,2.41,17.32,4.11,26.35,4.11
			c13.65,0,24.35-5.68,32.86-16.03c0.85-1.03,1.67-2.09,3.1-3.89c0.24,5.41-1.43,9.31-3.73,12.94
			c-5.75,9.07-14.74,13.18-24.65,15.85c-14.88,4-29.13,0.7-43.28-3.71c-16.12-5.02-32.27-9.8-49.32-10.69
			c-13.3-0.7-26.31,1.06-39.33,3.28c-16.91,2.88-33.68,6.68-50.78,8.39c-18.02,1.81-34.27-1.59-46.46-16.4
			C198.75,445.24,198.33,444.55,197.51,443.39z"/>
		<path class="st3" d="M197.38,476.98c10.44,6.64,21.46,12.05,33.2,15.92c11.26,3.72,22.85,5.86,34.67,6.79
			c1.19,0.09,2.99-0.72,3.08,1.59c0.42,11.04,5.92,19.17,15.28,25.62C248.46,519.48,212.49,498.33,197.38,476.98z"/>
		<path class="st3" d="M433.51,473.49c-12.84,13.31-27.49,23.5-45.65,27.91c-0.67,0.16-1.34,0.27-2.01,0.42
			c-5.27,1.2-5.39,1.04-4.13-4.06c1.92-7.79,0.48-14.97-4.2-21.47c-1.27-1.77-2.7-3.42-4.81-6.07c10.54,4.14,20.43,6.54,30.68,7.12
			C413.61,477.92,423.64,476.87,433.51,473.49z"/>
		<path class="st3" d="M399.25,265.46c3.94,4.03,7.44,6.92,10.24,10.69c-1.71,0.28-2.64-0.93-3.74-1.56
			c-9.61-5.56-19.73-9.62-30.91-10.55c-0.94-0.08-1.88,0.01-2.45-1.1c-1.63-3.16-3.79-6.07-4.6-9.62c-1.14-4.95,0.57-7.19,5.6-6.65
			c15.31,1.65,28.78,7.8,40.79,17.27c5.91,4.66,11.21,9.92,15.42,16.27C420.24,274.5,410.65,269.38,399.25,265.46z"/>
		<path class="st5" d="M452.36,251.51c-10.94-1.16-21.57-3.46-30.66-10.23c-3.53-2.63-5.75-6.13-6.61-10.56
			c-0.57-2.97-0.5-4.09,3.27-3.53c11.3,1.68,22.68,2.27,33.98-0.37c4.53-1.06,8.72-2.82,12.57-5.44
			c-7.41,13.02-18.48,19.75-33.85,19.38C437.76,245.55,445.36,247.81,452.36,251.51z"/>
		<path class="st5" d="M188.21,220.74c15.57,10.87,23.9,11.93,50.2,5.96c0.51,5.77-1.93,10.17-6.16,13.66
			c-7.56,6.24-16.76,8.49-26.07,10.4c-2,0.41-4.04,0.62-6.16,0.66c7.25-3.87,15.14-6.35,22.24-11.12
			C206.28,241.61,194.88,235.23,188.21,220.74z"/>
		<path class="st6" d="M478.34,361.69c22.78-17.15,39.51-39.08,51.31-64.92c0.37-0.82,0.1-2.23,1.69-2.11
			c-5.93,19.89-17.22,36.75-30,52.74c-6.09,7.61-12.8,14.66-19.98,21.78C479.66,366.81,479.11,364.2,478.34,361.69z"/>
		<path class="st0" d="M135.78,237.49c-3.7,12.3-3.32,24.95-3.12,37.57c0.01,0.46,0.49,0.91,0.75,1.37
			c1.22,6.92,2.73,13.75,5.62,20.21c0.42,0.93,1.11,1.97,0.17,3.03c-6.24-8.14-9.09-17.64-11.11-27.49
			c-2.52-12.3-1.4-29.56,2.89-41.56C133.26,232.62,134.82,234.82,135.78,237.49z"/>
		<path class="st6" d="M471.02,339.33c18.39-13.29,32.69-30,42.37-50.97c0,3.35-0.77,5.77-3.49,11.11c-0.8,1.58-1.75,3.09-1.68,4.96
			c-3.24,5.19-6.36,10.46-9.74,15.55c-6.89,10.4-15.4,19.29-25.52,27.06C471.91,344.34,471.02,341.96,471.02,339.33z"/>
		<path class="st2" d="M356.78,161.51c-5.13,1.83-10.04,4.04-13.81,9.48c0.54-5.98,2.53-10.09,6.3-13.15
			c1.85-1.49,2.32-3.59,3.27-5.49c0.29,2.13,1.43,1.43,2.6,0.8c3.67-1.97,7.66-3.03,11.68-3.89c1.5-0.32,3.55-1.05,4.55,0.64
			c1.07,1.8-0.8,2.9-1.8,4.16c-1.93,2.43-4.82,2.98-7.43,4.18C360.27,159.1,357.61,158.9,356.78,161.51z"/>
		<path class="st7" d="M239.38,368.33c-3.65,3.37-4.68,7.64-4.26,12.41c-0.47-5.09-3.42-4.32-6.89-3.11
			c-12.3,4.27-19.89,13.17-24.82,24.97C204.22,387.12,221.03,371.19,239.38,368.33z"/>
		<path class="st8" d="M455.26,427.07c-1-3.26-2.31-6.28-5.87-7.54c7.02-6.5,7.87-14.23,3.94-23.45
			C460.65,404.43,461.24,417.6,455.26,427.07z"/>
		<path class="st9" d="M139.21,299.67c-1.68-6.14-4.53-11.93-5.34-18.35c-0.21-1.63-0.33-3.25-0.45-4.88
			c1.12,3.99,2.3,7.97,3.36,11.98c1.44,5.45,4.32,10.29,6.39,15.47c-1.08,0.75-2.07,0.46-1.98-0.79
			C141.32,301.34,139.74,300.86,139.21,299.67z"/>
		<path class="st10" d="M236.72,441.75c3.89-0.45,6.84-1.66,4.73-7.12c3.08,1.81,3.3,6,7.04,5.69c0.23,1.16,1.51,2.74-1.36,2.33
			C243.69,442.16,240.19,442.03,236.72,441.75z"/>
		<path class="st11" d="M427.78,441.72c2.28-1.03,2-3.6,3.03-5.34c2.5,0.34,1.64,4.35,4.63,3.95
			C433.09,441.93,431.02,445.09,427.78,441.72z"/>
		<path class="st12" d="M279.93,378.06c-1.65,0.78-3.3,1.56-5.02,2.37c-0.56-1.92,0.78-3.97-0.95-5.47
			C277.49,373.01,278.79,375.38,279.93,378.06z"/>
		<path class="st13" d="M461.07,282.19c0.47,0.49,0.95,0.99,1.42,1.48c0,1.16,0,2.31,0,3.82
			C460.86,285.73,460.75,284.01,461.07,282.19z"/>
		<path class="st14" d="M520.51,201.89c2.33,0.24,2.08,2.34,2.44,3.75c2.57,9.97,2.43,20.1,1.31,30.35
			c-1.19-10.92-5.21-20.75-11.1-29.88C515.61,204.71,518.06,203.3,520.51,201.89z"/>
	</g>
</g>
<g>
	<g>
		<path class="st1" d="M1258.55,256.09c-1.31-0.61-2.84-1.88-4.56-3.82c-1.74-1.93-3.63-4.64-5.66-8.13l-0.85-1.44l-12.63,1.01
			l8.1-8.11l-6.62-11.83c-4.4-7.5-8.96-12.7-13.64-15.67c3.59-1.09,6.85-2.64,9.78-4.69c2.94-2.05,5.26-4.67,7.01-7.85
			c1.72-3.16,2.57-6.81,2.57-10.86c0-5.04-1.35-9.52-4.08-13.44c-2.74-3.91-6.69-6.93-11.88-9.05c-5.17-2.14-11.18-3.21-18.07-3.21
			h-52.11V161c4.36,0,7.51,0.99,9.47,2.95c1.95,1.98,2.93,5.37,2.93,10.18v70.28c0,3.91-0.74,7.04-2.25,9.4
			c-1.49,2.36-4.89,3.56-10.15,3.56v1.96h47.19v-1.84c-2.71-0.1-4.91-0.4-6.54-0.92c-1.63-0.52-3.04-1.72-4.17-3.58
			c-1.12-1.91-1.7-4.74-1.7-8.58v-32.08h3.19c4.06,0,7.39,0.92,10.02,2.73c2.61,1.81,5.15,4.76,7.6,8.86
			c2.45,4.07,6.36,11.36,11.72,21.85c1.69,3.37,4.1,7.87,7.23,13.55h32.41v-1.96C1261.3,257.11,1259.88,256.7,1258.55,256.09z
			 M1212.92,201.14c-3.96,3.75-9.85,5.61-17.67,5.61h-4.58v-42.14h5.45c4.96,0,9.14,0.8,12.52,2.38c3.38,1.58,5.93,3.91,7.65,6.9
			c1.7,3.04,2.55,6.72,2.55,11.08C1218.85,192.02,1216.87,197.39,1212.92,201.14z"/>
		<path class="st1" d="M1358.76,393.35c-1.32-0.59-2.83-1.88-4.55-3.79c-1.34-1.49-2.79-3.58-4.3-5.96l-12.7,2.99l7.57-8.65
			c0.17,0.05,0.43-1.96,0.58-1.91l-8.84-14.99c-4.4-7.47-8.97-12.72-13.65-15.64c3.59-1.08,6.87-2.67,9.8-4.71
			c2.94-2.03,5.26-4.64,6.99-7.83c1.73-3.18,2.6-6.81,2.6-10.89c0-5.04-1.38-9.52-4.1-13.41c-2.73-3.93-6.69-6.93-11.86-9.07
			c-5.19-2.12-11.21-3.18-18.09-3.18h-52.12v1.96c4.38,0,7.53,0.99,9.49,2.97c1.96,1.96,2.94,5.37,2.94,10.18v70.28
			c0,3.91-0.76,7.04-2.25,9.38c-1.5,2.36-4.89,3.56-10.18,3.56v1.96h47.22v-1.81c-2.71-0.1-4.92-0.42-6.54-0.92
			c-1.64-0.54-3.04-1.74-4.16-3.63c-1.16-1.89-1.73-4.73-1.73-8.53v-32.08h3.21c4.05,0,7.37,0.92,10,2.71
			c2.6,1.84,5.13,4.78,7.6,8.86c2.46,4.1,6.36,11.36,11.72,21.85c1.69,3.37,4.11,7.9,7.23,13.55h32.41v-1.96
			C1361.52,394.38,1360.08,393.98,1358.76,393.35z M1313.12,338.41c-3.96,3.72-9.85,5.61-17.65,5.61h-4.59v-42.14h5.46
			c4.95,0,9.14,0.77,12.53,2.38c3.37,1.58,5.92,3.86,7.62,6.91c1.7,3.02,2.58,6.69,2.58,11.05
			C1319.07,329.27,1317.09,334.67,1313.12,338.41z"/>
		<g>
			<path class="st1" d="M728.77,193.47h-2.38c-0.73-4.85-2.13-9.16-4.19-12.94c-2.07-3.77-4.58-6.88-7.5-9.36
				c-2.93-2.47-6.23-4.36-9.9-5.63c-3.66-1.27-7.53-1.91-11.63-1.91c-5.45,0-10.26,1.15-14.42,3.46c-4.17,2.33-7.36,5.23-9.59,8.68
				c-2.69,4.36-4.57,9.16-5.66,14.47c-1.09,5.28-1.63,10.94-1.63,16.92c0,10.91,1.9,19.61,5.72,26.16
				c3.82,6.53,8.42,11.08,13.82,13.64c5.39,2.57,10.69,3.84,15.93,3.84c12.64,0,23.59-6.18,32.87-18.52v9.2
				c-3.05,3.56-6.32,6.69-9.82,9.4c-3.5,2.71-7.86,4.99-13.09,6.81c-5.23,1.81-11.35,2.73-18.35,2.73c-8.28,0-15.66-1.42-22.14-4.19
				c-6.49-2.8-11.85-6.56-16.13-11.27c-4.28-4.74-7.51-10.13-9.69-16.21c-2.18-6.1-3.27-12.35-3.27-18.81
				c0-5.52,0.7-10.7,2.11-15.46c1.41-4.76,3.32-8.98,5.73-12.7c2.41-3.68,5.27-7.12,8.59-10.33c5.69-5.16,11.59-8.69,17.74-10.56
				c6.14-1.91,12.76-2.85,19.85-2.85c7,0,14.64,1.16,22.92,3.49c2.91,0.68,5.05,1.02,6.42,1.02c2.5,0,4.41-1.63,5.72-4.9h1.97
				V193.47z"/>
			<path class="st1" d="M738.06,208.87c0-6.79,1.17-13.32,3.52-19.54c2.34-6.23,5.78-11.69,10.33-16.38
				c4.55-4.71,10.07-8.36,16.54-10.96c6.48-2.61,13.81-3.93,21.99-3.93c8.28,0,15.65,1.35,22.14,4.01
				c6.48,2.64,11.98,6.31,16.51,11.06c4.53,4.73,7.94,10.18,10.27,16.38c2.32,6.2,3.48,12.8,3.48,19.8c0,6.93-1.13,13.48-3.37,19.61
				c-2.25,6.1-5.56,11.55-9.93,16.26c-4.37,4.71-9.86,8.44-16.47,11.17c-6.61,2.71-14.11,4.1-22.47,4.1
				c-9.01,0-16.87-1.56-23.57-4.62c-6.71-3.04-12.19-7.12-16.44-12.14c-4.26-5.04-7.4-10.6-9.45-16.71
				C739.08,220.91,738.06,214.88,738.06,208.87z M761.94,207.57c0,6.81,0.51,13.53,1.53,20.12c1.02,6.62,3.67,12.77,7.94,18.52
				c4.27,5.75,10.71,8.63,19.31,8.63c12.05,0,19.77-4.86,23.16-14.54c3.38-9.71,5.08-19.58,5.08-29.67c0-7.85-0.67-15.2-2.05-22.06
				c-1.36-6.86-4.15-12.73-8.36-17.61c-4.2-4.88-10.15-7.33-17.83-7.33c-8.64,0-15.09,2.8-19.34,8.36
				c-4.25,5.56-6.89,11.46-7.91,17.72C762.45,196,761.94,201.96,761.94,207.57z"/>
			<path class="st1" d="M886.29,159.02l61.33,64.62v-45.91c0-6.01-1.23-10.16-3.69-12.35c-2.45-2.19-6.21-3.67-11.25-4.38v-1.98
				h34.66V161c-3.82,0.4-6.67,1.44-8.53,3.09c-1.87,1.68-3.07,3.61-3.61,5.85c-0.54,2.21-0.82,4.81-0.82,7.8v82.7h-2.53
				l-73.54-77.25v56.46c0,4.71,1.02,8.76,3.04,12.09c2.02,3.32,5.76,5.2,11.21,5.63v1.96h-35.87v-1.96
				c10.05-0.82,15.03-5.75,14.94-14.8v-66.39c-0.28-0.16-0.65-0.49-1.09-0.94c-0.42-0.42-1.1-1.08-2.05-1.98
				c-0.96-0.92-1.82-1.72-2.59-2.45c-6.1-5.85-11.44-9.15-16.04-9.81v-1.98H886.29z"/>
			<path class="st1" d="M1070.35,159.02V161c-3.7,0.54-6.86,1.96-9.52,4.24c-2.68,2.31-5.4,7.42-8.23,15.44l-28.52,79.75h-2.65
				l-34.24-86.16c-1.65-4.33-3.65-7.56-6.04-9.66c-2.39-2.1-5.85-3.28-10.41-3.61v-1.98h45.92V161c-2.28,0.14-4.12,0.5-5.53,1.13
				c-1.41,0.59-2.12,2.12-2.12,4.6c0,1.72,0.6,4.05,1.77,7l19.57,49.49l15.63-43.83c1.31-3.49,1.98-6.65,1.98-9.45
				c0-1.6-0.62-3.37-1.83-5.33c-1.23-1.96-4.01-3.16-8.33-3.61v-1.98H1070.35z"/>
			<path class="st1" d="M1146.68,159.02l0.82,22.46h-1.99c-0.91-3.75-1.93-6.88-3.03-9.31c-1.11-2.45-2.7-4.34-4.75-5.63
				c-2.04-1.3-4.84-1.93-8.38-1.93h-20.28v42.14h16.19c4.82,0,8.32-1.06,10.54-3.18c2.19-2.15,3.47-5.3,3.85-9.47h1.99v29.41h-1.99
				c-0.69-4.46-2.34-7.4-4.98-8.91c-2.62-1.51-5.78-2.26-9.4-2.26h-16.19v28.87c0,8.36,4.32,12.56,12.97,12.56h6.15
				c4.13,0,7.51-0.57,10.12-1.65c2.63-1.08,4.78-2.97,6.48-5.61c1.71-2.67,3.24-6.44,4.62-11.29h1.97l-1.5,24.11h-75.73v-1.96
				c5.29,0,8.69-1.2,10.23-3.6c1.55-2.38,2.33-5.49,2.33-9.36v-70.28c0-3.68-0.71-6.76-2.12-9.33c-1.41-2.52-4.66-3.8-9.76-3.8
				h-0.68v-1.98H1146.68z"/>
			<path class="st1" d="M1271.23,159.02h70.2c3.23,0,5.92-0.4,8.04-1.22h1.99l0.54,23.57h-1.91c-1-6.91-2.68-11.29-5.07-13.18
				c-2.39-1.91-5.31-2.83-8.76-2.83h-18.77v79.05c0,2.66,0.31,4.88,0.88,6.72c0.6,1.86,1.81,3.32,3.63,4.5
				c1.81,1.16,4.46,1.74,7.97,1.74v1.96h-47.27v-1.96c5.23,0,8.63-1.2,10.17-3.56c1.54-2.36,2.3-5.49,2.3-9.4v-79.05h-18.76
				c-3.17,0-5.76,1.01-7.76,3.02c-2.01,2.03-3.98,6.34-5.86,12.99h-2.13l0.54-23.57h1.99
				C1265.34,158.62,1268.02,159.02,1271.23,159.02z"/>
			<path class="st1" d="M762.47,296.3v1.96c-2.63,0.19-4.81,0.49-6.51,0.99c-1.71,0.47-3.13,1.56-4.27,3.28
				c-1.13,1.7-1.54,4.22-1.23,7.56l5.53,67.38c0.41,4.71,1.08,8.18,2.02,10.44c0.93,2.26,2.1,3.75,3.48,4.53
				c1.38,0.78,3.58,1.51,6.58,2.19v1.96h-46.12v-1.96c3.87-0.12,6.9-1.1,9.11-3.06c2.21-1.96,3.08-5.82,2.63-11.57l-4.91-63.87
				h-0.26l-32.82,80.46h-2.39l-33.84-77.82h-0.27l-4.43,55.9c-0.46,5.52-0.07,9.71,1.16,12.66c1.22,2.9,2.85,4.81,4.87,5.7
				c2.03,0.87,4.38,1.42,7.07,1.6v1.96h-34.11v-1.96c4.32-0.28,7.58-2,9.79-5.18c2.21-3.18,3.7-8.46,4.47-15.86l6.76-63.49
				c-4.23-6.77-10.01-10.7-17.33-11.83v-1.96h36.3l29.05,65.97l26.95-65.97H762.47z"/>
			<path class="st1" d="M774.35,346.14c0-6.83,1.18-13.34,3.51-19.56c2.34-6.22,5.79-11.67,10.34-16.38
				c4.55-4.69,10.06-8.34,16.54-10.96c6.49-2.61,13.82-3.91,22-3.91c8.28,0,15.66,1.35,22.14,3.99c6.48,2.66,11.99,6.34,16.52,11.05
				c4.52,4.74,7.94,10.2,10.26,16.4c2.32,6.2,3.48,12.77,3.48,19.77c0,6.95-1.13,13.48-3.37,19.6c-2.26,6.13-5.56,11.55-9.93,16.29
				c-4.36,4.71-9.85,8.44-16.47,11.15c-6.62,2.73-14.11,4.1-22.48,4.1c-9,0-16.85-1.53-23.56-4.59
				c-6.71-3.09-12.19-7.12-16.44-12.19c-4.25-5.02-7.4-10.58-9.45-16.67C775.37,358.16,774.35,352.13,774.35,346.14z M798.22,344.82
				c0,6.81,0.51,13.53,1.54,20.13c1.02,6.6,3.68,12.8,7.95,18.55c4.27,5.75,10.71,8.6,19.3,8.6c12.05,0,19.77-4.86,23.15-14.54
				c3.39-9.69,5.09-19.58,5.09-29.65c0-7.87-0.69-15.22-2.05-22.08c-1.37-6.85-4.15-12.7-8.36-17.6c-4.21-4.88-10.16-7.3-17.84-7.3
				c-8.64,0-15.08,2.78-19.34,8.34c-4.25,5.56-6.89,11.48-7.91,17.75C798.74,333.27,798.22,339.21,798.22,344.82z"/>
			<path class="st1" d="M922.58,296.3l61.34,64.6v-45.88c0-6.04-1.23-10.16-3.69-12.37c-2.45-2.19-6.2-3.65-11.25-4.38v-1.96h34.66
				v1.96c-3.82,0.42-6.67,1.46-8.53,3.09c-1.86,1.67-3.07,3.63-3.61,5.84c-0.54,2.21-0.82,4.83-0.82,7.82v82.67h-2.52l-73.54-77.23
				v56.44c0,4.74,1.01,8.74,3.03,12.12c2.03,3.32,5.77,5.18,11.22,5.61v1.96h-35.88v-1.96c10.05-0.82,15.02-5.75,14.94-14.78v-66.39
				c-0.27-0.19-0.64-0.52-1.09-0.96c-0.41-0.4-1.09-1.06-2.04-1.98c-0.96-0.92-1.82-1.72-2.6-2.45c-6.09-5.87-11.44-9.12-16.03-9.81
				v-1.96H922.58z"/>
			<path class="st1" d="M1066.24,321.14h-2.66c-1.81-6.27-4.7-11.22-8.65-14.8c-3.98-3.63-8.75-5.42-14.39-5.42
				c-2.79,0-5.31,0.54-7.61,1.67c-2.32,1.11-4.13,2.69-5.47,4.76c-1.36,2.07-2.02,4.43-2.02,7.12c0,1.53,0.26,3.07,0.79,4.57
				c0.51,1.49,1.78,3.32,3.79,5.49c1.99,2.19,5.04,4.6,9.13,7.23c4.59,2.85,7.39,4.67,8.39,5.44c5.73,3.59,10.42,6.93,14.05,10.02
				c3.64,3.09,6.41,6.41,8.32,9.99c1.91,3.6,2.87,7.65,2.87,12.18c0,4.19-0.8,7.99-2.42,11.43c-1.61,3.41-3.92,6.38-6.89,8.91
				c-2.98,2.52-6.53,4.48-10.64,5.87c-4.12,1.36-8.58,2.07-13.41,2.07c-4.94,0-10.68-0.94-17.2-2.8c-0.72-0.17-1.64-0.38-2.75-0.61
				c-1.12-0.24-2.11-0.33-2.98-0.33c-2.12,0-3.67,1.11-4.64,3.32h-2.38l0.62-28.3h2.66c0.87,5.35,2.73,9.81,5.56,13.41
				c2.84,3.56,6.06,6.18,9.66,7.8c3.59,1.6,7.11,2.4,10.57,2.4c5.06,0,9.24-1.41,12.52-4.22c3.31-2.8,4.95-6.24,4.95-10.3
				c0-2.68-0.7-5.09-2.08-7.1c-1.38-2.03-3.46-4.02-6.25-6.01c-2.77-1.98-8-5.4-15.69-10.3c-4.04-2.64-7.49-5.19-10.32-7.64
				c-2.86-2.45-5.06-4.78-6.66-7.05c-1.59-2.24-2.72-4.5-3.38-6.74c-0.66-2.24-0.99-4.64-0.99-7.19c0-4.9,1.26-9.75,3.78-14.49
				c2.53-4.78,6.11-8.67,10.74-11.66c4.65-3.04,9.95-4.55,15.91-4.55c2.76,0,5.43,0.26,7.98,0.83c0.68,0.07,1.58,0.29,2.71,0.56
				c1.15,0.31,2.1,0.54,2.87,0.73c2.02,0.36,3.51,0.52,4.5,0.52c1.55,0,2.64-0.24,3.25-0.73c0.62-0.49,1.18-1.22,1.74-2.17h2.11
				V321.14z"/>
			<path class="st1" d="M1089.38,296.3h70.19c3.22,0,5.91-0.42,8.04-1.22h1.98l0.55,23.55h-1.91c-1.01-6.89-2.69-11.29-5.07-13.18
				c-2.4-1.88-5.31-2.82-8.77-2.82h-18.78v79.07c0,2.61,0.3,4.86,0.92,6.72c0.57,1.81,1.77,3.32,3.59,4.48
				c1.81,1.15,4.49,1.74,8,1.74v1.96h-47.28v-1.96c5.23,0,8.61-1.2,10.15-3.56c1.56-2.33,2.34-5.47,2.34-9.38v-79.07h-18.76
				c-3.19,0-5.76,1.01-7.77,3.01c-2.01,2.03-3.97,6.36-5.88,12.99h-2.1l0.54-23.55h1.97C1083.46,295.88,1086.15,296.3,1089.38,296.3
				z"/>
			<path class="st1" d="M1246.87,296.3l0.83,22.46h-1.98c-0.9-3.77-1.91-6.88-3.04-9.33c-1.11-2.45-2.69-4.31-4.73-5.61
				c-2.06-1.3-4.86-1.93-8.39-1.93h-20.26v42.14h16.16c4.82,0,8.33-1.06,10.54-3.21c2.19-2.12,3.48-5.28,3.87-9.48h1.98v29.41h-1.98
				c-0.69-4.43-2.36-7.43-4.99-8.91c-2.64-1.49-5.78-2.24-9.42-2.24h-16.16v28.87c0,8.36,4.31,12.51,12.94,12.51h6.15
				c4.14,0,7.52-0.52,10.11-1.6c2.63-1.11,4.78-2.99,6.49-5.63c1.7-2.64,3.23-6.41,4.6-11.26h1.98l-1.51,24.09h-75.71v-1.96
				c5.27,0,8.69-1.2,10.22-3.58c1.55-2.38,2.34-5.49,2.34-9.36v-70.28c0-3.68-0.72-6.79-2.13-9.33c-1.41-2.55-4.66-3.82-9.76-3.82
				h-0.68v-1.96H1246.87z"/>
		</g>
		<path class="st3" d="M644.24,197.53c0,0-5.75,42.3,25.58,57.22c0,0-30.55-7.05-29.25-51.28L644.24,197.53z"/>
		<path class="st3" d="M744.13,194.02c0,0-5.75,44.31,25.59,59.98c0,0-30.55-7.4-29.24-53.78L744.13,194.02z"/>
		<path class="st3" d="M822.22,203.8c0,0,3.85,37.85-17.15,51.21c0,0,20.47-6.29,19.6-45.91L822.22,203.8z"/>
		<path class="st3" d="M780.69,331.65c0,0-5.75,44.33,25.59,59.97c0,0-30.56-7.4-29.24-53.76L780.69,331.65z"/>
		<path class="st3" d="M858.78,341.43c0,0,3.85,37.84-17.15,51.23c0,0,20.48-6.3,19.6-45.94L858.78,341.43z"/>
		<polygon class="st3" points="884.89,184.76 949.92,253.6 949.92,250.46 888.41,185.15 		"/>
		<polygon class="st3" points="920.4,321.38 985.44,390.19 985.44,387.05 923.93,321.75 		"/>
		<polygon class="st3" points="1021.21,250.46 989.88,172.24 993.01,172.64 1022.79,246.55 		"/>
		<polygon class="st3" points="693.87,388.99 659.12,312.23 662.27,312.47 695.26,385 		"/>
		<path class="st3" d="M1089.76,175l0.4,71.95c0,0-0.78,5.87-3.53,7.42c0,0,5.88-3.13,5.88-9.78c0-6.65-0.8-65.31-0.8-65.31
			L1089.76,175z"/>
		<path class="st3" d="M1170.22,175l0.37,71.95c0,0-0.77,5.87-3.51,7.42c0,0,5.88-3.13,5.88-9.78c0-6.65-0.8-65.31-0.8-65.31
			L1170.22,175z"/>
		<path class="st3" d="M1115.36,320.08l0.4,65.56c0,0-0.78,5.84-3.52,7.43c0,0,5.86-3.14,5.86-9.78c0-6.67-0.79-58.92-0.79-58.92
			L1115.36,320.08z"/>
		<path class="st3" d="M1190.04,320.08l0.4,65.56c0,0-0.79,5.84-3.53,7.43c0,0,5.88-3.14,5.88-9.78c0-6.67-0.78-58.92-0.78-58.92
			L1190.04,320.08z"/>
		<path class="st3" d="M1272.06,319.93l0.39,65.71c0,0-0.78,5.84-3.51,7.43c0,0,5.87-3.14,5.87-9.78c0-6.67-0.78-59.06-0.78-59.06
			L1272.06,319.93z"/>
		<path class="st3" d="M1297.64,175l0.4,71.95c0,0-0.78,5.87-3.52,7.42c0,0,5.88-3.13,5.88-9.78c0-6.65-0.79-65.31-0.79-65.31
			L1297.64,175z"/>
		<path class="st3" d="M1012.6,325.29c0,0-2.09,11.48,12,21.38c14.12,9.9,38.13,20.83,32.39,33.89c0,0,4.7-11.48-3.65-17.2
			c-10.77-7.4-29.78-20.34-29.78-20.34S1012.07,333.63,1012.6,325.29z"/>
	</g>
</g>
</svg>
