<svg xmlns="http://www.w3.org/2000/svg" width="146.673" height="16.089" viewBox="0 0 146.673 16.089">
  <g id="netology" transform="translate(0 -12)">
    <path id="Контур_20264" data-name="Контур 20264" d="M134,21.349h3.246v4.969H142.8V21.349h3.246V34.2H142.8V28.985h-5.557V34.2H134Z" transform="translate(-108.958 -7.579)"/>
    <path id="Контур_20265" data-name="Контур 20265" d="M216.537,33.227A8.211,8.211,0,0,1,214,32.839a5.986,5.986,0,0,1-2.066-1.213,5.851,5.851,0,0,1-1.4-2.062,7.708,7.708,0,0,1-.516-2.935v-.485a7.265,7.265,0,0,1,.492-2.79,5.356,5.356,0,0,1,1.352-1.965,5.522,5.522,0,0,1,1.992-1.189,7.053,7.053,0,0,1,2.434-.412,6.325,6.325,0,0,1,4.672,1.6,6.28,6.28,0,0,1,1.6,4.633v1.358h-9.221a4.033,4.033,0,0,0,.295,1.48,2.834,2.834,0,0,0,.713.995,2.983,2.983,0,0,0,1.008.582,4.251,4.251,0,0,0,1.18.17,3.912,3.912,0,0,0,1.893-.364,2.025,2.025,0,0,0,.91-1.067h2.976a4.48,4.48,0,0,1-1.943,3.032A6.835,6.835,0,0,1,216.537,33.227Zm-.123-10.819a4.522,4.522,0,0,0-1.131.146,2.77,2.77,0,0,0-.959.461,2.4,2.4,0,0,0-.688.849,3.04,3.04,0,0,0-.295,1.286h6.074a3.445,3.445,0,0,0-.271-1.334,1.992,1.992,0,0,0-.639-.849,2.263,2.263,0,0,0-.934-.437A5.276,5.276,0,0,0,216.415,22.409Z" transform="translate(-170.774 -6.314)"/>
    <path id="Контур_20266" data-name="Контур 20266" d="M286.3,24.015h-4.156V21.349H293.7v2.667h-4.156V34.2H286.3Z" transform="translate(-229.411 -7.579)"/>
    <path id="Контур_20267" data-name="Контур 20267" d="M355.541,33.227a8.209,8.209,0,0,1-2.533-.388,5.689,5.689,0,0,1-3.467-3.3,7.523,7.523,0,0,1-.516-2.911v-.485a6.891,6.891,0,0,1,.516-2.765,5.583,5.583,0,0,1,3.467-3.178,7.766,7.766,0,0,1,2.533-.412,7.551,7.551,0,0,1,2.508.412,5.689,5.689,0,0,1,2.066,1.189,5.554,5.554,0,0,1,1.426,1.989,6.891,6.891,0,0,1,.516,2.765v.485a7.454,7.454,0,0,1-.516,2.887,5.7,5.7,0,0,1-1.426,2.062,5.8,5.8,0,0,1-2.066,1.237A7.551,7.551,0,0,1,355.541,33.227Zm0-2.717a3,3,0,0,0,2.287-.97,4.048,4.048,0,0,0,.934-2.911v-.485a3.619,3.619,0,0,0-.934-2.693,3.267,3.267,0,0,0-4.6,0,3.677,3.677,0,0,0-.91,2.693v.485a4.156,4.156,0,0,0,.91,2.935A3.069,3.069,0,0,0,355.541,30.511Z" transform="translate(-283.804 -6.314)"/>
    <path id="Контур_20268" data-name="Контур 20268" d="M425.314,34.492q-.2,0-.492-.024a2.1,2.1,0,0,1-.492-.048V31.533a2.066,2.066,0,0,0,.369.024,1.286,1.286,0,0,0,.812-.267,2.1,2.1,0,0,0,.566-.97,7.286,7.286,0,0,0,.344-1.794,26.883,26.883,0,0,0,.123-2.813V21.349h10.328V34.2h-3.246V24.016h-4.082V26.2a25.867,25.867,0,0,1-.27,4.122,7.194,7.194,0,0,1-.787,2.522,2.888,2.888,0,0,1-1.328,1.285A4.358,4.358,0,0,1,425.314,34.492Z" transform="translate(-345.034 -7.579)"/>
    <path id="Контур_20269" data-name="Контур 20269" d="M509.384,33.227a8.209,8.209,0,0,1-2.533-.388,5.688,5.688,0,0,1-3.467-3.3,7.519,7.519,0,0,1-.517-2.911v-.485a6.888,6.888,0,0,1,.517-2.765,5.582,5.582,0,0,1,3.467-3.178,7.767,7.767,0,0,1,2.533-.412,7.549,7.549,0,0,1,2.508.412,5.69,5.69,0,0,1,2.066,1.189,5.554,5.554,0,0,1,1.426,1.989,6.892,6.892,0,0,1,.516,2.765v.485a7.454,7.454,0,0,1-.516,2.887,5.7,5.7,0,0,1-1.426,2.062,5.8,5.8,0,0,1-2.066,1.237A7.549,7.549,0,0,1,509.384,33.227Zm0-2.717a3,3,0,0,0,2.287-.97,4.048,4.048,0,0,0,.934-2.911v-.485a3.619,3.619,0,0,0-.934-2.693,3.267,3.267,0,0,0-4.6,0,3.677,3.677,0,0,0-.91,2.693v.485a4.157,4.157,0,0,0,.91,2.935A3.069,3.069,0,0,0,509.384,30.511Z" transform="translate(-408.899 -6.314)"/>
    <path id="Контур_20270" data-name="Контур 20270" d="M585.285,21.349h9.344v2.667h-6.1V34.2h-3.246Z" transform="translate(-475.877 -7.579)"/>
    <path id="Контур_20271" data-name="Контур 20271" d="M644.991,21.349h3.246v8.242l5.8-8.242h3V34.2h-3.246V25.954l-5.8,8.242h-3Z" transform="translate(-524.638 -7.579)"/>
    <path id="Контур_20272" data-name="Контур 20272" d="M723.732,29.372a4.131,4.131,0,0,1-2.188-1.454,3.833,3.833,0,0,1-.689-2.279,4.478,4.478,0,0,1,.32-1.721,3.615,3.615,0,0,1,1.008-1.358,4.566,4.566,0,0,1,1.672-.9,8.281,8.281,0,0,1,2.41-.315h6.148V34.2h-3.246V29.76H726.83L724,34.2h-3.639Zm.369-3.733a1.39,1.39,0,0,0,.541,1.212,2.608,2.608,0,0,0,1.5.388h3.025V24.015h-3.025a2.492,2.492,0,0,0-1.5.412A1.39,1.39,0,0,0,724.1,25.639Z" transform="translate(-585.739 -7.579)"/>
    <path id="Контур_20273" data-name="Контур 20273" d="M4.2,57.013Q4.04,57,3.882,57a3.878,3.878,0,1,0,3.851,3.4A3.883,3.883,0,0,1,4.2,57.013Z" transform="translate(0 -36.674)" fill="#5d00f5" fill-rule="evenodd"/>
    <path id="Контур_20274" data-name="Контур 20274" d="M7.763,15.882a3.882,3.882,0,1,0-3.882,3.882q.149,0,.3-.011a3.882,3.882,0,0,1,3.575-3.575Q7.763,16.031,7.763,15.882Z" fill="#eb236b" fill-rule="evenodd"/>
    <path id="Контур_20275" data-name="Контур 20275" d="M48.4,19.733A3.882,3.882,0,1,0,45,15.882q0,.159.013.314A3.883,3.883,0,0,1,48.4,19.733Z" transform="translate(-36.48)" fill="#4bd0a0" fill-rule="evenodd"/>
    <path id="Контур_20276" data-name="Контур 20276" d="M45.033,60.375a3.878,3.878,0,1,0,3.343-3.343A3.884,3.884,0,0,1,45.033,60.375Z" transform="translate(-36.48 -36.674)" fill="#06f" fill-rule="evenodd"/>
  </g>
</svg>
