<svg id="new_SF_logo_BLACK" xmlns="http://www.w3.org/2000/svg" width="93.027" height="20" viewBox="0 0 93.027 20">
  <path id="Контур_1032" data-name="Контур 1032" d="M5.327,9.839a4.491,4.491,0,0,1,1.31,1.59,5.068,5.068,0,0,1,.371,2.062v2.857C7.008,18.775,5.916,20,3.755,20H3.209C1.07,20,0,18.8,0,16.412V12.288H1.943V16.5c0,.988.437,1.482,1.332,1.482h.393C4.541,17.981,5,17.487,5,16.5V13.555a2.468,2.468,0,0,0-.2-1.1,2.675,2.675,0,0,0-.677-.795l-2.445-2a4.314,4.314,0,0,1-1.31-1.59A5.214,5.214,0,0,1,0,6.015V3.652C0,1.224,1.092,0,3.253,0h.5C5.894,0,6.964,1.2,6.964,3.588V7.132H5.021V3.5c0-.988-.437-1.482-1.332-1.482H3.34c-.873,0-1.332.494-1.332,1.482V5.994a2.173,2.173,0,0,0,.218,1.1,3.047,3.047,0,0,0,.677.795Z" transform="translate(0 0)"/>
  <path id="Контур_1033" data-name="Контур 1033" d="M245.188,105.913h-2.2l-3.275-7.877v7.877H237.7V89.191h2.008v7.746l3.449-7.746h2.118l-3.6,8.23Z" transform="translate(-228.449 -86.044)"/>
  <path id="Контур_1034" data-name="Контур 1034" d="M475.158,89.191v16.722H473.15V89.191Z" transform="translate(-455.036 -86.044)"/>
  <path id="Контур_1035" data-name="Контур 1035" d="M583.691,89.191H585.7v14.954H589v1.768h-5.3Z" transform="translate(-561.359 -86.044)"/>
  <path id="Контур_1036" data-name="Контур 1036" d="M756.268,89.191h2.008v14.954h3.3v1.768h-5.3Z" transform="translate(-727.333 -86.044)"/>
  <path id="Контур_1037" data-name="Контур 1037" d="M941.167.561h6.605V2.3h-4.619V7.8h3.253V9.518h-3.253v10.89h-2.008V.561Z" transform="translate(-905.147 -0.539)"/>
  <path id="Контур_1038" data-name="Контур 1038" d="M1102.288,88.068l2.707,16.766h-1.965l-.415-2.794h-3.231l-.393,2.794h-1.921l2.707-16.766Zm-1.31,2.991-1.375,9.256h2.729Z" transform="translate(-1055.118 -84.965)"/>
  <path id="Контур_1039" data-name="Контур 1039" d="M1348.657,95.7h1.943V99.17c0,2.074-1.092,3.1-3.253,3.1h-.655c-2.161,0-3.253-1.026-3.253-3.1V88.364c0-2.074,1.091-3.1,3.253-3.1h.655c2.139,0,3.209,1.026,3.209,3.056v3.013h-1.943V88.277c0-.851-.437-1.266-1.332-1.266h-.5c-.873,0-1.332.415-1.332,1.266V99.257c0,.851.437,1.266,1.332,1.266h.546c.873,0,1.331-.415,1.331-1.266V95.7Z" transform="translate(-1292.06 -82.27)"/>
  <path id="Контур_1040" data-name="Контур 1040" d="M1572.208,105.913H1570.2V90.959h-2.62V89.191h7.248v1.768h-2.62Z" transform="translate(-1507.628 -86.044)"/>
  <path id="Контур_1041" data-name="Контур 1041" d="M1798.628,99.17c0,2.074-1.091,3.1-3.253,3.1h-.742c-2.161,0-3.253-1.026-3.253-3.1V88.364c0-2.074,1.092-3.1,3.253-3.1h.742c2.161,0,3.253,1.026,3.253,3.1Zm-2.008-10.893c0-.851-.437-1.266-1.332-1.266h-.59c-.873,0-1.331.415-1.331,1.266V99.257c0,.851.437,1.266,1.331,1.266h.59c.873,0,1.332-.415,1.332-1.266Z" transform="translate(-1722.869 -82.27)"/>
  <path id="Контур_1042" data-name="Контур 1042" d="M2030.976,98.032a2.041,2.041,0,0,1,1.572,2.249v5.632h-2.008v-5.567c0-.961-.5-1.463-1.528-1.463h-1.485v7.029h-1.986V89.191h3.733c2.161,0,3.253,1.026,3.253,3.1v3.1A2.545,2.545,0,0,1,2030.976,98.032Zm-.458-5.829c0-.851-.436-1.266-1.331-1.266h-1.659V97.2h1.506c.982,0,1.484-.48,1.484-1.419V92.2Z" transform="translate(-1948.22 -86.044)"/>
  <path id="Контур_1043" data-name="Контур 1043" d="M2236.621,97.377l1.855-8.186h1.965l-2.816,10.959v5.763h-2.008v-5.741L2232.8,89.191h2.052Z" transform="translate(-2147.414 -86.044)"/>
</svg>
