<svg xmlns="http://www.w3.org/2000/svg" width="218.933" height="35.914" viewBox="0 0 218.933 35.914">
  <g id="Сгруппировать_3160" data-name="Сгруппировать 3160" transform="translate(0)">
    <g id="Сгруппировать_3158" data-name="Сгруппировать 3158" transform="translate(0 2.015)">
      <g id="Icons" transform="translate(0 0)">
        <path id="Контур_20432" data-name="Контур 20432" d="M17.259,35.894a5.449,5.449,0,0,1-5.43-4.965A5.436,5.436,0,0,1,7.87,22.356a4.515,4.515,0,0,1,1.154-8.574,4.422,4.422,0,0,1-.408-1.872,4.533,4.533,0,0,1,3.235-4.341,4.342,4.342,0,0,1-.125-1.029A4.548,4.548,0,0,1,16.387,2a4.649,4.649,0,0,1,4.413,4.7V33.052a2.712,2.712,0,0,1-1.918,2.6A5.456,5.456,0,0,1,17.259,35.894ZM16.268,2.966a3.553,3.553,0,0,0-3.35,4.793.484.484,0,0,1-.372.639A3.569,3.569,0,0,0,9.584,11.91a3.414,3.414,0,0,0,.634,2,.484.484,0,0,1-.393.767,3.614,3.614,0,0,0-3.644,3.574A3.565,3.565,0,0,0,8.8,21.666a.484.484,0,0,1,.229.791,4.532,4.532,0,0,0-1.2,3.036,4.482,4.482,0,0,0,4.467,4.487.484.484,0,0,1,.484.484,4.488,4.488,0,0,0,5.816,4.261,1.747,1.747,0,0,0,1.239-1.674V6.695a3.673,3.673,0,0,0-3.469-3.729Z" transform="translate(-5.213 -1.995)" fill="#fff"/>
      </g>
      <g id="Icons-2" data-name="Icons" transform="translate(16.465 0)">
        <path id="Контур_20432-2" data-name="Контур 20432" d="M8.754,35.894a5.449,5.449,0,0,0,5.43-4.965,5.436,5.436,0,0,0,3.959-8.574,4.515,4.515,0,0,0-1.154-8.574A4.422,4.422,0,0,0,17.4,11.91a4.533,4.533,0,0,0-3.235-4.341,4.342,4.342,0,0,0,.125-1.029A4.548,4.548,0,0,0,9.627,2a4.649,4.649,0,0,0-4.413,4.7V33.052a2.712,2.712,0,0,0,1.918,2.6,5.456,5.456,0,0,0,1.623.242ZM9.745,2.966A3.553,3.553,0,0,1,13.1,7.759a.484.484,0,0,0,.372.639,3.569,3.569,0,0,1,2.961,3.512,3.414,3.414,0,0,1-.634,2,.484.484,0,0,0,.393.767,3.614,3.614,0,0,1,3.644,3.574,3.565,3.565,0,0,1-2.615,3.411.484.484,0,0,0-.229.791,4.532,4.532,0,0,1,1.2,3.036,4.482,4.482,0,0,1-4.467,4.487.484.484,0,0,0-.484.484,4.488,4.488,0,0,1-5.816,4.261,1.747,1.747,0,0,1-1.239-1.675V6.695A3.673,3.673,0,0,1,9.651,2.966Z" transform="translate(-5.213 -1.995)" fill="#fff"/>
      </g>
      <ellipse id="Эллипс_1327" data-name="Эллипс 1327" cx="2.703" cy="2.703" rx="2.703" ry="2.703" transform="translate(8.373 1.891)" fill="#fff"/>
      <ellipse id="Эллипс_1339" data-name="Эллипс 1339" cx="2.694" cy="2.694" rx="2.694" ry="2.694" transform="translate(18.281 1.904)" fill="#ef4864"/>
      <ellipse id="Эллипс_1328" data-name="Эллипс 1328" cx="3.285" cy="3.285" rx="3.285" ry="3.285" transform="translate(5.106 6.998)" fill="#d1e92a"/>
      <ellipse id="Эллипс_1337" data-name="Эллипс 1337" cx="3.293" cy="3.293" rx="3.293" ry="3.293" transform="translate(20.376 6.993)" fill="#00a7cf"/>
      <ellipse id="Эллипс_1329" data-name="Эллипс 1329" cx="2.985" cy="3.004" rx="2.985" ry="3.004" transform="translate(1.802 13.268)" fill="#ef4864"/>
      <ellipse id="Эллипс_1336" data-name="Эллипс 1336" cx="2.994" cy="2.994" rx="2.994" ry="2.994" transform="translate(24.268 13.28)" fill="#fff"/>
      <ellipse id="Эллипс_1330" data-name="Эллипс 1330" cx="3.436" cy="3.436" rx="3.436" ry="3.436" transform="translate(3.304 20.177)" fill="#00a7cf"/>
      <ellipse id="Эллипс_1340" data-name="Эллипс 1340" cx="3.443" cy="3.443" rx="3.443" ry="3.443" transform="translate(21.873 20.165)" fill="#d1e92a"/>
      <ellipse id="Эллипс_1331" data-name="Эллипс 1331" cx="2.854" cy="2.854" rx="2.854" ry="2.854" transform="translate(8.674 26.447)" fill="#ef4864"/>
      <ellipse id="Эллипс_1344" data-name="Эллипс 1344" cx="2.844" cy="2.844" rx="2.844" ry="2.844" transform="translate(17.682 26.452)" fill="#fff"/>
      <ellipse id="Эллипс_1332" data-name="Эллипс 1332" cx="3.154" cy="3.154" rx="3.154" ry="3.154" transform="translate(8.073 14.47)" fill="#fff"/>
      <ellipse id="Эллипс_1338" data-name="Эллипс 1338" cx="3.143" cy="3.143" rx="3.143" ry="3.143" transform="translate(17.682 14.477)" fill="#ef4864"/>
      <ellipse id="Эллипс_1333" data-name="Эллипс 1333" cx="1.502" cy="1.483" rx="1.502" ry="1.483" transform="translate(11.377 11.203)" fill="#00a7cf"/>
      <ellipse id="Эллипс_1342" data-name="Эллипс 1342" cx="1.497" cy="1.497" rx="1.497" ry="1.497" transform="translate(17.682 11.184)" fill="#d1e92a"/>
      <ellipse id="Эллипс_1335" data-name="Эллипс 1335" cx="1.952" cy="1.934" rx="1.952" ry="1.934" transform="translate(10.476 21.979)" fill="#d1e92a"/>
      <ellipse id="Эллипс_1341" data-name="Эллипс 1341" cx="1.946" cy="1.946" rx="1.946" ry="1.946" transform="translate(17.682 21.961)" fill="#00a7cf"/>
      <ellipse id="Эллипс_1334" data-name="Эллипс 1334" cx="1.202" cy="1.202" rx="1.202" ry="1.202" transform="translate(11.677 7.298)" fill="#ef4864"/>
      <ellipse id="Эллипс_1343" data-name="Эллипс 1343" cx="1.197" cy="1.197" rx="1.197" ry="1.197" transform="translate(17.981 7.293)" fill="#fff"/>
    </g>
    <g id="Сгруппировать_3159" data-name="Сгруппировать 3159" transform="translate(44.508)">
      <path id="Контур_20388" data-name="Контур 20388" d="M5062.749,1276.2a8.333,8.333,0,0,0,1.813,5.858c2.9,3.363,7.212,3.8,10.642,6.054.852.558,1.6,1.567.98,2.586-1.156,1.912-5.81.545-7.392-.193a12.379,12.379,0,0,1-2.854-1.854c-.628.565-3.993,4.022-5.065,5.115,3.495,2.8,6.829,4.393,11.412,4.58a13.954,13.954,0,0,0,9.546-3.163,8.233,8.233,0,0,0,1.336-10.587c-2.905-4.161-11.076-5.31-12.3-7.515-.666-1.2.491-2.727,2.526-2.781,2.371.256,3.534.65,6.429,2.336.659-.66,3.559-3.581,4.488-4.526a13.611,13.611,0,0,0-9.447-4.3C5069.451,1267.653,5063.413,1270.239,5062.749,1276.2Z" transform="translate(-5060.872 -1262.741)" fill="#fff" fill-rule="evenodd"/>
      <path id="Контур_20389" data-name="Контур 20389" d="M5196.879,1298.373h7.865V1280.84a5.055,5.055,0,0,1,5.041-5.041h.8v-7.943h-1.869a11.868,11.868,0,0,0-11.833,11.833Z" transform="translate(-5105.202 -1262.758)" fill="#fff" fill-rule="evenodd"/>
      <path id="Контур_20390" data-name="Контур 20390" d="M5279.318,1260.36h7.9v5.005h6.492v8.446h-6.492v9.167a5.08,5.08,0,0,0,5.066,5.065h.8v7.978H5291.2a11.922,11.922,0,0,1-11.886-11.886v-10.324h-3.8v-8.446h3.8Z" transform="translate(-5130.836 -1260.315)" fill="#fff" fill-rule="evenodd"/>
      <path id="Контур_20391" data-name="Контур 20391" d="M5246.656,1298.345h7.676v-13.169c-.041-.643,0-1.3,0-1.962a15.428,15.428,0,1,0-7.676,13.344v1.786Zm-7.756-7.868a7.263,7.263,0,1,1,7.262-7.262A7.263,7.263,0,0,1,5238.9,1290.477Z" transform="translate(-5113.866 -1262.734)" fill="#fff" fill-rule="evenodd"/>
      <path id="Контур_20392" data-name="Контур 20392" d="M5117.637,1298.373a15.259,15.259,0,1,1,15.258-15.258,15.259,15.259,0,0,1-15.258,15.258Zm0-8.087a7.171,7.171,0,1,0-7.173-7.171A7.171,7.171,0,0,0,5117.637,1290.286Z" transform="translate(-5074.398 -1262.758)" fill="#fff" fill-rule="evenodd"/>
      <path id="Контур_20393" data-name="Контур 20393" d="M5170.588,1295.908h8.122v-7.326a12.318,12.318,0,0,0-5.835-10.447,5.058,5.058,0,0,1,5.038-4.843h.8v-7.942h-1.871a11.87,11.87,0,0,0-11.8,10.937h-2.823v-15.974l-8.144-.021v30.032h8.144v-6.1h3.193a5.192,5.192,0,0,1,5.177,5.177Z" transform="translate(-5091.251 -1260.292)" fill="#fff" fill-rule="evenodd"/>
      <ellipse id="Эллипс_1325" data-name="Эллипс 1325" cx="3.964" cy="3.964" rx="3.964" ry="3.964" transform="translate(166.499 27.744)" fill="#fff"/>
    </g>
  </g>
</svg>
