<svg id="logo" xmlns="http://www.w3.org/2000/svg" width="86.571" height="27.188" viewBox="0 0 86.571 27.188">
  <path id="Контур_1075" data-name="Контур 1075" d="M8.968,17.935A8.968,8.968,0,1,0,0,8.968,8.968,8.968,0,0,0,8.968,17.935Z" fill="#a2c81f"/>
  <path id="Контур_1076" data-name="Контур 1076" d="M66.268,17.935A8.968,8.968,0,1,0,57.3,8.968,8.967,8.967,0,0,0,66.268,17.935Z" transform="translate(-41.538)" fill="#a2c81f"/>
  <path id="Контур_1077" data-name="Контур 1077" d="M144.768,17.935A8.968,8.968,0,1,0,135.8,8.968,8.967,8.967,0,0,0,144.768,17.935Z" transform="translate(-98.444)" fill="#a2c81f"/>
  <path id="Контур_1078" data-name="Контур 1078" d="M213.485,15.7V11.658H212V10.2h4.621v1.458h-1.458V15.7Z" transform="translate(-153.683 -7.394)"/>
  <path id="Контур_1079" data-name="Контур 1079" d="M231.7,15.7V10.2h4.181v1.458h-2.5v.55h2.448v1.458h-2.448v.605h2.5v1.458H231.7Z" transform="translate(-167.964 -7.394)"/>
  <path id="Контур_1080" data-name="Контур 1080" d="M252.464,15.7l-.193-.633h-1.981l-.193.633h-1.9l2.036-5.5h2.091l2.036,5.5Zm-1.183-3.879-.55,1.761h1.1Z" transform="translate(-179.925 -7.394)"/>
  <path id="Контур_1081" data-name="Контур 1081" d="M271.4,12.733A2.813,2.813,0,0,1,274.426,9.9a2.6,2.6,0,0,1,2.5,1.6l-1.43.66a1.158,1.158,0,0,0-1.073-.8,1.376,1.376,0,0,0,0,2.751,1.158,1.158,0,0,0,1.073-.8l1.43.66a2.576,2.576,0,0,1-2.5,1.6A2.8,2.8,0,0,1,271.4,12.733Z" transform="translate(-196.744 -7.177)"/>
  <path id="Контур_1082" data-name="Контур 1082" d="M297.759,15.7V13.611h-1.981V15.7H294.1V10.2h1.678v1.953h1.981V10.2h1.678v5.5Z" transform="translate(-213.199 -7.394)"/>
  <path id="Контур_1083" data-name="Контур 1083" d="M248.9,40.8V35.3h1.678v4.044h2.091V40.8Z" transform="translate(-180.433 -25.59)"/>
  <path id="Контур_1084" data-name="Контур 1084" d="M265.7,40.8V35.3h1.678v5.5Z" transform="translate(-192.612 -25.59)"/>
  <path id="Контур_1085" data-name="Контур 1085" d="M279.514,40.8l-2.036-2.778V40.8H275.8V35.3h1.706l1.926,2.613V35.3h1.678v5.5Z" transform="translate(-199.933 -25.59)"/>
  <path id="Контур_1086" data-name="Контур 1086" d="M299.1,40.8V35.3h4.181v1.458h-2.5v.55h2.448v1.458h-2.448v.605h2.5v1.458H299.1Z" transform="translate(-216.824 -25.59)"/>
  <path id="Контур_1087" data-name="Контур 1087" d="M156.205,80.447l.778-2.505h.611L156.251,81.8q-.312.834-.992.834l-.108-.009-.213-.04v-.463l.155.012a.753.753,0,0,0,.451-.117.842.842,0,0,0,.269-.429l.127-.34-1.192-3.306h.624Zm4.427.837h-.575V80.073a3.03,3.03,0,0,1-.772.1,1.32,1.32,0,0,1-.958-.321,1.242,1.242,0,0,1-.334-.914v-1h.572v1.016q.015.748.72.748a3.03,3.03,0,0,0,.772-.1V77.942h.575Zm2.3.062a1.463,1.463,0,0,1-1.106-.445,1.663,1.663,0,0,1-.426-1.2V79.6a2.009,2.009,0,0,1,.189-.887,1.484,1.484,0,0,1,.531-.612,1.337,1.337,0,0,1,.741-.222,1.252,1.252,0,0,1,1.013.429,1.859,1.859,0,0,1,.361,1.23v.238h-2.264a1.2,1.2,0,0,0,.287.8.914.914,0,0,0,.7.3,1,1,0,0,0,.513-.124,1.29,1.29,0,0,0,.368-.327l.349.272A1.4,1.4,0,0,1,162.937,81.346Zm-.071-3a.76.76,0,0,0-.581.253,1.214,1.214,0,0,0-.29.7h1.674v-.043a1.08,1.08,0,0,0-.235-.673A.716.716,0,0,0,162.865,78.35Zm3.506-.216a1.282,1.282,0,0,1,1.007.423,1.59,1.59,0,0,1,.38,1.109v.053a1.906,1.906,0,0,1-.182.846,1.36,1.36,0,0,1-.525.578,1.5,1.5,0,0,1-.785.2,1.4,1.4,0,0,1-1.084-.448,1.726,1.726,0,0,1-.411-1.208v-.278a3.127,3.127,0,0,1,.389-1.674,1.643,1.643,0,0,1,1.155-.757,1.53,1.53,0,0,0,.584-.188.359.359,0,0,0,.152-.306h.47a.93.93,0,0,1-.176.6.968.968,0,0,1-.556.306l-.426.1a1.439,1.439,0,0,0-.766.408,1.467,1.467,0,0,0-.33.76A1.409,1.409,0,0,1,166.372,78.133Zm-.111.47a.839.839,0,0,0-.667.284,1.144,1.144,0,0,0-.247.782v.049a1.346,1.346,0,0,0,.247.853.818.818,0,0,0,.673.312.809.809,0,0,0,.673-.315,1.468,1.468,0,0,0,.247-.921,1.1,1.1,0,0,0-.25-.757A.846.846,0,0,0,166.261,78.6Zm4.816,2.681h-.572V79.857H168.97v1.427H168.4V77.942h.575v1.449h1.535V77.942h.572Zm1.545-2.19h.868a1.337,1.337,0,0,1,.9.3,1,1,0,0,1,.331.788,1.023,1.023,0,0,1-.34.8,1.323,1.323,0,0,1-.914.3H172.05V77.942h.571Zm3.29,2.19h-.575V77.942h.575Zm-3.29-1.724v1.257h.85a.7.7,0,0,0,.5-.164.6.6,0,0,0,.176-.454.621.621,0,0,0-.173-.454.647.647,0,0,0-.479-.185Zm6.451-1.619h.571v3.343h-.571V78.847l-1.542,2.437h-.572V77.942h.572v2.441Zm.154-1.217a.769.769,0,0,1-.256.6,1.1,1.1,0,0,1-1.338,0,.765.765,0,0,1-.256-.6h.467a.473.473,0,0,0,.117.34.539.539,0,0,0,.679,0,.452.452,0,0,0,.124-.34Zm2.953,1.217h.575v2.876h1.538V77.942h.572v2.876h.4l-.056,1.458h-.513v-.992H182.18Zm5.088,3.4a1.464,1.464,0,0,1-1.106-.445,1.662,1.662,0,0,1-.426-1.2V79.6a2.009,2.009,0,0,1,.188-.887,1.484,1.484,0,0,1,.531-.612,1.337,1.337,0,0,1,.742-.222,1.252,1.252,0,0,1,1.013.429,1.859,1.859,0,0,1,.361,1.23v.238h-2.264a1.2,1.2,0,0,0,.287.8.915.915,0,0,0,.7.3,1,1,0,0,0,.513-.124,1.289,1.289,0,0,0,.367-.327l.349.272A1.4,1.4,0,0,1,187.268,81.346Zm-.071-3a.76.76,0,0,0-.581.253,1.214,1.214,0,0,0-.29.7H188v-.043a1.082,1.082,0,0,0-.235-.673A.716.716,0,0,0,187.2,78.35Zm4.77,2.935h-.572V79.857h-1.535v1.427h-.575V77.942h.575v1.449h1.535V77.942h.572Zm3.4-2.879h-1.121v2.879h-.572V78.405h-1.1v-.463h2.793Zm3.38,1.245a2,2,0,0,1-.349,1.23,1.119,1.119,0,0,1-.945.466,1.226,1.226,0,0,1-.958-.386v1.609h-.572V77.942h.522l.028.371a1.177,1.177,0,0,1,.97-.433,1.136,1.136,0,0,1,.951.454,2.016,2.016,0,0,1,.352,1.264Zm-.572-.065a1.477,1.477,0,0,0-.241-.893.776.776,0,0,0-.661-.327.84.84,0,0,0-.778.46v1.6a.841.841,0,0,0,.785.457.77.77,0,0,0,.652-.324A1.612,1.612,0,0,0,198.179,79.585Z" transform="translate(-112.179 -55.447)"/>
</svg>
